<?xml version="1.0" encoding="UTF-8"?>
<svg width="19px" height="19px" viewBox="0 0 19 19" version="1.1" xmlns="http://www.w3.org/2000/svg" xmlns:xlink="http://www.w3.org/1999/xlink">
    <!-- Generator: Sketch 48.2 (47327) - http://www.bohemiancoding.com/sketch -->
    <title>07_icons/04_social/facebook</title>
    <desc>Created with Sketch.</desc>
    <defs></defs>
    <g id="UI-library" stroke="none" stroke-width="1" fill="none" fill-rule="evenodd">
        <g id="icons" transform="translate(-132.000000, -1512.000000)" fill="#3B5998">
            <g id="social" transform="translate(0.000000, 1501.000000)">
                <g id="07_icons/04_social/facebook" transform="translate(132.000000, 11.000000)">
                    <path d="M18,0 L1,0 C0.5,0 0,0.5 0,1 L0,18 C0,18.6 0.5,19 1,19 L10.1,19 L10.1,11.6 L7.6,11.6 L7.6,8.7 L10.1,8.7 L10.1,6.6 C10.1,4.1 11.6,2.8 13.8,2.8 C14.8,2.8 15.7,2.9 16,2.9 L16,5.5 L14.5,5.5 C13.3,5.5 13.1,6.1 13.1,6.9 L13.1,8.7 L15.9,8.7 L15.5,11.6 L13,11.6 L13,19 L18,19 C18.6,19 19,18.5 19,18 L19,1 C19,0.5 18.5,0 18,0 L18,0 Z" id="icon-facebook"></path>
                </g>
            </g>
        </g>
    </g>
</svg>