<?xml version="1.0" encoding="UTF-8"?>
<svg width="19px" height="19px" viewBox="0 0 19 19" version="1.1" xmlns="http://www.w3.org/2000/svg" xmlns:xlink="http://www.w3.org/1999/xlink">
    <!-- Generator: Sketch 48.2 (47327) - http://www.bohemiancoding.com/sketch -->
    <title>07_icons/04_social/linkedin</title>
    <desc>Created with Sketch.</desc>
    <defs></defs>
    <g id="UI-library" stroke="none" stroke-width="1" fill="none" fill-rule="evenodd">
        <g id="icons" transform="translate(-176.000000, -1512.000000)" fill="#0077B5">
            <g id="social" transform="translate(0.000000, 1501.000000)">
                <g id="07_icons/04_social/linkedin" transform="translate(176.000000, 11.000000)">
                    <path d="M17.6,0 L1.4,0 C0.6,0 0,0.6 0,1.4 L0,17.7 C0,18.4 0.6,19 1.4,19 L17.6,19 C18.4,19 19,18.4 19,17.6 L19,1.4 C19,0.6 18.4,0 17.6,0 L17.6,0 Z M5.6,16.2 L2.8,16.2 L2.8,7.1 L5.6,7.1 L5.6,16.2 L5.6,16.2 Z M4.2,5.9 C3.3,5.9 2.6,5.2 2.6,4.3 C2.6,3.4 3.3,2.7 4.2,2.7 C5.1,2.7 5.8,3.4 5.8,4.3 C5.9,5.2 5.1,5.9 4.2,5.9 L4.2,5.9 Z M16.2,16.2 L13.4,16.2 L13.4,11.8 C13.4,10.7 13.4,9.4 11.9,9.4 C10.4,9.4 10.2,10.5 10.2,11.7 L10.2,16.2 L7.4,16.2 L7.4,7.1 L10.1,7.1 L10.1,8.3 L10.1,8.3 C10.5,7.6 11.4,6.8 12.8,6.8 C15.7,6.8 16.2,8.7 16.2,11.1 L16.2,16.2 L16.2,16.2 Z" id="icon-linkedin"></path>
                </g>
            </g>
        </g>
    </g>
</svg>