<?xml version="1.0" encoding="UTF-8"?>
<svg width="19px" height="17px" viewBox="0 0 19 17" version="1.1" xmlns="http://www.w3.org/2000/svg" xmlns:xlink="http://www.w3.org/1999/xlink">
    <!-- Generator: Sketch 48.2 (47327) - http://www.bohemiancoding.com/sketch -->
    <title>07_icons/04_social/twitter</title>
    <desc>Created with Sketch.</desc>
    <defs></defs>
    <g id="UI-library" stroke="none" stroke-width="1" fill="none" fill-rule="evenodd">
        <g id="icons" transform="translate(-219.000000, -1513.000000)" fill="#5FA8DC">
            <g id="social" transform="translate(0.000000, 1501.000000)">
                <g id="07_icons/04_social/twitter" transform="translate(219.000000, 12.000000)">
                    <path d="M6,16.2 C3.8,16.2 1.7,15.6 0,14.4 C0.3,14.4 0.6,14.5 0.9,14.5 C2.7,14.5 4.4,13.9 5.7,12.8 C4,12.8 2.6,11.6 2.1,10.1 C2.3,10.1 2.6,10.2 2.8,10.2 C3.2,10.2 3.5,10.2 3.8,10.1 C2,9.7 0.7,8.2 0.7,6.3 L0.7,6.3 C1.2,6.6 1.8,6.8 2.5,6.8 C1.5,6.1 0.8,4.9 0.8,3.6 C0.8,2.9 1,2.2 1.3,1.6 C3.2,4 6.1,5.5 9.3,5.7 C9.2,5.4 9.2,5.1 9.2,4.8 C9.2,2.6 10.9,0.9 13.1,0.9 C14.2,0.9 15.2,1.4 15.9,2.1 C16.8,1.9 17.6,1.6 18.4,1.2 C18.1,2.1 17.5,2.9 16.7,3.4 C17.5,3.3 18.2,3.1 18.9,2.8 C18.4,3.6 17.7,4.3 17,4.8 L17,5.3 C17.1,10.3 13.1,16.2 6,16.2" id="icon-twitter"></path>
                </g>
            </g>
        </g>
    </g>
</svg>