<svg xmlns="http://www.w3.org/2000/svg" width="48" height="48" viewBox="0 0 48 48"><title>NS_spoordeel_icons</title><path d="M35.536,9.982l-4.6,1.062-.347-.741a3.28,3.28,0,0,0-4.167-1.572,30.886,30.886,0,0,0-4.329,2.062l-.108-.169a2.259,2.259,0,0,0-3.265-.591,35.573,35.573,0,0,0-4.767,3.918A35.362,35.362,0,0,0,10.042,18.7a2.258,2.258,0,0,0,.581,3.278l.17.106a30.816,30.816,0,0,0-2.063,4.331,3.283,3.283,0,0,0,1.583,4.173l.73.341-1.062,4.6a3.236,3.236,0,0,0,5.431,3.024,3.279,3.279,0,0,0,.494-.634l2.212-3.686.281.132a1.756,1.756,0,0,0,2.019-.332,1.714,1.714,0,0,0,.129-.144l3.018-3.869.341.217a1.736,1.736,0,0,0,2.172-.238l3.927-3.927a1.736,1.736,0,0,0,.238-2.172l-.213-.343,3.87-3.019a1.781,1.781,0,0,0,.142-.127,1.752,1.752,0,0,0,.335-2.006l-.137-.293,3.686-2.212a3.279,3.279,0,0,0,.634-.494,3.236,3.236,0,0,0-3.024-5.431ZM15.045,37.41a2.23,2.23,0,0,1-4.085-1.648l1.014-4.394L17.2,33.813Zm4.714-4.137a.755.755,0,0,1-.922.195l-8.085-3.78a2.29,2.29,0,0,1-1.08-2.915,29.721,29.721,0,0,1,1.972-4.148L22.71,29.491ZM29.4,24.446a.746.746,0,0,1-.1.922L25.368,29.3a.737.737,0,0,1-.922.1l-.736-.457,0-.008L11.861,21.577,11.74,21.5l-.577-.367A1.239,1.239,0,0,1,10.6,20.3a1.266,1.266,0,0,1,.257-1.007,35.155,35.155,0,0,1,3.8-4.627,35.208,35.208,0,0,1,4.627-3.8l.026-.019a1.254,1.254,0,0,1,1.82.323l7.8,12.557Zm3.881-4.691L29.5,22.7,22.625,11.644a29.8,29.8,0,0,1,4.147-1.972,2.288,2.288,0,0,1,2.909,1.069l3.792,8.108A.738.738,0,0,1,33.278,19.755Zm5.1-7.327a2.217,2.217,0,0,1-.968,2.617l-3.6,2.158-2.446-5.229,4.394-1.014A2.221,2.221,0,0,1,38.378,12.428Z"/></svg>