<svg id="Layer_1" data-name="Layer 1" xmlns="http://www.w3.org/2000/svg" width="48" height="48" viewBox="0 0 48 48"><defs><style>.cls-1{fill-rule:evenodd;}</style></defs><title>NS_spoordeel_icons</title><path class="cls-1" d="M32,11V8a1,1,0,0,0-2,0v3H18V8a1,1,0,0,0-2,0v3H8V40H40V11Zm7,28H9V12h7v2a1,1,0,0,0,2,0V12H30v2a1,1,0,0,0,2,0V12h7Z"/><rect x="16" y="19" width="2" height="2"/><rect x="16" y="25" width="2" height="2"/><rect x="16" y="31" width="2" height="2"/><rect x="30" y="19" width="2" height="2"/><rect x="30" y="25" width="2" height="2"/><rect x="23" y="19" width="2" height="2"/><rect x="23" y="25" width="2" height="2"/><rect x="23" y="31" width="2" height="2"/></svg>