<svg id="Layer_1" data-name="Layer 1" xmlns="http://www.w3.org/2000/svg" width="48" height="48" viewBox="0 0 48 48"><title>icoon_</title><path d="M43,13H17a2.971,2.971,0,0,0-3,3V31a2.973,2.973,0,0,0,3,3h8v9l9-9h9a2.971,2.971,0,0,0,3-3V16A2.971,2.971,0,0,0,43,13Zm2,18a1.973,1.973,0,0,1-2,2H33.586l-.293.293L26,40.586V33H17a1.976,1.976,0,0,1-2-2V16a1.973,1.973,0,0,1,2-2H43a1.973,1.973,0,0,1,2,2Z"/><path d="M4,23V8A2.006,2.006,0,0,1,6,6H27a2.006,2.006,0,0,1,2,2v3h1V8a3,3,0,0,0-3-3H6A3,3,0,0,0,3,8V23a3,3,0,0,0,3,3h6V25H6A2.006,2.006,0,0,1,4,23Z"/></svg>