<svg xmlns="http://www.w3.org/2000/svg" width="48" height="48" viewBox="0 0 48 48"><title>NS_spoordeel_icons</title><path d="M24,6.26l2.67,2.048.391.3.476-.128,3.251-.871,1.683,2.914.247.427.489.064,3.337.44.44,3.337.064.489.427.247,2.914,1.683-.871,3.251-.128.476.3.391L41.74,24l-2.048,2.67-.3.391.128.476.871,3.251-2.914,1.683-.427.247-.064.489-.44,3.337-3.337.44-.489.064-.247.427-1.683,2.914-3.251-.871-.476-.128-.391.3L24,41.74l-2.67-2.048-.391-.3-.476.128-3.251.871-1.683-2.914-.247-.427-.489-.064-3.337-.44-.44-3.337-.064-.489-.427-.247L7.611,30.789l.871-3.251.128-.476-.3-.391L6.26,24l2.048-2.67.3-.391-.128-.476-.871-3.251,2.914-1.683.427-.247.064-.489.44-3.337,3.337-.44.489-.064.247-.427,1.683-2.914,3.251.871.476.128.391-.3L24,6.26M24,5,20.721,7.515,16.729,6.446l-2.067,3.579-4.1.54-.54,4.1L6.446,16.729l1.069,3.992L5,24l2.515,3.279L6.446,31.271l3.579,2.067.54,4.1,4.1.54,2.067,3.579,3.992-1.069L24,43l3.279-2.515,3.992,1.069,2.067-3.579,4.1-.54.54-4.1,3.579-2.067-1.069-3.992L43,24l-2.515-3.279,1.069-3.992-3.579-2.067-.54-4.1-4.1-.54L31.271,6.446,27.279,7.515,24,5Z"/><path d="M17.35,31.625A.5.5,0,0,1,17,30.771L30.771,17a.5.5,0,1,1,.707.707L17.7,31.479A.5.5,0,0,1,17.35,31.625Z"/><path d="M18.775,17.25a2,2,0,1,1-2,2,2,2,0,0,1,2-2m0-1a3,3,0,1,0,3,3,3,3,0,0,0-3-3Z"/><path d="M29.225,26.75a2,2,0,1,1-2,2,2,2,0,0,1,2-2m0-1a3,3,0,1,0,3,3,3,3,0,0,0-3-3Z"/></svg>