<svg xmlns="http://www.w3.org/2000/svg" width="48" height="48" viewBox="0 0 48 48"><title>NS_spoordeel_icons</title><path d="M17.024,26.075V25.03h1.181a9.733,9.733,0,0,1-.058-1.1q0-.254.014-.493t.034-.464H17.024V21.925H18.38a6.123,6.123,0,0,1,2.609-3.755,7.944,7.944,0,0,1,4.463-1.225,6.456,6.456,0,0,1,2.324.437l-.518,1.079a5.123,5.123,0,0,0-1.807-.325,6.257,6.257,0,0,0-3.457.935,5.181,5.181,0,0,0-2.109,2.854h5.693l-.527,1.045h-5.42q-.039.264-.059.542t-.02.571a7.787,7.787,0,0,0,.059.947h4.424l-.518,1.045H19.827a5.045,5.045,0,0,0,2.1,2.873,6.251,6.251,0,0,0,3.467.916,7.671,7.671,0,0,0,2.383-.341v1.308a10,10,0,0,1-1.05.166,11.367,11.367,0,0,1-1.2.059,8.168,8.168,0,0,1-4.521-1.179,6.063,6.063,0,0,1-2.619-3.8Z"/><path d="M24,41.5A17.5,17.5,0,1,1,41.5,24,17.52,17.52,0,0,1,24,41.5Zm0-34A16.5,16.5,0,1,0,40.5,24,16.519,16.519,0,0,0,24,7.5Z"/></svg>