<svg xmlns="http://www.w3.org/2000/svg" width="48" height="48" viewBox="0 0 48 48"><title>NS_spoordeel_icons</title><path d="M22.187,16c-8.239,0-9.461-3.122-9.637-4.14a3.379,3.379,0,0,1,2.63-3.668c2.417-.723,6.083.456,8.842,5.923a4.515,4.515,0,0,1,.275-.766c2.226-4.093,5.247-4.8,7.153-4.16a2.688,2.688,0,0,1,2.02,2.834c-.13.866-1.186,3.709-9.328,3.923Q23.1,16,22.187,16ZM16.532,8.951a3.772,3.772,0,0,0-1.081.155A2.446,2.446,0,0,0,13.489,11.7c.3,1.707,3.076,3.568,9.914,3.325C21.276,10.513,18.594,8.951,16.532,8.951Zm13.613.986c-1.508,0-3.444.986-5.012,3.869a10.542,10.542,0,0,0-.362,1.158v0c5.407-.255,7.561-1.8,7.754-3.086a1.739,1.739,0,0,0-1.379-1.788A3.164,3.164,0,0,0,30.145,9.937Z"/><path d="M22.453,16H7v7H9V39H38V23h2V16ZM23,38H10V23H23Zm0-16H8V17H23ZM37,38H24V23H37Zm2-21v5H24V17Z"/></svg>