<svg xmlns="http://www.w3.org/2000/svg" width="48" height="48" viewBox="0 0 48 48"><title>NS_spoordeel_icons</title><path d="M12,27a4,4,0,1,1,4-4A4,4,0,0,1,12,27Zm0-7a3,3,0,1,0,3,3A3,3,0,0,0,12,20Z"/><path d="M35.438,22H21.563A5.569,5.569,0,0,0,16,27.562V28H7V17.5a.5.5,0,0,0-1,0v22a.5.5,0,0,0,1,0V35H40v4.5a.5.5,0,0,0,1,0V27.562A5.569,5.569,0,0,0,35.438,22ZM17,27.562A4.568,4.568,0,0,1,21.563,23H23v5H17ZM7,29H23v5H7Zm17,5V23H35.438A4.568,4.568,0,0,1,40,27.562V34Z"/><path d="M24.266,17a5.265,5.265,0,0,1-.584-10.5.5.5,0,0,1,.444.812A3.207,3.207,0,0,0,23.4,9.351,3.248,3.248,0,0,0,26.648,12.6a3.207,3.207,0,0,0,2.037-.722.5.5,0,0,1,.812.444A5.256,5.256,0,0,1,24.266,17Zm-1.55-9.24a4.266,4.266,0,1,0,5.525,5.525A4.241,4.241,0,0,1,22.715,7.76Z"/></svg>