<svg id="Layer_1" data-name="Layer 1" xmlns="http://www.w3.org/2000/svg" width="48" height="48" viewBox="0 0 48 48"><title>icoon_</title><path d="M34,2H14a3,3,0,0,0-3,3V43a3,3,0,0,0,3,3H34a3,3,0,0,0,3-3V5A3,3,0,0,0,34,2Zm2,41a2,2,0,0,1-2,2H14a2,2,0,0,1-2-2V5a2,2,0,0,1,2-2H34a2,2,0,0,1,2,2Z"/><path d="M32,6H16a1,1,0,0,0-1,1V36a1,1,0,0,0,1,1H32a1,1,0,0,0,1-1V7A1,1,0,0,0,32,6Zm0,30H16V7H32Z"/><path d="M24,38.5A2.5,2.5,0,1,0,26.5,41,2.5,2.5,0,0,0,24,38.5Zm0,4A1.5,1.5,0,1,1,25.5,41,1.5,1.5,0,0,1,24,42.5Z"/></svg>