<svg id="Layer_1" data-name="Layer 1" xmlns="http://www.w3.org/2000/svg" width="48" height="48" viewBox="0 0 48 48"><title>NS_spoordeel_icons</title><path d="M36.979,9H11.021A4.026,4.026,0,0,0,7,13.021V34.979A4.026,4.026,0,0,0,11.021,39H36.979A4.026,4.026,0,0,0,41,34.979V13.021A4.026,4.026,0,0,0,36.979,9ZM40,34.979A3.025,3.025,0,0,1,36.979,38H11.021A3.025,3.025,0,0,1,8,34.979V13.021A3.025,3.025,0,0,1,11.021,10H36.979A3.025,3.025,0,0,1,40,13.021Z"/><polygon points="29.47 15.677 33.793 20 24 20 24 21 33.793 21 29.47 25.323 30.177 26.03 35.707 20.5 30.177 14.97 29.47 15.677"/><polygon points="18.53 22.677 17.823 21.97 12.293 27.5 17.823 33.03 18.53 32.323 14.207 28 24 28 24 27 14.207 27 18.53 22.677"/></svg>