<svg id="Layer_1" data-name="Layer 1" xmlns="http://www.w3.org/2000/svg" width="48" height="48" viewBox="0 0 48 48"><title>NS_spoordeel_icons</title><path d="M24,32.784a16.811,16.811,0,0,1-7.709-1.87,17.359,17.359,0,0,1-2.083-1.256L14,29.508V10.347l.209-.15a16.894,16.894,0,0,1,19.576-.144L34,10.2V29.516l-.212.149a17.425,17.425,0,0,1-2.071,1.248A16.93,16.93,0,0,1,24,32.784Zm-9-3.8a16.519,16.519,0,0,0,1.751,1.037,15.856,15.856,0,0,0,14.509,0A16.662,16.662,0,0,0,33,28.995V10.728a15.889,15.889,0,0,0-18,.135Z"/><path d="M21.011,22.1a16.6,16.6,0,0,1-2.24-.557l-.294-.1L16.7,9.087l.99-.143,1.687,11.744a15.875,15.875,0,0,0,1.812.43Z"/><path d="M24,22.372a16.769,16.769,0,0,1-2.987-.269l.178-.984a15.709,15.709,0,0,0,5.621,0,15.944,15.944,0,0,0,1.811-.43L30.31,8.928l.99.143-1.78,12.379-.294.1a16.6,16.6,0,0,1-2.239.557A16.8,16.8,0,0,1,24,22.372Z"/><path d="M20.289,24.843a1.535,1.535,0,0,0,0,3.069,1.442,1.442,0,0,0,.937-.353,1.548,1.548,0,0,0,0-2.362A1.441,1.441,0,0,0,20.289,24.843Z"/><path d="M27.71,24.843a1.441,1.441,0,0,0-.937.353,1.548,1.548,0,0,0,0,2.362,1.442,1.442,0,0,0,.937.353,1.535,1.535,0,0,0,0-3.069Z"/><path d="M31.924,42.15a.5.5,0,0,1-.456-.293L28.9,36.188a.5.5,0,0,1,.91-.413l2.573,5.668a.5.5,0,0,1-.249.662A.492.492,0,0,1,31.924,42.15Z"/><path d="M16.076,42.15a.492.492,0,0,1-.206-.045.5.5,0,0,1-.249-.662l2.573-5.668a.5.5,0,0,1,.91.413l-2.573,5.668A.5.5,0,0,1,16.076,42.15Z"/><rect x="17.009" y="38.996" width="13.981" height="1"/></svg>