<svg xmlns="http://www.w3.org/2000/svg" width="48" height="48" viewBox="0 0 48 48"><title>NS_spoordeel_icons</title><path d="M28.524,6.414l3.38,3.38a4.6,4.6,0,0,0,3.933,6.978,4.449,4.449,0,0,0,2.37-.674l3.379,3.379-22.11,22.11L16.1,38.206a4.6,4.6,0,0,0-3.933-6.978,4.449,4.449,0,0,0-2.37.674L6.414,28.524l22.11-22.11m0-1.414L5,28.524l4.713,4.713a3.448,3.448,0,0,1,2.45-1.009A3.6,3.6,0,0,1,14.71,33.29a3.534,3.534,0,0,1,.053,5L19.476,43,43,19.476l-4.713-4.713a3.448,3.448,0,0,1-2.45,1.009A3.6,3.6,0,0,1,33.29,14.71a3.534,3.534,0,0,1-.053-5L28.524,5Z"/><circle cx="26.252" cy="13.646" r="0.736" transform="translate(-1.96 22.56) rotate(-45)"/><circle cx="28.278" cy="15.671" r="0.736" transform="translate(-2.799 24.585) rotate(-45)"/><circle cx="30.303" cy="17.697" r="0.736" transform="translate(-3.638 26.609) rotate(-44.997)"/><circle cx="32.329" cy="19.722" r="0.736" transform="translate(-4.476 28.638) rotate(-45.003)"/><circle cx="34.354" cy="21.748" r="0.736" transform="translate(-5.316 30.66) rotate(-44.997)"/><rect x="14.45" y="23.327" width="11.516" height="1" transform="translate(-10.929 21.268) rotate(-45)"/><rect x="16.613" y="25.491" width="11.516" height="1" transform="translate(-11.826 23.431) rotate(-45)"/><rect x="19.756" y="29.826" width="5.758" height="1" transform="translate(-14.814 24.888) rotate(-45)"/></svg>