<svg xmlns="http://www.w3.org/2000/svg" width="75" height="75" viewBox="0 0 75 75"><path d="M32.5,52.033a1.715,1.715,0,0,1-1.288-.555,2.08,2.08,0,0,1-.394-1.966q.286-1.094.563-2.191c.51-2,1.038-4.072,1.66-6.082a18.137,18.137,0,0,0,.523-5.794c-.014-.875-.028-1.774.013-2.678l-5.331-.713a2.248,2.248,0,0,1-1.565-.752,1.557,1.557,0,0,1-.274-1.2c.08-.571.479-1.512,2.211-1.376.786.06,1.573.13,2.359.2,2,.179,4.059.363,6.077.363h.057c2.109,0,4.263-.178,6.346-.346.923-.074,1.845-.149,2.768-.21l.155-.021c1.806-.2,2.149.9,2.214,1.383a1.565,1.565,0,0,1-.282,1.2,2.217,2.217,0,0,1-1.568.739q-1.9.242-3.806.478l-2.073.258c-.008.159-.017.317-.03.475a27.01,27.01,0,0,0,1.831,11.913c.372,1.031.676,2.1.969,3.128l.308,1.072c.372,1.268-.045,2.217-1.113,2.539-.483.148-1.669.295-2.263-1.449q-1.512-4.46-3.012-8.924c-.129-.38-.136-.376-.317-.375a.3.3,0,0,0-.11.015c-.008.018-.037.129-.057.2l-.043.154q-1.359,4.462-2.705,8.929a1.91,1.91,0,0,1-1.5,1.558A2.017,2.017,0,0,1,32.5,52.033ZM28.283,29.709c-.81,0-.859.353-.885.53a.554.554,0,0,0,.081.458,1.36,1.36,0,0,0,.9.364l6.257.837-.032.468c-.069,1.019-.053,2.058-.037,3.063A19.144,19.144,0,0,1,34,41.535c-.615,1.985-1.14,4.043-1.646,6.033q-.28,1.1-.565,2.2a1.124,1.124,0,0,0,.167,1.039.748.748,0,0,0,.713.214c.354-.056.518-.257.7-.858q1.346-4.468,2.705-8.931l.033-.119a1.093,1.093,0,0,1,1.117-.961,1.246,1.246,0,0,1,1.273,1.032c1.007,3,2.012,5.973,3.02,8.945.346,1.019.809.88,1.026.813.246-.074.757-.229.443-1.3l-.311-1.08c-.289-1.014-.587-2.063-.948-3.062a27.982,27.982,0,0,1-1.886-12.344c.017-.185.025-.37.033-.558l.035-.67.549-.1c.106-.021.19-.036.274-.046l2.084-.26q1.9-.237,3.8-.478a1.368,1.368,0,0,0,.9-.356.565.565,0,0,0,.084-.463c-.029-.221-.077-.629-1.118-.521-.1.015-.146.022-.192.025-.919.061-1.837.135-2.755.209-2.1.17-4.275.345-6.424.349a61.685,61.685,0,0,1-6.225-.367c-.782-.07-1.564-.14-2.347-.2C28.448,29.712,28.362,29.709,28.283,29.709Z"/><path d="M37.259,28.463a2.749,2.749,0,0,1-.032-5.5h.032a2.715,2.715,0,0,1,2.747,2.65,2.769,2.769,0,0,1-.769,2,2.727,2.727,0,0,1-1.935.847Zm-.021-4.5A1.752,1.752,0,0,0,35.5,25.691a1.772,1.772,0,0,0,.537,1.256,1.889,1.889,0,0,0,1.246.517,1.734,1.734,0,0,0,1.229-.538,1.774,1.774,0,0,0,.491-1.283,1.718,1.718,0,0,0-1.768-1.676Z"/><path d="M37.5,58.138A20.638,20.638,0,1,1,58.138,37.5,20.662,20.662,0,0,1,37.5,58.138Zm0-40.276A19.638,19.638,0,1,0,57.138,37.5,19.66,19.66,0,0,0,37.5,17.862Z"/></svg>