<?xml version="1.0" encoding="utf-8"?>
<!-- Generator: Adobe Illustrator 19.0.1, SVG Export Plug-In . SVG Version: 6.00 Build 0)  -->
<svg version="1.1" id="OV_tram_metro_bus" xmlns="http://www.w3.org/2000/svg" xmlns:xlink="http://www.w3.org/1999/xlink" x="0px"
	 y="0px" width="75px" height="75px" viewBox="0 0 75 75" enable-background="new 0 0 75 75" xml:space="preserve">
<g>
	<rect x="41" y="29" width="1" height="2"/>
	<polygon points="54.707,27 50,22.293 50,20 49,20 49,19.031 48,19.031 48,20 47,20 47,22.293 42.287,27 41,27 41,28 42.701,28 
		48,22.707 48,21 49,21 49,22.707 54.25,28 56,28 56,27 	"/>
	<rect x="55" y="29" width="1" height="30"/>
	<polygon points="43,35 44,35 44,31 46,31 46,30 43,30 	"/>
	<polygon points="47,35 47.958,35 47.958,31 49.958,31 49.958,30 47,30 	"/>
	<polygon points="47,28 48,28 48,25.938 49.969,25.938 50,25 47,25 	"/>
	<polygon points="51,35 51.917,35 51.917,31 53.917,31 53.917,30 51,30 	"/>
	<polygon points="43,42 44,42 44,38 46,38 46,37 43,37 	"/>
	<polygon points="47,42 47.958,42 47.958,38 49.958,38 49.958,37 47,37 	"/>
	<polygon points="51,42 51.917,42 51.917,38 53.917,38 53.917,37 51,37 	"/>
	<polygon points="43,49 44,49 44,45 46,45 46,44 43,44 	"/>
	<polygon points="47,49 47.958,49 47.958,45 49.958,45 49.958,44 47,44 	"/>
	<polygon points="51,49 51.917,49 51.917,45 53.917,45 53.917,44 51,44 	"/>
	<polygon points="43,56 44,56 44,52 46,52 46,51 43,51 	"/>
	<polygon points="47,58.958 47.958,58.958 47.958,52 49.958,52 49.958,51 47,51 	"/>
	<polygon points="51,56 51.917,56 51.917,52 53.917,52 53.917,51 51,51 	"/>
	<rect x="41" y="36" width="1" height="23"/>
	<rect x="27" y="36" width="1" height="23"/>
	<polygon points="33,35 34,35 34,33 36,33 36,32 33,32 	"/>
	<polygon points="29,42 30,42 30,38 32,38 32,37 29,37 	"/>
	<polygon points="33,42 34,42 34,38 36,38 36,37 33,37 	"/>
	<polygon points="37,42 38,42 38,38 40,38 40,37 37,37 	"/>
	<polygon points="29,49 30,49 30,45 32,45 32,44 29,44 	"/>
	<polygon points="33,49 34,49 34,45 36,45 36,44 33,44 	"/>
	<polygon points="37,49 38,49 38,45 40,45 40,44 37,44 	"/>
	<polygon points="29,56 30,56 30,52 32,52 32,51 29,51 	"/>
	<polygon points="33,59 34,59 34,52 36,52 36,51 33,51 	"/>
	<polygon points="37,56 38,56 38,52 40,52 40,51 37,51 	"/>
	<rect x="27" y="34" width="2" height="1"/>
	<rect x="40" y="34" width="2" height="1"/>
	<polygon points="36,27.293 36,25 33,25 33,27.293 28.287,32 27,32 27,33 28.701,33 34,27.707 34,26 35,26 35,27.707 40.266,32.984 
		41.982,32.995 42,32 40.707,32 	"/>
	<polygon points="22.646,17.646 20.5,19.793 18.354,17.646 17.646,18.354 19.793,20.5 17.646,22.646 18.354,23.354 20.5,21.207 
		22.646,23.354 23.354,22.646 21.207,20.5 23.354,18.354 	"/>
	<polygon points="22.646,25.646 20.5,27.793 18.354,25.646 17.646,26.354 19.793,28.5 17.646,30.646 18.354,31.354 20.5,29.207 
		22.646,31.354 23.354,30.646 21.207,28.5 23.354,26.354 	"/>
	<polygon points="22.646,33.646 20.5,35.793 18.354,33.646 17.646,34.354 19.793,36.5 17.646,38.646 18.354,39.354 20.5,37.207 
		22.646,39.354 23.354,38.646 21.207,36.5 23.354,34.354 	"/>
</g>
</svg>
