<?xml version="1.0" encoding="utf-8"?>
<!-- Generator: Adobe Illustrator 21.0.2, SVG Export Plug-In . SVG Version: 6.00 Build 0)  -->
<svg version="1.1" id="Layer_1" xmlns="http://www.w3.org/2000/svg" xmlns:xlink="http://www.w3.org/1999/xlink" x="0px" y="0px"
	 viewBox="0 0 75 75" style="enable-background:new 0 0 75 75;" xml:space="preserve">
<g>
	<path d="M27.5,41c2.2,0,4-2,4-4.5v-1c0-2.5-1.8-4.5-4-4.5s-4,2-4,4.5v1C23.5,39,25.3,41,27.5,41z M24.5,35.5c0-1.9,1.3-3.5,3-3.5
		s3,1.6,3,3.5v1c0,1.9-1.3,3.5-3,3.5s-3-1.6-3-3.5V35.5z"/>
	<path d="M41.5,30.5v-1c0-2.5-1.8-4.5-4-4.5s-4,2-4,4.5v1c0,2.5,1.8,4.5,4,4.5S41.5,33,41.5,30.5z M37.5,34c-1.7,0-3-1.6-3-3.5v-1
		c0-1.9,1.3-3.5,3-3.5s3,1.6,3,3.5v1C40.5,32.4,39.2,34,37.5,34z"/>
	<path d="M31.5,41.8c-0.3,0-0.5,0.2-0.5,0.5s0.2,0.5,0.5,0.5c1.9,0,3.5,2.3,3.5,4.2v2h-7h-1h-7v-2c0-1.9,1.6-4.2,3.5-4.2
		c0.3,0,0.5-0.2,0.5-0.5s-0.2-0.5-0.5-0.5C21,41.8,19,44.6,19,47v3h8h1h8v-3C36,44.6,34,41.8,31.5,41.8z"/>
	<path d="M47.5,41c2.2,0,4-2,4-4.5v-1c0-2.5-1.8-4.5-4-4.5s-4,2-4,4.5v1C43.5,39,45.3,41,47.5,41z M44.5,35.5c0-1.9,1.3-3.5,3-3.5
		s3,1.6,3,3.5v1c0,1.9-1.3,3.5-3,3.5s-3-1.6-3-3.5V35.5z"/>
	<path d="M51.5,41.8c-0.3,0-0.5,0.2-0.5,0.5s0.2,0.5,0.5,0.5c1.9,0,3.5,2.3,3.5,4.2v2h-7h-1h-7v-2c0-1.9,1.6-4.2,3.5-4.2
		c0.3,0,0.5-0.2,0.5-0.5s-0.2-0.5-0.5-0.5C41,41.8,39,44.6,39,47v3h8h1h8v-3C56,44.6,54,41.8,51.5,41.8z"/>
</g>
</svg>
