<?xml version="1.0" encoding="utf-8"?>
<!-- Generator: Adobe Illustrator 19.0.1, SVG Export Plug-In . SVG Version: 6.00 Build 0)  -->
<svg version="1.1" id="OV_tram_metro_bus" xmlns="http://www.w3.org/2000/svg" xmlns:xlink="http://www.w3.org/1999/xlink" x="0px"
	 y="0px" width="75px" height="75px" viewBox="0 0 75 75" enable-background="new 0 0 75 75" xml:space="preserve">
<g>
	<path fill="none" d="M17.625,30.75c3.929,0,7.125-3.196,7.125-7.125S21.554,16.5,17.625,16.5S10.5,19.696,10.5,23.625
		S13.696,30.75,17.625,30.75z M12.082,25l0.407-1h1.234c-0.018,0-0.05-0.329-0.05-0.5s0.032-0.5,0.05-0.5h-1.641l0.407-1h1.457
		c0.622-2,2.292-3.021,4.276-3.021c0.952,0,1.834,0.323,2.565,0.823l-0.37,0.719c-0.618-0.449-1.372-0.738-2.195-0.738
		c-1.537,0-2.854,1.217-3.433,2.217h4.849l-0.509,1H17h-2.477c-0.022,0-0.05,0.329-0.05,0.5s0.028,0.5,0.05,0.5H17h1.62l-0.509,1
		h-3.322c0.579,1,1.856,2.283,3.392,2.283c0.681,0,1.818-0.156,1.818-0.475v0.903c0,0.256-1.154,0.372-1.818,0.372
		c-1.984,0-3.613-1.083-4.235-3.083H12.082z"/>
	<circle fill="none" cx="41.552" cy="46.583" r="2.582"/>
	<circle fill="none" cx="33.542" cy="35.583" r="2.582"/>
	<path d="M17.625,31.75c4.48,0,8.125-3.645,8.125-8.125S22.105,15.5,17.625,15.5S9.5,19.145,9.5,23.625S13.145,31.75,17.625,31.75z
		 M10.5,23.625c0-3.929,3.196-7.125,7.125-7.125s7.125,3.196,7.125,7.125s-3.196,7.125-7.125,7.125S10.5,27.554,10.5,23.625z"/>
	<path d="M60,50.5V30v-1v-4.5c0-1.105-0.895-1.5-2-1.5H27.506c0.023,0.31,0.035,0.642,0.035,0.917c0,0.028-0.004,0.055-0.004,0.083
		H58c0.551,0,1-0.051,1,0.5V29H26.066c-0.219,0.348-0.456,0.683-0.716,1H59v20.5c0,0.551-0.449,1.5-1,1.5H17c-0.551,0-1-0.949-1-1.5
		V33.496c-0.343-0.066-0.677-0.145-1-0.24V50.5c0,1.105,0.895,2.5,2,2.5h41C59.105,53,60,51.605,60,50.5z"/>
	<path d="M26.468,35C25.13,35,24,36.188,24,37.593v7.011c0,1.378,1.084,2.365,2.454,2.365l4.171-0.01
		c0.911,0,1.805-0.213,2.466-0.851l9.006-8.943c0.714-0.689,1.645-1.184,2.485-1.184l3.897-0.021c0.818,0,1.521,0.808,1.521,1.635
		v7.011C50,45.413,49.382,46,48.531,46h-3.456c-0.281-1.697-1.747-2.998-3.523-2.998c-1.975,0-3.581,1.606-3.581,3.582
		s1.606,3.582,3.581,3.582c1.833,0,3.331-1.388,3.54-3.165h3.44C49.938,47,51,45.97,51,44.604v-7.011c0-1.378-1.114-2.5-2.48-2.5
		l-3.934-0.031c-1.098,0-2.288,0.517-3.189,1.386l-9.006,8.943c-0.469,0.453-1.085,0.702-1.736,0.702l-4.171,0.01
		c-0.818,0-1.483-0.673-1.483-1.5v-7.011C25,36.729,25.672,36,26.468,36H30v-0.02c0.2,1.787,1.702,3.185,3.542,3.185
		c1.975,0,3.581-1.606,3.581-3.582s-1.606-3.582-3.581-3.582c-1.84,0-3.342,1.399-3.542,3.185V35H26.468z M41.552,49.165
		c-1.423,0-2.581-1.158-2.581-2.582s1.158-2.582,2.581-2.582c1.424,0,2.582,1.158,2.582,2.582S42.976,49.165,41.552,49.165z
		 M33.542,33.002c1.423,0,2.581,1.158,2.581,2.582s-1.158,2.582-2.581,2.582c-1.424,0-2.582-1.158-2.582-2.582
		S32.118,33.002,33.542,33.002z"/>
</g>
<g>
	<path d="M20.005,26.75c-0.547,0.318-1.179,0.508-1.859,0.508c-1.537,0-2.854-0.934-3.433-2.258H18l0.519-1h-4.082
		c-0.022-0.165-0.04-0.321-0.04-0.492s0.018-0.342,0.04-0.508h4.582l0.5-1l-4.806,0.002c0.579-1.323,1.897-2.244,3.433-2.244
		c0.822,0,1.576,0.272,2.195,0.721l0.37-0.727c-0.73-0.5-1.613-0.794-2.565-0.794c-1.984,0-3.654,1.272-4.276,3.044L12.519,22
		l-0.5,1h1.629c-0.018,0.166-0.052,0.336-0.052,0.508s0.036,0.326,0.055,0.492h-1.132l-0.5,1h1.851
		c0.622,1.772,2.292,3.058,4.276,3.058c0.664,0,1.29-0.15,1.859-0.405V26.75z"/>
</g>
</svg>
