<?xml version="1.0" encoding="utf-8"?>
<!-- Generator: Adobe Illustrator 19.0.1, SVG Export Plug-In . SVG Version: 6.00 Build 0)  -->
<svg version="1.1" id="OV_tram_metro_bus" xmlns="http://www.w3.org/2000/svg" xmlns:xlink="http://www.w3.org/1999/xlink" x="0px"
	 y="0px" width="75px" height="75px" viewBox="0 0 75 75" enable-background="new 0 0 75 75" xml:space="preserve">
<g>
	<path fill="none" d="M30.5,32.75c2.172,0,3.949-1.644,4.199-3.75H30.5c-0.076,0-0.146-0.019-0.21-0.049
		c-0.004-0.002-0.009-0.001-0.014-0.003c-0.022-0.011-0.036-0.03-0.056-0.044c-0.03-0.021-0.06-0.04-0.085-0.066
		c-0.022-0.023-0.036-0.051-0.052-0.078c-0.017-0.028-0.036-0.053-0.048-0.084c-0.012-0.033-0.015-0.068-0.021-0.102
		C30.011,28.548,30,28.526,30,28.5c0-0.006,0.003-0.01,0.003-0.016c0.001-0.032,0.012-0.063,0.019-0.096
		c0.008-0.033,0.012-0.067,0.026-0.098c0.002-0.005,0.002-0.01,0.004-0.015l1.88-3.76c-0.45-0.162-0.928-0.266-1.433-0.266
		c-2.344,0-4.25,1.907-4.25,4.25S28.156,32.75,30.5,32.75z"/>
	<path fill="none" d="M34.699,28c-0.151-1.271-0.847-2.373-1.867-3.046L31.309,28H34.699z"/>
	<path fill="none" d="M46.68,28.967C46.62,28.989,46.56,29,46.5,29c-0.201,0-0.391-0.122-0.467-0.32l-1.508-3.92
		c-1.346,0.714-2.275,2.114-2.275,3.741c0,2.343,1.906,4.25,4.25,4.25s4.25-1.907,4.25-4.25s-1.906-4.25-4.25-4.25
		c-0.362,0-0.707,0.059-1.043,0.145l1.51,3.925C47.065,28.578,46.937,28.868,46.68,28.967z"/>
	<path d="M30.5,33.75c2.739,0,4.969-2.116,5.204-4.796c0.021-0.009,0.037-0.026,0.056-0.038c0.025-0.016,0.053-0.026,0.076-0.047
		l5.5-5c0.205-0.186,0.22-0.502,0.034-0.707c-0.186-0.204-0.501-0.219-0.706-0.034l-4.998,4.543
		c-0.243-1.522-1.133-2.821-2.389-3.61L34.309,22h9.155l0.701,1.823c-1.72,0.863-2.915,2.625-2.915,4.677
		c0,2.895,2.355,5.25,5.25,5.25s5.25-2.355,5.25-5.25s-2.355-5.25-5.25-5.25c-0.488,0-0.952,0.089-1.401,0.214l-3.132-8.144
		C41.893,15.127,41.707,15,41.5,15h-3c-0.276,0-0.5,0.224-0.5,0.5s0.224,0.5,0.5,0.5h2.656l1.923,5h-9.388l-1.307,2.614
		c-0.587-0.227-1.218-0.364-1.884-0.364c-2.895,0-5.25,2.355-5.25,5.25S27.605,33.75,30.5,33.75z M46.5,24.25
		c2.344,0,4.25,1.907,4.25,4.25s-1.906,4.25-4.25,4.25s-4.25-1.907-4.25-4.25c0-1.627,0.929-3.026,2.275-3.741l1.508,3.92
		C46.109,28.878,46.299,29,46.5,29c0.06,0,0.12-0.011,0.18-0.033c0.258-0.099,0.386-0.389,0.287-0.646l-1.51-3.925
		C45.793,24.309,46.138,24.25,46.5,24.25z M34.699,28h-3.39l1.523-3.046C33.852,25.627,34.548,26.729,34.699,28z M30.5,24.25
		c0.505,0,0.983,0.104,1.433,0.266l-1.88,3.76c-0.002,0.005-0.002,0.01-0.004,0.015c-0.014,0.03-0.018,0.064-0.026,0.098
		c-0.007,0.032-0.018,0.063-0.019,0.096c0,0.005-0.003,0.01-0.003,0.016c0,0.026,0.011,0.048,0.015,0.073
		c0.005,0.035,0.008,0.069,0.021,0.102c0.012,0.031,0.03,0.057,0.048,0.084c0.017,0.027,0.031,0.054,0.052,0.078
		c0.025,0.027,0.055,0.046,0.085,0.066c0.02,0.014,0.034,0.033,0.056,0.044c0.004,0.002,0.009,0.001,0.014,0.003
		C30.354,28.981,30.424,29,30.5,29h4.199c-0.251,2.106-2.027,3.75-4.199,3.75c-2.344,0-4.25-1.907-4.25-4.25
		S28.156,24.25,30.5,24.25z"/>
	<path d="M33.5,19H36c0.276,0,0.5-0.224,0.5-0.5S36.276,18,36,18h-2.5c-0.276,0-0.5,0.224-0.5,0.5S33.224,19,33.5,19z"/>
	<path d="M27.749,44.125c-0.195-0.195-0.512-0.195-0.707,0s-0.195,0.512,0,0.707L30.21,48h11.463L44,45.726v-2.019l1.854-1.854
		c0.195-0.195,0.195-0.512,0-0.707s-0.512-0.195-0.707,0L43,43.293v2.012L41.265,47H30.624L27.749,44.125z"/>
	<path d="M50.494,44h-2.783l-0.84-0.859c-0.095-0.097-0.225-0.142-0.362-0.15L45.495,43c-0.276,0.002-0.498,0.229-0.495,0.505
		C45.003,43.779,45.226,44,45.5,44c0.002,0,0.003,0,0.005,0l0.8-0.008l0.838,0.857C47.236,44.946,47.365,45,47.5,45h2.497
		l0.002,0.291L48.254,47h-1.796c-0.135,0-0.264,0.054-0.357,0.15l-2.958,3.021C43.051,50.265,43,50.39,43,50.521v2.938
		c0,0.132,0.053,0.259,0.146,0.353l5.062,5.073c0.098,0.098,0.226,0.147,0.354,0.147c0.128,0,0.256-0.049,0.354-0.146
		c0.195-0.195,0.195-0.512,0-0.707L44,53.251v-2.526L46.668,48h1.79c0.131,0,0.257-0.051,0.35-0.143l2.042-2
		c0.097-0.095,0.151-0.225,0.15-0.36l-0.006-1C50.992,44.222,50.77,44,50.494,44z"/>
	<path d="M28,56.717l1.869-2.046C29.953,54.579,30,54.458,30,54.333v-5.802c0-0.276-0.224-0.5-0.5-0.5s-0.5,0.224-0.5,0.5v5.608
		l-1.869,2.046C27.047,56.278,27,56.398,27,56.523V60h1V56.717z"/>
	<path d="M42,60v-6.5c0-0.276-0.224-0.5-0.5-0.5h-5.787l-1.859-1.859c-0.144-0.144-0.358-0.186-0.545-0.108
		C33.122,51.109,33,51.292,33,51.494v1.834l-1.846,1.77c-0.097,0.093-0.152,0.221-0.154,0.354c-0.002,0.134,0.051,0.264,0.146,0.359
		l3.082,3.103c0.193,0.195,0.51,0.197,0.707,0.002c0.195-0.195,0.197-0.511,0.002-0.708l-2.723-2.742l1.632-1.565
		C33.944,53.808,34,53.678,34,53.542v-0.84l1.152,1.152C35.246,53.947,35.373,54,35.506,54H41v6H42z"/>
	<path d="M36.126,40.833l5.021,5.021l0.707-0.707l-5.021-5.021c-0.195-0.195-0.512-0.195-0.707,0S35.931,40.637,36.126,40.833z"/>
</g>
</svg>
