<?xml version="1.0" encoding="utf-8"?>
<!-- Generator: Adobe Illustrator 19.0.1, SVG Export Plug-In . SVG Version: 6.00 Build 0)  -->
<svg version="1.1" id="OV_tram_metro_bus" xmlns="http://www.w3.org/2000/svg" xmlns:xlink="http://www.w3.org/1999/xlink" x="0px"
	 y="0px" width="75px" height="75px" viewBox="0 0 75 75" enable-background="new 0 0 75 75" xml:space="preserve">
<g>
	<path fill="none" d="M52.5,41.25c-0.362,0-0.707,0.059-1.043,0.145l1.51,3.925c0.099,0.258-0.03,0.547-0.287,0.646
		C52.621,45.989,52.56,46,52.5,46c-0.201,0-0.39-0.122-0.467-0.32l-1.508-3.92c-1.346,0.714-2.276,2.113-2.276,3.741
		c0,2.344,1.907,4.25,4.25,4.25s4.25-1.906,4.25-4.25S54.843,41.25,52.5,41.25z"/>
	<path fill="none" d="M40.699,45c-0.151-1.271-0.847-2.373-1.867-3.046L37.309,45H40.699z"/>
	<path fill="none" d="M33,30c0-0.551-0.449-1-1-1H19c-0.551,0-1,0.449-1,1v20c0,0.551,0.449,1,1,1h13c0.551,0,1-0.449,1-1V30z
		 M19.949,49.721C19.862,49.897,19.684,50,19.5,50c-0.074,0-0.149-0.017-0.22-0.052c-0.248-0.122-0.35-0.421-0.228-0.669
		C19.059,49.263,20,47.175,20,40s-0.941-9.263-0.951-9.283c-0.117-0.249-0.012-0.547,0.235-0.665
		c0.248-0.122,0.543-0.019,0.665,0.228C19.992,30.366,21,32.501,21,40S19.992,49.634,19.949,49.721z M25.5,33.9
		c-0.779,0-1.41-0.631-1.41-1.41c0-0.779,0.631-1.41,1.41-1.41s1.41,0.631,1.41,1.41C26.91,33.269,26.279,33.9,25.5,33.9z
		 M31.716,49.948c-0.07,0.034-0.145,0.05-0.218,0.05c-0.184,0-0.36-0.102-0.447-0.277C31.008,49.634,30,47.499,30,40
		s1.008-9.634,1.051-9.721c0.122-0.247,0.424-0.35,0.669-0.228c0.247,0.121,0.349,0.419,0.229,0.666C31.928,30.768,31,32.877,31,40
		c0,7.175,0.941,9.263,0.951,9.283C32.067,49.532,31.963,49.83,31.716,49.948z"/>
	<path d="M34,50V30c0-1.105-0.895-2-2-2H19c-1.105,0-2,0.895-2,2v20c0,1.105,0.895,2,2,2h13C33.105,52,34,51.105,34,50z M32,51H19
		c-0.551,0-1-0.449-1-1V30c0-0.551,0.449-1,1-1h13c0.551,0,1,0.449,1,1v20C33,50.551,32.551,51,32,51z"/>
	<path d="M19.284,30.052c-0.247,0.118-0.352,0.416-0.235,0.665C19.059,30.737,20,32.825,20,40s-0.941,9.263-0.949,9.279
		c-0.122,0.248-0.02,0.547,0.228,0.669C19.35,49.983,19.425,50,19.5,50c0.185,0,0.362-0.103,0.449-0.279
		C19.992,49.634,21,47.499,21,40s-1.008-9.634-1.051-9.721C19.828,30.033,19.532,29.93,19.284,30.052z"/>
	<path d="M31,40c0-7.123,0.928-9.232,0.95-9.282c0.119-0.247,0.017-0.545-0.229-0.666c-0.246-0.122-0.547-0.02-0.669,0.228
		C31.008,30.366,30,32.501,30,40s1.008,9.634,1.051,9.721c0.087,0.176,0.263,0.277,0.447,0.277c0.073,0,0.147-0.016,0.218-0.05
		c0.247-0.118,0.352-0.416,0.235-0.665C31.941,49.263,31,47.175,31,40z"/>
	<path d="M52.5,40.25c-0.488,0-0.952,0.089-1.401,0.214l-3.132-8.144C47.893,32.127,47.707,32,47.5,32h-3
		c-0.276,0-0.5,0.224-0.5,0.5s0.224,0.5,0.5,0.5h2.657l1.923,5h-9.389l-1.307,2.614c-0.587-0.227-1.218-0.364-1.884-0.364
		c-0.525,0-1.022,0.101-1.5,0.245v1.042c0.468-0.178,0.97-0.287,1.5-0.287c0.505,0,0.983,0.104,1.433,0.266l-1.88,3.76
		c-0.002,0.005-0.002,0.01-0.004,0.015c-0.014,0.03-0.018,0.063-0.026,0.095c-0.008,0.033-0.019,0.065-0.02,0.099
		c0,0.005-0.003,0.01-0.003,0.015c0,0.025,0.011,0.046,0.014,0.07c0.005,0.036,0.008,0.071,0.021,0.105
		c0.012,0.031,0.03,0.057,0.048,0.084c0.016,0.027,0.03,0.054,0.052,0.077c0.025,0.027,0.056,0.046,0.086,0.067
		c0.02,0.014,0.034,0.032,0.056,0.043c0.004,0.002,0.009,0.001,0.014,0.003c0.063,0.03,0.132,0.048,0.207,0.049
		c0.001,0,0.002,0.001,0.003,0.001c0,0,0,0,0,0c0,0,0,0,0,0h4.199c-0.251,2.106-2.027,3.75-4.199,3.75
		c-0.53,0-1.032-0.109-1.5-0.287v1.042c0.478,0.144,0.975,0.245,1.5,0.245c2.739,0,4.969-2.116,5.204-4.796
		c0.019-0.009,0.034-0.024,0.052-0.035c0.027-0.016,0.056-0.027,0.08-0.049l5.5-5c0.204-0.186,0.219-0.502,0.034-0.706
		c-0.186-0.206-0.502-0.219-0.707-0.034l-4.997,4.543c-0.244-1.522-1.133-2.821-2.389-3.61L40.309,39h9.155l0.701,1.823
		c-1.72,0.863-2.915,2.625-2.915,4.677c0,2.895,2.355,5.25,5.25,5.25s5.25-2.355,5.25-5.25S55.395,40.25,52.5,40.25z M40.699,45
		h-3.39l1.523-3.046C39.852,42.627,40.548,43.729,40.699,45z M52.5,49.75c-2.343,0-4.25-1.906-4.25-4.25
		c0-1.627,0.929-3.027,2.276-3.741l1.508,3.92C52.11,45.878,52.299,46,52.5,46c0.06,0,0.121-0.011,0.18-0.033
		c0.257-0.1,0.386-0.389,0.287-0.646l-1.51-3.925c0.336-0.086,0.681-0.145,1.043-0.145c2.343,0,4.25,1.906,4.25,4.25
		S54.843,49.75,52.5,49.75z"/>
	<path d="M42,36c0.276,0,0.5-0.224,0.5-0.5S42.276,35,42,35h-2.5c-0.276,0-0.5,0.224-0.5,0.5s0.224,0.5,0.5,0.5H42z"/>
	<circle cx="25.5" cy="32.49" r="1.41"/>
</g>
</svg>
