<?xml version="1.0" encoding="utf-8"?>
<!-- Generator: Adobe Illustrator 19.0.1, SVG Export Plug-In . SVG Version: 6.00 Build 0)  -->
<svg version="1.1" id="OV_tram_metro_bus" xmlns="http://www.w3.org/2000/svg" xmlns:xlink="http://www.w3.org/1999/xlink" x="0px"
	 y="0px" width="75px" height="75px" viewBox="0 0 75 75" enable-background="new 0 0 75 75" xml:space="preserve">
<g>
	<g>
		<g>
			<path d="M29.5,54.75c-2.895,0-5.25-2.355-5.25-5.25s2.355-5.25,5.25-5.25s5.25,2.355,5.25,5.25S32.395,54.75,29.5,54.75z
				 M29.5,45.25c-2.344,0-4.25,1.907-4.25,4.25s1.906,4.25,4.25,4.25s4.25-1.907,4.25-4.25S31.844,45.25,29.5,45.25z"/>
		</g>
		<g>
			<path d="M45.5,54.75c-2.895,0-5.25-2.355-5.25-5.25s2.355-5.25,5.25-5.25s5.25,2.355,5.25,5.25S48.395,54.75,45.5,54.75z
				 M45.5,45.25c-2.344,0-4.25,1.907-4.25,4.25s1.906,4.25,4.25,4.25s4.25-1.907,4.25-4.25S47.844,45.25,45.5,45.25z"/>
		</g>
		<g>
			<path d="M29.5,50c-0.075,0-0.151-0.017-0.224-0.053c-0.247-0.124-0.347-0.424-0.224-0.671L32.691,42H42.5
				c0.276,0,0.5,0.224,0.5,0.5S42.776,43,42.5,43h-9.191l-3.361,6.724C29.859,49.899,29.683,50,29.5,50z"/>
		</g>
		<g>
			<path d="M45.5,50c-0.201,0-0.391-0.122-0.467-0.32L40.156,37H37.5c-0.276,0-0.5-0.224-0.5-0.5s0.224-0.5,0.5-0.5h3
				c0.207,0,0.393,0.127,0.467,0.32l5,13c0.099,0.258-0.029,0.547-0.287,0.646C45.62,49.989,45.56,50,45.5,50z"/>
		</g>
		<g>
			<path d="M35,40h-2.5c-0.276,0-0.5-0.224-0.5-0.5s0.224-0.5,0.5-0.5H35c0.276,0,0.5,0.224,0.5,0.5S35.276,40,35,40z"/>
		</g>
		<g>
			<path d="M34.5,50h-5c-0.276,0-0.5-0.224-0.5-0.5s0.224-0.5,0.5-0.5h5c0.276,0,0.5,0.224,0.5,0.5S34.776,50,34.5,50z"/>
		</g>
		<g>
			<path d="M34.5,50c-0.136,0-0.271-0.055-0.37-0.164c-0.186-0.205-0.171-0.521,0.034-0.707l5.5-5
				c0.204-0.185,0.521-0.17,0.706,0.034c0.186,0.205,0.171,0.521-0.034,0.707l-5.5,5C34.74,49.957,34.62,50,34.5,50z"/>
		</g>
	</g>
	<g>
		<path d="M55,33v25H20V33H55 M56,32H19v27h37V32L56,32z"/>
	</g>
	<g>
		<g>
			<path d="M32,27.042c-2.78,0-5.042-2.262-5.042-5.042c0-2.772,2.262-5.028,5.042-5.028c2.198,0,3.971,1.15,4.714,3.028h9.513
				l1.467,1.509l-3.105,3.72l-1.607-1.06l-0.987,0.395l-1.013-0.426l-2.061,1.022l-1.139-1.153l-1.176,0.003
				C35.809,25.837,34.001,27.042,32,27.042z M32,17.972c-2.229,0-4.042,1.807-4.042,4.028c0,2.229,1.813,4.042,4.042,4.042
				c1.697,0,3.222-1.084,3.793-2.698l0.118-0.332l2.285-0.006l0.908,0.918L41,23.02l1.007,0.42l0.985-0.404l1.42,0.843l1.936-2.318
				L45.805,21h-9.812l-0.11-0.351C35.358,18.973,33.907,17.972,32,17.972z"/>
		</g>
		<g>
			<path d="M30,21c-0.552,0-1,0.448-1,1s0.448,1,1,1s1-0.448,1-1S30.552,21,30,21L30,21z"/>
		</g>
	</g>
</g>
</svg>
