<?xml version="1.0" encoding="utf-8"?>
<!-- Generator: Adobe Illustrator 19.0.1, SVG Export Plug-In . SVG Version: 6.00 Build 0)  -->
<svg version="1.1" id="OV_tram_metro_bus" xmlns="http://www.w3.org/2000/svg" xmlns:xlink="http://www.w3.org/1999/xlink" x="0px"
	 y="0px" width="75px" height="75px" viewBox="0 0 75 75" enable-background="new 0 0 75 75" xml:space="preserve">
<g>
	<path fill="none" d="M27.5,46L27.5,46L27.5,46c-0.001,0-0.002-0.001-0.003-0.001c-0.074-0.001-0.143-0.019-0.207-0.049
		c-0.004-0.002-0.009-0.001-0.014-0.003c-0.022-0.011-0.037-0.03-0.056-0.044c-0.03-0.021-0.06-0.039-0.085-0.066
		c-0.022-0.024-0.036-0.051-0.053-0.079c-0.017-0.027-0.035-0.052-0.047-0.083c-0.013-0.034-0.016-0.07-0.021-0.106
		C27.011,45.546,27,45.525,27,45.5c0-0.005,0.003-0.01,0.003-0.015c0.001-0.033,0.012-0.065,0.02-0.098
		c0.008-0.033,0.012-0.066,0.026-0.096c0.002-0.005,0.002-0.01,0.004-0.015l1.88-3.76c-0.45-0.162-0.928-0.266-1.433-0.266
		c-2.343,0-4.25,1.907-4.25,4.25s1.907,4.25,4.25,4.25c2.172,0,3.948-1.644,4.199-3.75H27.5z"/>
	<path fill="none" d="M31.699,45c-0.151-1.271-0.848-2.373-1.867-3.046L28.309,45H31.699z"/>
	<path d="M22,19.012l0.012,2.944l21.257,1.957c3.375,0.357,6.097,2.956,6.621,6.316l1.47,9.87c-0.008,0.007-0.018,0.009-0.025,0.017
		L40.209,51.24c-0.195,0.195-0.195,0.512,0,0.707c0.098,0.098,0.226,0.146,0.354,0.146c0.128,0,0.256-0.049,0.354-0.146
		l10.625-10.625L53.131,52H56l-0.012-33L22,19.012z M55,51h-1.006l-3.115-20.922c-0.594-3.811-3.679-6.755-7.511-7.161L23.02,21.044
		l0.012-1.076l32.031-0.031L55,51z"/>
	<path d="M43.5,40.25c-0.488,0-0.952,0.089-1.401,0.214l-3.132-8.144C38.893,32.127,38.707,32,38.5,32h-3
		c-0.276,0-0.5,0.224-0.5,0.5s0.224,0.5,0.5,0.5h2.657l1.923,5h-9.389l-1.307,2.614c-0.587-0.227-1.218-0.364-1.884-0.364
		c-2.895,0-5.25,2.355-5.25,5.25s2.355,5.25,5.25,5.25c2.739,0,4.969-2.116,5.204-4.796c0.019-0.009,0.034-0.024,0.052-0.035
		c0.027-0.016,0.056-0.027,0.08-0.049l5.5-5c0.204-0.186,0.219-0.502,0.034-0.707c-0.186-0.204-0.502-0.219-0.707-0.034
		l-4.997,4.543c-0.243-1.522-1.133-2.821-2.389-3.61L31.309,39h9.155l0.701,1.823c-1.72,0.863-2.915,2.625-2.915,4.677
		c0,1.752,0.871,3.296,2.193,4.25l0.681-0.728c-1.13-0.765-1.874-2.058-1.874-3.522c0-1.627,0.929-3.026,2.276-3.741l1.508,3.92
		C43.11,45.878,43.299,46,43.5,46c0.06,0,0.121-0.011,0.18-0.033c0.257-0.099,0.386-0.389,0.287-0.646l-1.51-3.925
		c0.336-0.086,0.681-0.145,1.043-0.145c1.363,0,2.565,0.656,3.343,1.657l0.685-0.733C46.565,41.009,45.127,40.25,43.5,40.25z
		 M27.5,49.75c-2.343,0-4.25-1.907-4.25-4.25s1.907-4.25,4.25-4.25c0.505,0,0.983,0.104,1.433,0.266l-1.88,3.76
		c-0.002,0.005-0.002,0.01-0.004,0.015c-0.014,0.03-0.018,0.063-0.026,0.096c-0.008,0.033-0.019,0.065-0.02,0.098
		c0,0.005-0.003,0.01-0.003,0.015c0,0.025,0.011,0.046,0.014,0.07c0.005,0.036,0.008,0.072,0.021,0.106
		c0.011,0.03,0.03,0.056,0.047,0.083c0.017,0.027,0.031,0.055,0.053,0.079c0.025,0.027,0.055,0.045,0.085,0.066
		c0.02,0.014,0.034,0.033,0.056,0.044c0.004,0.002,0.009,0.001,0.014,0.003c0.063,0.03,0.132,0.048,0.207,0.049
		c0.001,0,0.002,0.001,0.003,0.001l0,0l0,0h4.199C31.448,48.106,29.672,49.75,27.5,49.75z M31.699,45h-3.39l1.523-3.046
		C30.852,42.627,31.548,43.729,31.699,45z"/>
	<path d="M33,36c0.276,0,0.5-0.224,0.5-0.5S33.276,35,33,35h-2.5c-0.276,0-0.5,0.224-0.5,0.5s0.224,0.5,0.5,0.5H33z"/>
</g>
</svg>
