<?xml version="1.0" encoding="utf-8"?>
<!-- Generator: Adobe Illustrator 19.0.1, SVG Export Plug-In . SVG Version: 6.00 Build 0)  -->
<svg version="1.1" id="OV_tram_metro_bus" xmlns="http://www.w3.org/2000/svg" xmlns:xlink="http://www.w3.org/1999/xlink" x="0px"
	 y="0px" width="75px" height="75px" viewBox="0 0 75 75" enable-background="new 0 0 75 75" xml:space="preserve">
<g>
	<path fill="none" d="M21.5,37C21.5,37,21.5,37,21.5,37C21.5,37,21.5,37,21.5,37c-0.001,0-0.002-0.001-0.003-0.001
		c-0.074-0.001-0.143-0.019-0.207-0.049c-0.004-0.002-0.009-0.001-0.014-0.003c-0.022-0.011-0.036-0.03-0.056-0.043
		c-0.03-0.021-0.061-0.04-0.086-0.067c-0.022-0.023-0.035-0.05-0.052-0.077c-0.017-0.028-0.036-0.053-0.048-0.084
		c-0.013-0.034-0.016-0.069-0.021-0.105C21.011,36.546,21,36.525,21,36.5c0-0.005,0.003-0.01,0.003-0.015
		c0.001-0.033,0.012-0.065,0.02-0.099c0.008-0.032,0.012-0.065,0.026-0.095c0.002-0.005,0.002-0.01,0.004-0.015l1.88-3.76
		c-0.45-0.162-0.928-0.266-1.433-0.266c-2.343,0-4.25,1.906-4.25,4.25s1.907,4.25,4.25,4.25c2.172,0,3.949-1.644,4.199-3.75H21.5z"
		/>
	<path fill="none" d="M25.699,36c-0.151-1.271-0.847-2.373-1.867-3.046L22.309,36H25.699z"/>
	<rect x="39" y="42" fill="none" width="3" height="4"/>
	<path fill="none" d="M45,42h8v-3H36v11h11.871c-0.27-1.16-0.533-2.299-0.589-2.542c-0.195-1.169,0.602-2.046,1.448-2.204
		c1.11-0.209,1.968,0.284,2.354,1.342L52.348,50H53v-7h-8V42z M46,44h6v1h-6V44z M43,47h-5v-6h5V47z"/>
	<path d="M54,42.293V39c0-0.552-0.448-1-1-1H36c-0.552,0-1,0.448-1,1v11c0,0.552,0.448,1,1,1h12.104
		c0.208,0.893,0.382,1.632,0.413,1.746c0.135,0.492,0.326,0.827,0.631,1.112c0.079,0.078,2.998,2.995,2.998,2.995
		C52.244,56.951,52.372,57,52.5,57s0.256-0.049,0.354-0.146c0.195-0.195,0.195-0.512,0-0.707c-3.001-3.001-3.01-3.008-3.015-3.012
		c-0.151-0.142-0.258-0.294-0.356-0.652c-0.057-0.209-0.765-3.254-1.22-5.219c-0.09-0.542,0.269-0.955,0.651-1.027
		c0.816-0.149,1.095,0.329,1.232,0.705l1.385,3.732c0.074,0.202,0.265,0.323,0.468,0.323L52,51h1c0.552,0,1-0.448,1-1v-6.293l5,5
		V56.5c0,0.276,0.224,0.5,0.5,0.5s0.5-0.224,0.5-0.5v-8.207L54,42.293z M53,50h-0.652l-1.263-3.404
		c-0.387-1.058-1.244-1.551-2.354-1.342c-0.846,0.158-1.643,1.035-1.448,2.204c0.056,0.243,0.32,1.382,0.589,2.542H36V39h17v3h-8v1
		h8V50z"/>
	<path d="M38,41v6h5v-6H38z M42,46h-3v-4h3V46z"/>
	<rect x="46" y="44" width="6" height="1"/>
	<path d="M42.699,37c0.016-0.167,0.051-0.329,0.051-0.5c0-2.895-2.355-5.25-5.25-5.25c-0.488,0-0.952,0.089-1.401,0.214
		l-3.132-8.144C32.893,23.127,32.707,23,32.5,23h-3c-0.276,0-0.5,0.224-0.5,0.5s0.224,0.5,0.5,0.5h2.657l1.923,5h-9.389
		l-1.307,2.614c-0.587-0.227-1.218-0.364-1.884-0.364c-2.895,0-5.25,2.355-5.25,5.25s2.355,5.25,5.25,5.25
		c2.739,0,4.969-2.116,5.204-4.796c0.019-0.009,0.034-0.024,0.052-0.035c0.027-0.016,0.056-0.027,0.08-0.049l5.5-5
		c0.204-0.186,0.219-0.502,0.034-0.706c-0.185-0.206-0.502-0.22-0.707-0.034l-4.997,4.543c-0.244-1.522-1.133-2.821-2.389-3.61
		L25.309,30h9.155l0.701,1.823c-1.72,0.863-2.915,2.625-2.915,4.677c0,1.545,0.684,2.923,1.75,3.884v-1.482
		c-0.471-0.684-0.75-1.511-0.75-2.403c0-1.627,0.929-3.027,2.276-3.741l1.508,3.92C37.11,36.878,37.299,37,37.5,37
		c0.06,0,0.121-0.011,0.18-0.033c0.257-0.1,0.386-0.389,0.287-0.646l-1.51-3.925c0.336-0.086,0.681-0.145,1.043-0.145
		c2.343,0,4.25,1.906,4.25,4.25c0,0.171-0.031,0.334-0.051,0.5H42.699z M21.5,40.75c-2.343,0-4.25-1.906-4.25-4.25
		s1.907-4.25,4.25-4.25c0.505,0,0.983,0.104,1.433,0.266l-1.88,3.76c-0.002,0.005-0.002,0.01-0.004,0.015
		c-0.014,0.03-0.018,0.063-0.026,0.095c-0.008,0.033-0.019,0.065-0.02,0.099c0,0.005-0.003,0.01-0.003,0.015
		c0,0.025,0.011,0.046,0.014,0.07c0.005,0.036,0.008,0.071,0.021,0.105c0.012,0.031,0.03,0.057,0.048,0.084
		c0.016,0.027,0.03,0.054,0.052,0.077c0.025,0.027,0.056,0.046,0.086,0.067c0.02,0.014,0.034,0.032,0.056,0.043
		c0.004,0.002,0.009,0.001,0.014,0.003c0.063,0.03,0.132,0.048,0.207,0.049c0.001,0,0.002,0.001,0.003,0.001c0,0,0,0,0,0
		c0,0,0,0,0,0h4.199C25.449,39.106,23.672,40.75,21.5,40.75z M25.699,36h-3.39l1.523-3.046C24.852,33.627,25.548,34.729,25.699,36z"
		/>
	<path d="M24.5,26c-0.276,0-0.5,0.224-0.5,0.5s0.224,0.5,0.5,0.5H27c0.276,0,0.5-0.224,0.5-0.5S27.276,26,27,26H24.5z"/>
</g>
</svg>
