<svg xmlns="http://www.w3.org/2000/svg" width="75" height="75" viewBox="0 0 75 75"><defs><style>.a{fill:none;}</style></defs><title>bike-shed-2--large</title><circle class="a" cx="49.4" cy="24.6" r="2"/><path class="a" d="M27.1,47.6a3.915,3.915,0,0,0-1.9-3l-1.5,3Z"/><path class="a" d="M43.1,48.1a4.225,4.225,0,0,0-4.2-4.2c-.4,0-.7.1-1,.1l1.5,3.9a.419.419,0,0,1-.3.6h-.2a.55.55,0,0,1-.5-.3l-1.5-3.9A4.3,4.3,0,0,0,34.6,48a4.225,4.225,0,0,0,4.2,4.2A4.163,4.163,0,0,0,43.1,48.1Z"/><path class="a" d="M22.9,48.6h-.3a.1.1,0,0,1-.1-.1l-.1-.1v-.3h0v-.2h0l1.9-3.8a3.529,3.529,0,0,0-1.4-.3,4.2,4.2,0,1,0,4.2,4.6A29.54,29.54,0,0,1,22.9,48.6Z"/><path d="M54.4,33.6v-2a3.271,3.271,0,0,0-3.5-3,.5.5,0,0,0,0,1c1.2,0,2.5.8,2.5,2v2Z"/><path d="M45.4,33.6v-2c0-1.2,1.3-2,2.5-2a.5.5,0,0,0,0-1c-1.7,0-3.5,1.2-3.5,3v2Z"/><path d="M52.4,24.6a3,3,0,1,0-3,3A2.946,2.946,0,0,0,52.4,24.6Zm-3,2a2,2,0,1,1,2-2A2.006,2.006,0,0,1,49.4,26.6Z"/><path d="M44.1,48.1a5.228,5.228,0,0,0-5.2-5.2,5.9,5.9,0,0,0-1.4.2L34.4,35a.55.55,0,0,0-.5-.3h-3a.5.5,0,0,0,0,1h2.7l1.9,5H26.1l-1.3,2.6a5.847,5.847,0,0,0-1.9-.4,5.228,5.228,0,0,0-5.2,5.2,5.3,5.3,0,0,0,5.2,5.2,5.227,5.227,0,0,0,5.2-4.8h.2l5.5-5a.495.495,0,0,0-.7-.7l-5,4.5a5.031,5.031,0,0,0-2.4-3.6l1-2.1h9.2l.7,1.8a5.283,5.283,0,0,0-2.9,4.7,5.2,5.2,0,1,0,10.4,0ZM22.9,52.4a4.2,4.2,0,0,1,0-8.4,3.194,3.194,0,0,1,1.4.3l-1.9,3.8h0v.2h0v.3a.1.1,0,0,0,.1.1.1.1,0,0,1,.1.1h4.5A4.391,4.391,0,0,1,22.9,52.4Zm4.2-4.8H23.7l1.5-3A4.632,4.632,0,0,1,27.1,47.6Zm7.5.5a4.114,4.114,0,0,1,2.3-3.7l1.5,3.9a.55.55,0,0,0,.5.3h.2a.446.446,0,0,0,.3-.6l-1.6-4a3.4,3.4,0,0,1,1-.1,4.2,4.2,0,0,1,0,8.4A4.161,4.161,0,0,1,34.6,48.1Z"/><path d="M25.9,38.6h2.5a.5.5,0,1,0,0-1H25.9a.5.5,0,0,0,0,1Z"/><path d="M57.4,52.6v-16a2.006,2.006,0,0,0-2-2h-13a2.006,2.006,0,0,0-2,2v5h1v-5a.945.945,0,0,1,1-1h13a.945.945,0,0,1,1,1v16Z"/></svg>