<?xml version="1.0" encoding="utf-8"?>
<!-- Generator: Adobe Illustrator 19.0.1, SVG Export Plug-In . SVG Version: 6.00 Build 0)  -->
<svg version="1.1" id="OV_tram_metro_bus" xmlns="http://www.w3.org/2000/svg" xmlns:xlink="http://www.w3.org/1999/xlink" x="0px"
	 y="0px" width="75px" height="75px" viewBox="0 0 75 75" enable-background="new 0 0 75 75" xml:space="preserve">
<g>
	<path fill="none" d="M27,20.978l20.33,1.73c3.816,0.386,6.911,3.364,7.534,7.243L57.948,51H59V20H27V20.978z"/>
	<path fill="none" d="M35.737,45.026c-0.115-0.944-0.522-1.82-1.208-2.499c-0.208-0.206-0.434-0.385-0.673-0.542l-1.511,3.057
		L35.737,45.026z"/>
	<polygon fill="none" points="21.178,24 21.631,23 16.4,23 16.83,24 	"/>
	<path fill="none" d="M31.541,46.045c-0.001,0-0.002,0-0.002,0c-0.001,0-0.001,0-0.001,0l0,0c-0.001,0-0.002-0.001-0.003-0.001
		c-0.074-0.001-0.142-0.019-0.205-0.048c-0.004-0.002-0.009-0.001-0.013-0.003c-0.023-0.011-0.037-0.03-0.057-0.044
		c-0.03-0.021-0.06-0.039-0.084-0.065c-0.022-0.024-0.037-0.052-0.054-0.079c-0.017-0.027-0.035-0.052-0.047-0.082
		c-0.013-0.034-0.016-0.07-0.022-0.106c-0.004-0.024-0.014-0.045-0.014-0.069c0-0.005,0.003-0.01,0.003-0.015
		c0.001-0.033,0.012-0.065,0.019-0.099c0.008-0.032,0.012-0.065,0.025-0.095c0.002-0.005,0.002-0.01,0.004-0.015l1.864-3.772
		c-0.45-0.159-0.924-0.257-1.415-0.257c-0.007,0-0.013,0-0.02,0c-2.344,0.011-4.241,1.927-4.23,4.27
		c0.012,2.343,1.94,4.258,4.27,4.23c1.135-0.005,2.201-0.452,3-1.259c0.679-0.686,1.078-1.566,1.184-2.511L31.541,46.045z"/>
	<path d="M26,19v2.897l21.237,1.807c3.358,0.339,6.088,2.974,6.638,6.398l1.459,9.96L44.275,51.226
		c-0.194,0.196-0.193,0.513,0.003,0.707c0.098,0.097,0.225,0.145,0.352,0.145c0.129,0,0.257-0.049,0.355-0.148L55.516,41.3
		L57.083,52H60V19H26z M59,51h-1.052l-3.084-21.049c-0.623-3.879-3.718-6.857-7.534-7.243L27,20.978V20h32V51z"/>
	<path d="M47.539,40.221c-0.008,0-0.017,0-0.025,0c-0.488,0.002-0.952,0.093-1.4,0.221l-3.17-8.129
		c-0.075-0.192-0.26-0.318-0.466-0.318c-0.001,0-0.001,0-0.002,0l-3,0.014c-0.276,0.001-0.499,0.226-0.498,0.502
		c0.001,0.275,0.225,0.498,0.5,0.498c0,0,0.001,0,0.002,0l2.657-0.013l1.946,4.991l-9.389,0.044l-1.293,2.616
		c-0.588-0.224-1.215-0.351-1.862-0.351c-0.008,0-0.017,0-0.025,0c-2.895,0.014-5.239,2.38-5.226,5.275
		c0.014,2.886,2.367,5.226,5.25,5.225c0.008,0,0.017,0,0.025,0c1.402-0.006,2.718-0.559,3.705-1.555
		c0.879-0.887,1.378-2.036,1.478-3.266c0.02-0.009,0.036-0.025,0.054-0.037c0.025-0.016,0.053-0.026,0.076-0.047l5.477-5.025
		c0.204-0.187,0.217-0.503,0.03-0.706c-0.187-0.205-0.503-0.218-0.706-0.03l-4.973,4.564c-0.177-1.085-0.674-2.088-1.47-2.876
		c-0.285-0.283-0.603-0.517-0.936-0.724l1.02-2.064l9.155-0.043l0.709,1.819c-1.716,0.871-2.903,2.639-2.894,4.691
		c0.008,1.752,0.885,3.293,2.213,4.241l0.678-0.731c-0.224-0.15-0.436-0.321-0.631-0.515c-0.807-0.799-1.253-1.864-1.259-3
		c-0.005-1.135,0.432-2.204,1.231-3.011c0.304-0.307,0.656-0.544,1.027-0.742l1.527,3.915c0.077,0.198,0.266,0.318,0.466,0.318
		c0.061,0,0.122-0.011,0.182-0.034c0.257-0.1,0.384-0.39,0.284-0.647l-1.528-3.919c0.338-0.087,0.684-0.148,1.042-0.149
		c0.007,0,0.013,0,0.02,0c1.355,0,2.552,0.649,3.331,1.642l0.682-0.736C50.587,40.971,49.155,40.221,47.539,40.221z M34.558,48.537
		c-0.799,0.807-1.864,1.253-3,1.259c-2.33,0.028-4.258-1.887-4.27-4.23c-0.011-2.343,1.887-4.259,4.23-4.27c0.007,0,0.013,0,0.02,0
		c0.492,0,0.965,0.097,1.415,0.257l-1.864,3.772c-0.002,0.005-0.002,0.01-0.004,0.015c-0.014,0.03-0.018,0.063-0.025,0.095
		c-0.008,0.033-0.019,0.065-0.019,0.099c0,0.005-0.003,0.01-0.003,0.015c0,0.025,0.011,0.046,0.014,0.069
		c0.005,0.036,0.009,0.072,0.022,0.106c0.011,0.03,0.03,0.055,0.047,0.082c0.017,0.028,0.031,0.055,0.054,0.079
		c0.025,0.026,0.055,0.045,0.084,0.065c0.02,0.014,0.035,0.033,0.057,0.044c0.004,0.002,0.009,0.001,0.013,0.003
		c0.063,0.029,0.131,0.047,0.205,0.048c0.001,0,0.002,0.001,0.003,0.001l0,0c0,0,0,0,0,0c0,0,0.001,0,0.002,0l4.201-0.02
		C35.636,46.971,35.238,47.851,34.558,48.537z M34.53,42.526c0.686,0.679,1.092,1.556,1.208,2.499l-3.392,0.016l1.511-3.057
		C34.096,42.141,34.322,42.32,34.53,42.526z"/>
	<path d="M34.495,36.032l2.5-0.012c0.276-0.001,0.499-0.226,0.498-0.502c-0.001-0.275-0.225-0.498-0.5-0.498c0,0-0.001,0-0.002,0
		l-2.5,0.012c-0.276,0.001-0.499,0.226-0.498,0.502c0.001,0.275,0.225,0.498,0.5,0.498C34.493,36.032,34.494,36.032,34.495,36.032z"
		/>
	<path d="M20.542,29.958c-0.276,0-0.5,0.224-0.5,0.5s0.224,0.5,0.5,0.5C21.724,30.958,23,31.739,23,33v7c0,0.276,0.224,0.5,0.5,0.5
		S24,40.276,24,40v-7C24,31.323,22.449,29.958,20.542,29.958z"/>
	<path d="M14.5,40.5c0.276,0,0.5-0.224,0.5-0.5v-7c0-1.249,1.298-2.021,2.5-2.021c0.276,0,0.5-0.224,0.5-0.5s-0.224-0.5-0.5-0.5
		c-1.683,0-3.5,1.155-3.5,3.021v7C14,40.276,14.224,40.5,14.5,40.5z"/>
	<path d="M21.5,52.5c0.276,0,0.5-0.224,0.5-0.5V40h-1v12C21,52.276,21.224,52.5,21.5,52.5z"/>
	<path d="M16.5,52.5c0.276,0,0.5-0.224,0.5-0.5V40h-1v12C16,52.276,16.224,52.5,16.5,52.5z"/>
	<path d="M22.031,26h-1c0,1.12-0.911,2.031-2.031,2.031S16.969,27.12,16.969,26h-1c0,1.671,1.36,3.031,3.031,3.031
		S22.031,27.671,22.031,26z"/>
	<path d="M21.822,25l1.359-3h-8.3l1.289,3H21.822z M21.631,23l-0.453,1H16.83l-0.43-1H21.631z"/>
	<path d="M20.646,32.646l-4.531,4.531c-0.195,0.195-0.195,0.512,0,0.707c0.098,0.098,0.226,0.146,0.354,0.146
		s0.256-0.049,0.354-0.146l4.531-4.531c0.195-0.195,0.195-0.512,0-0.707S20.842,32.451,20.646,32.646z"/>
</g>
</svg>
