<?xml version="1.0" encoding="utf-8"?>
<!-- Generator: Adobe Illustrator 19.0.1, SVG Export Plug-In . SVG Version: 6.00 Build 0)  -->
<svg version="1.1" id="OV_tram_metro_bus" xmlns="http://www.w3.org/2000/svg" xmlns:xlink="http://www.w3.org/1999/xlink" x="0px"
	 y="0px" width="75px" height="75px" viewBox="0 0 75 75" enable-background="new 0 0 75 75" xml:space="preserve">
<g>
	<path fill="none" d="M49,22c0-0.551-0.449-1-1-1H17c-0.551,0-1,0.449-1,1v3h33V22z"/>
	<path fill="none" d="M16,38v3c0,0.551,0.449,1,1,1h20.709c-0.315-1.521-0.617-2.988-0.825-4H16z"/>
	<path fill="none" d="M45.354,42H48c0.551,0,1-0.449,1-1v-3h-5.049L45.354,42z"/>
	<path fill="none" d="M33,28v-1h16v-1H16v1h15v1H16v1h18v1H16v1h11v1H16v1h16v1H16v1h13v1H16v1h20.678
		c-0.035-0.172-0.059-0.289-0.067-0.327c-0.038-0.232-0.051-0.456-0.044-0.673H31v-1h5.771c0.14-0.379,0.343-0.715,0.597-1H34v-1
		h5.25c0.411-0.055,0.801-0.058,1.164,0H49v-1H29v-1h20v-1H36v-1h13v-1H33z"/>
	<path fill="none" d="M42.868,35H49v-1h-6.764C42.486,34.279,42.696,34.614,42.868,35z"/>
	<polygon fill="none" points="43.6,37 49,37 49,36 43.249,36 	"/>
	<path d="M59.348,38.141c-0.48-0.465-8.212-8.209-9.348-9.347V22c0-1.105-0.895-2-2-2H17c-1.105,0-2,0.895-2,2v19
		c0,1.105,0.895,2,2,2h20.916c0.549,2.646,1.078,5.173,1.152,5.442c0.237,0.864,0.554,1.421,1.083,1.915
		c0.095,0.093,4.996,4.996,4.996,4.996c0.098,0.098,0.226,0.146,0.354,0.146s0.256-0.049,0.354-0.146
		c0.195-0.195,0.195-0.512,0-0.707c-4.983-4.984-5.004-5.004-5.012-5.012c-0.401-0.374-0.62-0.769-0.809-1.457
		c-0.123-0.448-1.804-8.602-2.438-11.687c-0.217-1.308,0.666-2.306,1.608-2.482c1.403-0.264,2.368,0.286,2.858,1.624l2.468,7.033
		c0.073,0.206,0.265,0.331,0.47,0.33L45,43h3c1.105,0,2-0.895,2-2V30.209c2.256,2.26,8.22,8.233,8.652,8.651
		c0.36,0.349,0.369,0.786,0.353,1.663L59,55c0,0.276,0.224,0.5,0.5,0.5S60,55.276,60,55V41l0.005-0.46
		C60.021,39.649,60.036,38.807,59.348,38.141z M16,22c0-0.551,0.449-1,1-1h31c0.551,0,1,0.449,1,1v3H16V22z M17,42
		c-0.551,0-1-0.449-1-1v-3h20.884c0.208,1.012,0.511,2.479,0.825,4H17z M49,41c0,0.551-0.449,1-1,1h-2.646l-1.404-4H49V41z M49,37
		h-5.4l-0.351-1H49V37z M49,35h-6.132c-0.172-0.386-0.383-0.721-0.632-1H49V35z M49,29H36v1h13v1H29v1h20v1h-8.586
		c-0.363-0.058-0.753-0.055-1.164,0H34v1h3.368c-0.253,0.285-0.457,0.621-0.597,1H31v1h5.567c-0.006,0.217,0.006,0.441,0.044,0.673
		c0.008,0.038,0.032,0.155,0.067,0.327H16v-1h13v-1H16v-1h16v-1H16v-1h11v-1H16v-1h18v-1H16v-1h15v-1H16v-1h33v1H33v1h16V29z"/>
</g>
</svg>
