<?xml version="1.0" encoding="utf-8"?>
<!-- Generator: Adobe Illustrator 19.0.1, SVG Export Plug-In . SVG Version: 6.00 Build 0)  -->
<svg version="1.1" id="OV_tram_metro_bus" xmlns="http://www.w3.org/2000/svg" xmlns:xlink="http://www.w3.org/1999/xlink" x="0px"
	 y="0px" width="75px" height="75px" viewBox="0 0 75 75" enable-background="new 0 0 75 75" xml:space="preserve">
<g>
	<path d="M58,19h-8v-3c0-0.552-0.447-1-1-1s-1,0.448-1,1v3H27v-3c0-0.552-0.447-1-1-1s-1,0.448-1,1v3h-8v37h41V19z M57,55H18V20h7v2
		c0,0.552,0.447,1,1,1s1-0.448,1-1v-2h21v2c0,0.552,0.447,1,1,1s1-0.448,1-1v-2h7V55z"/>
	<rect x="25" y="27" width="2" height="2"/>
	<rect x="33" y="27" width="2" height="2"/>
	<rect x="40" y="27" width="2" height="2"/>
	<rect x="48" y="27" width="2" height="2"/>
	<rect x="33" y="34" width="2" height="2"/>
	<rect x="48" y="34" width="2" height="2"/>
	<rect x="25" y="41" width="2" height="2"/>
	<rect x="33" y="41" width="2" height="2"/>
	<rect x="40" y="34" width="2" height="2"/>
	<rect x="48" y="41" width="2" height="2"/>
	<rect x="25" y="48" width="2" height="2"/>
	<rect x="33" y="48" width="2" height="2"/>
	<rect x="40" y="48" width="2" height="2"/>
	<path d="M23,38h6v-6h-6V38z M25,34h2v2h-2V34z"/>
	<path d="M38,45h6v-6h-6V45z M40,41h2v2h-2V41z"/>
	<polygon points="59,21 59,57 19,57 19,58 60,58 60,21 	"/>
</g>
</svg>
