<svg xmlns="http://www.w3.org/2000/svg" width="75" height="75" viewBox="0 0 75 75"><defs><style>.a{fill:none;}</style></defs><title>keuzedagen-discount--large</title><circle class="a" cx="50.356" cy="18.413" r="0.941"/><rect class="a" x="25" y="34" width="2" height="2"/><path class="a" d="M61.059,18.05l.046-1.707-1.522-.812-.547-1.621-1.712-.252-1.077-1.339-1.7.343-1.477-.894-1.479.894-1.7-.343-1.076,1.339-1.713.252-.547,1.622-1.521.812.046,1.707-1.146,1.274.638,1.587L43.941,22.5l1.146,1.276-.046,1.707,1.522.811.547,1.621,1.712.252,1.077,1.34,1.695-.343,1.479.894,1.478-.9,1.7.346,1.076-1.341,1.712-.251.547-1.621,1.523-.812-.047-1.706L62.2,22.5l-.64-1.587.64-1.587Zm-9.291.363A1.412,1.412,0,1,1,50.356,17,1.413,1.413,0,0,1,51.768,18.413ZM49.581,24.7a.235.235,0,1,1-.332-.333l7.059-7.059a.235.235,0,0,1,.333.333Zm5.951.3a1.412,1.412,0,1,1,1.412-1.412A1.413,1.413,0,0,1,55.532,25Z"/><rect class="a" x="40" y="41" width="2" height="2"/><circle class="a" cx="55.532" cy="23.589" r="0.941"/><path d="M59,31.171V57H19v1H60V30.556A11.192,11.192,0,0,1,59,31.171Z"/><rect x="25" y="27" width="2" height="2"/><rect x="33" y="27" width="2" height="2"/><rect x="40" y="27" width="2" height="2"/><rect x="33" y="34" width="2" height="2"/><rect x="40" y="34" width="2" height="2"/><rect x="48" y="34" width="2" height="2"/><rect x="25" y="41" width="2" height="2"/><rect x="33" y="41" width="2" height="2"/><rect x="48" y="41" width="2" height="2"/><rect x="25" y="48" width="2" height="2"/><rect x="33" y="48" width="2" height="2"/><rect x="40" y="48" width="2" height="2"/><path d="M29,32H23v6h6Zm-2,4H25V34h2Z"/><path d="M44,39H38v6h6Zm-2,4H40V41h2Z"/><path d="M25,16v3H17V56H58V31.657q-.489.21-1,.379V55H18V20h7v2a1,1,0,0,0,2,0V20H41.479c.026-.338.06-.671.112-1H27V16a1,1,0,0,0-2,0Z"/><path d="M62.644,20.912l.722-1.792-1.3-1.441.052-1.928L60.4,14.836l-.615-1.826-1.931-.283-1.212-1.509-1.911.388L53.074,10.6l-1.662,1.005L49.5,11.218l-1.211,1.509-1.932.283-.615,1.827-1.717.915.052,1.928-1.3,1.44.72,1.792-.72,1.793,1.3,1.442-.052,1.928,1.718.914.615,1.826,1.931.283,1.212,1.51,1.91-.388,1.662,1,1.661-1.006,1.911.389L57.856,29.1l1.931-.282.615-1.826,1.72-.915-.054-1.927,1.3-1.443ZM62.205,22.5l-1.146,1.277.047,1.706-1.523.812-.547,1.621-1.712.251-1.076,1.341-1.7-.346-1.478.9L51.6,29.163l-1.695.343-1.077-1.34-1.712-.252-.547-1.621-1.522-.811.046-1.707L43.941,22.5l.638-1.588-.638-1.587,1.146-1.274-.046-1.707,1.521-.812.547-1.622,1.713-.252L49.9,12.319l1.7.343,1.479-.894,1.477.894,1.7-.343,1.077,1.339,1.712.252.547,1.621,1.522.812-.046,1.707L62.2,19.325l-.64,1.587Z"/><path d="M48.944,18.413A1.412,1.412,0,1,0,50.356,17,1.413,1.413,0,0,0,48.944,18.413Zm2.353,0a.941.941,0,1,1-.941-.941A.942.942,0,0,1,51.3,18.413Z"/><path d="M55.532,22.177a1.412,1.412,0,1,0,1.412,1.412A1.413,1.413,0,0,0,55.532,22.177Zm0,2.353a.941.941,0,1,1,.941-.941A.942.942,0,0,1,55.532,24.53Z"/><path d="M56.64,17.638a.235.235,0,0,0-.333-.333l-7.059,7.059a.235.235,0,1,0,.332.333Z"/></svg>