<?xml version="1.0" encoding="utf-8"?>
<!-- Generator: Adobe Illustrator 19.0.1, SVG Export Plug-In . SVG Version: 6.00 Build 0)  -->
<svg version="1.1" id="OV_tram_metro_bus" xmlns="http://www.w3.org/2000/svg" xmlns:xlink="http://www.w3.org/1999/xlink" x="0px"
	 y="0px" width="75px" height="75px" viewBox="0 0 75 75" enable-background="new 0 0 75 75" xml:space="preserve">
<g>
	<path fill="none" d="M40.5,20H39v-2h-3v2h-1.5c-0.827,0-1.5,0.673-1.5,1.5V23h9v-1.5C42,20.673,41.327,20,40.5,20z"/>
	<polygon points="44,21 44,22 50,22 50,57 25,57 25,22 31,22 31,21 24,21 24,58 51,58 51,21 	"/>
	<path d="M43,21.5c0-1.379-1.121-2.5-2.5-2.5H40v-2h-5v2h-0.5c-1.379,0-2.5,1.121-2.5,2.5V24h11V21.5z M42,23h-9v-1.5
		c0-0.827,0.673-1.5,1.5-1.5H36v-2h3v2h1.5c0.827,0,1.5,0.673,1.5,1.5V23z"/>
	<rect x="29" y="30" width="1" height="1"/>
	<rect x="32" y="30" width="13" height="1"/>
	<rect x="29" y="33" width="1" height="1"/>
	<rect x="32" y="33" width="13" height="1"/>
	<rect x="29" y="36" width="1" height="1"/>
	<rect x="32" y="36" width="13" height="1"/>
	<rect x="29" y="39" width="1" height="1"/>
	<rect x="32" y="39" width="13" height="1"/>
	<rect x="29" y="42" width="1" height="1"/>
	<rect x="32" y="42" width="13" height="1"/>
	<rect x="29" y="45" width="1" height="1"/>
	<rect x="32" y="45" width="13" height="1"/>
	<rect x="29" y="48" width="1" height="1"/>
	<rect x="32" y="48" width="13" height="1"/>
</g>
</svg>
