<svg xmlns="http://www.w3.org/2000/svg" width="75" height="75" viewBox="0 0 75 75"><title>NS_icons-TDH</title><path d="M58,26H28a2.971,2.971,0,0,0-3,3V46a2.973,2.973,0,0,0,3,3H38v9l9-9H58a2.971,2.971,0,0,0,3-3V29A2.971,2.971,0,0,0,58,26Zm2,20a1.973,1.973,0,0,1-2,2H46.586l-.293.293L39,55.586V48H28a1.976,1.976,0,0,1-2-2V29a1.973,1.973,0,0,1,2-2H58a1.973,1.973,0,0,1,2,2Z"/><path d="M14,38V21a2.006,2.006,0,0,1,2-2H40a2.006,2.006,0,0,1,2,2v3h1V21a3,3,0,0,0-3-3H16a3,3,0,0,0-3,3V38a3,3,0,0,0,3,3h7V40H16A2.006,2.006,0,0,1,14,38Z"/></svg>