<?xml version="1.0" encoding="utf-8"?>
<!-- Generator: Adobe Illustrator 19.0.1, SVG Export Plug-In . SVG Version: 6.00 Build 0)  -->
<svg version="1.1" id="OV_tram_metro_bus" xmlns="http://www.w3.org/2000/svg" xmlns:xlink="http://www.w3.org/1999/xlink" x="0px"
	 y="0px" width="75px" height="75px" viewBox="0 0 75 75" enable-background="new 0 0 75 75" xml:space="preserve">
<g>
	<g>
		<path d="M29.435,25.857c-1.496,0-2.958-0.763-3.785-2.136c-0.605-1.01-0.78-2.192-0.494-3.331
			c0.284-1.133,0.994-2.087,1.998-2.686c2.068-1.238,4.769-0.558,6.017,1.52l0,0c0.604,1.005,0.782,2.184,0.499,3.319
			c-0.282,1.135-0.991,2.092-1.995,2.695C30.973,25.658,30.199,25.857,29.435,25.857z M29.391,18.085
			c-0.589,0-1.185,0.154-1.725,0.477c-0.774,0.462-1.321,1.197-1.541,2.071c-0.222,0.879-0.086,1.792,0.382,2.572
			c0.965,1.604,3.055,2.132,4.652,1.175c0.774-0.465,1.321-1.203,1.539-2.079c0.219-0.876,0.081-1.786-0.386-2.562v0
			C31.675,18.676,30.545,18.085,29.391,18.085z"/>
	</g>
	<g>
		<path d="M36.5,43.5c-0.276,0-0.5-0.224-0.5-0.5V32c0-1.598-1.471-3-3.146-3H32c-0.276,0-0.5-0.224-0.5-0.5S31.724,28,32,28h0.854
			C35.062,28,37,29.869,37,32v11C37,43.276,36.776,43.5,36.5,43.5z"/>
	</g>
	<g>
		<path d="M22.5,43.5c-0.276,0-0.5-0.224-0.5-0.5V32c0-2.206,1.768-4,3.94-4H27c0.276,0,0.5,0.224,0.5,0.5S27.276,29,27,29h-1.06
			C24.319,29,23,30.346,23,32v11C23,43.276,22.776,43.5,22.5,43.5z"/>
	</g>
	<g>
		<path d="M49.5,47.5c-0.276,0-0.5-0.224-0.5-0.5v-7c0-1.243-0.761-2.016-1.984-2.016c-0.276,0-0.5-0.224-0.5-0.5s0.224-0.5,0.5-0.5
			C48.801,36.984,50,38.196,50,40v7C50,47.276,49.776,47.5,49.5,47.5z"/>
	</g>
	<g>
		<path d="M40.5,47.5c-0.276,0-0.5-0.224-0.5-0.5v-7c0-1.804,1.193-3.016,2.969-3.016c0.276,0,0.5,0.224,0.5,0.5s-0.224,0.5-0.5,0.5
			C41.736,37.984,41,38.738,41,40v7C41,47.276,40.776,47.5,40.5,47.5z"/>
	</g>
	<g>
		<path d="M33,43v15c0,0.276,0.224,0.5,0.5,0.5S34,58.276,34,58V43H33z"/>
		<path d="M25.5,58.5c0.276,0,0.5-0.224,0.5-0.5V43h-1v15C25,58.276,25.224,58.5,25.5,58.5z"/>
		<path d="M47,47v11c0,0.276,0.224,0.5,0.5,0.5S48,58.276,48,58V47H47z"/>
		<path d="M42.5,58.5c0.276,0,0.5-0.224,0.5-0.5V47h-1v11C42,58.276,42.224,58.5,42.5,58.5z"/>
	</g>
	<g>
		<path d="M45,36c-1.93,0-3.5-1.57-3.5-3.5S43.07,29,45,29s3.5,1.57,3.5,3.5S46.93,36,45,36z M45,30c-1.379,0-2.5,1.122-2.5,2.5
			S43.621,35,45,35s2.5-1.122,2.5-2.5S46.379,30,45,30z"/>
	</g>
</g>
</svg>
