<?xml version="1.0" encoding="utf-8"?>
<!-- Generator: Adobe Illustrator 19.0.1, SVG Export Plug-In . SVG Version: 6.00 Build 0)  -->
<svg version="1.1" id="OV_tram_metro_bus" xmlns="http://www.w3.org/2000/svg" xmlns:xlink="http://www.w3.org/1999/xlink" x="0px"
	 y="0px" width="75px" height="75px" viewBox="0 0 75 75" enable-background="new 0 0 75 75" xml:space="preserve">
<g>
	<path fill="none" d="M38,18.025V20v2v14.293l1.646-1.646c0.195-0.195,0.512-0.195,0.707,0s0.195,0.512,0,0.707L38.707,37H50
		c0.276,0,0.5,0.224,0.5,0.5S50.276,38,50,38H38v3c0,0.276-0.224,0.5-0.5,0.5S37,41.276,37,41v-2.293l-6.35,6.35
		C30.869,45.404,31,45.811,31,46.25c0,1.24-1.01,2.25-2.25,2.25c-0.439,0-0.846-0.132-1.193-0.35l-1.441,1.441
		c-0.098,0.098-0.226,0.146-0.354,0.146s-0.256-0.049-0.354-0.146c-0.195-0.195-0.195-0.512,0-0.707l1.441-1.441
		c-0.219-0.347-0.35-0.754-0.35-1.193c0-1.24,1.01-2.25,2.25-2.25c0.439,0,0.846,0.131,1.193,0.35l6.35-6.35H35
		c-0.276,0-0.5-0.224-0.5-0.5S34.724,37,35,37h2V22v-2v-1.975C26.48,18.294,18,26.917,18,37.5C18,48.252,26.748,57,37.5,57
		S57,48.252,57,37.5C57,26.917,48.52,18.294,38,18.025z M46.683,22.595l-1,1.731c-0.092,0.16-0.261,0.25-0.433,0.25
		c-0.085,0-0.171-0.021-0.25-0.067c-0.239-0.138-0.321-0.443-0.183-0.683l1-1.731c0.138-0.239,0.444-0.321,0.683-0.183
		C46.739,22.05,46.821,22.355,46.683,22.595z M28.5,21.912c0.239-0.14,0.545-0.058,0.683,0.183l1,1.731
		c0.139,0.239,0.057,0.545-0.183,0.683c-0.079,0.046-0.165,0.067-0.25,0.067c-0.172,0-0.341-0.09-0.433-0.25l-1-1.731
		C28.179,22.355,28.261,22.05,28.5,21.912z M19.5,37.5c0-0.276,0.224-0.5,0.5-0.5h2c0.276,0,0.5,0.224,0.5,0.5S22.276,38,22,38h-2
		C19.724,38,19.5,37.776,19.5,37.5z M24.326,45.683l-1.731,1c-0.079,0.046-0.165,0.067-0.25,0.067c-0.172,0-0.341-0.09-0.433-0.25
		c-0.139-0.239-0.057-0.545,0.183-0.683l1.731-1c0.238-0.14,0.545-0.058,0.683,0.183C24.647,45.239,24.565,45.545,24.326,45.683z
		 M24.509,30c-0.092,0.16-0.261,0.25-0.433,0.25c-0.085,0-0.171-0.021-0.25-0.067l-1.731-1c-0.239-0.138-0.321-0.443-0.183-0.683
		c0.138-0.239,0.444-0.32,0.683-0.183l1.731,1C24.565,29.455,24.647,29.761,24.509,30z M30.183,51.174l-1,1.731
		c-0.092,0.16-0.261,0.25-0.433,0.25c-0.085,0-0.171-0.021-0.25-0.067c-0.239-0.138-0.321-0.443-0.183-0.683l1-1.731
		c0.138-0.239,0.444-0.32,0.683-0.183C30.239,50.629,30.321,50.935,30.183,51.174z M38,55c0,0.276-0.224,0.5-0.5,0.5
		S37,55.276,37,55v-2c0-0.276,0.224-0.5,0.5-0.5S38,52.724,38,53V55z M46.5,53.088c-0.079,0.046-0.165,0.067-0.25,0.067
		c-0.172,0-0.341-0.09-0.433-0.25l-1-1.731c-0.139-0.239-0.057-0.545,0.183-0.683c0.238-0.14,0.545-0.057,0.683,0.183l1,1.731
		C46.821,52.645,46.739,52.95,46.5,53.088z M50.491,30c-0.139-0.239-0.057-0.545,0.183-0.683l1.731-1
		c0.238-0.139,0.545-0.057,0.683,0.183c0.139,0.239,0.057,0.545-0.183,0.683l-1.731,1c-0.079,0.046-0.165,0.067-0.25,0.067
		C50.752,30.25,50.583,30.16,50.491,30z M53.088,46.5c-0.092,0.16-0.261,0.25-0.433,0.25c-0.085,0-0.171-0.021-0.25-0.067l-1.731-1
		c-0.239-0.138-0.321-0.443-0.183-0.683c0.138-0.239,0.445-0.32,0.683-0.183l1.731,1C53.145,45.955,53.227,46.261,53.088,46.5z
		 M55,38h-2c-0.276,0-0.5-0.224-0.5-0.5S52.724,37,53,37h2c0.276,0,0.5,0.224,0.5,0.5S55.276,38,55,38z"/>
	<circle fill="none" cx="28.75" cy="46.25" r="1.25"/>
	<path d="M37.5,52.5c-0.276,0-0.5,0.224-0.5,0.5v2c0,0.276,0.224,0.5,0.5,0.5S38,55.276,38,55v-2C38,52.724,37.776,52.5,37.5,52.5z"
		/>
	<path d="M22.5,37.5c0-0.276-0.224-0.5-0.5-0.5h-2c-0.276,0-0.5,0.224-0.5,0.5S19.724,38,20,38h2C22.276,38,22.5,37.776,22.5,37.5z"
		/>
	<path d="M55,37h-2c-0.276,0-0.5,0.224-0.5,0.5S52.724,38,53,38h2c0.276,0,0.5-0.224,0.5-0.5S55.276,37,55,37z"/>
	<path d="M24.326,29.317l-1.731-1c-0.238-0.138-0.545-0.057-0.683,0.183c-0.139,0.239-0.057,0.545,0.183,0.683l1.731,1
		c0.079,0.046,0.165,0.067,0.25,0.067c0.172,0,0.341-0.09,0.433-0.25C24.647,29.761,24.565,29.455,24.326,29.317z"/>
	<path d="M52.905,45.817l-1.731-1c-0.237-0.138-0.545-0.057-0.683,0.183c-0.139,0.239-0.057,0.545,0.183,0.683l1.731,1
		c0.079,0.046,0.165,0.067,0.25,0.067c0.172,0,0.341-0.09,0.433-0.25C53.227,46.261,53.145,45.955,52.905,45.817z"/>
	<path d="M29.317,24.326c0.092,0.16,0.261,0.25,0.433,0.25c0.085,0,0.171-0.021,0.25-0.067c0.239-0.138,0.321-0.443,0.183-0.683
		l-1-1.731c-0.138-0.24-0.443-0.322-0.683-0.183c-0.239,0.138-0.321,0.443-0.183,0.683L29.317,24.326z"/>
	<path d="M45.683,50.674c-0.138-0.239-0.444-0.322-0.683-0.183c-0.239,0.138-0.321,0.443-0.183,0.683l1,1.731
		c0.092,0.16,0.261,0.25,0.433,0.25c0.085,0,0.171-0.021,0.25-0.067c0.239-0.138,0.321-0.443,0.183-0.683L45.683,50.674z"/>
	<path d="M23.826,44.817l-1.731,1c-0.239,0.138-0.321,0.443-0.183,0.683c0.092,0.16,0.261,0.25,0.433,0.25
		c0.085,0,0.171-0.021,0.25-0.067l1.731-1c0.239-0.138,0.321-0.443,0.183-0.683C24.371,44.76,24.064,44.678,23.826,44.817z"/>
	<path d="M51.174,30.183l1.731-1c0.239-0.138,0.321-0.443,0.183-0.683c-0.138-0.239-0.444-0.321-0.683-0.183l-1.731,1
		c-0.239,0.138-0.321,0.443-0.183,0.683c0.092,0.16,0.261,0.25,0.433,0.25C51.009,30.25,51.095,30.229,51.174,30.183z"/>
	<path d="M30,50.491c-0.238-0.138-0.545-0.057-0.683,0.183l-1,1.731c-0.139,0.239-0.057,0.545,0.183,0.683
		c0.079,0.046,0.165,0.067,0.25,0.067c0.172,0,0.341-0.09,0.433-0.25l1-1.731C30.321,50.935,30.239,50.629,30,50.491z"/>
	<path d="M46.5,21.912c-0.238-0.139-0.545-0.057-0.683,0.183l-1,1.731c-0.139,0.239-0.057,0.545,0.183,0.683
		c0.079,0.046,0.165,0.067,0.25,0.067c0.172,0,0.341-0.09,0.433-0.25l1-1.731C46.821,22.355,46.739,22.05,46.5,21.912z"/>
	<path d="M37.5,17C26.196,17,17,26.196,17,37.5S26.196,58,37.5,58S58,48.804,58,37.5S48.804,17,37.5,17z M37.5,57
		C26.748,57,18,48.252,18,37.5c0-10.583,8.48-19.206,19-19.475V20v2v15h-2c-0.276,0-0.5,0.224-0.5,0.5S34.724,38,35,38h1.293
		l-6.35,6.35C29.596,44.131,29.189,44,28.75,44c-1.24,0-2.25,1.01-2.25,2.25c0,0.439,0.132,0.846,0.35,1.193l-1.441,1.441
		c-0.195,0.195-0.195,0.512,0,0.707c0.098,0.098,0.226,0.146,0.354,0.146s0.256-0.049,0.354-0.146l1.441-1.441
		c0.347,0.219,0.754,0.35,1.193,0.35c1.24,0,2.25-1.01,2.25-2.25c0-0.439-0.131-0.846-0.35-1.193l6.35-6.35V41
		c0,0.276,0.224,0.5,0.5,0.5S38,41.276,38,41v-3h12c0.276,0,0.5-0.224,0.5-0.5S50.276,37,50,37H38.707l1.646-1.646
		c0.195-0.195,0.195-0.512,0-0.707s-0.512-0.195-0.707,0L38,36.293V22v-2v-1.975c10.52,0.269,19,8.891,19,19.475
		C57,48.252,48.252,57,37.5,57z M27.5,46.25c0-0.689,0.561-1.25,1.25-1.25S30,45.561,30,46.25s-0.561,1.25-1.25,1.25
		S27.5,46.939,27.5,46.25z"/>
</g>
</svg>
