<?xml version="1.0" encoding="utf-8"?>
<!-- Generator: Adobe Illustrator 18.0.0, SVG Export Plug-In . SVG Version: 6.00 Build 0)  -->
<!DOCTYPE svg PUBLIC "-//W3C//DTD SVG 1.1//EN" "http://www.w3.org/Graphics/SVG/1.1/DTD/svg11.dtd">
<svg version="1.1" id="OV_tram_metro_bus" xmlns="http://www.w3.org/2000/svg" xmlns:xlink="http://www.w3.org/1999/xlink" x="0px"
	 y="0px" width="75px" height="75px" viewBox="0 0 75 75" enable-background="new 0 0 75 75" xml:space="preserve">
<g>
	<path d="M25.571,25.86C25.57,25.86,25.571,25.86,25.571,25.86c-0.789,0-1.564-0.215-2.243-0.621
		c-1.005-0.604-1.714-1.561-1.997-2.696c-0.283-1.135-0.105-2.314,0.5-3.319c0.792-1.32,2.239-2.141,3.776-2.141
		c0.788,0,1.562,0.215,2.241,0.621c1.002,0.599,1.712,1.552,1.997,2.686c0.286,1.138,0.111,2.321-0.494,3.33
		C28.557,25.041,27.108,25.86,25.571,25.86z M25.606,18.084c-1.206,0-2.296,0.619-2.919,1.656c-0.467,0.776-0.604,1.687-0.386,2.562
		c0.218,0.875,0.765,1.614,1.54,2.08c0.523,0.312,1.121,0.479,1.729,0.479h0c1.207,0,2.299-0.619,2.923-1.655
		c0.467-0.779,0.602-1.693,0.381-2.572c-0.22-0.874-0.767-1.609-1.541-2.071C26.811,18.25,26.213,18.084,25.606,18.084z"/>
</g>
<g>
	<path d="M18.5,43.5c-0.276,0-0.5-0.224-0.5-0.5V32c0-2.131,1.938-4,4.146-4H23c0.276,0,0.5,0.224,0.5,0.5S23.276,29,23,29h-0.854
		C20.47,29,19,30.402,19,32v11C19,43.276,18.776,43.5,18.5,43.5z"/>
</g>
<g>
	<path d="M32.5,43.5c-0.276,0-0.5-0.224-0.5-0.5V32c0-1.654-1.319-3-2.94-3H28c-0.276,0-0.5-0.224-0.5-0.5S27.724,28,28,28h1.06
		c2.173,0,3.94,1.794,3.94,4v11C33,43.276,32.776,43.5,32.5,43.5z"/>
</g>
<path d="M21,58c0,0.276,0.224,0.5,0.5,0.5S22,58.276,22,58V43h-1V58z M29,43v15c0,0.276,0.224,0.5,0.5,0.5S30,58.276,30,58V43H29z"
	/>
<path d="M45,58c0,0.276,0.224,0.5,0.5,0.5S46,58.276,46,58V43h-1V58z M53,43v15c0,0.276,0.224,0.5,0.5,0.5S54,58.276,54,58V43H53z"
	/>
<g>
	<path d="M49.571,25.86C49.57,25.86,49.57,25.86,49.571,25.86c-0.789,0-1.564-0.215-2.244-0.621
		c-1.005-0.604-1.714-1.561-1.996-2.696c-0.283-1.135-0.105-2.314,0.499-3.319c0.792-1.32,2.239-2.141,3.776-2.141
		c0.787,0,1.562,0.215,2.241,0.621c1.003,0.599,1.712,1.552,1.997,2.686c0.286,1.138,0.111,2.321-0.494,3.33
		C52.557,25.041,51.108,25.86,49.571,25.86z M49.606,18.084c-1.206,0-2.297,0.619-2.919,1.656c-0.467,0.777-0.604,1.687-0.386,2.562
		c0.218,0.875,0.765,1.614,1.54,2.08c0.522,0.312,1.121,0.479,1.729,0.479c0,0,0,0,0.001,0c1.206,0,2.299-0.619,2.922-1.655
		c0.468-0.779,0.604-1.693,0.382-2.571c-0.22-0.874-0.767-1.609-1.54-2.071C50.811,18.25,50.213,18.084,49.606,18.084z"/>
</g>
<g>
	<path d="M56.5,43.5c-0.276,0-0.5-0.224-0.5-0.5V32c0-1.654-1.319-3-2.94-3H52c-0.276,0-0.5-0.224-0.5-0.5S51.724,28,52,28h1.06
		c2.173,0,3.94,1.794,3.94,4v11C57,43.276,56.776,43.5,56.5,43.5z"/>
</g>
<g>
	<g>
		<path d="M38,35h11c0.276,0,0.5-0.224,0.5-0.5S49.276,34,49,34H38c-0.276,0-0.5,0.224-0.5,0.5S37.724,35,38,35z"/>
	</g>
	<g>
		<path d="M43.5,40.5c0.276,0,0.5-0.224,0.5-0.5V29c0-0.276-0.224-0.5-0.5-0.5S43,28.724,43,29v11C43,40.276,43.224,40.5,43.5,40.5z
			"/>
	</g>
</g>
</svg>
