<svg xmlns="http://www.w3.org/2000/svg" width="75" height="75" viewBox="0 0 75 75"><path d="M53,56V50.087c0-4.3-4-8.08-8.566-8.08H42.546a.5.5,0,1,0,0,.99h1.888c4.024,0,7.554,3.313,7.554,7.09V56Z"/><path d="M30.11,43h2.344a.5.5,0,1,0,0-.99H30.11A8.1,8.1,0,0,0,22,50.087V56h1.01V50.087A7.1,7.1,0,0,1,30.11,43Z"/><path d="M50.523,24.643a.619.619,0,0,0-.625-.612H46.728V18.2h-18.7v6.856H49.9C50.243,25.056,50.523,24.981,50.523,24.643Zm-4.846-.612h-16.6V19.225h16.6Z"/><path d="M37.259,38.52a9.268,9.268,0,0,0,9.349-9.164,8.51,8.51,0,0,0-.156-1.58H45.414a7.123,7.123,0,0,1,.183,1.58,8.339,8.339,0,0,1-16.674,0,7.142,7.142,0,0,1,.184-1.58H28.068a8.51,8.51,0,0,0-.156,1.58A9.267,9.267,0,0,0,37.259,38.52Z"/></svg>