<svg xmlns="http://www.w3.org/2000/svg" width="75" height="75" viewBox="0 0 75 75"><path d="M58.5,20h-42A1.5,1.5,0,0,0,15,21.5v26A1.5,1.5,0,0,0,16.5,49h42A1.5,1.5,0,0,0,60,47.5v-26A1.5,1.5,0,0,0,58.5,20ZM59,47.5a.5.5,0,0,1-.5.5h-42a.5.5,0,0,1-.5-.5v-26a.5.5,0,0,1,.5-.5h42a.5.5,0,0,1,.5.5Z"/><path d="M34,53.5a.5.5,0,0,1-.5.5H31v1h2.5A1.5,1.5,0,0,0,35,53.5V50H34Z"/><path d="M41,53.5V50H40v3.5A1.5,1.5,0,0,0,41.5,55H44V54H41.5A.5.5,0,0,1,41,53.5Z"/><path d="M31,35H23V28h8Zm-7-1h6V29H24Z"/><rect x="23" y="37" width="8" height="1"/><rect x="23" y="40" width="8" height="1"/><path d="M42,35H34V28h8Zm-7-1h6V29H35Z"/><rect x="34" y="37" width="8" height="1"/><rect x="34" y="40" width="8" height="1"/><rect x="45" y="37" width="8" height="1"/><rect x="45" y="34" width="8" height="1"/><rect x="45" y="31" width="8" height="1"/><rect x="45" y="28" width="8" height="1"/><rect x="45" y="40" width="8" height="1"/></svg>