<?xml version="1.0" encoding="utf-8"?>
<!-- Generator: Adobe Illustrator 19.0.1, SVG Export Plug-In . SVG Version: 6.00 Build 0)  -->
<svg version="1.1" id="OV_tram_metro_bus" xmlns="http://www.w3.org/2000/svg" xmlns:xlink="http://www.w3.org/1999/xlink" x="0px"
	 y="0px" width="75px" height="75px" viewBox="0 0 75 75" enable-background="new 0 0 75 75" xml:space="preserve">
<g>
	<path fill="none" d="M54.16,23.382c0.774-0.466,1.321-1.204,1.539-2.08s0.081-1.785-0.386-2.562c0,0,0,0,0-0.001
		c-0.638-1.063-1.768-1.654-2.923-1.654c-0.589,0-1.184,0.154-1.724,0.477c-0.774,0.462-1.321,1.198-1.541,2.072
		c-0.221,0.879-0.085,1.792,0.382,2.572C50.472,23.812,52.56,24.336,54.16,23.382z"/>
	<rect x="27" y="16" fill="none" width="7" height="2"/>
	<path fill="none" d="M31.302,43.594l-1.469-1.475C29.763,42.047,29.664,42,29.556,42h-2.527l-0.997,1h2.689
		c0.381,0,0.727,0.15,0.978,0.398l1.471,1.476C31.242,44.946,31.34,45,31.448,45h2.527l0.996-1h-2.691
		C31.899,44,31.553,43.842,31.302,43.594z"/>
	<path d="M52.434,24.857c0.765,0,1.538-0.199,2.239-0.618c1.004-0.604,1.713-1.561,1.996-2.695c0.283-1.136,0.105-2.314-0.5-3.319
		c-1.248-2.077-3.948-2.759-6.017-1.521c-1.003,0.599-1.712,1.553-1.998,2.687c-0.286,1.139-0.111,2.321,0.494,3.331
		C49.476,24.095,50.938,24.858,52.434,24.857z M49.125,19.634c0.22-0.874,0.767-1.61,1.541-2.072
		c0.54-0.322,1.135-0.477,1.724-0.477c1.155,0,2.285,0.591,2.923,1.654c0,0.001,0,0.001,0,0.001
		c0.467,0.776,0.604,1.686,0.386,2.562s-0.765,1.614-1.539,2.08c-1.6,0.954-3.688,0.43-4.653-1.176
		C49.04,21.426,48.904,20.513,49.125,19.634z"/>
	<path d="M55.854,27H55c-0.276,0-0.5,0.224-0.5,0.5S54.724,28,55,28h0.854C57.53,28,59,29.402,59,31v11c0,0.276,0.224,0.5,0.5,0.5
		S60,42.276,60,42V31C60,28.869,58.062,27,55.854,27z"/>
	<path d="M50,28c0.276,0,0.5-0.224,0.5-0.5S50.276,27,50,27h-1.06C46.768,27,45,28.794,45,31v3v8c0,0.276,0.224,0.5,0.5,0.5
		S46,42.276,46,42V31c0-1.654,1.319-3,2.94-3H50z"/>
	<path d="M56.5,57.5c0.276,0,0.5-0.224,0.5-0.5V42h-1v15C56,57.276,56.224,57.5,56.5,57.5z"/>
	<path d="M48,57c0,0.276,0.224,0.5,0.5,0.5S49,57.276,49,57V42h-1V57z"/>
	<path d="M33.854,27H33c-0.276,0-0.5,0.224-0.5,0.5S32.724,28,33,28h0.854C35.53,28,37,29.402,37,31v3h1v-3
		C38,28.869,36.062,27,33.854,27z"/>
	<path d="M24,34v-3c0-1.654,1.319-3,2.94-3H28c0.276,0,0.5-0.224,0.5-0.5S28.276,27,28,27h-1.06C24.768,27,23,28.794,23,31v3H24z"/>
	<path d="M32.006,42.886l-1.467-1.472C30.287,41.161,29.94,41,29.556,41h-2.94l-2.491,2.501L26.616,46h1.409l-1.993-2h2.69
		c0.107,0,0.203,0.041,0.275,0.11l1.471,1.47C30.719,45.832,31.066,46,31.449,46h2.938l2.49-2.5L34.387,41h-1.409l1.993,2h-2.689
		C32.174,43,32.077,42.955,32.006,42.886z M34.972,44l-0.996,1h-2.527c-0.108,0-0.206-0.054-0.277-0.126L29.7,43.398
		C29.449,43.15,29.103,43,28.722,43h-2.689l0.997-1h2.527c0.109,0,0.207,0.047,0.277,0.119l1.469,1.475
		C31.553,43.842,31.899,44,32.281,44H34.972z"/>
	<path d="M34,19h1h1c0.276,0,0.5-0.224,0.5-0.5S36.276,18,36,18h-1v-3h-9v4H34z M27,16h7v2h-7V16z"/>
	<path d="M30.5,25.5c2.481,0,4.5-2.019,4.5-4.5c0-0.345-0.047-0.677-0.121-1h-1.042C33.933,20.319,34,20.65,34,21
		c0,1.93-1.57,3.5-3.5,3.5S27,22.93,27,21c0-0.35,0.067-0.681,0.163-1h-1.042C26.047,20.323,26,20.655,26,21
		C26,23.481,28.019,25.5,30.5,25.5z"/>
	<path d="M39,35H21c-2.209,0-4,1.791-4,4v19h1V39c0-1.654,1.346-3,3-3h18c1.654,0,3,1.346,3,3v19h1V39C43,36.791,41.209,35,39,35z"
		/>
</g>
</svg>
