<?xml version="1.0" encoding="utf-8"?>
<!-- Generator: Adobe Illustrator 19.0.1, SVG Export Plug-In . SVG Version: 6.00 Build 0)  -->
<svg version="1.1" id="OV_tram_metro_bus" xmlns="http://www.w3.org/2000/svg" xmlns:xlink="http://www.w3.org/1999/xlink" x="0px"
	 y="0px" width="75px" height="75px" viewBox="0 0 75 75" enable-background="new 0 0 75 75" xml:space="preserve">
<g>
	<circle fill="none" cx="56.583" cy="41.583" r="2.417"/>
	<circle fill="none" cx="36.583" cy="41.583" r="2.417"/>
	<circle fill="none" cx="21.583" cy="56.583" r="2.417"/>
	<path d="M56.583,38.167c-1.687,0-3.08,1.226-3.358,2.833H39.941c-0.278-1.608-1.671-2.833-3.358-2.833
		c-1.887,0-3.417,1.53-3.417,3.417c0,0.72,0.225,1.386,0.606,1.937L23.521,53.772c-0.551-0.38-1.217-0.606-1.937-0.606
		c-1.887,0-3.417,1.53-3.417,3.417S19.696,60,21.583,60C23.47,60,25,58.47,25,56.583c0-0.805-0.29-1.536-0.756-2.12l10.22-10.22
		C35.047,44.71,35.778,45,36.583,45c1.744,0,3.167-1.312,3.375-3h13.251c0.208,1.688,1.63,3,3.375,3C58.47,45,60,43.47,60,41.583
		S58.47,38.167,56.583,38.167z M21.583,59c-1.333,0-2.417-1.084-2.417-2.417s1.084-2.417,2.417-2.417
		c1.333,0,2.417,1.084,2.417,2.417S22.916,59,21.583,59z M36.583,44c-1.333,0-2.417-1.084-2.417-2.417s1.084-2.417,2.417-2.417
		c1.333,0,2.417,1.084,2.417,2.417S37.916,44,36.583,44z M56.583,44c-1.333,0-2.417-1.084-2.417-2.417s1.084-2.417,2.417-2.417
		c1.333,0,2.417,1.084,2.417,2.417S57.916,44,56.583,44z"/>
	<path d="M25.742,40.12c-0.09-0.077-0.206-0.12-0.325-0.12h-5c-0.148,0-0.289,0.065-0.384,0.18l-0.417,0.5
		c-0.177,0.212-0.148,0.527,0.063,0.704C19.773,41.462,19.887,41.5,20,41.5c0.143,0,0.285-0.062,0.384-0.18L20.651,41h4.581
		l0.442,0.38c0.208,0.178,0.524,0.155,0.705-0.055c0.18-0.209,0.155-0.525-0.055-0.705L25.742,40.12z"/>
	<path d="M25,43.5c0.128,0,0.256-0.049,0.354-0.146c0.195-0.195,0.195-0.512,0-0.707l-0.5-0.5C24.76,42.053,24.633,42,24.5,42h-6
		c-0.133,0-0.26,0.053-0.354,0.146l-0.5,0.5c-0.195,0.195-0.195,0.512,0,0.707s0.512,0.195,0.707,0L18.707,43h5.586l0.354,0.354
		C24.744,43.451,24.872,43.5,25,43.5z"/>
	<path d="M23.5,44h-6c-0.133,0-0.26,0.053-0.354,0.146l-0.5,0.5c-0.195,0.195-0.195,0.512,0,0.707s0.512,0.195,0.707,0L17.707,45
		h5.586l0.354,0.354C23.744,45.451,23.872,45.5,24,45.5s0.256-0.049,0.354-0.146c0.195-0.195,0.195-0.512,0-0.707l-0.5-0.5
		C23.76,44.053,23.633,44,23.5,44z"/>
	<path d="M15.646,48.354C15.744,48.451,15.872,48.5,16,48.5s0.256-0.049,0.354-0.146c0.195-0.195,0.195-0.512,0-0.707L16.207,47.5
		l0.5-0.5h5.586l0.354,0.354c0.195,0.195,0.512,0.195,0.707,0s0.195-0.512,0-0.707l-0.5-0.5C22.76,46.053,22.633,46,22.5,46h-6
		c-0.133,0-0.26,0.053-0.354,0.146l-1,1c-0.195,0.195-0.195,0.512,0,0.707L15.646,48.354z"/>
	<path d="M37,53.293l-0.854,0.854c-0.195,0.195-0.195,0.512,0,0.707l1,1C37.24,55.947,37.367,56,37.5,56h3
		c0.133,0,0.26-0.053,0.354-0.146l1-1C41.947,54.76,42,54.633,42,54.5v-3c0-0.133-0.053-0.26-0.146-0.354L41.207,50.5l1.646-1.646
		C42.947,48.76,43,48.633,43,48.5V44h-1v4.293l-1.854,1.854c-0.195,0.195-0.195,0.512,0,0.707L41,51.707v2.586L40.293,55h-2.586
		l-0.5-0.5l0.646-0.646C37.947,53.76,38,53.633,38,53.5v-4c0-0.133-0.053-0.26-0.146-0.354l-2.352-2.352c0,0-0.001,0-0.001,0
		c-0.031,0.031-0.301,0.301-0.707,0.706L37,49.707V53.293z"/>
	<path d="M45.512,38.781h1.414l2.928-2.928C49.947,35.76,50,35.633,50,35.5v-4c0-0.133-0.053-0.26-0.146-0.354L48.207,29.5
		l1.646-1.646C49.947,27.76,50,27.633,50,27.5v-2.793l0.854-0.854C50.947,23.76,51,23.633,51,23.5v-4
		c0-0.133-0.053-0.26-0.146-0.354l-2-2C48.76,17.053,48.633,17,48.5,17h-10c-0.133,0-0.26,0.053-0.354,0.146l-3,3
		C35.053,20.24,35,20.367,35,20.5v4c0,0.133,0.053,0.26,0.146,0.354L37,26.707v0.588L33.341,31H32v-3.293l0.854-0.854
		c0.195-0.195,0.195-0.512,0-0.707l-2-2C30.76,24.053,30.633,24,30.5,24h-3c-0.276,0-0.5,0.224-0.5,0.5v6.793l-5.854,5.854
		C21.053,37.24,21,37.367,21,37.5v1c0,0.276,0.224,0.5,0.5,0.5s0.5-0.224,0.5-0.5v-0.793l5.854-5.854
		C27.947,31.76,28,31.633,28,31.5V25h2.293l1.5,1.5l-0.646,0.646C31.053,27.24,31,27.367,31,27.5v4c0,0.276,0.224,0.5,0.5,0.5h2.05
		c0.134,0,0.262-0.054,0.355-0.148l3.95-4C37.948,27.758,38,27.632,38,27.5v-1c0-0.133-0.053-0.26-0.146-0.354L36,24.293v-3.586
		L38.707,18h9.586L50,19.707v3.586l-0.854,0.854C49.053,24.24,49,24.367,49,24.5v2.793l-1.854,1.854
		c-0.195,0.195-0.195,0.512,0,0.707L49,31.707v3.586L45.512,38.781z"/>
	<path d="M18.5,49c-0.276,0-0.5,0.224-0.5,0.5s0.224,0.5,0.5,0.5h5.263c0.266-0.266,0.605-0.606,0.998-1H18.5z"/>
	<path d="M30.239,21c0.276,0,0.5-0.224,0.5-0.5s-0.224-0.5-0.5-0.5h-0.857c-0.133,0-0.26,0.126-0.354,0.22l-0.857,0.931
		c-0.195,0.195-0.195,0.512,0,0.707l0.857,0.857c0.098,0.098,0.226,0.146,0.354,0.146s0.256-0.067,0.354-0.165
		c0.195-0.195,0.195-0.53,0-0.725l-0.504-0.541L29.589,21H30.239z"/>
	<path d="M31.854,17.146c-0.195-0.195-0.512-0.195-0.707,0l-1.5,1.5c-0.195,0.195-0.195,0.512,0,0.707
		C29.744,19.451,29.872,19.5,30,19.5s0.256-0.049,0.354-0.146l1.5-1.5C32.049,17.658,32.049,17.342,31.854,17.146z"/>
	<path d="M35.314,15.036l-2.5,1c-0.257,0.103-0.381,0.394-0.278,0.649C32.614,16.881,32.802,17,33,17
		c0.062,0,0.125-0.012,0.186-0.036l2.5-1c0.257-0.103,0.381-0.394,0.278-0.649S35.57,14.933,35.314,15.036z"/>
	<path d="M38,15c-0.276,0-0.5,0.224-0.5,0.5S37.724,16,38,16h1c0.276,0,0.5-0.224,0.5-0.5S39.276,15,39,15H38z"/>
	<path d="M42,15c-0.276,0-0.5,0.224-0.5,0.5S41.724,16,42,16h1c0.276,0,0.5-0.224,0.5-0.5S43.276,15,43,15H42z"/>
</g>
</svg>
