<?xml version="1.0" encoding="utf-8"?>
<!-- Generator: Adobe Illustrator 18.0.0, SVG Export Plug-In . SVG Version: 6.00 Build 0)  -->
<!DOCTYPE svg PUBLIC "-//W3C//DTD SVG 1.1//EN" "http://www.w3.org/Graphics/SVG/1.1/DTD/svg11.dtd">
<svg version="1.1" id="Layer_1" xmlns="http://www.w3.org/2000/svg" xmlns:xlink="http://www.w3.org/1999/xlink" x="0px" y="0px"
	 width="75px" height="75px" viewBox="0 0 75 75" enable-background="new 0 0 75 75" xml:space="preserve">
<g>
	<g>
		<g>
			<path fill="#003082" d="M53,19H37c-1.657,0-3,1.343-3,3v14c0,1.657,1.343,3,3,3h1v-1h-1c-1.103,0-2-0.897-2-2V22
				c0-1.103,0.897-2,2-2h16c1.103,0,2,0.897,2,2v14c0,1.103-0.897,2-2,2H41.953l-1.076,1H53c1.657,0,3-1.343,3-3V22
				C56,20.343,54.657,19,53,19z"/>
		</g>
	</g>
	<g>
		<g>
			<polygon fill="#003082" points="41.667,38 39,40.586 39,38 38,38 38,43 43,38 			"/>
		</g>
	</g>
	<g>
		<g>
			<path fill="#003082" d="M44.5,32.525c-0.276,0-0.5-0.198-0.5-0.474V31.25c0-1.081,1.042-1.943,1.804-2.574
				c0.185-0.153,0.35-0.288,0.464-0.402C46.74,27.802,47,27.177,47,26.514c0-0.659-0.26-1.282-0.732-1.754
				c-0.455-0.455-1.082-0.705-1.768-0.705c-0.854,0-1.474,0.493-1.768,0.787c-0.195,0.195-0.512,0.195-0.707,0s-0.195-0.512,0-0.707
				c0.696-0.696,1.575-1.08,2.475-1.08c0.953,0,1.832,0.354,2.475,0.998C47.636,24.713,48,25.587,48,26.514
				c0,0.931-0.364,1.807-1.025,2.468c-0.132,0.132-0.32,0.289-0.533,0.465C45.867,29.922,45,30.64,45,31.25l-0.002,0.801
				C44.972,32.306,44.759,32.525,44.5,32.525z"/>
		</g>
	</g>
	<g>
		<g>
			<path fill="#003082" d="M29.5,51c-2.206,0-4-2.019-4-4.5v-1c0-2.481,1.794-4.5,4-4.5s4,2.019,4,4.5v1
				C33.5,48.981,31.706,51,29.5,51z M29.5,42c-1.654,0-3,1.57-3,3.5v1c0,1.93,1.346,3.5,3,3.5s3-1.57,3-3.5v-1
				C32.5,43.57,31.154,42,29.5,42z"/>
		</g>
	</g>
	<g>
		<g>
			<path fill="#003082" d="M30,60h-9v-3c0-2.428,1.966-5.25,4.5-5.25c0.276,0,0.5,0.224,0.5,0.5s-0.224,0.5-0.5,0.5
				c-1.939,0-3.5,2.325-3.5,4.25v2h8c0.276,0,0.5,0.224,0.5,0.5S30.276,60,30,60z"/>
		</g>
	</g>
	<g>
		<g>
			<path fill="#003082" d="M38,60h-9c-0.276,0-0.5-0.224-0.5-0.5S28.724,59,29,59h8v-2c0-1.925-1.561-4.25-3.5-4.25
				c-0.276,0-0.5-0.224-0.5-0.5s0.224-0.5,0.5-0.5c2.534,0,4.5,2.822,4.5,5.25V60z"/>
		</g>
	</g>
	<circle fill="#003082" cx="44.5" cy="34.5" r="0.5"/>
	<path fill="#003082" d="M29.5,51c-2.206,0-4-2.019-4-4.5v-1c0-2.481,1.794-4.5,4-4.5s4,2.019,4,4.5v1
		C33.5,48.981,31.706,51,29.5,51z M29.5,42c-1.654,0-3,1.57-3,3.5v1c0,1.93,1.346,3.5,3,3.5s3-1.57,3-3.5v-1
		C32.5,43.57,31.154,42,29.5,42z"/>
	<path fill="#003082" d="M33.5,51.75c-0.276,0-0.5,0.224-0.5,0.5s0.224,0.5,0.5,0.5c1.938,0,3.5,2.325,3.5,4.25v2H22v-2
		c0-1.925,1.562-4.25,3.5-4.25c0.276,0,0.5-0.224,0.5-0.5s-0.224-0.5-0.5-0.5c-2.534,0-4.5,2.822-4.5,5.25v3h17v-3
		C38,54.572,36.034,51.75,33.5,51.75z"/>
</g>
</svg>
