<svg xmlns="http://www.w3.org/2000/svg" width="75" height="75" viewBox="0 0 75 75"><path d="M56.915,34.573a3.221,3.221,0,0,0-1.023,6.279,8.079,8.079,0,0,1-5.231,5.336,3.21,3.21,0,0,0-6.149.16A8.091,8.091,0,0,1,38.7,40.8a3.22,3.22,0,0,0-1.061-6.211,9.275,9.275,0,0,0-6.678-6.921,3.223,3.223,0,0,0-6.443.091,9.305,9.305,0,0,0-6.364,6.824c-.023,0-.044-.007-.066-.007a3.288,3.288,0,1,0,1.018.18,8.239,8.239,0,0,1,5.572-5.995,3.209,3.209,0,0,0,6.154-.07A8.232,8.232,0,0,1,36.662,34.7a3.223,3.223,0,0,0,.838,6.337c.085,0,.164-.019.247-.025A9.107,9.107,0,0,0,44.4,47.37a3.224,3.224,0,0,0,6.443-.163V47.2a9.138,9.138,0,0,0,6.021-6.171c.018,0,.035.005.053.005a3.23,3.23,0,0,0,0-6.461Zm-36.6,3.23a2.23,2.23,0,1,1-2.23-2.23A2.233,2.233,0,0,1,20.315,37.8Zm7.427-7.78a2.23,2.23,0,1,1,2.229-2.23A2.233,2.233,0,0,1,27.742,30.023ZM35.27,37.8a2.23,2.23,0,1,1,2.23,2.23A2.233,2.233,0,0,1,35.27,37.8ZM47.612,49.438a2.23,2.23,0,1,1,2.229-2.23A2.233,2.233,0,0,1,47.612,49.438Zm9.3-9.4a2.23,2.23,0,1,1,2.23-2.23A2.233,2.233,0,0,1,56.915,40.034Z"/></svg>