<svg xmlns="http://www.w3.org/2000/svg" width="75" height="75" viewBox="0 0 75 75"><path d="M57.935,23.266,54.67,20l-.49.283a9.369,9.369,0,0,1-6.139,1.238l-.426-.066L44.017,33H17V56H45V33.9l11.479-3.577-.066-.426a9.39,9.39,0,0,1,1.237-6.139ZM44,55H18V34H44ZM55.368,29.618,46.151,32.49l4.2-4.2-.707-.707-4.2,4.2,2.872-9.216A10.413,10.413,0,0,0,54.5,21.249l2.18,2.181A10.435,10.435,0,0,0,55.368,29.618Z"/><rect x="28" y="39" width="11" height="1"/><path d="M24.5,41A1.5,1.5,0,1,0,23,39.5,1.5,1.5,0,0,0,24.5,41Zm0-2a.5.5,0,1,1-.5.5A.5.5,0,0,1,24.5,39Z"/><rect x="28" y="44" width="11" height="1"/><path d="M24.5,46A1.5,1.5,0,1,0,23,44.5,1.5,1.5,0,0,0,24.5,46Zm0-2a.5.5,0,1,1-.5.5A.5.5,0,0,1,24.5,44Z"/><rect x="28" y="49" width="11" height="1"/><path d="M24.5,51A1.5,1.5,0,1,0,23,49.5,1.5,1.5,0,0,0,24.5,51Zm0-2a.5.5,0,1,1-.5.5A.5.5,0,0,1,24.5,49Z"/></svg>