<?xml version="1.0" encoding="utf-8"?>
<!-- Generator: Adobe Illustrator 19.0.1, SVG Export Plug-In . SVG Version: 6.00 Build 0)  -->
<svg version="1.1" id="OV_tram_metro_bus" xmlns="http://www.w3.org/2000/svg" xmlns:xlink="http://www.w3.org/1999/xlink" x="0px"
	 y="0px" width="75px" height="75px" viewBox="0 0 75 75" enable-background="new 0 0 75 75" xml:space="preserve">
<g>
	<circle fill="none" cx="50.356" cy="18.413" r="0.941"/>
	<circle fill="none" cx="55.532" cy="23.589" r="0.941"/>
	<rect x="33" y="34" fill="none" width="2" height="2"/>
	<path fill="none" d="M61.058,18.049l0.047-1.707l-1.522-0.812l-0.547-1.621l-1.713-0.251l-1.076-1.34l-1.697,0.343l-1.477-0.894
		l-1.478,0.894l-1.696-0.343l-1.075,1.34L47.11,13.91l-0.546,1.622l-1.522,0.811l0.045,1.708l-1.146,1.275l0.637,1.586L43.941,22.5
		l1.147,1.275l-0.046,1.708l1.522,0.811l0.547,1.621l1.713,0.253l1.076,1.34l1.696-0.344l1.478,0.894l1.478-0.895l1.697,0.345
		l1.075-1.341l1.713-0.251l0.547-1.621l1.523-0.812l-0.047-1.706l1.147-1.277l-0.639-1.587l0.639-1.586L61.058,18.049z
		 M51.768,18.413c0,0.779-0.633,1.412-1.412,1.412s-1.412-0.633-1.412-1.412c0-0.778,0.633-1.412,1.412-1.412
		S51.768,17.634,51.768,18.413z M49.581,24.697c-0.046,0.046-0.106,0.069-0.166,0.069c-0.06,0-0.12-0.023-0.166-0.069
		c-0.092-0.092-0.092-0.241,0-0.333l7.059-7.059c0.092-0.092,0.241-0.092,0.333,0c0.092,0.092,0.092,0.241,0,0.333L49.581,24.697z
		 M55.532,25.001c-0.779,0-1.412-0.633-1.412-1.412s0.633-1.412,1.412-1.412s1.412,0.633,1.412,1.412S56.311,25.001,55.532,25.001z"
		/>
	<rect x="25" y="27" width="2" height="2"/>
	<rect x="33" y="27" width="2" height="2"/>
	<rect x="40" y="27" width="2" height="2"/>
	<rect x="25" y="34" width="2" height="2"/>
	<rect x="40" y="34" width="2" height="2"/>
	<rect x="48" y="34" width="2" height="2"/>
	<rect x="25" y="41" width="2" height="2"/>
	<rect x="33" y="41" width="2" height="2"/>
	<rect x="40" y="41" width="2" height="2"/>
	<rect x="48" y="41" width="2" height="2"/>
	<rect x="25" y="48" width="2" height="2"/>
	<rect x="33" y="48" width="2" height="2"/>
	<rect x="40" y="48" width="2" height="2"/>
	<path d="M37,32h-6v6h6V32z M35,36h-2v-2h2V36z"/>
	<path d="M25,16v3h-8v37h41V31.657c-0.326,0.14-0.659,0.266-1,0.379V55H18V20h7v2c0,0.552,0.448,1,1,1s1-0.448,1-1v-2h14.479
		c0.026-0.338,0.06-0.671,0.112-1H27v-3c0-0.552-0.448-1-1-1S25,15.448,25,16z"/>
	<path d="M62.644,20.912l0.721-1.792l-1.296-1.442l0.053-1.927l-1.719-0.916l-0.615-1.826l-1.931-0.283l-1.211-1.508l-1.912,0.386
		L53.073,10.6l-1.662,1.005L49.5,11.218l-1.211,1.508l-1.931,0.283l-0.616,1.827l-1.717,0.915l0.051,1.927l-1.296,1.442l0.72,1.792
		l-0.72,1.793l1.296,1.442l-0.052,1.927l1.718,0.915l0.615,1.825l1.931,0.284l1.211,1.51l1.911-0.388l1.662,1.005l1.662-1.006
		l1.912,0.389l1.21-1.51l1.931-0.284l0.615-1.825l1.719-0.916l-0.053-1.927l1.296-1.444L62.644,20.912z M62.205,22.5l-1.147,1.277
		l0.047,1.706l-1.523,0.812l-0.547,1.621l-1.713,0.251l-1.075,1.341l-1.697-0.345l-1.478,0.895l-1.478-0.894l-1.696,0.344
		l-1.076-1.34l-1.713-0.253l-0.547-1.621l-1.522-0.811l0.046-1.708L43.941,22.5l0.637-1.588l-0.637-1.586l1.146-1.275l-0.045-1.708
		l1.522-0.811l0.546-1.622l1.713-0.251l1.075-1.34l1.696,0.343l1.478-0.894l1.477,0.894l1.697-0.343l1.076,1.34l1.713,0.251
		l0.547,1.621l1.522,0.812l-0.047,1.707l1.147,1.276l-0.639,1.586L62.205,22.5z"/>
	<path d="M48.944,18.413c0,0.779,0.633,1.412,1.412,1.412s1.412-0.633,1.412-1.412c0-0.778-0.633-1.412-1.412-1.412
		S48.944,17.634,48.944,18.413z M51.297,18.413c0,0.519-0.422,0.941-0.941,0.941c-0.519,0-0.941-0.422-0.941-0.941
		c0-0.519,0.422-0.941,0.941-0.941C50.875,17.472,51.297,17.894,51.297,18.413z"/>
	<path d="M55.532,22.177c-0.779,0-1.412,0.633-1.412,1.412s0.633,1.412,1.412,1.412s1.412-0.633,1.412-1.412
		S56.311,22.177,55.532,22.177z M55.532,24.53c-0.519,0-0.941-0.422-0.941-0.941c0-0.519,0.422-0.941,0.941-0.941
		c0.519,0,0.941,0.422,0.941,0.941C56.473,24.108,56.051,24.53,55.532,24.53z"/>
	<path d="M56.64,17.638c0.092-0.092,0.092-0.241,0-0.333c-0.092-0.092-0.241-0.092-0.333,0l-7.059,7.059
		c-0.092,0.092-0.092,0.241,0,0.333c0.046,0.046,0.106,0.069,0.166,0.069c0.06,0,0.12-0.023,0.166-0.069L56.64,17.638z"/>
</g>
</svg>
