<?xml version="1.0" encoding="utf-8"?>
<!-- Generator: Adobe Illustrator 19.0.1, SVG Export Plug-In . SVG Version: 6.00 Build 0)  -->
<svg version="1.1" id="OV_tram_metro_bus" xmlns="http://www.w3.org/2000/svg" xmlns:xlink="http://www.w3.org/1999/xlink" x="0px"
	 y="0px" width="75px" height="75px" viewBox="0 0 75 75" enable-background="new 0 0 75 75" xml:space="preserve">
<g>
	<circle fill="none" cx="31.944" cy="32.001" r="2"/>
	<circle fill="none" cx="42.944" cy="43.001" r="2"/>
	<path fill="none" d="M57.793,37.499l1.532-3.804l-2.75-3.061l0.112-4.092l-3.65-1.946l-1.31-3.883l-4.104-0.602l-2.578-3.21
		l-4.065,0.822l-3.535-2.14l-3.54,2.14l-4.064-0.822l-2.576,3.21l-4.105,0.602l-1.31,3.888L18.2,26.544l0.109,4.094l-2.747,3.058
		l1.527,3.804l-1.527,3.808l2.749,3.06L18.2,48.46l3.65,1.943l1.31,3.883l4.104,0.604l2.578,3.211l4.062-0.824l3.54,2.14
		l3.537-2.144l4.066,0.828l2.574-3.213l4.105-0.602l1.31-3.883l3.65-1.945l-0.112-4.091l2.75-3.062L57.793,37.499z M31.944,29.001
		c1.654,0,3,1.346,3,3s-1.346,3-3,3s-3-1.346-3-3S30.29,29.001,31.944,29.001z M30.297,45.354c-0.098,0.098-0.226,0.146-0.354,0.146
		s-0.256-0.049-0.354-0.146c-0.195-0.195-0.195-0.512,0-0.707l15-15c0.195-0.195,0.512-0.195,0.707,0s0.195,0.512,0,0.707
		L30.297,45.354z M42.944,46.001c-1.654,0-3-1.346-3-3s1.346-3,3-3s3,1.346,3,3S44.598,46.001,42.944,46.001z"/>
	<path d="M58.871,37.499l1.614-4.009l-2.9-3.227l0.118-4.313l-3.846-2.049l-1.378-4.088l-4.323-0.634l-2.713-3.378l-4.28,0.865
		l-3.719-2.251l-3.724,2.251l-4.279-0.865l-2.711,3.378l-4.324,0.634l-1.378,4.092l-3.844,2.047l0.115,4.313l-2.897,3.225
		l1.609,4.009l-1.609,4.013l2.899,3.227l-0.117,4.313l3.846,2.047l1.378,4.087l4.322,0.636l2.713,3.38l4.277-0.868l3.724,2.251
		l3.721-2.255l4.281,0.872l2.711-3.382l4.322-0.634l1.378-4.087l3.848-2.049l-0.12-4.312l2.9-3.229L58.871,37.499z M56.687,48.458
		l-3.65,1.945l-1.31,3.883l-4.105,0.602l-2.574,3.213l-4.066-0.828l-3.537,2.144l-3.54-2.14l-4.062,0.824l-2.578-3.211l-4.104-0.604
		l-1.31-3.883L18.2,48.46l0.111-4.093l-2.749-3.06l1.527-3.808l-1.527-3.804l2.747-3.058L18.2,26.544l3.648-1.943l1.31-3.888
		l4.105-0.602l2.576-3.21l4.064,0.822l3.54-2.14l3.535,2.14l4.065-0.822l2.578,3.21l4.104,0.602l1.31,3.883l3.65,1.946l-0.112,4.092
		l2.75,3.061l-1.532,3.804l1.532,3.806l-2.75,3.062L56.687,48.458z"/>
	<path d="M31.944,35.001c1.654,0,3-1.346,3-3s-1.346-3-3-3s-3,1.346-3,3S30.29,35.001,31.944,35.001z M31.944,30.001
		c1.103,0,2,0.897,2,2s-0.897,2-2,2s-2-0.897-2-2S30.841,30.001,31.944,30.001z"/>
	<path d="M42.944,40.001c-1.654,0-3,1.346-3,3s1.346,3,3,3s3-1.346,3-3S44.598,40.001,42.944,40.001z M42.944,45.001
		c-1.103,0-2-0.897-2-2s0.897-2,2-2s2,0.897,2,2S44.047,45.001,42.944,45.001z"/>
	<path d="M45.297,29.647c-0.195-0.195-0.512-0.195-0.707,0l-15,15c-0.195,0.195-0.195,0.512,0,0.707
		c0.098,0.098,0.226,0.146,0.354,0.146s0.256-0.049,0.354-0.146l15-15C45.493,30.159,45.493,29.843,45.297,29.647z"/>
</g>
</svg>
