<?xml version="1.0" encoding="utf-8"?>
<!-- Generator: Adobe Illustrator 19.0.1, SVG Export Plug-In . SVG Version: 6.00 Build 0)  -->
<svg version="1.1" id="OV_tram_metro_bus" xmlns="http://www.w3.org/2000/svg" xmlns:xlink="http://www.w3.org/1999/xlink" x="0px"
	 y="0px" width="75px" height="75px" viewBox="0 0 75 75" enable-background="new 0 0 75 75" xml:space="preserve">
<g>
	<path fill="none" d="M29,36.488c-0.116-0.067-0.23-0.138-0.349-0.201l-1.113,7.497l-0.289,0.098
		c-1.211,0.41-2.472,0.618-3.749,0.618s-2.538-0.208-3.749-0.618l-0.289-0.098l-1.113-7.497C18.23,36.35,18.116,36.421,18,36.488
		v12.023C19.62,49.452,21.495,50,23.5,50s3.88-0.548,5.5-1.488V36.488z M21,48c-0.552,0-1-0.448-1-1c0-0.552,0.448-1,1-1
		s1,0.448,1,1C22,47.552,21.552,48,21,48z M26,48c-0.552,0-1-0.448-1-1c0-0.552,0.448-1,1-1s1,0.448,1,1C27,47.552,26.552,48,26,48z
		"/>
	<path fill="none" d="M26.639,43.028l1.068-7.189C26.41,35.301,24.99,35,23.5,35s-2.91,0.301-4.207,0.84l1.068,7.189
		C22.397,43.653,24.603,43.653,26.639,43.028z"/>
	<polygon points="38.011,15.243 37.534,16.614 36.082,16.644 37.239,17.522 36.819,18.912 38.011,18.083 39.204,18.912 
		38.783,17.522 39.941,16.644 38.488,16.614 	"/>
	<polygon points="48.168,17.716 47.691,19.088 46.24,19.118 47.397,19.995 46.976,21.385 48.168,20.556 49.361,21.385 48.94,19.995 
		50.098,19.118 48.645,19.088 	"/>
	<polygon points="26.101,21.385 27.293,20.556 28.486,21.385 28.065,19.995 29.223,19.118 27.77,19.088 27.293,17.716 
		26.816,19.088 25.365,19.118 26.522,19.995 	"/>
	<polygon points="54.132,28.295 55.324,27.465 56.517,28.295 56.096,26.905 57.254,26.027 55.802,25.997 55.324,24.626 
		54.847,25.997 53.395,26.027 54.552,26.905 	"/>
	<polygon points="18.945,28.295 20.137,27.465 21.33,28.295 20.909,26.905 22.067,26.027 20.615,25.997 20.137,24.626 
		19.661,25.997 18.209,26.027 19.366,26.905 	"/>
	<polygon points="55.802,47.119 55.324,45.747 54.847,47.119 53.395,47.149 54.552,48.026 54.132,49.417 55.324,48.587 
		56.517,49.417 56.096,48.026 57.254,47.149 	"/>
	<polygon points="48.381,54.539 47.904,53.167 47.427,54.539 45.976,54.568 47.133,55.446 46.712,56.837 47.904,56.007 
		49.097,56.837 48.676,55.446 49.834,54.568 	"/>
	<polygon points="59.795,36.884 58.343,36.854 57.865,35.482 57.389,36.854 55.937,36.884 57.093,37.761 56.673,39.152 
		57.865,38.322 59.058,39.152 58.637,37.761 	"/>
	<polygon points="38.488,57.465 38.011,56.094 37.534,57.465 36.082,57.495 37.239,58.372 36.819,59.763 38.011,58.933 
		39.204,59.763 38.783,58.372 39.941,57.495 	"/>
	<circle cx="21" cy="47" r="1"/>
	<circle cx="26" cy="47" r="1"/>
	<path d="M30,47V36v-0.078C28.126,34.711,25.898,34,23.5,34s-4.626,0.711-6.5,1.922V36v11v2v0.078C18.874,50.289,21.102,51,23.5,51
		s4.626-0.711,6.5-1.922V49V47z M23.5,35c1.49,0,2.91,0.301,4.207,0.84l-1.068,7.189c-2.036,0.625-4.241,0.625-6.277,0l-1.068-7.189
		C20.59,35.301,22.01,35,23.5,35z M18,48.512V36.488c0.116-0.067,0.23-0.138,0.349-0.201l1.113,7.497l0.289,0.098
		c1.211,0.41,2.472,0.618,3.749,0.618s2.538-0.208,3.749-0.618l0.289-0.098l1.113-7.497c0.119,0.063,0.233,0.134,0.349,0.201v12.023
		C27.38,49.452,25.505,50,23.5,50S19.62,49.452,18,48.512z"/>
	<path d="M27.559,53h-1.054c0,0.076,0.012,0.151,0.048,0.224L27.441,55h-7.882l0.888-1.776c0.036-0.072,0.048-0.148,0.048-0.224
		h-1.054l-1.888,3.776c-0.124,0.247-0.023,0.547,0.224,0.671C17.848,57.483,17.924,57.5,18,57.5c0.184,0,0.36-0.102,0.448-0.276
		L19.059,56h8.882l0.612,1.224C28.641,57.398,28.817,57.5,29,57.5c0.075,0,0.151-0.017,0.223-0.053
		c0.247-0.124,0.347-0.424,0.224-0.671L27.559,53z"/>
</g>
</svg>
