<svg id="Layer_1" data-name="Layer 1" xmlns="http://www.w3.org/2000/svg" width="75" height="75" viewBox="0 0 75 75"><title>euro--75x75</title><path d="M30.524,39.575V38.53h1.181a9.861,9.861,0,0,1-.058-1.1c0-.169.005-.334.014-.493s.021-.314.034-.464H30.524V35.425H31.88a6.121,6.121,0,0,1,2.609-3.755,7.944,7.944,0,0,1,4.463-1.225,6.437,6.437,0,0,1,2.324.437l-.518,1.079a5.138,5.138,0,0,0-1.807-.325,6.254,6.254,0,0,0-3.457.935,5.179,5.179,0,0,0-2.109,2.854h5.693l-.527,1.045h-5.42c-.026.176-.046.357-.059.542s-.02.376-.02.571a7.68,7.68,0,0,0,.059.947h4.424l-.518,1.045h-3.69a5.045,5.045,0,0,0,2.1,2.873,6.252,6.252,0,0,0,3.467.916,7.7,7.7,0,0,0,2.383-.341v1.308a10.057,10.057,0,0,1-1.05.166,11.451,11.451,0,0,1-1.2.059,8.162,8.162,0,0,1-4.521-1.179,6.064,6.064,0,0,1-2.619-3.8Z"/><path d="M37.5,55A17.5,17.5,0,1,1,55,37.5,17.5,17.5,0,0,1,37.5,55Zm0-34A16.5,16.5,0,1,0,54,37.5,16.5,16.5,0,0,0,37.5,21Z"/></svg>