<svg xmlns="http://www.w3.org/2000/svg" width="75" height="75" viewBox="0 0 75 75"><path d="M37.5,48.865A19.087,19.087,0,0,1,27.351,45.99a18.314,18.314,0,0,1-7.111-8.246l-.094-.206.094-.206a18.469,18.469,0,0,1,7.147-8.283,19.323,19.323,0,0,1,17-1.678A18.273,18.273,0,0,1,50.4,31.176a19.191,19.191,0,0,1,4.362,6.155l.093.206-.094.206a18.314,18.314,0,0,1-7.111,8.246A19.083,19.083,0,0,1,37.5,48.865ZM21.246,37.538a17.279,17.279,0,0,0,6.629,7.6,18.354,18.354,0,0,0,19.251,0h0a17.287,17.287,0,0,0,6.63-7.6,18.14,18.14,0,0,0-4.04-5.631,17.254,17.254,0,0,0-5.682-3.6A18.325,18.325,0,0,0,27.913,29.9,17.454,17.454,0,0,0,21.246,37.538Z"/><path d="M37.621,43.832a6.175,6.175,0,0,1-3.147-.86,6.444,6.444,0,0,1-2.326-2.3,6.271,6.271,0,0,1-.369-5.607A6.279,6.279,0,0,1,35.14,31.7a6.185,6.185,0,0,1,2.436-.492A6.292,6.292,0,0,1,43.865,37.5,6.2,6.2,0,0,1,42.05,41.96h0A5.978,5.978,0,0,1,37.621,43.832Zm-.045-11.625a5.181,5.181,0,0,0-2.043.412A5.276,5.276,0,0,0,32.7,35.454a5.274,5.274,0,0,0,.309,4.705,5.473,5.473,0,0,0,1.971,1.949,5.189,5.189,0,0,0,2.644.724,4.944,4.944,0,0,0,3.713-1.568h0A5.167,5.167,0,0,0,42.865,37.5a5.291,5.291,0,0,0-5.289-5.289Z"/></svg>