<svg id="Layer_1" data-name="Layer 1" xmlns="http://www.w3.org/2000/svg" width="75" height="75" viewBox="0 0 75 75"><title>facebook--75x75</title><g id="UI-library"><g id="icons"><g id="social"><g id="_07_icons_04_social_facebook" data-name="07_icons/04_social/facebook"><g id="icon-facebook"><path d="M51.921,53H43.926V40.315h3.612l.494-3.579H43.685V33.4c0-1.262.308-2.711,2.71-2.711h1.869V27.557l-.359-.025c-.68-.047-1.613-.111-2.615-.111-3.395,0-5.342,2-5.342,5.5v3.815H36v3.579h3.948V53H25.079A2.084,2.084,0,0,1,23,50.921V24.079A2.19,2.19,0,0,1,25.079,22H51.921A2.191,2.191,0,0,1,54,24.079V50.921A2.084,2.084,0,0,1,51.921,53Zm-6.995-1h6.995A1.082,1.082,0,0,0,53,50.921V24.079A1.2,1.2,0,0,0,51.921,23H25.079A1.2,1.2,0,0,0,24,24.079V50.921A1.081,1.081,0,0,0,25.079,52H38.948V41.315H35V35.736h3.948V32.921c0-4.01,2.43-6.5,6.342-6.5,1.037,0,1.989.065,2.684.114.355.025.63.044.79.044h.5v5.105H46.4c-1.455,0-1.71.551-1.71,1.711v2.341H49.18l-.771,5.579H44.926Z"/></g></g></g></g></g></svg>