<svg xmlns="http://www.w3.org/2000/svg" width="75" height="75" viewBox="0 0 75 75"><path d="M48.357,38.278l.017-.232h7.188V36.954H48.374l-.017-.232A10.936,10.936,0,0,0,38.278,26.643l-.232-.017V19.438H36.954v7.188l-.232.017A10.936,10.936,0,0,0,26.643,36.722l-.017.232H19.438v1.092h7.188l.017.232A10.936,10.936,0,0,0,36.722,48.357l.232.017v7.188h1.092V48.374l.232-.017A10.936,10.936,0,0,0,48.357,38.278ZM37.5,47.3a9.8,9.8,0,1,1,9.8-9.8A9.816,9.816,0,0,1,37.5,47.3Z"/><circle cx="37.5" cy="37.5" r="2.935"/></svg>