<?xml version="1.0" encoding="utf-8"?>
<!-- Generator: Adobe Illustrator 18.0.0, SVG Export Plug-In . SVG Version: 6.00 Build 0)  -->
<!DOCTYPE svg PUBLIC "-//W3C//DTD SVG 1.1//EN" "http://www.w3.org/Graphics/SVG/1.1/DTD/svg11.dtd">
<svg version="1.1" id="OV_tram_metro_bus" xmlns="http://www.w3.org/2000/svg" xmlns:xlink="http://www.w3.org/1999/xlink" x="0px"
	 y="0px" width="75px" height="75px" viewBox="0 0 75 75" enable-background="new 0 0 75 75" xml:space="preserve">
<path d="M37.483,30.032c-1.989,0-3.804,0.803-5.13,2.164c-1.326,1.396-2.164,3.245-2.164,5.304s0.837,3.908,2.164,5.269
	c1.326,1.361,3.141,2.198,5.13,2.198c2.059,0,3.873-0.837,5.199-2.198s2.129-3.21,2.129-5.269s-0.803-3.908-2.129-5.304
	C41.356,30.835,39.541,30.032,37.483,30.032z M37.483,55.366c-4.781,0-9.177-2.024-12.353-5.269C21.954,46.887,20,42.42,20,37.5
	s1.954-9.387,5.13-12.632c3.175-3.21,7.572-5.234,12.353-5.234c4.85,0,9.177,2.024,12.388,5.234C53.046,28.113,55,32.58,55,37.5
	s-1.954,9.387-5.13,12.597C46.66,53.342,42.333,55.366,37.483,55.366z"/>
</svg>
