<?xml version="1.0" encoding="utf-8"?>
<!-- Generator: Adobe Illustrator 19.0.1, SVG Export Plug-In . SVG Version: 6.00 Build 0)  -->
<svg version="1.1" id="OV_tram_metro_bus" xmlns="http://www.w3.org/2000/svg" xmlns:xlink="http://www.w3.org/1999/xlink" x="0px"
	 y="0px" width="75px" height="75px" viewBox="0 0 75 75" enable-background="new 0 0 75 75" xml:space="preserve">
<g>
	<g>
		<path d="M19.435,25.857c-1.496,0-2.958-0.763-3.785-2.136c-0.605-1.01-0.78-2.192-0.494-3.331
			c0.284-1.133,0.994-2.087,1.998-2.686c2.068-1.238,4.769-0.558,6.017,1.52l0,0c0.604,1.005,0.782,2.184,0.499,3.319
			c-0.282,1.135-0.991,2.092-1.995,2.695C20.973,25.658,20.199,25.857,19.435,25.857z M19.391,18.085
			c-0.589,0-1.185,0.154-1.725,0.477c-0.774,0.462-1.321,1.197-1.541,2.071c-0.222,0.879-0.086,1.792,0.382,2.572
			c0.965,1.604,3.055,2.132,4.652,1.175c0.774-0.465,1.321-1.203,1.539-2.079c0.219-0.876,0.081-1.786-0.386-2.562v0
			C21.675,18.676,20.545,18.085,19.391,18.085z"/>
	</g>
	<g>
		<path d="M26.5,43.5c-0.276,0-0.5-0.224-0.5-0.5V32c0-1.598-1.471-3-3.146-3H22c-0.276,0-0.5-0.224-0.5-0.5S21.724,28,22,28h0.854
			C25.062,28,27,29.869,27,32v11C27,43.276,26.776,43.5,26.5,43.5z"/>
	</g>
	<g>
		<path d="M12.5,43.5c-0.276,0-0.5-0.224-0.5-0.5V32c0-2.206,1.768-4,3.94-4H17c0.276,0,0.5,0.224,0.5,0.5S17.276,29,17,29h-1.06
			C14.319,29,13,30.346,13,32v11C13,43.276,12.776,43.5,12.5,43.5z"/>
	</g>
	<g>
		<path d="M31.531,25.857c-1.495,0-2.958-0.763-3.785-2.137c-0.604-1.01-0.78-2.193-0.493-3.331
			c0.285-1.133,0.994-2.087,1.998-2.686c2.069-1.241,4.769-0.557,6.017,1.521c0.604,1.005,0.781,2.184,0.499,3.319
			c-0.283,1.135-0.991,2.092-1.995,2.695C33.07,25.658,32.296,25.857,31.531,25.857z M31.487,18.086
			c-0.589,0-1.184,0.153-1.724,0.477c-0.774,0.462-1.321,1.197-1.541,2.071c-0.222,0.879-0.086,1.792,0.381,2.572
			c0.967,1.604,3.055,2.13,4.653,1.175c0.774-0.465,1.321-1.203,1.539-2.079c0.219-0.876,0.081-1.786-0.386-2.562c0,0,0,0,0,0
			C33.771,18.676,32.642,18.086,31.487,18.086z"/>
	</g>
	<g>
		<path d="M38.5,43.5c-0.276,0-0.5-0.224-0.5-0.5V32c0-1.626-1.396-3-3.049-3H34c-0.276,0-0.5-0.224-0.5-0.5S33.724,28,34,28h0.951
			C37.146,28,39,29.832,39,32v11C39,43.276,38.776,43.5,38.5,43.5z"/>
	</g>
	<g>
		<path d="M43.629,25.857c-1.496,0-2.958-0.763-3.785-2.137c-0.604-1.01-0.78-2.193-0.494-3.331
			c0.285-1.133,0.995-2.087,1.998-2.686c2.067-1.238,4.769-0.558,6.017,1.52l0,0c0.604,1.005,0.782,2.184,0.5,3.319
			c-0.283,1.135-0.992,2.093-1.996,2.696C45.167,25.658,44.394,25.857,43.629,25.857z M43.585,18.085
			c-0.589,0-1.185,0.154-1.725,0.477c-0.773,0.462-1.32,1.197-1.54,2.071c-0.222,0.879-0.086,1.792,0.381,2.572
			c0.967,1.605,3.056,2.132,4.652,1.175c0.774-0.465,1.322-1.204,1.54-2.079c0.218-0.876,0.081-1.786-0.387-2.562v0
			C45.869,18.676,44.739,18.085,43.585,18.085z"/>
	</g>
	<g>
		<path d="M50.5,43.5c-0.276,0-0.5-0.224-0.5-0.5V32c0-1.654-1.324-3-2.951-3H46c-0.276,0-0.5-0.224-0.5-0.5S45.724,28,46,28h1.049
			C49.228,28,51,29.794,51,32v11C51,43.276,50.776,43.5,50.5,43.5z"/>
	</g>
	<g>
		<path d="M55.629,25.857c-1.496,0-2.958-0.763-3.785-2.137c-0.604-1.01-0.78-2.193-0.494-3.331
			c0.285-1.133,0.995-2.087,1.998-2.686c2.068-1.238,4.769-0.558,6.017,1.52l0,0c0.604,1.005,0.782,2.184,0.5,3.319
			c-0.283,1.135-0.992,2.093-1.996,2.696C57.167,25.658,56.394,25.857,55.629,25.857z M55.585,18.085
			c-0.589,0-1.185,0.154-1.725,0.477c-0.773,0.462-1.32,1.197-1.54,2.071c-0.222,0.879-0.086,1.792,0.381,2.572
			c0.967,1.605,3.056,2.132,4.652,1.175c0.774-0.465,1.322-1.204,1.54-2.079c0.218-0.876,0.081-1.786-0.387-2.562v0
			C57.869,18.676,56.739,18.085,55.585,18.085z"/>
	</g>
	<g>
		<path d="M62.5,43.5c-0.276,0-0.5-0.224-0.5-0.5V32c0-1.654-1.324-3-2.951-3H58c-0.276,0-0.5-0.224-0.5-0.5S57.724,28,58,28h1.049
			C61.228,28,63,29.794,63,32v11C63,43.276,62.776,43.5,62.5,43.5z"/>
	</g>
	<g>
		<path d="M23,43v15c0,0.276,0.224,0.5,0.5,0.5S24,58.276,24,58V43H23z"/>
		<path d="M15.5,58.5c0.276,0,0.5-0.224,0.5-0.5V43h-1v15C15,58.276,15.224,58.5,15.5,58.5z"/>
		<path d="M35,58c0,0.276,0.224,0.5,0.5,0.5S36,58.276,36,58V43h-1V58z"/>
		<path d="M47,58c0,0.276,0.224,0.5,0.5,0.5S48,58.276,48,58V43h-1V58z"/>
		<path d="M59,58c0,0.276,0.224,0.5,0.5,0.5S60,58.276,60,58V43h-1V58z"/>
	</g>
</g>
</svg>
