<?xml version="1.0" encoding="utf-8"?>
<!-- Generator: Adobe Illustrator 19.0.1, SVG Export Plug-In . SVG Version: 6.00 Build 0)  -->
<svg version="1.1" id="OV_tram_metro_bus" xmlns="http://www.w3.org/2000/svg" xmlns:xlink="http://www.w3.org/1999/xlink" x="0px"
	 y="0px" width="75px" height="75px" viewBox="0 0 75 75" enable-background="new 0 0 75 75" xml:space="preserve">
<g>
	<path d="M28.652,32.228V15.992h3.271v16.235H28.652z"/>
	<path d="M43.658,32.344c-5.59,0-8.813-3.039-8.813-8.28c0-5.056,3.247-8.188,8.512-8.188c1.484,0,2.227,0.116,4.013,0.72
		l-0.255,2.76c-1.16-0.604-2.157-0.882-3.433-0.882c-3.316,0-5.357,2.11-5.357,5.497c0,3.34,2.203,5.659,5.45,5.659
		c1.183,0,2.296-0.209,3.525-0.696l0.139,2.877C45.792,32.251,45.143,32.344,43.658,32.344z"/>
	<path d="M19.686,50.228l-0.02-1.662c-0.264,0.491-0.377,0.698-0.661,0.944c-0.623,0.586-1.474,0.869-2.437,0.869
		c-2.607,0-4.1-1.928-4.1-5.232c0-2.947,1.605-4.912,4.043-4.912c0.869,0,1.643,0.265,2.248,0.774
		c0.34,0.284,0.51,0.473,0.812,1.039c-0.057-0.283-0.057-0.566-0.076-0.868c-0.019-0.266-0.019-0.436-0.019-0.473v-4.761h2.531
		v11.429c0,0.453,0.019,1.285,0.038,1.682c0.019,0.85,0,0.623,0.037,1.171H19.686z M17.191,42.35c-1.303,0-2.097,1.115-2.097,2.929
		c0,1.87,0.869,3.099,2.21,3.099c1.304,0,2.211-1.209,2.211-2.985C19.516,43.559,18.59,42.35,17.191,42.35z"/>
	<path d="M24.863,38.629V36.23h2.625v2.398H24.863z M24.9,50.228v-9.823h2.551v9.823H24.9z"/>
	<path d="M35.253,42.672c-0.567,0-1.077,0.207-1.492,0.566c-0.661,0.604-0.888,1.284-0.888,2.947v4.042h-2.531V43.37
		c0-0.265-0.02-0.793-0.02-1.058c0-0.303,0-0.623-0.019-0.926c-0.019-0.189,0-0.51-0.019-0.736l-0.02-0.246h2.305l0.057,2.494
		c0.453-1.701,1.379-2.569,2.758-2.569c0.283,0,0.436,0.019,0.737,0.113v2.361C35.706,42.69,35.555,42.672,35.253,42.672z"/>
	<path d="M46.377,46.129h-6.594c0.113,1.529,1.229,2.455,2.891,2.455c1.001,0,1.852-0.264,3.079-1.001l0.038,2.21
		c-1.021,0.453-2.154,0.699-3.42,0.699c-3.211,0-5.1-1.908-5.1-5.176c0-3.174,1.852-5.176,4.741-5.176
		c2.739,0,4.421,1.851,4.421,4.893C46.434,45.278,46.414,45.656,46.377,46.129z M41.956,41.935c-1.228,0-2.06,0.926-2.21,2.437h4.27
		C43.996,42.842,43.24,41.935,41.956,41.935z"/>
	<path d="M52.951,50.303c-3.117,0-5.024-1.926-5.024-5.024c0-3.003,1.983-4.949,4.987-4.949c0.68,0,1.209,0.075,2.115,0.321
		l-0.188,2.04c-0.681-0.284-0.964-0.341-1.512-0.341c-1.662,0-2.776,1.191-2.776,2.967c0,1.719,1.114,2.871,2.814,2.871
		c0.661,0,1.001-0.057,1.757-0.396l0.113,2.135C54.18,50.228,53.745,50.303,52.951,50.303z"/>
	<path d="M61.133,50.303c-2.361,0-3.325-1.114-3.325-3.834V42.35h-1.852V40.48h1.87v-2.003l2.551-0.831v2.834h2.229v1.869h-2.229
		v3.57c0,0.643,0.037,1.039,0.094,1.342c0.133,0.623,0.643,1.001,1.36,1.001c0.265,0,0.454-0.019,0.888-0.132l0.076,1.983
		C62.039,50.266,61.718,50.303,61.133,50.303z"/>
</g>
</svg>
