<svg xmlns="http://www.w3.org/2000/svg" width="75" height="75" viewBox="0 0 75 75"><title>NS_icons-TDH</title><path d="M37.5,39.7,19.6,26.943a.5.5,0,1,1,.58-.814L37.5,38.475,54.822,26.129a.5.5,0,0,1,.58.814Z"/><path d="M55.408,23A2.6,2.6,0,0,1,58,25.592V48.408A2.6,2.6,0,0,1,55.408,51H19.592A2.6,2.6,0,0,1,17,48.408V25.592A2.6,2.6,0,0,1,19.592,23H55.408m0-1H19.592A3.592,3.592,0,0,0,16,25.592V48.408A3.592,3.592,0,0,0,19.592,52H55.408A3.592,3.592,0,0,0,59,48.408V25.592A3.592,3.592,0,0,0,55.408,22Z"/></svg>