<svg id="Layer_1" data-name="Layer 1" xmlns="http://www.w3.org/2000/svg" width="75" height="75" viewBox="0 0 75 75"><title>manual-recharge--75x75</title><path d="M62.293,41.119c-.479-.464-8.2-8.2-9.336-9.335V25a2,2,0,0,0-2-2h-21.6a9.6,9.6,0,0,1,.146,1H50.954a1,1,0,0,1,1,1v2H29.311a9.653,9.653,0,0,1-.285,1H51.954V43.982a1,1,0,0,1-1,1H48.316l-2.35-6.7a3.376,3.376,0,0,0-2-2.142V33.49a1.5,1.5,0,0,0-1.5-1.5h-2.5a3.759,3.759,0,0,0-2.627,1.415c-.152.154-5.357,5.364-5.451,5.458a2.859,2.859,0,0,1-1.941,1.114H27.481a.505.505,0,0,1-.5-.5V33.49a.505.505,0,0,1,.5-.5h2.047a2.5,2.5,0,1,0,0-1H27.481a1.5,1.5,0,0,0-1.5,1.5v5.992a1.5,1.5,0,0,0,1.5,1.5h2.5a3.724,3.724,0,0,0,2.627-1.415c.078-.081,5.366-5.369,5.451-5.458A2.8,2.8,0,0,1,40,32.995h2.469a.505.505,0,0,1,.5.5v2.463a4.3,4.3,0,0,0-.981.06,3.093,3.093,0,0,0-2.4,2.579,2.466,2.466,0,0,0-1.613-.607,2.5,2.5,0,1,0,2.066,3.9c.185.9.408,1.981.639,3.094H20a1,1,0,0,1-1-1V34.323a9.4,9.4,0,0,1-1-.167v9.826a2,2,0,0,0,2,2H40.889c.548,2.643,1.077,5.166,1.151,5.435a3.76,3.76,0,0,0,1.082,1.912c.1.093,4.99,4.99,4.99,4.99a.5.5,0,1,0,.737-.676l-.03-.03-5.005-5a2.788,2.788,0,0,1-.808-1.455c-.123-.447-1.8-8.591-2.435-11.672a2.122,2.122,0,0,1,1.606-2.479,2.3,2.3,0,0,1,2.843,1.575l.011.041L47.5,45.647a.5.5,0,0,0,.469.331h3a2,2,0,0,0,2-2V33.2c2.253,2.257,8.209,8.222,8.641,8.64a2.035,2.035,0,0,1,.353,1.661V57.957a.5.5,0,0,0,1,0V43.516A2.93,2.93,0,0,0,62.293,41.119ZM31.984,30.99a1.5,1.5,0,1,1-1.5,1.5A1.5,1.5,0,0,1,31.984,30.99Zm5.992,10.986a1.5,1.5,0,1,1,1.5-1.5,1.5,1.5,0,0,1-1.5,1.5Z"/><path d="M20.114,33.228A8.114,8.114,0,1,0,12,25.113a8.114,8.114,0,0,0,8.114,8.115h0M13,25.113a7.116,7.116,0,1,1,7.116,7.116h0A7.124,7.124,0,0,1,13,25.113"/><path d="M22.491,28.234a3.675,3.675,0,0,1-1.857.507,3.748,3.748,0,0,1-3.428-2.255h3.283l.518-1H16.93A3.521,3.521,0,0,1,16.89,25a3.739,3.739,0,0,1,.04-.507h4.576l.5-1h-4.8a3.727,3.727,0,0,1,5.62-1.521l.37-.726a4.526,4.526,0,0,0-6.832,2.247H15.015l-.5,1h1.627A4.784,4.784,0,0,0,16.09,25a4.238,4.238,0,0,0,.055.491H15.014l-.5,1h1.849A4.5,4.5,0,0,0,22.07,29.3c.143-.049.283-.1.42-.166v-.9Z"/></svg>