<?xml version="1.0" encoding="utf-8"?>
<!-- Generator: Adobe Illustrator 19.0.1, SVG Export Plug-In . SVG Version: 6.00 Build 0)  -->
<svg version="1.1" id="OV_tram_metro_bus" xmlns="http://www.w3.org/2000/svg" xmlns:xlink="http://www.w3.org/1999/xlink" x="0px"
	 y="0px" width="75px" height="75px" viewBox="0 0 75 75" enable-background="new 0 0 75 75" xml:space="preserve">
<g>
	<path d="M29.5,44c-0.128,0-0.256-0.049-0.354-0.146L28.293,43h-3.586l-0.854,0.854c-0.195,0.195-0.512,0.195-0.707,0
		s-0.195-0.512,0-0.707l1-1C24.24,42.053,24.367,42,24.5,42h4c0.133,0,0.26,0.053,0.354,0.146l1,1c0.195,0.195,0.195,0.512,0,0.707
		C29.756,43.951,29.628,44,29.5,44z"/>
</g>
<g>
	<path d="M28.5,47c-0.128,0-0.256-0.049-0.354-0.146L27.293,46h-4.586l-0.854,0.854c-0.195,0.195-0.512,0.195-0.707,0
		s-0.195-0.512,0-0.707l1-1C22.24,45.053,22.367,45,22.5,45h5c0.133,0,0.26,0.053,0.354,0.146l1,1c0.195,0.195,0.195,0.512,0,0.707
		C28.756,46.951,28.628,47,28.5,47z"/>
</g>
<g>
	<path d="M27.759,50.029c-0.111,0-0.222-0.036-0.314-0.111L26.312,49h-5.604l-0.854,0.854c-0.195,0.195-0.512,0.195-0.707,0
		s-0.195-0.512,0-0.707l1-1C20.24,48.053,20.367,48,20.5,48h5.988c0.114,0,0.226,0.039,0.314,0.111l1.271,1.029
		c0.215,0.174,0.248,0.489,0.074,0.703C28.049,49.966,27.904,50.029,27.759,50.029z"/>
</g>
<g>
	<path d="M18.5,55c-0.128,0-0.256-0.049-0.354-0.146l-1.5-1.5c-0.195-0.195-0.195-0.512,0-0.707l1.5-1.5
		C18.24,51.053,18.367,51,18.5,51h7c0.133,0,0.26,0.053,0.354,0.146l1,1c0.195,0.195,0.195,0.512,0,0.707s-0.512,0.195-0.707,0
		L25.293,52h-6.586l-1,1l1.146,1.146c0.195,0.195,0.195,0.512,0,0.707C18.756,54.951,18.628,55,18.5,55z"/>
</g>
<g>
	<path d="M46,63h-2.5c-0.133,0-0.26-0.053-0.354-0.146l-1.75-1.75c-0.195-0.195-0.195-0.512,0-0.707L42,59.793v-4.608L39.271,52
		h-7.563l-3.854,3.854C27.76,55.947,27.633,56,27.5,56H21c-0.276,0-0.5-0.224-0.5-0.5S20.724,55,21,55h6.293l3.854-3.854
		C31.24,51.053,31.367,51,31.5,51h8c0.146,0,0.284,0.063,0.38,0.175l3,3.5C42.957,54.766,43,54.881,43,55v5
		c0,0.133-0.053,0.26-0.146,0.354l-0.396,0.396l1.25,1.25h2.112L47,61.016v-2.799l-1.716-1.602
		c-0.098-0.091-0.155-0.218-0.159-0.352s0.047-0.263,0.139-0.359L48,53.049V47c0-0.127,0.049-0.25,0.136-0.343L56,38.302v-4.595
		l-1.854-1.854c-0.195-0.195-0.195-0.512,0-0.707L56,29.293V26.5c0-0.133,0.053-0.26,0.146-0.354L58,24.293v-3.563L54.815,18H44.707
		L41,21.707v4.586l1.854,1.854C42.947,28.24,43,28.367,43,28.5V30c0,0.128-0.049,0.251-0.137,0.344l-4.25,4.5
		C38.52,34.943,38.388,35,38.25,35H35.5c-0.276,0-0.5-0.224-0.5-0.5V30c0-0.133,0.053-0.26,0.146-0.354l1.396-1.396L34.293,26H32
		v7.5c0,0.133-0.053,0.26-0.146,0.354L26,39.707V40.5c0,0.276-0.224,0.5-0.5,0.5S25,40.776,25,40.5v-1
		c0-0.133,0.053-0.26,0.146-0.354L31,33.293V25.5c0-0.276,0.224-0.5,0.5-0.5h3c0.133,0,0.26,0.053,0.354,0.146l2.75,2.75
		c0.195,0.195,0.195,0.512,0,0.707L36,30.207V34h2.034L42,29.801v-1.094l-1.854-1.854C40.053,26.76,40,26.633,40,26.5v-5
		c0-0.133,0.053-0.26,0.146-0.354l4-4C44.24,17.053,44.367,17,44.5,17H55c0.119,0,0.234,0.043,0.325,0.12l3.5,3
		C58.937,20.216,59,20.354,59,20.5v4c0,0.133-0.053,0.26-0.146,0.354L57,26.707V29.5c0,0.133-0.053,0.26-0.146,0.354L55.207,31.5
		l1.646,1.646C56.947,33.24,57,33.367,57,33.5v5c0,0.127-0.049,0.25-0.136,0.343L49,47.198v6.052c0,0.129-0.05,0.253-0.139,0.346
		l-2.524,2.635l1.504,1.404C47.942,57.729,48,57.861,48,58v3.25c0,0.148-0.065,0.289-0.18,0.384l-1.5,1.25
		C46.23,62.959,46.117,63,46,63z"/>
</g>
<g>
	<path d="M33.5,24c-0.128,0-0.256-0.049-0.354-0.146l-1-1c-0.195-0.195-0.195-0.512,0-0.707l1-1C33.24,21.053,33.367,21,33.5,21h1
		c0.276,0,0.5,0.224,0.5,0.5S34.776,22,34.5,22h-0.793l-0.5,0.5l0.646,0.646c0.195,0.195,0.195,0.512,0,0.707
		C33.756,23.951,33.628,24,33.5,24z"/>
</g>
<g>
	<path d="M34.5,20c-0.128,0-0.256-0.049-0.354-0.146c-0.195-0.195-0.195-0.512,0-0.707l1.5-1.5c0.195-0.195,0.512-0.195,0.707,0
		s0.195,0.512,0,0.707l-1.5,1.5C34.756,19.951,34.628,20,34.5,20z"/>
</g>
<g>
	<path d="M37.5,17.5c-0.198,0-0.386-0.119-0.464-0.314c-0.103-0.256,0.021-0.547,0.278-0.649l2.5-1
		c0.256-0.104,0.547,0.021,0.649,0.278c0.103,0.256-0.021,0.547-0.278,0.649l-2.5,1C37.625,17.488,37.562,17.5,37.5,17.5z"/>
</g>
<g>
	<path d="M45,16h-2c-0.276,0-0.5-0.224-0.5-0.5S42.724,15,43,15h2c0.276,0,0.5,0.224,0.5,0.5S45.276,16,45,16z"/>
</g>
<g>
	<path d="M50,16h-2c-0.276,0-0.5-0.224-0.5-0.5S47.724,15,48,15h2c0.276,0,0.5,0.224,0.5,0.5S50.276,16,50,16z"/>
</g>
</svg>
