<svg xmlns="http://www.w3.org/2000/svg" width="75" height="75" viewBox="0 0 75 75"><title>ns</title><path d="M59.853,36.994c-.5-.5-8.612-8.314-9.853-9.51V22a2,2,0,0,0-2-2H16a2,2,0,0,0-2,2V41a2,2,0,0,0,2,2H37.533c.487,2.343.917,4.389.984,4.633a4.852,4.852,0,0,0,1.129,2.221l5,5a.5.5,0,1,0,.708-.706l-5-5a3.987,3.987,0,0,1-.871-1.778c-.126-.462-1.857-8.851-2.509-12.026a2.2,2.2,0,0,1,1.666-2.569,2.373,2.373,0,0,1,2.953,1.672l2.729,8.212a.5.5,0,0,0,.444.34H48a2,2,0,0,0,2-2V28.873c2.328,2.243,8.718,8.4,9.146,8.829A2.039,2.039,0,0,1,60,39.5v15a.5.5,0,0,0,1,0v-15A3.007,3.007,0,0,0,59.853,36.994ZM15,22a1,1,0,0,1,1-1H48a1,1,0,0,1,1,1v2H15ZM48,42H45.157l-2.62-7.883a3.391,3.391,0,0,0-4.081-2.326,3.21,3.21,0,0,0-2.466,3.735c.051.248.7,3.431,1.336,6.474H16a1,1,0,0,1-1-1V25H49V41A1,1,0,0,1,48,42Z"/><path d="M26.649,29.6a.5.5,0,0,1-.5-.5V27.6a.5.5,0,1,1,1,0v1.5A.5.5,0,0,1,26.649,29.6Z"/><path d="M26.649,39.9a.5.5,0,0,1-.5-.5V34.909a.5.5,0,0,1,1,0V39.4A.5.5,0,0,1,26.649,39.9Z"/><path d="M27.35,31.5a.5.5,0,0,1,0,1h-1.4a.5.5,0,0,1,0-1h1.4m0-1h-1.4a1.5,1.5,0,1,0,0,3h1.4a1.5,1.5,0,1,0,0-3Z"/><path d="M37.85,30.9a.5.5,0,0,1-.5-.5V27.6a.5.5,0,1,1,1,0v2.8A.5.5,0,0,1,37.85,30.9Z"/><path d="M32.25,39.9a.5.5,0,0,1-.5-.5V37.909a.5.5,0,0,1,1,0V39.4A.5.5,0,0,1,32.25,39.9Z"/><path d="M32.25,32.6a.5.5,0,0,1-.5-.5V27.6a.5.5,0,0,1,1,0v4.5A.5.5,0,0,1,32.25,32.6Z"/><path d="M32.95,34.509a.5.5,0,0,1,0,1h-1.4a.5.5,0,0,1,0-1h1.4m0-1h-1.4a1.5,1.5,0,0,0,0,3h1.4a1.5,1.5,0,0,0,0-3Z"/></svg>