<svg id="Layer_1" data-name="Layer 1" xmlns="http://www.w3.org/2000/svg" width="75" height="75" viewBox="0 0 75 75"><title>ns-logo--75x75</title><path d="M34.612,37.14a4.989,4.989,0,0,0-3.519-1.44H21.348l3.609-3.6h9.114a1.449,1.449,0,0,1,.99.45l5.324,5.31A4.989,4.989,0,0,0,43.9,39.3h9.748L50.04,42.9H40.929a1.449,1.449,0,0,1-.99-.45Zm2.8,7.83a5.486,5.486,0,0,0,3.519,1.53H51.486l9.024-9-9.024-9H46.433l7.219,7.2H43.907a1.893,1.893,0,0,1-.99-.36L37.59,30.03a5.486,5.486,0,0,0-3.519-1.53H23.514l-9.024,9,9.024,9h5.053l-7.219-7.2h9.745a1.893,1.893,0,0,1,.99.36Z"/></svg>