<?xml version="1.0" encoding="utf-8"?>
<!-- Generator: Adobe Illustrator 19.0.1, SVG Export Plug-In . SVG Version: 6.00 Build 0)  -->
<svg version="1.1" id="OV_tram_metro_bus" xmlns="http://www.w3.org/2000/svg" xmlns:xlink="http://www.w3.org/1999/xlink" x="0px"
	 y="0px" width="75px" height="75px" viewBox="0 0 75 75" enable-background="new 0 0 75 75" xml:space="preserve">
<g>
	<path fill="none" d="M53,18H22c-2.206,0-4,1.794-4,4v31c0,2.206,1.794,4,4,4h31c2.206,0,4-1.794,4-4V22C57,19.794,55.206,18,53,18z
		 M25.5,37.5c0-0.276,0.224-0.5,0.5-0.5h19.665L34.696,26.031h1.414L47.579,37.5L36.11,48.969h-1.414L45.665,38H26
		C25.724,38,25.5,37.776,25.5,37.5z"/>
	<path d="M45.665,38L34.696,48.969h1.414L47.579,37.5L36.11,26.031h-1.414L45.665,37H26c-0.276,0-0.5,0.224-0.5,0.5S25.724,38,26,38
		H45.665z"/>
	<path d="M53,17H22c-2.761,0-5,2.239-5,5v31c0,2.761,2.239,5,5,5h31c2.761,0,5-2.239,5-5V22C58,19.239,55.761,17,53,17z M57,53
		c0,2.206-1.794,4-4,4H22c-2.206,0-4-1.794-4-4V22c0-2.206,1.794-4,4-4h31c2.206,0,4,1.794,4,4V53z"/>
</g>
</svg>
