<?xml version="1.0" encoding="utf-8"?>
<!-- Generator: Adobe Illustrator 19.0.1, SVG Export Plug-In . SVG Version: 6.00 Build 0)  -->
<svg version="1.1" id="OV_tram_metro_bus" xmlns="http://www.w3.org/2000/svg" xmlns:xlink="http://www.w3.org/1999/xlink" x="0px"
	 y="0px" width="75px" height="75px" viewBox="0 0 75 75" enable-background="new 0 0 75 75" xml:space="preserve">
<g>
	<path fill="none" d="M38.302,33.594l-1.469-1.475C36.763,32.047,36.664,32,36.556,32h-2.527l-0.997,1h2.689
		c0.381,0,0.727,0.15,0.978,0.398l1.471,1.476C38.242,34.946,38.34,35,38.448,35h2.527l0.996-1h-2.691
		C38.899,34,38.553,33.842,38.302,33.594z"/>
	<path fill="none" d="M58.5,20h-42c-0.276,0-0.5,0.225-0.5,0.5v26c0,0.275,0.224,0.5,0.5,0.5h42c0.276,0,0.5-0.225,0.5-0.5v-26
		C59,20.225,58.776,20,58.5,20z M41.387,36h-2.938c-0.383,0-0.73-0.168-0.981-0.421l-1.471-1.47C35.925,34.041,35.829,34,35.722,34
		h-2.69l1.993,2h-1.409l-2.491-2.499L33.616,31h2.94c0.384,0,0.732,0.161,0.983,0.414l1.467,1.472
		C39.077,32.955,39.174,33,39.281,33h2.689l-1.993-2h1.409l2.491,2.5L41.387,36z"/>
	<path d="M39.978,31l1.993,2h-2.689c-0.107,0-0.204-0.045-0.275-0.114l-1.467-1.472C37.287,31.161,36.94,31,36.556,31h-2.94
		l-2.491,2.501L33.616,36h1.409l-1.993-2h2.69c0.107,0,0.203,0.041,0.275,0.11l1.471,1.47C37.719,35.832,38.066,36,38.449,36h2.938
		l2.49-2.5L41.387,31H39.978z M40.975,35h-2.527c-0.108,0-0.206-0.054-0.277-0.126L36.7,33.398C36.449,33.15,36.103,33,35.722,33
		h-2.689l0.997-1h2.527c0.109,0,0.207,0.047,0.277,0.119l1.469,1.475C38.553,33.842,38.899,34,39.281,34h2.691L40.975,35z"/>
	<path d="M58.5,19h-42c-0.827,0-1.5,0.673-1.5,1.5v26c0,0.827,0.673,1.5,1.5,1.5h42c0.827,0,1.5-0.673,1.5-1.5v-26
		C60,19.673,59.327,19,58.5,19z M59,46.5c0,0.275-0.224,0.5-0.5,0.5h-42c-0.276,0-0.5-0.225-0.5-0.5v-26c0-0.275,0.224-0.5,0.5-0.5
		h42c0.276,0,0.5,0.225,0.5,0.5V46.5z"/>
	<path d="M34,52.5c0,0.275-0.224,0.5-0.5,0.5H31v1h2.5c0.827,0,1.5-0.673,1.5-1.5V49h-1V52.5z"/>
	<path d="M41,52.5V49h-1v3.5c0,0.827,0.673,1.5,1.5,1.5H44v-1h-2.5C41.224,53,41,52.775,41,52.5z"/>
</g>
</svg>
