<?xml version="1.0" encoding="utf-8"?>
<!-- Generator: Adobe Illustrator 19.0.1, SVG Export Plug-In . SVG Version: 6.00 Build 0)  -->
<svg version="1.1" id="OV_tram_metro_bus" xmlns="http://www.w3.org/2000/svg" xmlns:xlink="http://www.w3.org/1999/xlink" x="0px"
	 y="0px" width="75px" height="75px" viewBox="0 0 75 75" enable-background="new 0 0 75 75" xml:space="preserve">
<g>
	<circle fill="none" cx="35" cy="37.5" r="1.5"/>
	<path fill="none" d="M49,22c0-0.551-0.449-1-1-1H17c-0.551,0-1,0.449-1,1v2h33V22z"/>
	<circle fill="none" cx="29" cy="29.5" r="1.5"/>
	<path fill="none" d="M16,25v16c0,0.551,0.449,1,1,1h20.709c-0.231-1.114-0.454-2.198-0.64-3.098C36.62,39.565,35.861,40,35,40
		c-1.381,0-2.5-1.119-2.5-2.5c0-1.381,1.119-2.5,2.5-2.5c0.62,0,1.179,0.234,1.616,0.607c0.213-1.378,1.273-2.371,2.403-2.582
		c0.344-0.063,0.668-0.074,0.982-0.06V30.5c0-0.271-0.229-0.5-0.5-0.5h-2.469c-0.865,0-1.462,0.618-1.943,1.115
		c-0.085,0.088-0.166,0.171-0.24,0.244l-0.004,0.004c-0.033,0.033-0.217,0.216-0.491,0.49l0,0c-0.616,0.616-1.14,1.14-1.609,1.608
		c-1.17,1.17-2.391,2.392-2.391,2.392l-0.028-0.028c-0.23,0.211-0.406,0.361-0.544,0.465l0.067,0.069
		c-0.068,0.066-0.14,0.141-0.218,0.221c-0.542,0.561-1.36,1.403-2.63,1.417V38h-0.031H26h-1.5c-0.825,0-1.5-0.675-1.5-1.5v-6
		c0-0.825,0.675-1.5,1.5-1.5h2.05c0.232-1.141,1.24-2,2.45-2c1.381,0,2.5,1.119,2.5,2.5c0,1.381-1.119,2.5-2.5,2.5
		c-1.209,0-2.218-0.859-2.45-2H24.5c-0.271,0-0.5,0.229-0.5,0.5v6c0,0.271,0.229,0.5,0.5,0.5h2.469c0.865,0,1.462-0.618,1.943-1.115
		c0.085-0.088,0.166-0.171,0.24-0.244l0.004-0.004c0.033-0.033,0.217-0.216,0.491-0.49l0,0c0.616-0.616,1.14-1.14,1.609-1.608
		c1.17-1.17,2.391-2.392,2.391-2.392l0.028,0.028c0.23-0.211,0.406-0.361,0.544-0.465l-0.067-0.069
		c0.068-0.066,0.14-0.141,0.218-0.221c0.542-0.561,1.36-1.403,2.63-1.417V29h0.031H38h1.5c0.825,0,1.5,0.675,1.5,1.499v2.651
		c0.906,0.328,1.602,1.053,2.001,2.145L45.354,42H48c0.551,0,1-0.449,1-1V25H16z"/>
	<path d="M59.348,38.141c-0.48-0.465-8.212-8.209-9.348-9.347V22c0-1.105-0.895-2-2-2H17c-1.105,0-2,0.895-2,2v2v1v16
		c0,1.105,0.895,2,2,2h20.916c0.549,2.646,1.078,5.173,1.152,5.442c0.237,0.864,0.554,1.421,1.083,1.915
		c0.095,0.093,4.996,4.996,4.996,4.996c0.098,0.098,0.226,0.146,0.354,0.146s0.256-0.049,0.354-0.146
		c0.195-0.195,0.195-0.512,0-0.707c-4.983-4.984-5.004-5.004-5.012-5.012c-0.401-0.374-0.62-0.769-0.809-1.457
		c-0.123-0.448-1.804-8.602-2.438-11.687c-0.217-1.308,0.666-2.306,1.608-2.482c1.404-0.264,2.368,0.286,2.858,1.624l2.468,7.033
		c0.072,0.206,0.265,0.331,0.47,0.331L45,43h3c1.105,0,2-0.895,2-2V30.209c2.256,2.26,8.22,8.233,8.652,8.651
		c0.36,0.349,0.369,0.786,0.353,1.663L59,55c0,0.276,0.224,0.5,0.5,0.5S60,55.276,60,55V41l0.005-0.46
		C60.021,39.649,60.036,38.807,59.348,38.141z M16,22c0-0.551,0.449-1,1-1h31c0.551,0,1,0.449,1,1v2H16V22z M33.5,37.5
		c0-0.827,0.673-1.5,1.5-1.5c0.827,0,1.5,0.673,1.5,1.5S35.827,39,35,39C34.173,39,33.5,38.327,33.5,37.5z M49,41
		c0,0.551-0.449,1-1,1h-2.646l-2.353-6.705c-0.399-1.091-1.096-1.817-2.001-2.145v-2.651C41,29.675,40.325,29,39.5,29H38h-0.969H37
		v0.003c-1.27,0.014-2.082,0.863-2.63,1.417c-0.152,0.154-5.364,5.371-5.458,5.465C28.421,36.372,27.833,37,26.969,37H24.5
		c-0.271,0-0.5-0.229-0.5-0.5v-6c0-0.271,0.229-0.5,0.5-0.5h2.05c0.232,1.141,1.24,2,2.45,2c1.381,0,2.5-1.119,2.5-2.5
		c0-1.381-1.119-2.5-2.5-2.5c-1.209,0-2.218,0.859-2.45,2H24.5c-0.825,0-1.5,0.675-1.5,1.5v6c0,0.825,0.675,1.5,1.5,1.5H26h0.969H27
		v-0.003c1.27-0.014,2.088-0.857,2.63-1.417c0.078-0.081,5.373-5.376,5.458-5.465C35.569,30.618,36.167,30,37.031,30H39.5
		c0.271,0,0.5,0.229,0.5,0.5v2.466c-0.313-0.014-0.637-0.003-0.982,0.06c-1.13,0.211-2.19,1.204-2.403,2.582
		C36.179,35.234,35.62,35,35,35c-1.381,0-2.5,1.119-2.5,2.5c0,1.381,1.119,2.5,2.5,2.5c0.861,0,1.62-0.435,2.069-1.098
		c0.185,0.9,0.409,1.984,0.64,3.098H17c-0.551,0-1-0.449-1-1V25h33V41z M30.5,29.5c0,0.827-0.673,1.5-1.5,1.5
		c-0.827,0-1.5-0.673-1.5-1.5S28.173,28,29,28C29.827,28,30.5,28.673,30.5,29.5z"/>
</g>
</svg>
