<?xml version="1.0" encoding="utf-8"?>
<!-- Generator: Adobe Illustrator 19.0.1, SVG Export Plug-In . SVG Version: 6.00 Build 0)  -->
<svg version="1.1" id="OV_tram_metro_bus" xmlns="http://www.w3.org/2000/svg" xmlns:xlink="http://www.w3.org/1999/xlink" x="0px"
	 y="0px" width="75px" height="75px" viewBox="0 0 75 75" enable-background="new 0 0 75 75" xml:space="preserve">
<g>
	<g>
		<polygon points="35.012,34.811 37.898,34.811 47.992,43.551 58.086,34.811 60.973,34.811 49.402,45.078 46.584,45.078 		"/>
		<g>
			<g>
				<path fill-rule="evenodd" clip-rule="evenodd" d="M26.071,32.268c-5.926,0-10.73,4.805-10.73,10.73
					c0,5.926,4.805,10.73,10.73,10.73c5.929,0,10.731-4.805,10.731-10.73C36.803,37.072,32,32.268,26.071,32.268z M26.071,51.744
					c-4.83,0-8.746-3.916-8.746-8.746c0-4.832,3.916-8.746,8.746-8.746c4.833,0,8.749,3.916,8.749,8.746
					C34.82,47.828,30.904,51.744,26.071,51.744z"/>
			</g>
		</g>
		<path fill-rule="evenodd" clip-rule="evenodd" d="M35.236,33.35l1.844-9.471h1.752l-1.85,9.471H35.236z M37.414,22.162
			l0.342-1.717H39.5l-0.332,1.717H37.414z M47.578,32.398c-1.469,0.778-2.852,1.168-4.148,1.168c-0.976,0-1.726-0.291-2.261-0.873
			c-0.532-0.58-0.798-1.371-0.798-2.371c0-1.087,0.244-2.137,0.735-3.155c0.488-1.018,1.152-1.852,1.995-2.511
			c0.838-0.658,1.748-0.986,2.734-0.986c0.684,0,1.207,0.168,1.57,0.496c0.363,0.332,0.547,0.799,0.547,1.397
			c0,0.714-0.223,1.371-0.67,1.974c-0.445,0.602-1.111,1.113-1.998,1.529c-0.887,0.419-1.957,0.682-3.224,0.785
			c0,0.807,0.172,1.402,0.516,1.779c0.345,0.379,0.794,0.566,1.347,0.566c0.438,0,1.025-0.119,1.764-0.354
			c0.736-0.236,1.475-0.602,2.213-1.104L47.578,32.398z M42.218,28.57c1.019-0.099,1.8-0.269,2.341-0.507
			c0.547-0.237,0.975-0.557,1.289-0.955c0.316-0.396,0.475-0.78,0.475-1.146c0-0.232-0.094-0.449-0.277-0.647
			c-0.185-0.201-0.422-0.303-0.713-0.303c-0.395,0-0.783,0.129-1.176,0.386c-0.318,0.202-0.613,0.469-0.881,0.8
			c-0.217,0.262-0.404,0.547-0.573,0.859C42.536,27.367,42.376,27.873,42.218,28.57 M53.875,33.391
			c-0.398,0.117-0.772,0.176-1.111,0.176c-0.793,0-1.402-0.188-1.828-0.565c-0.426-0.38-0.637-0.858-0.637-1.441
			c0-0.373,0.051-0.827,0.152-1.369l0.978-5.021h-1.383l0.248-1.292h1.387l0.334-1.717l1.73-0.218l-0.375,1.935h2.357l-0.271,1.292
			h-2.338l-1.016,5.208c-0.096,0.479-0.144,0.797-0.144,0.951c0,0.245,0.084,0.465,0.25,0.655c0.168,0.192,0.473,0.289,0.912,0.289
			c0.297,0,0.629-0.06,1.002-0.175L53.875,33.391z M55.555,32.844l0.283-1.447c1.166,0.586,2.139,0.878,2.92,0.878
			c0.471,0,0.842-0.112,1.111-0.339c0.268-0.226,0.4-0.521,0.4-0.881c0-0.229-0.055-0.433-0.162-0.613
			c-0.109-0.185-0.314-0.438-0.625-0.766l-0.777-0.809c-0.656-0.686-1.066-1.209-1.238-1.566c-0.172-0.357-0.256-0.707-0.256-1.05
			c0-0.604,0.262-1.185,0.785-1.745c0.521-0.557,1.326-0.836,2.408-0.836c0.324,0,0.658,0.023,1.002,0.074
			c0.346,0.052,0.877,0.209,1.594,0.477l-0.283,1.447c-0.699-0.337-1.203-0.538-1.512-0.603c-0.307-0.069-0.604-0.102-0.885-0.102
			c-0.494,0-0.852,0.109-1.082,0.326c-0.23,0.218-0.348,0.476-0.348,0.78c0,0.196,0.053,0.39,0.154,0.574
			c0.104,0.186,0.359,0.491,0.77,0.916l0.846,0.873c0.469,0.482,0.799,0.907,0.996,1.279c0.195,0.372,0.295,0.776,0.295,1.211
			c0,0.786-0.301,1.423-0.896,1.911c-0.6,0.488-1.408,0.732-2.434,0.732c-0.297,0-0.605-0.023-0.926-0.075
			c-0.322-0.047-0.631-0.114-0.928-0.198C56.475,33.206,56.068,33.058,55.555,32.844"/>
		<path fill-rule="evenodd" clip-rule="evenodd" d="M25.185,42.455l2.918-14.973h-1.949l0.33-1.666h1.941l0.109-0.551
			c0.319-1.668,0.841-3.051,2.083-4.121c0.461-0.399,0.996-0.723,1.492-0.891C32.588,20.092,33.199,20,34.012,20
			c0.627,0,1.18,0.111,1.914,0.338L35.6,21.969c-0.523-0.215-1.092-0.331-1.922-0.331c-0.77,0-1.404,0.341-1.957,0.966
			c-0.553,0.629-0.98,1.623-1.234,2.982l-0.045,0.231h3.299l-0.33,1.666h-3.291l-2.927,14.973H25.185z"/>
	</g>
</g>
</svg>
