<?xml version="1.0" encoding="utf-8"?>
<!-- Generator: Adobe Illustrator 19.0.1, SVG Export Plug-In . SVG Version: 6.00 Build 0)  -->
<svg version="1.1" id="OV_tram_metro_bus" xmlns="http://www.w3.org/2000/svg" xmlns:xlink="http://www.w3.org/1999/xlink" x="0px"
	 y="0px" width="75px" height="75px" viewBox="0 0 75 75" enable-background="new 0 0 75 75" xml:space="preserve">
<g>
	<path fill="none" d="M28,31h-3v6h3c0.125,0,3.062-0.034,3.062-3S28.125,31,28,31z"/>
	<path fill="none" d="M50.062,34c0-2.966-2.937-3-3.062-3h-3v6h3C47.125,37,50.062,36.966,50.062,34z"/>
	<path fill="none" d="M53.5,18h-32c-1.93,0-3.5,1.57-3.5,3.5v32c0,1.93,1.57,3.5,3.5,3.5h32c1.93,0,3.5-1.57,3.5-3.5v-32
		C57,19.57,55.43,18,53.5,18z M28,38h-3v7h-1V30h4c1.405,0,4.062,0.836,4.062,4S29.405,38,28,38z M39,38h-2v2h-1v-2h-2v-1h2v-2h1v2
		h2V38z M50.932,44.981l-3.647-6.992C47.185,37.996,47.09,38,47,38h-3v7h-1V30h4c1.405,0,4.062,0.836,4.062,4
		c0,2.324-1.434,3.39-2.752,3.793l3.508,6.726L50.932,44.981z"/>
	<path d="M53.5,17h-32c-2.481,0-4.5,2.019-4.5,4.5v32c0,2.481,2.019,4.5,4.5,4.5h32c2.481,0,4.5-2.019,4.5-4.5v-32
		C58,19.019,55.981,17,53.5,17z M57,53.5c0,1.93-1.57,3.5-3.5,3.5h-32c-1.93,0-3.5-1.57-3.5-3.5v-32c0-1.93,1.57-3.5,3.5-3.5h32
		c1.93,0,3.5,1.57,3.5,3.5V53.5z"/>
	<polygon points="37,35 36,35 36,37 34,37 34,38 36,38 36,40 37,40 37,38 39,38 39,37 37,37 	"/>
	<path d="M28,30h-4v15h1v-7h3c1.405,0,4.062-0.836,4.062-4S29.405,30,28,30z M28,37h-3v-6h3c0.125,0,3.062,0.034,3.062,3
		S28.125,37,28,37z"/>
	<path d="M51.062,34c0-3.164-2.657-4-4.062-4h-4v15h1v-7h3c0.09,0,0.185-0.004,0.285-0.011l3.647,6.992l0.887-0.463l-3.508-6.726
		C49.629,37.39,51.062,36.324,51.062,34z M44,37v-6h3c0.125,0,3.062,0.034,3.062,3S47.125,37,47,37H44z"/>
</g>
</svg>
