<?xml version="1.0" encoding="utf-8"?>
<!-- Generator: Adobe Illustrator 19.0.1, SVG Export Plug-In . SVG Version: 6.00 Build 0)  -->
<svg version="1.1" id="OV_tram_metro_bus" xmlns="http://www.w3.org/2000/svg" xmlns:xlink="http://www.w3.org/1999/xlink" x="0px"
	 y="0px" width="75px" height="75px" viewBox="0 0 75 75" enable-background="new 0 0 75 75" xml:space="preserve">
<g>
	<g>
		<circle cx="15" cy="38.25" r="0.75"/>
		<circle cx="20" cy="38.25" r="0.75"/>
		<path d="M21,27h-7c-1.104,0-2,0.895-2,2v1v6v4c0,1.105,0.896,2,2,2h7c1.104,0,2-0.895,2-2v-4v-6v-1C23,27.895,22.104,27,21,27z
			 M22,31v4h-1v-4H22z M20,35h-5v-4h5V35z M14,35h-1v-4h1V35z M22,40c0,0.551-0.448,1-1,1h-7c-0.552,0-1-0.449-1-1v-4h9V40z M13,30
			v-1c0-0.551,0.448-1,1-1h7c0.552,0,1,0.449,1,1v1H13z"/>
		<path d="M13.5,22h1.009c0,0.04-0.005,0.08,0.006,0.121L15.235,25h1.03l-0.75-3h3.97l-0.75,3h1.03l0.72-2.879
			c0.01-0.041,0.006-0.081,0.006-0.121H21.5c0.276,0,0.5-0.224,0.5-0.5c0-0.276-0.224-0.5-0.5-0.5h-8c-0.276,0-0.5,0.224-0.5,0.5
			C13,21.776,13.224,22,13.5,22z"/>
		<path d="M8.723,47.584c-0.23,0.153-0.292,0.463-0.139,0.693C8.68,48.422,8.839,48.5,9,48.5c0.095,0,0.191-0.027,0.277-0.084l6-4
			c0.144-0.096,0.213-0.255,0.214-0.416h-1.392L8.723,47.584z"/>
		<path d="M16.6,47.7c-0.166,0.221-0.121,0.534,0.1,0.7c0.09,0.067,0.195,0.1,0.299,0.1c0.152,0,0.302-0.069,0.4-0.2l3-4
			c0.068-0.09,0.092-0.195,0.092-0.3h-1.116L16.6,47.7z"/>
	</g>
	<g>
		<rect x="53" y="27" fill="none" width="9" height="8"/>
		<path fill="none" d="M63,27v8c0,0.552-0.448,1-1,1h-9c-0.552,0-1-0.448-1-1v-8c-0.552,0-1,0.449-1,1v12c0,0.551,0.448,1,1,1h11
			c0.552,0,1-0.449,1-1V28C64,27.449,63.552,27,63,27z M54.5,39.5c-0.552,0-1-0.448-1-1c0-0.552,0.448-1,1-1s1,0.448,1,1
			C55.5,39.052,55.052,39.5,54.5,39.5z M60.5,39.5c-0.552,0-1-0.448-1-1c0-0.552,0.448-1,1-1s1,0.448,1,1
			C61.5,39.052,61.052,39.5,60.5,39.5z"/>
		<circle cx="54.5" cy="38.5" r="1"/>
		<circle cx="60.5" cy="38.5" r="1"/>
		<path d="M63,26H52c-1.104,0-2,0.895-2,2v12c0,1.105,0.896,2,2,2h11c1.104,0,2-0.895,2-2V28C65,26.895,64.104,26,63,26z M62,27v8
			h-9v-8H62z M64,40c0,0.551-0.448,1-1,1H52c-0.552,0-1-0.449-1-1V28c0-0.551,0.448-1,1-1v8c0,0.552,0.448,1,1,1h9
			c0.552,0,1-0.448,1-1v-8c0.552,0,1,0.449,1,1V40z"/>
		<path d="M48.5,29c-0.276,0-0.5,0.224-0.5,0.5V32c0,0.276,0.224,0.5,0.5,0.5S49,32.276,49,32v-2.5C49,29.224,48.776,29,48.5,29z"/>
		<path d="M52.75,45h0.5c0.414,0,0.75-0.336,0.75-0.75V43h-2v1.25C52,44.664,52.336,45,52.75,45z"/>
		<path d="M61.75,45h0.5c0.414,0,0.75-0.336,0.75-0.75V43h-2v1.25C61,44.664,61.336,45,61.75,45z"/>
	</g>
	<g>
		<rect x="32" y="27" fill="none" width="4" height="7"/>
		<rect x="32" y="25" fill="none" width="9" height="1"/>
		<rect x="37" y="27" fill="none" width="4" height="7"/>
		<path fill="none" d="M31,41h11c0.552,0,1-0.449,1-1V28c0-0.551-0.448-1-1-1v7c0,0.552-0.448,1-1,1h-9c-0.552,0-1-0.448-1-1v-7
			c-0.552,0-1,0.449-1,1v12C30,40.551,30.448,41,31,41z M39.5,36.5c0.552,0,1,0.448,1,1c0,0.552-0.448,1-1,1s-1-0.448-1-1
			C38.5,36.948,38.948,36.5,39.5,36.5z M33.5,36.5c0.552,0,1,0.448,1,1c0,0.552-0.448,1-1,1s-1-0.448-1-1
			C32.5,36.948,32.948,36.5,33.5,36.5z"/>
		<circle cx="33.5" cy="37.5" r="1"/>
		<circle cx="39.5" cy="37.5" r="1"/>
		<path d="M31,42h11c1.104,0,2-0.895,2-2V28c0-1.105-0.896-2-2-2v-1c0-0.552-0.448-1-1-1h-9c-0.552,0-1,0.448-1,1v1
			c-1.104,0-2,0.895-2,2v12C29,41.105,29.896,42,31,42z M32,25h9v1h-9V25z M32,27h4v7h-4V27z M37,27h4v7h-4V27z M30,28
			c0-0.551,0.448-1,1-1v7c0,0.552,0.448,1,1,1h9c0.552,0,1-0.448,1-1v-7c0.552,0,1,0.449,1,1v12c0,0.551-0.448,1-1,1H31
			c-0.552,0-1-0.449-1-1V28z"/>
		<path d="M30.833,51.061c0.055,0.02,0.111,0.029,0.167,0.029c0.206,0,0.398-0.128,0.471-0.333l2-5.64
			c0.014-0.039,0.013-0.078,0.017-0.117h-1.036l-1.923,5.423C30.437,50.683,30.573,50.969,30.833,51.061z"/>
		<path d="M39.529,45.117l2,5.64c0.073,0.205,0.266,0.333,0.471,0.333c0.056,0,0.112-0.009,0.167-0.029
			c0.26-0.092,0.396-0.378,0.304-0.638L40.548,45h-1.036C39.516,45.039,39.515,45.078,39.529,45.117z"/>
	</g>
</g>
</svg>
