<?xml version="1.0" encoding="utf-8"?>
<!-- Generator: Adobe Illustrator 19.0.1, SVG Export Plug-In . SVG Version: 6.00 Build 0)  -->
<svg version="1.1" id="OV_tram_metro_bus" xmlns="http://www.w3.org/2000/svg" xmlns:xlink="http://www.w3.org/1999/xlink" x="0px"
	 y="0px" width="75px" height="75px" viewBox="0 0 75 75" enable-background="new 0 0 75 75" xml:space="preserve">
<g>
	<path d="M26.832,38.694l3.369,3.416h-4.62l-1.105-1.119C23.33,41.7,21.978,42.11,20.53,42.11c-4.159,0-7.53-3.384-7.53-7.558
		c0-4.173,3.371-7.558,7.53-7.558c4.159,0,7.532,3.385,7.532,7.558C28.062,36.081,27.609,37.505,26.832,38.694L26.832,38.694z
		 M19.769,36.216h4.62l1.344,1.363c0.518-0.894,0.816-1.934,0.816-3.043c0-3.346-2.702-6.057-6.035-6.057s-6.036,2.711-6.036,6.057
		c0,3.344,2.703,6.056,6.036,6.056c1.034,0,2.007-0.261,2.858-0.721L19.769,36.216L19.769,36.216z"/>
	<path d="M31.881,37.505h0.834c1.759,0,2.752-0.895,2.752-2.729c0-1.96-1.176-2.682-2.98-2.682h-2.285v8.642h1.68V37.505
		L31.881,37.505z M31.881,33.492h0.297c0.938,0,1.577,0.161,1.577,1.272c0,1.123-0.537,1.342-1.531,1.342h-0.343V33.492
		L31.881,33.492z"/>
	<path d="M40.069,38.914l0.663,1.822h1.793l-3.267-8.872h-1.303l-3.358,8.872h1.771l0.708-1.822H40.069L40.069,38.914z
		 M39.601,37.538h-2.044l0.948-3.14h0.022L39.601,37.538L39.601,37.538z"/>
	<path d="M46.431,37.092c1.153-0.194,1.759-1.296,1.759-2.396c0-1.846-1.177-2.602-2.879-2.602h-2.273v8.642h1.68v-3.484h0.023
		l2.091,3.484h2.032L46.431,37.092L46.431,37.092z M44.717,33.469h0.228c0.892,0,1.565,0.206,1.565,1.273
		c0,1.055-0.651,1.33-1.577,1.33h-0.216V33.469L44.717,33.469z"/>
	<polygon points="51.111,35.739 51.088,35.739 51.088,32.095 49.409,32.095 49.409,40.736 51.088,40.736 51.088,36.851 
		51.111,36.851 53.863,40.736 56.022,40.736 52.573,36.083 55.84,32.095 53.772,32.095 51.111,35.739 	"/>
	<polygon points="66.683,36.218 62.062,36.218 56.251,42.112 60.87,42.112 66.683,36.218 	"/>
	<polygon points="56.27,42.11 51.65,42.11 45.838,48.005 50.458,48.005 56.27,42.11 	"/>
</g>
</svg>
