<svg xmlns="http://www.w3.org/2000/svg" width="75" height="75" viewBox="0 0 75 75"><title>__NS_icons-TDH</title><path d="M25.192,52.5c4.142,0,7.337-3.494,7.337-7.952,0-3.615-2.249-6.265-5.325-6.265a6.316,6.316,0,0,0-3.2.964c.355-6.386,4.379-11.084,11.479-13.494l-.71-3.253C23.772,25.994,17.5,33.223,17.5,42.259,17.5,48.283,20.7,52.5,25.192,52.5Z"/><path d="M47.323,52.5c4.142,0,7.337-3.494,7.337-7.952,0-3.615-2.249-6.265-5.444-6.265a6.275,6.275,0,0,0-3.077.964c.355-6.386,4.26-11.084,11.361-13.494L56.79,22.5C45.9,25.994,39.512,33.223,39.512,42.259,39.512,48.283,42.707,52.5,47.323,52.5Z"/></svg>