<?xml version="1.0" encoding="utf-8"?>
<!-- Generator: Adobe Illustrator 19.0.1, SVG Export Plug-In . SVG Version: 6.00 Build 0)  -->
<svg version="1.1" id="OV_tram_metro_bus" xmlns="http://www.w3.org/2000/svg" xmlns:xlink="http://www.w3.org/1999/xlink" x="0px"
	 y="0px" width="75px" height="75px" viewBox="0 0 75 75" enable-background="new 0 0 75 75" xml:space="preserve">
<g>
	<circle fill="none" cx="30.5" cy="27.5" r="0.5"/>
	<circle fill="none" cx="25.5" cy="23.5" r="0.5"/>
	<rect x="36" y="39" fill="none" width="17" height="1"/>
	<path fill="none" d="M21.5,31h13c0.827,0,1.5-0.673,1.5-1.5v-8c0-0.827-0.673-1.5-1.5-1.5h-13c-0.827,0-1.5,0.673-1.5,1.5v8
		C20,30.327,20.673,31,21.5,31z M22,24.5c0-0.827,0.673-1.5,1.5-1.5h0.592c0.207-0.581,0.757-1,1.408-1c0.827,0,1.5,0.673,1.5,1.5
		S26.327,25,25.5,25c-0.651,0-1.201-0.419-1.408-1H23.5c-0.275,0-0.5,0.225-0.5,0.5v2c0,0.275,0.225,0.5,0.5,0.5h1.299
		c0.34,0,0.672-0.117,0.937-0.328l3.904-3.124C30.08,23.194,30.635,23,31.201,23H32.5c0.827,0,1.5,0.673,1.5,1.5v2
		c0,0.827-0.673,1.5-1.5,1.5h-0.592c-0.207,0.581-0.757,1-1.408,1c-0.827,0-1.5-0.673-1.5-1.5s0.673-1.5,1.5-1.5
		c0.651,0,1.201,0.419,1.408,1H32.5c0.275,0,0.5-0.225,0.5-0.5v-2c0-0.275-0.225-0.5-0.5-0.5h-1.299
		c-0.34,0-0.672,0.117-0.937,0.328l-3.904,3.124C25.92,27.806,25.365,28,24.799,28H23.5c-0.827,0-1.5-0.673-1.5-1.5V24.5z"/>
	<circle fill="none" cx="46.5" cy="47.5" r="0.5"/>
	<path fill="none" d="M36,41v9h11.871c-0.117-0.504-0.232-1-0.33-1.424C47.271,48.837,46.905,49,46.5,49c-0.827,0-1.5-0.673-1.5-1.5
		s0.673-1.5,1.5-1.5c0.348,0,0.665,0.124,0.919,0.324c0.255-0.574,0.771-0.968,1.31-1.07c0.093-0.017,0.181-0.022,0.271-0.03V44.5
		c0-0.275-0.225-0.5-0.5-0.5h-1.172c-0.395,0-0.781,0.16-1.061,0.439l-2.828,2.828C42.967,47.74,42.34,48,41.672,48H40.5
		c-0.827,0-1.5-0.673-1.5-1.5v-2c0-0.827,0.673-1.5,1.5-1.5h0.592c0.207-0.581,0.757-1,1.408-1c0.827,0,1.5,0.673,1.5,1.5
		S43.327,45,42.5,45c-0.651,0-1.201-0.419-1.408-1H40.5c-0.275,0-0.5,0.225-0.5,0.5v2c0,0.275,0.225,0.5,0.5,0.5h1.172
		c0.395,0,0.781-0.16,1.061-0.439l2.828-2.828C46.033,43.26,46.66,43,47.328,43H48.5c0.827,0,1.5,0.673,1.5,1.5v0.87
		c0.487,0.21,0.864,0.621,1.085,1.225L52.348,50H53v-9H36z"/>
	<circle fill="none" cx="42.5" cy="43.5" r="0.5"/>
	<path d="M54,42.293V39c0-0.552-0.448-1-1-1H36c-0.552,0-1,0.448-1,1v11c0,0.552,0.448,1,1,1h12.104
		c0.208,0.893,0.382,1.632,0.414,1.746c0.135,0.493,0.326,0.827,0.631,1.111c0.069,0.068,2.998,2.996,2.998,2.996
		C52.244,56.951,52.372,57,52.5,57s0.256-0.049,0.354-0.146c0.195-0.195,0.195-0.512,0-0.707c-2.998-2.997-3.007-3.006-3.015-3.012
		c-0.151-0.142-0.258-0.294-0.356-0.653c-0.058-0.208-0.765-3.253-1.22-5.218c-0.09-0.542,0.269-0.955,0.65-1.027
		c0.821-0.15,1.095,0.329,1.233,0.705l1.385,3.732c0.075,0.201,0.264,0.322,0.467,0.323L52,51h1c0.552,0,1-0.448,1-1v-6.293l5,5
		V56.5c0,0.276,0.224,0.5,0.5,0.5s0.5-0.224,0.5-0.5v-8.207L54,42.293z M53,39v1H36v-1H53z M53,50h-0.652l-1.263-3.404
		c-0.221-0.604-0.598-1.015-1.085-1.225V44.5c0-0.827-0.673-1.5-1.5-1.5h-1.172c-0.668,0-1.295,0.26-1.768,0.732l-2.828,2.828
		C42.453,46.84,42.066,47,41.672,47H40.5c-0.275,0-0.5-0.225-0.5-0.5v-2c0-0.275,0.225-0.5,0.5-0.5h0.592
		c0.207,0.581,0.757,1,1.408,1c0.827,0,1.5-0.673,1.5-1.5S43.327,42,42.5,42c-0.651,0-1.201,0.419-1.408,1H40.5
		c-0.827,0-1.5,0.673-1.5,1.5v2c0,0.827,0.673,1.5,1.5,1.5h1.172c0.668,0,1.295-0.26,1.768-0.732l2.828-2.828
		C46.547,44.16,46.934,44,47.328,44H48.5c0.275,0,0.5,0.225,0.5,0.5v0.724c-0.089,0.008-0.178,0.013-0.271,0.03
		c-0.539,0.101-1.055,0.496-1.31,1.07C47.165,46.124,46.848,46,46.5,46c-0.827,0-1.5,0.673-1.5,1.5s0.673,1.5,1.5,1.5
		c0.405,0,0.771-0.163,1.041-0.424c0.098,0.424,0.213,0.92,0.33,1.424H36v-9h17V50z M42,43.5c0-0.275,0.225-0.5,0.5-0.5
		s0.5,0.225,0.5,0.5S42.775,44,42.5,44S42,43.775,42,43.5z M47,47.5c0,0.275-0.225,0.5-0.5,0.5S46,47.775,46,47.5s0.225-0.5,0.5-0.5
		S47,47.225,47,47.5z"/>
	<rect x="23" y="37" width="2" height="2"/>
	<rect x="27" y="37" width="2" height="2"/>
	<rect x="31" y="37" width="2" height="2"/>
	<rect x="23" y="41" width="2" height="2"/>
	<rect x="27" y="41" width="2" height="2"/>
	<rect x="31" y="41" width="2" height="2"/>
	<rect x="23" y="45" width="2" height="2"/>
	<rect x="27" y="45" width="2" height="2"/>
	<rect x="31" y="45" width="2" height="2"/>
	<rect x="23" y="49" width="2" height="2"/>
	<rect x="27" y="49" width="2" height="2"/>
	<rect x="31" y="49" width="2" height="2"/>
	<path d="M37,37v-0.5c0-1.379-1.121-2.5-2.5-2.5h-13c-1.379,0-2.5,1.121-2.5,2.5v15c0,1.379,1.121,2.5,2.5,2.5h13
		c1.208,0,2.217-0.86,2.449-2h-1.042c-0.207,0.581-0.757,1-1.408,1h-13c-0.827,0-1.5-0.673-1.5-1.5v-15c0-0.827,0.673-1.5,1.5-1.5
		h13c0.827,0,1.5,0.673,1.5,1.5V37H37z"/>
	<path d="M21.5,32h13c1.379,0,2.5-1.121,2.5-2.5v-8c0-1.379-1.121-2.5-2.5-2.5h-13c-1.379,0-2.5,1.121-2.5,2.5v8
		C19,30.879,20.121,32,21.5,32z M20,21.5c0-0.827,0.673-1.5,1.5-1.5h13c0.827,0,1.5,0.673,1.5,1.5v8c0,0.827-0.673,1.5-1.5,1.5h-13
		c-0.827,0-1.5-0.673-1.5-1.5V21.5z"/>
	<path d="M23.5,28h1.299c0.566,0,1.121-0.194,1.562-0.548l3.904-3.124C30.529,24.117,30.861,24,31.201,24H32.5
		c0.275,0,0.5,0.225,0.5,0.5v2c0,0.275-0.225,0.5-0.5,0.5h-0.592c-0.207-0.581-0.757-1-1.408-1c-0.827,0-1.5,0.673-1.5,1.5
		s0.673,1.5,1.5,1.5c0.651,0,1.201-0.419,1.408-1H32.5c0.827,0,1.5-0.673,1.5-1.5v-2c0-0.827-0.673-1.5-1.5-1.5h-1.299
		c-0.566,0-1.121,0.194-1.562,0.548l-3.904,3.124C25.471,26.883,25.139,27,24.799,27H23.5c-0.275,0-0.5-0.225-0.5-0.5v-2
		c0-0.275,0.225-0.5,0.5-0.5h0.592c0.207,0.581,0.757,1,1.408,1c0.827,0,1.5-0.673,1.5-1.5S26.327,22,25.5,22
		c-0.651,0-1.201,0.419-1.408,1H23.5c-0.827,0-1.5,0.673-1.5,1.5v2C22,27.327,22.673,28,23.5,28z M30.5,28
		c-0.275,0-0.5-0.225-0.5-0.5s0.225-0.5,0.5-0.5s0.5,0.225,0.5,0.5S30.775,28,30.5,28z M25.5,23c0.275,0,0.5,0.225,0.5,0.5
		S25.775,24,25.5,24S25,23.775,25,23.5S25.225,23,25.5,23z"/>
	<path d="M19.5,16h17c1.93,0,3.5,1.57,3.5,3.5V37h1V19.5c0-2.481-2.019-4.5-4.5-4.5h-17c-2.481,0-4.5,2.019-4.5,4.5V60h1V19.5
		C16,17.57,17.57,16,19.5,16z"/>
	<rect x="40" y="52" width="1" height="8"/>
</g>
</svg>
