<svg id="Layer_1" data-name="Layer 1" xmlns="http://www.w3.org/2000/svg" width="75" height="75" viewBox="0 0 75 75"><title>recharge--75x75</title><path d="M54.42,22.5a.627.627,0,0,0-.615.632v7.041C51.959,27.246,46.525,20,37.553,20a17.5,17.5,0,1,0,10.22,31.667.612.612,0,0,0,.41-.581.627.627,0,0,0-.632-.615.7.7,0,0,0-.41.137,16.247,16.247,0,1,1-9.587-29.36c8.63,0,13.843,7.28,15.5,10H45.671a.627.627,0,0,0-.615.632.612.612,0,0,0,.611.615h8.754a.617.617,0,0,0,.632-.6v-8.77a.632.632,0,0,0-.632-.63h0Z"/><path d="M29.053,40.068V39.025h1.181a9.861,9.861,0,0,1-.058-1.1c0-.169.005-.334.014-.493s.021-.314.034-.464H29.052v-1.05h1.356a6.121,6.121,0,0,1,2.609-3.755,7.944,7.944,0,0,1,4.463-1.225,6.437,6.437,0,0,1,2.324.437l-.518,1.079a5.138,5.138,0,0,0-1.807-.325,6.254,6.254,0,0,0-3.457.935,5.179,5.179,0,0,0-2.109,2.854h5.693l-.527,1.045h-5.42q-.039.264-.059.542c-.013.185-.02.376-.02.571a7.68,7.68,0,0,0,.059.947h4.424l-.518,1.045H31.854a5.045,5.045,0,0,0,2.1,2.873,6.252,6.252,0,0,0,3.467.916,7.7,7.7,0,0,0,2.383-.341v1.309a10.057,10.057,0,0,1-1.05.166,11.451,11.451,0,0,1-1.2.059,8.162,8.162,0,0,1-4.521-1.179,6.064,6.064,0,0,1-2.619-3.8H29.048Z"/></svg>