<svg xmlns="http://www.w3.org/2000/svg" width="75" height="75" viewBox="0 0 75 75"><title>restaurant--75x75</title><rect x="29" y="15" width="1" height="11.748"/><rect x="32" y="15" width="1" height="11.748"/><path d="M29.5,61A3.42,3.42,0,0,0,33,57.589l-.987-24.313c.189-.063.378-.119.563-.175C34.26,32.6,36,32.08,36,27.277V15H35V27.277c0,4.064-1.137,4.4-2.71,4.873-.319.1-.646.193-.974.321l-.331.129L32,57.608a2.5,2.5,0,0,1-5-.02L28.015,32.6l-.331-.129c-.327-.128-.654-.225-.974-.321C25.137,31.68,24,31.341,24,27.277V15H23V27.277c0,4.8,1.74,5.322,3.423,5.824.186.055.374.112.563.175L26,57.569A3.425,3.425,0,0,0,29.5,61Z"/><path d="M47.5,61A3.494,3.494,0,0,1,44,57.52l.982-15.671L42,39.869V25.587c0-8.38,8.3-10.423,8.385-10.442L51,15V57.52A3.494,3.494,0,0,1,47.5,61ZM43,39.341l3.017,2L45,57.55a2.5,2.5,0,0,0,5-.03V16.289c-1.823.611-7,2.91-7,9.3Z"/><rect x="26" y="15" width="1" height="11.748"/></svg>