<?xml version="1.0" encoding="utf-8"?>
<!-- Generator: Adobe Illustrator 19.0.1, SVG Export Plug-In . SVG Version: 6.00 Build 0)  -->
<svg version="1.1" id="OV_tram_metro_bus" xmlns="http://www.w3.org/2000/svg" xmlns:xlink="http://www.w3.org/1999/xlink" x="0px"
	 y="0px" width="75px" height="75px" viewBox="0 0 75 75" enable-background="new 0 0 75 75" xml:space="preserve">
<g>
	<path fill="none" d="M55,18H20c-2.206,0-4,1.794-4,4v31c0,2.206,1.794,4,4,4h35c2.206,0,4-1.794,4-4V22C59,19.794,57.206,18,55,18z
		 M51.484,33l-7.971-7.971h1.414l8.47,8.47l-8.47,8.47h-1.414L51.482,34H37c-0.276,0-0.5-0.224-0.5-0.5S36.724,33,37,33H51.484z
		 M23.493,42l7.969,7.969h-1.414l-8.47-8.47l8.47-8.47h1.414L23.491,41H38c0.276,0,0.5,0.224,0.5,0.5S38.276,42,38,42H23.493z"/>
	<path d="M36.5,33.5c0,0.276,0.224,0.5,0.5,0.5h14.482l-7.969,7.969h1.414l8.47-8.47l-8.47-8.47h-1.414L51.484,33H37
		C36.724,33,36.5,33.224,36.5,33.5z"/>
	<path d="M38.5,41.5c0-0.276-0.224-0.5-0.5-0.5H23.491l7.971-7.971h-1.414l-8.47,8.47l8.47,8.47h1.414L23.493,42H38
		C38.276,42,38.5,41.776,38.5,41.5z"/>
	<path d="M55,17H20c-2.761,0-5,2.239-5,5v31c0,2.761,2.239,5,5,5h35c2.761,0,5-2.239,5-5V22C60,19.239,57.761,17,55,17z M59,53
		c0,2.206-1.794,4-4,4H20c-2.206,0-4-1.794-4-4V22c0-2.206,1.794-4,4-4h35c2.206,0,4,1.794,4,4V53z"/>
</g>
</svg>
