<?xml version="1.0" encoding="utf-8"?>
<!-- Generator: Adobe Illustrator 19.0.1, SVG Export Plug-In . SVG Version: 6.00 Build 0)  -->
<svg version="1.1" id="OV_tram_metro_bus" xmlns="http://www.w3.org/2000/svg" xmlns:xlink="http://www.w3.org/1999/xlink" x="0px"
	 y="0px" width="75px" height="75px" viewBox="0 0 75 75" enable-background="new 0 0 75 75" xml:space="preserve">
<g>
	<circle fill="none" cx="18.583" cy="25.583" r="2.417"/>
	<circle fill="none" cx="57.583" cy="41.583" r="2.417"/>
	<path d="M57.583,38.167c-1.687,0-3.08,1.226-3.358,2.834L48,41.002V39h-1v2.002l-7,0.002V39h-1v2.005l-4.287,0.001L31.207,37.5
		l1.146-1.146l-0.707-0.707L30.5,36.793L26.207,32.5l1.146-1.146l-0.707-0.707L25.5,31.793l-4.181-4.181
		C21.741,27.043,22,26.346,22,25.583c0-1.887-1.53-3.417-3.417-3.417c-1.887,0-3.417,1.53-3.417,3.417S16.696,29,18.583,29
		c0.763,0,1.461-0.259,2.029-0.682l13.684,13.65l19.91,0.015C54.408,43.68,55.834,45,57.583,45C59.47,45,61,43.47,61,41.583
		S59.47,38.167,57.583,38.167z M16.167,25.583c0-1.333,1.084-2.417,2.417-2.417c1.333,0,2.417,1.084,2.417,2.417
		S19.916,28,18.583,28C17.251,28,16.167,26.916,16.167,25.583z M57.583,44c-1.333,0-2.417-1.084-2.417-2.417
		s1.084-2.417,2.417-2.417c1.333,0,2.417,1.084,2.417,2.417S58.916,44,57.583,44z"/>
</g>
</svg>
