<?xml version="1.0" encoding="utf-8"?>
<!-- Generator: Adobe Illustrator 19.0.1, SVG Export Plug-In . SVG Version: 6.00 Build 0)  -->
<svg version="1.1" id="OV_tram_metro_bus" xmlns="http://www.w3.org/2000/svg" xmlns:xlink="http://www.w3.org/1999/xlink" x="0px"
	 y="0px" width="75px" height="75px" viewBox="0 0 75 75" enable-background="new 0 0 75 75" xml:space="preserve">
<g>
	<circle fill="none" cx="25.583" cy="55.417" r="2.417"/>
	<path fill="none" d="M46.639,36.028l1.068-7.189C46.409,28.301,44.99,28,43.5,28s-2.909,0.301-4.206,0.84l1.068,7.189
		C42.398,36.653,44.602,36.653,46.639,36.028z"/>
	<circle fill="none" cx="25.583" cy="19.417" r="2.417"/>
	<path fill="none" d="M47.538,36.784l-0.29,0.098c-1.211,0.41-2.472,0.618-3.748,0.618s-2.537-0.208-3.748-0.618l-0.29-0.098
		l-1.113-7.497c-0.119,0.063-0.232,0.134-0.349,0.201v12.023C39.62,42.452,41.495,43,43.5,43s3.88-0.548,5.5-1.488V29.488
		c-0.116-0.067-0.23-0.138-0.349-0.201L47.538,36.784z M41,41c-0.552,0-1-0.448-1-1c0-0.552,0.448-1,1-1s1,0.448,1,1
		C42,40.552,41.552,41,41,41z M46,41c-0.552,0-1-0.448-1-1c0-0.552,0.448-1,1-1s1,0.448,1,1C47,40.552,46.552,41,46,41z"/>
	<path d="M29,19.417C29,17.53,27.47,16,25.583,16c-1.887,0-3.417,1.53-3.417,3.417c0,1.687,1.226,3.08,2.833,3.358v29.284
		c-1.608,0.278-2.833,1.671-2.833,3.358c0,1.887,1.53,3.417,3.417,3.417c1.887,0,3.417-1.53,3.417-3.417
		c0-1.744-1.312-3.167-3-3.375V47h2v-1h-2v-5h2v-1h-2v-5h2v-1h-2v-5h2v-1h-2v-5.209C27.688,22.584,29,21.161,29,19.417z
		 M23.167,19.417c0-1.333,1.084-2.417,2.417-2.417C26.916,17,28,18.084,28,19.417c0,1.333-1.084,2.417-2.417,2.417
		C24.251,21.833,23.167,20.749,23.167,19.417z M28,55.417c0,1.333-1.084,2.417-2.417,2.417c-1.333,0-2.417-1.084-2.417-2.417
		c0-1.333,1.084-2.417,2.417-2.417C26.916,53,28,54.084,28,55.417z"/>
	<circle cx="41" cy="40" r="1"/>
	<circle cx="46" cy="40" r="1"/>
	<path d="M43.5,27c-2.398,0-4.626,0.711-6.5,1.922V29v11v2v0.078C38.874,43.289,41.102,44,43.5,44s4.626-0.711,6.5-1.922V42v-2V29
		v-0.078C48.126,27.711,45.898,27,43.5,27z M43.5,28c1.49,0,2.909,0.301,4.206,0.84l-1.068,7.189c-2.037,0.625-4.24,0.625-6.277,0
		l-1.068-7.189C40.591,28.301,42.01,28,43.5,28z M49,41.512C47.38,42.452,45.505,43,43.5,43s-3.88-0.548-5.5-1.488V29.488
		c0.116-0.067,0.23-0.138,0.349-0.201l1.113,7.497l0.29,0.098c1.211,0.41,2.472,0.618,3.748,0.618s2.537-0.208,3.748-0.618
		l0.29-0.098l1.113-7.497c0.119,0.063,0.232,0.134,0.349,0.201V41.512z"/>
	<path d="M47.559,46h-1.054c0,0.076,0.012,0.151,0.048,0.224L47.441,48h-7.882l0.888-1.776c0.036-0.072,0.048-0.148,0.048-0.224
		h-1.054l-1.888,3.776c-0.123,0.247-0.023,0.547,0.224,0.671C37.849,50.483,37.925,50.5,38,50.5c0.183,0,0.359-0.102,0.447-0.276
		L39.059,49h8.882l0.612,1.224C48.641,50.398,48.817,50.5,49,50.5c0.075,0,0.151-0.017,0.224-0.053
		c0.247-0.124,0.347-0.424,0.224-0.671L47.559,46z"/>
</g>
</svg>
