<svg xmlns="http://www.w3.org/2000/svg" width="75" height="75" viewBox="0 0 75 75"><path d="M37.5,58.138A20.638,20.638,0,1,1,58.138,37.5,20.662,20.662,0,0,1,37.5,58.138Zm0-40.276A19.638,19.638,0,1,0,57.138,37.5,19.66,19.66,0,0,0,37.5,17.862Z"/><path d="M37.5,48.338a12.836,12.836,0,0,1-11.9-7.763l.916-.4a11.995,11.995,0,0,0,21.959,0l.916.4A12.836,12.836,0,0,1,37.5,48.338Z"/><path d="M43.687,33.7a2.625,2.625,0,1,1,2.625-2.625A2.628,2.628,0,0,1,43.687,33.7Zm0-4.25a1.625,1.625,0,1,0,1.625,1.625A1.626,1.626,0,0,0,43.687,29.45Z"/><path d="M31.312,33.7a2.625,2.625,0,1,1,2.625-2.625A2.628,2.628,0,0,1,31.312,33.7Zm0-4.25a1.625,1.625,0,1,0,1.625,1.625A1.626,1.626,0,0,0,31.312,29.45Z"/></svg>