<?xml version="1.0" encoding="utf-8"?>
<!-- Generator: Adobe Illustrator 19.0.1, SVG Export Plug-In . SVG Version: 6.00 Build 0)  -->
<svg version="1.1" id="OV_tram_metro_bus" xmlns="http://www.w3.org/2000/svg" xmlns:xlink="http://www.w3.org/1999/xlink" x="0px"
	 y="0px" width="75px" height="75px" viewBox="0 0 75 75" enable-background="new 0 0 75 75" xml:space="preserve">
<g>
	<rect x="21" y="26" fill="none" width="7" height="9"/>
	<path fill="none" d="M33,28v-2h16v-4c0-0.551-0.449-1-1-1H17c-0.551,0-1,0.449-1,1v19c0,0.551,0.449,1,1,1h20.709
		c-0.545-2.631-1.054-5.113-1.098-5.327c-0.319-1.923,1.002-3.385,2.408-3.647c1.875-0.344,3.328,0.478,3.983,2.27L45.354,42H48
		c0.551,0,1-0.449,1-1V28H33z M29,36h-9V25h9V36z M46,31H35v-1h11V31z"/>
	<path d="M59.354,38.146L50,28.793V22c0-1.105-0.895-2-2-2H17c-1.105,0-2,0.895-2,2v19c0,1.105,0.895,2,2,2h20.916
		c0.549,2.646,1.078,5.173,1.152,5.442c0.237,0.864,0.554,1.421,1.083,1.915c0.095,0.093,4.996,4.996,4.996,4.996
		c0.098,0.098,0.226,0.146,0.354,0.146s0.256-0.049,0.354-0.146c0.195-0.195,0.195-0.512,0-0.707
		c-4.983-4.984-5.004-5.004-5.012-5.012c-0.401-0.374-0.62-0.769-0.809-1.457c-0.123-0.448-1.804-8.602-2.438-11.687
		c-0.217-1.308,0.666-2.306,1.608-2.482c1.402-0.264,2.368,0.286,2.858,1.624l2.468,7.033c0.072,0.206,0.265,0.33,0.47,0.331L45,43
		h3c1.105,0,2-0.895,2-2V30.207l8.646,8.646C58.881,39.088,59,39.811,59,41v14c0,0.276,0.224,0.5,0.5,0.5S60,55.276,60,55V41
		C60,39.854,59.922,38.714,59.354,38.146z M49,41c0,0.551-0.449,1-1,1h-2.646l-2.353-6.705c-0.655-1.792-2.108-2.614-3.983-2.27
		c-1.405,0.262-2.727,1.724-2.408,3.647c0.044,0.215,0.554,2.696,1.098,5.327H17c-0.551,0-1-0.449-1-1V22c0-0.551,0.449-1,1-1h31
		c0.551,0,1,0.449,1,1v5H33v1h16V41z"/>
	<path d="M20,36h9V25h-9V36z M21,26h7v9h-7V26z"/>
	<rect x="35" y="30" width="11" height="1"/>
</g>
</svg>
