<?xml version="1.0" encoding="utf-8"?>
<!-- Generator: Adobe Illustrator 19.0.1, SVG Export Plug-In . SVG Version: 6.00 Build 0)  -->
<svg version="1.1" id="OV_tram_metro_bus" xmlns="http://www.w3.org/2000/svg" xmlns:xlink="http://www.w3.org/1999/xlink" x="0px"
	 y="0px" width="75px" height="75px" viewBox="0 0 75 75" enable-background="new 0 0 75 75" xml:space="preserve">
<g>
	<polygon points="46.677,46.724 46.359,49.337 47.516,49.479 47.643,47.928 51.489,51.775 52.476,50.789 47.543,45.857 	"/>
	<path d="M24.725,25.292c0.43-0.43,1.027-0.535,1.486-0.077c0.76,0.761,0.648,3.72,0.556,4.784l0.831,0.832l3.312-3.312
		l-0.789-0.789c0,0-2.029,2.057-2.043,2.043c0.091-1.346,0.076-3.713-0.931-4.72c-0.923-0.923-2.085-0.705-2.952,0.162
		c-0.584,0.584-0.853,1.105-1.17,1.86l0.959,0.789C24.09,26.292,24.309,25.708,24.725,25.292z"/>
	<path d="M32.645,55.816c-0.72,0.152-1.461,0.229-2.204,0.229c-5.876,0-10.657-4.781-10.657-10.657c0-0.56,0.06-1.116,0.146-1.666
		l2.445,3.653l0.831-0.558l-3.341-4.99l-4.734,3.695l0.615,0.789l3.148-2.459c-0.067,0.508-0.11,1.019-0.11,1.534
		c0,6.428,5.229,11.657,11.657,11.657c0.812,0,1.623-0.084,2.411-0.25c0.27-0.057,0.442-0.322,0.386-0.592
		C33.181,55.932,32.915,55.761,32.645,55.816z"/>
	<path d="M42.255,19.182c0.72-0.152,1.461-0.229,2.204-0.229c5.876,0,10.657,4.781,10.657,10.657c0,0.56-0.06,1.115-0.146,1.666
		l-2.445-3.653l-0.831,0.558l3.341,4.99l4.734-3.695l-0.615-0.789l-3.149,2.459c0.067-0.508,0.111-1.02,0.111-1.534
		c0-6.428-5.229-11.657-11.657-11.657c-0.812,0-1.623,0.084-2.411,0.25c-0.27,0.057-0.442,0.322-0.386,0.592
		C41.72,19.066,41.981,19.239,42.255,19.182z"/>
	<path d="M49.279,31.574c-0.941-0.941-2.594-0.941-3.535,0L31.525,45.792c-0.975,0.975-0.975,2.561,0,3.535l11.229,11.229
		l0.707-0.707L32.232,48.621c-0.584-0.585-0.584-1.536,0-2.121l14.219-14.219c0.562-0.563,1.559-0.563,2.121,0L59.802,43.51
		l0.707-0.707L49.279,31.574z"/>
	<path d="M27.452,44.217c0.67,0,1.297-0.259,1.768-0.73l14.219-14.218c0.471-0.471,0.73-1.098,0.73-1.768
		c0-0.669-0.26-1.297-0.73-1.768L32.209,14.503l-0.707,0.707L42.731,26.44c0.282,0.282,0.438,0.659,0.438,1.061
		c0,0.402-0.155,0.779-0.438,1.061L28.513,42.78c-0.562,0.562-1.556,0.563-2.121,0L15.162,31.55l-0.707,0.707l11.229,11.229
		C26.155,43.958,26.783,44.217,27.452,44.217z"/>
</g>
</svg>
