<?xml version="1.0" encoding="utf-8"?>
<!-- Generator: Adobe Illustrator 19.0.1, SVG Export Plug-In . SVG Version: 6.00 Build 0)  -->
<svg version="1.1" id="OV_tram_metro_bus" xmlns="http://www.w3.org/2000/svg" xmlns:xlink="http://www.w3.org/1999/xlink" x="0px"
	 y="0px" width="75px" height="75px" viewBox="0 0 75 75" enable-background="new 0 0 75 75" xml:space="preserve">
<g>
	<rect x="21" y="31" fill="none" width="1" height="4"/>
	<path fill="none" d="M22,30v-1c0-0.551-0.448-1-1-1h-7c-0.552,0-1,0.449-1,1v1H22z"/>
	<rect x="13" y="31" fill="none" width="1" height="4"/>
	<rect x="15" y="31" fill="none" width="5" height="4"/>
	<rect x="53" y="27" fill="none" width="9" height="8"/>
	<path fill="none" d="M30.391,22.448l1.574,10.598c2.985,0.949,6.234,0.949,9.219,0l1.577-10.613
		c-1.898-0.801-3.982-1.245-6.167-1.245C34.394,21.188,32.298,21.637,30.391,22.448z"/>
	<path fill="none" d="M63,27v8c0,0.552-0.448,1-1,1h-9c-0.552,0-1-0.448-1-1v-8c-0.552,0-1,0.449-1,1v12c0,0.551,0.448,1,1,1h11
		c0.552,0,1-0.449,1-1V28C64,27.449,63.552,27,63,27z M54.5,39.5c-0.552,0-1-0.448-1-1c0-0.552,0.448-1,1-1s1,0.448,1,1
		C55.5,39.052,55.052,39.5,54.5,39.5z M60.5,39.5c-0.552,0-1-0.448-1-1c0-0.552,0.448-1,1-1s1,0.448,1,1
		C61.5,39.052,61.052,39.5,60.5,39.5z"/>
	<path fill="none" d="M42.083,33.8l-0.289,0.098c-1.685,0.571-3.441,0.861-5.219,0.861s-3.535-0.29-5.22-0.861L31.066,33.8
		l-1.619-10.897c-0.498,0.252-0.982,0.526-1.448,0.826v16.944c2.463,1.567,5.376,2.488,8.505,2.488c3.125,0,6.034-0.919,8.495-2.482
		V23.615c-0.42-0.263-0.851-0.506-1.295-0.729L42.083,33.8z M33.05,39.9c-0.779,0-1.41-0.631-1.41-1.41
		c0-0.779,0.631-1.41,1.41-1.41c0.779,0,1.41,0.631,1.41,1.41C34.46,39.269,33.829,39.9,33.05,39.9z M40.1,39.9
		c-0.779,0-1.41-0.631-1.41-1.41c0-0.779,0.631-1.41,1.41-1.41c0.779,0,1.41,0.631,1.41,1.41C41.51,39.269,40.879,39.9,40.1,39.9z"
		/>
	<path fill="none" d="M14,41h7c0.552,0,1-0.449,1-1v-4h-9v4C13,40.551,13.448,41,14,41z M20,37.5c0.414,0,0.75,0.336,0.75,0.75
		c0,0.414-0.336,0.75-0.75,0.75s-0.75-0.336-0.75-0.75C19.25,37.836,19.586,37.5,20,37.5z M15,37.5c0.414,0,0.75,0.336,0.75,0.75
		c0,0.414-0.336,0.75-0.75,0.75s-0.75-0.336-0.75-0.75C14.25,37.836,14.586,37.5,15,37.5z"/>
	<circle cx="15" cy="38.25" r="0.75"/>
	<circle cx="20" cy="38.25" r="0.75"/>
	<path d="M14,42h7c1.104,0,2-0.895,2-2v-4v-6v-1c0-1.105-0.896-2-2-2h-7c-1.104,0-2,0.895-2,2v1v6v4C12,41.105,12.896,42,14,42z
		 M22,35h-1v-4h1V35z M14,35h-1v-4h1V35z M15,31h5v4h-5V31z M13,29c0-0.551,0.448-1,1-1h7c0.552,0,1,0.449,1,1v1h-9V29z M22,36v4
		c0,0.551-0.448,1-1,1h-7c-0.552,0-1-0.449-1-1v-4H22z"/>
	<path d="M13,21.5c0,0.276,0.224,0.5,0.5,0.5h1.009c0,0.04-0.005,0.08,0.006,0.121L15.235,25h1.03l-0.75-3h3.97l-0.75,3h1.03
		l0.72-2.879c0.01-0.041,0.006-0.081,0.006-0.121H21.5c0.276,0,0.5-0.224,0.5-0.5c0-0.276-0.224-0.5-0.5-0.5h-8
		C13.224,21,13,21.224,13,21.5z"/>
	<path d="M9,48.5c0.095,0,0.191-0.027,0.277-0.084l6-4c0.144-0.096,0.213-0.255,0.214-0.416h-1.392l-5.376,3.584
		c-0.23,0.153-0.292,0.463-0.139,0.693C8.68,48.422,8.839,48.5,9,48.5z"/>
	<path d="M17,48.5c0.152,0,0.302-0.069,0.4-0.2l3-4c0.068-0.09,0.092-0.195,0.092-0.3h-1.116L16.6,47.7
		c-0.166,0.221-0.121,0.534,0.1,0.7C16.79,48.467,16.895,48.5,17,48.5z"/>
	<circle cx="54.5" cy="38.5" r="1"/>
	<circle cx="60.5" cy="38.5" r="1"/>
	<path d="M63,26H52c-1.104,0-2,0.895-2,2v12c0,1.105,0.896,2,2,2h11c1.104,0,2-0.895,2-2V28C65,26.895,64.104,26,63,26z M62,27v8h-9
		v-8H62z M64,40c0,0.551-0.448,1-1,1H52c-0.552,0-1-0.449-1-1V28c0-0.551,0.448-1,1-1v8c0,0.552,0.448,1,1,1h9c0.552,0,1-0.448,1-1
		v-8c0.552,0,1,0.449,1,1V40z"/>
	<path d="M48.5,29c-0.276,0-0.5,0.224-0.5,0.5V32c0,0.276,0.224,0.5,0.5,0.5S49,32.276,49,32v-2.5C49,29.224,48.776,29,48.5,29z"/>
	<path d="M52,44.25c0,0.414,0.336,0.75,0.75,0.75h0.5c0.414,0,0.75-0.336,0.75-0.75V43h-2V44.25z"/>
	<path d="M61.75,45h0.5c0.414,0,0.75-0.336,0.75-0.75V43h-2v1.25C61,44.664,61.336,45,61.75,45z"/>
	<circle cx="33.05" cy="38.49" r="1.41"/>
	<circle cx="40.1" cy="38.49" r="1.41"/>
	<path d="M36.594,20.188c-3.562,0-6.865,1.113-9.594,3.002v0.116V38v2.958v0.267c2.711,1.85,5.983,2.936,9.505,2.936
		c3.518,0,6.786-1.082,9.495-2.928v-0.275V38V23.306v-0.251C43.309,21.246,40.073,20.188,36.594,20.188z M42.761,22.433
		l-1.577,10.613c-2.985,0.949-6.234,0.949-9.219,0l-1.574-10.598c1.907-0.811,4.003-1.26,6.203-1.26
		C38.78,21.188,40.863,21.632,42.761,22.433z M45,40.68c-2.461,1.563-5.37,2.482-8.495,2.482c-3.129,0-6.042-0.921-8.505-2.488
		V23.729c0.466-0.301,0.95-0.575,1.448-0.826L31.066,33.8l0.289,0.098c1.685,0.571,3.441,0.861,5.22,0.861s3.534-0.29,5.219-0.861
		l0.289-0.098l1.621-10.914c0.444,0.223,0.876,0.467,1.295,0.729V40.68z"/>
	<path d="M41.969,47H40.89c0.006,0.059,0.019,0.118,0.047,0.174L42.351,50H30.674l1.413-2.826c0.028-0.056,0.041-0.115,0.047-0.174
		h-1.078l-2.684,5.366c-0.124,0.247-0.023,0.547,0.224,0.671c0.072,0.036,0.148,0.053,0.223,0.053c0.184,0,0.36-0.101,0.448-0.276
		L30.174,51h12.677l0.907,1.813c0.088,0.175,0.264,0.276,0.448,0.276c0.075,0,0.151-0.017,0.223-0.053
		c0.247-0.124,0.347-0.424,0.224-0.671L41.969,47z"/>
</g>
</svg>
