<svg id="Layer_1" data-name="Layer 1" xmlns="http://www.w3.org/2000/svg" width="75" height="75" viewBox="0 0 75 75"><title>twitter--75x75</title><path d="M31.373,52.26a20.847,20.847,0,0,1-11.279-3.3l-1.835-1.178,2.165.261a14.012,14.012,0,0,0,9.213-2.122,7.678,7.678,0,0,1-5.827-5.188l-.256-.8.824.154a6.887,6.887,0,0,0,.974.112,7.709,7.709,0,0,1-4.081-6.787v-.85l.743.324a6.575,6.575,0,0,0,1.344.562,7.685,7.685,0,0,1-.988-9.068l.364-.621.455.558a19.962,19.962,0,0,0,13.8,7.277,7.811,7.811,0,0,1-.076-1.1,7.684,7.684,0,0,1,13.088-5.458,13.825,13.825,0,0,0,4.138-1.626l1.132-.671-.4,1.253a7.653,7.653,0,0,1-1.753,2.951,13.81,13.81,0,0,0,2.041-.718l1.578-.7-.961,1.435a15.043,15.043,0,0,1-3.488,3.685q.01.34.01.683a21.649,21.649,0,0,1-5.386,14.1A20.062,20.062,0,0,1,31.373,52.26Zm-8.956-3.129a19.848,19.848,0,0,0,8.956,2.129c9.8,0,19.929-7.455,19.929-19.931,0-.3-.005-.605-.018-.905l-.014-.271L51.49,30a13.956,13.956,0,0,0,2.435-2.241,14.872,14.872,0,0,1-2.625.555l-2.322.276,2.006-1.2a6.712,6.712,0,0,0,2.384-2.433,14.776,14.776,0,0,1-3.433,1.121l-.271.054-.19-.2a6.689,6.689,0,0,0-11.385,6.095l.151.647-.663-.034A20.95,20.95,0,0,1,22.9,25.524,6.691,6.691,0,0,0,25.3,33.8l1.454.971-1.747-.055a7.707,7.707,0,0,1-2.688-.578,6.7,6.7,0,0,0,5.309,5.822l2.058.414-2.023.559a7.664,7.664,0,0,1-2.606.247A6.683,6.683,0,0,0,31,45.061l1.407.025-1.107.868A14.8,14.8,0,0,1,22.417,49.131Z"/></svg>