<svg id="Layer_1" data-name="Layer 1" xmlns="http://www.w3.org/2000/svg" width="75" height="75" viewBox="0 0 75 75"><title>user--75x75</title><path d="M54,54H22V47.544c0-2.7.849-8.983,8.706-8.983a.5.5,0,0,1,0,1c-6.7,0-7.706,5-7.706,7.983V53H53V47.544c0-2.982-1-7.983-7.706-7.983a.5.5,0,0,1,0-1c7.857,0,8.706,6.282,8.706,8.983Z"/><path d="M38,36.735c-3.669,0-6.654-3.754-6.654-8.368S34.331,20,38,20s6.654,3.754,6.654,8.367S41.669,36.735,38,36.735ZM38,21c-3.118,0-5.654,3.305-5.654,7.367S34.882,35.735,38,35.735s5.654-3.3,5.654-7.368S41.118,21,38,21Z"/></svg>