<?xml version="1.0" encoding="utf-8"?>
<!-- Generator: Adobe Illustrator 19.0.1, SVG Export Plug-In . SVG Version: 6.00 Build 0)  -->
<svg version="1.1" id="OV_tram_metro_bus" xmlns="http://www.w3.org/2000/svg" xmlns:xlink="http://www.w3.org/1999/xlink" x="0px"
	 y="0px" width="75px" height="75px" viewBox="0 0 75 75" enable-background="new 0 0 75 75" xml:space="preserve">
<g>
	<rect x="21" y="31" fill="none" width="7" height="9"/>
	<path fill="none" d="M42.087,22.051l-1.146,1.275l0.638,1.586L40.941,26.5l1.146,1.275l-0.046,1.708l1.522,0.811l0.547,1.621
		l1.712,0.253l1.077,1.34l1.695-0.344l1.479,0.894l1.478-0.895l1.696,0.345l1.075-1.341l1.713-0.251l0.547-1.621l1.523-0.812
		l-0.047-1.706l1.146-1.277l-0.64-1.587l0.64-1.586l-1.146-1.276l0.046-1.707l-1.522-0.812l-0.547-1.621l-1.712-0.251l-1.077-1.34
		l-1.696,0.343l-1.477-0.894l-1.479,0.894l-1.696-0.343l-1.076,1.34l-1.713,0.251l-0.547,1.622l-1.521,0.811L42.087,22.051z
		 M52.532,29.001c-0.779,0-1.412-0.633-1.412-1.412s0.633-1.412,1.412-1.412s1.412,0.633,1.412,1.412S53.311,29.001,52.532,29.001z
		 M53.307,21.305c0.092-0.092,0.241-0.092,0.333,0c0.092,0.092,0.092,0.241,0,0.333l-7.059,7.059
		c-0.046,0.046-0.106,0.069-0.166,0.069c-0.06,0-0.12-0.023-0.166-0.069c-0.092-0.092-0.092-0.241,0-0.333L53.307,21.305z
		 M47.356,21.001c0.779,0,1.412,0.633,1.412,1.412c0,0.779-0.633,1.412-1.412,1.412s-1.412-0.633-1.412-1.412
		C45.944,21.634,46.577,21.001,47.356,21.001z"/>
	<circle fill="none" cx="47.356" cy="22.413" r="0.941"/>
	<circle fill="none" cx="52.532" cy="27.589" r="0.941"/>
	<path d="M52.859,36.652c-0.388,0.095-0.784,0.172-1.186,0.228l6.974,6.974c0.354,0.355,0.354,1.093,0.354,2.026V60
		c0,0.276,0.224,0.5,0.5,0.5S60,60.276,60,60V45.88c0.001-1.119,0.002-2.085-0.646-2.734L52.859,36.652z"/>
	<path d="M17,25c-1.105,0-2,0.895-2,2v19c0,1.105,0.895,2,2,2h20.916c0.549,2.646,1.077,5.173,1.151,5.442
		c0.238,0.864,0.554,1.421,1.082,1.914c0.083,0.082,4.997,4.997,4.997,4.997l0.707-0.707c-2.272-2.273-4.986-4.987-5.013-5.012
		c-0.4-0.374-0.62-0.769-0.809-1.457c-0.123-0.448-1.805-8.602-2.438-11.687c-0.217-1.308,0.666-2.307,1.608-2.482
		c1.408-0.261,2.369,0.287,2.858,1.624l2.468,7.033c0.072,0.206,0.263,0.33,0.47,0.33L45,48h3c1.105,0,2-0.895,2-2v-9
		c-0.338,0-0.669-0.023-1-0.05V46c0,0.551-0.449,1-1,1h-2.646l-2.352-6.705c-0.654-1.792-2.107-2.62-3.983-2.27
		c-1.405,0.262-2.727,1.724-2.408,3.647c0.044,0.215,0.554,2.696,1.099,5.327H17c-0.551,0-1-0.449-1-1V27c0-0.551,0.449-1,1-1h21.05
		C38.023,25.669,38,25.338,38,25H17z"/>
	<path d="M29,41V30h-9v11H29z M21,31h7v9h-7V31z"/>
	<path d="M33,32v1h8.074c-0.286-0.319-0.556-0.652-0.807-1H33z"/>
	<path d="M35,36h10.211c-0.644-0.281-1.259-0.615-1.839-1H35V36z"/>
	<path d="M42.742,18.837l-1.717,0.915l0.052,1.927l-1.296,1.442l0.72,1.792l-0.72,1.793l1.296,1.442l-0.052,1.927l1.718,0.915
		l0.615,1.825l1.931,0.284l1.212,1.51l1.91-0.388l1.662,1.005l1.661-1.006l1.911,0.389l1.211-1.51l1.931-0.284l0.615-1.825
		l1.72-0.916l-0.054-1.927l1.297-1.444l-0.722-1.792l0.722-1.792l-1.297-1.443l0.052-1.927l-1.718-0.916l-0.615-1.826l-1.931-0.283
		l-1.212-1.508l-1.911,0.386l-1.66-1.005l-1.662,1.005L46.5,15.218l-1.211,1.508l-1.932,0.283L42.742,18.837z M44.109,17.91
		l1.713-0.251l1.076-1.34l1.696,0.343l1.479-0.894l1.477,0.894l1.696-0.343l1.077,1.34l1.712,0.251l0.547,1.621l1.522,0.812
		l-0.046,1.707l1.146,1.276l-0.64,1.586l0.64,1.587l-1.146,1.277l0.047,1.706l-1.523,0.812l-0.547,1.621l-1.713,0.251l-1.075,1.341
		l-1.696-0.345l-1.478,0.895l-1.479-0.894l-1.695,0.344l-1.077-1.34l-1.712-0.253l-0.547-1.621l-1.522-0.811l0.046-1.708
		L40.941,26.5l0.638-1.588l-0.638-1.586l1.146-1.275l-0.046-1.708l1.521-0.811L44.109,17.91z"/>
	<path d="M47.356,23.825c0.779,0,1.412-0.633,1.412-1.412c0-0.778-0.633-1.412-1.412-1.412s-1.412,0.633-1.412,1.412
		C45.944,23.191,46.577,23.825,47.356,23.825z M47.356,21.472c0.519,0,0.941,0.422,0.941,0.941c0,0.519-0.422,0.941-0.941,0.941
		c-0.519,0-0.941-0.422-0.941-0.941C46.415,21.894,46.837,21.472,47.356,21.472z"/>
	<path d="M52.532,26.177c-0.779,0-1.412,0.633-1.412,1.412s0.633,1.412,1.412,1.412s1.412-0.633,1.412-1.412
		S53.311,26.177,52.532,26.177z M52.532,28.53c-0.519,0-0.941-0.422-0.941-0.941c0-0.519,0.422-0.941,0.941-0.941
		c0.519,0,0.941,0.422,0.941,0.941C53.473,28.108,53.051,28.53,52.532,28.53z"/>
	<path d="M46.248,28.364c-0.092,0.092-0.092,0.241,0,0.333c0.046,0.046,0.106,0.069,0.166,0.069c0.06,0,0.12-0.023,0.166-0.069
		l7.059-7.059c0.092-0.092,0.092-0.241,0-0.333c-0.092-0.092-0.241-0.092-0.333,0L46.248,28.364z"/>
</g>
</svg>
