<svg id="Layer_1" data-name="Layer 1" xmlns="http://www.w3.org/2000/svg" viewBox="0 0 75 75"><defs><style>.cls-1{fill:#222120;}</style></defs><title>whatsapp--75x75</title><path class="cls-1" d="M37.881,20.023A17.622,17.622,0,1,1,28.554,52.6l-.381-.239-.431.127L19.979,54.77l2.394-8.14.115-.39-.19-.36A17.626,17.626,0,0,1,37.881,20.023m0-1A18.626,18.626,0,0,0,21.414,46.348l-2.911,9.9,9.521-2.8a18.623,18.623,0,1,0,9.857-34.424Z"/><path class="cls-1" d="M43.308,47.055a5.228,5.228,0,0,1-.907-.083c-4.11-.729-7.932-4.732-8.222-5.041-.312-.292-4.314-4.114-5.041-8.223-.588-3.315,2.1-4.961,3.786-5.41a1.773,1.773,0,0,1,1.743.471,14.29,14.29,0,0,1,1.8,4.208,1.835,1.835,0,0,1-.81,1.63l-.869.686c-.228.184-.162.3-.134.351a15.634,15.634,0,0,0,2.566,3.244,15.6,15.6,0,0,0,3.244,2.565c.051.028.168.1.353-.137l.685-.868a1.813,1.813,0,0,1,1.628-.808,14.338,14.338,0,0,1,4.209,1.8,1.774,1.774,0,0,1,.47,1.745C47.405,44.707,46.022,47.054,43.308,47.055ZM33.4,29.235a.809.809,0,0,0-.216.03c-.373.1-3.627,1.064-3.06,4.269.683,3.853,4.71,7.639,4.751,7.677l.025.025c.039.041,3.825,4.068,7.677,4.751,3.207.566,4.17-2.686,4.269-3.059a.781.781,0,0,0-.2-.771,15.783,15.783,0,0,0-3.573-1.519.86.86,0,0,0-.778.427l-.689.874a1.24,1.24,0,0,1-1.63.383A16.494,16.494,0,0,1,36.515,39.6a16.6,16.6,0,0,1-2.728-3.457,1.24,1.24,0,0,1,.381-1.627l.874-.691a.851.851,0,0,0,.429-.781,15.581,15.581,0,0,0-1.524-3.577A.764.764,0,0,0,33.4,29.235Z"/></svg>