<?xml version="1.0" encoding="utf-8"?>
<!-- Generator: Adobe Illustrator 19.0.1, SVG Export Plug-In . SVG Version: 6.00 Build 0)  -->
<svg version="1.1" id="OV_tram_metro_bus" xmlns="http://www.w3.org/2000/svg" xmlns:xlink="http://www.w3.org/1999/xlink" x="0px"
	 y="0px" width="75px" height="75px" viewBox="0 0 75 75" enable-background="new 0 0 75 75" xml:space="preserve">
<g>
	<polygon points="15.734,40.654 9.057,40.654 9.057,39.003 13.633,32.676 9.178,32.676 9.178,31.119 15.569,31.119 15.569,32.762 
		11.111,39.11 15.734,39.11 	"/>
	<g>
		<path d="M38.586,36.432c-0.067-1.172-0.561-1.756-1.481-1.756c-0.618,0-1.071,0.281-1.361,0.844
			c-0.11,0.214-0.198,0.517-0.259,0.912H38.586z M40.334,36.87c0,0.252-0.013,0.531-0.04,0.832h-4.781
			c0.159,1.178,0.869,1.768,2.127,1.768c0.307,0,0.604-0.039,0.894-0.12c0.32-0.088,0.753-0.289,1.3-0.603l0.027,1.595
			c-0.8,0.336-1.614,0.504-2.442,0.504c-1.169,0-2.08-0.327-2.731-0.98c-0.652-0.654-0.978-1.567-0.978-2.744
			c0-1.143,0.31-2.053,0.928-2.727c0.617-0.677,1.448-1.015,2.493-1.015c0.989,0,1.768,0.315,2.343,0.941
			C40.047,34.947,40.334,35.797,40.334,36.87"/>
		<path d="M51.812,37.429l-0.234-0.007c-0.102-0.008-0.232-0.014-0.387-0.014c-1.449,0-2.174,0.398-2.174,1.192
			c0,0.277,0.099,0.501,0.297,0.672c0.199,0.168,0.462,0.25,0.792,0.25c0.713,0,1.221-0.328,1.525-0.983
			C51.734,38.312,51.795,37.942,51.812,37.429 M53.519,40.654h-1.627l-0.04-1.064c-0.168,0.265-0.333,0.467-0.494,0.603
			c-0.449,0.378-1.031,0.567-1.748,0.567c-0.742,0-1.33-0.199-1.768-0.595c-0.434-0.397-0.653-0.932-0.653-1.607
			c0-1.529,1.145-2.293,3.435-2.293c0.239,0,0.55,0.011,0.927,0.033h0.227c-0.017-0.559-0.146-0.954-0.383-1.189
			c-0.239-0.236-0.626-0.354-1.164-0.354c-0.386,0-0.78,0.069-1.18,0.206c-0.338,0.116-0.69,0.301-1.054,0.559l-0.041-1.581
			c0.449-0.172,0.845-0.295,1.187-0.365c0.396-0.079,0.809-0.121,1.24-0.121c1.211,0,2.072,0.328,2.588,0.983
			c0.218,0.279,0.356,0.637,0.413,1.077c0.041,0.307,0.06,0.821,0.06,1.543v1.025c0,0.424,0.009,0.874,0.026,1.349L53.519,40.654z"
			/>
	</g>
	<polygon points="62,40.654 59.8,40.654 58.204,38.014 56.619,40.654 54.583,40.654 57.037,36.976 54.803,33.574 56.971,33.574 
		58.419,35.912 59.8,33.574 61.74,33.574 59.593,36.976 	"/>
	<path d="M64.953,40.654h-1.827v-7.08h1.827V40.654z M65,32.296h-1.9v-1.737H65V32.296z"/>
	<path d="M46.01,39.143c-0.214,0.064-0.404,0.094-0.57,0.094c-0.427,0-0.726-0.121-0.892-0.369
		c-0.168-0.244-0.252-0.682-0.252-1.306v-2.573h1.64v-1.363h-1.64v-2.042l-1.827,0.612v1.43h-0.624
		c0.119,0.447,0.217,0.902,0.29,1.363h0.334v2.951c0,0.995,0.186,1.703,0.56,2.128c0.373,0.425,0.997,0.637,1.868,0.637
		c0.356,0,0.753-0.047,1.194-0.146L46.01,39.143z"/>
	<path d="M32.217,36.666c0-0.188-0.004-0.368-0.012-0.536c-0.075-0.602-0.219-1.184-0.426-1.732c-0.108-0.16-0.24-0.302-0.396-0.426
		c-0.41-0.334-0.955-0.499-1.641-0.499c-0.45,0-0.845,0.075-1.188,0.225c-0.325,0.139-0.698,0.436-1.12,0.885h-0.027l-0.039-1.009
		H25.62c0.044,0.709,0.066,1.33,0.066,1.865v5.215h1.848v-3.361c0-0.526,0.049-0.928,0.147-1.21
		c0.046-0.128,0.095-0.238,0.148-0.332c0.293-0.513,0.724-0.771,1.293-0.771c0.645,0,1.034,0.326,1.167,0.979
		c0.067,0.326,0.1,0.708,0.1,1.141v3.554h0.977c0.446-0.833,0.742-1.757,0.852-2.736V36.666z"/>
	<path d="M24.62,28.437c-4.773,0-8.656,3.871-8.656,8.633c0.001,4.76,3.883,8.628,8.656,8.628c4.773,0,8.656-3.868,8.657-8.628
		C33.277,32.308,29.394,28.437,24.62,28.437z M30.302,42.73c-1.457,1.451-3.464,2.349-5.682,2.349c-2.216,0-4.224-0.897-5.681-2.349
		c-1.455-1.452-2.356-3.452-2.356-5.66c0-2.211,0.901-4.212,2.356-5.662c1.457-1.454,3.464-2.352,5.681-2.352
		c2.217,0,4.225,0.898,5.682,2.352c1.455,1.45,2.355,3.451,2.355,5.662C32.657,39.278,31.757,41.278,30.302,42.73z"/>
	<path d="M28.934,24.137c-7.152,0-12.97,5.799-12.97,12.93C15.964,44.2,21.783,50,28.934,50c7.152,0,12.971-5.798,12.971-12.929
		C41.906,29.936,36.086,24.137,28.934,24.137z M37.664,45.769c-2.237,2.23-5.324,3.611-8.73,3.611c-3.406,0-6.492-1.381-8.728-3.611
		c-2.237-2.229-3.622-5.307-3.622-8.701c0-3.392,1.385-6.469,3.622-8.7c2.236-2.231,5.323-3.61,8.728-3.61
		c3.406,0,6.493,1.379,8.73,3.61c2.237,2.231,3.622,5.308,3.622,8.703C41.287,40.462,39.902,43.54,37.664,45.769z"/>
	<path d="M20.307,32.628c-2.382,0-4.315,1.926-4.315,4.301c0,2.374,1.932,4.299,4.315,4.299c2.383,0,4.314-1.925,4.314-4.299
		C24.62,34.553,22.69,32.628,20.307,32.628 M20.307,34.03c1.603,0,2.909,1.299,2.909,2.899c0,1.599-1.306,2.898-2.909,2.898
		c-1.604,0-2.909-1.299-2.909-2.898C17.398,35.329,18.702,34.03,20.307,34.03"/>
</g>
</svg>
