<svg xmlns="http://www.w3.org/2000/svg" width="38.354" height="41.354" viewBox="0 0 38.354 41.354"><title>amsterdam--large</title><rect x="23.354" y="11.354" width="1" height="2"/><polygon points="37.061 9.354 32.354 4.647 32.354 2.354 31.354 2.354 31.354 1.385 30.354 1.385 30.354 2.354 29.354 2.354 29.354 4.647 24.641 9.354 23.354 9.354 23.354 10.354 25.055 10.354 30.354 5.061 30.354 3.354 31.354 3.354 31.354 5.061 36.604 10.354 38.354 10.354 38.354 9.354 37.061 9.354"/><rect x="37.354" y="11.354" width="1" height="30"/><polygon points="25.354 17.354 26.354 17.354 26.354 13.354 28.354 13.354 28.354 12.354 25.354 12.354 25.354 17.354"/><polygon points="29.354 17.354 30.312 17.354 30.312 13.354 32.312 13.354 32.312 12.354 29.354 12.354 29.354 17.354"/><polygon points="29.354 10.354 30.354 10.354 30.354 8.292 32.323 8.292 32.354 7.354 29.354 7.354 29.354 10.354"/><polygon points="33.354 17.354 34.271 17.354 34.271 13.354 36.271 13.354 36.271 12.354 33.354 12.354 33.354 17.354"/><polygon points="25.354 24.354 26.354 24.354 26.354 20.354 28.354 20.354 28.354 19.354 25.354 19.354 25.354 24.354"/><polygon points="29.354 24.354 30.312 24.354 30.312 20.354 32.312 20.354 32.312 19.354 29.354 19.354 29.354 24.354"/><polygon points="33.354 24.354 34.271 24.354 34.271 20.354 36.271 20.354 36.271 19.354 33.354 19.354 33.354 24.354"/><polygon points="25.354 31.354 26.354 31.354 26.354 27.354 28.354 27.354 28.354 26.354 25.354 26.354 25.354 31.354"/><polygon points="29.354 31.354 30.312 31.354 30.312 27.354 32.312 27.354 32.312 26.354 29.354 26.354 29.354 31.354"/><polygon points="33.354 31.354 34.271 31.354 34.271 27.354 36.271 27.354 36.271 26.354 33.354 26.354 33.354 31.354"/><polygon points="25.354 38.354 26.354 38.354 26.354 34.354 28.354 34.354 28.354 33.354 25.354 33.354 25.354 38.354"/><polygon points="29.354 41.312 30.312 41.312 30.312 34.354 32.312 34.354 32.312 33.354 29.354 33.354 29.354 41.312"/><polygon points="33.354 38.354 34.271 38.354 34.271 34.354 36.271 34.354 36.271 33.354 33.354 33.354 33.354 38.354"/><rect x="23.354" y="18.354" width="1" height="23"/><rect x="9.354" y="18.354" width="1" height="23"/><polygon points="15.354 17.354 16.354 17.354 16.354 15.354 18.354 15.354 18.354 14.354 15.354 14.354 15.354 17.354"/><polygon points="11.354 24.354 12.354 24.354 12.354 20.354 14.354 20.354 14.354 19.354 11.354 19.354 11.354 24.354"/><polygon points="15.354 24.354 16.354 24.354 16.354 20.354 18.354 20.354 18.354 19.354 15.354 19.354 15.354 24.354"/><polygon points="19.354 24.354 20.354 24.354 20.354 20.354 22.354 20.354 22.354 19.354 19.354 19.354 19.354 24.354"/><polygon points="11.354 31.354 12.354 31.354 12.354 27.354 14.354 27.354 14.354 26.354 11.354 26.354 11.354 31.354"/><polygon points="15.354 31.354 16.354 31.354 16.354 27.354 18.354 27.354 18.354 26.354 15.354 26.354 15.354 31.354"/><polygon points="19.354 31.354 20.354 31.354 20.354 27.354 22.354 27.354 22.354 26.354 19.354 26.354 19.354 31.354"/><polygon points="11.354 38.354 12.354 38.354 12.354 34.354 14.354 34.354 14.354 33.354 11.354 33.354 11.354 38.354"/><polygon points="15.354 41.354 16.354 41.354 16.354 34.354 18.354 34.354 18.354 33.354 15.354 33.354 15.354 41.354"/><polygon points="19.354 38.354 20.354 38.354 20.354 34.354 22.354 34.354 22.354 33.354 19.354 33.354 19.354 38.354"/><rect x="9.354" y="16.354" width="2" height="1"/><rect x="22.354" y="16.354" width="2" height="1"/><polygon points="18.354 9.647 18.354 7.354 15.354 7.354 15.354 9.647 10.641 14.354 9.354 14.354 9.354 15.354 11.055 15.354 16.354 10.061 16.354 8.354 17.354 8.354 17.354 10.061 22.62 15.338 24.336 15.349 24.354 14.354 23.061 14.354 18.354 9.647"/><polygon points="5 0 2.854 2.147 0.708 0 0 0.708 2.147 2.854 0 5 0.708 5.708 2.854 3.561 5 5.708 5.708 5 3.561 2.854 5.708 0.708 5 0"/><polygon points="5 8 2.854 10.147 0.708 8 0 8.708 2.147 10.854 0 13 0.708 13.708 2.854 11.561 5 13.708 5.708 13 3.561 10.854 5.708 8.708 5 8"/><polygon points="5 16 2.854 18.147 0.708 16 0 16.708 2.147 18.854 0 21 0.708 21.708 2.854 19.561 5 21.708 5.708 21 3.561 18.854 5.708 16.708 5 16"/></svg>