<svg xmlns="http://www.w3.org/2000/svg" width="23" height="26" viewBox="0 0 23 26"><title>attractions--small</title><polygon points="10.43 13.35 9.57 12.85 3.13 24 4.28 24 10.43 13.35"/><polygon points="19.87 24 13.43 12.85 12.57 13.35 18.72 24 19.87 24"/><polygon points="20.45 25 19.3 25 3.7 25 2.55 25 0 25 0 26 23 26 23 25 20.45 25"/><path d="M20.98,10a4.18,4.18,0,0,1,.02.5,4.18,4.18,0,0,1-.02.5h.52V10Z"/><path d="M11.5,0A10.491,10.491,0,0,0,5.01,18.74l.51-.88a9.388,9.388,0,0,1-1.98-2.19l4.86-2.8.36-.21A3.516,3.516,0,0,0,11,13.95v6.02a9.192,9.192,0,0,1-2.88-.61l-.51.89a10.463,10.463,0,0,0,7.78,0l-.51-.89a9.192,9.192,0,0,1-2.88.61V13.95a3.516,3.516,0,0,0,2.24-1.29l.36.21,4.86,2.8a9.388,9.388,0,0,1-1.98,2.19l.51.88A10.491,10.491,0,0,0,11.5,0ZM12,1.03a9.452,9.452,0,0,1,3.81,1.01L12.8,7.26a3.147,3.147,0,0,0-.8-.21Zm-1,0V7.05a3.147,3.147,0,0,0-.8.21L7.19,2.04A9.452,9.452,0,0,1,11,1.03ZM3.04,14.81A9.452,9.452,0,0,1,2.03,11H8.05a3.147,3.147,0,0,0,.21.8ZM8.05,10H2.03A9.452,9.452,0,0,1,3.04,6.19L8.26,9.2A3.147,3.147,0,0,0,8.05,10ZM3.54,5.33A9.757,9.757,0,0,1,6.33,2.54L9.34,7.76a4.54,4.54,0,0,0-.58.58Zm8.26,7.65c-.1.01-.2.02-.3.02s-.2-.01-.3-.02a2.5,2.5,0,1,1,.6,0Zm2.44-4.64a4.54,4.54,0,0,0-.58-.58l3.01-5.22a9.757,9.757,0,0,1,2.79,2.79ZM20.98,11a9.462,9.462,0,0,1-1.02,3.81L14.74,11.8a3.166,3.166,0,0,0,.22-.8h6.02a4.18,4.18,0,0,0,.02-.5,4.18,4.18,0,0,0-.02-.5H14.96a3.166,3.166,0,0,0-.22-.8l5.22-3.01A9.462,9.462,0,0,1,20.98,10h.52v1Z"/></svg>