<svg xmlns="http://www.w3.org/2000/svg" width="37" height="25" viewBox="0 0 37 25"><title>audience--large</title><path d="M8.5,16a4.269,4.269,0,0,0,4-4.5v-1A4.269,4.269,0,0,0,8.5,6a4.269,4.269,0,0,0-4,4.5v1A4.269,4.269,0,0,0,8.5,16Zm-3-5.5A3.271,3.271,0,0,1,8.5,7a3.271,3.271,0,0,1,3,3.5v1a3.271,3.271,0,0,1-3,3.5,3.271,3.271,0,0,1-3-3.5Z"/><path d="M22.5,5.5v-1a4.269,4.269,0,0,0-4-4.5,4.269,4.269,0,0,0-4,4.5v1a4.269,4.269,0,0,0,4,4.5A4.269,4.269,0,0,0,22.5,5.5ZM18.5,9a3.271,3.271,0,0,1-3-3.5v-1a3.271,3.271,0,0,1,3-3.5,3.271,3.271,0,0,1,3,3.5v1A3.271,3.271,0,0,1,18.5,9Z"/><path d="M12.5,16.8a.5.5,0,0,0,0,1c1.9,0,3.5,2.3,3.5,4.2v2H1V22c0-1.9,1.6-4.2,3.5-4.2a.5.5,0,1,0,0-1C2,16.8,0,19.6,0,22v3H17V22C17,19.6,15,16.8,12.5,16.8Z"/><path d="M28.5,16a4.269,4.269,0,0,0,4-4.5v-1a4.269,4.269,0,0,0-4-4.5,4.269,4.269,0,0,0-4,4.5v1A4.269,4.269,0,0,0,28.5,16Zm-3-5.5a3.271,3.271,0,0,1,3-3.5,3.271,3.271,0,0,1,3,3.5v1a3.271,3.271,0,0,1-3,3.5,3.271,3.271,0,0,1-3-3.5Z"/><path d="M32.5,16.8a.5.5,0,1,0,0,1c1.9,0,3.5,2.3,3.5,4.2v2H21V22c0-1.9,1.6-4.2,3.5-4.2a.5.5,0,1,0,0-1C22,16.8,20,19.6,20,22v3H37V22C37,19.6,35,16.8,32.5,16.8Z"/></svg>