<?xml version="1.0" encoding="utf-8"?>
<!-- Generator: Adobe Illustrator 23.0.1, SVG Export Plug-In . SVG Version: 6.00 Build 0)  -->
<svg version="1.1" id="Layer_1" xmlns="http://www.w3.org/2000/svg" xmlns:xlink="http://www.w3.org/1999/xlink" x="0px" y="0px"
	 viewBox="0 0 51 38" style="enable-background:new 0 0 51 38;" xml:space="preserve">
<title>balance--large</title>
<path d="M8.6,16.2c4.5,0,8.1-3.6,8.1-8.1S13.1,0,8.6,0S0.5,3.6,0.5,8.1S4.1,16.2,8.6,16.2z M1.5,8.1C1.5,4.2,4.7,1,8.6,1
	s7.1,3.2,7.1,7.1s-3.2,7.1-7.1,7.1S1.5,12.1,1.5,8.1z"/>
<path d="M51,35V9c0-1.1-0.9-1.5-2-1.5H18.5c0,0.3,0,0.6,0,0.9v0.1H49c0.6,0,1-0.1,1,0.5v4.5H17.1c-0.2,0.3-0.5,0.7-0.7,1H50V35
	c0,0.6-0.4,1.5-1,1.5H8c-0.6,0-1-0.9-1-1.5V18c-0.3-0.1-0.7-0.1-1-0.2V35c0,1.1,0.9,2.5,2,2.5h41C50.1,37.5,51,36.1,51,35z"/>
<path d="M17.5,19.5c-1.4,0.1-2.5,1.2-2.5,2.6v7c0,1.3,1,2.4,2.3,2.4c0,0,0,0,0,0h0.1l4.2,0c0.9,0.1,1.8-0.3,2.5-0.9l9-8.9
	c0.7-0.7,1.5-1.1,2.5-1.2l3.9,0c0.9,0.1,1.5,0.8,1.5,1.6v7c0,0.8-0.6,1.4-1.4,1.4c0,0,0,0,0,0c0,0-0.1,0-0.1,0h-3.5
	c-0.3-2-2.2-3.3-4.1-3c-2,0.3-3.3,2.2-3,4.1s2.2,3.3,4.1,3c1.6-0.3,2.8-1.5,3-3.1h3.4c1.3,0,2.4-1,2.5-2.3c0,0,0,0,0,0
	c0,0,0-0.1,0-0.1v-7c0-1.4-1.1-2.5-2.5-2.5l-3.9,0c-1.2,0-2.3,0.5-3.2,1.4l-9,8.9c-0.5,0.5-1.1,0.7-1.7,0.7l-4.2,0
	c-0.8,0-1.5-0.7-1.5-1.5c0,0,0,0,0,0v-7c0-0.8,0.6-1.5,1.5-1.6H21v0c0.2,2,2,3.4,4,3.2s3.4-2,3.2-4s-2-3.4-4-3.2
	c-1.7,0.2-3,1.5-3.2,3.2v-0.2H17.5z M32.6,33.7c-1.4,0-2.6-1.2-2.6-2.6s1.2-2.6,2.6-2.6s2.6,1.2,2.6,2.6S34,33.7,32.6,33.7
	L32.6,33.7z M24.5,17.5c1.4,0,2.6,1.2,2.6,2.6s-1.2,2.6-2.6,2.6c-1.4,0-2.6-1.2-2.6-2.6S23.1,17.5,24.5,17.5L24.5,17.5z"/>
<path d="M11,11.2c-0.6,0.3-1.2,0.5-1.9,0.5c-1.5,0-2.8-0.9-3.4-2.3H9l0.5-1H5.4c0-0.2,0-0.3,0-0.5c0-0.2,0-0.3,0-0.5H10l0.5-1H5.7
	c0.8-1.9,3-2.8,4.9-1.9c0.3,0.1,0.5,0.2,0.7,0.4l0.4-0.7C9.6,2.8,6.8,3.4,5.4,5.4C5.2,5.8,5,6.1,4.9,6.5H3.5L3,7.5h1.6
	c0,0.2,0,0.3-0.1,0.5c0,0.2,0,0.3,0.1,0.5H3.5L3,9.5h1.9c0.8,2.4,3.4,3.6,5.7,2.8c0.1,0,0.3-0.1,0.4-0.2L11,11.2z"/>
</svg>
