<svg xmlns="http://www.w3.org/2000/svg" width="27" height="23" viewBox="0 0 27 23"><title>small_basket</title><path d="M17.5,13a.5.5,0,0,0-.5.5v6a.5.5,0,1,0,1,0v-6A.5.5,0,0,0,17.5,13Z"/><path d="M13.5,13a.5.5,0,0,0-.5.5v6a.5.5,0,1,0,1,0v-6A.5.5,0,0,0,13.5,13Z"/><path d="M9.5,13a.5.5,0,0,0-.5.5v6a.5.5,0,0,0,1,0v-6A.5.5,0,0,0,9.5,13Z"/><path d="M27,9a2,2,0,0,0-2-2H23.688L15.829.124a.5.5,0,0,0-.658.753l7,6.124H4.831l7-6.124a.5.5,0,0,0-.658-.753L3.312,7H2a2,2,0,1,0,0,4h.112l.78,10.716A1.484,1.484,0,0,0,4.357,23h18.3a1.476,1.476,0,0,0,1.465-1.287L25.042,11A2,2,0,0,0,27,9ZM23.134,21.6a.481.481,0,0,1-.473.4H4.357a.475.475,0,0,1-.471-.386L3.115,11H24.039ZM25,10H2A1,1,0,1,1,2,8H25a1,1,0,1,1,0,2Z"/></svg>