<?xml version="1.0" encoding="utf-8"?>
<!-- Generator: Adobe Illustrator 23.0.1, SVG Export Plug-In . SVG Version: 6.00 Build 0)  -->
<svg version="1.1" id="Layer_1" xmlns="http://www.w3.org/2000/svg" xmlns:xlink="http://www.w3.org/1999/xlink" x="0px" y="0px"
	 viewBox="0 0 40.8 24" style="enable-background:new 0 0 40.8 24;" xml:space="preserve">
<title>bike-vault-2--large</title>
<path d="M17,22V2c0-1.1-0.9-2-2-2H2C0.9,0,0,0.9,0,2v20c0,1.1,0.9,2,2,2h13C16.1,24,17,23.1,17,22z M15,23H2c-0.6,0-1-0.4-1-1V2
	c0-0.6,0.4-1,1-1h13c0.6,0,1,0.4,1,1v20C16,22.6,15.6,23,15,23z"/>
<path d="M2.3,2.1C2,2.2,1.9,2.5,2,2.7c0,0,1,2.1,1,9.3s-0.9,9.3-0.9,9.3c-0.1,0.2,0,0.5,0.2,0.7s0.5,0,0.7-0.2c0-0.1,1-2.2,1-9.7
	S3,2.4,2.9,2.3C2.8,2,2.5,1.9,2.3,2.1z"/>
<path d="M14,12c0-7.1,0.9-9.2,0.9-9.3c0.1-0.2,0-0.5-0.2-0.7c-0.2-0.1-0.5,0-0.7,0.2C14,2.4,13,4.5,13,12s1,9.6,1.1,9.7
	c0.1,0.2,0.3,0.3,0.4,0.3c0.3,0,0.5-0.2,0.5-0.5c0-0.1,0-0.1,0-0.2C14.9,21.3,14,19.2,14,12z"/>
<path d="M35.5,12.2c-0.5,0-0.9,0.1-1.4,0.2L31,4.3C30.9,4.1,30.7,4,30.5,4h-3C27.2,4,27,4.2,27,4.5S27.2,5,27.5,5h2.7l1.9,5h-9.4
	l-1.3,2.6c-1.1-0.4-2.3-0.5-3.4-0.1v1c0.9-0.4,2-0.4,2.9,0l-1.9,3.8v0c0,0,0,0.1,0,0.1c0,0,0,0.1,0,0.1v0c0,0,0,0,0,0.1
	c0,0,0,0.1,0,0.1c0,0,0,0.1,0,0.1c0,0,0,0.1,0.1,0.1c0,0,0.1,0,0.1,0.1c0,0,0,0,0.1,0h0c0.1,0,0.1,0.1,0.2,0.1h4.2
	c-0.2,2.3-2.3,4-4.6,3.7c-0.4,0-0.7-0.1-1.1-0.3v1c0.5,0.2,1,0.2,1.5,0.2c2.7,0,5-2.1,5.2-4.8c0,0,0,0,0.1,0c0,0,0.1,0,0.1,0l5.5-5
	c0.2-0.2,0.2-0.5,0-0.7c-0.2-0.2-0.5-0.2-0.7,0l-5,4.5c-0.2-1.5-1.1-2.8-2.4-3.6l1-2.1h9.2l0.7,1.8c-2.6,1.3-3.6,4.5-2.3,7
	c1.3,2.6,4.5,3.6,7,2.3c2.6-1.3,3.6-4.5,2.3-7C39.3,13.3,37.5,12.2,35.5,12.2z M23.7,17h-3.4l1.5-3C22.9,14.6,23.6,15.8,23.7,17z
	 M35.5,21.8c-2.3,0-4.2-1.9-4.2-4.2c0-1.6,0.9-3,2.3-3.8l1.5,3.9c0.1,0.2,0.3,0.3,0.5,0.3c0.1,0,0.1,0,0.2,0
	c0.3-0.1,0.4-0.4,0.3-0.6l-1.5-3.9c0.3-0.1,0.7-0.1,1-0.1c2.3,0,4.2,1.9,4.2,4.2S37.8,21.8,35.5,21.8L35.5,21.8z"/>
<path d="M25,8c0.3,0,0.5-0.2,0.5-0.5S25.3,7,25,7h-2.5C22.2,7,22,7.2,22,7.5S22.2,8,22.5,8H25z"/>
<circle cx="8.5" cy="4.5" r="1.4"/>
</svg>
