<?xml version="1.0" encoding="utf-8"?>
<!-- Generator: Adobe Illustrator 23.0.1, SVG Export Plug-In . SVG Version: 6.00 Build 0)  -->
<svg version="1.1" id="Layer_1" xmlns="http://www.w3.org/2000/svg" xmlns:xlink="http://www.w3.org/1999/xlink" x="0px" y="0px"
	 viewBox="0 0 43.8 34" style="enable-background:new 0 0 43.8 34;" xml:space="preserve">
<title>bike-shed-account--large</title>
<path d="M37.8,19.3V16c0-0.6-0.4-1-1-1h-17c-0.6,0-1,0.4-1,1v11c0,0.6,0.4,1,1,1h12.1c0.2,0.9,0.4,1.6,0.4,1.7
	c0.1,0.4,0.3,0.8,0.6,1.1l3,3c0.2,0.2,0.5,0.2,0.7,0c0.2-0.2,0.2-0.5,0-0.7c0,0,0,0,0,0c-3-3-3-3-3-3c-0.2-0.2-0.3-0.4-0.4-0.7
	c-0.1-0.2-0.8-3.3-1.2-5.2c-0.1-0.5,0.2-0.9,0.7-1c0.5-0.2,1.1,0.1,1.2,0.7c0,0,0,0,0,0l1.4,3.7c0.1,0.2,0.3,0.3,0.5,0.3l0,0h1
	c0.6,0,1-0.4,1-1v-6.3l5,5v7.8c0,0.3,0.2,0.5,0.5,0.5s0.5-0.2,0.5-0.5v-8.2L37.8,19.3z M36.8,27h-0.7l-1.3-3.4
	c-0.3-1-1.3-1.6-2.4-1.3c-1,0.2-1.6,1.2-1.4,2.2c0.1,0.2,0.3,1.4,0.6,2.5H19.8V16h17v3h-8v1h8V27z"/>
<path d="M21.8,18v6h5v-6H21.8z M25.8,23h-3v-4h3V23z"/>
<rect x="29.8" y="21" width="6" height="1"/>
<path d="M26.4,14c0-0.2,0.1-0.3,0.1-0.5c0-2.9-2.4-5.2-5.2-5.2c-0.5,0-0.9,0.1-1.4,0.2l-3.1-8.1C16.6,0.1,16.5,0,16.2,0h-3
	c-0.3,0-0.5,0.2-0.5,0.5S13,1,13.2,1h2.7l1.9,5H8.4L7.1,8.6C6.5,8.4,5.9,8.3,5.2,8.2C2.4,8.2,0,10.6,0,13.5s2.3,5.3,5.2,5.3
	c2.7,0,5-2.1,5.3-4.8c0,0,0,0,0.1,0c0,0,0.1,0,0.1,0l5.5-5c0.2-0.2,0.2-0.5,0-0.7c-0.2-0.2-0.5-0.2-0.7,0l-5,4.5
	C10.2,11.2,9.3,9.9,8,9.1l1-2.1h9.2l0.7,1.8c-2.6,1.3-3.6,4.4-2.4,7c0.3,0.6,0.7,1.2,1.2,1.6v-1.5c-1.3-1.9-0.8-4.5,1.1-5.9
	c0.1-0.1,0.3-0.2,0.5-0.3l1.5,3.9c0.1,0.2,0.3,0.3,0.5,0.3c0.1,0,0.1,0,0.2,0c0.3-0.1,0.4-0.4,0.3-0.6l-1.5-3.9
	c0.3-0.1,0.7-0.1,1-0.1c2.3,0,4.2,1.9,4.2,4.2c0,0.2,0,0.3-0.1,0.5H26.4z M5.2,17.8c-2.3,0-4.3-1.9-4.3-4.2c0-2.3,1.9-4.3,4.2-4.3
	c0.5,0,1,0.1,1.5,0.3l-1.9,3.8v0c0,0,0,0.1,0,0.1c0,0,0,0.1,0,0.1v0c0,0,0,0,0,0.1c0,0,0,0.1,0,0.1c0,0,0,0.1,0,0.1
	c0,0,0,0.1,0.1,0.1c0,0,0.1,0,0.1,0.1c0,0,0,0,0.1,0h0C5.1,14,5.2,14,5.2,14h4.2C9.2,16.1,7.4,17.7,5.2,17.8z M9.4,13H6.1l1.5-3
	C8.6,10.6,9.3,11.8,9.4,13z"/>
<path d="M8.2,3C8,3,7.8,3.2,7.8,3.5S8,4,8.2,4h2.5c0.3,0,0.5-0.2,0.5-0.5S11,3,10.8,3H8.2z"/>
</svg>
