<svg xmlns="http://www.w3.org/2000/svg" width="26.5" height="18.75" viewBox="0 0 26.5 18.75"><defs><style>.a{fill:none;stroke:#000;stroke-linecap:round;stroke-linejoin:round;}</style></defs><title>bike--small</title><path d="M5.25,18.75A5.25,5.25,0,1,1,10.5,13.5,5.256,5.256,0,0,1,5.25,18.75Zm0-9.5A4.25,4.25,0,1,0,9.5,13.5,4.255,4.255,0,0,0,5.25,9.25Z"/><path d="M21.25,18.75A5.25,5.25,0,1,1,26.5,13.5,5.256,5.256,0,0,1,21.25,18.75Zm0-9.5A4.25,4.25,0,1,0,25.5,13.5,4.255,4.255,0,0,0,21.25,9.25Z"/><path d="M5.25,14a.5.5,0,0,1-.447-.724L8.441,6H18.25a.5.5,0,1,1,0,1H9.059L5.7,13.724A.5.5,0,0,1,5.25,14Z"/><path d="M21.25,14a.5.5,0,0,1-.467-.32L15.907,1H13.25a.5.5,0,1,1,0-1h3a.5.5,0,0,1,.467.32l5,13a.5.5,0,0,1-.287.646A.5.5,0,0,1,21.25,14Z"/><path class="a" d="M16.161,6.578"/><path d="M10.75,4H8.25a.5.5,0,1,1,0-1h2.5a.5.5,0,1,1,0,1Z"/><path d="M10.25,14h-5a.5.5,0,0,1,0-1h5a.5.5,0,0,1,0,1Z"/><path d="M10.25,14a.5.5,0,0,1-.336-.871l5.5-5a.5.5,0,1,1,.673.741l-5.5,5A.5.5,0,0,1,10.25,14Z"/></svg>