<?xml version="1.0" encoding="utf-8"?>
<!-- Generator: Adobe Illustrator 23.0.1, SVG Export Plug-In . SVG Version: 6.00 Build 0)  -->
<svg version="1.1" id="Layer_1" xmlns="http://www.w3.org/2000/svg" xmlns:xlink="http://www.w3.org/1999/xlink" x="0px" y="0px"
	 viewBox="0 0 34 33.1" style="enable-background:new 0 0 34 33.1;" xml:space="preserve">
<title>bike-shed--large</title>
<path d="M0,0L0,3l21.3,2c3.4,0.4,6.1,3,6.6,6.3l1.5,9.9c0,0,0,0,0,0L18.2,32.2c-0.2,0.2-0.2,0.5,0,0.7s0.5,0.2,0.7,0l10.6-10.6
	L31.1,33H34l0-33L0,0z M33,32h-1l-3.1-20.9c-0.6-3.8-3.7-6.7-7.5-7.2L1,2L1,1l32,0L33,32z"/>
<path d="M21.5,21.2c-0.5,0-0.9,0.1-1.4,0.2L17,13.3c-0.1-0.2-0.3-0.3-0.5-0.3h-3c-0.3,0-0.5,0.2-0.5,0.5s0.2,0.5,0.5,0.5h2.7l1.9,5
	H8.7l-1.3,2.6c-0.6-0.2-1.2-0.4-1.9-0.4c-2.9,0-5.3,2.3-5.3,5.2s2.3,5.3,5.2,5.3c2.7,0,5-2.1,5.3-4.8c0,0,0,0,0.1,0c0,0,0.1,0,0.1,0
	l5.5-5c0.2-0.2,0.2-0.5,0-0.7c-0.2-0.2-0.5-0.2-0.7,0l-5,4.5c-0.2-1.5-1.1-2.8-2.4-3.6l1-2.1h9.2l0.7,1.8c-2.6,1.3-3.7,4.4-2.4,7
	c0.4,0.8,1,1.4,1.7,2l0.7-0.7c-1.9-1.3-2.5-3.9-1.2-5.9c0.4-0.6,0.9-1.1,1.6-1.4l1.5,3.9c0.1,0.2,0.3,0.3,0.5,0.3c0.1,0,0.1,0,0.2,0
	c0.3-0.1,0.4-0.4,0.3-0.6l-1.5-3.9c0.3-0.1,0.7-0.1,1-0.1c1.3,0,2.5,0.6,3.3,1.7l0.7-0.7C24.5,22,23.1,21.3,21.5,21.2z M5.5,30.8
	c-2.3,0-4.3-1.9-4.3-4.2c0-2.3,1.9-4.3,4.2-4.3c0.5,0,1,0.1,1.5,0.3l-1.9,3.8v0c0,0,0,0.1,0,0.1c0,0,0,0.1,0,0.1l0,0c0,0,0,0,0,0.1
	c0,0,0,0.1,0,0.1c0,0,0,0.1,0,0.1c0,0,0,0.1,0.1,0.1c0,0,0.1,0,0.1,0.1c0,0,0,0,0.1,0h0C5.4,27,5.4,27,5.5,27h4.2
	C9.5,29.1,7.6,30.7,5.5,30.8z M9.7,26H6.3l1.5-3C8.9,23.6,9.6,24.8,9.7,26z"/>
<path d="M11,17c0.3,0,0.5-0.2,0.5-0.5S11.3,16,11,16H8.5C8.2,16,8,16.2,8,16.5S8.2,17,8.5,17H11z"/>
</svg>
