<svg xmlns="http://www.w3.org/2000/svg" width="37" height="42.028" viewBox="0 0 37 42.028"><title>bike-vault--large</title><path d="M10.5,37.778a5.25,5.25,0,1,1,5.25-5.25A5.256,5.256,0,0,1,10.5,37.778Zm0-9.5a4.25,4.25,0,1,0,4.25,4.25A4.255,4.255,0,0,0,10.5,28.278Z"/><path d="M26.5,37.778a5.25,5.25,0,1,1,5.25-5.25A5.256,5.256,0,0,1,26.5,37.778Zm0-9.5a4.25,4.25,0,1,0,4.25,4.25A4.255,4.255,0,0,0,26.5,28.278Z"/><path d="M10.5,33.028a.5.5,0,0,1-.448-.724l3.639-7.276H23.5a.5.5,0,1,1,0,1H14.309l-3.361,6.724A.5.5,0,0,1,10.5,33.028Z"/><path d="M26.5,33.028a.5.5,0,0,1-.467-.32l-4.877-12.68H18.5a.5.5,0,1,1,0-1h3a.5.5,0,0,1,.467.32l5,13a.5.5,0,0,1-.467.68Z"/><path d="M16,23.028H13.5a.5.5,0,1,1,0-1H16a.5.5,0,1,1,0,1Z"/><path d="M15.5,33.028h-5a.5.5,0,1,1,0-1h5a.5.5,0,1,1,0,1Z"/><path d="M15.5,33.028a.5.5,0,0,1-.336-.871l5.5-5a.5.5,0,0,1,.672.741l-5.5,5A.5.5,0,0,1,15.5,33.028Z"/><path d="M36,16.028v25H1v-25H36m1-1H0v27H37v-27Z"/><path d="M13,10.07A5.035,5.035,0,1,1,13,0a4.862,4.862,0,0,1,4.714,3.028h9.513l1.467,1.509-3.105,3.72L23.982,7.2,23,7.592l-1.013-.426L19.921,8.188,18.782,7.035l-1.176,0A5.043,5.043,0,0,1,13,10.07ZM13,1a4.035,4.035,0,1,0,3.793,5.372l.118-.332L19.2,6.034l.908.918,1.9-.9,1.007.42.985-.4,1.42.843,1.936-2.318-.543-.561H16.993l-.11-.351A3.829,3.829,0,0,0,13,1Z"/><path d="M11,4.028a1,1,0,1,0,1,1,1,1,0,0,0-1-1Z"/></svg>