<svg xmlns="http://www.w3.org/2000/svg" width="26.5" height="45" viewBox="0 0 26.5 45"><title>bike-dog--large</title><path d="M5.25,18.75a5.239,5.239,0,0,0,5.2-4.8.424.424,0,0,0,.056-.038.5.5,0,0,0,.076-.047l5.5-5a.5.5,0,0,0-.672-.741l-5,4.543a5.234,5.234,0,0,0-2.389-3.61L9.059,7h9.155l.7,1.823a5.625,5.625,0,1,0,.934-.359L16.717.32A.5.5,0,0,0,16.25,0h-3a.5.5,0,0,0,0,1h2.656l1.923,5H8.441L7.134,8.614A5.2,5.2,0,0,0,5.25,8.25a5.25,5.25,0,0,0,0,10.5Zm16-9.5a4.307,4.307,0,1,1-1.975.509l1.508,3.92A.5.5,0,0,0,21.25,14a.52.52,0,0,0,.18-.033.5.5,0,0,0,.287-.646L20.207,9.4A4.135,4.135,0,0,1,21.25,9.25ZM9.449,13H6.059L7.582,9.954A4.236,4.236,0,0,1,9.449,13ZM5.25,9.25a4.213,4.213,0,0,1,1.433.266L4.8,13.276l0,.015a.5.5,0,0,0-.026.1.526.526,0,0,0-.019.1l0,.016a.45.45,0,0,0,.015.073.44.44,0,0,0,.021.1.435.435,0,0,0,.048.084.588.588,0,0,0,.052.078.451.451,0,0,0,.085.066.471.471,0,0,0,.056.044l.014,0A.475.475,0,0,0,5.25,14h4.2a4.24,4.24,0,1,1-4.2-4.75Z"/><path d="M8.25,4h2.5a.5.5,0,0,0,0-1H8.25a.5.5,0,0,0,0,1Z"/><path d="M2.5,29.125a.5.5,0,0,0-.707.707L4.96,33H16.423l2.327-2.274V28.707L20.6,26.853a.5.5,0,0,0-.707-.707L17.75,28.293v2.012L16.015,32H5.374Z"/><path d="M25.244,29H22.461l-.84-.859a.539.539,0,0,0-.362-.15L20.245,28a.5.5,0,0,0,0,1h0l.8-.008.838.857A.494.494,0,0,0,22.25,30h2.5l0,.291L23,32h-1.8a.5.5,0,0,0-.357.15l-2.958,3.021a.5.5,0,0,0-.143.35v2.938a.5.5,0,0,0,.146.353l5.062,5.073a.5.5,0,1,0,.708-.706L18.75,38.251V35.725L21.418,33h1.79a.5.5,0,0,0,.35-.143l2.042-2a.5.5,0,0,0,.15-.36l-.006-1A.5.5,0,0,0,25.244,29Z"/><path d="M2.75,41.717l1.869-2.046a.5.5,0,0,0,.131-.338v-5.8a.5.5,0,0,0-1,0v5.608L1.881,41.185a.5.5,0,0,0-.131.338V45h1Z"/><path d="M16.75,45V38.5a.5.5,0,0,0-.5-.5H10.463L8.6,36.141a.5.5,0,0,0-.854.353v1.834L5.9,40.1a.5.5,0,0,0-.008.713l3.082,3.1a.5.5,0,1,0,.709-.706L6.964,40.466,8.6,38.9a.5.5,0,0,0,.154-.359V37.7L9.9,38.854a.5.5,0,0,0,.354.146H15.75v6Z"/><path d="M10.876,25.833,15.9,30.854l.707-.707-5.021-5.021a.5.5,0,0,0-.707.707Z"/></svg>