<?xml version="1.0" encoding="utf-8"?>
<!-- Generator: Adobe Illustrator 23.0.1, SVG Export Plug-In . SVG Version: 6.00 Build 0)  -->
<svg version="1.1" id="Layer_1" xmlns="http://www.w3.org/2000/svg" xmlns:xlink="http://www.w3.org/1999/xlink" x="0px" y="0px"
	 viewBox="0 0 39.7 31.7" style="enable-background:new 0 0 39.7 31.7;" xml:space="preserve">
<title>bike-shed-2--large</title>
<path d="M36.7,12v-2c-0.1-1.8-1.7-3.1-3.5-3c-0.3,0-0.5,0.2-0.5,0.5S32.9,8,33.2,8c1.2,0,2.5,0.8,2.5,2v2H36.7z"/>
<path d="M27.7,12v-2c0-1.2,1.3-2,2.5-2c0.3,0,0.5-0.2,0.5-0.5S30.5,7,30.2,7c-1.7,0-3.5,1.2-3.5,3v2H27.7z"/>
<path d="M34.7,3c0-1.7-1.3-3-3-3c-1.7,0-3,1.3-3,3s1.3,3,3,3c1.6,0,3-1.3,3-2.9v0C34.7,3.1,34.7,3,34.7,3z M31.7,5c-1.1,0-2-0.9-2-2
	s0.9-2,2-2c1.1,0,2,0.9,2,2S32.8,5,31.7,5z"/>
<path d="M26.4,26.5c0-2.9-2.3-5.2-5.2-5.2c-0.5,0-0.9,0.1-1.4,0.2l-3.1-8.1c-0.1-0.2-0.3-0.3-0.5-0.3h-3c-0.3,0-0.5,0.2-0.5,0.5
	s0.2,0.5,0.5,0.5h2.7l1.9,5H8.4l-1.3,2.6c-0.6-0.2-1.2-0.4-1.9-0.4c-2.9,0-5.2,2.3-5.2,5.2c0.1,2.8,2.4,5.1,5.2,5.2
	c2.7,0,5-2.1,5.2-4.8h0.2l5.5-5c0.2-0.2,0.2-0.5,0-0.7c-0.2-0.2-0.5-0.2-0.7,0l-5,4.5c-0.2-1.5-1.1-2.8-2.4-3.6L9,20h9.2l0.7,1.8
	c-1.8,0.9-2.9,2.7-2.9,4.7c0,2.9,2.3,5.2,5.2,5.2C24.1,31.7,26.4,29.4,26.4,26.5L26.4,26.5z M5.2,30.8c-2.3,0-4.2-1.9-4.2-4.2
	s1.9-4.2,4.2-4.2c0.5,0,1,0.1,1.4,0.3l-1.9,3.8l0,0v0.2l0,0V27c0,0.1,0,0.1,0.1,0.1h0c0.1,0,0.1,0,0.1,0.1l0,0h4.5
	C9,29.2,7.3,30.7,5.2,30.8z M9.4,26H6l1.5-3C8.5,23.7,9.2,24.8,9.4,26z M16.9,26.5c0-1.6,0.9-3,2.3-3.7l1.5,3.9
	c0.1,0.2,0.3,0.3,0.5,0.3h0.2c0.2-0.1,0.4-0.3,0.3-0.5c0,0,0,0,0-0.1l-1.6-4c0.3-0.1,0.7-0.1,1-0.1c2.3,0,4.2,1.9,4.2,4.2
	c0,2.3-1.9,4.2-4.2,4.2C18.8,30.7,16.9,28.9,16.9,26.5C16.9,26.6,16.9,26.5,16.9,26.5z"/>
<path d="M8.2,17h2.5c0.3,0,0.5-0.2,0.5-0.5S11,16,10.7,16H8.2c-0.3,0-0.5,0.2-0.5,0.5S7.9,17,8.2,17z"/>
<path d="M39.7,31V15c0-1.1-0.9-2-2-2h-13c-1.1,0-2,0.9-2,2v5h1v-5c0-0.5,0.4-1,0.9-1c0,0,0,0,0,0c0,0,0.1,0,0.1,0h13
	c0.5,0,1,0.4,1,0.9c0,0,0,0,0,0c0,0,0,0.1,0,0.1v16H39.7z"/>
</svg>
