<?xml version="1.0" encoding="utf-8"?>
<!-- Generator: Adobe Illustrator 23.0.1, SVG Export Plug-In . SVG Version: 6.00 Build 0)  -->
<svg version="1.1" id="Layer_1" xmlns="http://www.w3.org/2000/svg" xmlns:xlink="http://www.w3.org/1999/xlink" x="0px" y="0px"
	 viewBox="0 0 46 33.5" style="enable-background:new 0 0 46 33.5;" xml:space="preserve">
<title>bike-shed-year--large</title>
<path d="M12,0v2.9l21.2,1.8c3.4,0.4,6.1,3,6.6,6.4l1.5,10L30.3,32.2c-0.2,0.2-0.2,0.5,0,0.7s0.5,0.2,0.7,0c0,0,0,0,0.1-0.1
	l10.5-10.6L43.1,33H46V0H12z M45,32h-1.1l-3.1-21c-0.6-3.8-3.7-6.8-7.5-7.2L13,2V1h32V32z"/>
<path d="M33.5,21.2L33.5,21.2c-0.5,0-1,0.1-1.4,0.2l-3.2-8.1c-0.1-0.2-0.3-0.3-0.5-0.3l0,0l-3,0c-0.3,0-0.5,0.2-0.5,0.5
	s0.2,0.5,0.5,0.5l0,0l2.7,0l1.9,5l-9.4,0l-1.3,2.6c-0.6-0.2-1.2-0.3-1.9-0.4h0c-2.9,0-5.2,2.4-5.2,5.3c0,2.9,2.4,5.2,5.3,5.2h0
	c2.7,0,5-2.1,5.2-4.8c0,0,0,0,0.1,0c0,0,0.1,0,0.1,0l5.5-5c0.2-0.2,0.2-0.5,0.1-0.7c-0.2-0.2-0.5-0.2-0.7-0.1c0,0,0,0,0,0l-5,4.6
	c-0.2-1.5-1.1-2.8-2.4-3.6l1-2.1l9.2,0l0.7,1.8c-2.6,1.3-3.6,4.4-2.3,7c0.4,0.8,1,1.4,1.7,1.9l0.7-0.7c-1.9-1.3-2.5-3.9-1.2-5.8
	c0.4-0.6,1-1.1,1.6-1.5l1.5,3.9c0.1,0.2,0.3,0.3,0.5,0.3c0.1,0,0.1,0,0.2,0c0.3-0.1,0.4-0.4,0.3-0.6l-1.5-3.9c0.3-0.1,0.7-0.1,1-0.1
	h0c1.3,0,2.5,0.6,3.3,1.6l0.7-0.7C36.6,21.9,35.1,21.2,33.5,21.2z M20.6,29.5c-1.7,1.7-4.3,1.7-6,0s-1.7-4.3,0-6
	c0.8-0.8,1.9-1.3,3-1.3h0c0.5,0,1,0.1,1.4,0.3l-1.9,3.8v0c0,0,0,0.1,0,0.1c0,0,0,0.1,0,0.1v0c0,0,0,0,0,0.1c0,0,0,0.1,0,0.1
	c0,0,0,0.1,0,0.1c0,0,0,0.1,0.1,0.1c0,0,0.1,0,0.1,0.1c0,0,0,0,0.1,0h0c0.1,0,0.1,0,0.2,0l0,0l4.2,0C21.6,28,21.2,28.9,20.6,29.5z
	 M20.5,23.5c0.7,0.7,1.1,1.6,1.2,2.5l-3.4,0l1.5-3.1C20.1,23.1,20.3,23.3,20.5,23.5z"/>
<path d="M20.5,17l2.5,0c0.3,0,0.5-0.2,0.5-0.5S23.3,16,23,16l0,0l-2.5,0c-0.3,0-0.5,0.2-0.5,0.5S20.2,17,20.5,17z"/>
<path d="M6.5,11C6.3,11,6,11.2,6,11.5S6.3,12,6.5,12c1.2-0.1,2.3,0.8,2.5,2v7c0,0.3,0.2,0.5,0.5,0.5S10,21.3,10,21v-7
	C9.9,12.2,8.3,10.9,6.5,11z"/>
<path d="M0.5,21.5C0.8,21.5,1,21.3,1,21v-7c0.2-1.2,1.3-2.1,2.5-2C3.8,12,4,11.8,4,11.5S3.8,11,3.5,11C1.8,11,0,12.1,0,14v7
	C0,21.3,0.2,21.5,0.5,21.5z"/>
<path d="M7.5,33.5C7.8,33.5,8,33.3,8,33V21H7v12C7,33.3,7.2,33.5,7.5,33.5z"/>
<path d="M2.5,33.5C2.8,33.5,3,33.3,3,33V21H2v12C2,33.3,2.2,33.5,2.5,33.5z"/>
<path d="M8,7H7c0,1.1-0.9,2-2,2S3,8.1,3,7H2c0,1.7,1.4,3,3,3S8,8.7,8,7z"/>
<path d="M7.8,6l1.4-3H0.9l1.3,3H7.8z M7.6,4L7.2,5H2.8L2.4,4H7.6z"/>
<path d="M6.6,13.6l-4.5,4.5c-0.2,0.2-0.2,0.5,0,0.7c0.2,0.2,0.5,0.2,0.7,0l4.5-4.5c0.2-0.2,0.2-0.5,0-0.7
	C7.2,13.5,6.8,13.5,6.6,13.6L6.6,13.6z"/>
</svg>
