<svg xmlns="http://www.w3.org/2000/svg" width="31.008" height="31" viewBox="0 0 31.008 31"><title>breakfast--medium</title><path d="M27.047,1.492l-4.6,1.062L22.1,1.813A3.28,3.28,0,0,0,17.933.241,30.885,30.885,0,0,0,13.6,2.3L13.5,2.134a2.259,2.259,0,0,0-3.119-.692q-.075.048-.146.1A35.58,35.58,0,0,0,5.464,5.461,35.368,35.368,0,0,0,1.553,10.21a2.258,2.258,0,0,0,.42,3.165q.078.06.161.112l.17.106A30.821,30.821,0,0,0,.241,17.925,3.283,3.283,0,0,0,1.824,22.1l.73.341-1.062,4.6a3.236,3.236,0,0,0,5.431,3.024,3.275,3.275,0,0,0,.494-.634l2.212-3.686.281.132a1.756,1.756,0,0,0,2.019-.332,1.708,1.708,0,0,0,.129-.144l3.018-3.869.341.217a1.736,1.736,0,0,0,2.172-.238l3.927-3.927a1.736,1.736,0,0,0,.238-2.172l-.213-.343,3.87-3.019a1.786,1.786,0,0,0,.142-.127,1.752,1.752,0,0,0,.335-2.006l-.137-.293L29.437,7.41a3.28,3.28,0,0,0,.634-.494,3.236,3.236,0,0,0-3.024-5.431ZM6.556,28.92a2.23,2.23,0,0,1-4.085-1.648l1.014-4.394,5.226,2.445Zm4.714-4.137a.755.755,0,0,1-.922.2L2.263,21.2a2.29,2.29,0,0,1-1.08-2.915,29.727,29.727,0,0,1,1.972-4.148L14.221,21Zm9.641-8.827a.746.746,0,0,1-.1.922L16.879,20.81a.737.737,0,0,1-.922.1l-.736-.457v-.008L3.372,13.087l-.121-.077-.577-.367a1.24,1.24,0,0,1-.563-.833A1.266,1.266,0,0,1,2.368,10.8a35.155,35.155,0,0,1,3.8-4.627,35.21,35.21,0,0,1,4.627-3.8l.026-.019a1.254,1.254,0,0,1,1.758.234q.033.043.062.089l7.8,12.557Zm3.881-4.691L21.011,14.21,14.136,3.154a29.805,29.805,0,0,1,4.147-1.972,2.288,2.288,0,0,1,2.909,1.069l3.792,8.108a.738.738,0,0,1-.2.906Zm5.1-7.327a2.217,2.217,0,0,1-.968,2.617l-3.6,2.158L22.878,3.484,27.272,2.47a2.221,2.221,0,0,1,2.617,1.468Z"/></svg>