<svg xmlns="http://www.w3.org/2000/svg" width="21" height="22.383" viewBox="0 0 21 22.383"><title>building--small</title><rect x="15" y="8.383" width="1" height="1"/><rect x="15" y="6.383" width="1" height="1"/><rect x="15" y="10.383" width="1" height="1"/><rect x="15" y="12.383" width="1" height="1"/><rect x="15" y="14.383" width="1" height="1"/><rect x="15" y="18.383" width="1" height="1"/><rect x="15" y="16.383" width="1" height="1"/><path d="M19,21.383V5.6a1.5,1.5,0,0,0-1.025-1.423L13,2.523V1.5A1.5,1.5,0,0,0,10.829.16l-8,4A1.491,1.491,0,0,0,2,5.5V21.383H0v1H21v-1Zm-16,0V5.5a.5.5,0,0,1,.276-.447l8-4A.5.5,0,0,1,12,1.5V21.383Zm10,0V3.577L17.658,5.13A.5.5,0,0,1,18,5.6V21.383Z"/><rect x="7" y="8.383" width="1" height="1"/><rect x="7" y="10.383" width="1" height="1"/><rect x="7" y="12.383" width="1" height="1"/><rect x="7" y="14.383" width="1" height="1"/><rect x="7" y="18.383" width="1" height="1"/><rect x="7" y="16.383" width="1" height="1"/><rect x="5" y="8.383" width="1" height="1"/><rect x="5" y="10.383" width="1" height="1"/><rect x="5" y="12.383" width="1" height="1"/><rect x="5" y="14.383" width="1" height="1"/><rect x="5" y="18.383" width="1" height="1"/><rect x="5" y="16.383" width="1" height="1"/><rect x="9" y="8.383" width="1" height="1"/><rect x="7" y="6.383" width="1" height="1"/><rect x="5" y="6.383" width="1" height="1"/><rect x="9" y="6.383" width="1" height="1"/><rect x="9" y="10.383" width="1" height="1"/><rect x="9" y="12.383" width="1" height="1"/><rect x="9" y="14.383" width="1" height="1"/><rect x="9" y="18.383" width="1" height="1"/><rect x="9" y="16.383" width="1" height="1"/></svg>