<svg xmlns="http://www.w3.org/2000/svg" width="17" height="19" viewBox="0 0 17 19"><title>bus--small</title><circle cx="6.5" cy="12.5" r="1"/><circle cx="12.5" cy="12.5" r="1"/><path d="M15,1a1,1,0,0,1,1,1V14a1,1,0,0,1-1,1H4a1,1,0,0,1-1-1V2A1,1,0,0,1,4,1H15m0-1H4A2,2,0,0,0,2,2V14a2,2,0,0,0,2,2H15a2,2,0,0,0,2-2V2a2,2,0,0,0-2-2Z"/><path d="M14,1V9H5V1h9m0-1H5A1,1,0,0,0,4,1V9a1,1,0,0,0,1,1h9a1,1,0,0,0,1-1V1a1,1,0,0,0-1-1Z"/><path d="M.5,6.5h0A.5.5,0,0,1,0,6V3.5A.5.5,0,0,1,.5,3h0a.5.5,0,0,1,.5.5V6A.5.5,0,0,1,.5,6.5Z"/><path d="M4,18.25a.75.75,0,0,0,.75.75h.5A.75.75,0,0,0,6,18.25V17H4ZM13,17v1.25a.75.75,0,0,0,.75.75h.5a.75.75,0,0,0,.75-.75V17Z"/></svg>