<?xml version="1.0" encoding="utf-8"?>
<!-- Generator: Adobe Illustrator 23.0.1, SVG Export Plug-In . SVG Version: 6.00 Build 0)  -->
<svg version="1.1" id="Layer_1" xmlns="http://www.w3.org/2000/svg" xmlns:xlink="http://www.w3.org/1999/xlink" x="0px" y="0px"
	 viewBox="0 0 45 35.5" style="enable-background:new 0 0 45 35.5;" xml:space="preserve">
<title>business-card--large</title>
<path d="M44.3,18.1c-0.5-0.5-8.2-8.2-9.3-9.3V2c0-1.1-0.9-2-2-2H2C0.9,0,0,0.9,0,2v19c0,1.1,0.9,2,2,2h20.9c0.5,2.6,1.1,5.2,1.2,5.4
	c0.2,0.7,0.5,1.4,1.1,1.9c0.1,0.1,5,5,5,5c0.2,0.2,0.5,0.2,0.7,0s0.2-0.5,0-0.7l0,0l-5-5c-0.4-0.4-0.7-0.9-0.8-1.5
	c-0.1-0.4-1.8-8.6-2.4-11.7c-0.2-1.1,0.5-2.2,1.6-2.5c1.2-0.4,2.5,0.4,2.8,1.6c0,0,0,0,0,0l2.5,7c0.1,0.2,0.3,0.3,0.5,0.3v0h3
	c1.1,0,2-0.9,2-2V10.2c2.3,2.3,8.2,8.2,8.7,8.7c0.4,0.3,0.4,0.8,0.4,1.7L44,35c0,0.3,0.2,0.5,0.5,0.5S45,35.3,45,35V21l0-0.5
	C45.2,19.7,44.9,18.8,44.3,18.1z M1,2c0-0.6,0.4-1,1-1h31c0.6,0,1,0.4,1,1v3H1V2z M2,22c-0.6,0-1-0.4-1-1v-3h20.9
	c0.2,1,0.5,2.5,0.8,4H2z M34,21c0,0.6-0.4,1-1,1h-2.6L29,18h5V21z M34,17h-5.4l-0.4-1H34V17z M34,15h-6.1c-0.2-0.4-0.4-0.7-0.6-1H34
	V15z M34,9H21v1h13v1H14v1h20v1h-8.6c-0.4-0.1-0.8-0.1-1.2,0H19v1h3.4c-0.3,0.3-0.5,0.6-0.6,1H16v1h5.6c0,0.2,0,0.5,0,0.7
	c0,0,0,0.2,0.1,0.3H1v-1h13v-1H1v-1h16v-1H1v-1h11v-1H1v-1h18V9H1V8h15V7H1V6h33v1H18v1h16V9z"/>
</svg>
