<svg xmlns="http://www.w3.org/2000/svg" width="43" height="43" viewBox="0 0 43 43"><title>calendar-2-selected--large</title><path d="M41,4H33V1a1,1,0,0,0-2,0V4H10V1A1,1,0,0,0,8,1V4H0V41H41ZM40,40H1V5H8V7a1,1,0,0,0,2,0V5H31V7a1,1,0,0,0,2,0V5h7Z"/><rect x="8" y="12" width="2" height="2"/><rect x="16" y="12" width="2" height="2"/><rect x="23" y="12" width="2" height="2"/><rect x="31" y="12" width="2" height="2"/><rect x="16" y="19" width="2" height="2"/><rect x="31" y="19" width="2" height="2"/><rect x="8" y="26" width="2" height="2"/><rect x="16" y="26" width="2" height="2"/><rect x="23" y="19" width="2" height="2"/><rect x="31" y="26" width="2" height="2"/><rect x="8" y="33" width="2" height="2"/><rect x="16" y="33" width="2" height="2"/><rect x="23" y="33" width="2" height="2"/><path d="M6,23h6V17H6Zm2-4h2v2H8Z"/><path d="M21,30h6V24H21Zm2-4h2v2H23Z"/><polygon points="42 6 42 42 2 42 2 43 43 43 43 6 42 6"/></svg>