<svg xmlns="http://www.w3.org/2000/svg" width="19" height="19" viewBox="0 0 19 19"><title>calendar--small</title><path d="M18,3V18H1V3H18m1-1H0V19H19V2Z"/><path d="M3.5,4h0A.5.5,0,0,1,3,3.5V.5A.5.5,0,0,1,3.5,0h0A.5.5,0,0,1,4,.5v3A.5.5,0,0,1,3.5,4Z"/><path d="M15.5,4h0a.5.5,0,0,1-.5-.5V.5a.5.5,0,0,1,.5-.5h0a.5.5,0,0,1,.5.5v3A.5.5,0,0,1,15.5,4Z"/><rect x="3" y="6" width="1" height="1"/><rect x="3" y="9" width="1" height="1"/><rect x="3" y="12" width="1" height="1"/><rect x="3" y="15" width="1" height="1"/><rect x="7" y="6" width="1" height="1"/><path d="M8,9v1H7V9H8M9,8H6v3H9V8Z"/><rect x="7" y="12" width="1" height="1"/><rect x="7" y="15" width="1" height="1"/><rect x="11" y="6" width="1" height="1"/><rect x="11" y="9" width="1" height="1"/><rect x="11" y="12" width="1" height="1"/><rect x="11" y="15" width="1" height="1"/><rect x="15" y="6" width="1" height="1"/><rect x="15" y="9" width="1" height="1"/><rect x="15" y="12" width="1" height="1"/></svg>