<svg xmlns="http://www.w3.org/2000/svg" width="32" height="33" viewBox="0 0 32 33"><title>calendar--medium</title><path d="M24,4V1a1,1,0,0,0-2,0V4H10V1A1,1,0,0,0,8,1V4H0V33H32V4Zm7,28H1V5H8V7a1,1,0,0,0,2,0V5H22V7a1,1,0,0,0,2,0V5h7Z"/><rect x="8" y="12" width="2" height="2"/><rect x="8" y="18" width="2" height="2"/><rect x="8" y="24" width="2" height="2"/><rect x="22" y="12" width="2" height="2"/><rect x="22" y="18" width="2" height="2"/><rect x="15" y="12" width="2" height="2"/><rect x="15" y="18" width="2" height="2"/><rect x="15" y="24" width="2" height="2"/></svg>