<svg xmlns="http://www.w3.org/2000/svg" width="20" height="22" viewBox="0 0 20 22"><title>calendar-simple--small</title><rect x="4" y="8" width="2" height="2"/><rect x="9" y="8" width="2" height="2"/><rect x="14" y="8" width="2" height="2"/><rect x="4" y="12" width="2" height="2"/><rect x="9" y="12" width="2" height="2"/><rect x="14" y="12" width="2" height="2"/><rect x="4" y="16" width="2" height="2"/><rect x="9" y="16" width="2" height="2"/><path d="M16,3V.5a.5.5,0,0,0-1,0V3H5V.5a.5.5,0,0,0-1,0V3H0V22H20V3Zm3,18H1V4H4V5.5a.5.5,0,0,0,1,0V4H15V5.5a.5.5,0,0,0,1,0V4h3Z"/></svg>