<svg xmlns="http://www.w3.org/2000/svg" width="41" height="41" viewBox="0 0 41 41"><title>calendar--large</title><path d="M33,4V1a1,1,0,0,0-2,0V4H10V1A1,1,0,0,0,8,1V4H0V41H41V4Zm7,36H1V5H8V7a1,1,0,0,0,2,0V5H31V7a1,1,0,0,0,2,0V5h7Z"/><rect x="8" y="12" width="2" height="2"/><rect x="16" y="12" width="2" height="2"/><rect x="23" y="12" width="2" height="2"/><rect x="31" y="12" width="2" height="2"/><rect x="8" y="19" width="2" height="2"/><rect x="23" y="19" width="2" height="2"/><rect x="31" y="19" width="2" height="2"/><rect x="8" y="26" width="2" height="2"/><rect x="16" y="26" width="2" height="2"/><rect x="23" y="26" width="2" height="2"/><rect x="31" y="26" width="2" height="2"/><rect x="8" y="33" width="2" height="2"/><rect x="16" y="33" width="2" height="2"/><rect x="23" y="33" width="2" height="2"/><path d="M14,23h6V17H14Zm2-4h2v2H16Z"/></svg>