<svg xmlns="http://www.w3.org/2000/svg" width="19" height="15" viewBox="0 0 19 15"><title>car--small</title><path d="M18.5,5H17.143L15.392.915A1.645,1.645,0,0,0,14,0H5A1.635,1.635,0,0,0,3.607.915L1.857,5H.5a.5.5,0,1,0,0,1H2.517l2.01-4.691A.665.665,0,0,1,5,1h9.009a.686.686,0,0,1,.469.309L16.483,6H18.5a.5.5,0,1,0,0-1Z"/><path d="M17.5,7H17L15,9h2v3H2V9H4L2,7H1.5a.5.5,0,0,0-.5.5V12a1,1,0,0,0,1,1H2v1.5a.5.5,0,0,0,.5.5h1a.5.5,0,0,0,.5-.5V13H15v1.5a.5.5,0,0,0,.5.5h1a.5.5,0,0,0,.5-.5V13h0a1.006,1.006,0,0,0,1-1V7.5A.5.5,0,0,0,17.5,7Z"/><rect x="6" y="8" width="7" height="1"/><polygon points="14 5 5 5 4 6 15 6 14 5"/><rect x="7" y="10" width="5" height="1"/></svg>