<?xml version="1.0" encoding="utf-8"?>
<!-- Generator: Adobe Illustrator 23.0.1, SVG Export Plug-In . SVG Version: 6.00 Build 0)  -->
<svg version="1.1" id="Layer_1" xmlns="http://www.w3.org/2000/svg" xmlns:xlink="http://www.w3.org/1999/xlink" x="0px" y="0px"
	 viewBox="0 0 27 41" style="enable-background:new 0 0 27 41;" xml:space="preserve">
<title>characteristics--large</title>
<polygon points="20,4 20,5 26,5 26,40 1,40 1,5 7,5 7,4 0,4 0,41 27,41 27,4 "/>
<path d="M19,4.5C19,3.1,17.9,2,16.5,2H16V0h-5v2h-0.5C9.1,2,8,3.1,8,4.5V7h11V4.5z M18,6H9V4.5C9,3.7,9.7,3,10.5,3H12V1h3v2h1.5
	C17.3,3,18,3.7,18,4.5V6z"/>
<rect x="5" y="13" width="1" height="1"/>
<rect x="8" y="13" width="13" height="1"/>
<rect x="5" y="16" width="1" height="1"/>
<rect x="8" y="16" width="13" height="1"/>
<rect x="5" y="19" width="1" height="1"/>
<rect x="8" y="19" width="13" height="1"/>
<rect x="5" y="22" width="1" height="1"/>
<rect x="8" y="22" width="13" height="1"/>
<rect x="5" y="25" width="1" height="1"/>
<rect x="8" y="25" width="13" height="1"/>
<rect x="5" y="28" width="1" height="1"/>
<rect x="8" y="28" width="13" height="1"/>
<rect x="5" y="31" width="1" height="1"/>
<rect x="8" y="31" width="13" height="1"/>
</svg>
