<svg xmlns="http://www.w3.org/2000/svg" width="43" height="38" viewBox="0 0 43 38"><title>chat--medium</title><path d="M40,8H14a2.971,2.971,0,0,0-3,2.942c0,.019,0,.039,0,.058V26a2.973,2.973,0,0,0,2.946,3H22v9l9-9h9a2.971,2.971,0,0,0,3-2.942c0-.02,0-.039,0-.058V11a2.971,2.971,0,0,0-2.942-3Zm2,18a1.973,1.973,0,0,1-1.946,2H30.586l-.293.293L23,35.586V28H14a1.976,1.976,0,0,1-2-1.952q0-.024,0-.048V11a1.973,1.973,0,0,1,1.946-2H40a1.973,1.973,0,0,1,2,1.946c0,.018,0,.036,0,.054Z"/><path d="M1,18V3A2.006,2.006,0,0,1,3,1H24a2.006,2.006,0,0,1,2,2V6h1V3a3,3,0,0,0-3-3H3A3,3,0,0,0,0,3V18a3,3,0,0,0,3,3H9V20H3A2.006,2.006,0,0,1,1,18Z"/></svg>