<svg xmlns="http://www.w3.org/2000/svg" width="24" height="22" viewBox="0 0 24 22"><title>chat--small</title><path d="M22.5,7h-12A1.538,1.538,0,0,0,9,8.5v7A1.538,1.538,0,0,0,10.5,17H14v5l5-5h3.5A1.538,1.538,0,0,0,24,15.5v-7A1.538,1.538,0,0,0,22.5,7Zm.5,8.5a.472.472,0,0,1-.5.5H18.6L15,19.6V16H10.5a.472.472,0,0,1-.5-.5v-7a.472.472,0,0,1,.5-.5h12a.472.472,0,0,1,.5.5Z"/><path d="M13.5,0H1.5A1.538,1.538,0,0,0,0,1.5v7A1.538,1.538,0,0,0,1.5,10H4l3,3V11.6L4.4,9H1.5A.472.472,0,0,1,1,8.5v-7A.472.472,0,0,1,1.5,1h12a.472.472,0,0,1,.5.5V5h1V1.5A1.538,1.538,0,0,0,13.5,0Z"/></svg>