<svg xmlns="http://www.w3.org/2000/svg" width="48" height="40" viewBox="0 0 48 40"><title>chat--large</title><path d="M45,8H15a2.971,2.971,0,0,0-3,2.942c0,.019,0,.039,0,.058V28a2.973,2.973,0,0,0,2.946,3H25v9l9-9H45a2.971,2.971,0,0,0,3-2.942c0-.02,0-.039,0-.058V11a2.971,2.971,0,0,0-2.942-3Zm2,20a1.973,1.973,0,0,1-1.946,2H33.586l-.293.293L26,37.586V30H15a1.976,1.976,0,0,1-2-1.952q0-.024,0-.048V11a1.973,1.973,0,0,1,1.946-2H45a1.973,1.973,0,0,1,2,1.946c0,.018,0,.036,0,.054Z"/><path d="M1,20V3A2.006,2.006,0,0,1,3,1H27a2.006,2.006,0,0,1,2,2V6h1V3a3,3,0,0,0-3-3H3A3,3,0,0,0,0,3V20a3,3,0,0,0,3,3h7V22H3A2.006,2.006,0,0,1,1,20Z"/></svg>