<?xml version="1.0" encoding="utf-8"?>
<!-- Generator: Adobe Illustrator 23.0.1, SVG Export Plug-In . SVG Version: 6.00 Build 0)  -->
<svg version="1.1" id="Layer_1" xmlns="http://www.w3.org/2000/svg" xmlns:xlink="http://www.w3.org/1999/xlink" x="0px" y="0px"
	 viewBox="0 0 45 45" style="enable-background:new 0 0 45 45;" xml:space="preserve">
<title>check-in-pillar--large</title>
<path d="M39,27.3V24c0-0.6-0.4-1-1-1H21c-0.6,0-1,0.4-1,1v11c0,0.6,0.4,1,1,1h12.1c0.2,0.9,0.4,1.6,0.4,1.7c0.1,0.4,0.3,0.8,0.6,1.1
	l3,3c0.1,0.1,0.2,0.1,0.4,0.1c0.3,0,0.5-0.2,0.5-0.5c0-0.1-0.1-0.3-0.1-0.4c-3-3-3-3-3-3c-0.2-0.2-0.3-0.4-0.4-0.7
	c-0.1-0.2-0.8-3.3-1.2-5.2c-0.1-0.5,0.2-0.9,0.7-1c0.5-0.2,1.1,0.1,1.2,0.6c0,0,0,0,0,0.1l1.4,3.7c0.1,0.2,0.3,0.3,0.5,0.3l0,0h1
	c0.6,0,1-0.4,1-1v-6.3l5,5v7.8c0,0.3,0.2,0.5,0.5,0.5s0.5-0.2,0.5-0.5v-8.2L39,27.3z M21,24h17v1H21V24z M38,35h-0.7l-1.3-3.4
	c-0.2-0.5-0.6-1-1.1-1.2v-0.9c0-0.8-0.7-1.5-1.5-1.5h-1.2c-0.7,0-1.3,0.3-1.8,0.7l-2.8,2.8c-0.3,0.3-0.7,0.4-1.1,0.4h-1.2
	c-0.3,0-0.5-0.2-0.5-0.5v-2c0-0.3,0.2-0.5,0.5-0.5h0.6c0.3,0.8,1.1,1.2,1.9,0.9c0.8-0.3,1.2-1.1,0.9-1.9c-0.3-0.8-1.1-1.2-1.9-0.9
	c-0.4,0.2-0.8,0.5-0.9,0.9h-0.6c-0.8,0-1.5,0.7-1.5,1.5v2c0,0.8,0.7,1.5,1.5,1.5l0,0h1.2c0.7,0,1.3-0.3,1.8-0.7l2.8-2.8
	c0.3-0.3,0.7-0.4,1.1-0.4h1.2c0.3,0,0.5,0.2,0.5,0.5v0.7c-0.1,0-0.2,0-0.3,0c-0.6,0.1-1.1,0.5-1.3,1.1c-0.3-0.2-0.6-0.3-0.9-0.3
	c-0.8,0-1.5,0.7-1.5,1.5c0,0.8,0.7,1.5,1.5,1.5c0.4,0,0.8-0.2,1-0.4c0.1,0.4,0.2,0.9,0.3,1.4H21v-9h17V35z M27,28.5
	c0-0.3,0.2-0.5,0.5-0.5s0.5,0.2,0.5,0.5S27.8,29,27.5,29S27,28.8,27,28.5z M32,32.5c0,0.3-0.2,0.5-0.5,0.5S31,32.8,31,32.5
	s0.2-0.5,0.5-0.5S32,32.2,32,32.5z"/>
<path d="M20.5,17c1.4,0,2.5-1.1,2.5-2.5v-9C23,4.1,21.9,3,20.5,3h-15C4.1,3,3,4.1,3,5.5v9C3,15.9,4.1,17,5.5,17H20.5z M4,14.5v-9
	C4,4.7,4.7,4,5.5,4h15C21.3,4,22,4.7,22,5.5v9c0,0.8-0.7,1.5-1.5,1.5l0,0h-15C4.7,16,4,15.3,4,14.5L4,14.5z"/>
<path d="M17.5,31h-0.6c-0.3-0.8-1.1-1.2-1.9-0.9c-0.8,0.3-1.2,1.1-0.9,1.9s1.1,1.2,1.9,0.9c0.4-0.2,0.8-0.5,0.9-0.9h0.6
	c0.8,0,1.5-0.7,1.5-1.5v-2c0-0.8-0.7-1.5-1.5-1.5h-1.3c-0.6,0-1.1,0.2-1.6,0.5l-3.9,3.1c-0.3,0.2-0.6,0.3-0.9,0.3H8.5
	C8.2,31,8,30.8,8,30.5v-2C8,28.2,8.2,28,8.5,28h0.6c0.3,0.8,1.1,1.2,1.9,0.9c0.8-0.3,1.2-1.1,0.9-1.9s-1.1-1.2-1.9-0.9
	c-0.4,0.2-0.8,0.5-0.9,0.9H8.5C7.7,27,7,27.7,7,28.5v2C7,31.3,7.7,32,8.5,32h1.3c0.6,0,1.1-0.2,1.6-0.5l3.9-3.1
	c0.3-0.2,0.6-0.3,0.9-0.3h1.3c0.3,0,0.5,0.2,0.5,0.5v2C18,30.8,17.8,31,17.5,31z M15.5,32c-0.3,0-0.5-0.2-0.5-0.5s0.2-0.5,0.5-0.5
	s0.5,0.2,0.5,0.5S15.8,32,15.5,32z M10.5,27c0.3,0,0.5,0.2,0.5,0.5S10.8,28,10.5,28S10,27.8,10,27.5S10.2,27,10.5,27z"/>
<rect x="25" y="37" width="1" height="8"/>
<path d="M4.5,1h17C23.4,1,25,2.6,25,4.5V22h1V4.5C26,2,24,0,21.5,0h-17C2,0,0,2,0,4.5V45h1V4.5C1,2.6,2.6,1,4.5,1z"/>
<path d="M13,19C7.5,19,3,23.5,3,29c0,5.5,4.5,10,10,10c2.2,0,4.3-0.7,6.1-2v-1.3c-3.7,3.3-9.4,3-12.7-0.7C3,31.3,3.3,25.6,7,22.3
	c3.3-3,8.2-3.1,11.7-0.3h1.5C18.3,20.1,15.7,19,13,19z"/>
</svg>
