<svg xmlns="http://www.w3.org/2000/svg" width="28" height="41.414" viewBox="0 0 28 41.414"><title>childeren--large</title><path d="M7.435,8.771A4.415,4.415,0,0,1,3.65,6.635a4.381,4.381,0,1,1,7.521-4.5h0A4.37,4.37,0,0,1,7.435,8.771ZM7.391,1a3.376,3.376,0,0,0-2.884,5.12A3.4,3.4,0,0,0,9.159,7.294a3.377,3.377,0,0,0,1.153-4.641h0A3.4,3.4,0,0,0,7.391,1Z"/><path d="M14.5,26.414a.5.5,0,0,1-.5-.5v-11a3.157,3.157,0,0,0-3.146-3H10a.5.5,0,1,1,0-1h.854a4.182,4.182,0,0,1,4.146,4v11A.5.5,0,0,1,14.5,26.414Z"/><path d="M.5,26.414a.5.5,0,0,1-.5-.5v-11a3.975,3.975,0,0,1,3.94-4H5a.5.5,0,1,1,0,1H3.94a2.974,2.974,0,0,0-2.94,3v11A.5.5,0,0,1,.5,26.414Z"/><path d="M27.5,30.414a.5.5,0,0,1-.5-.5v-7A1.856,1.856,0,0,0,25.016,20.9a.5.5,0,1,1,0-1A2.84,2.84,0,0,1,28,22.914v7A.5.5,0,0,1,27.5,30.414Z"/><path d="M18.5,30.414a.5.5,0,0,1-.5-.5v-7A2.833,2.833,0,0,1,20.969,19.9a.5.5,0,1,1,0,1A1.831,1.831,0,0,0,19,22.914v7A.5.5,0,0,1,18.5,30.414Z"/><path d="M11,25.914v15a.5.5,0,0,0,1,0v-15Z"/><path d="M3.5,41.414a.5.5,0,0,0,.5-.5v-15H3v15A.5.5,0,0,0,3.5,41.414Z"/><path d="M25,29.914v11a.5.5,0,0,0,1,0v-11Z"/><path d="M20.5,41.414a.5.5,0,0,0,.5-.5v-11H20v11A.5.5,0,0,0,20.5,41.414Z"/><path d="M23,18.914a3.5,3.5,0,1,1,3.5-3.5A3.5,3.5,0,0,1,23,18.914Zm0-6a2.5,2.5,0,1,0,2.5,2.5A2.5,2.5,0,0,0,23,12.914Z"/></svg>