<?xml version="1.0" encoding="utf-8"?>
<!-- Generator: Adobe Illustrator 23.0.1, SVG Export Plug-In . SVG Version: 6.00 Build 0)  -->
<svg version="1.1" id="Layer_1" xmlns="http://www.w3.org/2000/svg" xmlns:xlink="http://www.w3.org/1999/xlink" x="0px" y="0px"
	 viewBox="0 0 41 41" style="enable-background:new 0 0 41 41;" xml:space="preserve">
<title>clock--large</title>
<path d="M19.5,35.5c-0.3,0-0.5,0.2-0.5,0.5v2c0,0.3,0.2,0.5,0.5,0.5S20,38.3,20,38v-2C20,35.7,19.8,35.5,19.5,35.5z"/>
<path d="M4.5,20.5C4.5,20.2,4.3,20,4,20H2c-0.3,0-0.5,0.2-0.5,0.5S1.7,21,2,21h2C4.3,21,4.5,20.8,4.5,20.5z"/>
<path d="M37,20h-2c-0.3,0-0.5,0.2-0.5,0.5S34.7,21,35,21h2c0.3,0,0.5-0.2,0.5-0.5S37.3,20,37,20z"/>
<path d="M6.3,12.3l-1.7-1c-0.2-0.1-0.5-0.1-0.7,0.2c-0.1,0.2-0.1,0.5,0.2,0.7c0,0,0,0,0,0l1.7,1c0.1,0,0.2,0.1,0.2,0.1
	c0.3,0,0.5-0.2,0.5-0.5C6.6,12.6,6.5,12.4,6.3,12.3z"/>
<path d="M34.9,28.8l-1.7-1c-0.2-0.1-0.5-0.1-0.7,0.2c-0.1,0.2-0.1,0.5,0.2,0.7c0,0,0,0,0,0l1.7,1c0.1,0,0.2,0.1,0.2,0.1
	c0.3,0,0.5-0.2,0.5-0.5C35.2,29.1,35.1,28.9,34.9,28.8z"/>
<path d="M11.3,7.3c0.1,0.2,0.3,0.2,0.4,0.2c0.1,0,0.2,0,0.2-0.1c0.2-0.1,0.3-0.4,0.2-0.7l-1-1.7c-0.1-0.2-0.4-0.3-0.7-0.2
	c-0.2,0.1-0.3,0.4-0.2,0.7L11.3,7.3z"/>
<path d="M27.7,33.7c-0.1-0.2-0.4-0.3-0.7-0.2c-0.2,0.1-0.3,0.4-0.2,0.7l1,1.7c0.1,0.2,0.3,0.2,0.4,0.2c0.1,0,0.2,0,0.2-0.1
	c0.2-0.1,0.3-0.4,0.2-0.7L27.7,33.7z"/>
<path d="M5.8,27.8l-1.7,1c-0.2,0.1-0.3,0.4-0.2,0.7c0.1,0.2,0.3,0.2,0.4,0.2c0.1,0,0.2,0,0.2-0.1l1.7-1c0.2-0.1,0.3-0.4,0.2-0.7
	C6.4,27.8,6.1,27.7,5.8,27.8C5.8,27.8,5.8,27.8,5.8,27.8z"/>
<path d="M33.2,13.2l1.7-1c0.2-0.1,0.3-0.4,0.2-0.7s-0.4-0.3-0.7-0.2c0,0,0,0,0,0l-1.7,1c-0.2,0.1-0.3,0.4-0.2,0.7
	c0.1,0.2,0.3,0.2,0.4,0.2C33,13.3,33.1,13.2,33.2,13.2z"/>
<path d="M12,33.5c-0.2-0.1-0.5-0.1-0.7,0.2l-1,1.7c-0.1,0.2-0.1,0.5,0.2,0.7c0.2,0.1,0.5,0.1,0.7-0.2c0,0,0,0,0,0l1-1.7
	C12.3,33.9,12.2,33.6,12,33.5z"/>
<path d="M28.5,4.9c-0.2-0.1-0.5-0.1-0.7,0.2l-1,1.7c-0.1,0.2-0.1,0.5,0.2,0.7c0.2,0.1,0.5,0.1,0.7-0.2c0,0,0,0,0,0l1-1.7
	C28.8,5.4,28.7,5.1,28.5,4.9z"/>
<path d="M19.5,0C8.2,0-1,9.2-1,20.5S8.2,41,19.5,41S40,31.8,40,20.5C40,9.2,30.8,0,19.5,0z M19.5,40C8.7,40,0,31.3,0,20.5
	C0,9.9,8.5,1.3,19,1v19h-2c-0.3,0-0.5,0.2-0.5,0.5S16.7,21,17,21h1.3l-6.4,6.4c-0.4-0.2-0.8-0.3-1.2-0.4c-1.2,0-2.2,1-2.2,2.2
	c0,0.4,0.1,0.8,0.3,1.2l-1.4,1.4c-0.2,0.2-0.2,0.5,0,0.7s0.5,0.2,0.7,0l1.4-1.4c0.4,0.2,0.8,0.3,1.2,0.4c1.2,0,2.2-1,2.2-2.2
	c0-0.4-0.1-0.8-0.4-1.2l6.4-6.3V24c0,0.3,0.2,0.5,0.5,0.5S20,24.3,20,24v-3h12c0.3,0,0.5-0.2,0.5-0.5S32.3,20,32,20H20.7l1.6-1.6
	c0.2-0.2,0.2-0.5,0-0.7c-0.2-0.2-0.5-0.2-0.7,0L20,19.3V1c10.8,0.3,19.3,9.2,19,20C38.7,31.6,30.1,40,19.5,40z M9.5,29.2
	c0-0.7,0.6-1.2,1.2-1.2s1.2,0.6,1.2,1.2s-0.6,1.2-1.2,1.2C10.1,30.5,9.5,29.9,9.5,29.2z"/>
</svg>
