<svg xmlns="http://www.w3.org/2000/svg" width="39" height="41.417" viewBox="0 0 39 41.417"><title>co-traveller--large</title><path d="M7.571,8.777h0a4.375,4.375,0,0,1-3.74-6.636A4.428,4.428,0,0,1,7.607,0a4.379,4.379,0,0,1,3.744,6.637A4.434,4.434,0,0,1,7.571,8.777ZM7.606,1A3.389,3.389,0,1,0,7.57,7.778h0a3.4,3.4,0,0,0,3.3-4.227A3.378,3.378,0,0,0,7.606,1Z"/><path d="M.5,26.417a.5.5,0,0,1-.5-.5v-11a4.182,4.182,0,0,1,4.146-4H5a.5.5,0,0,1,0,1H4.146a3.156,3.156,0,0,0-3.146,3v11A.5.5,0,0,1,.5,26.417Z"/><path d="M14.5,26.417a.5.5,0,0,1-.5-.5v-11a2.974,2.974,0,0,0-2.94-3H10a.5.5,0,0,1,0-1h1.06a3.974,3.974,0,0,1,3.94,4v11A.5.5,0,0,1,14.5,26.417Z"/><path d="M3,40.917a.5.5,0,0,0,1,0v-15H3Zm8-15v15a.5.5,0,0,0,1,0v-15Z"/><path d="M27,40.917a.5.5,0,0,0,1,0v-15H27Zm8-15v15a.5.5,0,0,0,1,0v-15Z"/><path d="M31.571,8.777h0A4.376,4.376,0,0,1,27.83,2.141,4.428,4.428,0,0,1,31.606,0,4.379,4.379,0,0,1,35.35,6.637,4.431,4.431,0,0,1,31.571,8.777ZM31.606,1a3.389,3.389,0,1,0-.036,6.777h0a3.4,3.4,0,0,0,3.3-4.226A3.379,3.379,0,0,0,31.606,1Z"/><path d="M38.5,26.417a.5.5,0,0,1-.5-.5v-11a2.974,2.974,0,0,0-2.94-3H34a.5.5,0,0,1,0-1h1.06a3.974,3.974,0,0,1,3.94,4v11A.5.5,0,0,1,38.5,26.417Z"/><path d="M20,17.917H31a.5.5,0,0,0,0-1H20a.5.5,0,0,0,0,1Z"/><path d="M25.5,23.417a.5.5,0,0,0,.5-.5v-11a.5.5,0,1,0-1,0v11A.5.5,0,0,0,25.5,23.417Z"/></svg>