<svg xmlns="http://www.w3.org/2000/svg" width="16" height="23" viewBox="0 0 16 23"><title>coffee-cup--small</title><path d="M14.747,2.025l-.15-.578A2.041,2.041,0,0,0,12.721,0H3.279A2.035,2.035,0,0,0,1.4,1.447L1.259,2l-.007.025a1.492,1.492,0,0,0-.178,2.9l0,.07L2.427,22.022A1.045,1.045,0,0,0,3.452,23h9.2a1.046,1.046,0,0,0,1.025-.978L14.929,4.976l0-.047a1.492,1.492,0,0,0-.185-2.9ZM2.371,1.7A1.042,1.042,0,0,1,3.279,1h9.442a1.049,1.049,0,0,1,.908.7c.029.112.045.17.079.3H2.292ZM13.04,17H11.5v1h1.466l-.291,3.948a.065.065,0,0,1-.027.052h-9.2a.062.062,0,0,1-.027-.051L3.112,18H9.5V17H3.033L2.32,8H9.5V7H2.241L2.083,5H13.924l-.147,2H11.5V8h2.2ZM14.495,4H1.5a.5.5,0,1,1,0-1h12.99a.5.5,0,1,1,0,1Z"/></svg>