<?xml version="1.0" encoding="utf-8"?>
<!-- Generator: Adobe Illustrator 23.0.1, SVG Export Plug-In . SVG Version: 6.00 Build 0)  -->
<svg version="1.1" id="Layer_1" xmlns="http://www.w3.org/2000/svg" xmlns:xlink="http://www.w3.org/1999/xlink" x="0px" y="0px"
	 viewBox="0 0 43 43" style="enable-background:new 0 0 43 43;" xml:space="preserve">
<title>counter--large</title>
<path d="M35.4,9.9c2.4,0,4.4-2,4.4-4.4c0-0.8-0.2-1.6-0.6-2.3c-1.2-2.1-3.9-2.8-6-1.5c-2.1,1.2-2.7,3.9-1.5,6c0,0,0,0,0,0
	C32.5,9,33.9,9.9,35.4,9.9z M32.1,4.6c0.4-1.5,1.7-2.5,3.3-2.5c1.2,0,2.3,0.6,2.9,1.7l0,0c1,1.6,0.5,3.7-1.1,4.6c0,0,0,0,0,0
	c-1.6,1-3.7,0.4-4.7-1.2C32,6.4,31.9,5.5,32.1,4.6z"/>
<path d="M38.9,12H38c-0.3,0-0.5,0.2-0.5,0.5S37.7,13,38,13h0.9c1.7,0,3.1,1.3,3.1,3v11c0,0.3,0.2,0.5,0.5,0.5S43,27.3,43,27V16
	C42.9,13.8,41.1,12,38.9,12z"/>
<path d="M33,13c0.3,0,0.5-0.2,0.5-0.5S33.3,12,33,12h-1.1c-2.2,0-4,1.8-3.9,4v11c0,0.3,0.2,0.5,0.5,0.5S29,27.3,29,27V16
	c0-1.6,1.3-3,2.9-3H33z"/>
<path d="M39.5,42.5c0.3,0,0.5-0.2,0.5-0.5V27h-1v15C39,42.3,39.2,42.5,39.5,42.5z"/>
<path d="M31,42c0,0.3,0.2,0.5,0.5,0.5S32,42.3,32,42V27h-1V42z"/>
<path d="M16.9,12H16c-0.3,0-0.5,0.2-0.5,0.5S15.7,13,16,13h0.9c1.7,0,3.1,1.3,3.1,3v3h1v-3C20.9,13.8,19.1,12,16.9,12z"/>
<path d="M7,19v-3c0-1.6,1.3-3,2.9-3H11c0.3,0,0.5-0.2,0.5-0.5S11.3,12,11,12H9.9c-2.2,0-4,1.8-3.9,4v3H7z"/>
<path d="M15,27.9l-1.5-1.5c-0.3-0.3-0.6-0.4-1-0.4H9.6l-2.5,2.5L9.6,31H11l-2-2h2.7c0.1,0,0.2,0,0.3,0.1l1.5,1.5
	c0.3,0.3,0.6,0.4,1,0.4h2.9l2.5-2.5L17.4,26H16l2,2h-2.7C15.2,28,15.1,28,15,27.9z M18,29l-1,1h-2.5c-0.1,0-0.2,0-0.3-0.1l-1.5-1.5
	c-0.3-0.3-0.6-0.4-1-0.4H9l1-1h2.5c0.1,0,0.2,0,0.3,0.1l1.5,1.5c0.3,0.3,0.6,0.4,1,0.4H18z"/>
<path d="M17,4h2c0.3,0,0.5-0.2,0.5-0.5S19.3,3,19,3h-1V0H9v4H17z M10,1h7v2h-7V1z"/>
<path d="M13.5,10.5c2.5,0,4.5-2,4.5-4.5c0-0.3,0-0.7-0.1-1h-1C16.9,5.3,17,5.7,17,6c0,1.9-1.6,3.5-3.5,3.5S10,7.9,10,6
	c0-0.3,0.1-0.7,0.2-1h-1C9,5.3,9,5.7,9,6C9,8.5,11,10.5,13.5,10.5z"/>
<path d="M22,20H4c-2.2,0-4,1.8-4,4v19h1V24c0-1.7,1.3-3,3-3h18c1.7,0,3,1.3,3,3v19h1V24C26,21.8,24.2,20,22,20z"/>
</svg>
