<?xml version="1.0" encoding="utf-8"?>
<!-- Generator: Adobe Illustrator 23.0.1, SVG Export Plug-In . SVG Version: 6.00 Build 0)  -->
<svg version="1.1" id="Layer_1" xmlns="http://www.w3.org/2000/svg" xmlns:xlink="http://www.w3.org/1999/xlink" x="0px" y="0px"
	 viewBox="0 0 45 45" style="enable-background:new 0 0 45 45;" xml:space="preserve">
<title>cross-border--large</title>
<path d="M41.6,23.2c-1.7,0-3.1,1.2-3.4,2.8H24.9c-0.3-1.9-2.1-3.1-3.9-2.8c-1.9,0.3-3.1,2.1-2.8,3.9c0.1,0.5,0.3,1,0.6,1.4L8.5,38.8
	c-1.6-1.1-3.8-0.8-4.9,0.8c-1.1,1.6-0.8,3.8,0.8,4.9s3.8,0.8,4.9-0.8c0.9-1.3,0.9-3-0.1-4.2l10.2-10.2c1.5,1.2,3.6,1,4.8-0.5
	c0.4-0.5,0.7-1.1,0.7-1.7h13.3c0.2,1.9,1.9,3.2,3.8,3s3.2-1.9,3-3.8C44.8,24.4,43.3,23.2,41.6,23.2z M6.6,44c-1.3,0-2.4-1.1-2.4-2.4
	s1.1-2.4,2.4-2.4S9,40.2,9,41.6l0,0C9,42.9,7.9,44,6.6,44z M21.6,29c-1.3,0-2.4-1.1-2.4-2.4s1.1-2.4,2.4-2.4c1.3,0,2.4,1.1,2.4,2.4
	l0,0C24,27.9,22.9,29,21.6,29z M41.6,29c-1.3,0-2.4-1.1-2.4-2.4s1.1-2.4,2.4-2.4s2.4,1.1,2.4,2.4l0,0C44,27.9,42.9,29,41.6,29z"/>
<path d="M10.7,25.1C10.7,25,10.5,25,10.4,25h-5c-0.1,0-0.3,0.1-0.4,0.2l-0.4,0.5c-0.2,0.2-0.2,0.5,0,0.7c0.2,0.2,0.5,0.2,0.7,0
	c0,0,0,0,0,0L5.7,26h4.6l0.4,0.4c0.2,0.2,0.5,0.2,0.7-0.1s0.2-0.5-0.1-0.7L10.7,25.1z"/>
<path d="M10,28.5c0.3,0,0.5-0.2,0.5-0.5c0-0.1-0.1-0.3-0.1-0.4l-0.5-0.5C9.8,27.1,9.6,27,9.5,27h-6c-0.1,0-0.3,0.1-0.4,0.1l-0.5,0.5
	c-0.2,0.2-0.2,0.5,0,0.7c0.2,0.2,0.5,0.2,0.7,0L3.7,28h5.6l0.4,0.4C9.7,28.4,9.9,28.5,10,28.5z"/>
<path d="M8.5,29h-6c-0.1,0-0.3,0.1-0.4,0.1l-0.5,0.5c-0.2,0.2-0.2,0.5,0,0.7c0.2,0.2,0.5,0.2,0.7,0L2.7,30h5.6l0.4,0.4
	c0.2,0.2,0.5,0.2,0.7,0c0.2-0.2,0.2-0.5,0-0.7l-0.5-0.5C8.8,29.1,8.6,29,8.5,29z"/>
<path d="M0.6,33.4c0.2,0.2,0.5,0.2,0.7,0s0.2-0.5,0-0.7l-0.1-0.1L1.7,32h5.6l0.4,0.4c0.2,0.2,0.5,0.2,0.7,0c0.2-0.2,0.2-0.5,0-0.7
	l-0.5-0.5C7.8,31.1,7.6,31,7.5,31h-6c-0.1,0-0.3,0.1-0.4,0.1l-1,1c-0.2,0.2-0.2,0.5,0,0.7L0.6,33.4z"/>
<path d="M22,38.3l-0.9,0.9c-0.2,0.2-0.2,0.5,0,0.7l1,1c0.1,0.1,0.2,0.1,0.4,0.1h3c0.1,0,0.3-0.1,0.4-0.1l1-1
	c0.1-0.1,0.1-0.2,0.1-0.4v-3c0-0.1-0.1-0.3-0.1-0.4l-0.6-0.6l1.6-1.6c0.1-0.1,0.1-0.2,0.1-0.4V29h-1v4.3l-1.9,1.9
	c-0.2,0.2-0.2,0.5,0,0.7l0.9,0.9v2.6L25.3,40h-2.6l-0.5-0.5l0.6-0.6c0.1-0.1,0.1-0.2,0.1-0.4v-4c0-0.1-0.1-0.3-0.1-0.4l-2.4-2.4l0,0
	l-0.7,0.7l2.2,2.2V38.3z"/>
<path d="M30.5,23.8h1.4l2.9-2.9c0.1-0.1,0.1-0.2,0.1-0.4v-4c0-0.1-0.1-0.3-0.1-0.4l-1.6-1.6l1.6-1.6c0.1-0.1,0.1-0.2,0.1-0.4V9.7
	l0.9-0.9C35.9,8.8,36,8.6,36,8.5v-4c0-0.1-0.1-0.3-0.1-0.4l-2-2C33.8,2.1,33.6,2,33.5,2h-10c-0.1,0-0.3,0.1-0.4,0.1l-3,3
	C20.1,5.2,20,5.4,20,5.5v4c0,0.1,0.1,0.3,0.1,0.4l1.9,1.9v0.6L18.3,16H17v-3.3l0.9-0.9c0.2-0.2,0.2-0.5,0-0.7l-2-2
	C15.8,9.1,15.6,9,15.5,9h-3C12.2,9,12,9.2,12,9.5v6.8l-5.9,5.9C6.1,22.2,6,22.4,6,22.5v1C6,23.8,6.2,24,6.5,24S7,23.8,7,23.5v-0.8
	l5.9-5.9c0.1-0.1,0.1-0.2,0.1-0.4V10h2.3l1.5,1.5l-0.6,0.6c-0.1,0.1-0.1,0.2-0.1,0.4v4c0,0.3,0.2,0.5,0.5,0.5h2
	c0.1,0,0.3-0.1,0.4-0.1l4-4c0.1-0.1,0.1-0.2,0.1-0.4v-1c0-0.1-0.1-0.3-0.1-0.4L21,9.3V5.7L23.7,3h9.6L35,4.7v3.6l-0.9,0.9
	C34.1,9.2,34,9.4,34,9.5v2.8l-1.9,1.9c-0.2,0.2-0.2,0.5,0,0.7l1.9,1.9v3.6L30.5,23.8z"/>
<path d="M3.5,34C3.2,34,3,34.2,3,34.5S3.2,35,3.5,35h5.3l1-1H3.5z"/>
<path d="M15.2,6c0.3,0,0.5-0.2,0.5-0.5S15.5,5,15.2,5h-0.9c-0.1,0-0.3,0.1-0.4,0.2l-0.9,0.9c-0.2,0.2-0.2,0.5,0,0.7L14,7.7
	c0.1,0.1,0.2,0.1,0.4,0.1c0.3,0,0.5-0.3,0.5-0.6c0-0.1-0.1-0.2-0.1-0.3l-0.5-0.5L14.6,6H15.2z"/>
<path d="M16.9,2.1c-0.2-0.2-0.5-0.2-0.7,0l-1.5,1.5c-0.2,0.2-0.2,0.5,0,0.7c0.1,0.1,0.2,0.1,0.4,0.1c0.1,0,0.3-0.1,0.4-0.1l1.5-1.5
	C17,2.7,17,2.3,16.9,2.1C16.9,2.1,16.9,2.1,16.9,2.1z"/>
<path d="M20.3,0l-2.5,1c-0.3,0.1-0.4,0.4-0.3,0.7C17.6,1.9,17.8,2,18,2c0.1,0,0.1,0,0.2,0l2.5-1c0.3-0.1,0.4-0.4,0.3-0.7
	C20.8,0.1,20.6-0.1,20.3,0z"/>
<path d="M23,0c-0.3,0-0.5,0.2-0.5,0.5S22.7,1,23,1h1c0.3,0,0.5-0.2,0.5-0.5S24.3,0,24,0H23z"/>
<path d="M27,0c-0.3,0-0.5,0.2-0.5,0.5S26.7,1,27,1h1c0.3,0,0.5-0.2,0.5-0.5S28.3,0,28,0H27z"/>
</svg>
