<svg xmlns="http://www.w3.org/2000/svg" width="35" height="41" viewBox="0 0 35 41"><title>customer-service--large</title><path d="M32,0H16a3,3,0,0,0-3,3V17a3,3,0,0,0,3,3h1V19H16a2,2,0,0,1-2-2V3a2,2,0,0,1,2-2H32a2,2,0,0,1,2,2V17a2,2,0,0,1-2,2H20.953l-1.076,1H32a3,3,0,0,0,3-3V3A3,3,0,0,0,32,0Z"/><polygon points="20.667 19 18 21.586 18 19 17 19 17 24 22 19 20.667 19"/><path d="M23.5,13.525a.479.479,0,0,1-.5-.474v-.8c0-1.081,1.042-1.943,1.8-2.574.185-.153.35-.288.464-.4A2.462,2.462,0,0,0,23.5,5.055a2.555,2.555,0,0,0-1.768.787.5.5,0,0,1-.707-.707A3.511,3.511,0,0,1,23.5,4.055a3.466,3.466,0,0,1,2.475,5.927c-.132.132-.32.289-.533.465C24.867,10.922,24,11.64,24,12.25l0,.8A.521.521,0,0,1,23.5,13.525Z"/><path d="M8.5,32a4.277,4.277,0,0,1-4-4.5v-1a4.277,4.277,0,0,1,4-4.5,4.277,4.277,0,0,1,4,4.5v1A4.277,4.277,0,0,1,8.5,32Zm0-9a3.283,3.283,0,0,0-3,3.5v1a3.283,3.283,0,0,0,3,3.5,3.283,3.283,0,0,0,3-3.5v-1A3.283,3.283,0,0,0,8.5,23Z"/><path d="M9,41H0V38c0-2.428,1.966-5.25,4.5-5.25a.5.5,0,0,1,0,1C2.561,33.75,1,36.075,1,38v2H9a.5.5,0,1,1,0,1Z"/><path d="M17,41H8a.5.5,0,1,1,0-1h8V38c0-1.925-1.561-4.25-3.5-4.25a.5.5,0,0,1,0-1c2.534,0,4.5,2.822,4.5,5.25Z"/><circle cx="23.5" cy="15.5" r="0.5"/><path d="M8.5,32a4.277,4.277,0,0,1-4-4.5v-1a4.277,4.277,0,0,1,4-4.5,4.277,4.277,0,0,1,4,4.5v1A4.277,4.277,0,0,1,8.5,32Zm0-9a3.283,3.283,0,0,0-3,3.5v1a3.283,3.283,0,0,0,3,3.5,3.283,3.283,0,0,0,3-3.5v-1A3.283,3.283,0,0,0,8.5,23Z"/><path d="M12.5,32.75a.5.5,0,0,0,0,1c1.938,0,3.5,2.325,3.5,4.25v2H1V38c0-1.925,1.562-4.25,3.5-4.25a.5.5,0,0,0,0-1C1.966,32.75,0,35.572,0,38v3H17V38C17,35.572,15.034,32.75,12.5,32.75Z"/></svg>