<svg xmlns="http://www.w3.org/2000/svg" width="45.404" height="25.838" viewBox="0 0 45.404 25.838"><title>customer-journey--large</title><path d="M42.171,10a3.221,3.221,0,0,0-1.023,6.279,8.079,8.079,0,0,1-5.231,5.336,3.21,3.21,0,0,0-6.149.16,8.091,8.091,0,0,1-5.812-5.548A3.22,3.22,0,0,0,22.9,10.011,9.275,9.275,0,0,0,16.217,3.09a3.223,3.223,0,0,0-6.443.091A9.3,9.3,0,0,0,3.41,10.005c-.023,0-.044-.007-.066-.007a3.288,3.288,0,1,0,1.018.18A8.239,8.239,0,0,1,9.934,4.183a3.209,3.209,0,0,0,6.154-.07,8.232,8.232,0,0,1,5.83,6.009,3.223,3.223,0,0,0,.838,6.337c.085,0,.164-.019.247-.025a9.107,9.107,0,0,0,6.653,6.358,3.224,3.224,0,0,0,6.443-.163v-.007a9.138,9.138,0,0,0,6.021-6.171c.018,0,.035,0,.053,0a3.23,3.23,0,1,0,0-6.461h0Zm-36.6,3.23A2.23,2.23,0,1,1,3.341,11h0a2.233,2.233,0,0,1,2.23,2.227ZM13,5.445a2.23,2.23,0,1,1,2.229-2.231h0A2.233,2.233,0,0,1,13,5.445Zm7.528,7.777a2.23,2.23,0,1,1,2.23,2.23h0A2.233,2.233,0,0,1,20.526,13.222ZM32.868,24.86A2.23,2.23,0,1,1,35.1,22.629h0A2.233,2.233,0,0,1,32.868,24.86Zm9.3-9.4a2.23,2.23,0,1,1,2.23-2.23h0a2.233,2.233,0,0,1-2.227,2.226Z"/></svg>