<svg xmlns="http://www.w3.org/2000/svg" width="19" height="19" viewBox="0 0 19 19"><title>decrease--small</title><polygon points="13.636 5.364 13.636 0 12.636 1 12.636 6.364 18 6.364 19 5.364 13.636 5.364"/><path d="M17.793,1.914l-3.95,3.95a.5.5,0,0,1-.707,0h0a.5.5,0,0,1,0-.707l3.95-3.95a.5.5,0,0,1,.707,0h0A.5.5,0,0,1,17.793,1.914Z"/><polygon points="5.364 13.636 5.364 19 6.364 18 6.364 12.636 1 12.636 0 13.636 5.364 13.636"/><path d="M1.207,17.086l3.95-3.95a.5.5,0,0,1,.707,0h0a.5.5,0,0,1,0,.707l-3.95,3.95a.5.5,0,0,1-.707,0h0A.5.5,0,0,1,1.207,17.086Z"/><polygon points="5.364 5.364 0 5.364 1 6.364 6.364 6.364 6.364 1 5.364 0 5.364 5.364"/><path d="M1.914,1.207l3.95,3.95a.5.5,0,0,1,0,.707h0a.5.5,0,0,1-.707,0l-3.95-3.95a.5.5,0,0,1,0-.707h0A.5.5,0,0,1,1.914,1.207Z"/><polygon points="13.636 13.636 19 13.636 18 12.636 12.636 12.636 12.636 18 13.636 19 13.636 13.636"/><path d="M17.086,17.793l-3.95-3.95a.5.5,0,0,1,0-.707h0a.5.5,0,0,1,.707,0l3.95,3.95a.5.5,0,0,1,0,.707h0A.5.5,0,0,1,17.086,17.793Z"/></svg>