<svg xmlns="http://www.w3.org/2000/svg" width="40.935" height="36" viewBox="0 0 40.935 36"><title>design--large</title><path d="M40.935,3.266,37.67,0l-.49.283a9.369,9.369,0,0,1-6.139,1.238l-.426-.066L27.017,13H0V36H28V13.9l11.479-3.577L39.413,9.9A9.39,9.39,0,0,1,40.65,3.758ZM27,35H1V14H27ZM38.368,9.618,29.151,12.49l4.2-4.2-.707-.707-4.2,4.2,2.872-9.216A10.413,10.413,0,0,0,37.5,1.249L39.68,3.43A10.434,10.434,0,0,0,38.368,9.618Z"/><rect x="11" y="19" width="11" height="1"/><path d="M7.5,21A1.5,1.5,0,1,0,6,19.5,1.5,1.5,0,0,0,7.5,21Zm0-2a.5.5,0,1,1-.5.5A.5.5,0,0,1,7.5,19Z"/><rect x="11" y="24" width="11" height="1"/><path d="M7.5,26A1.5,1.5,0,1,0,6,24.5,1.5,1.5,0,0,0,7.5,26Zm0-2a.5.5,0,1,1-.5.5A.5.5,0,0,1,7.5,24Z"/><rect x="11" y="29" width="11" height="1"/><path d="M7.5,31A1.5,1.5,0,1,0,6,29.5,1.5,1.5,0,0,0,7.5,31Zm0-2a.5.5,0,1,1-.5.5A.5.5,0,0,1,7.5,29Z"/></svg>