<svg xmlns="http://www.w3.org/2000/svg" width="38" height="38" viewBox="0 0 38 38"><title>discount--medium</title><path d="M19,1.26l2.67,2.048.391.3.476-.128,3.251-.871,1.683,2.914.247.427.489.064,3.337.44.44,3.337.064.489.427.247,2.914,1.683-.871,3.251-.128.476.3.391L36.74,19l-2.048,2.67-.3.391.128.476.871,3.251-2.914,1.683-.427.247-.064.489-.44,3.337-3.337.44-.489.064-.247.427L25.79,35.389l-3.251-.871-.476-.128-.391.3L19,36.74l-2.67-2.048-.391-.3-.476.128-3.251.871-1.683-2.914-.247-.427-.489-.064-3.337-.44-.44-3.337-.064-.489-.427-.247L2.611,25.789l.871-3.251.128-.476-.3-.391L1.26,19l2.048-2.67.3-.391-.128-.476-.871-3.251,2.914-1.683.427-.247.064-.489.44-3.337,3.337-.44.489-.064.247-.427L12.21,2.611l3.251.871.476.128.391-.3L19,1.26M19,0,15.721,2.515,11.729,1.446,9.662,5.025l-4.1.54-.54,4.1L1.446,11.729l1.069,3.992L0,19l2.515,3.279L1.446,26.271l3.579,2.067.54,4.1,4.1.54,2.067,3.579,3.992-1.069L19,38l3.279-2.515,3.992,1.069,2.067-3.579,4.1-.54.54-4.1,3.579-2.067-1.069-3.992L38,19l-2.515-3.279,1.069-3.992L32.975,9.662l-.54-4.1-4.1-.54L26.271,1.446,22.279,2.515Z"/><path d="M12.35,26.625a.5.5,0,0,1-.35-.854L25.771,12a.5.5,0,1,1,.719.695l-.012.012L12.7,26.479A.5.5,0,0,1,12.35,26.625Z"/><path d="M13.775,12.25a2,2,0,1,1-2,2,2,2,0,0,1,2-2m0-1a3,3,0,1,0,3,3A3,3,0,0,0,13.775,11.25Z"/><path d="M24.225,21.75a2,2,0,1,1-2,2,2,2,0,0,1,2-2m0-1a3,3,0,1,0,3,3h0A3,3,0,0,0,24.225,20.75Z"/></svg>