<?xml version="1.0" encoding="utf-8"?>
<!-- Generator: Adobe Illustrator 23.0.1, SVG Export Plug-In . SVG Version: 6.00 Build 0)  -->
<svg version="1.1" id="Layer_1" xmlns="http://www.w3.org/2000/svg" xmlns:xlink="http://www.w3.org/1999/xlink" x="0px" y="0px"
	 viewBox="0 0 46.1 46.2" style="enable-background:new 0 0 46.1 46.2;" xml:space="preserve">
<title>discount--large</title>
<path d="M44.5,23.1l1.6-4l-2.9-3.2l0.1-4.3l-3.8-2l-1.4-4.1l-4.3-0.6L31,1.4l-4.3,0.9L23,0l-3.7,2.3L15,1.4l-2.7,3.4L8,5.4L6.6,9.5
	l-3.8,2l0.1,4.3L0,19.1l1.6,4l-1.6,4l2.9,3.2l-0.1,4.3l3.8,2L8,40.8l4.3,0.6l2.7,3.4l4.3-0.9l3.7,2.3l3.7-2.3l4.3,0.9l2.7-3.4
	l4.3-0.6l1.4-4.1l3.8-2l-0.1-4.3l2.9-3.2L44.5,23.1z M42.3,34L38.6,36l-1.3,3.9l-4.1,0.6l-2.6,3.2l-4.1-0.8L23,45l-3.5-2.1l-4.1,0.8
	l-2.6-3.2l-4.1-0.6L7.5,36L3.8,34L3.9,30l-2.8-3.1l1.5-3.8l-1.5-3.8l2.7-3.1l-0.1-4.1l3.6-1.9l1.3-3.9l4.1-0.6l2.6-3.2l4.1,0.8
	L23,1.2l3.5,2.1l4.1-0.8l2.6,3.2l4.1,0.6l1.3,3.9l3.7,1.9l-0.1,4.1l2.8,3.1l-1.5,3.8l1.5,3.8L42.2,30L42.3,34z"/>
<path d="M17.5,20.6c1.7,0,3-1.3,3-3s-1.3-3-3-3s-3,1.3-3,3S15.9,20.6,17.5,20.6z M17.5,15.6c1.1,0,2,0.9,2,2s-0.9,2-2,2s-2-0.9-2-2
	S16.4,15.6,17.5,15.6z"/>
<path d="M28.5,25.6c-1.7,0-3,1.3-3,3s1.3,3,3,3s3-1.3,3-3S30.2,25.6,28.5,25.6z M28.5,30.6c-1.1,0-2-0.9-2-2s0.9-2,2-2s2,0.9,2,2
	S29.6,30.6,28.5,30.6z"/>
<path d="M30.9,15.2c-0.2-0.2-0.5-0.2-0.7,0l-15,15c-0.2,0.2-0.2,0.5,0,0.7s0.5,0.2,0.7,0l15-15C31.1,15.7,31.1,15.4,30.9,15.2z"/>
</svg>
