<?xml version="1.0" encoding="utf-8"?>
<!-- Generator: Adobe Illustrator 23.0.1, SVG Export Plug-In . SVG Version: 6.00 Build 0)  -->
<svg version="1.1" id="Layer_1" xmlns="http://www.w3.org/2000/svg" xmlns:xlink="http://www.w3.org/1999/xlink" x="0px" y="0px"
	 viewBox="0 0 46.4 45.4" style="enable-background:new 0 0 46.4 45.4;" xml:space="preserve">
<title>discount-dates--large</title>
<rect x="8" y="16.4" width="2" height="2"/>
<rect x="16" y="16.4" width="2" height="2"/>
<rect x="23" y="16.4" width="2" height="2"/>
<rect x="8" y="23.4" width="2" height="2"/>
<rect x="23" y="23.4" width="2" height="2"/>
<rect x="31" y="23.4" width="2" height="2"/>
<rect x="8" y="30.4" width="2" height="2"/>
<rect x="16" y="30.4" width="2" height="2"/>
<rect x="23" y="30.4" width="2" height="2"/>
<rect x="31" y="30.4" width="2" height="2"/>
<rect x="8" y="37.4" width="2" height="2"/>
<rect x="16" y="37.4" width="2" height="2"/>
<rect x="23" y="37.4" width="2" height="2"/>
<path d="M20,21.4h-6v6h6V21.4z M18,25.4h-2v-2h2V25.4z"/>
<path d="M8,5.4v3H0v37h41V21.1c-0.3,0.1-0.7,0.3-1,0.4v23H1v-35h7v2c0,0.6,0.4,1,1,1s1-0.4,1-1v-2h14.5c0-0.3,0.1-0.7,0.1-1H10v-3
	c0-0.6-0.4-1-1-1S8,4.8,8,5.4z"/>
<path d="M45.6,10.3l0.7-1.8l-1.3-1.4l0.1-1.9l-1.7-0.9l-0.6-1.8l-1.9-0.3l-1.2-1.5L37.7,1l-1.7-1l-1.7,1l-1.9-0.4l-1.2,1.5l-1.9,0.3
	l-0.6,1.8L27,5.2l0.1,1.9l-1.3,1.4l0.7,1.8l-0.7,1.8l1.3,1.4L27,15.5l1.7,0.9l0.6,1.8l1.9,0.3l1.2,1.5l1.9-0.4l1.7,1l1.7-1l1.9,0.4
	l1.2-1.5l1.9-0.3l0.6-1.8l1.7-0.9l-0.1-1.9l1.3-1.4L45.6,10.3z M45.2,11.9l-1.1,1.3l0,1.7l-1.5,0.8L42,17.3l-1.7,0.3l-1.1,1.3
	l-1.7-0.3l-1.5,0.9l-1.5-0.9l-1.7,0.3l-1.1-1.3l-1.7-0.3l-0.5-1.6L28,14.9l0-1.7l-1.1-1.3l0.6-1.6l-0.6-1.6l1.1-1.3l0-1.7l1.5-0.8
	l0.5-1.6l1.7-0.3l1.1-1.3l1.7,0.3l1.5-0.9l1.5,0.9l1.7-0.3l1.1,1.3L42,3.3l0.5,1.6l1.5,0.8l-0.1,1.7l1.1,1.3l-0.6,1.6L45.2,11.9z"/>
<path d="M31.9,7.8c0,0.8,0.6,1.4,1.4,1.4c0.8,0,1.4-0.6,1.4-1.4c0-0.8-0.6-1.4-1.4-1.4C32.6,6.4,31.9,7,31.9,7.8z M34.3,7.8
	c0,0.5-0.4,0.9-0.9,0.9c-0.5,0-0.9-0.4-0.9-0.9s0.4-0.9,0.9-0.9h0C33.9,6.9,34.3,7.3,34.3,7.8C34.3,7.8,34.3,7.8,34.3,7.8L34.3,7.8z
	"/>
<path d="M38.5,11.6c-0.8,0-1.4,0.6-1.4,1.4c0,0.8,0.6,1.4,1.4,1.4c0.8,0,1.4-0.6,1.4-1.4v0C39.9,12.2,39.3,11.6,38.5,11.6z
	 M38.5,13.9c-0.5,0-0.9-0.4-0.9-0.9S38,12,38.5,12s0.9,0.4,0.9,0.9v0C39.5,13.5,39.1,13.9,38.5,13.9z"/>
<path d="M39.6,7c0.1-0.1,0.1-0.2,0-0.3s-0.2-0.1-0.3,0l-7.1,7.1c-0.1,0.1-0.1,0.2,0,0.3s0.2,0.1,0.3,0L39.6,7z"/>
</svg>
