<svg xmlns="http://www.w3.org/2000/svg" width="28.85" height="23.85" viewBox="0 0 28.85 23.85"><title>dog--small</title><path d="M28.85,5.25a.645.645,0,0,0-.6-.6h-3.4l-1-1a.758.758,0,0,0-.4-.2h-1.2a.645.645,0,0,0-.6.6.645.645,0,0,0,.6.6h.9l1,1a.758.758,0,0,0,.4.2h3v.3l-2.1,2h-2.2a.756.756,0,0,0-.4.1.1.1,0,0,0-.1.1l.1.2-3.3,3.3-.2.2a.758.758,0,0,0-.2.4v3.5a.52.52,0,0,0,.2.4l3.6,3.6,2.5,2.5a.566.566,0,1,0,.8-.8h0l-3.2-3.3-2.6-2.6v-3l.8-.8,1.6-1.6.2-.2.6-.6h2.1a.52.52,0,0,0,.4-.2l1.6-1.6.8-.8a.758.758,0,0,0,.2-.4Z"/><path d="M3.05,9.45a.645.645,0,0,0-.6.6h0v6.7l-2.2,2.5a.758.758,0,0,0-.2.4v4.2h1.2v-3.9l2.2-2.5a.758.758,0,0,0,.2-.4v-7a.645.645,0,0,0-.6-.6Z"/><path d="M17.45,15.45h-6.9l-1-1-.9-.9-.4-.4a.608.608,0,0,0-.8,0,.758.758,0,0,0-.2.4v2.2l-2.2,2.1a.608.608,0,0,0,0,.8h0l3.6,3.6.1.1a.566.566,0,1,0,.8-.8h0l-.9-.9-2.3-2.4,2-1.9a.758.758,0,0,0,.2-.4v-1l.2.2,1.2,1.2a.758.758,0,0,0,.4.2h6.5v7.2h1.2v-7.8a.648.648,0,0,0-.6-.5Z"/><path d="M20.45,4.35l2.2-2.2a.608.608,0,0,0,0-.8.608.608,0,0,0-.8,0l-2.6,2.6v2.4l-1.9,1.8-.2.2H4.35l-.2-.2L.95,4.95a.608.608,0,0,0-.8,0,.608.608,0,0,0,0,.8l3.7,3.7h13.8l1.4-1.4,1.4-1.3Z"/><path d="M14.25,4.15l2.8,2.8.8-.8-6-6a.608.608,0,0,0-.8,0,.608.608,0,0,0,0,.8Z"/></svg>