<svg xmlns="http://www.w3.org/2000/svg" width="16" height="25" viewBox="0 0 16 25"><title>drink--small</title><path d="M15.5,0H11.669a2.5,2.5,0,0,0-2.46,2.053L7.77,9.965c-.257.012-.5.035-.77.035H6.75C3.41,9.95,1,8.94,1,8.5S3.53,7,7,7h.29l.19-.99C7.32,6,7.16,6,7,6,4.18,6,0,6.79,0,8.5a.916.916,0,0,0,.039.293L2.855,23.777A1.5,1.5,0,0,0,4.329,25H9.671a1.5,1.5,0,0,0,1.474-1.223l2.8-14.917A1.133,1.133,0,0,0,14,8.5c0-1.07-1.63-1.78-3.53-2.16h-.01l-.17.98C11.96,7.67,13,8.21,13,8.5c0,.31-1.23.92-3.15,1.25-.324.059-.686.1-1.049.142l1.393-7.659A1.5,1.5,0,0,1,11.669,1H15.5a.5.5,0,1,0,0-1ZM9.66,10.79a10.979,10.979,0,0,0,3.068-.849L10.162,23.592A.5.5,0,0,1,9.671,24H4.329a.5.5,0,0,1-.491-.408L1.273,9.946a14.261,14.261,0,0,0,5.3,1.044c.15.01.29.01.43.01.186,0,.391-.017.587-.024l-.546,3a9.474,9.474,0,0,1-3.355-.524.5.5,0,1,0-.371.928,10.13,10.13,0,0,0,3.542.61L5.508,22.41a.5.5,0,0,0,.4.582A.567.567,0,0,0,6,23a.5.5,0,0,0,.491-.41l1.386-7.625a9.47,9.47,0,0,0,2.807-.581.5.5,0,0,0-.371-.928,8.159,8.159,0,0,1-2.248.475l.549-3.021C8.963,10.878,9.311,10.844,9.66,10.79Z"/></svg>