<svg xmlns="http://www.w3.org/2000/svg" width="23.2" height="22.9" viewBox="0 0 23.2 22.9"><defs><style>.a{fill:none;stroke:#000;stroke-linecap:round;stroke-miterlimit:10;}</style></defs><title>elephant--small</title><circle cx="16" cy="7.5" r="0.5"/><path d="M20.5,19h-1V7.5A6.487,6.487,0,0,0,13,1H4.5V0H13a7.555,7.555,0,0,1,7.5,7.5Z"/><path class="a" d="M18,15"/><path d="M22.7,22.9h-.1A3.971,3.971,0,0,1,19.5,19a.5.5,0,0,1,1,0,2.9,2.9,0,0,0,2.3,2.9.548.548,0,0,1,.4.6A.664.664,0,0,1,22.7,22.9Z"/><path d="M12.5,11a8.446,8.446,0,0,1-8-8V1A.472.472,0,0,1,5,.5a.472.472,0,0,1,.5.5V3a7.371,7.371,0,0,0,7,7,.5.5,0,1,1,0,1Z"/><rect x="15.5" y="12" width="1" height="9"/><path d="M4.5,14.5a6.979,6.979,0,0,0-4,1.2v1.2a6.282,6.282,0,0,1,4-1.4A6.545,6.545,0,0,1,10.9,21h1A7.452,7.452,0,0,0,4.5,14.5Z"/><rect x="11" y="20" width="5.5" height="1"/><path d="M4.5,2H.5A.472.472,0,0,1,0,1.5.472.472,0,0,1,.5,1h4a.472.472,0,0,1,.5.5A.472.472,0,0,1,4.5,2Z"/><path d="M18,15.4a.472.472,0,0,1-.5-.5A2.9,2.9,0,0,0,15.2,12a.51.51,0,1,1,.2-1,3.971,3.971,0,0,1,3.1,3.9A.472.472,0,0,1,18,15.4Z"/></svg>