<?xml version="1.0" encoding="utf-8"?>
<!-- Generator: Adobe Illustrator 23.0.1, SVG Export Plug-In . SVG Version: 6.00 Build 0)  -->
<svg version="1.1" id="Layer_1" xmlns="http://www.w3.org/2000/svg" xmlns:xlink="http://www.w3.org/1999/xlink" x="0px" y="0px"
	 viewBox="0 0 42.8 44.5" style="enable-background:new 0 0 42.8 44.5;" xml:space="preserve">
<title>euregio-ticket--large</title>
<polygon points="21,0 20.5,1.4 19.1,1.4 20.2,2.3 19.8,3.7 21,2.8 22.2,3.7 21.8,2.3 22.9,1.4 21.5,1.4 "/>
<polygon points="31.2,2.5 30.7,3.8 29.2,3.9 30.4,4.8 30,6.1 31.2,5.3 32.4,6.1 31.9,4.8 33.1,3.9 31.6,3.8 "/>
<polygon points="9.1,6.1 10.3,5.3 11.5,6.1 11.1,4.8 12.2,3.9 10.8,3.8 10.3,2.5 9.8,3.8 8.4,3.9 9.5,4.8 "/>
<polygon points="37.1,13.1 38.3,12.2 39.5,13.1 39.1,11.7 40.3,10.8 38.8,10.8 38.3,9.4 37.8,10.8 36.4,10.8 37.6,11.7 "/>
<polygon points="1.9,13.1 3.1,12.2 4.3,13.1 3.9,11.7 5.1,10.8 3.6,10.8 3.1,9.4 2.7,10.8 1.2,10.8 2.4,11.7 "/>
<polygon points="38.8,31.9 38.3,30.5 37.8,31.9 36.4,31.9 37.6,32.8 37.1,34.2 38.3,33.3 39.5,34.2 39.1,32.8 40.3,31.9 "/>
<polygon points="31.4,39.3 30.9,37.9 30.4,39.3 29,39.3 30.1,40.2 29.7,41.6 30.9,40.8 32.1,41.6 31.7,40.2 32.8,39.3 "/>
<polygon points="42.8,21.6 41.3,21.6 40.9,20.2 40.4,21.6 38.9,21.6 40.1,22.5 39.7,23.9 40.9,23.1 42.1,23.9 41.6,22.5 "/>
<polygon points="21.5,42.2 21,40.9 20.5,42.2 19.1,42.3 20.2,43.1 19.8,44.5 21,43.7 22.2,44.5 21.8,43.1 22.9,42.3 "/>
<circle cx="4" cy="31.8" r="1"/>
<circle cx="9" cy="31.8" r="1"/>
<path d="M13,31.8V20.7c-4-2.6-9-2.6-13,0v13.2c4,2.6,9,2.6,13,0V31.8z M6.5,19.8c1.4,0,2.9,0.3,4.2,0.8l-1.1,7.2
	c-2,0.6-4.2,0.6-6.3,0l-1.1-7.2C3.6,20,5.1,19.8,6.5,19.8z M1,33.3v-12c0.1-0.1,0.2-0.1,0.3-0.2l1.1,7.5l0.3,0.1
	c2.4,0.8,5.1,0.8,7.5,0l0.3-0.1l1.1-7.5c0.1,0.1,0.2,0.1,0.3,0.2v12C8.6,35.3,4.4,35.3,1,33.3L1,33.3z"/>
<path d="M10.6,37.8H9.5c0,0.1,0,0.2,0,0.2l0.9,1.8H2.6L3.4,38c0-0.1,0-0.1,0-0.2H2.4l-1.9,3.8c-0.1,0.2,0,0.5,0.2,0.7c0,0,0,0,0,0
	c0.1,0,0.1,0.1,0.2,0.1c0.2,0,0.4-0.1,0.4-0.3l0.6-1.2h8.9l0.6,1.2c0.1,0.2,0.4,0.3,0.7,0.2c0.2-0.1,0.3-0.4,0.2-0.7L10.6,37.8z"/>
</svg>
