<svg xmlns="http://www.w3.org/2000/svg" width="35" height="35" viewBox="0 0 35 35"><title>euro--medium</title><path d="M10.524,19.575V18.53h1.181a9.712,9.712,0,0,1-.058-1.1q0-.254.014-.493t.034-.464H10.524V15.425H11.88a6.123,6.123,0,0,1,2.609-3.755,7.944,7.944,0,0,1,4.463-1.225,6.455,6.455,0,0,1,2.324.437l-.518,1.079a5.121,5.121,0,0,0-1.807-.325,6.257,6.257,0,0,0-3.457.935,5.181,5.181,0,0,0-2.109,2.854h5.693l-.527,1.045h-5.42q-.039.264-.059.542t-.02.571a7.783,7.783,0,0,0,.059.947h4.424l-.518,1.045h-3.69a5.045,5.045,0,0,0,2.1,2.873,6.251,6.251,0,0,0,3.467.916,7.672,7.672,0,0,0,2.383-.341v1.308a10.009,10.009,0,0,1-1.05.166,11.369,11.369,0,0,1-1.2.059,8.168,8.168,0,0,1-4.521-1.179,6.063,6.063,0,0,1-2.619-3.8Z"/><path d="M17.5,35A17.5,17.5,0,1,1,35,17.5,17.5,17.5,0,0,1,17.5,35Zm0-34A16.5,16.5,0,1,0,34,17.5,16.5,16.5,0,0,0,17.5,1Z"/></svg>