<svg xmlns="http://www.w3.org/2000/svg" width="34.709" height="22.729" viewBox="0 0 34.709 22.729"><title>eye--large</title><path d="M17.354,22.729A19.086,19.086,0,0,1,7.205,19.854,18.313,18.313,0,0,1,.094,11.608L0,11.4.094,11.2A18.469,18.469,0,0,1,7.241,2.913a19.323,19.323,0,0,1,17-1.678,18.274,18.274,0,0,1,6.013,3.8A19.193,19.193,0,0,1,34.616,11.2l.093.206-.094.206A18.314,18.314,0,0,1,27.5,19.853,19.083,19.083,0,0,1,17.354,22.729ZM1.1,11.4A17.279,17.279,0,0,0,7.729,19,18.354,18.354,0,0,0,26.98,19h0a17.287,17.287,0,0,0,6.63-7.6,18.141,18.141,0,0,0-4.04-5.631,17.255,17.255,0,0,0-5.682-3.6A18.325,18.325,0,0,0,7.767,3.764,17.454,17.454,0,0,0,1.1,11.4Z"/><path d="M17.475,17.7a6.174,6.174,0,0,1-3.147-.86A6.443,6.443,0,0,1,12,14.536a6.292,6.292,0,0,1,2.992-8.972,6.185,6.185,0,0,1,2.436-.492,6.292,6.292,0,0,1,6.289,6.292,6.2,6.2,0,0,1-1.815,4.46h0A5.978,5.978,0,0,1,17.475,17.7ZM17.43,6.071a5.182,5.182,0,0,0-2.043.412,5.289,5.289,0,0,0-2.524,7.54,5.472,5.472,0,0,0,1.971,1.949,5.188,5.188,0,0,0,2.644.724,4.944,4.944,0,0,0,3.713-1.568h0a5.167,5.167,0,0,0,1.528-3.764A5.291,5.291,0,0,0,17.43,6.075Z"/></svg>