<svg xmlns="http://www.w3.org/2000/svg" width="21" height="21" viewBox="0 0 21 21"><title>eye-crossed--small</title><path d="M1.29,2.847,4.215,5.772A10.815,10.815,0,0,0,.438,10.315l-.093.207.093.206a10.687,10.687,0,0,0,4.148,4.807A11.117,11.117,0,0,0,10.5,17.211a10.959,10.959,0,0,0,4.274-.88L17.3,18.86l.707-.707L2,2.14ZM10.5,16.211a10.136,10.136,0,0,1-5.39-1.527,9.664,9.664,0,0,1-3.665-4.162A9.76,9.76,0,0,1,4.928,6.486L6.876,8.433a3.785,3.785,0,0,0-.23.426A4.215,4.215,0,0,0,6.9,12.63a4.324,4.324,0,0,0,1.561,1.546,4.153,4.153,0,0,0,2.116.578,3.973,3.973,0,0,0,2.061-.564l1.382,1.382A10.025,10.025,0,0,1,10.5,16.211ZM7.61,9.167,11.9,13.454a3.031,3.031,0,0,1-1.325.3,3.122,3.122,0,0,1-1.612-.442,3.283,3.283,0,0,1-1.205-1.193,3.091,3.091,0,0,1-.44-1.623A3.163,3.163,0,0,1,7.566,9.25C7.578,9.221,7.6,9.2,7.61,9.167Z"/><path d="M14.067,12.86a4.154,4.154,0,0,0,.7-2.364,4.229,4.229,0,0,0-4.228-4.228A4.18,4.18,0,0,0,8.9,6.6a4.408,4.408,0,0,0-.713.387l.734.734a3.457,3.457,0,0,1,.37-.2,3.169,3.169,0,0,1,1.247-.252A3.228,3.228,0,0,1,13.771,10.5a3.154,3.154,0,0,1-.437,1.632Z"/><path d="M20.562,10.316a11.151,11.151,0,0,0-2.543-3.587A10.638,10.638,0,0,0,14.512,4.51a11.258,11.258,0,0,0-8.542.254l.775.775a10.15,10.15,0,0,1,7.414-.094,9.635,9.635,0,0,1,3.176,2.014,10.127,10.127,0,0,1,2.22,3.062,9.654,9.654,0,0,1-3.665,4.163l.714.713a10.7,10.7,0,0,0,3.957-4.669l.094-.206Z"/></svg>