<svg xmlns="http://www.w3.org/2000/svg" width="31" height="31" viewBox="0 0 31 31"><title>facebook--large</title><g id="Layer_2" data-name="Layer 2"><g id="Layer_1-2" data-name="Layer 1"><g id="UI-library"><g id="icons"><g id="social"><g id="_07_icons_04_social_facebook" data-name="07_icons/04_social/facebook"><g id="icon-facebook"><path d="M28.921,31h-8V18.315h3.612l.494-3.579H20.685V11.4c0-1.262.308-2.711,2.71-2.711h1.869V5.557l-.359-.025c-.68-.047-1.613-.111-2.615-.111-3.395,0-5.342,2.005-5.342,5.5v3.815H13v3.579h3.948V31H2.079A2.084,2.084,0,0,1,0,28.921V2.079A2.19,2.19,0,0,1,2.079,0H28.921A2.191,2.191,0,0,1,31,2.079V28.921A2.084,2.084,0,0,1,28.921,31Zm-7-1h7A1.082,1.082,0,0,0,30,28.921V2.079A1.2,1.2,0,0,0,28.921,1H2.079A1.2,1.2,0,0,0,1,2.079V28.921A1.081,1.081,0,0,0,2.079,30H15.948V19.315H12V13.736h3.948V10.921c0-4.01,2.43-6.5,6.342-6.5,1.037,0,1.989.065,2.684.114.355.025.63.044.79.044h.5v5.1H23.4c-1.455,0-1.71.551-1.71,1.711v2.341h4.5l-.771,5.579H21.926Z"/></g></g></g></g></g></g></g></svg>