<svg xmlns="http://www.w3.org/2000/svg" width="17" height="25.557" viewBox="0 0 17 25.557"><title>ferry--small</title><path d="M14.838,22.5,16,15.078a.506.506,0,0,0-.205-.488L14,13.309V6.265l-.182-.151A9.175,9.175,0,0,0,9,4.52c0-.007,0-.013,0-.02V.5a.5.5,0,0,0-1,0v4c0,.008,0,.014,0,.022a8.911,8.911,0,0,0-4.829,1.6L3,6.27v6.991l-1.7,1.2a.506.506,0,0,0-.208.483L2.17,22.5H0v1H2.5c.462,1,1.876,2,4.5,2v-1a4.611,4.611,0,0,1-3.768-1.685l-1.1-7.71L8,10.968V23.5a.5.5,0,0,0,1,0V10.976l5.954,4.253-1.186,7.588A4.572,4.572,0,0,1,10,24.557v1c2.625,0,4.042-1.057,4.505-2.057H17v-1ZM13,12.595l-4.207-3-.014-.006a.531.531,0,0,0-.106-.048A.546.546,0,0,0,8.6,9.508a.474.474,0,0,0-.113,0,.492.492,0,0,0-.077,0,.468.468,0,0,0-.1.037.487.487,0,0,0-.084.037s-.012,0-.017.008L4,12.556V6.743a8.751,8.751,0,0,1,9,.005ZM6,9.5H7v-1h3v1h1v-2H6Z"/></svg>