<svg xmlns="http://www.w3.org/2000/svg" width="21" height="21" viewBox="0 0 21 21"><title>file-pdf--small</title><polygon points="15 6 9 6 9 0 10 0 10 5 15 5 15 6"/><path d="M20,9v7H4V9H20m1-1H3v9H21V8Z"/><polygon points="14 17 14 20 1 20 1 1 9.6 1 14 5.4 14 9 15 9 15 5 10 0 0 0 0 21 15 21 15 17 14 17"/><rect x="5" y="10" width="1" height="5"/><rect x="5" y="10" width="3" height="1"/><rect x="5" y="12" width="3" height="1"/><rect x="8" y="11" width="1" height="1"/><rect x="10" y="10" width="1" height="5"/><rect x="11" y="10" width="2" height="1"/><rect x="13" y="11" width="1" height="3"/><rect x="11" y="14" width="2" height="1"/><rect x="15" y="10" width="1" height="5"/><rect x="16" y="10" width="3" height="1"/><rect x="16" y="12" width="2" height="1"/></svg>