<svg xmlns="http://www.w3.org/2000/svg" width="19" height="19" viewBox="0 0 19 19"><title>filter--small</title><path d="M2.5,5A.5.5,0,0,1,2,4.5V.5a.5.5,0,0,1,1,0v4A.5.5,0,0,1,2.5,5Z"/><path d="M2.5,19a.5.5,0,0,1-.5-.5V10.312a.5.5,0,0,1,1,0V18.5A.5.5,0,0,1,2.5,19Z"/><path d="M3.5,6.9a.5.5,0,1,1,0,1h-2a.5.5,0,1,1,0-1h2m0-1h-2a1.5,1.5,0,1,0,0,3h2a1.5,1.5,0,1,0,0-3Z"/><path d="M16.5,2.8a.5.5,0,0,1-.5-.5V.5a.5.5,0,0,1,1,0V2.3A.5.5,0,0,1,16.5,2.8Z"/><path d="M16.5,19a.5.5,0,0,1-.5-.5V8.512a.5.5,0,0,1,1,0V18.5A.5.5,0,0,1,16.5,19Z"/><path d="M17.5,4.9a.5.5,0,1,1,0,1h-2a.5.5,0,1,1,0-1h2m0-1h-2a1.5,1.5,0,1,0,0,3h2a1.5,1.5,0,1,0,0-3Z"/><path d="M9.5,19a.5.5,0,0,1-.5-.5V14.512a.5.5,0,0,1,1,0V18.5A.5.5,0,0,1,9.5,19Z"/><path d="M9.5,9.2A.5.5,0,0,1,9,8.7V.5a.5.5,0,0,1,1,0V8.7A.5.5,0,0,1,9.5,9.2Z"/><path d="M10.5,11.112a.5.5,0,1,1,0,1h-2a.5.5,0,1,1,0-1h2m0-1h-2a1.5,1.5,0,1,0,0,3h2a1.5,1.5,0,1,0,0-3Z"/></svg>