<svg xmlns="http://www.w3.org/2000/svg" width="36.124" height="36.124" viewBox="0 0 36.124 36.124"><title>fundamentals--large</title><path d="M28.919,18.84l.017-.232h7.188V17.516H28.936l-.017-.232A10.936,10.936,0,0,0,18.84,7.2l-.232-.017V0H17.516V7.188l-.232.017A10.936,10.936,0,0,0,7.205,17.284l-.017.232H0v1.092H7.188l.017.232A10.936,10.936,0,0,0,17.284,28.919l.232.017v7.188h1.092V28.936l.232-.017A10.936,10.936,0,0,0,28.919,18.84ZM18.062,27.862a9.8,9.8,0,1,1,9.8-9.8h0A9.816,9.816,0,0,1,18.062,27.862Z"/><circle cx="18.062" cy="18.062" r="2.935"/></svg>