<svg xmlns="http://www.w3.org/2000/svg" width="33" height="31" viewBox="0 0 33 31"><title>gift--medium</title><path d="M15.187,8C6.948,8,5.726,4.878,5.55,3.86A3.379,3.379,0,0,1,8.18.192c2.417-.723,6.083.456,8.842,5.923a4.511,4.511,0,0,1,.275-.766c2.226-4.093,5.247-4.8,7.153-4.16a2.688,2.688,0,0,1,2.02,2.834c-.13.866-1.186,3.709-9.328,3.923Q16.1,8,15.187,8ZM9.532.951a3.774,3.774,0,0,0-1.081.155A2.446,2.446,0,0,0,6.489,3.7c.3,1.707,3.076,3.568,9.914,3.325C14.276,2.513,11.594.951,9.532.951Zm13.613.986c-1.508,0-3.444.986-5.012,3.869a10.523,10.523,0,0,0-.362,1.158h0c5.407-.255,7.561-1.8,7.754-3.086A1.739,1.739,0,0,0,24.146,2.09,3.164,3.164,0,0,0,23.145,1.937Z"/><path d="M15.453,8H0v7H2V31H31V15h2V8ZM16,30H3V15H16Zm0-16H1V9H16ZM30,30H17V15H30ZM32,9v5H17V9Z"/></svg>