<svg xmlns="http://www.w3.org/2000/svg" width="35" height="35.732" viewBox="0 0 35 35.732"><title>greenwheels--large</title><path d="M17.483,10.4a7.118,7.118,0,0,0-5.13,2.164,7.675,7.675,0,0,0-2.164,5.3,7.523,7.523,0,0,0,2.164,5.269,7.166,7.166,0,0,0,10.329,0,7.5,7.5,0,0,0,2.129-5.269,7.645,7.645,0,0,0-2.129-5.3A7.16,7.16,0,0,0,17.483,10.4Zm0,25.334A17.309,17.309,0,0,1,5.13,30.463a18.074,18.074,0,0,1,0-25.229,17.236,17.236,0,0,1,24.741,0,18.076,18.076,0,0,1,0,25.229A17.326,17.326,0,0,1,17.483,35.732Z"/></svg>