<svg xmlns="http://www.w3.org/2000/svg" width="51" height="41.416" viewBox="0 0 51 41.416"><title>group--large</title><path d="M7.435,8.773A4.415,4.415,0,0,1,3.65,6.637a4.381,4.381,0,1,1,7.521-4.5h0A4.37,4.37,0,0,1,7.435,8.773ZM7.391,1a3.376,3.376,0,0,0-2.884,5.12A3.4,3.4,0,0,0,9.159,7.3a3.377,3.377,0,0,0,1.153-4.641h0A3.4,3.4,0,0,0,7.391,1Z"/><path d="M14.5,26.416a.5.5,0,0,1-.5-.5v-11a3.157,3.157,0,0,0-3.146-3H10a.5.5,0,1,1,0-1h.854a4.182,4.182,0,0,1,4.146,4v11A.5.5,0,0,1,14.5,26.416Z"/><path d="M.5,26.416a.5.5,0,0,1-.5-.5v-11a3.975,3.975,0,0,1,3.94-4H5a.5.5,0,1,1,0,1H3.94a2.974,2.974,0,0,0-2.94,3v11A.5.5,0,0,1,.5,26.416Z"/><path d="M19.531,8.773a4.415,4.415,0,0,1-3.785-2.137,4.4,4.4,0,1,1,3.785,2.137ZM19.487,1A3.377,3.377,0,0,0,16.6,6.122,3.407,3.407,0,0,0,21.256,7.3a3.377,3.377,0,0,0,1.153-4.641h0A3.4,3.4,0,0,0,19.487,1Z"/><path d="M26.5,26.416a.5.5,0,0,1-.5-.5v-11a3.065,3.065,0,0,0-3.049-3H22a.5.5,0,1,1,0-1h.951a4.079,4.079,0,0,1,4.049,4v11A.5.5,0,0,1,26.5,26.416Z"/><path d="M31.629,8.773A4.4,4.4,0,0,1,27.35,3.305a4.342,4.342,0,0,1,2-2.686,4.4,4.4,0,0,1,6.017,1.52h0a4.37,4.37,0,0,1-3.736,6.634ZM31.585,1A3.377,3.377,0,0,0,28.7,6.121,3.4,3.4,0,0,0,33.353,7.3a3.374,3.374,0,0,0,1.153-4.641h0A3.4,3.4,0,0,0,31.585,1Z"/><path d="M38.5,26.416a.5.5,0,0,1-.5-.5v-11a2.979,2.979,0,0,0-2.951-3H34a.5.5,0,1,1,0-1h1.049a3.98,3.98,0,0,1,3.951,4v11A.5.5,0,0,1,38.5,26.416Z"/><path d="M43.629,8.773A4.4,4.4,0,0,1,39.35,3.305a4.342,4.342,0,0,1,2-2.686,4.4,4.4,0,0,1,6.017,1.52h0a4.37,4.37,0,0,1-3.736,6.634ZM43.585,1A3.377,3.377,0,0,0,40.7,6.121,3.4,3.4,0,0,0,45.353,7.3a3.374,3.374,0,0,0,1.153-4.641h0A3.4,3.4,0,0,0,43.585,1Z"/><path d="M50.5,26.416a.5.5,0,0,1-.5-.5v-11a2.979,2.979,0,0,0-2.951-3H46a.5.5,0,1,1,0-1h1.049a3.98,3.98,0,0,1,3.951,4v11A.5.5,0,0,1,50.5,26.416Z"/><path d="M11,25.916v15a.5.5,0,0,0,1,0v-15Z"/><path d="M3.5,41.416a.5.5,0,0,0,.5-.5v-15H3v15A.5.5,0,0,0,3.5,41.416Z"/><path d="M23,40.916a.5.5,0,0,0,1,0v-15H23Z"/><path d="M35,40.916a.5.5,0,0,0,1,0v-15H35Z"/><path d="M47,40.916a.5.5,0,0,0,1,0v-15H47Z"/></svg>