<svg xmlns="http://www.w3.org/2000/svg" width="19" height="17" viewBox="0 0 19 17"><title>hart--small</title><path d="M9.5,17l-.356-.357c-.271-.271-6.637-6.652-7.5-7.584A5.573,5.573,0,0,1,0,5.162,5.205,5.205,0,0,1,5.236,0,4.861,4.861,0,0,1,9.5,2.5,4.854,4.854,0,0,1,13.763,0a5.251,5.251,0,0,1,3.7,1.5h0A5.092,5.092,0,0,1,19,5.162a5.576,5.576,0,0,1-1.645,3.9c-.863.932-7.229,7.312-7.5,7.584ZM5.236.986A4.211,4.211,0,0,0,1,5.162,4.639,4.639,0,0,0,2.383,8.4c.734.793,5.729,5.808,7.117,7.2,1.388-1.392,6.382-6.407,7.117-7.2A4.642,4.642,0,0,0,18,5.162,4.119,4.119,0,0,0,16.76,2.2h0a4.246,4.246,0,0,0-3-1.219A4.043,4.043,0,0,0,9.966,3.826L9.5,5.066l-.47-1.238A4.058,4.058,0,0,0,5.236.986Z"/></svg>