<svg xmlns="http://www.w3.org/2000/svg" width="35" height="33.503" viewBox="0 0 35 33.503"><title>hotel--medium</title><path d="M6,20.5a4,4,0,1,1,4-4A4,4,0,0,1,6,20.5Zm0-7a3,3,0,1,0,3,3A3,3,0,0,0,6,13.5Z"/><path d="M29.438,15.5H15.563A5.569,5.569,0,0,0,10,21.065V21.5H1V11a.5.5,0,0,0-1,0V33a.5.5,0,0,0,1,0V28.5H34V33a.5.5,0,0,0,1,0V21.065A5.569,5.569,0,0,0,29.438,15.5ZM11,21.065A4.568,4.568,0,0,1,15.563,16.5H17v5H11ZM1,22.5H17v5H1Zm17,5v-11H29.438A4.568,4.568,0,0,1,34,21.065V27.5Z"/><path d="M18.266,10.5A5.265,5.265,0,0,1,17.682,0a.5.5,0,0,1,.444.812A3.207,3.207,0,0,0,17.4,2.854,3.248,3.248,0,0,0,20.647,6.1h0a3.207,3.207,0,0,0,2.037-.722.5.5,0,0,1,.812.444A5.256,5.256,0,0,1,18.266,10.5Zm-1.55-9.24a4.266,4.266,0,1,0,5.525,5.525,4.241,4.241,0,0,1-5.526-5.525Z"/></svg>