<svg xmlns="http://www.w3.org/2000/svg" width="50.327" height="34.616" viewBox="0 0 50.327 34.616"><title>ic-direct--large</title><path d="M16.184,16.352V.116h3.271V16.351H16.184Z"/><path d="M31.19,16.468c-5.59,0-8.813-3.039-8.813-8.28C22.377,3.132,25.624,0,30.889,0A10.285,10.285,0,0,1,34.9.72l-.255,2.76A6.937,6.937,0,0,0,31.214,2.6c-3.316,0-5.357,2.11-5.357,5.5a5.292,5.292,0,0,0,5.45,5.659,9.258,9.258,0,0,0,3.525-.7l.139,2.877A11.821,11.821,0,0,1,31.19,16.468Z"/><path d="M7.218,34.352,7.2,32.69a2.809,2.809,0,0,1-.661.944A3.471,3.471,0,0,1,4.1,34.5C1.493,34.5,0,32.575,0,29.271c0-2.947,1.605-4.912,4.043-4.912a3.426,3.426,0,0,1,2.248.774A2.85,2.85,0,0,1,7.1,26.172a6.411,6.411,0,0,1-.076-.868c-.019-.266-.019-.436-.019-.473V20.07H9.539V31.5c0,.453.019,1.285.038,1.682.019.85,0,.623.037,1.171ZM4.723,26.474c-1.3,0-2.1,1.115-2.1,2.929,0,1.87.869,3.1,2.21,3.1,1.3,0,2.211-1.209,2.211-2.985C7.048,27.683,6.122,26.474,4.723,26.474Z"/><path d="M12.4,22.753v-2.4H15.02v2.4H12.4Zm.037,11.6V24.529h2.551v9.823Z"/><path d="M22.785,26.8a2.252,2.252,0,0,0-1.492.566c-.661.6-.888,1.284-.888,2.947v4.042H17.874V27.494c0-.265-.02-.793-.02-1.058,0-.3,0-.623-.019-.926-.019-.189,0-.51-.019-.736l-.02-.246h2.3l.057,2.494c.453-1.7,1.379-2.569,2.758-2.569a2.07,2.07,0,0,1,.737.113v2.361A2.693,2.693,0,0,0,22.785,26.8Z"/><path d="M33.909,30.253H27.315a2.616,2.616,0,0,0,2.891,2.455,5.6,5.6,0,0,0,3.079-1l.038,2.21a8.325,8.325,0,0,1-3.42.7c-3.211,0-5.1-1.908-5.1-5.176,0-3.174,1.852-5.176,4.741-5.176,2.739,0,4.421,1.851,4.421,4.893C33.966,29.4,33.946,29.78,33.909,30.253Zm-4.421-4.194c-1.228,0-2.06.926-2.21,2.437h4.27C31.528,26.966,30.772,26.059,29.488,26.059Z"/><path d="M40.483,34.427A4.653,4.653,0,0,1,35.459,29.4a4.67,4.67,0,0,1,4.987-4.949,7.267,7.267,0,0,1,2.115.321l-.188,2.04a3.251,3.251,0,0,0-1.512-.341,2.721,2.721,0,0,0-2.776,2.967A2.682,2.682,0,0,0,40.9,32.312a3.532,3.532,0,0,0,1.757-.4l.113,2.135A7.013,7.013,0,0,1,40.483,34.427Z"/><path d="M48.665,34.427c-2.361,0-3.325-1.114-3.325-3.834V26.474H43.488V24.6h1.87v-2l2.551-.831V24.6h2.229v1.869H47.909v3.57A7.238,7.238,0,0,0,48,31.385a1.278,1.278,0,0,0,1.36,1,3.035,3.035,0,0,0,.888-.132l.076,1.983A7.011,7.011,0,0,1,48.665,34.427Z"/></svg>