<svg xmlns="http://www.w3.org/2000/svg" width="53.666" height="24.178" viewBox="0 0 53.666 24.178"><title>ice--large</title><polyline points="4.801 23.572 0 23.572 4.884 0.606 9.678 0.606 4.801 23.572"/><path d="M26.972,8.128c-.093-1.382-.277-3.963-4.244-3.963-2.3,0-6.016,1.529-7.4,8.019-.876,4.128-.038,7.839,4.027,7.839a6.373,6.373,0,0,0,6-4.321h4.8c-2.025,4.989-6.026,8.476-11.783,8.476-6.1,0-9.611-4.126-7.928-12.058C12.157,4.1,17.665,0,23.578,0c6.88,0,8.656,4.737,8.192,8.128h-4.8"/><polyline points="52.807 4.57 40.62 4.57 39.597 9.597 50.788 9.597 49.925 13.559 38.733 13.559 37.467 19.609 50.196 19.609 49.333 23.572 31.907 23.572 36.782 0.606 53.666 0.606 52.807 4.67"/></svg>