<svg xmlns="http://www.w3.org/2000/svg" width="15" height="21" viewBox="0 0 15 21"><title>invoice--small</title><path d="M9.878.048,9.756,0H0V21H15V5.1ZM10,1.51,13.341,5H10ZM14,20H1V1H9V6h5Z"/><rect x="4" y="9" width="2" height="1"/><rect x="7" y="9" width="2" height="1"/><rect x="10" y="9" width="1" height="1"/><rect x="4" y="13" width="2" height="1"/><rect x="4" y="11" width="2" height="1"/><rect x="7" y="13" width="2" height="1"/><rect x="7" y="11" width="2" height="1"/><rect x="10" y="13" width="1" height="1"/><rect x="10" y="11" width="1" height="1"/><rect x="8" y="16" width="3" height="1"/></svg>