<svg xmlns="http://www.w3.org/2000/svg" width="12.886" height="26.5" viewBox="0 0 12.886 26.5"><title>lamp--small</title><rect x="6.014" y="12.3" width="1" height="8.9"/><circle cx="6.514" cy="12.5" r="1"/><path d="M9.514,21.5h-6a.5.5,0,0,1,0-1h6a.5.5,0,0,1,0,1Z"/><path d="M9.514,23.5h-6a.5.5,0,0,1,0-1h6a.5.5,0,0,1,0,1Z"/><path d="M3.114,24.5a4.489,4.489,0,0,0,3.4,2,4.325,4.325,0,0,0,3.4-2Z"/><path d="M6.514,4.2a.472.472,0,0,1-.5-.5V.5a.5.5,0,0,1,1,0V3.7A.472.472,0,0,1,6.514,4.2Z"/><path d="M3.814,4.6c-.2,0-.4-.1-.4-.3l-1.3-2.6a.663.663,0,0,1,.2-.7.663.663,0,0,1,.7.2l1.3,2.6a.663.663,0,0,1-.2.7C3.914,4.6,3.914,4.6,3.814,4.6Z"/><path d="M9.214,4.6c-.1,0-.2,0-.2-.1a.574.574,0,0,1-.2-.7l1.3-2.6a.574.574,0,0,1,.7-.2.494.494,0,0,1,.1.7l-1.3,2.6C9.614,4.5,9.414,4.6,9.214,4.6Z"/><path d="M6.514,5.5c-2.8,0-5.8,1.4-6.4,4.6a9.117,9.117,0,0,0,.8,5.3,9.143,9.143,0,0,0,.7,1.4,20.291,20.291,0,0,1,1.1,2.6h1a20.451,20.451,0,0,0-1.3-3.1c-.2-.5-.5-.9-.7-1.4a8.883,8.883,0,0,1-.7-4.7c.4-2.6,3-3.8,5.4-3.8s5,1.2,5.4,3.8a7.9,7.9,0,0,1-.7,4.7c-.2.4-.4.9-.6,1.4a20.451,20.451,0,0,0-1.3,3.1h1a21.758,21.758,0,0,1,1.1-2.7c.2-.5.5-1,.7-1.4a10,10,0,0,0,.8-5.3C12.414,6.9,9.314,5.5,6.514,5.5Z"/></svg>