<svg xmlns="http://www.w3.org/2000/svg" width="19.61" height="20.002" viewBox="0 0 19.61 20.002"><title>like--small</title><path d="M18.909,11.208a3.439,3.439,0,0,0,.7-2.159A2.543,2.543,0,0,0,19.276,7.7,1.46,1.46,0,0,0,18,7H15.375C16.8,4.413,17.16,2.461,16.445,1.2A2.391,2.391,0,0,0,14.4,0a.5.5,0,0,0-.5.433,7.91,7.91,0,0,1-2.769,4.318,15.547,15.547,0,0,1-5.285,3.11A1.5,1.5,0,0,0,4.5,7h-3A1.5,1.5,0,0,0,0,8.5v9A1.5,1.5,0,0,0,1.5,19h3a1.5,1.5,0,0,0,1.4-.952,8.267,8.267,0,0,1,3.4,1.023c.9.478,1.739.93,4.5.93a3.473,3.473,0,0,0,1.909-.529,2.087,2.087,0,0,0,.927-1.343,2.108,2.108,0,0,0,1.023-1.092,4.362,4.362,0,0,0,.435-1.761A2.128,2.128,0,0,0,18.076,15a2.3,2.3,0,0,0,.667-.851,4.317,4.317,0,0,0,.433-1.826,2.119,2.119,0,0,0-.234-1.051c-.013-.023-.026-.044-.039-.065ZM4.493,18h-3a.5.5,0,0,1-.5-.5v-9a.5.5,0,0,1,.5-.5h3a.5.5,0,0,1,.5.5v9h0A.5.5,0,0,1,4.493,18Zm13.839-7.726c-.15.3-.3.413-.37.413a.5.5,0,1,0,0,1c.042,0,.072,0,.117.078a1.222,1.222,0,0,1,.1.559,3.315,3.315,0,0,1-.328,1.382c-.2.4-.4.544-.487.544a.5.5,0,0,0-.269.922,3.216,3.216,0,0,1-.5,1.718c-.145.209-.3.329-.419.329a.5.5,0,0,0-.5.5C15.676,18.6,14.7,19,13.8,19c-2.513,0-3.217-.376-4.031-.812a9.258,9.258,0,0,0-3.781-1.134V8.867A16.547,16.547,0,0,0,11.8,5.494a9.375,9.375,0,0,0,3-4.426,1.351,1.351,0,0,1,.776.617c.334.591.584,2.1-1.493,5.558A.5.5,0,0,0,14.512,8h3.483a.455.455,0,0,1,.43.234,1.584,1.584,0,0,1,.182.814,2.9,2.9,0,0,1-.273,1.226Z"/></svg>