<svg xmlns="http://www.w3.org/2000/svg" width="30.383" height="31.001" viewBox="0 0 30.383 31.001"><title>like--large</title><path d="M29.721,19.164a3.072,3.072,0,0,0-.336-1.526l-.008-.015-.281-.094.253-.3A5.123,5.123,0,0,0,30.381,14a3.755,3.755,0,0,0-.485-1.98,2.046,2.046,0,0,0-1.792-.987H23.533l.214-.389c2.2-4,2.766-6.99,1.688-8.9A3.5,3.5,0,0,0,22.442,0a.526.526,0,0,0-.52.454c-.29,2.14-1.911,4.679-4.448,6.967a24.906,24.906,0,0,1-8.421,4.956l-.221.076-.1-.212a2.116,2.116,0,0,0-1.9-1.206H2.1a2.1,2.1,0,0,0-2.1,2.1V27.322a2.1,2.1,0,0,0,2.1,2.1H6.829A2.1,2.1,0,0,0,8.79,28.089l.075-.189.2.025a13.246,13.246,0,0,1,5.468,1.64C15.92,30.3,17.224,31,21.509,31a5.207,5.207,0,0,0,2.863-.791,3.021,3.021,0,0,0,1.349-1.948l.028-.139.131-.054a3.07,3.07,0,0,0,1.476-1.592,6.585,6.585,0,0,0,.66-2.661,3.022,3.022,0,0,0-.026-.4l-.019-.153.125-.092a3.348,3.348,0,0,0,.972-1.245A6.535,6.535,0,0,0,29.721,19.164ZM7.877,27.319a1.052,1.052,0,0,1-1.051,1.052H2.1a1.052,1.052,0,0,1-1.051-1.05V13.135A1.052,1.052,0,0,1,2.1,12.085H6.827a1.052,1.052,0,0,1,1.051,1.05ZM28.055,16.845a.525.525,0,1,0,0,1.051.428.428,0,0,1,.412.254,2.156,2.156,0,0,1,.2,1.012,5.512,5.512,0,0,1-.544,2.295c-.307.619-.692,1-1,1a.526.526,0,0,0-.283.969l.109.069.012.127a5.347,5.347,0,0,1-.835,2.883c-.2.288-.516.631-.876.631a.526.526,0,0,0-.525.526c0,1.568-1.668,2.282-3.218,2.282-4.029,0-5.164-.608-6.478-1.312a14.4,14.4,0,0,0-5.868-1.758l-.23-.029V13.523l.18-.059A25.9,25.9,0,0,0,18.173,8.2a14.632,14.632,0,0,0,4.64-6.844l.067-.273.268.086A2.382,2.382,0,0,1,24.52,2.262c.555.98.986,3.456-2.357,9.024a.528.528,0,0,0,.451.8H28.1a.976.976,0,0,1,.9.493A2.75,2.75,0,0,1,29.33,14a4.849,4.849,0,0,1-.457,2.048l-.5.668h0A.537.537,0,0,1,28.055,16.845Z"/></svg>