<svg xmlns="http://www.w3.org/2000/svg" width="43" height="30" viewBox="0 0 43 30"><title>mail--large</title><path d="M21.5,17.7,3.6,4.943a.5.5,0,0,1,.554-.832l.026.018L21.5,16.475,38.822,4.129a.5.5,0,0,1,.58.814Z"/><path d="M39.408,1A2.6,2.6,0,0,1,42,3.592V26.408A2.6,2.6,0,0,1,39.408,29H3.592A2.6,2.6,0,0,1,1,26.408V3.592A2.6,2.6,0,0,1,3.592,1H39.408m0-1H3.592A3.592,3.592,0,0,0,0,3.592V26.408A3.592,3.592,0,0,0,3.592,30H39.408A3.592,3.592,0,0,0,43,26.408V3.592A3.592,3.592,0,0,0,39.408,0Z"/></svg>