<svg xmlns="http://www.w3.org/2000/svg" width="18.819" height="23.251" viewBox="0 0 18.819 23.251"><title>maintenance--small</title><path d="M18.75,22.5l-6.376-10.93L15.75,8.193a.494.494,0,0,0,.046-.638A4.309,4.309,0,0,0,13.5,5.419a4.428,4.428,0,0,0-4.751.894c-.006,0-.013,0-.019.006A.5.5,0,0,0,8.553,7l2.569,4.4L8.485,14.044V9.9l-1-1.8v6.945l-4,4a.5.5,0,0,0,.708.707L11.643,12.3,17.886,23a.5.5,0,0,0,.864-.5ZM9.625,6.856a3.462,3.462,0,0,1,.867-.53,3.508,3.508,0,0,1,3.8.771,3.284,3.284,0,0,1,.485.651l-2.927,2.927ZM7.272,5.462a2.833,2.833,0,0,0,.465.039,2.749,2.749,0,1,0-.465-.039ZM6.01,2.455A1.747,1.747,0,0,1,7.734,1a1.771,1.771,0,0,1,.3.025A1.75,1.75,0,1,1,6.01,2.455ZM8.632,18.182a.5.5,0,0,0-.147.354v4.215a.5.5,0,1,0,1,0V18.743l2.394-2.393-.5-.91ZM3.559,21.813a1.5,1.5,0,0,1-2.122-2.122L2.5,18.629l-.707-.707L.73,18.983a2.5,2.5,0,0,0,3.535,3.536l1.061-1.061-.707-.707Z"/></svg>