<svg xmlns="http://www.w3.org/2000/svg" width="51.046" height="41.701" viewBox="0 0 51.046 41.701"><title>manual-recharge--large</title><path d="M50.339,24.337c-.479-.464-8.2-8.2-9.336-9.335V8.218a2,2,0,0,0-2-2H17.4a9.456,9.456,0,0,1,.146,1H39a1,1,0,0,1,1,1v2H17.357a9.425,9.425,0,0,1-.285,1H40V27.2a1,1,0,0,1-1,1H36.362l-2.35-6.7a3.376,3.376,0,0,0-2-2.142V16.708a1.5,1.5,0,0,0-1.5-1.5h-2.5a3.756,3.756,0,0,0-2.627,1.415c-.152.154-5.357,5.364-5.451,5.458a2.86,2.86,0,0,1-1.941,1.114H15.527a.506.506,0,0,1-.5-.5V16.708a.506.506,0,0,1,.5-.5h2.047a2.5,2.5,0,1,0,0-1H15.527a1.5,1.5,0,0,0-1.5,1.5V22.7a1.5,1.5,0,0,0,1.5,1.5h2.5a3.723,3.723,0,0,0,2.627-1.415c.078-.081,5.366-5.369,5.451-5.458a2.8,2.8,0,0,1,1.94-1.114h2.469a.506.506,0,0,1,.5.5v2.463a4.3,4.3,0,0,0-.981.06,3.093,3.093,0,0,0-2.4,2.579,2.468,2.468,0,0,0-1.613-.607,2.5,2.5,0,1,0,2.066,3.9c.185.9.408,1.981.639,3.094H8.046a1,1,0,0,1-1-1V17.541a9.447,9.447,0,0,1-1-.167V27.2a2,2,0,0,0,2,2H28.935c.548,2.643,1.077,5.166,1.151,5.435a3.763,3.763,0,0,0,1.082,1.912c.1.093,4.99,4.99,4.99,4.99a.5.5,0,0,0,.737-.676l-.03-.03-5.005-5a2.785,2.785,0,0,1-.808-1.455c-.123-.447-1.8-8.591-2.435-11.672a2.122,2.122,0,0,1,1.606-2.479A2.3,2.3,0,0,1,33.066,21.8l.011.041,2.465,7.024a.5.5,0,0,0,.469.331h3a2,2,0,0,0,2-2V16.416c2.253,2.257,8.209,8.222,8.641,8.64a2.035,2.035,0,0,1,.353,1.661V41.175a.5.5,0,0,0,1,0V26.734A2.928,2.928,0,0,0,50.339,24.337ZM20.03,14.208a1.5,1.5,0,1,1-1.5,1.5A1.5,1.5,0,0,1,20.03,14.208Zm5.992,10.986a1.5,1.5,0,1,1,1.5-1.5,1.5,1.5,0,0,1-1.5,1.5h0Z"/><path d="M8.114,16.228A8.114,8.114,0,1,0,0,8.113a8.114,8.114,0,0,0,8.114,8.115M1,8.113a7.116,7.116,0,1,1,7.116,7.116h0A7.123,7.123,0,0,1,1,8.113"/><path d="M10.491,11.234a3.681,3.681,0,0,1-1.857.507A3.747,3.747,0,0,1,5.206,9.486H8.489l.518-1H4.93a3.588,3.588,0,0,1-.04-.491,3.841,3.841,0,0,1,.04-.507H9.506l.5-1h-4.8a3.727,3.727,0,0,1,5.62-1.521l.37-.726A4.524,4.524,0,0,0,4.364,6.488H3.015l-.5,1H4.142a4.71,4.71,0,0,0-.052.507,4.158,4.158,0,0,0,.055.491H3.014l-.5,1H4.363A4.5,4.5,0,0,0,10.07,12.3q.214-.073.42-.166v-.9Z"/></svg>