<svg xmlns="http://www.w3.org/2000/svg" width="19" height="21" viewBox="0 0 19 21"><title>map--small</title><path d="M6.5,21a.5.5,0,0,1-.277-.084l-6-4A.5.5,0,0,1,0,16.5V.5A.5.5,0,0,1,.777.084l6,4A.5.5,0,0,1,7,4.5v16a.5.5,0,0,1-.264.441A.5.5,0,0,1,6.5,21ZM1,16.233l5,3.333V4.768L1,1.434Z"/><path d="M6.5,21a.506.506,0,0,1-.236-.059A.5.5,0,0,1,6,20.5V4.5a.5.5,0,0,1,.223-.416l6-4A.5.5,0,0,1,13,.5v16a.5.5,0,0,1-.223.416l-6,4A.5.5,0,0,1,6.5,21ZM7,4.768v14.8l5-3.333V1.434Z"/><path d="M18.5,21a.5.5,0,0,1-.277-.084l-6-4A.5.5,0,0,1,12,16.5V.5a.5.5,0,0,1,.777-.416l6,4A.5.5,0,0,1,19,4.5v16a.5.5,0,0,1-.264.441A.5.5,0,0,1,18.5,21ZM13,16.233l5,3.333V4.768L13,1.435Z"/></svg>