<svg xmlns="http://www.w3.org/2000/svg" width="20" height="20" viewBox="0 0 20 20"><title>more-ns--small</title><path d="M13.9,7.7H12.5l2,2H11.8c-.1,0-.2-.1-.3-.2L10.1,8.1a1.284,1.284,0,0,0-1-.4H6.2L3.7,10.2l2.5,2.5H7.5l-2-2H8.2a.367.367,0,0,1,.3.1l1.4,1.5a1.389,1.389,0,0,0,1,.5h2.9l2.5-2.5Zm-.4,4H11c-.1,0-.2-.1-.3-.2L9.3,10.1a1.284,1.284,0,0,0-1-.4H5.5l1-1H9a.6.6,0,0,1,.4.1l1.1,1h0l.4.5c.3.3.5.5.9.5h2.7Z"/><path d="M10,20A10,10,0,1,1,20,10,10.029,10.029,0,0,1,10,20ZM10,1a9,9,0,1,0,9,9A8.963,8.963,0,0,0,10,1Z"/></svg>