<svg xmlns="http://www.w3.org/2000/svg" width="42.5" height="48" viewBox="0 0 42.5 48"><title>netherlands--large</title><path d="M13,29a.5.5,0,0,1-.354-.146L11.793,28H8.207l-.854.854a.5.5,0,0,1-.707-.707l1-1A.5.5,0,0,1,8,27h4a.5.5,0,0,1,.354.146l1,1A.5.5,0,0,1,13,29Z"/><path d="M12,32a.5.5,0,0,1-.354-.146L10.793,31H6.207l-.854.854a.5.5,0,0,1-.707-.707l1-1A.5.5,0,0,1,6,30h5a.5.5,0,0,1,.354.146l1,1A.5.5,0,0,1,12,32Z"/><path d="M11.259,35.029a.494.494,0,0,1-.314-.111L9.812,34h-5.6l-.854.854a.5.5,0,0,1-.707-.707l1-1A.5.5,0,0,1,4,33H9.988a.5.5,0,0,1,.314.111l1.271,1.029a.5.5,0,0,1-.314.889Z"/><path d="M2,40a.5.5,0,0,1-.354-.146l-1.5-1.5a.5.5,0,0,1,0-.707l1.5-1.5A.5.5,0,0,1,2,36H9a.5.5,0,0,1,.354.146l1,1a.5.5,0,0,1-.707.707L8.793,37H2.207l-1,1,1.146,1.146a.5.5,0,0,1,0,.707A.5.5,0,0,1,2,40Z"/><path d="M29.5,48H27a.5.5,0,0,1-.354-.146L24.9,46.1a.5.5,0,0,1,0-.707l.6-.6V40.185L22.771,37H15.208l-3.854,3.854A.5.5,0,0,1,11,41H4.5a.5.5,0,1,1,0-1h6.293l3.854-3.854A.5.5,0,0,1,15,36h8a.5.5,0,0,1,.38.175l3,3.5A.5.5,0,0,1,26.5,40v5a.5.5,0,0,1-.146.354l-.4.4L27.208,47H29.32l1.18-.984v-2.8l-1.716-1.6a.5.5,0,0,1-.02-.711L31.5,38.049V32a.5.5,0,0,1,.136-.343L39.5,23.3V18.707l-1.854-1.854a.5.5,0,0,1,0-.707L39.5,14.293V11.5a.5.5,0,0,1,.146-.354L41.5,9.293V5.73L38.315,3H28.207L24.5,6.707v4.586l1.854,1.854a.5.5,0,0,1,.146.353V15a.5.5,0,0,1-.137.344l-4.25,4.5A.5.5,0,0,1,21.75,20H19a.5.5,0,0,1-.5-.5V15a.5.5,0,0,1,.146-.354l1.4-1.4L17.793,11H15.5v7.5a.5.5,0,0,1-.146.354L9.5,24.707V25.5a.5.5,0,0,1-1,0v-1a.5.5,0,0,1,.146-.354L14.5,18.293V10.5A.5.5,0,0,1,15,10h3a.5.5,0,0,1,.354.146L21.1,12.9a.5.5,0,0,1,0,.707l-1.6,1.6V19h2.034L25.5,14.8V13.707l-1.854-1.854A.5.5,0,0,1,23.5,11.5v-5a.5.5,0,0,1,.146-.354l4-4A.5.5,0,0,1,28,2H38.5a.5.5,0,0,1,.325.12l3.5,3a.5.5,0,0,1,.175.38v4a.5.5,0,0,1-.146.354L40.5,11.707V14.5a.5.5,0,0,1-.146.354L38.707,16.5l1.646,1.646a.5.5,0,0,1,.147.354v5a.5.5,0,0,1-.136.343L32.5,32.2V38.25a.5.5,0,0,1-.139.346l-2.524,2.635,1.5,1.4A.5.5,0,0,1,31.5,43v3.25a.5.5,0,0,1-.18.384l-1.5,1.25A.5.5,0,0,1,29.5,48Z"/><path d="M17,9a.5.5,0,0,1-.354-.146l-1-1a.5.5,0,0,1,0-.707l1-1A.5.5,0,0,1,17,6h1a.5.5,0,1,1,0,1h-.793l-.5.5.646.646a.5.5,0,0,1,0,.707A.5.5,0,0,1,17,9Z"/><path d="M18,5a.5.5,0,0,1-.354-.853l1.5-1.5a.5.5,0,1,1,.707.707l-1.5,1.5A.5.5,0,0,1,18,5Z"/><path d="M21,2.5a.5.5,0,0,1-.186-.963l2.5-1a.5.5,0,1,1,.371.927l-2.5,1A.5.5,0,0,1,21,2.5Z"/><path d="M28.5,1h-2a.5.5,0,1,1,0-1h2a.5.5,0,1,1,0,1Z"/><path d="M33.5,1h-2a.5.5,0,1,1,0-1h2a.5.5,0,1,1,0,1Z"/></svg>