<?xml version="1.0" encoding="utf-8"?>
<!-- Generator: Adobe Illustrator 23.0.1, SVG Export Plug-In . SVG Version: 6.00 Build 0)  -->
<svg version="1.1" id="Layer_1" xmlns="http://www.w3.org/2000/svg" xmlns:xlink="http://www.w3.org/1999/xlink" x="0px" y="0px"
	 viewBox="0 0 41 41" style="enable-background:new 0 0 41 41;" xml:space="preserve">
<title>one-way--large</title>
<path d="M28.7,21l-11,11h1.4l11.5-11.5L19.1,9h-1.4l11,11H9c-0.3,0-0.5,0.2-0.5,0.5S8.7,21,9,21H28.7z"/>
<path d="M36,0H5C2.2,0,0,2.2,0,5v31c0,2.8,2.2,5,5,5h31c2.8,0,5-2.2,5-5V5C41,2.2,38.8,0,36,0z M40,36c0,2.2-1.8,4-4,4H5
	c-2.2,0-4-1.8-4-4V5c0-2.2,1.8-4,4-4h31c2.2,0,4,1.8,4,4V36z"/>
</svg>
