<?xml version="1.0" encoding="utf-8"?>
<!-- Generator: Adobe Illustrator 23.0.1, SVG Export Plug-In . SVG Version: 6.00 Build 0)  -->
<svg version="1.1" id="Layer_1" xmlns="http://www.w3.org/2000/svg" xmlns:xlink="http://www.w3.org/1999/xlink" x="0px" y="0px"
	 viewBox="0 0 45 35" style="enable-background:new 0 0 45 35;" xml:space="preserve">
<title>online--large</title>
<path d="M25,12l2,2h-2.7c-0.1,0-0.2,0-0.3-0.1l-1.5-1.5c-0.3-0.3-0.6-0.4-1-0.4h-2.9l-2.5,2.5l2.5,2.5H20l-2-2h2.7
	c0.1,0,0.2,0,0.3,0.1l1.5,1.5c0.3,0.3,0.6,0.4,1,0.4h2.9l2.5-2.5L26.4,12H25z M26,16h-2.5c-0.1,0-0.2,0-0.3-0.1l-1.5-1.5
	c-0.3-0.3-0.6-0.4-1-0.4H18l1-1h2.5c0.1,0,0.2,0,0.3,0.1l1.5,1.5c0.3,0.3,0.6,0.4,1,0.4H27L26,16z"/>
<path d="M43.5,0h-42C0.7,0,0,0.7,0,1.5v26C0,28.3,0.7,29,1.5,29l0,0h42c0.8,0,1.5-0.7,1.5-1.5l0,0v-26C45,0.7,44.3,0,43.5,0z
	 M44,27.5c0,0.3-0.2,0.5-0.5,0.5h-42C1.2,28,1,27.8,1,27.5v-26C1,1.2,1.2,1,1.5,1h42C43.8,1,44,1.2,44,1.5V27.5z"/>
<path d="M19,33.5c0,0.3-0.2,0.5-0.5,0.5H16v1h2.5c0.8,0,1.5-0.7,1.5-1.5V30h-1V33.5z"/>
<path d="M26,33.5V30h-1v3.5c0,0.8,0.7,1.5,1.5,1.5H29v-1h-2.5C26.2,34,26,33.8,26,33.5z"/>
</svg>
