<?xml version="1.0" encoding="utf-8"?>
<!-- Generator: Adobe Illustrator 23.0.1, SVG Export Plug-In . SVG Version: 6.00 Build 0)  -->
<svg version="1.1" id="Layer_1" xmlns="http://www.w3.org/2000/svg" xmlns:xlink="http://www.w3.org/1999/xlink" x="0px" y="0px"
	 viewBox="0 0 45 35.5" style="enable-background:new 0 0 45 35.5;" xml:space="preserve">
<title>ov-chipkaart--large</title>
<path d="M44.3,18.1c-0.5-0.5-8.2-8.2-9.3-9.3V2c0-1.1-0.9-2-2-2H2C0.9,0,0,0.9,0,2v19c0,1.1,0.9,2,2,2h20.9c0.5,2.6,1.1,5.2,1.2,5.4
	c0.2,0.7,0.5,1.4,1.1,1.9c0.1,0.1,5,5,5,5c0.2,0.2,0.5,0.2,0.7,0s0.2-0.5,0-0.7l0,0l-5-5c-0.4-0.4-0.7-0.9-0.8-1.5
	c-0.1-0.4-1.8-8.6-2.4-11.7c-0.2-1.1,0.5-2.2,1.6-2.5c1.2-0.4,2.5,0.4,2.8,1.6c0,0,0,0,0,0l2.5,7c0.1,0.2,0.3,0.3,0.5,0.3l0,0h3
	c1.1,0,2-0.9,2-2V10.2c2.3,2.3,8.2,8.2,8.7,8.7c0.4,0.3,0.4,0.8,0.4,1.7L44,35c0,0.3,0.2,0.5,0.5,0.5S45,35.3,45,35V21v-0.5
	C45.1,19.7,44.9,18.8,44.3,18.1z M1,2c0-0.6,0.4-1,1-1h31c0.6,0,1,0.4,1,1v2H1V2z M18.5,17.5c0-0.8,0.7-1.5,1.5-1.5s1.5,0.7,1.5,1.5
	S20.8,19,20,19S18.5,18.3,18.5,17.5z M34,21c0,0.6-0.4,1-1,1h-2.6L28,15.3c-0.3-1-1-1.8-2-2.1v-2.6C26,9.7,25.3,9,24.5,9H22l0,0
	c-1,0.1-2,0.6-2.6,1.4c-0.2,0.2-5.4,5.4-5.5,5.5c-0.5,0.6-1.2,1-1.9,1.1H9.5C9.2,17,9,16.8,9,16.5v-6C9,10.2,9.2,10,9.5,10h2.1
	c0.3,1.4,1.6,2.2,2.9,1.9s2.2-1.6,1.9-2.9s-1.6-2.2-2.9-1.9c-1,0.2-1.7,1-1.9,1.9H9.5C8.7,9,8,9.7,8,10.5v6C8,17.3,8.7,18,9.5,18H12
	l0,0c1-0.1,2-0.6,2.6-1.4c0.1-0.1,5.4-5.4,5.5-5.5c0.5-0.6,1.2-1,1.9-1.1h2.5c0.3,0,0.5,0.2,0.5,0.5V13c-0.3,0-0.7,0-1,0.1
	c-1.3,0.3-2.2,1.3-2.4,2.6c-0.4-0.4-1-0.6-1.6-0.6c-1.4,0-2.5,1.1-2.5,2.5c0,1.4,1.1,2.5,2.5,2.5c0.8,0,1.6-0.4,2.1-1.1
	c0.2,0.9,0.4,2,0.6,3.1H2c-0.6,0-1-0.4-1-1V5h33V21z M15.5,9.5c0,0.8-0.7,1.5-1.5,1.5s-1.5-0.7-1.5-1.5S13.2,8,14,8
	S15.5,8.7,15.5,9.5z"/>
</svg>
