<svg xmlns="http://www.w3.org/2000/svg" width="47.659" height="33.728" viewBox="0 0 47.659 33.728"><title>ov-fiets--large</title><polygon points="19.671 14.811 22.557 14.811 32.651 23.551 42.745 14.811 45.632 14.811 34.061 25.078 31.243 25.078 19.671 14.811"/><path d="M10.73,12.268A10.73,10.73,0,1,0,21.461,23,10.731,10.731,0,0,0,10.73,12.268Zm0,19.476A8.746,8.746,0,1,1,19.479,23,8.746,8.746,0,0,1,10.73,31.744Z"/><path d="M19.895,13.35l1.844-9.471h1.752l-1.85,9.471ZM22.073,2.162,22.415.445h1.744l-.332,1.717ZM32.237,12.4a8.913,8.913,0,0,1-4.148,1.168,2.912,2.912,0,0,1-2.261-.873,3.374,3.374,0,0,1-.8-2.371,7.175,7.175,0,0,1,.735-3.155A6.932,6.932,0,0,1,27.76,4.656a4.331,4.331,0,0,1,2.734-.986,2.265,2.265,0,0,1,1.57.5,1.8,1.8,0,0,1,.547,1.4,3.242,3.242,0,0,1-.67,1.974,5.121,5.121,0,0,1-2,1.529,9.28,9.28,0,0,1-3.224.785,2.586,2.586,0,0,0,.516,1.779,1.735,1.735,0,0,0,1.347.566,6.209,6.209,0,0,0,1.764-.354,8.631,8.631,0,0,0,2.213-1.1ZM26.877,8.57a7.963,7.963,0,0,0,2.341-.507,3.245,3.245,0,0,0,1.289-.955,1.868,1.868,0,0,0,.475-1.146.942.942,0,0,0-.277-.647.926.926,0,0,0-.713-.3,2.127,2.127,0,0,0-1.176.386,3.675,3.675,0,0,0-.881.8,5.27,5.27,0,0,0-.573.859,6.474,6.474,0,0,0-.485,1.513m11.657,4.821a3.976,3.976,0,0,1-1.111.176A2.671,2.671,0,0,1,35.595,13a1.842,1.842,0,0,1-.637-1.441,7.68,7.68,0,0,1,.152-1.369l.978-5.021H34.7l.248-1.292H36.34l.334-1.717,1.73-.218-.375,1.935h2.357l-.271,1.292H37.777l-1.016,5.208a6.219,6.219,0,0,0-.144.951.971.971,0,0,0,.25.655,1.175,1.175,0,0,0,.912.289,3.444,3.444,0,0,0,1-.175Zm1.68-.547L40.5,11.4a6.849,6.849,0,0,0,2.92.878,1.671,1.671,0,0,0,1.111-.339,1.1,1.1,0,0,0,.4-.881,1.177,1.177,0,0,0-.162-.613,4.78,4.78,0,0,0-.625-.766l-.777-.809A7.266,7.266,0,0,1,42.126,7.3a2.4,2.4,0,0,1-.256-1.05,2.548,2.548,0,0,1,.785-1.745,3.154,3.154,0,0,1,2.408-.836,6.82,6.82,0,0,1,1,.074,8.871,8.871,0,0,1,1.594.477l-.283,1.447a7.815,7.815,0,0,0-1.512-.6,4.044,4.044,0,0,0-.885-.1,1.53,1.53,0,0,0-1.082.326,1.038,1.038,0,0,0-.348.78,1.188,1.188,0,0,0,.154.574,5.56,5.56,0,0,0,.77.916l.846.873a5.9,5.9,0,0,1,1,1.279,2.572,2.572,0,0,1,.295,1.211,2.357,2.357,0,0,1-.9,1.911,3.739,3.739,0,0,1-2.434.732,5.773,5.773,0,0,1-.926-.075,7.256,7.256,0,0,1-.928-.2,12.548,12.548,0,0,1-1.212-.448"/><path d="M9.844,22.455,12.762,7.482H10.813l.33-1.666h1.941l.109-.551a6.7,6.7,0,0,1,2.083-4.121A4.688,4.688,0,0,1,16.768.253,5.984,5.984,0,0,1,18.671,0a6.164,6.164,0,0,1,1.914.338l-.326,1.631a4.8,4.8,0,0,0-1.922-.331A2.54,2.54,0,0,0,16.38,2.6a6.253,6.253,0,0,0-1.234,2.982l-.045.231h3.3l-.33,1.666H14.779L11.852,22.456H9.844Z"/></svg>