<svg xmlns="http://www.w3.org/2000/svg" width="24.097" height="17.05" viewBox="0 0 24.097 17.05"><title>ov-fiets--small</title><polygon points="9.944 7.487 11.404 7.487 16.507 11.905 21.61 7.487 23.069 7.487 17.22 12.677 15.795 12.677 9.944 7.487"/><path d="M5.425,16.048a4.422,4.422,0,1,1,4.423-4.422A4.422,4.422,0,0,1,5.425,16.048Zm0-9.847a5.424,5.424,0,1,0,5.425,5.424A5.426,5.426,0,0,0,5.425,6.2Z"/><path d="M20.33,6.493l.143-.731a3.462,3.462,0,0,0,1.477.444.845.845,0,0,0,.562-.171.558.558,0,0,0,.2-.445.6.6,0,0,0-.082-.31,2.449,2.449,0,0,0-.316-.387l-.393-.408a3.656,3.656,0,0,1-.626-.792,1.215,1.215,0,0,1-.129-.531,1.286,1.286,0,0,1,.4-.882,1.594,1.594,0,0,1,1.218-.422,3.426,3.426,0,0,1,.507.038,4.533,4.533,0,0,1,.806.241l-.143.731a4.078,4.078,0,0,0-.764-.306,2.031,2.031,0,0,0-.447-.051.773.773,0,0,0-.547.165.523.523,0,0,0-.175.394.6.6,0,0,0,.078.29,2.824,2.824,0,0,0,.389.463l.428.441a2.992,2.992,0,0,1,.5.647,1.3,1.3,0,0,1,.15.612,1.19,1.19,0,0,1-.453.966,1.889,1.889,0,0,1-1.231.37,2.929,2.929,0,0,1-.468-.038,3.6,3.6,0,0,1-.469-.1A6.366,6.366,0,0,1,20.33,6.493Zm-.849.276a1.982,1.982,0,0,1-.562.089,1.349,1.349,0,0,1-.924-.286.929.929,0,0,1-.322-.728,3.885,3.885,0,0,1,.077-.692l.495-2.538h-.7l.126-.653h.7l.169-.868.875-.111-.19.978h1.192l-.138.653H19.1l-.513,2.633a3.106,3.106,0,0,0-.073.481.49.49,0,0,0,.127.332A.591.591,0,0,0,19.1,6.2a1.721,1.721,0,0,0,.507-.089ZM13.587,4.332a4.062,4.062,0,0,0,1.183-.256,1.651,1.651,0,0,0,.652-.483.94.94,0,0,0,.239-.58.478.478,0,0,0-.14-.327.467.467,0,0,0-.361-.153,1.081,1.081,0,0,0-.595.195,1.846,1.846,0,0,0-.445.4,2.646,2.646,0,0,0-.29.434A3.553,3.553,0,0,0,13.587,4.332ZM16.3,6.267a4.507,4.507,0,0,1-2.1.59,1.474,1.474,0,0,1-1.143-.441,1.707,1.707,0,0,1-.4-1.2,3.634,3.634,0,0,1,.372-1.595,3.508,3.508,0,0,1,1.009-1.27,2.188,2.188,0,0,1,1.382-.5,1.146,1.146,0,0,1,.794.251.912.912,0,0,1,.276.706,1.639,1.639,0,0,1-.339,1,2.592,2.592,0,0,1-1.01.773,4.682,4.682,0,0,1-1.629.4,1.306,1.306,0,0,0,.261.9.875.875,0,0,0,.68.286,3.167,3.167,0,0,0,.892-.179,4.347,4.347,0,0,0,1.119-.558ZM11.159,1.092l.173-.868h.882l-.168.868Zm-1.1,5.656L10.99,1.96h.886l-.935,4.788Z"/><path d="M4.976,11.351,6.451,3.782H5.465l.167-.842h.982l.055-.278A3.384,3.384,0,0,1,7.722.579,2.412,2.412,0,0,1,8.476.128,3.007,3.007,0,0,1,9.438,0,3.1,3.1,0,0,1,10.4.171L10.24.995A2.443,2.443,0,0,0,9.268.827a1.28,1.28,0,0,0-.989.489,3.146,3.146,0,0,0-.624,1.508l-.023.117H9.3l-.167.842H7.468l-1.48,7.569H4.976Z"/></svg>