<?xml version="1.0" encoding="utf-8"?>
<!-- Generator: Adobe Illustrator 23.0.1, SVG Export Plug-In . SVG Version: 6.00 Build 0)  -->
<svg version="1.1" id="Layer_1" xmlns="http://www.w3.org/2000/svg" xmlns:xlink="http://www.w3.org/1999/xlink" x="0px" y="0px"
	 viewBox="0 0 41 41" style="enable-background:new 0 0 41 41;" xml:space="preserve">
<title>park-ride--large</title>
<path d="M36.5,0h-32C2,0,0,2,0,4.5v32C0,39,2,41,4.5,41h32c2.5,0,4.5-2,4.5-4.5v-32C41,2,39,0,36.5,0z M40,36.5
	c0,1.9-1.6,3.5-3.5,3.5h-32C2.6,40,1,38.4,1,36.5v-32C1,2.6,2.6,1,4.5,1h32C38.4,1,40,2.6,40,4.5V36.5z"/>
<polygon points="20,18 19,18 19,20 17,20 17,21 19,21 19,23 20,23 20,21 22,21 22,20 20,20 "/>
<path d="M11,13H7v15h1v-7h3c2.1,0.1,4-1.6,4.1-3.7c0-0.1,0-0.2,0-0.3c0.1-2.1-1.6-3.9-3.8-4C11.2,13,11.1,13,11,13z M11,20H8v-6h3
	c1.7,0,3,1.3,3,3S12.7,20,11,20z"/>
<path d="M34.1,17c0.1-2.1-1.6-3.9-3.8-4c-0.1,0-0.2,0-0.3,0h-4v15h1v-7h3c0.1,0,0.2,0,0.3,0l3.6,7l0.9-0.5l-3.5-6.7
	C33,20.3,34.2,18.8,34.1,17z M27,20v-6h3c1.7,0,3,1.3,3,3s-1.3,3-3,3H27z"/>
</svg>
