<svg xmlns="http://www.w3.org/2000/svg" width="17" height="17" viewBox="0 0 17 17"><title>percentage--small</title><path d="M3,6A2.946,2.946,0,0,1,0,3,2.946,2.946,0,0,1,3,0,2.946,2.946,0,0,1,6,3,2.946,2.946,0,0,1,3,6ZM3,1A2,2,0,1,0,5,3,2.006,2.006,0,0,0,3,1Z"/><path d="M14,17a3,3,0,1,1,3-3A2.946,2.946,0,0,1,14,17Zm0-5a2,2,0,1,0,2,2A2.006,2.006,0,0,0,14,12Z"/><path d="M1,16.5a.6.6,0,0,1-.4-.1.483.483,0,0,1,0-.7l15-15a.483.483,0,0,1,.7,0,.483.483,0,0,1,0,.7l-15,15C1.3,16.5,1.1,16.5,1,16.5Z"/></svg>