<svg xmlns="http://www.w3.org/2000/svg" width="21" height="23" viewBox="0 0 21 23"><defs><style>.a{fill:#0079d3;}.b{fill:#009a42;}</style></defs><title>phone-checkmark--small</title><circle class="a" cx="7.5" cy="20" r="1"/><polygon class="a" points="12 11.122 12 17 3 17 3 4 12 4 12 6.879 13 5.879 13 3 2 3 2 18 13 18 13 10.122 12 11.122"/><path class="a" d="M14,9.122V21a1,1,0,0,1-1,1H2a1,1,0,0,1-1-1V2A1,1,0,0,1,2,1H13a1,1,0,0,1,1,1V4.879l1-1V2a2,2,0,0,0-2-2H2A2,2,0,0,0,0,2V21a2,2,0,0,0,2,2H13a2,2,0,0,0,2-2V8.122Z"/><path class="b" d="M20.854.146a.5.5,0,0,0-.707,0L8.352,11.942,5.895,7.053a1,1,0,1,0-1.789.895l3.257,6.4h0L20.854.854A.5.5,0,0,0,20.854.146Z"/></svg>