<svg xmlns="http://www.w3.org/2000/svg" width="16" height="20" viewBox="0 0 16 20"><title>pillar--small</title><rect x="6" y="3" width="1" height="15"/><rect x="12" y="8" width="1" height="10"/><rect x="3" y="8" width="1" height="10"/><rect x="9" y="3" width="1" height="15"/><rect y="19" width="16" height="1"/><path d="M13.5,0H2.5A2.5,2.5,0,0,0,0,2.5V5A2,2,0,0,0,4,5V3H3V5A1,1,0,0,1,1,5V2.5A1.5,1.5,0,0,1,2.5,1h11A1.5,1.5,0,0,1,15,2.5V5a1,1,0,0,1-2,0V3H12V5a2,2,0,0,0,4,0V2.5A2.5,2.5,0,0,0,13.5,0Z"/></svg>