<svg xmlns="http://www.w3.org/2000/svg" width="15" height="22.3" viewBox="0 0 15 22.3"><title>poi--small</title><path d="M7.5,22.3l-.4-.5C6.8,21.5,0,13.2,0,7.5A7.555,7.555,0,0,1,7.5,0,7.555,7.555,0,0,1,15,7.5c0,5.7-6.8,14-7.1,14.3ZM7.5,1A6.487,6.487,0,0,0,1,7.5c0,4.6,5.1,11.4,6.5,13.2C8.9,18.9,14,12.1,14,7.5A6.487,6.487,0,0,0,7.5,1Z"/><path d="M7.5,10.5a2.946,2.946,0,0,1-3-3,2.946,2.946,0,0,1,3-3,2.946,2.946,0,0,1,3,3A2.946,2.946,0,0,1,7.5,10.5Zm0-5a2,2,0,1,0,2,2A2.006,2.006,0,0,0,7.5,5.5Z"/></svg>