<?xml version="1.0" encoding="utf-8"?>
<!-- Generator: Adobe Illustrator 23.0.1, SVG Export Plug-In . SVG Version: 6.00 Build 0)  -->
<svg version="1.1" id="Layer_1" xmlns="http://www.w3.org/2000/svg" xmlns:xlink="http://www.w3.org/1999/xlink" x="0px" y="0px"
	 viewBox="0 0 56.5 30.1" style="enable-background:new 0 0 56.5 30.1;" xml:space="preserve">
<title>public-transport--large</title>
<circle cx="6.5" cy="17.2" r="0.8"/>
<circle cx="11.5" cy="17.2" r="0.8"/>
<path d="M12.5,6h-7c-1.1,0-2,0.9-2,2v11c0,1.1,0.9,2,2,2h7c1.1,0,2-0.9,2-2V8C14.5,6.9,13.6,6,12.5,6z M13.5,10v4h-1v-4H13.5z
	 M11.5,14h-5v-4h5V14z M5.5,14h-1v-4h1V14z M13.5,19c0,0.6-0.4,1-1,1h-7c-0.6,0-1-0.4-1-1v-4h9V19z M4.5,9V8c0-0.6,0.4-1,1-1h7
	c0.6,0,1,0.4,1,1v1H4.5z"/>
<path d="M5,1h1c0,0,0,0.1,0,0.1L6.7,4h1L7,1h4l-0.8,3h1L12,1.1c0,0,0-0.1,0-0.1h1c0.3,0,0.5-0.2,0.5-0.5S13.3,0,13,0H5
	C4.7,0,4.5,0.2,4.5,0.5S4.7,1,5,1z"/>
<path d="M0.2,26.6C0,26.7-0.1,27,0.1,27.3s0.5,0.3,0.7,0.2c0,0,0,0,0,0l6-4C6.9,23.3,7,23.2,7,23H5.6L0.2,26.6z"/>
<path d="M8.1,26.7c-0.2,0.2-0.1,0.5,0.1,0.7c0.2,0.2,0.5,0.1,0.7-0.1l3-4C12,23.2,12,23.1,12,23h-1.1L8.1,26.7z"/>
<circle cx="46" cy="17.5" r="1"/>
<circle cx="52" cy="17.5" r="1"/>
<path d="M54.5,5h-11c-1.1,0-2,0.9-2,2v12c0,1.1,0.9,2,2,2h11c1.1,0,2-0.9,2-2V7C56.5,5.9,55.6,5,54.5,5z M53.5,6v8h-9V6H53.5z
	 M55.5,19c0,0.6-0.4,1-1,1h-11c-0.6,0-1-0.4-1-1V7c0-0.6,0.4-1,1-1v8c0,0.6,0.4,1,1,1h9c0.6,0,1-0.4,1-1V6c0.6,0,1,0.4,1,1V19z"/>
<path d="M40,8c-0.3,0-0.5,0.2-0.5,0.5V11c0,0.3,0.2,0.5,0.5,0.5s0.5-0.2,0.5-0.5V8.5C40.5,8.2,40.3,8,40,8z"/>
<path d="M44.2,24h0.5c0.4,0,0.8-0.3,0.8-0.8V22h-2v1.2C43.5,23.7,43.8,24,44.2,24z"/>
<path d="M53.2,24h0.5c0.4,0,0.8-0.3,0.8-0.8V22h-2v1.2C52.5,23.7,52.8,24,53.2,24z"/>
<circle cx="25" cy="16.5" r="1"/>
<circle cx="31" cy="16.5" r="1"/>
<path d="M22.5,21h11c1.1,0,2-0.9,2-2V7c0-1.1-0.9-2-2-2V4c0-0.6-0.4-1-1-1h-9c-0.6,0-1,0.4-1,1v1c-1.1,0-2,0.9-2,2v12
	C20.5,20.1,21.4,21,22.5,21z M23.5,4h9v1h-9V4z M23.5,6h4v7h-4V6z M28.5,6h4v7h-4V6z M21.5,7c0-0.6,0.4-1,1-1v7c0,0.6,0.4,1,1,1h9
	c0.6,0,1-0.4,1-1V6c0.6,0,1,0.4,1,1v12c0,0.6-0.4,1-1,1h-11c-0.6,0-1-0.4-1-1V7z"/>
<path d="M22.3,30.1c0.1,0,0.1,0,0.2,0c0.2,0,0.4-0.1,0.5-0.3l2-5.6c0,0,0-0.1,0-0.1h-1L22,29.4C21.9,29.7,22.1,30,22.3,30.1z"/>
<path d="M31,24.1l2,5.6c0.1,0.2,0.3,0.3,0.5,0.3c0.1,0,0.1,0,0.2,0c0.3-0.1,0.4-0.4,0.3-0.6L32,24h-1C31,24,31,24.1,31,24.1z"/>
</svg>
