<svg xmlns="http://www.w3.org/2000/svg" width="53.683" height="21.011" viewBox="0 0 53.683 21.011"><title>qpark--large</title><path d="M13.832,11.7,17.2,15.116h-4.62L11.476,14A7.527,7.527,0,0,1,0,7.558,7.531,7.531,0,1,1,13.832,11.7ZM6.769,9.222h4.62l1.344,1.363A6.033,6.033,0,1,0,7.514,13.6a5.991,5.991,0,0,0,2.858-.721l-3.6-3.655Z"/><path d="M18.881,10.511h.834a2.447,2.447,0,0,0,2.752-2.729c0-1.96-1.176-2.682-2.98-2.682H17.2v8.642h1.68V10.511Zm0-4.013h.3c.938,0,1.577.161,1.577,1.272s-.537,1.342-1.531,1.342h-.343V6.5Z"/><path d="M27.069,11.92l.663,1.822h1.793L26.258,4.87h-1.3L21.6,13.742h1.771l.708-1.822ZM26.6,10.544H24.557l.948-3.14h.022l1.074,3.14Z"/><path d="M33.431,10.1A2.284,2.284,0,0,0,35.19,7.7c0-1.846-1.177-2.6-2.879-2.6H30.038v8.642h1.68V10.258h.023l2.091,3.484h2.032L33.431,10.1ZM31.717,6.475h.228c.892,0,1.565.206,1.565,1.273s-.651,1.33-1.577,1.33h-.216v-2.6Z"/><polygon points="38.111 8.745 38.088 8.745 38.088 5.101 36.409 5.101 36.409 13.742 38.088 13.742 38.088 9.857 38.111 9.857 40.863 13.742 43.022 13.742 39.573 9.089 42.84 5.101 40.772 5.101 38.111 8.745"/><polygon points="53.683 9.224 49.062 9.224 43.251 15.118 47.87 15.118 53.683 9.224"/><polygon points="43.27 15.116 38.65 15.116 32.838 21.011 37.458 21.011 43.27 15.116"/></svg>