<svg xmlns="http://www.w3.org/2000/svg" width="40" height="30" viewBox="0 0 40 30"><title>quote--large</title><path d="M7.692,30c4.142,0,7.337-3.494,7.337-7.952,0-3.615-2.249-6.265-5.325-6.265a6.316,6.316,0,0,0-3.2.964c.355-6.386,4.379-11.084,11.479-13.494L17.273,0C6.272,3.494,0,10.723,0,19.759,0,25.783,3.2,30,7.692,30Z"/><path d="M29.823,30c4.142,0,7.337-3.494,7.337-7.952,0-3.615-2.249-6.265-5.444-6.265a6.275,6.275,0,0,0-3.077.964C28.994,10.361,32.9,5.663,40,3.253L39.29,0C28.4,3.494,22.012,10.723,22.012,19.759,22.012,25.783,25.207,30,29.823,30Z"/></svg>