<svg xmlns="http://www.w3.org/2000/svg" width="35.053" height="35" viewBox="0 0 35.053 35"><title>recharge--large</title><path d="M34.42,2.5a.627.627,0,0,0-.615.632v7.041C31.959,7.246,26.525,0,17.553,0a17.5,17.5,0,1,0,10.22,31.667.612.612,0,0,0,.41-.581.627.627,0,0,0-.632-.615.7.7,0,0,0-.41.137,16.247,16.247,0,1,1-9.587-29.36c8.63,0,13.843,7.28,15.5,10H25.671a.627.627,0,0,0-.615.632.613.613,0,0,0,.611.615h8.754a.617.617,0,0,0,.632-.6V3.125a.631.631,0,0,0-.632-.63Z"/><path d="M9.053,20.068V19.025h1.181a9.718,9.718,0,0,1-.058-1.1q0-.254.014-.493t.034-.464H9.052v-1.05h1.356a6.123,6.123,0,0,1,2.609-3.755,7.943,7.943,0,0,1,4.463-1.225,6.456,6.456,0,0,1,2.324.437l-.518,1.079a5.122,5.122,0,0,0-1.807-.325,6.256,6.256,0,0,0-3.457.935,5.18,5.18,0,0,0-2.109,2.854h5.693l-.527,1.045h-5.42q-.039.264-.059.542t-.02.571a7.788,7.788,0,0,0,.059.947h4.424l-.518,1.045H11.854a5.045,5.045,0,0,0,2.1,2.873,6.252,6.252,0,0,0,3.467.916,7.674,7.674,0,0,0,2.383-.341v1.309a10.01,10.01,0,0,1-1.05.166,11.373,11.373,0,0,1-1.2.059,8.168,8.168,0,0,1-4.521-1.179,6.063,6.063,0,0,1-2.619-3.8H9.048Z"/></svg>