<?xml version="1.0" encoding="utf-8"?>
<!-- Generator: Adobe Illustrator 23.0.1, SVG Export Plug-In . SVG Version: 6.00 Build 0)  -->
<svg version="1.1" id="Layer_1" xmlns="http://www.w3.org/2000/svg" xmlns:xlink="http://www.w3.org/1999/xlink" x="0px" y="0px"
	 viewBox="0 0 45 45" style="enable-background:new 0 0 45 45;" xml:space="preserve">
<title>recharge-pillar--large</title>
<path d="M39,27.3V24c0-0.6-0.4-1-1-1H21c-0.6,0-1,0.4-1,1v11c0,0.6,0.4,1,1,1h12.1c0.2,0.9,0.4,1.6,0.4,1.7c0.1,0.4,0.3,0.8,0.6,1.1
	l3,3c0.1,0.1,0.2,0.1,0.4,0.1c0.3,0,0.5-0.2,0.5-0.5c0-0.1-0.1-0.3-0.1-0.4c-3-3-3-3-3-3c-0.2-0.2-0.3-0.4-0.4-0.7
	c-0.1-0.2-0.8-3.3-1.2-5.2c-0.1-0.5,0.2-0.9,0.7-1c0.5-0.2,1.1,0.1,1.2,0.6c0,0,0,0,0,0.1l1.4,3.7c0.1,0.2,0.3,0.3,0.5,0.3l0,0h1
	c0.6,0,1-0.4,1-1v-6.3l5,5v7.8c0,0.3,0.2,0.5,0.5,0.5s0.5-0.2,0.5-0.5v-8.2L39,27.3z M38,24v1H21v-1H38z M38,35h-0.7l-1.3-3.4
	c-0.2-0.5-0.6-1-1.1-1.2v-0.9c0-0.8-0.7-1.5-1.5-1.5h-1.2c-0.7,0-1.3,0.3-1.8,0.7l-2.8,2.8c-0.3,0.3-0.7,0.4-1.1,0.4h-1.2
	c-0.3,0-0.5-0.2-0.5-0.5v-2c0-0.3,0.2-0.5,0.5-0.5h0.6c0.3,0.8,1.1,1.2,1.9,0.9c0.8-0.3,1.2-1.1,0.9-1.9c-0.3-0.8-1.1-1.2-1.9-0.9
	c-0.4,0.2-0.8,0.5-0.9,0.9h-0.6c-0.8,0-1.5,0.7-1.5,1.5v2c0,0.8,0.7,1.5,1.5,1.5l0,0h1.2c0.7,0,1.3-0.3,1.8-0.7l2.8-2.8
	c0.3-0.3,0.7-0.4,1.1-0.4h1.2c0.3,0,0.5,0.2,0.5,0.5v0.7c-0.1,0-0.2,0-0.3,0c-0.6,0.1-1.1,0.5-1.3,1.1c-0.3-0.2-0.6-0.3-0.9-0.3
	c-0.8,0-1.5,0.7-1.5,1.5c0,0.8,0.7,1.5,1.5,1.5c0.4,0,0.8-0.2,1-0.4c0.1,0.4,0.2,0.9,0.3,1.4H21v-9h17V35z M27,28.5
	c0-0.3,0.2-0.5,0.5-0.5s0.5,0.2,0.5,0.5S27.8,29,27.5,29S27,28.8,27,28.5z M32,32.5c0,0.3-0.2,0.5-0.5,0.5S31,32.8,31,32.5
	s0.2-0.5,0.5-0.5S32,32.2,32,32.5z"/>
<rect x="8" y="22" width="2" height="2"/>
<rect x="12" y="22" width="2" height="2"/>
<rect x="16" y="22" width="2" height="2"/>
<rect x="8" y="26" width="2" height="2"/>
<rect x="12" y="26" width="2" height="2"/>
<rect x="16" y="26" width="2" height="2"/>
<rect x="8" y="30" width="2" height="2"/>
<rect x="12" y="30" width="2" height="2"/>
<rect x="16" y="30" width="2" height="2"/>
<rect x="8" y="34" width="2" height="2"/>
<rect x="12" y="34" width="2" height="2"/>
<rect x="16" y="34" width="2" height="2"/>
<path d="M22,22v-0.5c0-1.4-1.1-2.5-2.5-2.5h-13C5.1,19,4,20.1,4,21.5v15C4,37.9,5.1,39,6.5,39h13c1.2,0,2.2-0.8,2.4-2h-1
	c-0.2,0.6-0.8,1-1.4,1h-13C5.7,38,5,37.3,5,36.5v-15C5,20.7,5.7,20,6.5,20h13c0.8,0,1.5,0.7,1.5,1.5V22H22z"/>
<path d="M6.5,17h13c1.4,0,2.5-1.1,2.5-2.5v-8C22,5.1,20.9,4,19.5,4h-13C5.1,4,4,5.1,4,6.5v8C4,15.9,5.1,17,6.5,17z M5,6.5
	C5,5.7,5.7,5,6.5,5h13C20.3,5,21,5.7,21,6.5v8c0,0.8-0.7,1.5-1.5,1.5l0,0h-13C5.7,16,5,15.3,5,14.5l0,0V6.5z"/>
<path d="M8.5,13h1.3c0.6,0,1.1-0.2,1.6-0.5l3.9-3.1C15.5,9.1,15.9,9,16.2,9h1.3C17.8,9,18,9.2,18,9.5v2c0,0.3-0.2,0.5-0.5,0.5h-0.6
	c-0.3-0.8-1.1-1.2-1.9-0.9c-0.8,0.3-1.2,1.1-0.9,1.9s1.1,1.2,1.9,0.9c0.4-0.2,0.8-0.5,0.9-0.9h0.6c0.8,0,1.5-0.7,1.5-1.5v-2
	C19,8.7,18.3,8,17.5,8h-1.3c-0.6,0-1.1,0.2-1.6,0.5l-3.9,3.1c-0.3,0.2-0.6,0.3-0.9,0.3H8.5C8.2,12,8,11.8,8,11.5v-2
	C8,9.2,8.2,9,8.5,9h0.6c0.3,0.8,1.1,1.2,1.9,0.9c0.8-0.3,1.2-1.1,0.9-1.9S10.8,6.8,10,7.1C9.6,7.2,9.2,7.6,9.1,8H8.5
	C7.7,8,7,8.7,7,9.5v2C7,12.3,7.7,13,8.5,13z M15.5,13c-0.3,0-0.5-0.2-0.5-0.5s0.2-0.5,0.5-0.5s0.5,0.2,0.5,0.5S15.8,13,15.5,13z
	 M10.5,8C10.8,8,11,8.2,11,8.5S10.8,9,10.5,9S10,8.8,10,8.5S10.2,8,10.5,8z"/>
<path d="M4.5,1h17C23.4,1,25,2.6,25,4.5V22h1V4.5C26,2,24,0,21.5,0h-17C2,0,0,2,0,4.5V45h1V4.5C1,2.6,2.6,1,4.5,1z"/>
<rect x="25" y="37" width="1" height="8"/>
</svg>
