<svg xmlns="http://www.w3.org/2000/svg" width="17.833" height="15.896" viewBox="0 0 17.833 15.896"><title>refresh--small</title><path d="M12.575,14.485a.555.555,0,0,0,.395.16h.01l4.286-.062a.559.559,0,0,0,.19-.036.572.572,0,0,0,.377-.529.556.556,0,0,0-.165-.39.562.562,0,0,0-.395-.159h-.007l-2.8.041.087-.087a7.905,7.905,0,0,0,2.313-5.6,7.729,7.729,0,0,0-2.332-5.535A7.957,7.957,0,0,0,8.91,0H8.791A.587.587,0,0,0,8.6.035a.569.569,0,0,0-.377.53.541.541,0,0,0,.163.386.561.561,0,0,0,.4.162h.105a6.849,6.849,0,0,1,4.842,1.971,6.64,6.64,0,0,1,2,4.756,6.8,6.8,0,0,1-2.109,4.945l-.085.081-.006-3.235a.539.539,0,0,0-.162-.388.556.556,0,0,0-.393-.159h-.012a.569.569,0,0,0-.565.563L12.41,14.1A.538.538,0,0,0,12.575,14.485Z"/><path d="M.954,8.072a7.729,7.729,0,0,0,2.33,5.534A7.962,7.962,0,0,0,8.911,15.9h.124a.56.56,0,0,0,.188-.036.572.572,0,0,0,.378-.528.544.544,0,0,0-.165-.39.561.561,0,0,0-.4-.158H8.93a6.845,6.845,0,0,1-4.839-1.97,6.643,6.643,0,0,1-2-4.759A6.793,6.793,0,0,1,4.2,3.112l.085-.081.006,3.235a.537.537,0,0,0,.161.387.556.556,0,0,0,.4.161H4.86a.612.612,0,0,0,.191-.033.567.567,0,0,0,.376-.531L5.42,1.794a.543.543,0,0,0-.163-.386.566.566,0,0,0-.4-.162H4.851L.564,1.309a.584.584,0,0,0-.189.035A.571.571,0,0,0,0,1.876a.538.538,0,0,0,.162.386.558.558,0,0,0,.4.161H.57L3.364,2.38l-.086.087A7.914,7.914,0,0,0,.954,8.072Z"/></svg>