<svg xmlns="http://www.w3.org/2000/svg" width="28" height="46" viewBox="0 0 28 46"><title>restaurant--large</title><rect x="6" width="1" height="11.748"/><rect x="9" width="1" height="11.748"/><path d="M6.5,46A3.42,3.42,0,0,0,10,42.589L9.014,18.275c.189-.063.378-.119.563-.175C11.26,17.6,13,17.08,13,12.277V0H12V12.277c0,4.064-1.137,4.4-2.71,4.873-.319.1-.646.193-.974.321l-.331.129L9,42.608a2.4,2.4,0,0,1-2.5,2.4A2.407,2.407,0,0,1,4,42.589L5.015,17.6l-.331-.129c-.327-.128-.654-.225-.974-.321C2.137,16.68,1,16.341,1,12.277V0H0V12.277C0,17.08,1.74,17.6,3.423,18.1c.186.055.374.112.563.175L3,42.569A3.425,3.425,0,0,0,6.5,46Z"/><path d="M24.5,46A3.494,3.494,0,0,1,21,42.52l.982-15.671L19,24.869V10.587C19,2.207,27.3.164,27.385.145L28,0V42.52A3.494,3.494,0,0,1,24.5,46ZM20,24.341l3.017,2L22,42.55a2.5,2.5,0,0,0,5-.03V1.289c-1.823.611-7,2.91-7,9.3Z"/><rect x="3" width="1" height="11.748"/></svg>