<svg xmlns="http://www.w3.org/2000/svg" width="15" height="24" viewBox="0 0 15 24"><defs><style>.a{fill:#231f20;}</style></defs><title>restaurant--small</title><rect class="a" x="4" width="1" height="6.553"/><rect class="a" x="2" width="1" height="6.553"/><path class="a" d="M3.5,24a1.981,1.981,0,0,0,2-2L5.014,9.611l.1-.031C6.183,9.251,7,8.8,7,6.341V0H6V6.341C6,8.261,5.556,8.4,4.82,8.624c-.166.051-.337.1-.507.173l-.327.132L4.5,22.015A.975.975,0,0,1,3.5,23a.981.981,0,0,1-1-1L3.014,8.929,2.687,8.8c-.17-.068-.341-.122-.507-.173C1.444,8.4,1,8.261,1,6.341V0H0V6.341C0,8.8.817,9.251,1.886,9.58l.1.031L1.5,21.976A1.986,1.986,0,0,0,3.5,24Z"/><path class="a" d="M13,24a2.015,2.015,0,0,1-2-2.026l.482-7.85-1.482-1V5.712C10,1.246,14.341.157,14.385.147L15,0V21.974A2.015,2.015,0,0,1,13,24ZM11,12.58l1.517,1.025L12,22.005a1,1,0,0,0,2-.032V1.345a4.6,4.6,0,0,0-3,4.367Z"/></svg>