<?xml version="1.0" encoding="utf-8"?>
<!-- Generator: Adobe Illustrator 23.0.1, SVG Export Plug-In . SVG Version: 6.00 Build 0)  -->
<svg version="1.1" id="Layer_1" xmlns="http://www.w3.org/2000/svg" xmlns:xlink="http://www.w3.org/1999/xlink" x="0px" y="0px"
	 viewBox="0 0 45 41" style="enable-background:new 0 0 45 41;" xml:space="preserve">
<title>round-trip--large</title>
<path d="M21.5,16.5c0,0.3,0.2,0.5,0.5,0.5h14.5l-8,8h1.4l8.5-8.5L29.9,8h-1.4l8,8H22C21.7,16,21.5,16.2,21.5,16.5z"/>
<path d="M23.5,24.5c0-0.3-0.2-0.5-0.5-0.5H8.5l8-8H15l-8.5,8.5L15,33h1.4l-8-8H23C23.3,25,23.5,24.8,23.5,24.5z"/>
<path d="M40,0H5C2.2,0,0,2.2,0,5v31c0,2.8,2.2,5,5,5h35c2.8,0,5-2.2,5-5V5C45,2.2,42.8,0,40,0z M44,36c0,2.2-1.8,4-4,4H5
	c-2.2,0-4-1.8-4-4V5c0-2.2,1.8-4,4-4h35c2.2,0,4,1.8,4,4V36z"/>
</svg>
