<svg xmlns="http://www.w3.org/2000/svg" width="34" height="30" viewBox="0 0 34 30"><title>round-trip--medium</title><path d="M29.979,0H4.021A4.026,4.026,0,0,0,0,4.021V25.979A4.026,4.026,0,0,0,4.021,30H29.979A4.026,4.026,0,0,0,34,25.979V4.021A4.026,4.026,0,0,0,29.979,0ZM33,25.979A3.025,3.025,0,0,1,29.979,29H4.021A3.025,3.025,0,0,1,1,25.979V4.021A3.025,3.025,0,0,1,4.021,1H29.979A3.025,3.025,0,0,1,33,4.021Z"/><polygon points="22.47 6.677 26.793 11 17 11 17 12 26.793 12 22.47 16.323 23.177 17.03 28.707 11.5 23.177 5.97 22.47 6.677"/><polygon points="11.53 13.677 10.823 12.97 5.293 18.5 10.823 24.03 11.53 23.323 7.207 19 17 19 17 18 7.207 18 11.53 13.677"/></svg>