<svg xmlns="http://www.w3.org/2000/svg" width="25" height="23" viewBox="0 0 25 23"><title>round-trip--small</title><polygon points="7.981 11.315 7.351 10.685 3.535 14.5 7.351 18.315 7.981 17.685 5.297 15 12.5 15 12.5 14 5.297 14 7.981 11.315"/><polygon points="16.685 5.315 19.369 8 12.166 8 12.166 9 19.369 9 16.685 11.685 17.315 12.315 21.131 8.5 17.315 4.685 16.685 5.315"/><path d="M20.5,0H4.5A4.5,4.5,0,0,0,0,4.5v14A4.5,4.5,0,0,0,4.5,23h16A4.5,4.5,0,0,0,25,18.5V4.5A4.5,4.5,0,0,0,20.5,0ZM24,18.5A3.5,3.5,0,0,1,20.5,22H4.5A3.5,3.5,0,0,1,1,18.5V4.5A3.5,3.5,0,0,1,4.5,1h16A3.5,3.5,0,0,1,24,4.5Z"/></svg>