<?xml version="1.0" encoding="utf-8"?>
<!-- Generator: Adobe Illustrator 23.0.1, SVG Export Plug-In . SVG Version: 6.00 Build 0)  -->
<svg version="1.1" id="Layer_1" xmlns="http://www.w3.org/2000/svg" xmlns:xlink="http://www.w3.org/1999/xlink" x="0px" y="0px"
	 viewBox="0 0 27.8 42.8" style="enable-background:new 0 0 27.8 42.8;" xml:space="preserve">
<title>route--large_1</title>
<path d="M6.8,3.4C6.8,1.5,5.3,0,3.4,0S0,1.5,0,3.4c0,1.7,1.2,3.1,2.8,3.4v29.3C1,36.4-0.3,38.1,0,40c0.3,1.9,2.1,3.1,4,2.8
	s3.1-2.1,2.8-4c-0.2-1.5-1.4-2.7-3-2.9v-5h2v-1h-2v-5h2v-1h-2v-5h2v-1h-2v-5h2v-1h-2V6.8C5.5,6.6,6.8,5.1,6.8,3.4z M1,3.4
	C1,2.1,2.1,1,3.4,1s2.4,1.1,2.4,2.4S4.8,5.8,3.4,5.8l0,0C2.1,5.8,1,4.8,1,3.4z M5.8,39.4c0,1.3-1.1,2.4-2.4,2.4S1,40.8,1,39.4
	C1,38.1,2.1,37,3.4,37c0,0,0,0,0,0C4.8,37,5.8,38.1,5.8,39.4L5.8,39.4z"/>
<circle cx="18.8" cy="24" r="1"/>
<circle cx="23.8" cy="24" r="1"/>
<path d="M21.3,11c-2.3,0-4.6,0.7-6.5,1.9v13.2c4,2.6,9,2.6,13,0V12.9C25.9,11.7,23.6,11,21.3,11z M21.3,12c1.4,0,2.9,0.3,4.2,0.8
	L24.5,20c-2,0.6-4.2,0.6-6.3,0l-1.1-7.2C18.5,12.3,19.9,12,21.3,12z M26.8,25.5c-3.4,2-7.6,2-11,0v-12c0.1-0.1,0.2-0.1,0.3-0.2
	l1.1,7.5l0.3,0.1c2.4,0.8,5.1,0.8,7.5,0l0.3-0.1l1.1-7.5c0.1,0.1,0.2,0.1,0.3,0.2L26.8,25.5z"/>
<path d="M25.4,30h-1.1c0,0.1,0,0.2,0,0.2l0.9,1.8h-7.9l0.9-1.8c0-0.1,0-0.1,0-0.2h-1.1l-1.9,3.8c-0.1,0.2,0,0.5,0.2,0.7
	c0.2,0.1,0.5,0,0.7-0.2c0,0,0,0,0,0l0.6-1.2h8.9l0.6,1.2c0.1,0.2,0.4,0.3,0.7,0.2s0.3-0.4,0.2-0.7L25.4,30z"/>
</svg>
