<?xml version="1.0" encoding="utf-8"?>
<!-- Generator: Adobe Illustrator 23.0.1, SVG Export Plug-In . SVG Version: 6.00 Build 0)  -->
<svg version="1.1" id="Layer_1" xmlns="http://www.w3.org/2000/svg" xmlns:xlink="http://www.w3.org/1999/xlink" x="0px" y="0px"
	 viewBox="0 0 45.8 22.8" style="enable-background:new 0 0 45.8 22.8;" xml:space="preserve">
<title>route--large</title>
<path d="M42.4,16c-1.7,0-3.1,1.2-3.4,2.8h-6.2v-2h-1v2h-7v-2h-1v2h-4.3L16,15.3l1.1-1.1l-0.7-0.7l-1.1,1.1L11,10.3l1.1-1.1l-0.7-0.7
	l-1.1,1.2L6.2,5.4c1.1-1.5,0.8-3.6-0.7-4.8S1.8-0.1,0.7,1.4s-0.8,3.6,0.7,4.8c0.6,0.4,1.3,0.7,2,0.7c0.7,0,1.4-0.2,2-0.7l13.7,13.6
	l19.9,0c0.2,1.9,1.9,3.2,3.8,3c1.9-0.2,3.2-1.9,3-3.8C45.6,17.3,44.1,16,42.4,16z M1,3.4C1,2.1,2.1,1,3.4,1s2.4,1.1,2.4,2.4
	S4.8,5.8,3.4,5.8l0,0C2.1,5.8,1,4.8,1,3.4z M42.4,21.8c-1.3,0-2.4-1.1-2.4-2.4s1.1-2.4,2.4-2.4s2.4,1.1,2.4,2.4l0,0
	C44.8,20.8,43.8,21.8,42.4,21.8z"/>
</svg>
