<svg xmlns="http://www.w3.org/2000/svg" width="20" height="19.993" viewBox="0 0 20 19.993"><title>settings--small</title><path d="M17.127,7.65,16.7,6.621l1.446-2.6-2.162-2.18L13.379,3.3l-1.027-.425L11.53,0H8.47L7.648,2.87l-.984.4L4.03,1.833,1.836,4.027l1.435,2.63-.39.935L0,8.446v3.1l2.881.842.391.942L1.836,15.962,4.03,18.156l2.631-1.435.942.391.842,2.881h3.109L12.4,17.11l.986-.413,2.6,1.446,2.166-2.166-1.448-2.6.426-1.029L20,11.526V8.466ZM19,10.778l-.209.06-2.4.688L15.6,13.447l1.316,2.366-1.1,1.1L13.445,15.6l-1.874.785-.7,2.406-.063.215H9.2l-.063-.215-.7-2.406-1.827-.757L4.215,16.934,3.079,15.8,4.385,13.4l-.768-1.831-2.412-.706L1,10.806V9.2l.209-.062,2.412-.717L4.374,6.6,3.068,4.21,4.2,3.074,6.6,4.38l1.874-.767.686-2.4L9.22,1h1.552l.062.215.686,2.4,1.921.795,2.366-1.325,1.1,1.107L15.591,6.556l.8,1.921,2.4.688.209.06v1.552Z"/><path d="M10,6.217a3.785,3.785,0,1,0,3.791,3.791A3.785,3.785,0,0,0,10,6.217Zm0,6.57a2.785,2.785,0,1,1,2.791-2.779A2.785,2.785,0,0,1,10,12.787Z"/></svg>