<svg xmlns="http://www.w3.org/2000/svg" width="29" height="27.001" viewBox="0 0 29 27.001"><title>shaking-hands--small</title><g id="Layer_2" data-name="Layer 2"><g id="Layer_1-2" data-name="Layer 1"><path d="M5,6A3,3,0,1,1,8,3,3,3,0,0,1,5,6ZM5,1A2,2,0,1,0,7,3,2,2,0,0,0,5,1Z"/><path d="M7.5,20H.5a.5.5,0,0,1-.5-.5V10A2,2,0,0,1,2,8H3.5a.5.5,0,0,1,0,1H2a1,1,0,0,0-1,1v9H7V13.5a.5.5,0,0,1,1,0v6A.5.5,0,0,1,7.5,20Z"/><path d="M14.5,17H13.427a1.993,1.993,0,0,1-1.789-1.1L8.468,9.553A1,1,0,0,0,7.573,9H6.5a.5.5,0,0,1,0-1H7.573A1.993,1.993,0,0,1,9.362,9.1l3.17,6.343a1,1,0,0,0,.895.553H14.5a.5.5,0,0,1,0,1Z"/><path d="M2,21v5.5a.5.5,0,0,0,1,0V21Z"/><path d="M6,21v5.5a.5.5,0,0,0,1,0V21Z"/><path d="M23,6a3,3,0,1,1,3-3A3,3,0,0,1,23,6Zm0-5a2,2,0,1,0,2,2A2,2,0,0,0,23,1Z"/><path d="M15.573,15H14.5a.5.5,0,0,1,0-1h1.073a1,1,0,0,0,.895-.554l2.17-4.341A1.992,1.992,0,0,1,20.427,8H21.5a.5.5,0,0,1,0,1H20.427a1,1,0,0,0-.895.554L17.362,13.9A1.992,1.992,0,0,1,15.573,15Z"/><path d="M28.5,20h-10a.5.5,0,0,1-.475-.658l2-6a.5.5,0,0,1,.95.316L19.193,19h8.7L26.133,9.96a1.013,1.013,0,0,0-1-.96H24.5a.5.5,0,0,1,0-1h.63a1.991,1.991,0,0,1,1.992,1.819L28.991,19.4a.5.5,0,0,1-.491.6Z"/><path d="M21,21v5.5a.5.5,0,0,0,1,0V21Z"/><path d="M25,21v5.5a.5.5,0,0,0,1,0V21Z"/></g></g></svg>