<svg xmlns="http://www.w3.org/2000/svg" xmlns:xlink="http://www.w3.org/1999/xlink" width="16" height="16" viewBox="0 0 16 16"><defs><style>.a{fill:none;}.b{clip-path:url(#a);}</style><clipPath id="a"><polygon class="a" points="5 11 5 2 0 2 0 16 14 16 14 11 5 11"/></clipPath></defs><title>share--small</title><circle cx="5" cy="2.5" r="0.5"/><circle cx="13.5" cy="11" r="0.5"/><path d="M7.5,9a.5.5,0,0,1-.354-.853l8-8a.5.5,0,1,1,.707.707l-8,8A.5.5,0,0,1,7.5,9Z"/><polygon points="7.5 1 15 1 15 8.5 16 7.5 16 0 8.5 0 7.5 1"/><g class="b"><path d="M13,3V15H1V3H13m1-1H0V16H14V2Z"/></g></svg>