<svg xmlns="http://www.w3.org/2000/svg" width="41.276" height="41.276" viewBox="0 0 41.276 41.276"><title>smiley--large</title><path d="M20.638,41.276A20.638,20.638,0,1,1,41.276,20.638,20.638,20.638,0,0,1,20.638,41.276ZM20.638,1A19.638,19.638,0,1,0,40.276,20.638,19.638,19.638,0,0,0,20.638,1Z"/><path d="M20.638,31.476a12.836,12.836,0,0,1-11.9-7.763l.916-.4a12,12,0,0,0,21.959,0l.916.4A12.836,12.836,0,0,1,20.638,31.476Z"/><path d="M26.825,16.838a2.625,2.625,0,1,1,2.625-2.625h0A2.628,2.628,0,0,1,26.825,16.838Zm0-4.25a1.625,1.625,0,1,0,1.625,1.625h0A1.626,1.626,0,0,0,26.825,12.588Z"/><path d="M14.45,16.838a2.625,2.625,0,1,1,2.625-2.625h0A2.628,2.628,0,0,1,14.45,16.838Zm0-4.25a1.625,1.625,0,1,0,1.625,1.625h0A1.626,1.626,0,0,0,14.45,12.588Z"/></svg>