<svg xmlns="http://www.w3.org/2000/svg" width="24" height="24" viewBox="0 0 24 24"><path d="M12 4a2 2 0 1 0 2 2 2 2 0 0 0-2-2m0 1a1 1 0 1 1-1 1 1 1 0 0 1 1-1"></path><path d="M12 0L0 6v12h3v-3.5a1.5 1.5 0 0 1 3 0V18h3v-4a3 3 0 0 1 6 0v4h3v-3.5a1.5 1.5 0 0 1 3 0V18h3V6zm0 1.1l11 5.5V17h-1v-2.5a2.5 2.5 0 0 0-5 0V17h-1v-3a4 4 0 0 0-8 0v3H7v-2.5a2.5 2.5 0 0 0-5 0V17H1V6.6zM16 19h-1a.7.7 0 0 0 0 .3l1 2H8l1-2a.7.7 0 0 0 0-.3H8l-2 4.2a.6.6 0 0 0 .3.7.4.4 0 0 0 .2.1.5.5 0 0 0 .5-.3l.6-1.4h8.9l.6 1.4a.5.5 0 0 0 .5.3.4.4 0 0 0 .2 0 .6.6 0 0 0 .2-.8z"></path></svg>