<svg xmlns="http://www.w3.org/2000/svg" width="26" height="21" viewBox="0 0 26 21"><title>subscription--small</title><circle cx="4.497" cy="6.5" r="0.5"/><circle cx="6.497" cy="6.5" r="0.5"/><path d="M8,10H3V4H8ZM4,9H7V5H4Z"/><rect x="10" y="4" width="10" height="1"/><rect x="11" y="6" width="6" height="1"/><path d="M25.5,21a.5.5,0,0,1-.5-.5v-8a1.459,1.459,0,0,0-.354-1.146l-5.5-5.5a.5.5,0,1,1,.707-.707l5.5,5.5A2.472,2.472,0,0,1,26,12.5v8A.5.5,0,0,1,25.5,21Z"/><path d="M18,20.5a.5.5,0,0,1-.354-.146l-3.076-3.075a2.741,2.741,0,0,1-.8-1.144c-.11-.394-1.432-5.756-1.488-5.984a1.839,1.839,0,0,1,.214-1.484,2.11,2.11,0,0,1,1.385-.909,2.089,2.089,0,0,1,2.433,1.473L17.96,13.31a.5.5,0,0,1-.927.375L15.377,9.594a1.114,1.114,0,0,0-1.322-.852,1.131,1.131,0,0,0-.722.464.859.859,0,0,0-.086.7c.476,1.932,1.4,5.655,1.481,5.958a2.028,2.028,0,0,0,.543.7l3.079,3.079A.5.5,0,0,1,18,20.5Z"/><path d="M18.5,0H1.5A1.5,1.5,0,0,0,0,1.475v11.05A1.5,1.5,0,0,0,1.5,14H14.153l-.276-1H1.5a.5.5,0,0,1-.5-.5V1.5A.5.5,0,0,1,1.5,1h17a.5.5,0,0,1,.5.5v11a.5.5,0,0,1-.5.5H17.12l.377,1h1A1.5,1.5,0,0,0,20,12.5V1.5A1.5,1.5,0,0,0,18.5,0Z"/></svg>