<svg xmlns="http://www.w3.org/2000/svg" width="18.808" height="21.026" viewBox="0 0 18.808 21.026"><title>swipe--small</title><path d="M18.494,9.994a1.994,1.994,0,0,0-1.7-.967h0a1.989,1.989,0,0,0-1.113.339,2,2,0,0,0-3-1,2,2,0,0,0-1.887-1.337,1.974,1.974,0,0,0-1,.27V2.029a2,2,0,0,0-4,0V11.4L4.982,10l-.534-.926a1.952,1.952,0,0,0-1.2-.953,1.87,1.87,0,0,0-1.462.2,2.158,2.158,0,0,0-.771,2.743c.03.06.668,1.367,2.66,5.349a10.582,10.582,0,0,0,3.06,3.985,2.905,2.905,0,0,0,1.558.633h5a4.021,4.021,0,0,0,2.331-.729,5.746,5.746,0,0,0,1.735-2.033,15.657,15.657,0,0,0,1.435-7.236A1.98,1.98,0,0,0,18.494,9.994Zm-2.019,7.8h0a3.72,3.72,0,0,1-3.181,2.235H8.3A2.347,2.347,0,0,1,7.209,19.5a9.741,9.741,0,0,1-2.637-3.539c-2.028-4.055-2.651-5.332-2.656-5.344h0A1.107,1.107,0,0,1,1.826,10,1.068,1.068,0,0,1,2.3,9.182a.881.881,0,0,1,.686-.1.957.957,0,0,1,.587.472l.006.01.248.43L5.143,12.27c.319.583.679.828,1.067.728s.584-.486.584-1.156V2.03a1,1,0,0,1,2,0v8.5a.5.5,0,0,0,1,0V9.03a1,1,0,0,1,2,0v1.5a.5.5,0,0,0,1,0v-.5c0-.013.007-.023.007-.035a.993.993,0,0,1,1.986,0c0,.012.007.023.007.035v1.5a.5.5,0,0,0,1,0v-.5a1,1,0,0,1,2,0,14.689,14.689,0,0,1-1.315,6.763Z"/><path d="M11.76,3h2.293L12.907,4.14a.5.5,0,0,0,.708.707h0l2-2a.5.5,0,0,0,0-.707h0l-2-2a.5.5,0,0,0-.707.707l1.146,1.146H11.76a.5.5,0,1,0,0,1Z"/><path d="M2.494,4.994a.5.5,0,0,0,.354-.854L1.707,3H4A.5.5,0,1,0,4,2H1.707L2.853.849A.5.5,0,0,0,2.146.142l-2,2h0a.5.5,0,0,0,0,.707l2,2A.5.5,0,0,0,2.494,4.994Z"/></svg>