<svg xmlns="http://www.w3.org/2000/svg" width="46.054" height="46.053" viewBox="0 0 46.054 46.053"><title>switch-class--large</title><polygon points="32.222 32.221 31.904 34.834 33.061 34.976 33.188 33.425 37.034 37.272 38.021 36.286 33.088 31.354 32.222 32.221"/><path d="M10.27,10.789a1,1,0,0,1,1.486-.077c.76.761.648,3.72.556,4.784l.831.832,3.312-3.312-.789-.789s-2.029,2.057-2.043,2.043c.091-1.346.076-3.713-.931-4.72a1.963,1.963,0,0,0-2.952.162,5.136,5.136,0,0,0-1.17,1.86l.959.789A2.967,2.967,0,0,1,10.27,10.789Z"/><path d="M18.19,41.313A10.587,10.587,0,0,1,5.475,29.219L7.92,32.872l.831-.558L5.41,27.324.676,31.019l.615.789,3.148-2.459A11.658,11.658,0,0,0,18.4,42.29a.5.5,0,1,0-.207-.977Z"/><path d="M27.8,4.679A10.663,10.663,0,0,1,40.661,15.107a10.8,10.8,0,0,1-.146,1.666L38.07,13.12l-.831.558,3.341,4.99,4.734-3.695-.615-.789L41.55,16.643A11.657,11.657,0,0,0,27.593,3.7a.5.5,0,1,0,.207.977Z"/><path d="M34.824,17.071a2.566,2.566,0,0,0-3.535,0L17.07,31.289a2.5,2.5,0,0,0,0,3.535L28.3,46.053l.707-.707L17.777,34.118a1.5,1.5,0,0,1,0-2.121L32,17.778a1.543,1.543,0,0,1,2.121,0l11.23,11.229.707-.707Z"/><path d="M13,29.714a2.481,2.481,0,0,0,1.768-.73L28.984,14.766a2.506,2.506,0,0,0,0-3.536L17.754,0l-.707.707,11.229,11.23a1.5,1.5,0,0,1,0,2.122L14.058,28.277a1.544,1.544,0,0,1-2.121,0L.707,17.047,0,17.754,11.229,28.983A2.48,2.48,0,0,0,13,29.714Z"/></svg>