<svg xmlns="http://www.w3.org/2000/svg" width="19" height="17" viewBox="0 0 19 17"><title>taxi--small</title><path d="M18.5,7H17.143L15.392,2.915A1.645,1.645,0,0,0,14,2H5a1.635,1.635,0,0,0-1.388.915L1.857,7H.5a.5.5,0,1,0,0,1H2.517l2.01-4.691A.665.665,0,0,1,5,3h9.009a.686.686,0,0,1,.469.309L16.483,8H18.5a.5.5,0,1,0,0-1Z"/><path d="M17.5,9H17l-2,2h2v3H2V11H4L2,9H1.5a.5.5,0,0,0-.5.5V14a1,1,0,0,0,1,1H2v1.5a.5.5,0,0,0,.5.5h1a.5.5,0,0,0,.5-.5V15H15v1.5a.5.5,0,0,0,.5.5h1a.5.5,0,0,0,.5-.5V15h0a1.006,1.006,0,0,0,1-1V9.5A.5.5,0,0,0,17.5,9Z"/><rect x="6" y="10" width="7" height="1"/><polygon points="14 7 5 7 4 8 15 8 14 7"/><rect x="7" y="12" width="5" height="1"/><polygon points="13 2 12 2 12 1 7 1 7 2 6 2 6 0 13 0 13 2"/></svg>