<svg xmlns="http://www.w3.org/2000/svg" width="23" height="25.999" viewBox="0 0 23 25.999"><title>tent--small</title><g id="Layer_2" data-name="Layer 2"><g id="Layer_1-2" data-name="Layer 1"><path d="M22.675,12.031c-5.255-1.959-8.463-4.468-10.4-8.136l-.044-.084L18.638,1.98A.5.5,0,0,0,18.57,1l-7-1a.509.509,0,0,0-.4.118A.494.494,0,0,0,11,.5V3.367l-.156.272C8.254,8.171,4.062,10.429.3,12.04A.5.5,0,0,0,0,12.5v13a.5.5,0,0,0,.5.5h22a.5.5,0,0,0,.5-.5v-13A.5.5,0,0,0,22.675,12.031ZM12,17.5a.5.5,0,0,0-1,0A10.427,10.427,0,0,1,7.32,25H2.887a16.379,16.379,0,0,0,4.9-9.762,3.274,3.274,0,0,0,1.026.19A3.164,3.164,0,0,0,11.5,13.969a3.164,3.164,0,0,0,2.688,1.458,3.274,3.274,0,0,0,1.026-.19A16.379,16.379,0,0,0,20.113,25H15.68A10.427,10.427,0,0,1,12,17.5ZM14.174,25H8.826A10.742,10.742,0,0,0,11.5,20.473,10.742,10.742,0,0,0,14.174,25ZM10.849,13a2.166,2.166,0,0,1-4.073,0ZM8.636,12A14.36,14.36,0,0,0,11.5,6.584,14.36,14.36,0,0,0,14.364,12Zm5.552,2.428A2.119,2.119,0,0,1,12.151,13h4.073A2.118,2.118,0,0,1,14.188,14.427ZM20,12H15.718a13.4,13.4,0,0,1-3.326-6A17.93,17.93,0,0,0,20,12Zm1.6,1a2.166,2.166,0,0,1-4.073,0ZM12,1.076l4.108.587L12,2.836ZM10.686,5.688A13.472,13.472,0,0,1,7.282,12H2.78A20.7,20.7,0,0,0,10.686,5.688ZM5.474,13a2.118,2.118,0,0,1-2.036,1.428A2.119,2.119,0,0,1,1.4,13ZM1,14.3a3.2,3.2,0,0,0,2.438,1.132,3.164,3.164,0,0,0,2.687-1.458,2.955,2.955,0,0,0,.723.772A15.3,15.3,0,0,1,1.336,25H1ZM21.664,25a15.3,15.3,0,0,1-5.512-10.258,2.955,2.955,0,0,0,.723-.772,3.164,3.164,0,0,0,2.687,1.458A3.2,3.2,0,0,0,22,14.3V25Z"/></g></g></svg>