<svg xmlns="http://www.w3.org/2000/svg" width="22" height="19" viewBox="0 0 22 19"><title>text-baloon--small</title><rect x="4.5" y="6" width="13" height="1"/><rect x="9.5" y="9" width="5" height="1"/><rect x="4.5" y="9" width="3" height="1"/><path d="M20.5,0H1.5A1.538,1.538,0,0,0,0,1.5v11A1.538,1.538,0,0,0,1.5,14H5V13H1.5a.472.472,0,0,1-.5-.5V1.5A.472.472,0,0,1,1.5,1h19a.472.472,0,0,1,.5.5v11a.472.472,0,0,1-.5.5H10L9,14H20.5A1.538,1.538,0,0,0,22,12.5V1.5A1.538,1.538,0,0,0,20.5,0Z"/><polygon points="9.1 13 5.5 16.6 5.5 13 4.5 13 4.5 19 10.5 13 9.1 13"/><rect x="4.5" y="6" width="13" height="1"/><rect x="9.5" y="9" width="5" height="1"/><rect x="4.5" y="9" width="3" height="1"/><path d="M20.5,0H1.5A1.538,1.538,0,0,0,0,1.5v11A1.538,1.538,0,0,0,1.5,14H5V13H1.5a.472.472,0,0,1-.5-.5V1.5A.472.472,0,0,1,1.5,1h19a.472.472,0,0,1,.5.5v11a.472.472,0,0,1-.5.5H10L9,14H20.5A1.538,1.538,0,0,0,22,12.5V1.5A1.538,1.538,0,0,0,20.5,0Z"/></svg>