<svg xmlns="http://www.w3.org/2000/svg" width="96.305" height="24.625" viewBox="0 0 96.305 24.625"><title>thalys--small</title><path d="M61.433,4.42c2.019-.794,3.171-1.863,4.79-2.5A4.629,4.629,0,0,1,70,1.683,3.42,3.42,0,0,1,71.522,4.46v.6a.976.976,0,0,0,.181.593c.22.349.691,1.077.846,1.325.175.277.091.362-.064.435-.129.06-.181.072-.272.112a.329.329,0,0,0-.155.343V9.436a.813.813,0,0,1-.885.718c-.284,0-1.337-.039-2.2-.1,0,0,.859,1.246,1.1,1.575a1.948,1.948,0,0,0,1.37.692H88.751l-.1-.224s-15.4-1.63-15.58-1.648-.293-.035-.1-.29c2.206-2.672,1-12.414-9.115-9.673-.873.237-4.256,1.617-5.032,2a8.716,8.716,0,0,1-3.808.844C55.281,5.017,58.125,5.72,61.433,4.42Z"/><path d="M64.517,11.131a24.521,24.521,0,0,0-5.367,1.658l.973.952a2.677,2.677,0,0,0,1.408.092c.465-.092,5.674-.765,6.268-.751-.375-.382-1.262-1.282-1.435-1.463A1.76,1.76,0,0,0,64.517,11.131Z"/><path d="M40.324,22.783s1.069,1.044,1.448,1.423c.517.519.87.536,1.74.158,12.045-5.537,38.3-9.992,52.793-10.809l-.138-.308C87.806,13.054,56.766,15.8,40.324,22.783Z"/><path d="M.829,6.987a1,1,0,0,0,.288-.464l.135-.348a1.447,1.447,0,0,1,.1-.229h.015a7.866,7.866,0,0,1,1.019-.041L1.913,9.771a4.026,4.026,0,0,1-.484,1.8l-.2.321.375-.021c.194-.011.267-.011.411-.011h.078l1.042.011H3.2a.721.721,0,0,0,.636-.2,1.11,1.11,0,0,0,.259-.436l.108-.271H3.666a3.991,3.991,0,0,1-.435,0c.023-.1.041-.175.062-.282.064-.28.156-.843.2-1.249L3.927,5.9c.5,0,.965.013,1.118.04.019.124.039.454.054.727l.022.282.015.187.187,0a.647.647,0,0,0,.757-.67l.189-1.276L6.3,4.953l-.234,0-.5.011L3.484,4.98H2.922L.946,4.969.528,4.958H.356l-.028.17L.039,6.905,0,7.142l.24-.008A.843.843,0,0,0,.829,6.987Z"/><path d="M9.118,9.856a9.443,9.443,0,0,1-.185,1.112,2.8,2.8,0,0,1-.187.517v.022l-.033.1-.092.276.29-.016c.2-.011.268-.011.4-.011H9.4l.853.011h.08a.718.718,0,0,0,.624-.21,1,1,0,0,0,.259-.426l.108-.271h-.5c-.157,0-.291,0-.409-.012.013-.063.027-.138.048-.257.035-.219.057-.362.068-.454.054-.267.11-.684.145-.979l.055-.436h2.524l-.128,1.034a10.9,10.9,0,0,1-.2,1.1,2.625,2.625,0,0,1-.186.529l0,.011v.011l-.033.1-.092.276.29-.016c.194-.011.267-.011.4-.011h.089l.864.011h.069a.719.719,0,0,0,.624-.209,1,1,0,0,0,.259-.426l.108-.271h-.5c-.157,0-.291,0-.409-.012.013-.063.027-.138.048-.257.035-.219.057-.362.068-.454.058-.289.115-.711.145-.98L14.877,7.6c.069-.563.178-1.339.211-1.563s.056-.411.087-.58a.191.191,0,0,0,.006-.027c.018-.08.028-.128.056-.219l.081-.27-.281.016c-.194.011-.247.011-.5.011l-.571.011H13.7a1.542,1.542,0,0,0-.3.015.581.581,0,0,0-.345.176,1.229,1.229,0,0,0-.246.449l-.108.293.311-.028a2.255,2.255,0,0,1,.249-.01c.125,0,.253,0,.37.012-.014.071-.025.148-.043.273-.042.3-.064.48-.1.736l0,.046-.121.915H10.836l.03-.257.1-.791.105-.787c.032-.2.065-.392.1-.555a1.141,1.141,0,0,1,.051-.26L11.3,4.93l-.282.017c-.183.011-.236.011-.488.011l-.57.011H9.7a.756.756,0,0,0-.64.191,1.4,1.4,0,0,0-.254.441l-.126.3.325-.027a2.349,2.349,0,0,1,.25-.01,3.634,3.634,0,0,1,.381.013c-.054.271-.106.624-.155,1.056Z"/><path d="M20.392,5.05l.023-.009h0Z"/><path d="M18.326,11.856c.232,0,.294,0,.489.011l.163.009.039-.158a4.044,4.044,0,0,1,.3-.765l.665-1.431.1-.231h1.786l.115.616a10.117,10.117,0,0,1,.2,1.486,2.192,2.192,0,0,1-.01.26l-.021.228.228-.013c.2-.011.281-.011.4-.011h.078l.674.011h.07a.742.742,0,0,0,.635-.209,1,1,0,0,0,.259-.426l.108-.271h-.447a3.976,3.976,0,0,1-.424-.025L22.6,5.112l-.033-.168-.171.009c-.206.011-.268.011-.5.011l-.935.011a1.222,1.222,0,0,0-.541.067.911.911,0,0,0-.472.464l-.006.01v.011l-.033.078-.129.3.326-.026a5.11,5.11,0,0,1,.514-.021l-1.86,3.577c-.057.114-.133.266-.242.462-.212.4-.379.714-.5.934-.1.19-.2.358-.293.5a1.085,1.085,0,0,1-.149.209l-.3.348.462-.021C17.966,11.856,18.047,11.856,18.326,11.856Zm3.09-5.332c.03.211.067.451.114.734.044.32.1.649.156.967l.029.136H20.539Z"/><path d="M28.046,9.856a8.947,8.947,0,0,1-.238,1.3,3.928,3.928,0,0,1-.169.431l-.134.3.328-.023c.309-.022.5-.033.842-.033l.089.01h.02l2.933.022h.164l.031-.161.344-1.788.045-.235h-.235a.832.832,0,0,0-.606.125,1.178,1.178,0,0,0-.275.461l-.153.328a1.058,1.058,0,0,1-.124.237,2.467,2.467,0,0,1-.7.049c-.214,0-.443-.009-.707-.019h-.067c.09-.414.186-1,.259-1.579l.2-1.69c.077-.649.133-1.039.221-1.544.021-.118.043-.227.065-.324V5.7a3.706,3.706,0,0,1,.066-.4.469.469,0,0,0,.037-.084l.087-.26H29.6l-.7.011h-.309a1.5,1.5,0,0,0-.3.015.579.579,0,0,0-.345.176,1.393,1.393,0,0,0-.254.441l-.126.3.323-.025c.137-.01.175-.01.251-.01.117,0,.287.008.431.02-.051.277-.1.638-.149,1.048Z"/><path d="M38.671,7.163l-.433.71-.171-.47-.178-.479c-.248-.669-.45-1.25-.54-1.553a1.543,1.543,0,0,1-.062-.257l-.031-.172-.174.01c-.194.011-.247.011-.5.011l-.405.011h-.211a1.484,1.484,0,0,0-.294.015.531.531,0,0,0-.356.187,1.189,1.189,0,0,0-.254.429l-.127.3.325-.027a2.462,2.462,0,0,1,.576.015l1.272,3.169-.094.794a8.742,8.742,0,0,1-.238,1.3,2.288,2.288,0,0,1-.153.422l-.129.294a3.056,3.056,0,0,0,.316-.007c.194-.011.268-.011.4-.011H37.3l.875.011h.069a.718.718,0,0,0,.624-.209,1,1,0,0,0,.259-.426l.108-.271h-.508c-.158,0-.3,0-.415-.011.014-.073.026-.146.044-.26l.1-.528.067-.355.056-.349.059-.344.885-1.3V5.72l-.053.09C39.054,6.532,38.8,6.973,38.671,7.163Z"/><path d="M39.9,7.26l.3-.419.633-.888a3.765,3.765,0,0,1,.512-.664l.363-.362-.512.026c-.217.011-.293.011-.546.011s-.384,0-.613-.011l-.147-.007-.049.139a3.284,3.284,0,0,1-.319.64V7.817Z"/><path d="M46.925,4.829a2.729,2.729,0,0,0-1.818.592A2.2,2.2,0,0,0,44.339,7a1.463,1.463,0,0,0,.514,1.139,3.7,3.7,0,0,0,.7.436l1.006.553a2.481,2.481,0,0,1,.486.295.8.8,0,0,1,.278.621,1,1,0,0,1-1.109.878l-.06-.009a3.72,3.72,0,0,1-.578-.053,2.829,2.829,0,0,1-.414-.125,5.337,5.337,0,0,1-.066-.724l-.011-.265-.008-.189h-.19a.638.638,0,0,0-.762.671l-.177,1.163-.024.159.15.056a4.9,4.9,0,0,0,1.824.357c1.687-.012,2.864-.979,2.864-2.353A1.73,1.73,0,0,0,47.569,7.95l-.212-.112-1.03-.565a1.821,1.821,0,0,1-.4-.273.473.473,0,0,1-.2-.432.633.633,0,0,1,.188-.463,1.27,1.27,0,0,1,.9-.3,2.509,2.509,0,0,1,.925.174L47.764,6a8.324,8.324,0,0,1,.075.99l.008.2.2-.01A.66.66,0,0,0,48.81,6.5l.155-1.111.022-.158-.15-.055A5.535,5.535,0,0,0,46.925,4.829Z"/></svg>