<svg xmlns="http://www.w3.org/2000/svg" width="21" height="21.974" viewBox="0 0 21 21.974"><title>theatre--small</title><path d="M10.5,21.974a6.422,6.422,0,0,1-4.354-1.709A19.023,19.023,0,0,1,0,6.282V3.472A2.514,2.514,0,0,1,1.906,1.029a36.393,36.393,0,0,1,17.188,0h0A2.514,2.514,0,0,1,21,3.472V6.282a19.023,19.023,0,0,1-6.146,13.983A6.422,6.422,0,0,1,10.5,21.974Zm0-21A34.451,34.451,0,0,0,2.148,2,1.516,1.516,0,0,0,1,3.472V6.282A18.023,18.023,0,0,0,6.821,19.529a5.411,5.411,0,0,0,7.357,0A18.023,18.023,0,0,0,20,6.282V3.472A1.516,1.516,0,0,0,18.852,2h0A34.451,34.451,0,0,0,10.5.973Z"/><path d="M14.76,9.121a4.257,4.257,0,0,1-2.994-1.7l-.255-.344.3-.305c1.237-1.252,2.43-1.8,3.554-1.614A3.362,3.362,0,0,1,17.615,6.9l.136.273-.183.245A3.548,3.548,0,0,1,14.76,9.121Zm-1.9-1.97a2.894,2.894,0,0,0,1.9.97h0a2.421,2.421,0,0,0,1.795-1.034,2.181,2.181,0,0,0-1.36-.945A2.976,2.976,0,0,0,12.858,7.152Z"/><path d="M6.24,9.121a3.548,3.548,0,0,1-2.809-1.7l-.183-.245L3.385,6.9a3.362,3.362,0,0,1,2.25-1.744c1.122-.185,2.317.362,3.554,1.614l.3.305-.255.344A4.257,4.257,0,0,1,6.24,9.121Zm-1.8-2.034a2.419,2.419,0,0,0,1.8,1.034,2.913,2.913,0,0,0,1.9-.971A2.985,2.985,0,0,0,5.795,6.143,2.194,2.194,0,0,0,4.441,7.088Z"/><path d="M10.685,16.946c-2.6,0-4.6-2.479-5.353-3.554a.646.646,0,0,1,0-.757.661.661,0,0,1,.725-.243,17.249,17.249,0,0,0,8.909-.019h0a.648.648,0,0,1,.7.246.66.66,0,0,1,.027.75c-1.488,2.336-3.146,3.539-4.931,3.576ZM6.756,13.6c.843,1,2.306,2.384,3.991,2.342,1.251-.026,2.466-.832,3.619-2.4A18.5,18.5,0,0,1,6.756,13.6Z"/></svg>