<svg xmlns="http://www.w3.org/2000/svg" width="47.003" height="35.007" viewBox="0 0 47.003 35.007"><title>ticket--large</title><path d="M1,5.8V2A1,1,0,0,1,2,1H34a1,1,0,0,1,1,1V5.8h1V2a2,2,0,0,0-2-2H2A2,2,0,0,0,0,2V5.8Z"/><path d="M45.853,16.994c-.5-.5-9.853-9.511-9.853-9.511H35V21a1,1,0,0,1-1,1H31.157l-2.62-7.883a3.391,3.391,0,0,0-4.081-2.326,3.21,3.21,0,0,0-2.466,3.735c.051.248.7,3.431,1.336,6.474H2a1,1,0,0,1-1-1V11.253H0V21a2,2,0,0,0,2,2H23.533c.487,2.343.917,4.389.984,4.633a4.853,4.853,0,0,0,1.129,2.221l5,5a.5.5,0,0,0,.72-.694l-.012-.012-5-5a3.987,3.987,0,0,1-.871-1.778c-.126-.462-1.857-8.851-2.509-12.026a2.2,2.2,0,0,1,1.666-2.569,2.373,2.373,0,0,1,2.939,1.62l.014.051,2.729,8.212a.5.5,0,0,0,.444.34H34a2,2,0,0,0,2-2V8.873c2.328,2.243,8.718,8.4,9.146,8.829A2.039,2.039,0,0,1,46,19.5v15a.5.5,0,0,0,1,0v-15A3.007,3.007,0,0,0,45.853,16.994Z"/><circle cx="0.93" cy="8.483" r="0.93"/><circle cx="5.953" cy="8.483" r="0.93"/><circle cx="10.977" cy="8.483" r="0.93"/><circle cx="16" cy="8.483" r="0.93"/><circle cx="21.023" cy="8.483" r="0.93"/><circle cx="26.047" cy="8.483" r="0.93"/><circle cx="31.07" cy="8.483" r="0.93"/></svg>