<?xml version="1.0" encoding="utf-8"?>
<!-- Generator: Adobe Illustrator 23.0.1, SVG Export Plug-In . SVG Version: 6.00 Build 0)  -->
<svg version="1.1" id="Layer_1" xmlns="http://www.w3.org/2000/svg" xmlns:xlink="http://www.w3.org/1999/xlink" x="0px" y="0px"
	 viewBox="0 0 56.5 32.9" style="enable-background:new 0 0 56.5 32.9;" xml:space="preserve">
<title>train-public-transport--large</title>
<circle cx="6.5" cy="18.1" r="0.8"/>
<circle cx="11.5" cy="18.1" r="0.8"/>
<path d="M5.5,21.8h7c1.1,0,2-0.9,2-2v-11c0-1.1-0.9-2-2-2h-7c-1.1,0-2,0.9-2,2v11C3.5,20.9,4.4,21.8,5.5,21.8z M13.5,14.8h-1v-4h1
	V14.8z M5.5,14.8h-1v-4h1V14.8z M6.5,10.8h5v4h-5V10.8z M4.5,8.8c0-0.6,0.4-1,1-1h7c0.6,0,1,0.4,1,1v1h-9V8.8z M13.5,15.8v4
	c0,0.6-0.4,1-1,1h-7c-0.6,0-1-0.4-1-1v-4H13.5z"/>
<path d="M4.5,1.3c0,0.3,0.2,0.5,0.5,0.5h1c0,0,0,0.1,0,0.1l0.7,2.9h1L7,1.8h4l-0.8,3h1L12,1.9c0,0,0-0.1,0-0.1h1
	c0.3,0,0.5-0.2,0.5-0.5S13.3,0.8,13,0.8H5C4.7,0.8,4.5,1,4.5,1.3z"/>
<path d="M0.5,28.3c0.1,0,0.2,0,0.3-0.1l6-4C6.9,24.1,7,24,7,23.8H5.6l-5.4,3.6c-0.2,0.2-0.3,0.5-0.1,0.7C0.2,28.2,0.3,28.3,0.5,28.3
	L0.5,28.3z"/>
<path d="M8.5,28.3c0.2,0,0.3-0.1,0.4-0.2l3-4C12,24,12,23.9,12,23.8h-1.1l-2.8,3.7C7.9,27.7,8,28,8.2,28.2
	C8.3,28.3,8.4,28.3,8.5,28.3z"/>
<circle cx="46" cy="18.3" r="1"/>
<circle cx="52" cy="18.3" r="1"/>
<path d="M54.5,5.8h-11c-1.1,0-2,0.9-2,2v12c0,1.1,0.9,2,2,2h11c1.1,0,2-0.9,2-2v-12C56.5,6.7,55.6,5.8,54.5,5.8L54.5,5.8z M53.5,6.8
	v8h-9v-8L53.5,6.8z M55.5,19.8c0,0.6-0.4,1-1,1h-11c-0.6,0-1-0.4-1-1v-12c0-0.6,0.4-1,1-1v8c0,0.6,0.4,1,1,1h9c0.6,0,1-0.4,1-1v-8
	c0.6,0,1,0.4,1,1V19.8z"/>
<path d="M40,8.8c-0.3,0-0.5,0.2-0.5,0.5v2.5c0,0.3,0.2,0.5,0.5,0.5s0.5-0.2,0.5-0.5V9.3C40.5,9,40.3,8.8,40,8.8z"/>
<path d="M43.5,24.1c0,0.4,0.3,0.8,0.8,0.8h0.5c0.4,0,0.8-0.3,0.8-0.8v-1.2h-2V24.1z"/>
<path d="M53.2,24.8h0.5c0.4,0,0.8-0.3,0.8-0.8v-1.2h-2v1.2C52.5,24.5,52.8,24.8,53.2,24.8z"/>
<circle cx="24.5" cy="18.3" r="1.4"/>
<circle cx="31.6" cy="18.3" r="1.4"/>
<path d="M28.1,0c-3.4,0-6.8,1-9.6,3v18c5.7,3.9,13.3,3.9,19,0V2.9C34.7,1,31.4,0,28.1,0z M34.3,2.2l-1.6,10.6c-3,0.9-6.2,0.9-9.2,0
	L21.9,2.3C25.8,0.6,30.3,0.6,34.3,2.2z M36.5,20.5c-5.2,3.3-11.8,3.3-17,0V3.5c0.5-0.3,1-0.6,1.4-0.8l1.6,10.9l0.3,0.1
	c1.7,0.6,3.4,0.9,5.2,0.9c1.8,0,3.5-0.3,5.2-0.9l0.3-0.1l1.6-10.9c0.4,0.2,0.9,0.5,1.3,0.7L36.5,20.5L36.5,20.5z"/>
<path d="M33.5,26.8h-1.1c0,0.1,0,0.1,0,0.2l1.4,2.8H22.2l1.4-2.8c0-0.1,0-0.1,0-0.2h-1.1l-2.7,5.4c-0.1,0.2,0,0.5,0.2,0.7
	c0.2,0.1,0.5,0,0.7-0.2l0.9-1.8h12.7l0.9,1.8c0.1,0.2,0.4,0.3,0.7,0.2s0.3-0.4,0.2-0.7L33.5,26.8z"/>
</svg>
