<svg xmlns="http://www.w3.org/2000/svg" width="13" height="23.5" viewBox="0 0 13 23.5"><title>train--small</title><path d="M4,12a1,1,0,1,0,1,1A1,1,0,0,0,4,12Zm5,0a1,1,0,1,0,1,1A1,1,0,0,0,9,12ZM6.5,0A11.934,11.934,0,0,0,0,1.922V15.078a11.952,11.952,0,0,0,13,0V1.922A11.934,11.934,0,0,0,6.5,0Zm0,1a10.864,10.864,0,0,1,4.205.847L9.639,9.027a10.692,10.692,0,0,1-6.277,0L2.3,1.847A10.864,10.864,0,0,1,6.5,1ZM12,14.5a10.846,10.846,0,0,1-11,0V2.5c.116-.068.232-.137.35-.2L2.462,9.782l.289.1A11.635,11.635,0,0,0,6.5,10.5a11.64,11.64,0,0,0,3.749-.619l.289-.1L11.65,2.3c.119.064.234.133.35.2ZM10.559,19H9.505a.5.5,0,0,0,.048.224L10.441,21H2.56l.888-1.776A.492.492,0,0,0,3.5,19H2.442L.553,22.776a.5.5,0,0,0,.224.671A.491.491,0,0,0,1,23.5a.5.5,0,0,0,.448-.276L2.06,22h8.881l.612,1.224a.5.5,0,0,0,.894-.448Z"/></svg>