<svg xmlns="http://www.w3.org/2000/svg" width="20" height="35.15" viewBox="0 0 20 35.15"><title>train--medium</title><path d="M10,25.784a16.81,16.81,0,0,1-7.709-1.87A17.35,17.35,0,0,1,.208,22.658L0,22.508V3.347L.209,3.2a16.894,16.894,0,0,1,19.576-.144L20,3.2V22.516l-.212.149a17.414,17.414,0,0,1-2.071,1.248A16.93,16.93,0,0,1,10,25.784Zm-9-3.8a16.516,16.516,0,0,0,1.751,1.037,15.856,15.856,0,0,0,14.509,0A16.66,16.66,0,0,0,19,21.995V3.728A15.889,15.889,0,0,0,1,3.863Z"/><path d="M7.011,15.1a16.59,16.59,0,0,1-2.24-.557l-.294-.1L2.7,2.087l.99-.143L5.377,13.688a15.859,15.859,0,0,0,1.812.43Z"/><path d="M10,15.372A16.771,16.771,0,0,1,7.013,15.1l.178-.984a15.706,15.706,0,0,0,5.621,0,15.934,15.934,0,0,0,1.811-.43L16.31,1.928l.99.143L15.52,14.45l-.294.1a16.6,16.6,0,0,1-2.239.557A16.8,16.8,0,0,1,10,15.372Z"/><path d="M6.289,17.843a1.535,1.535,0,0,0,0,3.069,1.442,1.442,0,0,0,.937-.353,1.548,1.548,0,0,0,0-2.362A1.442,1.442,0,0,0,6.289,17.843Z"/><path d="M13.71,17.843a1.441,1.441,0,0,0-.937.353,1.548,1.548,0,0,0,0,2.362,1.442,1.442,0,0,0,.937.353,1.535,1.535,0,0,0,0-3.069Z"/><path d="M17.924,35.15a.5.5,0,0,1-.456-.293L14.9,29.188a.5.5,0,0,1,.91-.413l2.573,5.668a.5.5,0,0,1-.249.662h0A.491.491,0,0,1,17.924,35.15Z"/><path d="M2.076,35.15A.492.492,0,0,1,1.87,35.1a.5.5,0,0,1-.249-.662h0l2.573-5.668a.5.5,0,0,1,.91.413L2.531,34.856A.5.5,0,0,1,2.076,35.15Z"/><rect x="3.009" y="31.996" width="13.981" height="1"/></svg>