<svg xmlns="http://www.w3.org/2000/svg" width="11" height="27.5" viewBox="0 0 11 27.5"><title>tram--small</title><circle cx="3" cy="17.25" r="0.75"/><circle cx="8" cy="17.25" r="0.75"/><path d="M9,7a1,1,0,0,1,1,1V19a1,1,0,0,1-1,1H2a1,1,0,0,1-1-1V8A1,1,0,0,1,2,7H9M9,6H2A2,2,0,0,0,0,8V19a2,2,0,0,0,2,2H9a2,2,0,0,0,2-2V8A2,2,0,0,0,9,6Z"/><path d="M10,10v4H1V10h9m1-1H0v6H11V9Z"/><rect x="2" y="10" width="1" height="4"/><rect x="8" y="10" width="1" height="4"/><path d="M1,.5a.5.5,0,0,0,.5.5H2.509a.449.449,0,0,0,.006.121L3.235,4h1.03l-.75-3h3.97l-.75,3h1.03l.72-2.879A.494.494,0,0,0,8.491,1H9.5a.5.5,0,0,0,0-1h-8A.5.5,0,0,0,1,.5Z"/><path d="M10.447,26.776,8.559,23H7.5a.5.5,0,0,0,.048.224l2,4a.5.5,0,0,0,.894-.448Zm-9.894,0a.5.5,0,0,0,.224.671A.491.491,0,0,0,1,27.5a.5.5,0,0,0,.448-.276l2-4A.492.492,0,0,0,3.5,23H2.442Z"/></svg>