<svg xmlns="http://www.w3.org/2000/svg" width="22.873" height="18.353" viewBox="0 0 22.873 18.353"><title>twitter--small</title><path d="M21.3,2.35q-.277.123-.563.225A4.787,4.787,0,0,0,21.4,1.254L21.8,0,20.663.672a8.1,8.1,0,0,1-2.35.931A4.788,4.788,0,0,0,10.229,5.1c0,.146.006.291.019.435a11.776,11.776,0,0,1-7.9-4.271h0a.49.49,0,0,0-.133-.119.5.5,0,0,0-.684.18A4.817,4.817,0,0,0,1.679,6.4l-.093-.05L.843,5.993v.85a4.823,4.823,0,0,0,1.8,3.749l-.521-.1.257.8a4.8,4.8,0,0,0,3.172,3.13,8.282,8.282,0,0,1-4.992,1,.5.5,0,0,0-.326.913l0,0,.022.013h0a12.718,12.718,0,0,0,6.851,2A12.635,12.635,0,0,0,19.862,5.595c0-.113,0-.224-.008-.337a9.19,9.19,0,0,0,2.06-2.173l.959-1.434ZM19.057,4.632a.49.49,0,0,0-.2.427H18.85c.008.178.012.355.012.535A11.644,11.644,0,0,1,7.1,17.352a11.712,11.712,0,0,1-4.575-.935,9.059,9.059,0,0,0,4.657-1.891l1.107-.867-1.406-.026a3.808,3.808,0,0,1-3.236-1.915A4.486,4.486,0,0,0,4.93,11.55l2.045-.555L4.9,10.578A3.815,3.815,0,0,1,1.922,7.586a4.829,4.829,0,0,0,1.358.242l1.745.054-1.452-.97A3.779,3.779,0,0,1,2.1,2.475a12.762,12.762,0,0,0,8.714,4.1h.025a.5.5,0,0,0,.487-.614,3.811,3.811,0,0,1,6.49-3.474l.006-.006a.486.486,0,0,0,.455.154,9.189,9.189,0,0,0,1.465-.418,3.817,3.817,0,0,1-.977.836l.316.925a9.4,9.4,0,0,0,.932-.16A8.168,8.168,0,0,1,19.057,4.632Z"/></svg>