<svg xmlns="http://www.w3.org/2000/svg" width="38.481" height="29.52" viewBox="0 0 38.481 29.52"><title>twitter--large</title><g id="Layer_2" data-name="Layer 2"><g id="Layer_1-2" data-name="Layer 1"><path d="M13.113,29.52a20.844,20.844,0,0,1-11.278-3.3L0,25.037l2.165.261a13.983,13.983,0,0,0,1.653.1,13.809,13.809,0,0,0,7.56-2.219,7.678,7.678,0,0,1-5.827-5.189l-.256-.8.824.155a7.175,7.175,0,0,0,.974.112,7.71,7.71,0,0,1-4.081-6.787V9.818l.743.325a6.631,6.631,0,0,0,1.344.562A7.684,7.684,0,0,1,4.11,1.637l.365-.621.455.558a19.962,19.962,0,0,0,13.8,7.277,7.965,7.965,0,0,1-.076-1.1A7.685,7.685,0,0,1,31.746,2.3,13.852,13.852,0,0,0,35.884.671L37.016,0l-.4,1.253A7.636,7.636,0,0,1,34.862,4.2,13.734,13.734,0,0,0,36.9,3.485l1.578-.7-.96,1.435a15.057,15.057,0,0,1-3.488,3.684c.007.228.01.455.01.684a21.641,21.641,0,0,1-5.387,14.1A20.057,20.057,0,0,1,13.113,29.52ZM4.157,26.391a19.851,19.851,0,0,0,8.956,2.129c9.8,0,19.93-7.456,19.93-19.931,0-.3-.005-.606-.019-.905l-.013-.271.219-.158a14.04,14.04,0,0,0,2.436-2.241,14.87,14.87,0,0,1-2.625.554l-2.322.277,2.006-1.2a6.7,6.7,0,0,0,2.383-2.433,14.768,14.768,0,0,1-3.432,1.121l-.272.054-.189-.2A6.688,6.688,0,0,0,19.83,9.278l.15.648-.663-.034A20.957,20.957,0,0,1,4.644,2.784a6.687,6.687,0,0,0,2.4,8.276l1.454.97-1.747-.054A7.708,7.708,0,0,1,4.06,11.4,6.7,6.7,0,0,0,9.369,17.22l2.058.414L9.4,18.192a7.608,7.608,0,0,1-2.605.247,6.68,6.68,0,0,0,5.947,3.881l1.406.026-1.106.868A14.806,14.806,0,0,1,4.157,26.391Z"/></g></g></svg>