<svg xmlns="http://www.w3.org/2000/svg" width="32" height="34" viewBox="0 0 32 34"><title>user--large</title><g id="Layer_2" data-name="Layer 2"><g id="Layer_1-2" data-name="Layer 1"><path d="M32,34H0V27.544c0-2.7.849-8.983,8.706-8.983a.5.5,0,0,1,0,1C2,19.561,1,24.562,1,27.544V33H31V27.544c0-2.982-1-7.983-7.706-7.983a.5.5,0,0,1,0-1c7.857,0,8.706,6.282,8.706,8.983Z"/><path d="M16,16.735c-3.669,0-6.654-3.754-6.654-8.368S12.331,0,16,0s6.654,3.754,6.654,8.367S19.669,16.735,16,16.735ZM16,1c-3.118,0-5.654,3.305-5.654,7.367S12.882,15.735,16,15.735s5.654-3.3,5.654-7.368S19.118,1,16,1Z"/></g></g></svg>