<svg xmlns="http://www.w3.org/2000/svg" width="17" height="19" viewBox="0 0 17 19"><title>user--small</title><path d="M8.5,10a4.269,4.269,0,0,1-4-4.5v-1A4.269,4.269,0,0,1,8.5,0a4.269,4.269,0,0,1,4,4.5v1A4.269,4.269,0,0,1,8.5,10Zm0-9a3.271,3.271,0,0,0-3,3.5v1A3.271,3.271,0,0,0,8.5,9a3.271,3.271,0,0,0,3-3.5v-1A3.271,3.271,0,0,0,8.5,1Z"/><path d="M9,19H0V16c0-2.4,2-5.2,4.5-5.2a.5.5,0,1,1,0,1C2.6,11.8,1,14.1,1,16v2H9a.5.5,0,1,1,0,1Z"/><path d="M17,19H8a.5.5,0,1,1,0-1h8V16c0-1.9-1.6-4.2-3.5-4.2a.5.5,0,0,1,0-1C15,10.8,17,13.6,17,16Z"/></svg>