<svg xmlns="http://www.w3.org/2000/svg" width="17.45" height="13.082" viewBox="0 0 17.45 13.082"><title>volume-mute--small</title><polygon points="3.5 9.082 0 9.082 0 4.082 3.5 4.082 3.5 5.082 1 5.082 1 8.082 3.5 8.082 3.5 9.082"/><path d="M8.5.082c-.2-.1-.6-.2-1.1.3l-5.1,4.7H3.8L8,1.182v10.7l-4.2-3.8H2.3l5.1,4.7a.939.939,0,0,0,.7.3.367.367,0,0,0,.3-.1c.2-.1.5-.3.5-1V1.082A.934.934,0,0,0,8.5.082Z"/><path d="M17,9.582a.6.6,0,0,1-.4-.1l-5-5a.495.495,0,1,1,.7-.7l5,5a.483.483,0,0,1,0,.7C17.3,9.582,17.1,9.582,17,9.582Z"/><path d="M12,9.582a.6.6,0,0,1-.4-.1.483.483,0,0,1,0-.7l5-5a.495.495,0,0,1,.7.7l-5,5C12.3,9.582,12.1,9.582,12,9.582Z"/></svg>