<svg xmlns="http://www.w3.org/2000/svg" width="21" height="15.8" viewBox="0 0 21 15.8"><title>volume-level3--small</title><polygon points="3.5 10.4 0 10.4 0 5.4 3.5 5.4 3.5 6.4 1 6.4 1 9.4 3.5 9.4 3.5 10.4"/><path d="M17.1,0l-.8.6a8.912,8.912,0,0,1,0,14.6l.8.6A9.852,9.852,0,0,0,21,7.9,10.146,10.146,0,0,0,17.1,0ZM14.2,2.2l-.9.7a5.506,5.506,0,0,1,0,10l.9.7a6.4,6.4,0,0,0,3.3-5.7A6.516,6.516,0,0,0,14.2,2.2ZM11.5,5V6a1.953,1.953,0,0,1,0,3.8v1A3,3,0,0,0,14,7.9,3,3,0,0,0,11.5,5Z"/><path d="M8.5,1.4c-.2-.1-.6-.2-1.1.3L2.3,6.4H3.8L8,2.5V13.2L3.8,9.4H2.3l5.1,4.7a.939.939,0,0,0,.7.3.367.367,0,0,0,.3-.1c.2-.1.5-.3.5-1V2.4A.934.934,0,0,0,8.5,1.4Z"/></svg>