<?xml version="1.0" encoding="utf-8"?>
<!-- Generator: Adobe Illustrator 23.0.1, SVG Export Plug-In . SVG Version: 6.00 Build 0)  -->
<svg version="1.1" id="Layer_1" xmlns="http://www.w3.org/2000/svg" xmlns:xlink="http://www.w3.org/1999/xlink" x="0px" y="0px"
	 viewBox="0 0 45.4 45.9" style="enable-background:new 0 0 45.4 45.9;" xml:space="preserve">
<title>voordeeluren--large</title>
<path d="M37.9,22.1c-0.4,0.1-0.8,0.2-1.2,0.2l7,7c0.4,0.4,0.4,1.1,0.4,2v14.1c0,0.3,0.2,0.5,0.5,0.5s0.5-0.2,0.5-0.5V31.3
	c0-1.1,0-2.1-0.6-2.7L37.9,22.1z"/>
<path d="M2,10.4c-1.1,0-2,0.9-2,2v19c0,1.1,0.9,2,2,2h0h20.9c0.5,2.6,1.1,5.2,1.2,5.4c0.2,0.7,0.5,1.4,1.1,1.9l5,5l0.7-0.7
	c-2.3-2.3-5-5-5-5c-0.4-0.4-0.7-0.9-0.8-1.5c-0.1-0.4-1.8-8.6-2.4-11.7c-0.2-1.1,0.5-2.2,1.6-2.5c1.2-0.4,2.5,0.4,2.8,1.6
	c0,0,0,0,0,0l2.5,7c0.1,0.2,0.3,0.3,0.5,0.3v0h3c1.1,0,2-0.9,2-2v-9c-0.3,0-0.7,0-1,0v9c0,0.6-0.4,1-1,1c0,0,0,0,0,0h-2.6L28,25.7
	c-0.5-1.7-2.3-2.7-4-2.3c-1.7,0.4-2.7,2-2.4,3.6c0,0.2,0.6,2.7,1.1,5.3H2c-0.6,0-1-0.4-1-1v-19c0-0.6,0.4-1,1-1h21c0-0.3,0-0.7,0-1
	L2,10.4z"/>
<path d="M14,26.4v-11H5v11H14z M6,16.4h7v9H6V16.4z"/>
<path d="M18,17.4v1h8.1c-0.3-0.3-0.6-0.7-0.8-1H18z"/>
<path d="M20,21.4h10.2c-0.6-0.3-1.3-0.6-1.8-1H20V21.4z"/>
<path d="M27.7,4.2L26,5.2l0.1,1.9l-1.3,1.4l0.7,1.8l-0.7,1.8l1.3,1.4L26,15.5l1.7,0.9l0.6,1.8l1.9,0.3l1.2,1.5l1.9-0.4l1.7,1l1.7-1
	l1.9,0.4l1.2-1.5l1.9-0.3l0.6-1.8l1.7-0.9l-0.1-1.9l1.3-1.4l-0.7-1.8l0.7-1.8l-1.3-1.4l0.1-1.9l-1.7-0.9l-0.6-1.8l-1.9-0.3l-1.2-1.5
	L36.7,1l-1.7-1l-1.7,1l-1.9-0.4l-1.2,1.5l-1.9,0.3L27.7,4.2z M29.1,3.3l1.7-0.3l1.1-1.3l1.7,0.3l1.5-0.9l1.5,0.9l1.7-0.3l1.1,1.3
	L41,3.3l0.5,1.6l1.5,0.8l0,1.7l1.1,1.3l-0.6,1.6l0.6,1.6l-1.1,1.3l0,1.7l-1.5,0.8L41,17.3l-1.7,0.3l-1.1,1.3l-1.7-0.3l-1.5,0.9
	l-1.5-0.9l-1.7,0.3l-1.1-1.3l-1.7-0.3l-0.5-1.6L27,14.9l0-1.7l-1.1-1.3l0.6-1.6l-0.6-1.6l1.1-1.3l0-1.7l1.5-0.8L29.1,3.3z"/>
<path d="M32.4,9.2c0.8,0,1.4-0.6,1.4-1.4s-0.6-1.4-1.4-1.4c-0.8,0-1.4,0.6-1.4,1.4C30.9,8.6,31.6,9.2,32.4,9.2z M32.4,6.9
	c0.5,0,0.9,0.4,0.9,0.9s-0.4,0.9-0.9,0.9s-0.9-0.4-0.9-0.9l0,0C31.4,7.3,31.8,6.9,32.4,6.9z"/>
<path d="M37.5,11.6c-0.8,0-1.4,0.6-1.4,1.4c0,0.8,0.6,1.4,1.4,1.4c0.8,0,1.4-0.6,1.4-1.4v0C38.9,12.2,38.3,11.6,37.5,11.6z
	 M37.5,13.9c-0.5,0-0.9-0.4-0.9-0.9s0.4-0.9,0.9-0.9s0.9,0.4,0.9,0.9v0C38.5,13.5,38.1,13.9,37.5,13.9z"/>
<path d="M31.2,13.8c-0.1,0.1-0.1,0.2,0,0.3s0.2,0.1,0.3,0L38.6,7c0.1-0.1,0.1-0.2,0-0.3s-0.2-0.1-0.3,0L31.2,13.8z"/>
</svg>
