<svg xmlns="http://www.w3.org/2000/svg" width="38" height="38" viewBox="0 0 38 38"><title>voucher--medium</title><path d="M23.524,1.414l3.38,3.38a4.6,4.6,0,0,0,3.933,6.978,4.449,4.449,0,0,0,2.37-.674l3.379,3.379-22.11,22.11L11.1,33.206a4.6,4.6,0,0,0-3.933-6.978A4.449,4.449,0,0,0,4.8,26.9L1.414,23.524l22.11-22.11m0-1.414L0,23.524l4.713,4.713a3.448,3.448,0,0,1,2.45-1.009A3.6,3.6,0,0,1,9.71,28.29a3.534,3.534,0,0,1,.055,5l0,0L14.476,38,38,14.476,33.287,9.763a3.448,3.448,0,0,1-2.45,1.009A3.6,3.6,0,0,1,28.29,9.71a3.534,3.534,0,0,1-.055-5l0,0Z"/><circle cx="21.252" cy="8.646" r="0.736" transform="translate(0.111 17.561) rotate(-45.002)"/><circle cx="23.278" cy="10.67" r="0.736" transform="translate(-0.728 19.584) rotate(-44.997)"/><circle cx="25.304" cy="12.697" r="0.736" transform="translate(-1.567 21.61) rotate(-44.997)"/><circle cx="27.329" cy="14.722" r="0.736" transform="translate(-2.405 23.636) rotate(-44.999)"/><circle cx="29.355" cy="16.748" r="0.736" transform="translate(-3.245 25.662) rotate(-45)"/><rect x="9.45" y="18.327" width="11.516" height="1" transform="translate(-8.858 16.268) rotate(-45)"/><rect x="11.613" y="20.491" width="11.516" height="1" transform="translate(-9.755 18.431) rotate(-45)"/><rect x="14.756" y="24.826" width="5.758" height="1" transform="translate(-12.743 19.887) rotate(-44.999)"/></svg>