<svg xmlns="http://www.w3.org/2000/svg" width="26" height="26" viewBox="0 0 26 26"><title>voucher--small</title><path d="M16.1,1.414l1.919,1.919A3.467,3.467,0,0,0,21.1,8.37a3.369,3.369,0,0,0,1.569-.383L24.586,9.9,9.9,24.586,7.981,22.667A3.467,3.467,0,0,0,4.9,17.63a3.367,3.367,0,0,0-1.569.383L1.414,16.1,16.1,1.414M16.1,0,0,16.1l3.225,3.22A2.359,2.359,0,0,1,4.9,18.63a2.461,2.461,0,0,1,1.743.726,2.418,2.418,0,0,1,.036,3.419L9.9,26,26,9.9,22.775,6.68a2.359,2.359,0,0,1-1.676.69,2.461,2.461,0,0,1-1.743-.726,2.418,2.418,0,0,1-.036-3.419Z"/><circle cx="14.805" cy="7.565" r="0.636" transform="translate(-1.013 12.685) rotate(-45)"/><circle cx="16.669" cy="9.429" r="0.636" transform="translate(-1.785 14.548) rotate(-44.997)"/><circle cx="18.533" cy="11.292" r="0.636" transform="translate(-2.557 16.411) rotate(-44.997)"/><rect x="6.089" y="12.305" width="7.781" height="1" transform="translate(-6.132 10.807) rotate(-45)"/><rect x="7.765" y="13.98" width="7.781" height="1" transform="translate(-6.825 12.483) rotate(-45)"/><rect x="10.009" y="17.032" width="3.89" height="1" transform="translate(-8.895 13.588) rotate(-45)"/></svg>