<svg xmlns="http://www.w3.org/2000/svg" width="13.349" height="23.537" viewBox="0 0 13.349 23.537"><title>walk--small</title><path d="M10.6,5.5a2.833,2.833,0,0,1-.465-.039A2.75,2.75,0,1,1,10.6,5.5Zm0-4.5a1.748,1.748,0,1,0,.3.025A1.78,1.78,0,0,0,10.6,1Z"/><path d="M2.972,11.212a.49.49,0,0,1-.49-.49A4.494,4.494,0,0,1,5.224,6.585a4.524,4.524,0,0,1,3.5,0,.49.49,0,0,1-.381.9A3.509,3.509,0,0,0,4.49,8.24a3.5,3.5,0,0,0-1.028,2.482A.491.491,0,0,1,2.972,11.212Z"/><path d="M.5,23.251a.5.5,0,0,0,.429-.243L4.7,16.726l-.561-1.009L.071,22.493a.5.5,0,0,0,.429.758Z"/><path d="M11.1,11.758a3.479,3.479,0,0,1-2.656-1.247l-.543.9a4.483,4.483,0,0,0,3.2,1.342.5.5,0,0,0,0-1Z"/><path d="M10.815,23.537a.5.5,0,0,1-.438-.257L4.663,12.994a.5.5,0,0,1,.008-.5L8.1,6.78a.5.5,0,0,1,.857.515l-3.28,5.467,5.574,10.033a.5.5,0,0,1-.436.742Z"/></svg>