<svg xmlns="http://www.w3.org/2000/svg" width="38" height="37.244" viewBox="0 0 38 37.244"><title>whatsapp--large</title><g id="Layer_2" data-name="Layer 2"><g id="Layer_1-2" data-name="Layer 1"><path d="M19.378,1a17.622,17.622,0,1,1-9.326,32.576l-.381-.238-.432.126L1.477,35.747l2.394-8.14.114-.39-.19-.36A17.627,17.627,0,0,1,19.378,1m0-1A18.628,18.628,0,0,0,2.911,27.325L0,37.224l9.521-2.8A18.623,18.623,0,1,0,19.378,0Z"/><path d="M24.805,28.032a5.209,5.209,0,0,1-.906-.083c-4.111-.729-7.933-4.732-8.223-5.041-.311-.292-4.313-4.113-5.041-8.223-.588-3.315,2.1-4.961,3.786-5.41a1.773,1.773,0,0,1,1.743.471,14.29,14.29,0,0,1,1.8,4.208,1.836,1.836,0,0,1-.809,1.631l-.87.685c-.228.184-.162.3-.133.351a15.593,15.593,0,0,0,2.565,3.244,15.593,15.593,0,0,0,3.244,2.565c.051.029.168.1.354-.136L23,21.425a1.814,1.814,0,0,1,1.628-.808,14.328,14.328,0,0,1,4.209,1.8,1.77,1.77,0,0,1,.47,1.744C28.9,25.684,27.52,28.031,24.805,28.032ZM14.9,10.213a.815.815,0,0,0-.217.029c-.373.1-3.627,1.064-3.06,4.269.683,3.853,4.71,7.639,4.751,7.677l.026.026c.038.041,3.824,4.067,7.677,4.75,3.207.566,4.169-2.686,4.268-3.059a.781.781,0,0,0-.2-.771,15.755,15.755,0,0,0-3.572-1.519.861.861,0,0,0-.779.428l-.689.874a1.24,1.24,0,0,1-1.63.382,16.546,16.546,0,0,1-3.457-2.727,16.6,16.6,0,0,1-2.728-3.457,1.24,1.24,0,0,1,.381-1.627l.874-.691a.847.847,0,0,0,.429-.781,15.624,15.624,0,0,0-1.523-3.577A.769.769,0,0,0,14.9,10.213Z"/></g></g></svg>