<svg xmlns="http://www.w3.org/2000/svg" width="16.863" height="19.58" viewBox="0 0 16.863 19.58"><title>wheelchair--small</title><path d="M16.6,16.176l-2.777.765-2.333-6.215H6.005l-.1-1.87H9.582v-1H5.845l-.163-2.6a2.669,2.669,0,1,0-1,.007l.378,6.465H10.8l2.41,6.422,3.657-1.008ZM3.5,2.654A1.654,1.654,0,1,1,5.149,4.308,1.656,1.656,0,0,1,3.5,2.654Z"/><path d="M10.465,15.249A4.85,4.85,0,1,1,3.471,9.525l-.063-1.1A5.846,5.846,0,0,0,5.845,19.58c.167,0,.335-.007.5-.022a5.834,5.834,0,0,0,4.607-2.983Z"/></svg>