<svg xmlns="http://www.w3.org/2000/svg" width="55.943" height="25.863" viewBox="0 0 55.943 25.863"><title>zonetaxi--large</title><polygon points="6.677 16.517 0 16.517 0 14.866 4.576 8.539 0.121 8.539 0.121 6.982 6.512 6.982 6.512 8.625 2.054 14.973 6.677 14.973 6.677 16.517"/><path d="M29.529,12.295q-.1-1.758-1.481-1.756a1.435,1.435,0,0,0-1.361.844,3.071,3.071,0,0,0-.259.912Zm1.748.438c0,.252-.013.531-.04.832H26.456a1.886,1.886,0,0,0,2.127,1.768,3.3,3.3,0,0,0,.894-.12,6.118,6.118,0,0,0,1.3-.6L30.8,16.2a6.253,6.253,0,0,1-2.442.5,3.687,3.687,0,0,1-2.731-.98,3.713,3.713,0,0,1-.978-2.744,3.881,3.881,0,0,1,.928-2.727,3.207,3.207,0,0,1,2.493-1.015,3.023,3.023,0,0,1,2.343.941,3.631,3.631,0,0,1,.86,2.549"/><path d="M42.755,13.292l-.234-.007c-.1-.008-.232-.014-.387-.014q-2.173,0-2.174,1.192a.845.845,0,0,0,.3.672,1.184,1.184,0,0,0,.792.25,1.566,1.566,0,0,0,1.525-.983,3.144,3.144,0,0,0,.181-1.11m1.707,3.225H42.835l-.04-1.064a2.34,2.34,0,0,1-2.242,1.17,2.535,2.535,0,0,1-1.768-.595,2.071,2.071,0,0,1-.653-1.607q0-2.293,3.435-2.293c.239,0,.55.011.927.033h.227a1.71,1.71,0,0,0-.383-1.189,1.61,1.61,0,0,0-1.164-.354,3.631,3.631,0,0,0-1.18.206,4.2,4.2,0,0,0-1.054.559L38.9,9.8a7.746,7.746,0,0,1,1.187-.365,6.322,6.322,0,0,1,1.24-.121,3.1,3.1,0,0,1,2.588.983,2.164,2.164,0,0,1,.413,1.077,13.372,13.372,0,0,1,.06,1.543v1.025q0,.636.026,1.349Z"/><polygon points="52.943 16.517 50.743 16.517 49.147 13.877 47.562 16.517 45.526 16.517 47.98 12.839 45.746 9.437 47.914 9.437 49.362 11.775 50.743 9.437 52.683 9.437 50.536 12.839 52.943 16.517"/><path d="M55.9,16.517H54.069V9.437H55.9Zm.047-8.358h-1.9V6.422h1.9Z"/><path d="M36.953,15.006a2.01,2.01,0,0,1-.57.094,1,1,0,0,1-.892-.369,2.444,2.444,0,0,1-.252-1.306V10.852h1.64V9.489h-1.64V7.447l-1.827.612v1.43h-.624a13.52,13.52,0,0,1,.29,1.363h.334V13.8a3.208,3.208,0,0,0,.56,2.128,2.378,2.378,0,0,0,1.868.637,5.481,5.481,0,0,0,1.194-.146Z"/><path d="M23.16,12.529c0-.188,0-.368-.012-.536a7.543,7.543,0,0,0-.426-1.732,1.9,1.9,0,0,0-.4-.426,2.515,2.515,0,0,0-1.641-.5,2.938,2.938,0,0,0-1.188.225,3.672,3.672,0,0,0-1.12.885H18.35l-.039-1.009H16.563q.066,1.063.066,1.865v5.215h1.848V13.156a3.855,3.855,0,0,1,.147-1.21,2.173,2.173,0,0,1,.148-.332,1.407,1.407,0,0,1,1.293-.771,1.088,1.088,0,0,1,1.167.979,5.737,5.737,0,0,1,.1,1.141v3.554h.977a7.583,7.583,0,0,0,.852-2.736V12.529Z"/><path d="M15.563,4.3a8.631,8.631,0,1,0,8.657,8.633A8.653,8.653,0,0,0,15.563,4.3Zm5.682,14.293a7.982,7.982,0,1,1,2.355-5.66A8.026,8.026,0,0,1,21.245,18.593Z"/><path d="M19.877,0A12.932,12.932,0,1,0,32.848,12.934,12.964,12.964,0,0,0,19.877,0Zm8.73,21.632a12.261,12.261,0,1,1,3.622-8.7A12.331,12.331,0,0,1,28.607,21.632Z"/><path d="M11.25,8.491a4.3,4.3,0,1,0,4.314,4.3,4.309,4.309,0,0,0-4.314-4.3m0,1.4a2.9,2.9,0,1,1-2.909,2.9,2.907,2.907,0,0,1,2.909-2.9"/></svg>