<?xml version="1.0" encoding="utf-8"?>
<!-- Generator: Adobe Illustrator 18.0.0, SVG Export Plug-In . SVG Version: 6.00 Build 0)  -->
<!DOCTYPE svg PUBLIC "-//W3C//DTD SVG 1.1//EN" "http://www.w3.org/Graphics/SVG/1.1/DTD/svg11.dtd">
<svg version="1.1" id="Layer_1" xmlns="http://www.w3.org/2000/svg" xmlns:xlink="http://www.w3.org/1999/xlink" x="0px" y="0px"
	 width="35px" height="35px" viewBox="0 0 35 35" enable-background="new 0 0 35 35" xml:space="preserve">
<path d="M20,7L20,7l-1,0l0,0h-9v21h15V12L20,7z M23.6,12H20V8.4L23.6,12z M24,27H11V8h8v5h5V27z"/>
<g>
	<path d="M20.5,22.7c-0.5,0.3-1.2,0.5-1.9,0.5c-1.5,0-2.9-0.9-3.4-2.2h3.3l0.5-1h-4.1c0-0.2-0.1-0.3-0.1-0.5s0-0.3,0.1-0.5h4.6
		l0.5-1h-4.8c0.6-1.3,1.9-2.2,3.4-2.2c0.8,0,1.6,0.3,2.2,0.7l0.4-0.7c-0.7-0.5-1.6-0.8-2.6-0.8c-2,0-3.7,1.3-4.3,3h-1.5l-0.4,1h1.6
		c0,0.2-0.1,0.3-0.1,0.5s0,0.3,0.1,0.5h-1.2l-0.4,1h1.9c0.6,1.8,2.3,3,4.3,3c0.7,0,1.3-0.1,1.9-0.4V22.7z"/>
</g>
</svg>
