<?xml version="1.0" encoding="utf-8"?>
<!-- Generator: Adobe Illustrator 18.0.0, SVG Export Plug-In . SVG Version: 6.00 Build 0)  -->
<!DOCTYPE svg PUBLIC "-//W3C//DTD SVG 1.1//EN" "http://www.w3.org/Graphics/SVG/1.1/DTD/svg11.dtd">
<svg version="1.1" id="Layer_1" xmlns="http://www.w3.org/2000/svg" xmlns:xlink="http://www.w3.org/1999/xlink" x="0px" y="0px"
	 width="35px" height="35px" viewBox="0 0 35 35" enable-background="new 0 0 35 35" xml:space="preserve">
<g>
	<path d="M11,20.84h2.5c0,1.654,1.346,3,3,3s3-1.346,3-3H22c0.401,0,0.778-0.156,1.06-0.439c0.284-0.283,0.44-0.66,0.439-1.091
		l-0.031-0.515l-0.205-0.138c-1.104-0.747-1.764-1.986-1.764-3.317v-1.5c0-2.045-1.237-3.802-3-4.576V8.34c0-1.103-0.897-2-2-2
		s-2,0.897-2,2v0.924c-1.763,0.774-3,2.531-3,4.576v1.5c0,1.331-0.659,2.571-1.764,3.317l-0.205,0.138L9.5,19.34
		c0,0.401,0.156,0.778,0.439,1.06C10.222,20.684,10.599,20.84,11,20.84z M16.5,22.84c-1.103,0-2-0.897-2-2h4
		C18.5,21.943,17.603,22.84,16.5,22.84z M15.5,8.34c0-0.551,0.449-1,1-1s1,0.449,1,1v0.601c-0.323-0.066-0.658-0.101-1-0.101
		s-0.677,0.035-1,0.101V8.34z M12.5,15.34v-1.5c0-2.206,1.794-4,4-4s4,1.794,4,4v1.5c0,0.168,0.013,0.335,0.029,0.5h-8.059
		C12.487,15.675,12.5,15.508,12.5,15.34z M10.501,19.34c0.845-0.635,1.451-1.513,1.761-2.5h8.476c0.311,0.987,0.916,1.866,1.762,2.5
		c0,0.133-0.052,0.259-0.147,0.354C22.259,19.788,22.134,19.84,22,19.84H11c-0.134,0-0.259-0.052-0.354-0.147
		c-0.094-0.094-0.146-0.219-0.147-0.323L10.501,19.34z M20.389,24.729c-1.039,1.039-2.42,1.611-3.889,1.611s-2.85-0.572-3.889-1.611
		c-0.195-0.195-0.512-0.195-0.707,0s-0.195,0.512,0,0.707c1.228,1.228,2.86,1.904,4.596,1.904s3.369-0.676,4.596-1.904
		c0.195-0.195,0.195-0.512,0-0.707S20.584,24.534,20.389,24.729z M23.571,27.204c-0.195-0.195-0.512-0.195-0.707,0
		c-1.7,1.7-3.959,2.636-6.364,2.636s-4.664-0.936-6.364-2.636c-0.195-0.195-0.512-0.195-0.707,0s-0.195,0.512,0,0.707
		c1.888,1.889,4.399,2.929,7.071,2.929s5.183-1.04,7.071-2.929C23.766,27.715,23.766,27.399,23.571,27.204z"/>
</g>
</svg>
