<?xml version="1.0" encoding="utf-8"?>
<!-- Generator: Adobe Illustrator 21.0.2, SVG Export Plug-In . SVG Version: 6.00 Build 0)  -->
<svg version="1.1" id="Layer_1" xmlns="http://www.w3.org/2000/svg" xmlns:xlink="http://www.w3.org/1999/xlink" x="0px" y="0px"
	 width="35px" height="36px" viewBox="0 0 35 36" style="enable-background:new 0 0 35 36;" xml:space="preserve">
<style type="text/css">
	.st0{fill:#FFFFFF;}
	.st1{fill:none;stroke:#000000;stroke-miterlimit:10;}
	.st2{fill:none;stroke:#000000;stroke-linecap:round;stroke-linejoin:round;stroke-miterlimit:10;}
	.st3{clip-path:url(#SVGID_2_);}
	.st4{clip-path:url(#SVGID_4_);}
	.st5{clip-path:url(#SVGID_6_);}
</style>
<g>
	<polygon points="16.42999,18.34998 15.57001,17.84998 9.13,29 10.28003,29 	"/>
	<polygon points="25.87,29 19.42999,17.84998 18.57001,18.34998 24.71997,29 	"/>
	<polygon points="26.45001,30 25.29999,30 9.70001,30 8.54999,30 6,30 6,31 29,31 29,30 	"/>
</g>
<g>
	<path d="M26.97998,15C27,15.16998,27,15.32996,27,15.5c0,0.16998,0,0.32996-0.02002,0.5H27.5v-1H26.97998z"/>
	<path d="M17.5,5C11.71002,5,7,9.70996,7,15.5c0,3.33997,1.57001,6.32001,4.01001,8.23999l0.51001-0.88
		c-0.77002-0.62-1.44-1.35999-1.98004-2.19L14.40002,17.87l0.35999-0.21002C15.31,18.33997,16.09003,18.82001,17,18.95001v6.01996
		c-1.01001-0.04999-1.97998-0.26001-2.88-0.60999L13.60999,25.25C14.81,25.72998,16.12,26,17.5,26s2.69-0.27002,3.89001-0.75
		L20.88,24.35999c-0.90002,0.34998-1.87,0.56-2.88,0.60999v-6.01996c0.90997-0.13,1.69-0.61005,2.23999-1.29004L20.59998,17.87
		l4.86005,2.79999c-0.54004,0.83002-1.21002,1.57001-1.98004,2.19l0.51001,0.88C26.42999,21.82001,28,18.83997,28,15.5
		C28,9.70996,23.28998,5,17.5,5z M18,6.02997c1.35999,0.07001,2.65002,0.42004,3.81,1.01001l-3.01001,5.22003
		C18.53998,12.14996,18.28003,12.08997,18,12.04999V6.02997z M17,6.02997v6.02002c-0.28003,0.03998-0.53998,0.09998-0.79999,0.21002
		L13.19,7.03998C14.34998,6.45001,15.64001,6.09998,17,6.02997z M9.03998,19.81c-0.58997-1.16003-0.94-2.45001-1.00995-3.81h6.01996
		c0.04004,0.27997,0.10004,0.53998,0.21002,0.79999L9.03998,19.81z M14.04999,15H8.03003
		c0.06995-1.35999,0.41998-2.65002,1.00995-3.81l5.22003,3.01001C14.15002,14.45996,14.09003,14.71997,14.04999,15z
		 M9.53998,10.32996c0.73004-1.10999,1.67999-2.06,2.79004-2.78998l3.01001,5.22003C15.13,12.92999,14.94,13.13,14.76001,13.33997
		L9.53998,10.32996z M17.79999,17.97998C17.70001,17.98999,17.59998,18,17.5,18s-0.20001-0.01001-0.29999-0.02002
		c-0.90002-0.10999-1.66003-0.70001-2-1.5C15.07001,16.17999,15,15.83997,15,15.5c0-1.38,1.12-2.5,2.5-2.5s2.5,1.12,2.5,2.5
		c0,0.33997-0.07001,0.67999-0.20001,0.97998C19.46002,17.27997,18.70001,17.87,17.79999,17.97998z M20.23999,13.33997
		C20.06,13.13,19.87,12.92999,19.65997,12.76001l3.01001-5.22003c1.11005,0.72998,2.06,1.67999,2.79004,2.78998L20.23999,13.33997z
		 M26.97998,16c-0.07001,1.35999-0.42999,2.64996-1.01996,3.81l-5.22003-3.01001c0.10999-0.26001,0.17999-0.52002,0.22003-0.79999
		H26.97998C27,15.82996,27,15.66998,27,15.5c0-0.17004,0-0.33002-0.02002-0.5h-6.01996
		c-0.04004-0.28003-0.11005-0.54004-0.22003-0.79999L25.96002,11.19c0.58997,1.15997,0.94995,2.45001,1.01996,3.81H27.5v1H26.97998z
		"/>
</g>
</svg>
