<svg xmlns="http://www.w3.org/2000/svg" width="35" height="35" viewBox="0 0 35 35"><title>small_basket</title><path d="M21.5,19a.5.5,0,0,0-.5.5v6a.5.5,0,0,0,1,0v-6A.5.5,0,0,0,21.5,19Z"/><path d="M17.5,19a.5.5,0,0,0-.5.5v6a.5.5,0,0,0,1,0v-6A.5.5,0,0,0,17.5,19Z"/><path d="M13.5,19a.5.5,0,0,0-.5.5v6a.5.5,0,0,0,1,0v-6A.5.5,0,0,0,13.5,19Z"/><path d="M31,15a2,2,0,0,0-2-2H27.688L19.829,6.124a.5.5,0,0,0-.658.753l7,6.124H8.831l7-6.124a.5.5,0,0,0-.658-.753L7.312,13H6a2,2,0,1,0,0,4h.112l.78,10.716A1.484,1.484,0,0,0,8.357,29h18.3a1.476,1.476,0,0,0,1.465-1.287L29.042,17A2,2,0,0,0,31,15ZM27.134,27.6a.481.481,0,0,1-.473.4H8.357a.475.475,0,0,1-.471-.386L7.115,17H28.039ZM29,16H6a1,1,0,0,1,0-2H29a1,1,0,0,1,0,2Z"/></svg>