<?xml version="1.0" encoding="utf-8"?>
<!-- Generator: Adobe Illustrator 18.0.0, SVG Export Plug-In . SVG Version: 6.00 Build 0)  -->
<!DOCTYPE svg PUBLIC "-//W3C//DTD SVG 1.1//EN" "http://www.w3.org/Graphics/SVG/1.1/DTD/svg11.dtd">
<svg version="1.1" id="Layer_1" xmlns="http://www.w3.org/2000/svg" xmlns:xlink="http://www.w3.org/1999/xlink" x="0px" y="0px"
	 width="35px" height="35px" viewBox="0 0 35 35" enable-background="new 0 0 35 35" xml:space="preserve">
<g>
	<g>
		<path d="M9.5,25.75c-2.895,0-5.25-2.355-5.25-5.25s2.355-5.25,5.25-5.25s5.25,2.355,5.25,5.25S12.395,25.75,9.5,25.75z M9.5,16.25
			c-2.343,0-4.25,1.907-4.25,4.25s1.907,4.25,4.25,4.25s4.25-1.907,4.25-4.25S11.843,16.25,9.5,16.25z"/>
	</g>
</g>
<g>
	<g>
		<path d="M25.5,25.75c-2.895,0-5.25-2.355-5.25-5.25s2.355-5.25,5.25-5.25s5.25,2.355,5.25,5.25S28.395,25.75,25.5,25.75z
			 M25.5,16.25c-2.343,0-4.25,1.907-4.25,4.25s1.907,4.25,4.25,4.25s4.25-1.907,4.25-4.25S27.843,16.25,25.5,16.25z"/>
	</g>
</g>
<g>
	<g>
		<path d="M9.5,21c-0.075,0-0.151-0.017-0.223-0.053c-0.247-0.124-0.347-0.424-0.224-0.671L12.691,13H22.5
			c0.276,0,0.5,0.224,0.5,0.5S22.776,14,22.5,14h-9.191l-3.362,6.724C9.859,20.899,9.683,21,9.5,21z"/>
	</g>
</g>
<g>
	<g>
		<path d="M25.5,21c-0.201,0-0.39-0.122-0.467-0.32L20.157,8H17.5C17.224,8,17,7.776,17,7.5S17.224,7,17.5,7h3
			c0.207,0,0.393,0.127,0.467,0.32l5,13c0.099,0.258-0.03,0.547-0.287,0.646C25.621,20.989,25.56,21,25.5,21z"/>
	</g>
</g>
<g>
	<g>
		<path fill="none" stroke="#000000" stroke-linecap="round" stroke-linejoin="round" stroke-miterlimit="10" d="M20.411,13.578"/>
	</g>
</g>
<g>
	<g>
		<path d="M15,11h-2.5c-0.276,0-0.5-0.224-0.5-0.5s0.224-0.5,0.5-0.5H15c0.276,0,0.5,0.224,0.5,0.5S15.276,11,15,11z"/>
	</g>
</g>
<g>
	<g>
		<path d="M14.5,21h-5C9.224,21,9,20.776,9,20.5S9.224,20,9.5,20h5c0.276,0,0.5,0.224,0.5,0.5S14.776,21,14.5,21z"/>
	</g>
</g>
<g>
	<g>
		<path d="M14.5,21c-0.136,0-0.271-0.055-0.37-0.164c-0.186-0.205-0.17-0.521,0.034-0.707l5.5-5c0.204-0.185,0.521-0.17,0.707,0.034
			c0.186,0.205,0.17,0.521-0.034,0.707l-5.5,5C14.741,20.957,14.62,21,14.5,21z"/>
	</g>
</g>
</svg>
