<?xml version="1.0" encoding="utf-8"?>
<!-- Generator: Adobe Illustrator 21.0.2, SVG Export Plug-In . SVG Version: 6.00 Build 0)  -->
<svg version="1.1" id="Layer_1" xmlns="http://www.w3.org/2000/svg" xmlns:xlink="http://www.w3.org/1999/xlink" x="0px" y="0px"
	 width="35px" height="36px" viewBox="0 0 35 36" style="enable-background:new 0 0 35 36;" xml:space="preserve">
<style type="text/css">
	.st0{fill:#FFFFFF;}
	.st1{fill:none;stroke:#000000;stroke-miterlimit:10;}
	.st2{fill:none;stroke:#000000;stroke-linecap:round;stroke-linejoin:round;stroke-miterlimit:10;}
	.st3{clip-path:url(#SVGID_2_);}
	.st4{clip-path:url(#SVGID_4_);}
	.st5{clip-path:url(#SVGID_6_);}
</style>
<g>
	<path d="M27.96857,19.99286c-0.00549-0.04999,0.00281-0.10126-0.0174-0.14813l-3.45703-9.30469
		C24.10547,9.60449,23.19922,9,22.18555,9h-0.66602c-1.37891,0-2.5,1.12109-2.5,2.5V13H16v-1.5c0-1.37891-1.12158-2.5-2.5-2.5
		h-0.66602c-1.0127,0-1.91846,0.60449-2.31543,1.55762l-3.43555,9.24902c-0.02704,0.04901-0.01978,0.10498-0.02875,0.15863
		C6.40314,20.80957,6,21.85388,6,23c0,2.75684,2.24316,5,5,5c2.41443,0,4.43427-1.7207,4.89893-4h3.20215
		c0.46466,2.2793,2.4845,4,4.89893,4c2.75684,0,5-2.24316,5-5C29,21.86676,28.60657,20.8324,27.96857,19.99286z M21.51953,10
		h0.66602c0.6084,0,1.15234,0.3623,1.37793,0.90527l2.88324,7.76135C25.72021,18.25458,24.89307,18,24,18
		c-1.63031,0-3.06714,0.79602-3.98047,2.00726V11.5C20.01953,10.67285,20.69238,10,21.51953,10z M19,14v7h-3v-7H19z
		 M11.44873,10.92383C11.68262,10.3623,12.22656,10,12.83398,10H13.5c0.82715,0,1.5,0.67285,1.5,1.5v2v6.53094
		C14.08777,18.80573,12.6413,18,11,18c-0.883,0-1.70105,0.24969-2.42181,0.65308L11.44873,10.92383z M11,27
		c-2.20557,0-4-1.79395-4-4s1.79443-4,4-4s4,1.79395,4,4S13.20557,27,11,27z M16,23c0-0.11401-0.02612-0.22089-0.03369-0.33301
		C15.98517,22.61426,16,22.55927,16,22.5V22h3.01953v0.5c0,0.03534,0.01367,0.06635,0.02094,0.09961
		C19.0296,22.73395,19,22.86292,19,23H16z M24,27c-2.20605,0-4-1.79395-4-4s1.79395-4,4-4s4,1.79395,4,4S26.20605,27,24,27z"/>
	<path d="M11,20c-1.6543,0-3,1.3457-3,3c0,0.27637,0.22363,0.5,0.5,0.5S9,23.27637,9,23c0-1.10254,0.89697-2,2-2
		c0.27637,0,0.5-0.22363,0.5-0.5S11.27637,20,11,20z"/>
	<path d="M24,20c-1.6543,0-3,1.3457-3,3c0,0.27637,0.22363,0.5,0.5,0.5S22,23.27637,22,23c0-1.10254,0.89746-2,2-2
		c0.27637,0,0.5-0.22363,0.5-0.5S24.27637,20,24,20z"/>
</g>
</svg>
