<?xml version="1.0" encoding="utf-8"?>
<!-- Generator: Adobe Illustrator 21.0.2, SVG Export Plug-In . SVG Version: 6.00 Build 0)  -->
<svg version="1.1" id="Layer_1" xmlns="http://www.w3.org/2000/svg" xmlns:xlink="http://www.w3.org/1999/xlink" x="0px" y="0px"
	 width="35px" height="36px" viewBox="0 0 35 36" style="enable-background:new 0 0 35 36;" xml:space="preserve">
<style type="text/css">
	.st0{fill:#FFFFFF;}
	.st1{fill:none;stroke:#000000;stroke-miterlimit:10;}
	.st2{fill:none;stroke:#000000;stroke-linecap:round;stroke-linejoin:round;stroke-miterlimit:10;}
	.st3{clip-path:url(#SVGID_2_);}
	.st4{clip-path:url(#SVGID_4_);}
	.st5{clip-path:url(#SVGID_6_);}
</style>
<g>
	<rect x="22" y="15" width="1" height="1"/>
	<rect x="22" y="13" width="1" height="1"/>
	<rect x="22" y="17" width="1" height="1"/>
	<rect x="22" y="19" width="1" height="1"/>
	<rect x="22" y="21" width="1" height="1"/>
	<rect x="22" y="25" width="1" height="1"/>
	<rect x="22" y="23" width="1" height="1"/>
	<path d="M26,28V12.2207c0-0.64648-0.41211-1.21875-1.02539-1.42285L20,9.13989V8.11816c0-0.52344-0.26562-1-0.71094-1.27539
		c-0.44531-0.27637-0.99121-0.30078-1.45996-0.06641l-7.99902,4C9.31836,11.03125,9,11.5459,9,12.11816V28H7v1h2h10h1h6h2v-1H26z
		 M10,28V12.11816c0-0.19141,0.10547-0.3623,0.27637-0.44727l8-4c0.22266-0.11328,0.41504-0.02148,0.48633,0.02246
		S19,7.86719,19,8.11816v0.68848V28H10z M20,28V10.19336l4.6582,1.55371C24.86328,11.81445,25,12.00488,25,12.2207V28H20z"/>
	<rect x="14" y="15" width="1" height="1"/>
	<rect x="14" y="17" width="1" height="1"/>
	<rect x="14" y="19" width="1" height="1"/>
	<rect x="14" y="21" width="1" height="1"/>
	<rect x="14" y="25" width="1" height="1"/>
	<rect x="14" y="23" width="1" height="1"/>
	<rect x="12" y="15" width="1" height="1"/>
	<rect x="12" y="17" width="1" height="1"/>
	<rect x="12" y="19" width="1" height="1"/>
	<rect x="12" y="21" width="1" height="1"/>
	<rect x="12" y="25" width="1" height="1"/>
	<rect x="12" y="23" width="1" height="1"/>
	<rect x="16" y="15" width="1" height="1"/>
	<rect x="14" y="13" width="1" height="1"/>
	<rect x="12" y="13" width="1" height="1"/>
	<rect x="16" y="13" width="1" height="1"/>
	<rect x="16" y="17" width="1" height="1"/>
	<rect x="16" y="19" width="1" height="1"/>
	<rect x="16" y="21" width="1" height="1"/>
	<rect x="16" y="25" width="1" height="1"/>
	<rect x="16" y="23" width="1" height="1"/>
</g>
</svg>
