<?xml version="1.0" encoding="utf-8"?>
<!-- Generator: Adobe Illustrator 18.0.0, SVG Export Plug-In . SVG Version: 6.00 Build 0)  -->
<!DOCTYPE svg PUBLIC "-//W3C//DTD SVG 1.1//EN" "http://www.w3.org/Graphics/SVG/1.1/DTD/svg11.dtd">
<svg version="1.1" id="Layer_1" xmlns="http://www.w3.org/2000/svg" xmlns:xlink="http://www.w3.org/1999/xlink" x="0px" y="0px"
	 width="35px" height="35px" viewBox="0 0 35 35" enable-background="new 0 0 35 35" xml:space="preserve">
<g>
	<circle cx="14.5" cy="20.5" r="1"/>
</g>
<g>
	<circle cx="20.5" cy="20.5" r="1"/>
</g>
<g>
	<path d="M23,9c0.552,0,1,0.449,1,1v12c0,0.551-0.448,1-1,1H12c-0.552,0-1-0.449-1-1V10c0-0.551,0.448-1,1-1H23 M23,8H12
		c-1.104,0-2,0.895-2,2v12c0,1.105,0.896,2,2,2h11c1.104,0,2-0.895,2-2V10C25,8.895,24.104,8,23,8L23,8z"/>
</g>
<g>
	<path d="M22,9v8h-9V9H22 M22,8h-9c-0.552,0-1,0.448-1,1v8c0,0.552,0.448,1,1,1h9c0.552,0,1-0.448,1-1V9C23,8.448,22.552,8,22,8
		L22,8z"/>
</g>
<g>
	<path d="M8.5,14.5L8.5,14.5C8.224,14.5,8,14.276,8,14v-2.5C8,11.224,8.224,11,8.5,11h0C8.776,11,9,11.224,9,11.5V14
		C9,14.276,8.776,14.5,8.5,14.5z"/>
</g>
<g>
	<g>
		<path d="M12,26.25c0,0.414,0.336,0.75,0.75,0.75h0.5c0.414,0,0.75-0.336,0.75-0.75V25h-2V26.25z M21,25v1.25
			c0,0.414,0.336,0.75,0.75,0.75h0.5c0.414,0,0.75-0.336,0.75-0.75V25H21z"/>
	</g>
</g>
</svg>
