<?xml version="1.0" encoding="utf-8"?>
<!-- Generator: Adobe Illustrator 18.0.0, SVG Export Plug-In . SVG Version: 6.00 Build 0)  -->
<!DOCTYPE svg PUBLIC "-//W3C//DTD SVG 1.1//EN" "http://www.w3.org/Graphics/SVG/1.1/DTD/svg11.dtd">
<svg version="1.1" id="Layer_1" xmlns="http://www.w3.org/2000/svg" xmlns:xlink="http://www.w3.org/1999/xlink" x="0px" y="0px"
	 width="35px" height="35px" viewBox="0 0 35 35" enable-background="new 0 0 35 35" xml:space="preserve">
<path d="M26,10v12H9V10H26 M27,9H8v14h19V9L27,9z"/>
<g>
	<polygon points="18,18.7 15,15.2 11.9,18.4 11.1,17.6 15,13.8 18,17.3 22.1,13.1 22.9,13.9 	"/>
</g>
<g>
	<polygon points="20.6,26.9 17.5,23.7 14.4,26.9 13.6,26.1 17.5,22.3 21.4,26.1 	"/>
</g>
<g>
	<path d="M22.5,16c-0.3,0-0.5-0.2-0.5-0.5V14h-1.5c-0.3,0-0.5-0.2-0.5-0.5s0.2-0.5,0.5-0.5H23v2.5C23,15.8,22.8,16,22.5,16z"/>
</g>
<rect x="17" y="8" width="1" height="1.3"/>
</svg>
