<?xml version="1.0" encoding="utf-8"?>
<!-- Generator: Adobe Illustrator 18.0.0, SVG Export Plug-In . SVG Version: 6.00 Build 0)  -->
<!DOCTYPE svg PUBLIC "-//W3C//DTD SVG 1.1//EN" "http://www.w3.org/Graphics/SVG/1.1/DTD/svg11.dtd">
<svg version="1.1" id="Layer_1" xmlns="http://www.w3.org/2000/svg" xmlns:xlink="http://www.w3.org/1999/xlink" x="0px" y="0px"
	 width="35px" height="35px" viewBox="0 0 35 35" enable-background="new 0 0 35 35" xml:space="preserve">
<g>
	<path d="M26,10v15H9V10H26 M27,9H8v17h19V9L27,9z"/>
</g>
<path d="M11.5,11L11.5,11c-0.276,0-0.5-0.224-0.5-0.5v-3C11,7.224,11.224,7,11.5,7h0C11.776,7,12,7.224,12,7.5v3
	C12,10.776,11.776,11,11.5,11z"/>
<path d="M23.5,11L23.5,11c-0.276,0-0.5-0.224-0.5-0.5v-3C23,7.224,23.224,7,23.5,7l0,0C23.776,7,24,7.224,24,7.5v3
	C24,10.776,23.776,11,23.5,11z"/>
<g>
	<rect x="11" y="13" width="1" height="1"/>
</g>
<g>
	<rect x="11" y="16" width="1" height="1"/>
</g>
<g>
	<rect x="11" y="19" width="1" height="1"/>
</g>
<g>
	<rect x="11" y="22" width="1" height="1"/>
</g>
<g>
	<rect x="15" y="13" width="1" height="1"/>
</g>
<g>
	<path d="M16,16v1h-1v-1H16 M17,15h-3v3h3V15L17,15z"/>
</g>
<g>
	<rect x="15" y="19" width="1" height="1"/>
</g>
<g>
	<rect x="15" y="22" width="1" height="1"/>
</g>
<g>
	<rect x="19" y="13" width="1" height="1"/>
</g>
<g>
	<rect x="19" y="16" width="1" height="1"/>
</g>
<g>
	<rect x="19" y="19" width="1" height="1"/>
</g>
<g>
	<rect x="19" y="22" width="1" height="1"/>
</g>
<g>
	<rect x="23" y="13" width="1" height="1"/>
</g>
<g>
	<rect x="23" y="16" width="1" height="1"/>
</g>
<g>
	<rect x="23" y="19" width="1" height="1"/>
</g>
</svg>
