<svg xmlns="http://www.w3.org/2000/svg" width="35" height="35" viewBox="0 0 35 35"><title>icoon_kalender-s</title><rect x="11" y="14" width="2" height="2"/><rect x="16" y="14" width="2" height="2"/><rect x="21" y="14" width="2" height="2"/><rect x="11" y="18" width="2" height="2"/><rect x="16" y="18" width="2" height="2"/><rect x="21" y="18" width="2" height="2"/><rect x="11" y="22" width="2" height="2"/><rect x="16" y="22" width="2" height="2"/><path d="M23,9V6.5a.5.5,0,0,0-1,0V9H12V6.5a.5.5,0,0,0-1,0V9H7V28H27V9Zm3,18H8V10h3v1.5a.5.5,0,0,0,1,0V10H22v1.5a.5.5,0,0,0,1,0V10h3Z"/></svg>