<?xml version="1.0" encoding="utf-8"?>
<!-- Generator: Adobe Illustrator 19.0.0, SVG Export Plug-In . SVG Version: 6.00 Build 0)  -->
<svg version="1.1" id="Layer_1" xmlns="http://www.w3.org/2000/svg" xmlns:xlink="http://www.w3.org/1999/xlink" x="0px" y="0px"
	 width="35px" height="35px" viewBox="0 0 35 35" style="enable-background:new 0 0 35 35;" xml:space="preserve">
<g>
	<path d="M26.5,15h-1.357l-1.751-4.085C23.179,10.417,22.554,10,22.004,10h-9.009c-0.551,0-1.171,0.41-1.388,0.915L9.857,15H8.5
		C8.224,15,8,15.224,8,15.5S8.224,16,8.5,16h0.929H10.5h0.017l2.01-4.691C12.586,11.171,12.845,11,12.996,11h9.009
		c0.146,0,0.411,0.175,0.469,0.309L24.483,16H24.5h1.071H26.5c0.276,0,0.5-0.224,0.5-0.5S26.776,15,26.5,15z"/>
	<path d="M25.5,17H25l-2,2h2v3c0-0.001-15,0-15,0c-0.003,0,0-3,0-3h2.001L10,17H9.5C9.224,17,9,17.224,9,17.5v4.497
		C9,22.562,9.448,23,10,23h0v1.5c0,0.276,0.224,0.5,0.5,0.5h1c0.276,0,0.5-0.224,0.5-0.5V23h11v1.5c0,0.276,0.224,0.5,0.5,0.5h1
		c0.276,0,0.5-0.224,0.5-0.5V23h0c0.545,0,1-0.449,1-1.003V17.5C26,17.224,25.776,17,25.5,17z"/>
	<rect x="14" y="18" width="7" height="1"/>
	<polygon points="22,15 13,15 12,16 23,16 	"/>
	<rect x="15" y="20" width="5" height="1"/>
</g>
</svg>
