<?xml version="1.0" encoding="utf-8"?>
<!-- Generator: Adobe Illustrator 18.0.0, SVG Export Plug-In . SVG Version: 6.00 Build 0)  -->
<!DOCTYPE svg PUBLIC "-//W3C//DTD SVG 1.1//EN" "http://www.w3.org/Graphics/SVG/1.1/DTD/svg11.dtd">
<svg version="1.1" id="Layer_1" xmlns="http://www.w3.org/2000/svg" xmlns:xlink="http://www.w3.org/1999/xlink" x="0px" y="0px"
	 width="35px" height="35px" viewBox="0 0 35 35" enable-background="new 0 0 35 35" xml:space="preserve">
<circle cx="10.497" cy="15.5" r="0.5"/>
<circle cx="12.497" cy="15.5" r="0.5"/>
<g>
	<g>
		<path d="M27,10H8c-1.104,0-2,0.895-2,2v11c0,1.105,0.896,2,2,2h19c1.104,0,2-0.895,2-2V12C29,10.895,28.104,10,27,10z M28,23
			c0,0.551-0.448,1-1,1H8c-0.552,0-1-0.449-1-1V12c0-0.551,0.448-1,1-1h19c0.552,0,1,0.449,1,1V23z"/>
	</g>
</g>
<path d="M9,20h5v-7H9V20z M10,14h3v5h-3V14z"/>
<rect x="17.5" y="17" width="7" height="1"/>
<rect x="16.5" y="14" width="12" height="1"/>
</svg>
