<?xml version="1.0" encoding="utf-8"?>
<!-- Generator: Adobe Illustrator 18.0.0, SVG Export Plug-In . SVG Version: 6.00 Build 0)  -->
<!DOCTYPE svg PUBLIC "-//W3C//DTD SVG 1.1//EN" "http://www.w3.org/Graphics/SVG/1.1/DTD/svg11.dtd">
<svg version="1.1" id="Layer_1" xmlns="http://www.w3.org/2000/svg" xmlns:xlink="http://www.w3.org/1999/xlink" x="0px" y="0px"
	 width="35px" height="35px" viewBox="0 0 35 35" enable-background="new 0 0 35 35" xml:space="preserve">
<circle cx="22" cy="26.7" r="1.2"/>
<circle cx="13" cy="26.7" r="1.2"/>
<path d="M26.1,13c-0.3-0.1-0.5,0.1-0.6,0.4L24.1,20H10.9L8.8,7.4C8.8,7.2,8.6,7,8.3,7H5C4.7,7,4.5,7.2,4.5,7.5S4.7,8,5,8h2.9
	L10,20.6l0,0l0,0l0.5,3c0,0.2,0.2,0.4,0.5,0.4h13c0.3,0,0.5-0.2,0.5-0.5S24.3,23,24,23H11.4l-0.3-2h13.4c0.2,0,0.4-0.2,0.5-0.4
	l1.5-7C26.5,13.3,26.4,13.1,26.1,13z"/>
</svg>
