<?xml version="1.0" encoding="utf-8"?>
<!-- Generator: Adobe Illustrator 18.0.0, SVG Export Plug-In . SVG Version: 6.00 Build 0)  -->
<!DOCTYPE svg PUBLIC "-//W3C//DTD SVG 1.1//EN" "http://www.w3.org/Graphics/SVG/1.1/DTD/svg11.dtd">
<svg version="1.1" id="Layer_1" xmlns="http://www.w3.org/2000/svg" xmlns:xlink="http://www.w3.org/1999/xlink" x="0px" y="0px"
	 width="35px" height="35px" viewBox="0 0 35 35" enable-background="new 0 0 35 35" xml:space="preserve">
<circle cx="22.006" cy="26.749" r="1.25"/>
<circle cx="13" cy="26.749" r="1.25"/>
<path d="M26.389,13.185C26.294,13.068,26.151,13,26,13H12c-0.276,0-0.5,0.224-0.5,0.5S11.724,14,12,14h13.381l-1.286,6H10.923
	L8.827,7.418C8.787,7.176,8.578,7,8.333,7H5C4.724,7,4.5,7.223,4.5,7.5S4.724,8,5,8h2.91l2.097,12.582v0v0l0.5,3
	C10.547,23.823,10.755,24,11,24h13c0.276,0,0.5-0.224,0.5-0.5S24.276,23,24,23H11.423l-0.333-2H24.5
	c0.236,0,0.439-0.165,0.489-0.395l1.5-7C26.521,13.456,26.484,13.303,26.389,13.185z"/>
</svg>
