<?xml version="1.0" encoding="utf-8"?>
<!-- Generator: Adobe Illustrator 18.0.0, SVG Export Plug-In . SVG Version: 6.00 Build 0)  -->
<!DOCTYPE svg PUBLIC "-//W3C//DTD SVG 1.1//EN" "http://www.w3.org/Graphics/SVG/1.1/DTD/svg11.dtd">
<svg version="1.1" id="Layer_1" xmlns="http://www.w3.org/2000/svg" xmlns:xlink="http://www.w3.org/1999/xlink" x="0px" y="0px"
	 width="35px" height="35px" viewBox="0 0 35 35" enable-background="new 0 0 35 35" xml:space="preserve">
<circle cx="24.006" cy="26.749" r="1.25"/>
<circle cx="11" cy="26.749" r="1.25"/>
<path d="M28.105,13.01c-0.273-0.062-0.536,0.115-0.594,0.384L26.096,20H8.923L6.827,7.418C6.787,7.176,6.578,7,6.333,7H3
	C2.724,7,2.5,7.223,2.5,7.5S2.724,8,3,8h2.91l2.097,12.582v0v0l0.5,3C8.547,23.823,8.755,24,9,24h17c0.276,0,0.5-0.224,0.5-0.5
	S26.276,23,26,23H9.423L9.09,21H26.5c0.236,0,0.439-0.165,0.489-0.395l1.5-7C28.547,13.334,28.375,13.068,28.105,13.01z"/>
</svg>
