<?xml version="1.0" encoding="utf-8"?>
<!-- Generator: Adobe Illustrator 18.0.0, SVG Export Plug-In . SVG Version: 6.00 Build 0)  -->
<!DOCTYPE svg PUBLIC "-//W3C//DTD SVG 1.1//EN" "http://www.w3.org/Graphics/SVG/1.1/DTD/svg11.dtd">
<svg version="1.1" id="Layer_1" xmlns="http://www.w3.org/2000/svg" xmlns:xlink="http://www.w3.org/1999/xlink" x="0px" y="0px"
	 width="35px" height="35px" viewBox="0 0 35 35" enable-background="new 0 0 35 35" xml:space="preserve">
<circle cx="29.006" cy="26.749" r="1.25"/>
<circle cx="8.5" cy="26.749" r="1.25"/>
<path d="M32.605,13.01c-0.273-0.062-0.536,0.115-0.594,0.384L30.596,20H6.423L4.327,7.418C4.287,7.176,4.078,7,3.833,7H0.5
	C0.224,7,0,7.223,0,7.5S0.224,8,0.5,8h2.91l2.097,12.582v0v0l0.5,3C6.047,23.823,6.255,24,6.5,24h24c0.276,0,0.5-0.224,0.5-0.5
	S30.776,23,30.5,23H6.923L6.59,21H31c0.236,0,0.439-0.165,0.489-0.395l1.5-7C33.047,13.334,32.875,13.068,32.605,13.01z"/>
</svg>
