<?xml version="1.0" encoding="utf-8"?>
<!-- Generator: Adobe Illustrator 18.0.0, SVG Export Plug-In . SVG Version: 6.00 Build 0)  -->
<!DOCTYPE svg PUBLIC "-//W3C//DTD SVG 1.1//EN" "http://www.w3.org/Graphics/SVG/1.1/DTD/svg11.dtd">
<svg version="1.1" id="Layer_1" xmlns="http://www.w3.org/2000/svg" xmlns:xlink="http://www.w3.org/1999/xlink" x="0px" y="0px"
	 width="35px" height="35px" viewBox="0 0 35 35" enable-background="new 0 0 35 35" xml:space="preserve">
<path d="M28.5,15h-12c-0.8,0-1.5,0.7-1.5,1.5v7c0,0.8,0.7,1.5,1.5,1.5H20v5l5-5h3.5c0.8,0,1.5-0.7,1.5-1.5v-7
	C30,15.7,29.3,15,28.5,15z M29,23.5c0,0.3-0.2,0.5-0.5,0.5H26h-1h-0.4L21,27.6V25v-1h-1h-3.5c-0.3,0-0.5-0.2-0.5-0.5v-7
	c0-0.3,0.2-0.5,0.5-0.5h12c0.3,0,0.5,0.2,0.5,0.5V23.5z"/>
<path d="M19.5,8h-12C6.7,8,6,8.7,6,9.5v7C6,17.3,6.7,18,7.5,18H10l3,3v-1.4L10.4,17H10H9H7.5C7.2,17,7,16.8,7,16.5v-7
	C7,9.2,7.2,9,7.5,9h12C19.8,9,20,9.2,20,9.5V13h1V9.5C21,8.7,20.3,8,19.5,8z"/>
</svg>
