<?xml version="1.0" encoding="utf-8"?>
<!-- Generator: Adobe Illustrator 18.0.0, SVG Export Plug-In . SVG Version: 6.00 Build 0)  -->
<!DOCTYPE svg PUBLIC "-//W3C//DTD SVG 1.1//EN" "http://www.w3.org/Graphics/SVG/1.1/DTD/svg11.dtd">
<svg version="1.1" id="Layer_1" xmlns="http://www.w3.org/2000/svg" xmlns:xlink="http://www.w3.org/1999/xlink" x="0px" y="0px"
	 width="35px" height="35px" viewBox="0 0 35 35" enable-background="new 0 0 35 35" xml:space="preserve">
<g>
	<g>
		<g>
			<path d="M17.5,24.5c-3.86,0-7-3.14-7-7s3.14-7,7-7s7,3.14,7,7S21.36,24.5,17.5,24.5z M17.5,11.4c-3.308,0-6,2.737-6,6.1
				s2.692,6.1,6,6.1s6-2.737,6-6.1S20.808,11.4,17.5,11.4z"/>
		</g>
	</g>
	<path d="M17.5,12.5L17.5,12.5c-0.276,0-0.5,0.224-0.5,0.5v5h1v-5C18,12.724,17.776,12.5,17.5,12.5z"/>
	<path d="M20.164,20.493l0.036-0.036c0.185-0.185,0.185-0.486,0-0.671l-2.493-2.493L17,18l2.493,2.493
		C19.678,20.678,19.979,20.678,20.164,20.493z"/>
</g>
</svg>
