<?xml version="1.0" encoding="utf-8"?>
<!-- Generator: Adobe Illustrator 18.0.0, SVG Export Plug-In . SVG Version: 6.00 Build 0)  -->
<!DOCTYPE svg PUBLIC "-//W3C//DTD SVG 1.1//EN" "http://www.w3.org/Graphics/SVG/1.1/DTD/svg11.dtd">
<svg version="1.1" id="Layer_1" xmlns="http://www.w3.org/2000/svg" xmlns:xlink="http://www.w3.org/1999/xlink" x="0px" y="0px"
	 width="35px" height="35px" viewBox="0 0 35 35" enable-background="new 0 0 35 35" xml:space="preserve">
<g>
	<g>
		<path d="M17.5,27.5c-5.514,0-10-4.486-10-10s4.486-10,10-10s10,4.486,10,10S23.014,27.5,17.5,27.5z M17.5,8.5
			c-4.962,0-9,4.038-9,9s4.038,9,9,9s9-4.038,9-9S22.462,8.5,17.5,8.5z"/>
	</g>
</g>
<g>
	<g>
		<path d="M21,21.5c-0.128,0-0.256-0.049-0.354-0.146L17,17.707V11c0-0.276,0.224-0.5,0.5-0.5S18,10.724,18,11v6.293l3.354,3.354
			c0.195,0.195,0.195,0.512,0,0.707C21.256,21.451,21.128,21.5,21,21.5z"/>
	</g>
</g>
</svg>
