<?xml version="1.0" encoding="utf-8"?>
<!-- Generator: Adobe Illustrator 18.0.0, SVG Export Plug-In . SVG Version: 6.00 Build 0)  -->
<!DOCTYPE svg PUBLIC "-//W3C//DTD SVG 1.1//EN" "http://www.w3.org/Graphics/SVG/1.1/DTD/svg11.dtd">
<svg version="1.1" id="Layer_1" xmlns="http://www.w3.org/2000/svg" xmlns:xlink="http://www.w3.org/1999/xlink" x="0px" y="0px"
	 width="35px" height="35px" viewBox="0 0 35 35" enable-background="new 0 0 35 35" xml:space="preserve">
<g>
	<g>
		<path d="M24.5,25c-0.128,0-0.256-0.049-0.354-0.146l-14-14c-0.195-0.195-0.195-0.512,0-0.707s0.512-0.195,0.707,0l14,14
			c0.195,0.195,0.195,0.512,0,0.707C24.756,24.951,24.628,25,24.5,25z"/>
	</g>
</g>
<g>
	<g>
		<path d="M10.5,25c-0.128,0-0.256-0.049-0.354-0.146c-0.195-0.195-0.195-0.512,0-0.707l14-14c0.195-0.195,0.512-0.195,0.707,0
			s0.195,0.512,0,0.707l-14,14C10.756,24.951,10.628,25,10.5,25z"/>
	</g>
</g>
</svg>
