<?xml version="1.0" encoding="utf-8"?>
<!-- Generator: Adobe Illustrator 18.0.0, SVG Export Plug-In . SVG Version: 6.00 Build 0)  -->
<!DOCTYPE svg PUBLIC "-//W3C//DTD SVG 1.1//EN" "http://www.w3.org/Graphics/SVG/1.1/DTD/svg11.dtd">
<svg version="1.1" id="Layer_1" xmlns="http://www.w3.org/2000/svg" xmlns:xlink="http://www.w3.org/1999/xlink" x="0px" y="0px"
	 width="35px" height="35px" viewBox="0 0 35 35" enable-background="new 0 0 35 35" xml:space="preserve">
<title>icoon/koffie_beker_NS_Blue</title>
<desc>Created with Sketch.</desc>
<g>
	<path fill-rule="evenodd" clip-rule="evenodd" d="M24.247,8.025l-0.15-0.578C23.891,6.651,23.05,6,22.221,6h-9.442
		c-0.832,0-1.669,0.648-1.876,1.447L10.759,8l-0.007,0.025C10.038,8.145,9.5,8.757,9.5,9.5c0,0.683,0.454,1.246,1.074,1.43
		L10.579,11l1.348,17.022C11.967,28.57,12.417,29,12.952,29h9.196c0.534,0,0.984-0.43,1.025-0.978l1.256-17.046l0.003-0.047
		c0.62-0.187,1.068-0.752,1.068-1.429C25.5,8.753,24.958,8.144,24.247,8.025z M11.871,7.698C11.964,7.339,12.403,7,12.779,7h9.442
		c0.373,0,0.816,0.342,0.908,0.698C23.158,7.81,23.174,7.868,23.208,8H11.792L11.871,7.698z M22.54,23H21v1h1.466l-0.291,3.948
		C22.173,27.98,22.152,28,22.148,28h-9.196c-0.004,0-0.025-0.019-0.027-0.051L12.612,24H19v-1h-6.467l-0.713-9H19v-1h-7.259
		l-0.158-2h11.841l-0.147,2H21v1h2.203L22.54,23z M23.995,10h-12.99C10.723,10,10.5,9.779,10.5,9.5c0-0.278,0.222-0.5,0.505-0.5
		h12.99C24.277,9,24.5,9.221,24.5,9.5C24.5,9.778,24.278,10,23.995,10z"/>
</g>
</svg>
