<?xml version="1.0" encoding="utf-8"?>
<!-- Generator: Adobe Illustrator 18.0.0, SVG Export Plug-In . SVG Version: 6.00 Build 0)  -->
<!DOCTYPE svg PUBLIC "-//W3C//DTD SVG 1.1//EN" "http://www.w3.org/Graphics/SVG/1.1/DTD/svg11.dtd">
<svg version="1.1" id="Layer_1" xmlns="http://www.w3.org/2000/svg" xmlns:xlink="http://www.w3.org/1999/xlink" x="0px" y="0px"
	 width="35px" height="35px" viewBox="0 0.12 35 35" enable-background="new 0 0.12 35 35" xml:space="preserve">
<polygon points="21.636,13.484 21.636,8.12 20.636,9.12 20.636,14.484 26,14.484 27,13.484 "/>
<path d="M25.793,10.034l-3.95,3.95c-0.195,0.195-0.512,0.195-0.707,0v0c-0.195-0.195-0.195-0.512,0-0.707l3.95-3.95
	c0.195-0.195,0.512-0.195,0.707,0v0C25.988,9.522,25.988,9.839,25.793,10.034z"/>
<polygon points="13.364,21.756 13.364,27.12 14.364,26.12 14.364,20.756 9,20.756 8,21.756 "/>
<path d="M9.207,25.206l3.95-3.95c0.195-0.195,0.512-0.195,0.707,0h0c0.195,0.195,0.195,0.512,0,0.707l-3.95,3.95
	c-0.195,0.195-0.512,0.195-0.707,0h0C9.012,25.718,9.012,25.401,9.207,25.206z"/>
<polygon points="13.364,13.484 8,13.484 9,14.484 14.364,14.484 14.364,9.12 13.364,8.12 "/>
<path d="M9.914,9.327l3.95,3.95c0.195,0.195,0.195,0.512,0,0.707l0,0c-0.195,0.195-0.512,0.195-0.707,0l-3.95-3.95
	c-0.195-0.195-0.195-0.512,0-0.707h0C9.402,9.132,9.719,9.132,9.914,9.327z"/>
<polygon points="21.636,21.756 27,21.756 26,20.756 20.636,20.756 20.636,26.12 21.636,27.12 "/>
<path d="M25.086,25.913l-3.95-3.95c-0.195-0.195-0.195-0.512,0-0.707v0c0.195-0.195,0.512-0.195,0.707,0l3.95,3.95
	c0.195,0.195,0.195,0.512,0,0.707v0C25.598,26.108,25.281,26.108,25.086,25.913z"/>
</svg>
