<?xml version="1.0" encoding="utf-8"?>
<!-- Generator: Adobe Illustrator 19.2.0, SVG Export Plug-In . SVG Version: 6.00 Build 0)  -->
<svg version="1.1" id="Layer_1" xmlns="http://www.w3.org/2000/svg" xmlns:xlink="http://www.w3.org/1999/xlink" x="0px" y="0px"
	 viewBox="0 0 35 35" style="enable-background:new 0 0 35 35;" xml:space="preserve">
<title>icoon_hond</title>
<path d="M32,10.9c0-0.3-0.3-0.6-0.6-0.6l0,0H28l-1-1c-0.1-0.1-0.3-0.2-0.4-0.2l-0.6,0l-0.6,0c-0.3,0-0.6,0.3-0.6,0.6
	c0,0.3,0.3,0.6,0.6,0.6h0l0.6,0h0.3l1,1c0.1,0.1,0.3,0.2,0.4,0.2h3v0.3l-2.1,2h-2.2c-0.1,0-0.2,0-0.4,0.1c0,0-0.1,0-0.1,0.1L26,14.2
	l-3.3,3.3l-0.2,0.2c-0.1,0.1-0.2,0.3-0.2,0.4v3.5c0,0.2,0.1,0.3,0.2,0.4l3.6,3.6l2.5,2.5c0.2,0.2,0.6,0.2,0.8,0
	c0.2-0.2,0.2-0.6,0-0.8c0,0,0,0,0,0L26.2,24l-2.6-2.6v-3l0.8-0.8l1.6-1.6l0.2-0.2l0.6-0.6h2.1c0.2,0,0.3-0.1,0.4-0.2l1.6-1.6
	l0.8-0.8c0.1-0.1,0.2-0.3,0.2-0.4L32,10.9z"/>
<path d="M6.2,15.1c-0.3,0-0.6,0.3-0.6,0.6c0,0,0,0,0,0v6.7l-2.2,2.5c-0.1,0.1-0.2,0.3-0.2,0.4v4.2h1.2v-3.9l2.2-2.5
	c0.1-0.1,0.2-0.3,0.2-0.4v-7C6.8,15.4,6.5,15.1,6.2,15.1L6.2,15.1z"/>
<path d="M20.6,21.1h-6.9l-1-1l-0.9-0.9l-0.4-0.4c-0.2-0.2-0.6-0.2-0.8,0c-0.1,0.1-0.2,0.3-0.2,0.4v2.2l-2.2,2.1
	c-0.2,0.2-0.2,0.6,0,0.8c0,0,0,0,0,0l3.6,3.6l0.1,0.1c0.2,0.2,0.6,0.2,0.8,0c0.2-0.2,0.2-0.6,0-0.8l0,0l-0.9-0.9l-2.3-2.4l2-1.9
	c0.1-0.1,0.2-0.3,0.2-0.4v-1l0.2,0.2l1.2,1.2c0.1,0.1,0.3,0.2,0.4,0.2H20v7.2h1.2v-7.8C21.2,21.4,20.9,21.1,20.6,21.1
	C20.6,21.1,20.6,21.1,20.6,21.1z"/>
<path d="M23.6,10l2.2-2.2c0.2-0.2,0.2-0.6,0-0.8c-0.2-0.2-0.6-0.2-0.8,0l-2.6,2.6v2.4l-1.9,1.8l-0.2,0.2H7.5l-0.2-0.2l-3.2-3.2
	c-0.2-0.2-0.6-0.2-0.8,0c-0.2,0.2-0.2,0.6,0,0.8L7,15.1h13.8l1.4-1.4l1.4-1.3V10z"/>
<path d="M17.4,9.8l2.8,2.8l0.8-0.8l-6-6c-0.2-0.2-0.6-0.2-0.8,0c-0.2,0.2-0.2,0.6,0,0.8L17.4,9.8z"/>
</svg>
