<?xml version="1.0" encoding="utf-8"?>
<!-- Generator: Adobe Illustrator 18.0.0, SVG Export Plug-In . SVG Version: 6.00 Build 0)  -->
<!DOCTYPE svg PUBLIC "-//W3C//DTD SVG 1.1//EN" "http://www.w3.org/Graphics/SVG/1.1/DTD/svg11.dtd">
<svg version="1.1" id="Layer_1" xmlns="http://www.w3.org/2000/svg" xmlns:xlink="http://www.w3.org/1999/xlink" x="0px" y="0px"
	 width="35px" height="35px" viewBox="0 0 35 35" enable-background="new 0 0 35 35" xml:space="preserve">
<polygon points="17.5,18.3 12,12.8 12,14.2 17.5,19.7 23,14.2 23,12.8 "/>
<g>
	<path d="M18,7.5v10.7c0,0.3-0.2,0.5-0.5,0.5l0,0c-0.3,0-0.5-0.2-0.5-0.5V7.5C17,7.2,17.2,7,17.5,7l0,0C17.8,7,18,7.2,18,7.5z"/>
</g>
<polygon points="25,24.2 25,27.2 10,27.2 10,24.2 9,24.2 9,28.2 26,28.2 26,24.2 "/>
</svg>
