<?xml version="1.0" encoding="utf-8"?>
<!-- Generator: Adobe Illustrator 21.0.2, SVG Export Plug-In . SVG Version: 6.00 Build 0)  -->
<svg version="1.1" id="Layer_1" xmlns="http://www.w3.org/2000/svg" xmlns:xlink="http://www.w3.org/1999/xlink" x="0px" y="0px"
	 width="35px" height="36px" viewBox="0 0 35 36" style="enable-background:new 0 0 35 36;" xml:space="preserve">
<style type="text/css">
	.st0{fill:#FFFFFF;}
	.st1{fill:none;stroke:#000000;stroke-miterlimit:10;}
	.st2{fill:none;stroke:#000000;stroke-linecap:round;stroke-linejoin:round;stroke-miterlimit:10;}
	.st3{clip-path:url(#SVGID_2_);}
	.st4{clip-path:url(#SVGID_4_);}
	.st5{clip-path:url(#SVGID_6_);}
</style>
<path d="M25,5h-3.83105c-1.20898,0-2.24316,0.86328-2.45996,2.05273l-1.43848,7.91211C17.01361,14.97705,16.76831,15,16.5,15h-0.25
	c-3.34003-0.04999-5.75-1.06-5.75-1.5c0-0.45001,2.53003-1.5,6-1.5h0.28998l0.19-0.98999C16.82001,11,16.65997,11,16.5,11
	c-2.82001,0-7,0.78998-7,2.5c0,0.12793,0.01953,0.25,0.03906,0.29297l2.81641,14.98438C12.48828,29.48535,13.1084,30,13.8291,30
	h5.3418c0.7207,0,1.34082-0.51465,1.47363-1.22266l2.79883-14.91699C23.48047,13.75,23.5,13.62793,23.5,13.5
	c0-1.07001-1.63-1.78003-3.53003-2.16003h-0.00995l-0.17004,0.98004C21.46002,12.66998,22.5,13.20996,22.5,13.5
	c0,0.31-1.22998,0.91998-3.15002,1.25c-0.32428,0.05859-0.68567,0.10126-1.04913,0.1416l1.39252-7.65918
	C19.82324,6.51855,20.44336,6,21.16895,6H25c0.27637,0,0.5-0.22363,0.5-0.5S25.27637,5,25,5z M19.15997,15.78998
	c1.14636-0.16962,2.25537-0.45233,3.06799-0.84937L19.66211,28.5918C19.61719,28.82812,19.41113,29,19.1709,29h-5.3418
	c-0.24023,0-0.44629-0.17188-0.49121-0.4082l-2.56482-13.64594c1.34607,0.65839,3.51593,0.99957,5.29694,1.04413
	C16.21997,16,16.35999,16,16.5,16c0.18555,0,0.3913-0.0166,0.58661-0.02374l-0.5462,3.00421
	c-1.23224,0.00397-2.46814-0.16992-3.35486-0.52441c-0.25488-0.10352-0.54688,0.02246-0.64941,0.27832
	s0.02148,0.54688,0.27832,0.64941c0.95721,0.38342,2.21118,0.5957,3.54163,0.61053l-1.34827,7.41583
	c-0.04883,0.27246,0.13086,0.53223,0.40234,0.58203C15.44043,27.99707,15.4707,28,15.50098,28
	c0.23633,0,0.44727-0.16895,0.49121-0.41016l1.38623-7.62463c1.05231-0.07245,2.02844-0.26947,2.80713-0.58142
	c0.25684-0.10254,0.38086-0.39355,0.27832-0.64941s-0.39453-0.38184-0.64941-0.27832
	c-0.61829,0.24719-1.40973,0.4024-2.24805,0.47528l0.54919-3.02069C18.46265,15.87756,18.81152,15.84357,19.15997,15.78998z"/>
</svg>
