<?xml version="1.0" encoding="utf-8"?>
<!-- Generator: Adobe Illustrator 18.0.0, SVG Export Plug-In . SVG Version: 6.00 Build 0)  -->
<!DOCTYPE svg PUBLIC "-//W3C//DTD SVG 1.1//EN" "http://www.w3.org/Graphics/SVG/1.1/DTD/svg11.dtd">
<svg version="1.1" id="Layer_1" xmlns="http://www.w3.org/2000/svg" xmlns:xlink="http://www.w3.org/1999/xlink" x="0px" y="0px"
	 width="35px" height="35px" viewBox="0 0 35 35" enable-background="new 0 0 35 35" xml:space="preserve">
<g>
	<g>
		<path d="M26,28H9c-0.3,0-0.5-0.2-0.5-0.5v-0.1C8.5,27.2,8.7,27,9,27H26c0.3,0,0.5,0.2,0.5,0.5v0.1C26.5,27.8,26.3,28,26,28z"/>
	</g>
	<g>
		<path d="M24.4,18.7L13.2,7.5h-1.4L9.5,9.8v1.4l11.2,11.2l5.6,1.9L24.4,18.7z M10.5,10.8v-0.6l1.7-1.7h0.6l10.8,10.8l0.8,2.4
			l-0.7,0.7l-2.4-0.8L10.5,10.8z"/>
	</g>
</g>
</svg>
