<?xml version="1.0" encoding="utf-8"?>
<!-- Generator: Adobe Illustrator 18.0.0, SVG Export Plug-In . SVG Version: 6.00 Build 0)  -->
<!DOCTYPE svg PUBLIC "-//W3C//DTD SVG 1.1//EN" "http://www.w3.org/Graphics/SVG/1.1/DTD/svg11.dtd">
<svg version="1.1" id="Layer_1" xmlns="http://www.w3.org/2000/svg" xmlns:xlink="http://www.w3.org/1999/xlink" x="0px" y="0px"
	 width="35px" height="35px" viewBox="0 0 35 35" enable-background="new 0 0 35 35" xml:space="preserve">
<g>
	<path d="M17.5,6C17.2,6,17,5.8,17,5.5v-2C17,3.2,17.2,3,17.5,3S18,3.2,18,3.5v2C18,5.8,17.8,6,17.5,6z"/>
</g>
<g>
	<path d="M22,29.5c-0.2,0-0.5-0.2-0.5-0.4c-0.2-1.8-2-3.1-4-3.1s-3.7,1.3-4,3.1c0,0.3-0.3,0.5-0.6,0.4c-0.3,0-0.5-0.3-0.4-0.6
		c0.3-2.2,2.4-3.9,5-3.9s4.6,1.7,5,3.9C22.5,29.2,22.3,29.5,22,29.5C22,29.5,22,29.5,22,29.5z"/>
</g>
<g>
	<path fill-rule="evenodd" clip-rule="evenodd" d="M12.3,23C12.3,23,12.3,23.1,12.3,23c-0.1,0.1-0.1,0.1-0.2,0.1c0,0,0,0.1-0.1,0.1
		c0,0,0,0,0,0l-3,5.5C9,28.8,9,28.9,9,29h1.1l2.7-5h9.4l2.7,5H26c0-0.1,0-0.2-0.1-0.2l-3-5.5c0,0,0,0,0,0c0,0,0-0.1-0.1-0.1
		c0,0-0.1,0-0.1-0.1c0,0-0.1,0-0.1,0c0,0-0.1,0-0.1,0c0,0,0,0-0.1,0h-10c0,0,0,0-0.1,0C12.4,23,12.4,23,12.3,23z"/>
</g>
<g>
	<polygon fill-rule="evenodd" clip-rule="evenodd" points="16,9 15.3,16 16.3,16 17,9 18,9 18.7,16 19.7,16 19,9 19.5,9 19.5,8 
		15.5,8 15.5,9 	"/>
</g>
<g>
	<path fill-rule="evenodd" clip-rule="evenodd" d="M14.9,18C14.9,18,14.8,18,14.9,18c-0.1,0-0.1,0-0.1,0.1c0,0-0.1,0-0.1,0.1
		c0,0,0,0,0,0c0,0-0.1,0.1-0.1,0.1c0,0,0,0,0,0L13.1,22h1.1l1.1-3h4.3l1.1,3h1.1l-1.4-3.7c0,0,0,0,0,0c0,0,0-0.1-0.1-0.1
		c0,0,0,0,0-0.1c0,0,0,0-0.1-0.1c0,0-0.1,0-0.1-0.1c0,0-0.1,0-0.1,0c0,0-0.1,0-0.1,0c0,0,0,0,0,0h-5C15,18,15,18,14.9,18
		C15,18,14.9,18,14.9,18z"/>
</g>
<rect x="16" y="5" width="3" height="1"/>
</svg>
