<?xml version="1.0" encoding="utf-8"?>
<!-- Generator: Adobe Illustrator 18.0.0, SVG Export Plug-In . SVG Version: 6.00 Build 0)  -->
<!DOCTYPE svg PUBLIC "-//W3C//DTD SVG 1.1//EN" "http://www.w3.org/Graphics/SVG/1.1/DTD/svg11.dtd">
<svg version="1.1" id="Layer_1" xmlns="http://www.w3.org/2000/svg" xmlns:xlink="http://www.w3.org/1999/xlink" x="0px" y="0px"
	 width="35px" height="35px" viewBox="0 0 35 35" enable-background="new 0 0 35 35" xml:space="preserve">
<g>
	<circle cx="22.5" cy="14.5" r="0.5"/>
</g>
<g>
	<path d="M27,26h-1V14.5c0-3.6-2.9-6.5-6.5-6.5H11V7h8.5c4.1,0,7.5,3.4,7.5,7.5V26z"/>
</g>
<g>
	<path fill="none" stroke="#000000" stroke-linecap="round" stroke-miterlimit="10" d="M24.5,22"/>
</g>
<g>
	<path d="M29.2,29.9c0,0-0.1,0-0.1,0c-1.8-0.4-3.1-2-3.1-3.9c0-0.3,0.2-0.5,0.5-0.5S27,25.7,27,26c0,1.4,0.9,2.6,2.3,2.9
		c0.3,0.1,0.4,0.3,0.4,0.6C29.6,29.7,29.4,29.9,29.2,29.9z"/>
</g>
<g>
	<path d="M19,18c-4.1,0-8-3.9-8-8V8c0-0.3,0.2-0.5,0.5-0.5S12,7.7,12,8v2c0,3.6,3.4,7,7,7c0.3,0,0.5,0.2,0.5,0.5S19.3,18,19,18z"/>
</g>
<g>
	<rect x="22" y="19" width="1" height="9"/>
</g>
<g>
	<path d="M11,21.5c-1.5,0-2.8,0.4-4,1.2v1.2c1.1-0.9,2.5-1.4,4-1.4c3.2,0,5.9,2.4,6.4,5.5h1C17.9,24.3,14.8,21.5,11,21.5z"/>
</g>
<g>
	<rect x="17.5" y="27" width="5.5" height="1"/>
</g>
<g>
	<g>
		<path d="M11,9H7C6.7,9,6.5,8.8,6.5,8.5S6.7,8,7,8h4c0.3,0,0.5,0.2,0.5,0.5S11.3,9,11,9z"/>
	</g>
</g>
<g>
	<path d="M24.5,22.4c-0.3,0-0.5-0.2-0.5-0.5c0-1.4-0.9-2.6-2.3-2.9c-0.3-0.1-0.4-0.3-0.4-0.6c0.1-0.3,0.3-0.4,0.6-0.4
		c1.8,0.4,3.1,2,3.1,3.9C25,22.2,24.8,22.4,24.5,22.4z"/>
</g>
</svg>
