<?xml version="1.0" encoding="utf-8"?>
<!-- Generator: Adobe Illustrator 18.0.0, SVG Export Plug-In . SVG Version: 6.00 Build 0)  -->
<!DOCTYPE svg PUBLIC "-//W3C//DTD SVG 1.1//EN" "http://www.w3.org/Graphics/SVG/1.1/DTD/svg11.dtd">
<svg version="1.1" id="Layer_1" xmlns="http://www.w3.org/2000/svg" xmlns:xlink="http://www.w3.org/1999/xlink" x="0px" y="0px"
	 width="35px" height="35px" viewBox="0 0 35 35" enable-background="new 0 0 35 35" xml:space="preserve">
<g>
	<path d="M26,23c-1.6,1.8-3.9,3-6.5,3c-4.2,0-7.7-3-8.4-7h12.1l0.4-1H11c0-0.2,0-0.3,0-0.5s0-0.3,0-0.5h13l0.4-1H11.1
		c0.7-4,4.2-7,8.4-7c2.6,0,4.9,1.2,6.5,3l0.4-1c-1.7-1.8-4.2-3-6.9-3c-4.7,0-8.6,3.5-9.4,8H8.4L8,17h2c0,0.2,0,0.3,0,0.5
		s0,0.3,0,0.5H8.4L8,19h2.1c0.7,4.5,4.6,8,9.4,8c2.5,0,4.8-1,6.5-2.6V23z"/>
</g>
</svg>
