<?xml version="1.0" encoding="utf-8"?>
<!-- Generator: Adobe Illustrator 18.0.0, SVG Export Plug-In . SVG Version: 6.00 Build 0)  -->
<!DOCTYPE svg PUBLIC "-//W3C//DTD SVG 1.1//EN" "http://www.w3.org/Graphics/SVG/1.1/DTD/svg11.dtd">
<svg version="1.1" id="Layer_1" xmlns="http://www.w3.org/2000/svg" xmlns:xlink="http://www.w3.org/1999/xlink" x="0px" y="0px"
	 width="35px" height="35px" viewBox="0 0 35 35" enable-background="new 0 0 35 35" xml:space="preserve">
<path d="M23.838,27l1.16-7.422c0.029-0.188-0.05-0.377-0.205-0.488L23,17.809v-7.044l-0.182-0.151
	c-1.03-0.848-3.034-1.497-4.822-1.594C17.996,9.013,18,9.007,18,9V5c0-0.276-0.224-0.5-0.5-0.5S17,4.724,17,5v4
	c0,0.008,0.004,0.014,0.004,0.022c-1.864,0.107-3.828,0.743-4.829,1.598L12,10.77v6.991l-1.7,1.199
	c-0.154,0.109-0.234,0.295-0.208,0.483L11.17,27H9v1h2.499c0.462,1,1.876,2,4.501,2v-1c-2.359,0-3.512-1.343-3.768-1.685
	l-1.099-7.71L17,15.468V28c0,0.276,0.224,0.5,0.5,0.5S18,28.277,18,28V15.476l5.954,4.253l-1.186,7.588
	c-0.252,0.347-1.407,1.74-3.768,1.74v1c2.625,0,4.042-1.057,4.505-2.057H26v-1H23.838z M22,17.095l-4.207-3.005
	c-0.005-0.003-0.01-0.003-0.014-0.006c-0.033-0.022-0.07-0.034-0.106-0.048c-0.025-0.009-0.048-0.023-0.073-0.028
	c-0.037-0.008-0.075-0.004-0.113-0.003c-0.026,0.001-0.052-0.003-0.077,0.002c-0.034,0.006-0.065,0.023-0.098,0.037
	c-0.029,0.012-0.058,0.02-0.084,0.037c-0.005,0.004-0.012,0.004-0.017,0.008L13,17.056v-5.813C13.978,10.536,15.907,10,17.543,10
	c1.558,0,3.451,0.538,4.457,1.248V17.095z M15,14h1v-1h3v1h1v-2h-5V14z"/>
</svg>
