<?xml version="1.0" encoding="utf-8"?>
<!-- Generator: Adobe Illustrator 18.0.0, SVG Export Plug-In . SVG Version: 6.00 Build 0)  -->
<!DOCTYPE svg PUBLIC "-//W3C//DTD SVG 1.1//EN" "http://www.w3.org/Graphics/SVG/1.1/DTD/svg11.dtd">
<svg version="1.1" id="Layer_1" xmlns="http://www.w3.org/2000/svg" xmlns:xlink="http://www.w3.org/1999/xlink" x="0px" y="0px"
	 width="35px" height="35px" viewBox="0 0 35 35" enable-background="new 0 0 35 35" xml:space="preserve">
<g>
	<polygon points="22,13 16,13 16,7 17,7 17,12 22,12 	"/>
</g>
<path d="M27,16v7H11v-7H27 M28,15H10v9h18V15L28,15z"/>
<polygon points="21,24 21,27 8,27 8,8 16.6,8 21,12.4 21,16 22,16 22,12 17,7 7,7 7,28 22,28 22,24 "/>
<rect x="12" y="17" width="1" height="5"/>
<rect x="12" y="17" width="3" height="1"/>
<rect x="12" y="19" width="3" height="1"/>
<rect x="15" y="18" width="1" height="1"/>
<rect x="17" y="17" width="1" height="5"/>
<rect x="18" y="17" width="2" height="1"/>
<rect x="20" y="18" width="1" height="3"/>
<rect x="18" y="21" width="2" height="1"/>
<rect x="22" y="17" width="1" height="5"/>
<rect x="23" y="17" width="3" height="1"/>
<rect x="23" y="19" width="2" height="1"/>
</svg>
