<svg id="Layer_1" data-name="Layer 1" xmlns="http://www.w3.org/2000/svg" width="35" height="35" viewBox="0 0 35 35"><title>icoon_filter</title><path d="M10.5,13a0.5,0.5,0,0,1-.5-0.5v-4a0.5,0.5,0,0,1,1,0v4A0.5,0.5,0,0,1,10.5,13Z"/><path d="M10.5,27a0.5,0.5,0,0,1-.5-0.5V18.312a0.5,0.5,0,0,1,1,0V26.5A0.5,0.5,0,0,1,10.5,27Z"/><path d="M11.5,14.9a0.5,0.5,0,0,1,0,1h-2a0.5,0.5,0,0,1,0-1h2m0-1h-2a1.5,1.5,0,1,0,0,3h2a1.5,1.5,0,0,0,0-3h0Z"/><path d="M24.5,10.8a0.5,0.5,0,0,1-.5-0.5V8.5a0.5,0.5,0,1,1,1,0v1.8A0.5,0.5,0,0,1,24.5,10.8Z"/><path d="M24.5,27a0.5,0.5,0,0,1-.5-0.5V16.512a0.5,0.5,0,1,1,1,0V26.5A0.5,0.5,0,0,1,24.5,27Z"/><path d="M25.5,12.9a0.5,0.5,0,0,1,0,1h-2a0.5,0.5,0,0,1,0-1h2m0-1h-2a1.5,1.5,0,0,0,0,3h2a1.5,1.5,0,0,0,0-3h0Z"/><path d="M17.5,27a0.5,0.5,0,0,1-.5-0.5V22.512a0.5,0.5,0,1,1,1,0V26.5A0.5,0.5,0,0,1,17.5,27Z"/><path d="M17.5,17.2a0.5,0.5,0,0,1-.5-0.5V8.5a0.5,0.5,0,1,1,1,0v8.2A0.5,0.5,0,0,1,17.5,17.2Z"/><path d="M18.5,19.112a0.5,0.5,0,0,1,0,1h-2a0.5,0.5,0,0,1,0-1h2m0-1h-2a1.5,1.5,0,0,0,0,3h2a1.5,1.5,0,0,0,0-3h0Z"/></svg>