<svg xmlns="http://www.w3.org/2000/svg" width="35" height="35" viewBox="0 0 35 35"><title>NS_icons-TDH</title><path d="M17.5,26l-.356-.357c-.271-.271-6.637-6.652-7.5-7.584A5.573,5.573,0,0,1,8,14.162,5.205,5.205,0,0,1,13.236,9,4.861,4.861,0,0,1,17.5,11.5,4.854,4.854,0,0,1,21.763,9a5.251,5.251,0,0,1,3.7,1.505h0A5.092,5.092,0,0,1,27,14.162a5.576,5.576,0,0,1-1.645,3.9c-.863.932-7.229,7.312-7.5,7.584ZM13.236,9.986A4.211,4.211,0,0,0,9,14.162,4.639,4.639,0,0,0,10.383,17.4c.734.793,5.729,5.808,7.117,7.2,1.388-1.392,6.382-6.407,7.117-7.2A4.642,4.642,0,0,0,26,14.162,4.119,4.119,0,0,0,24.76,11.2h0a4.246,4.246,0,0,0-3-1.219,4.043,4.043,0,0,0-3.794,2.845l-.467,1.24-.47-1.238A4.058,4.058,0,0,0,13.236,9.986Z"/></svg>