<svg id="Layer_1" data-name="Layer 1" xmlns="http://www.w3.org/2000/svg" width="35" height="35" viewBox="0 0 35 35"><defs><style>.cls-1{fill:none;}</style></defs><title>startpagina</title><rect class="cls-1" width="35" height="35"/><path d="M104.854,90.9L95.5,81.549,86.147,90.9a0.5,0.5,0,0,0,.707.707L89,89.463v10.793h13V89.464l2.146,2.146A0.5,0.5,0,1,0,104.854,90.9ZM94,99.256v-6h3v6H94Zm7,0H98v-6a1,1,0,0,0-1-1H94a1,1,0,0,0-1,1v6H90V88.463l5.5-5.5,4.292,4.293L101,88.464V99.256Z" transform="translate(-78 -73.402)"/></svg>