<?xml version="1.0" encoding="utf-8"?>
<!-- Generator: Adobe Illustrator 18.0.0, SVG Export Plug-In . SVG Version: 6.00 Build 0)  -->
<!DOCTYPE svg PUBLIC "-//W3C//DTD SVG 1.1//EN" "http://www.w3.org/Graphics/SVG/1.1/DTD/svg11.dtd">
<svg version="1.1" id="Layer_1" xmlns="http://www.w3.org/2000/svg" xmlns:xlink="http://www.w3.org/1999/xlink" x="0px" y="0px"
	 width="35px" height="35px" viewBox="0 0 35 35" enable-background="new 0 0 35 35" xml:space="preserve">
<g>
	<g>
		<path d="M17.5,27.5c-5.514,0-10-4.486-10-10s4.486-10,10-10s10,4.486,10,10S23.014,27.5,17.5,27.5z M17.5,8.5
			c-4.962,0-9,4.038-9,9s4.038,9,9,9s9-4.038,9-9S22.462,8.5,17.5,8.5z"/>
	</g>
</g>
<g>
	<path d="M17.5,14L17.5,14c-0.414,0-0.75-0.336-0.75-0.75v0c0-0.414,0.336-0.75,0.75-0.75l0,0c0.414,0,0.75,0.336,0.75,0.75v0
		C18.25,13.664,17.914,14,17.5,14z"/>
</g>
<g>
	<path d="M17.5,16c-0.276,0-0.5,0.224-0.5,0.5V23h1v-6.5C18,16.224,17.776,16,17.5,16z"/>
</g>
</svg>
