<svg id="Layer_1" data-name="Layer 1" xmlns="http://www.w3.org/2000/svg" width="35" height="35" viewBox="0 0 35 35"><defs><style>.cls-1{fill:none;}</style></defs><title>facturen</title><rect class="cls-1" width="35" height="35"/><path d="M191.8,80.45l-0.122-.048h-9.756v21h15V85.5Zm0.122,1.462,3.341,3.49h-3.341v-3.49Zm4,18.49h-13v-19h8v5h5v14Z" transform="translate(-171.922 -73.402)"/><rect x="14" y="16" width="2" height="1"/><rect x="17" y="16" width="2" height="1"/><rect x="20" y="16" width="1" height="1"/><rect x="14" y="20" width="2" height="1"/><rect x="14" y="18" width="2" height="1"/><rect x="17" y="20" width="2" height="1"/><rect x="17" y="18" width="2" height="1"/><rect x="20" y="20" width="1" height="1"/><rect x="20" y="18" width="1" height="1"/><rect x="18" y="23" width="3" height="1"/></svg>