<?xml version="1.0" encoding="utf-8"?>
<!-- Generator: Adobe Illustrator 18.0.0, SVG Export Plug-In . SVG Version: 6.00 Build 0)  -->
<!DOCTYPE svg PUBLIC "-//W3C//DTD SVG 1.1//EN" "http://www.w3.org/Graphics/SVG/1.1/DTD/svg11.dtd">
<svg version="1.1" id="Layer_1" xmlns="http://www.w3.org/2000/svg" xmlns:xlink="http://www.w3.org/1999/xlink" x="0px" y="0px"
	 width="35px" height="35px" viewBox="0 0 35 35" enable-background="new 0 0 35 35" xml:space="preserve">
<g>
	<rect x="17" y="13.8" width="1" height="8.9"/>
</g>
<g>
	<circle cx="17.5" cy="14" r="1"/>
</g>
<g>
	<path d="M20.5,23h-6c-0.3,0-0.5-0.2-0.5-0.5s0.2-0.5,0.5-0.5h6c0.3,0,0.5,0.2,0.5,0.5S20.8,23,20.5,23z"/>
</g>
<g>
	<path d="M20.5,25h-6c-0.3,0-0.5-0.2-0.5-0.5s0.2-0.5,0.5-0.5h6c0.3,0,0.5,0.2,0.5,0.5S20.8,25,20.5,25z"/>
</g>
<path d="M14.1,26c0.7,1,2,2,3.4,2s2.8-1,3.4-2H14.1z"/>
<g>
	<path d="M17.5,5.7c-0.3,0-0.5-0.2-0.5-0.5V2c0-0.3,0.2-0.5,0.5-0.5S18,1.7,18,2v3.2C18,5.5,17.8,5.7,17.5,5.7z"/>
</g>
<g>
	<path d="M14.8,6.1c-0.2,0-0.4-0.1-0.4-0.3l-1.3-2.6c-0.1-0.2,0-0.5,0.2-0.7c0.2-0.1,0.5,0,0.7,0.2l1.3,2.6c0.1,0.2,0,0.5-0.2,0.7
		C14.9,6.1,14.9,6.1,14.8,6.1z"/>
</g>
<g>
	<path d="M20.2,6.1c-0.1,0-0.2,0-0.2-0.1c-0.2-0.1-0.3-0.4-0.2-0.7l1.3-2.6c0.1-0.2,0.4-0.3,0.7-0.2C22,2.7,22.1,3,21.9,3.2
		l-1.3,2.6C20.6,6,20.4,6.1,20.2,6.1z"/>
</g>
<path d="M17.5,7c-2.8,0-5.8,1.4-6.4,4.6c-0.3,1.7,0,3.5,0.8,5.3c0.2,0.5,0.4,0.9,0.7,1.4c0.4,0.9,0.8,1.6,1.1,2.6h1
	c-0.3-1-0.8-2.1-1.3-3.1c-0.2-0.5-0.5-0.9-0.7-1.4c-0.7-1.7-0.9-3.2-0.7-4.7c0.4-2.6,3-3.8,5.4-3.8c2.4,0,5,1.2,5.4,3.8
	c0.3,1.5,0,3.1-0.7,4.7c-0.2,0.4-0.4,0.9-0.6,1.4c-0.5,1-1,2.1-1.3,3.1h1c0.3-1,0.7-1.8,1.1-2.7c0.2-0.5,0.5-1,0.7-1.4
	c0.8-1.8,1-3.6,0.8-5.3C23.4,8.4,20.3,7,17.5,7z"/>
</svg>
