<svg xmlns="http://www.w3.org/2000/svg" width="35" height="35" viewBox="0 0 35 35"><title>NS_icons-TDH</title><path d="M26.609,18.708a3.439,3.439,0,0,0,.7-2.159,2.543,2.543,0,0,0-.333-1.345,1.46,1.46,0,0,0-1.278-.7H23.075c1.425-2.591,1.785-4.543,1.07-5.807A2.391,2.391,0,0,0,22.1,7.5a.5.5,0,0,0-.5.433,7.91,7.91,0,0,1-2.769,4.318,15.548,15.548,0,0,1-5.285,3.11A1.5,1.5,0,0,0,12.2,14.5h-3A1.5,1.5,0,0,0,7.7,16v9a1.5,1.5,0,0,0,1.5,1.5h3a1.5,1.5,0,0,0,1.4-.952A8.267,8.267,0,0,1,17,26.571c.9.478,1.739.93,4.5.93a3.474,3.474,0,0,0,1.909-.529,2.087,2.087,0,0,0,.927-1.343,2.108,2.108,0,0,0,1.023-1.092,4.364,4.364,0,0,0,.435-1.761,2.139,2.139,0,0,0-.018-.274,2.3,2.3,0,0,0,.667-.851,4.318,4.318,0,0,0,.433-1.826,2.119,2.119,0,0,0-.234-1.051c-.013-.023-.026-.044-.039-.065ZM12.193,25.5h-3a.5.5,0,0,1-.5-.5V16a.5.5,0,0,1,.5-.5h3a.5.5,0,0,1,.5.5v9h0A.5.5,0,0,1,12.193,25.5Zm13.839-7.726c-.15.3-.3.413-.37.413a.5.5,0,0,0,0,1c.042,0,.072,0,.117.078a1.222,1.222,0,0,1,.1.559,3.315,3.315,0,0,1-.328,1.382c-.2.4-.4.544-.487.544a.5.5,0,0,0-.269.922,3.217,3.217,0,0,1-.5,1.718c-.145.209-.3.329-.419.329a.5.5,0,0,0-.5.5c0,.88-.972,1.281-1.875,1.281-2.513,0-3.217-.376-4.031-.812a9.257,9.257,0,0,0-3.781-1.134V16.367A16.546,16.546,0,0,0,19.5,12.994,9.375,9.375,0,0,0,22.5,8.568a1.351,1.351,0,0,1,.776.617c.334.591.584,2.1-1.493,5.558a.5.5,0,0,0,.429.758h3.483a.455.455,0,0,1,.43.234,1.585,1.585,0,0,1,.182.814,2.9,2.9,0,0,1-.273,1.226Z"/></svg>