<?xml version="1.0" encoding="utf-8"?>
<!-- Generator: Adobe Illustrator 18.0.0, SVG Export Plug-In . SVG Version: 6.00 Build 0)  -->
<!DOCTYPE svg PUBLIC "-//W3C//DTD SVG 1.1//EN" "http://www.w3.org/Graphics/SVG/1.1/DTD/svg11.dtd">
<svg version="1.1" id="Layer_1" xmlns="http://www.w3.org/2000/svg" xmlns:xlink="http://www.w3.org/1999/xlink" x="0px" y="0px"
	 width="35px" height="35px" viewBox="0 0.5 35 35" enable-background="new 0 0.5 35 35" xml:space="preserve">
<g>
	<g>
		<path d="M27,23.6c0,1.1-0.9,1.9-1.9,1.9H9.9c-1.1,0-1.9-0.9-1.9-1.9V13.5c0-1.1,0.9-1.9,1.9-1.9h15.2c1.1,0,1.9,0.9,1.9,1.9V23.6z
			 M26,13.5c0-0.5-0.4-0.9-0.9-0.9H9.9C9.4,12.5,9,13,9,13.5v10.2c0,0.5,0.4,0.9,0.9,0.9h15.2c0.5,0,0.9-0.4,0.9-0.9V13.5z"/>
	</g>
</g>
<g>
	<polygon points="10,13.7 10,15 17.5,21.2 25,15 25,13.7 17.5,19.9 	"/>
</g>
</svg>
