<?xml version="1.0" encoding="utf-8"?>
<!-- Generator: Adobe Illustrator 18.0.0, SVG Export Plug-In . SVG Version: 6.00 Build 0)  -->
<!DOCTYPE svg PUBLIC "-//W3C//DTD SVG 1.1//EN" "http://www.w3.org/Graphics/SVG/1.1/DTD/svg11.dtd">
<svg version="1.1" id="Layer_1" xmlns="http://www.w3.org/2000/svg" xmlns:xlink="http://www.w3.org/1999/xlink" x="0px" y="0px"
	 width="35px" height="35px" viewBox="0 0 35 35" enable-background="new 0 0 35 35" xml:space="preserve">
<path d="M26.265,27.748l-6.376-10.93l3.376-3.376c0.175-0.175,0.184-0.443,0.046-0.638c-0.227-0.45-0.49-0.831-0.808-1.15
	c-0.428-0.428-0.928-0.76-1.485-0.986c-1.076-0.437-2.303-0.437-3.379,0c-0.511,0.208-0.967,0.515-1.372,0.894
	c-0.006,0.003-0.013,0.003-0.019,0.006c-0.238,0.139-0.319,0.445-0.18,0.684l2.569,4.404L16,19.293v-4.145l-1-1.8v6.945
	l-4.001,4.001c-0.195,0.195-0.195,0.512,0,0.707c0.098,0.097,0.226,0.146,0.354,0.146c0.128,0,0.256-0.049,0.354-0.146l7.451-7.452
	l6.243,10.703c0.094,0.159,0.261,0.248,0.433,0.248c0.085,0,0.172-0.022,0.251-0.068C26.323,28.293,26.404,27.987,26.265,27.748z
	 M17.14,12.105c0.266-0.214,0.55-0.402,0.867-0.53c0.841-0.341,1.802-0.341,2.643,0c0.435,0.177,0.826,0.437,1.161,0.771
	c0.184,0.184,0.34,0.407,0.485,0.651l-2.927,2.927L17.14,12.105z M14.787,10.711c0.156,0.026,0.312,0.039,0.465,0.039
	c1.344,0,2.483-0.962,2.708-2.286c0.255-1.493-0.751-2.917-2.244-3.174c-1.525-0.263-2.922,0.768-3.177,2.245
	C12.285,9.029,13.293,10.454,14.787,10.711z M13.525,7.704c0.146-0.843,0.871-1.454,1.724-1.454c0.099,0,0.198,0.008,0.298,0.025
	c0.95,0.164,1.59,1.07,1.428,2.021c-0.161,0.939-1.06,1.589-2.019,1.429C14.005,9.562,13.363,8.655,13.525,7.704z M16.147,23.431
	C16.053,23.525,16,23.652,16,23.785V28c0,0.276,0.224,0.5,0.5,0.5S17,28.276,17,28v-4.008l2.394-2.393l-0.505-0.91L16.147,23.431z
	 M11.074,27.062c-0.585,0.583-1.537,0.584-2.122,0c-0.584-0.585-0.584-1.537,0-2.122l1.061-1.062l-0.707-0.707l-1.061,1.061
	c-0.974,0.975-0.974,2.561,0,3.536c0.488,0.487,1.128,0.731,1.768,0.731s1.28-0.244,1.767-0.731l1.061-1.061L12.134,26
	L11.074,27.062z"/>
</svg>
