<?xml version="1.0" encoding="utf-8"?>
<!-- Generator: Adobe Illustrator 19.0.0, SVG Export Plug-In . SVG Version: 6.00 Build 0)  -->
<svg version="1.1" id="Layer_1" xmlns="http://www.w3.org/2000/svg" xmlns:xlink="http://www.w3.org/1999/xlink" x="0px" y="0px"
	 width="35px" height="35px" viewBox="-288 379 35 35" style="enable-background:new -288 379 35 35;" xml:space="preserve">
<style type="text/css">
	.st0{fill-rule:evenodd;clip-rule:evenodd;}
</style>
<title>icoon/koffie_beker_NS_Blue</title>
<desc>Created with Sketch.</desc>
<path d="M-272.75,392c0.413,0,0.75,0.339,0.75,0.755V399c0,0.276,0.224,0.5,0.5,0.5s0.5-0.224,0.5-0.5v-6.245
	c0-0.968-0.784-1.755-1.75-1.755H-274c-0.276,0-0.5,0.224-0.5,0.5s0.224,0.5,0.5,0.5H-272.75z"/>
<path d="M-277.25,386.75c0-0.966,0.784-1.75,1.75-1.75s1.75,0.784,1.75,1.75s-0.784,1.75-1.75,1.75S-277.25,387.716-277.25,386.75z
	 M-272.75,386.75c0-1.519-1.231-2.75-2.75-2.75s-2.75,1.231-2.75,2.75s1.231,2.75,2.75,2.75S-272.75,388.269-272.75,386.75z"/>
<path d="M-278.25,391c-0.966,0-1.75,0.788-1.75,1.755V399c0,0.276,0.224,0.5,0.5,0.5s0.5-0.224,0.5-0.5v-6.245
	c0-0.417,0.337-0.755,0.75-0.755h1.25c0.276,0,0.5-0.224,0.5-0.5s-0.224-0.5-0.5-0.5H-278.25z"/>
<path class="st0" d="M-278,399h1v8.49c0,0.281-0.232,0.51-0.5,0.51c-0.276,0-0.5-0.222-0.5-0.51V399z"/>
<path class="st0" d="M-274,399h1v8.49c0,0.281-0.232,0.51-0.5,0.51c-0.276,0-0.5-0.222-0.5-0.51V399z"/>
<path d="M-263.309,392.81l1.315,8.764c0.041,0.273,0.296,0.461,0.569,0.42c0.273-0.041,0.461-0.296,0.42-0.569l-1.315-8.764
	c-0.137-0.911-0.857-1.662-1.68-1.662c-0.276,0-0.5,0.224-0.5,0.5s0.224,0.5,0.5,0.5C-263.717,392-263.378,392.354-263.309,392.81z"
	/>
<path d="M-267.25,386.75c0-0.966,0.784-1.75,1.75-1.75s1.75,0.784,1.75,1.75s-0.784,1.75-1.75,1.75S-267.25,387.716-267.25,386.75z
	 M-262.75,386.75c0-1.519-1.231-2.75-2.75-2.75s-2.75,1.231-2.75,2.75s1.231,2.75,2.75,2.75S-262.75,388.269-262.75,386.75z"/>
<path d="M-268.68,392.662l-1.315,8.764c-0.041,0.273,0.147,0.528,0.42,0.569c0.273,0.041,0.528-0.147,0.569-0.42l1.315-8.764
	c0.068-0.456,0.408-0.81,0.691-0.81c0.276,0,0.5-0.224,0.5-0.5s-0.224-0.5-0.5-0.5C-267.823,391-268.543,391.751-268.68,392.662z"/>
<path d="M-261.5,402c0.276,0,0.5-0.224,0.5-0.5s-0.224-0.5-0.5-0.5h-8c-0.276,0-0.5,0.224-0.5,0.5s0.224,0.5,0.5,0.5H-261.5z"/>
<path class="st0" d="M-268,403h1v4.502c0,0.275-0.232,0.498-0.5,0.498c-0.276,0-0.5-0.215-0.5-0.498V403z"/>
<path class="st0" d="M-264,403h1v4.502c0,0.275-0.232,0.498-0.5,0.498c-0.276,0-0.5-0.215-0.5-0.498V403z"/>
</svg>
