<?xml version="1.0" encoding="utf-8"?>
<!-- Generator: Adobe Illustrator 18.0.0, SVG Export Plug-In . SVG Version: 6.00 Build 0)  -->
<!DOCTYPE svg PUBLIC "-//W3C//DTD SVG 1.1//EN" "http://www.w3.org/Graphics/SVG/1.1/DTD/svg11.dtd">
<svg version="1.1" id="Layer_1" xmlns="http://www.w3.org/2000/svg" xmlns:xlink="http://www.w3.org/1999/xlink" x="0px" y="0px"
	 width="35px" height="35px" viewBox="0 0 35 35" enable-background="new 0 0 35 35" xml:space="preserve">
<g>
	<g>
		<g>
			<path d="M14.5,28c-0.097,0-0.194-0.028-0.277-0.084l-6-4C8.083,23.823,8,23.667,8,23.5v-16c0-0.185,0.102-0.354,0.264-0.441
				c0.162-0.087,0.36-0.077,0.513,0.025l6,4C14.917,11.177,15,11.333,15,11.5v16c0,0.185-0.102,0.354-0.264,0.441
				C14.662,27.981,14.581,28,14.5,28z M9,23.233l5,3.333V11.768L9,8.434V23.233z"/>
		</g>
	</g>
	<g>
		<g>
			<path d="M14.5,28c-0.081,0-0.162-0.02-0.236-0.059C14.102,27.854,14,27.685,14,27.5v-16c0-0.167,0.083-0.323,0.223-0.416l6-4
				c0.153-0.102,0.351-0.112,0.513-0.025C20.898,7.146,21,7.316,21,7.5v16c0,0.167-0.083,0.323-0.223,0.416l-6,4
				C14.694,27.972,14.597,28,14.5,28z M15,11.768v14.798l5-3.333V8.434L15,11.768z"/>
		</g>
	</g>
	<g>
		<g>
			<path d="M26.5,28c-0.097,0-0.194-0.028-0.277-0.084l-6-4C20.083,23.823,20,23.667,20,23.5v-16c0-0.185,0.102-0.354,0.264-0.441
				c0.162-0.087,0.36-0.077,0.513,0.025l6,4C26.917,11.177,27,11.333,27,11.5v16c0,0.185-0.102,0.354-0.264,0.441
				C26.662,27.981,26.581,28,26.5,28z M21,23.233l5,3.333V11.768l-5-3.333V23.233z"/>
		</g>
	</g>
</g>
</svg>
