<?xml version="1.0" encoding="utf-8"?>
<!-- Generator: Adobe Illustrator 18.0.0, SVG Export Plug-In . SVG Version: 6.00 Build 0)  -->
<!DOCTYPE svg PUBLIC "-//W3C//DTD SVG 1.1//EN" "http://www.w3.org/Graphics/SVG/1.1/DTD/svg11.dtd">
<svg version="1.1" id="Layer_1" xmlns="http://www.w3.org/2000/svg" xmlns:xlink="http://www.w3.org/1999/xlink" x="0px" y="0px"
	 width="35px" height="35px" viewBox="0 0 35 35" enable-background="new 0 0 35 35" xml:space="preserve">
<path d="M26,26H9c-0.3,0-0.5-0.2-0.5-0.5S8.7,25,9,25h17c0.3,0,0.5,0.2,0.5,0.5S26.3,26,26,26z"/>
<path d="M26,16H9c-0.3,0-0.5-0.2-0.5-0.5S8.7,15,9,15h17c0.3,0,0.5,0.2,0.5,0.5S26.3,16,26,16z"/>
<path d="M26,21H9c-0.3,0-0.5-0.2-0.5-0.5S8.7,20,9,20h17c0.3,0,0.5,0.2,0.5,0.5S26.3,21,26,21z"/>
<path d="M26,11H9c-0.3,0-0.5-0.2-0.5-0.5S8.7,10,9,10h17c0.3,0,0.5,0.2,0.5,0.5S26.3,11,26,11z"/>
</svg>
