<?xml version="1.0" encoding="utf-8"?>
<!-- Generator: Adobe Illustrator 18.0.0, SVG Export Plug-In . SVG Version: 6.00 Build 0)  -->
<!DOCTYPE svg PUBLIC "-//W3C//DTD SVG 1.1//EN" "http://www.w3.org/Graphics/SVG/1.1/DTD/svg11.dtd">
<svg version="1.1" id="Layer_1" xmlns="http://www.w3.org/2000/svg" xmlns:xlink="http://www.w3.org/1999/xlink" x="0px" y="0px"
	 width="35px" height="35px" viewBox="0 0 35 35" enable-background="new 0 0 35 35" xml:space="preserve">
<path d="M25.5,9C25.776,9,26,9.224,26,9.5v16c0,0.276-0.224,0.5-0.5,0.5h-16C9.224,26,9,25.776,9,25.5v-16C9,9.224,9.224,9,9.5,9
	H25.5 M25.5,8h-16C8.672,8,8,8.672,8,9.5v16C8,26.328,8.672,27,9.5,27h16c0.828,0,1.5-0.672,1.5-1.5v-16C27,8.672,26.328,8,25.5,8
	L25.5,8z"/>
<polygon points="20.831,13 17.5,21.225 14.169,13 13,13 13,22 14,22 14,14.714 16.951,22 18.049,22 21,14.715 21,22 22,22 22,13 "/>
</svg>
