<?xml version="1.0" encoding="utf-8"?>
<!-- Generator: Adobe Illustrator 18.0.0, SVG Export Plug-In . SVG Version: 6.00 Build 0)  -->
<!DOCTYPE svg PUBLIC "-//W3C//DTD SVG 1.1//EN" "http://www.w3.org/Graphics/SVG/1.1/DTD/svg11.dtd">
<svg version="1.1" id="Layer_1" xmlns="http://www.w3.org/2000/svg" xmlns:xlink="http://www.w3.org/1999/xlink" x="0px" y="0px"
	 width="35px" height="35px" viewBox="0 0 35 35" enable-background="new 0 0 35 35" xml:space="preserve">
<path d="M21.4,15.2H20l2,2h-2.7c-0.1,0-0.2-0.1-0.3-0.2l-1.4-1.4c-0.3-0.3-0.6-0.4-1-0.4h-2.9l-2.5,2.5l2.5,2.5H15l-2-2h2.7
	c0.1,0,0.2,0,0.3,0.1l1.4,1.5c0.3,0.3,0.6,0.5,1,0.5h2.9l2.5-2.5L21.4,15.2z M21,19.2h-2.5c-0.1,0-0.2-0.1-0.3-0.2l-1.4-1.4
	c-0.3-0.3-0.6-0.4-1-0.4H13l1-1h2.5c0.1,0,0.3,0,0.4,0.1l1.1,1l0,0l0.4,0.5c0.3,0.3,0.5,0.5,0.9,0.5H22L21,19.2z"/>
<g>
	<g>
		<path d="M17.5,27.5c-5.5,0-10-4.5-10-10s4.5-10,10-10s10,4.5,10,10S23,27.5,17.5,27.5z M17.5,8.5c-5,0-9,4-9,9s4,9,9,9s9-4,9-9
			S22.5,8.5,17.5,8.5z"/>
	</g>
</g>
</svg>
