<?xml version="1.0" encoding="utf-8"?>
<!-- Generator: Adobe Illustrator 19.2.0, SVG Export Plug-In . SVG Version: 6.00 Build 0)  -->
<svg version="1.1" id="Layer_1" xmlns="http://www.w3.org/2000/svg" xmlns:xlink="http://www.w3.org/1999/xlink" x="0px" y="0px"
	 width="35px" height="35px" viewBox="0 0 35 35" enable-background="new 0 0 35 35" xml:space="preserve">
<path d="M9.931,22.437h2.759c0.566,0,1.132-0.212,1.627-0.637l7.427-7.427c0.141-0.141,0.354-0.212,0.495-0.212h2.688
	c0.354,0,0.637,0.212,0.707,0.566v0.071v5.235c0,0.354-0.283,0.637-0.566,0.637h-0.071h-1.344c-0.424-1.627-2.051-2.547-3.678-2.122
	c-1.627,0.424-2.547,2.051-2.122,3.678c0.424,1.627,2.051,2.547,3.678,2.122c0.99-0.283,1.768-1.061,2.051-1.981h1.485
	c1.203,0.071,2.264-0.92,2.264-2.122c0-0.071,0-0.071,0-0.141v-5.305c0.071-1.203-0.92-2.264-2.122-2.264c-0.071,0-0.071,0-0.141,0
	H22.31c-0.637,0-1.203,0.212-1.627,0.637l-7.427,7.427c-0.141,0.141-0.283,0.141-0.495,0.141h-2.759
	c-0.354,0-0.637-0.212-0.707-0.566v-0.071v-5.235c0-0.354,0.283-0.637,0.566-0.637h0.071h1.415c0.424,1.627,2.051,2.547,3.678,2.122
	c1.627-0.424,2.547-2.051,2.122-3.678c-0.424-1.627-2.051-2.547-3.678-2.122c-0.92,0.283-1.698,0.99-1.981,1.981H9.931
	c-1.203-0.071-2.264,0.92-2.264,2.122c0,0.071,0,0.071,0,0.141v5.305c-0.071,1.203,0.92,2.264,2.122,2.264
	C9.86,22.437,9.931,22.437,9.931,22.437z M20.683,23.215c-0.92,0-1.698-0.778-1.698-1.698c0-0.92,0.778-1.698,1.698-1.698
	c0.92,0,1.698,0.778,1.698,1.698C22.381,22.508,21.673,23.215,20.683,23.215z M14.317,11.756c0.92,0,1.698,0.778,1.698,1.698
	s-0.778,1.698-1.698,1.698c-0.92,0-1.698-0.778-1.698-1.698C12.69,12.463,13.397,11.756,14.317,11.756z"/>
</svg>
