<?xml version="1.0" encoding="utf-8"?>
<!-- Generator: Adobe Illustrator 19.0.0, SVG Export Plug-In . SVG Version: 6.00 Build 0)  -->
<svg version="1.1" id="Layer_1" xmlns="http://www.w3.org/2000/svg" xmlns:xlink="http://www.w3.org/1999/xlink" x="0px" y="0px"
	 width="35px" height="35px" viewBox="-288 379 35 35" style="enable-background:new -288 379 35 35;" xml:space="preserve">
<style type="text/css">
	.st0{fill-rule:evenodd;clip-rule:evenodd;}
</style>
<title>icoon/koffie_beker_NS_Blue</title>
<desc>Created with Sketch.</desc>
<polygon class="st0" points="-272.103,395.802 -270.643,395.802 -265.54,400.22 -260.437,395.802 -258.978,395.802 
	-264.827,400.992 -266.252,400.992 "/>
<path class="st0" d="M-276.622,404.363c-2.442,0-4.422-1.979-4.422-4.422c0-2.443,1.98-4.421,4.422-4.421
	c2.443,0,4.423,1.979,4.423,4.421S-274.178,404.363-276.622,404.363z M-276.622,394.516c-2.995,0-5.425,2.429-5.425,5.424
	s2.429,5.425,5.425,5.425c2.998,0,5.425-2.429,5.425-5.425C-271.197,396.945-273.625,394.516-276.622,394.516z"/>
<path class="st0" d="M-261.717,394.808l0.143-0.731c0.589,0.296,1.081,0.444,1.477,0.444c0.238,0,0.426-0.056,0.562-0.171
	c0.135-0.115,0.203-0.263,0.203-0.445c0-0.116-0.028-0.219-0.082-0.31c-0.055-0.093-0.159-0.221-0.316-0.387l-0.393-0.408
	c-0.332-0.347-0.539-0.611-0.626-0.792c-0.087-0.18-0.129-0.358-0.129-0.531c0-0.305,0.132-0.599,0.397-0.882
	c0.263-0.282,0.671-0.422,1.218-0.422c0.164,0,0.333,0.012,0.507,0.038c0.174,0.026,0.443,0.106,0.806,0.241l-0.143,0.731
	c-0.353-0.17-0.608-0.272-0.764-0.306c-0.155-0.035-0.305-0.051-0.447-0.051c-0.25,0-0.43,0.055-0.547,0.165
	c-0.117,0.111-0.175,0.241-0.175,0.394c0,0.1,0.027,0.197,0.078,0.29c0.052,0.094,0.182,0.248,0.389,0.463l0.428,0.441
	c0.237,0.244,0.404,0.458,0.504,0.647c0.099,0.189,0.15,0.392,0.15,0.612c0,0.398-0.152,0.719-0.453,0.966
	c-0.303,0.247-0.712,0.37-1.231,0.37c-0.151,0-0.307-0.012-0.468-0.038c-0.163-0.024-0.319-0.057-0.469-0.1
	C-261.252,394.991-261.457,394.916-261.717,394.808z M-262.566,395.084c-0.202,0.06-0.39,0.089-0.562,0.089
	c-0.401,0-0.708-0.095-0.924-0.286c-0.216-0.192-0.322-0.434-0.322-0.728c0-0.189,0.026-0.418,0.077-0.692l0.495-2.538h-0.699
	l0.126-0.653h0.701l0.169-0.868l0.875-0.111l-0.19,0.978h1.192l-0.138,0.653h-1.182l-0.513,2.633
	c-0.049,0.243-0.073,0.403-0.073,0.481c0,0.124,0.042,0.235,0.127,0.332c0.085,0.098,0.239,0.146,0.461,0.146
	c0.151,0,0.317-0.03,0.507-0.089L-262.566,395.084z M-268.46,392.647c0.515-0.05,0.91-0.137,1.183-0.256
	c0.276-0.12,0.493-0.282,0.652-0.483c0.16-0.2,0.239-0.394,0.239-0.58c0-0.117-0.048-0.227-0.14-0.327
	c-0.094-0.102-0.213-0.153-0.361-0.153c-0.199,0-0.395,0.065-0.595,0.195c-0.161,0.102-0.31,0.237-0.445,0.404
	c-0.109,0.132-0.205,0.276-0.29,0.434C-268.298,392.039-268.379,392.294-268.46,392.647z M-265.749,394.582
	c-0.742,0.393-1.442,0.59-2.097,0.59c-0.493,0-0.872-0.147-1.143-0.441c-0.269-0.294-0.403-0.693-0.403-1.199
	c0-0.549,0.124-1.08,0.372-1.595c0.247-0.515,0.583-0.937,1.009-1.27c0.424-0.333,0.884-0.498,1.382-0.498
	c0.346,0,0.61,0.085,0.794,0.251c0.183,0.168,0.276,0.404,0.276,0.706c0,0.361-0.113,0.693-0.339,0.998
	c-0.225,0.304-0.562,0.563-1.01,0.773c-0.448,0.212-0.989,0.344-1.629,0.396c0,0.407,0.087,0.709,0.261,0.899
	c0.174,0.192,0.402,0.286,0.68,0.286c0.221,0,0.519-0.061,0.892-0.179c0.373-0.119,0.745-0.304,1.119-0.558L-265.749,394.582z
	 M-270.888,389.407l0.173-0.868h0.882l-0.168,0.868H-270.888z M-271.989,395.063l0.932-4.788h0.886l-0.935,4.788H-271.989z"/>
<path class="st0" d="M-277.071,399.666l1.475-7.569h-0.986l0.167-0.842h0.982l0.055-0.278c0.161-0.843,0.425-1.543,1.053-2.083
	c0.233-0.201,0.504-0.365,0.754-0.451c0.242-0.082,0.551-0.128,0.962-0.128c0.317,0,0.597,0.056,0.967,0.171l-0.165,0.824
	c-0.264-0.108-0.553-0.168-0.972-0.168c-0.389,0-0.71,0.172-0.989,0.489c-0.28,0.317-0.496,0.82-0.624,1.508l-0.023,0.117h1.667
	l-0.167,0.842h-1.664l-1.48,7.569h-1.014V399.666z"/>
</svg>
