<?xml version="1.0" encoding="utf-8"?>
<!-- Generator: Adobe Illustrator 18.0.0, SVG Export Plug-In . SVG Version: 6.00 Build 0)  -->
<!DOCTYPE svg PUBLIC "-//W3C//DTD SVG 1.1//EN" "http://www.w3.org/Graphics/SVG/1.1/DTD/svg11.dtd">
<svg version="1.1" id="Layer_1" xmlns="http://www.w3.org/2000/svg" xmlns:xlink="http://www.w3.org/1999/xlink" x="0px" y="0px"
	 width="35px" height="35px" viewBox="0 0 35 35" enable-background="new 0 0 35 35" xml:space="preserve">
<g>
	<g>
		<path d="M12,15c-1.7,0-3-1.3-3-3s1.3-3,3-3s3,1.3,3,3S13.7,15,12,15z M12,10c-1.1,0-2,0.9-2,2s0.9,2,2,2s2-0.9,2-2S13.1,10,12,10z
			"/>
	</g>
</g>
<g>
	<g>
		<path d="M23,26c-1.7,0-3-1.3-3-3s1.3-3,3-3s3,1.3,3,3S24.7,26,23,26z M23,21c-1.1,0-2,0.9-2,2s0.9,2,2,2s2-0.9,2-2S24.1,21,23,21z
			"/>
	</g>
</g>
<g>
	<g>
		<path d="M10,25.5c-0.1,0-0.3,0-0.4-0.1c-0.2-0.2-0.2-0.5,0-0.7l15-15c0.2-0.2,0.5-0.2,0.7,0s0.2,0.5,0,0.7l-15,15
			C10.3,25.5,10.1,25.5,10,25.5z"/>
	</g>
</g>
</svg>
