<?xml version="1.0" encoding="utf-8"?>
<!-- Generator: Adobe Illustrator 18.0.0, SVG Export Plug-In . SVG Version: 6.00 Build 0)  -->
<!DOCTYPE svg PUBLIC "-//W3C//DTD SVG 1.1//EN" "http://www.w3.org/Graphics/SVG/1.1/DTD/svg11.dtd">
<svg version="1.1" id="Layer_1" xmlns="http://www.w3.org/2000/svg" xmlns:xlink="http://www.w3.org/1999/xlink" x="0px" y="0px"
	 width="35px" height="35px" viewBox="0 0.5 35 35" enable-background="new 0 0.5 35 35" xml:space="preserve">
<g>
	<circle fill="#231F20" cx="17.5" cy="26.6" r="1"/>
</g>
<g>
	<path fill="#231F20" d="M22,10.6v13h-9v-13H22 M23,9.6H12v15h11V9.6L23,9.6z"/>
</g>
<g>
	<path d="M23,7.6c0.6,0,1,0.4,1,1v19c0,0.6-0.4,1-1,1H12c-0.6,0-1-0.4-1-1v-19c0-0.6,0.4-1,1-1H23 M23,6.6H12c-1.1,0-2,0.9-2,2v19
		c0,1.1,0.9,2,2,2h11c1.1,0,2-0.9,2-2v-19C25,7.4,24.1,6.6,23,6.6L23,6.6z"/>
</g>
</svg>
