<?xml version="1.0" encoding="utf-8"?>
<!-- Generator: Adobe Illustrator 21.0.2, SVG Export Plug-In . SVG Version: 6.00 Build 0)  -->
<svg version="1.1" id="Layer_1" xmlns="http://www.w3.org/2000/svg" xmlns:xlink="http://www.w3.org/1999/xlink" x="0px" y="0px"
	 width="35px" height="36px" viewBox="0 0 35 36" style="enable-background:new 0 0 35 36;" xml:space="preserve">
<style type="text/css">
	.st0{fill:#FFFFFF;}
	.st1{fill:none;stroke:#000000;stroke-miterlimit:10;}
	.st2{fill:none;stroke:#000000;stroke-linecap:round;stroke-linejoin:round;stroke-miterlimit:10;}
	.st3{clip-path:url(#SVGID_2_);}
	.st4{clip-path:url(#SVGID_4_);}
	.st5{clip-path:url(#SVGID_6_);}
</style>
<g>
	<rect x="15" y="11" width="1" height="15"/>
	<rect x="21" y="16" width="1" height="10"/>
	<rect x="12" y="16" width="1" height="10"/>
	<rect x="18" y="11" width="1" height="15"/>
	<rect x="9" y="27" width="16" height="1"/>
	<path d="M22.5,8h-11C10.12109,8,9,9.12109,9,10.5V13c0,1.10254,0.89746,2,2,2s2-0.89746,2-2v-2h-1v2c0,0.55176-0.44824,1-1,1
		s-1-0.44824-1-1v-2.5C10,9.67285,10.67285,9,11.5,9h11c0.82715,0,1.5,0.67285,1.5,1.5V13c0,0.55176-0.44824,1-1,1s-1-0.44824-1-1
		v-2h-1v2c0,1.10254,0.89746,2,2,2s2-0.89746,2-2v-2.5C25,9.12109,23.87891,8,22.5,8z"/>
</g>
</svg>
