<?xml version="1.0" encoding="utf-8"?>
<!-- Generator: Adobe Illustrator 18.0.0, SVG Export Plug-In . SVG Version: 6.00 Build 0)  -->
<!DOCTYPE svg PUBLIC "-//W3C//DTD SVG 1.1//EN" "http://www.w3.org/Graphics/SVG/1.1/DTD/svg11.dtd">
<svg version="1.1" id="Layer_1" xmlns="http://www.w3.org/2000/svg" xmlns:xlink="http://www.w3.org/1999/xlink" x="0px" y="0px"
	 width="35px" height="35px" viewBox="0 0 35 35" enable-background="new 0 0 35 35" xml:space="preserve">
<path d="M17.5,28.8l-0.4-0.5C16.8,28,10,19.7,10,14c0-4.1,3.4-7.5,7.5-7.5S25,9.9,25,14c0,5.7-6.8,14-7.1,14.3L17.5,28.8z M17.5,7.5
	c-3.6,0-6.5,2.9-6.5,6.5c0,4.6,5.1,11.4,6.5,13.2C18.9,25.4,24,18.6,24,14C24,10.4,21.1,7.5,17.5,7.5z"/>
<path d="M17.5,17c-1.7,0-3-1.3-3-3s1.3-3,3-3s3,1.3,3,3S19.2,17,17.5,17z M17.5,12c-1.1,0-2,0.9-2,2s0.9,2,2,2s2-0.9,2-2
	S18.6,12,17.5,12z"/>
</svg>
