<?xml version="1.0" encoding="utf-8"?>
<!-- Generator: Adobe Illustrator 18.0.0, SVG Export Plug-In . SVG Version: 6.00 Build 0)  -->
<!DOCTYPE svg PUBLIC "-//W3C//DTD SVG 1.1//EN" "http://www.w3.org/Graphics/SVG/1.1/DTD/svg11.dtd">
<svg version="1.1" id="Layer_1" xmlns="http://www.w3.org/2000/svg" xmlns:xlink="http://www.w3.org/1999/xlink" x="0px" y="0px"
	 width="35px" height="35px" viewBox="0 0 35 35" enable-background="new 0 0 35 35" xml:space="preserve">
<path d="M26,16.5h-1v-2c0-0.276-0.224-0.5-0.5-0.5h-14c-0.276,0-0.5,0.224-0.5,0.5v2H9v-2c0-0.827,0.673-1.5,1.5-1.5h14
	c0.827,0,1.5,0.673,1.5,1.5V16.5z"/>
<polygon points="22,13 21,13 21,9 14,9 14,13 13,13 13,8 22,8 "/>
<g>
	<path d="M23.663,27H11.337l2.286-8h7.754L23.663,27z M12.663,26h9.674l-1.714-6h-6.246L12.663,26z"/>
</g>
<polygon points="9,18 9,22 13,22 14,21 10,21 10,19 25,19 25,21 21,21 22,22 26,22 26,18 "/>
</svg>
