<svg id="Layer_1" data-name="Layer 1" xmlns="http://www.w3.org/2000/svg" width="17.842" height="15.9" viewBox="0 0 17.842 15.9"><title>icoon_refresh</title><path d="M477.584,142.96a0.555,0.555,0,0,0,.395.16h0.01l4.286-.062a0.558,0.558,0,0,0,.19-0.036,0.572,0.572,0,0,0,.377-0.529,0.556,0.556,0,0,0-.165-0.39,0.562,0.562,0,0,0-.395-0.159h-0.007l-2.8.041,0.087-.087a7.906,7.906,0,0,0,2.313-5.6,7.729,7.729,0,0,0-2.332-5.535,7.957,7.957,0,0,0-5.624-2.288H473.8a0.587,0.587,0,0,0-.191.035,0.569,0.569,0,0,0-.377.53,0.541,0.541,0,0,0,.163.386,0.561,0.561,0,0,0,.4.162H473.9a6.849,6.849,0,0,1,4.842,1.971,6.64,6.64,0,0,1,2,4.756,6.8,6.8,0,0,1-2.109,4.945l-0.085.081-0.006-3.235a0.539,0.539,0,0,0-.162-0.388,0.556,0.556,0,0,0-.393-0.159h-0.012a0.569,0.569,0,0,0-.565.563l0.009,4.454A0.538,0.538,0,0,0,477.584,142.96Z" transform="translate(-465 -128.471)"/><path d="M465.963,136.547a7.729,7.729,0,0,0,2.33,5.534,7.962,7.962,0,0,0,5.627,2.29h0.124a0.557,0.557,0,0,0,.188-0.036,0.572,0.572,0,0,0,.378-0.528,0.544,0.544,0,0,0-.165-0.39,0.561,0.561,0,0,0-.4-0.158h-0.106a6.845,6.845,0,0,1-4.839-1.97,6.643,6.643,0,0,1-2-4.759,6.793,6.793,0,0,1,2.109-4.943l0.085-.081,0.006,3.235a0.537,0.537,0,0,0,.161.387,0.556,0.556,0,0,0,.4.161h0.008a0.61,0.61,0,0,0,.191-0.033,0.567,0.567,0,0,0,.376-0.531l-0.007-4.456a0.543,0.543,0,0,0-.163-0.386,0.566,0.566,0,0,0-.4-0.162h-0.006l-4.287.063a0.585,0.585,0,0,0-.189.035,0.571,0.571,0,0,0-.375.532,0.538,0.538,0,0,0,.162.386,0.558,0.558,0,0,0,.4.161h0.008l2.794-.043-0.086.087A7.914,7.914,0,0,0,465.963,136.547Z" transform="translate(-465 -128.471)"/></svg>