<svg xmlns="http://www.w3.org/2000/svg" width="35" height="36" viewBox="0 0 35 36"><title>restaurant--small</title><rect x="13" y="6" width="1" height="6.553"/><rect x="11" y="6" width="1" height="6.553"/><path d="M12.5,30a1.981,1.981,0,0,0,2-2l-.486-12.384.1-.031C15.183,15.251,16,14.8,16,12.341V6H15v6.341c0,1.92-.444,2.057-1.18,2.283-.166.051-.337.1-.507.173l-.327.132L13.5,28.015a1,1,0,0,1-2-.02l.514-13.066-.327-.132c-.17-.068-.341-.122-.507-.173C10.444,14.4,10,14.261,10,12.341V6H9v6.341c0,2.463.817,2.91,1.886,3.239l.1.031L10.5,27.976A1.986,1.986,0,0,0,12.5,30Z"/><path d="M22,30a2.015,2.015,0,0,1-2-2.026l.482-7.85-1.482-1v-7.41c0-4.466,4.341-5.555,4.385-5.565L24,6V27.974A2.015,2.015,0,0,1,22,30ZM20,18.58l1.517,1.025L21,28.005a1,1,0,0,0,2-.032V7.345a4.6,4.6,0,0,0-3,4.367Z"/></svg>