<svg xmlns="http://www.w3.org/2000/svg" width="35" height="35" viewBox="0 0 35 35"><title>round-trip--small</title><polygon points="12.981 17.315 12.351 16.685 8.535 20.5 12.351 24.315 12.981 23.685 10.297 21 17.5 21 17.5 20 10.297 20 12.981 17.315"/><polygon points="21.685 11.315 24.369 14 17.166 14 17.166 15 24.369 15 21.685 17.685 22.315 18.315 26.131 14.5 22.315 10.685 21.685 11.315"/><path d="M25.5,6H9.5A4.5,4.5,0,0,0,5,10.5v14A4.5,4.5,0,0,0,9.5,29h16A4.5,4.5,0,0,0,30,24.5v-14A4.5,4.5,0,0,0,25.5,6ZM29,24.5A3.5,3.5,0,0,1,25.5,28H9.5A3.5,3.5,0,0,1,6,24.5v-14A3.5,3.5,0,0,1,9.5,7h16A3.5,3.5,0,0,1,29,10.5Z"/></svg>