<?xml version="1.0" encoding="utf-8"?>
<!-- Generator: Adobe Illustrator 18.0.0, SVG Export Plug-In . SVG Version: 6.00 Build 0)  -->
<!DOCTYPE svg PUBLIC "-//W3C//DTD SVG 1.1//EN" "http://www.w3.org/Graphics/SVG/1.1/DTD/svg11.dtd">
<svg version="1.1" id="Layer_1" xmlns="http://www.w3.org/2000/svg" xmlns:xlink="http://www.w3.org/1999/xlink" x="0px" y="0px"
	 width="35px" height="35px" viewBox="0 0 35 35" enable-background="new 0 0 35 35" xml:space="preserve">
<path d="M10.5,10.5c-1,0-1.9-0.5-2.4-1.3C7.8,8.5,7.7,7.8,7.8,7.1C8,6.4,8.5,5.8,9.1,5.4c1.3-0.8,3-0.3,3.8,1
	c0.4,0.6,0.5,1.4,0.3,2.1s-0.6,1.3-1.2,1.7C11.5,10.4,11,10.5,10.5,10.5z M10.5,6c-0.3,0-0.6,0.1-0.9,0.2C9.2,6.5,8.9,6.9,8.8,7.3
	C8.7,7.8,8.8,8.2,9,8.6c0.5,0.8,1.6,1.1,2.4,0.6c0.4-0.2,0.7-0.6,0.8-1.1s0-0.9-0.2-1.3C11.7,6.3,11.1,6,10.5,6z"/>
<path d="M14.5,20.5c-0.3,0-0.5-0.2-0.5-0.5v-5.5c0-0.8-0.7-1.5-1.5-1.5H12c-0.3,0-0.5-0.2-0.5-0.5S11.7,12,12,12h0.5
	c1.4,0,2.5,1.1,2.5,2.5V20C15,20.3,14.8,20.5,14.5,20.5z"/>
<path d="M6.5,20.5C6.2,20.5,6,20.3,6,20v-5.5C6,13.1,7.1,12,8.5,12H9c0.3,0,0.5,0.2,0.5,0.5S9.3,13,9,13H8.5C7.7,13,7,13.7,7,14.5
	V20C7,20.3,6.8,20.5,6.5,20.5z"/>
<g>
	<g>
		<defs>
			<rect id="SVGID_1_" x="8" y="20" width="6" height="10"/>
		</defs>
		<clipPath id="SVGID_2_">
			<use xlink:href="#SVGID_1_"  overflow="visible"/>
		</clipPath>
		<path clip-path="url(#SVGID_2_)" d="M12.5,29c-0.3,0-0.5-0.2-0.5-0.5V19c0-0.3,0.2-0.5,0.5-0.5S13,18.7,13,19v9.5
			C13,28.8,12.8,29,12.5,29z"/>
	</g>
	<g>
		<defs>
			<rect id="SVGID_3_" x="8" y="20" width="6" height="10"/>
		</defs>
		<clipPath id="SVGID_4_">
			<use xlink:href="#SVGID_3_"  overflow="visible"/>
		</clipPath>
		<path clip-path="url(#SVGID_4_)" d="M8.5,29C8.2,29,8,28.8,8,28.5V19c0-0.3,0.2-0.5,0.5-0.5S9,18.7,9,19v9.5C9,28.8,8.8,29,8.5,29
			z"/>
	</g>
</g>
<path opacity="0.1" enable-background="new    " d="M17.5,10.5c-1,0-1.9-0.5-2.4-1.3c-0.4-0.6-0.5-1.4-0.3-2.1
	c0.2-0.7,0.6-1.3,1.3-1.7c1.3-0.8,3-0.3,3.8,1c0.4,0.6,0.5,1.4,0.3,2.1s-0.6,1.3-1.3,1.7C18.5,10.4,18,10.5,17.5,10.5z M17.5,6
	c-0.3,0-0.6,0.1-0.9,0.2c-0.4,0.2-0.7,0.6-0.8,1.1c-0.1,0.5,0,0.9,0.2,1.3c0.5,0.8,1.6,1.1,2.4,0.6c0.4-0.2,0.7-0.6,0.8-1.1
	s0-0.9-0.2-1.3C18.7,6.3,18.1,6,17.5,6z"/>
<path opacity="0.1" enable-background="new    " d="M21.5,21c-0.3,0-0.5-0.2-0.5-0.5v-6c0-0.8-0.7-1.5-1.5-1.5H19
	c-0.3,0-0.5-0.2-0.5-0.5S18.7,12,19,12h0.5c1.4,0,2.5,1.1,2.5,2.5v6C22,20.8,21.8,21,21.5,21z"/>
<g>
	<g>
		<defs>
			<rect id="SVGID_5_" x="14" y="20" width="6" height="10"/>
		</defs>
		<clipPath id="SVGID_6_">
			<use xlink:href="#SVGID_5_"  overflow="visible"/>
		</clipPath>
		<path opacity="0.1" clip-path="url(#SVGID_6_)" enable-background="new    " d="M19.5,29c-0.3,0-0.5-0.2-0.5-0.5V19
			c0-0.3,0.2-0.5,0.5-0.5S20,18.7,20,19v9.5C20,28.8,19.8,29,19.5,29z"/>
	</g>
</g>
<path opacity="0.1" enable-background="new    " d="M24.5,10.5c-1,0-1.9-0.5-2.4-1.3c-0.4-0.6-0.5-1.4-0.3-2.1
	c0.2-0.7,0.6-1.3,1.3-1.7c1.3-0.8,3-0.3,3.8,1c0.4,0.6,0.5,1.4,0.3,2.1s-0.6,1.3-1.3,1.7C25.5,10.4,25,10.5,24.5,10.5z M24.5,6
	c-0.3,0-0.6,0.1-0.9,0.2c-0.4,0.2-0.7,0.6-0.8,1.1c-0.1,0.5,0,0.9,0.2,1.3c0.5,0.8,1.6,1.1,2.4,0.6c0.4-0.2,0.7-0.6,0.8-1.1
	s0-0.9-0.2-1.3C25.7,6.3,25.1,6,24.5,6z"/>
<path opacity="0.1" enable-background="new    " d="M28.5,21c-0.3,0-0.5-0.2-0.5-0.5v-6c0-0.8-0.7-1.5-1.5-1.5H26
	c-0.3,0-0.5-0.2-0.5-0.5S25.7,12,26,12h0.5c1.4,0,2.5,1.1,2.5,2.5v6C29,20.8,28.8,21,28.5,21z"/>
<g opacity="0.1" enable-background="new    ">
	<g>
		<defs>
			<rect id="SVGID_7_" x="21" y="20" width="6" height="10"/>
		</defs>
		<clipPath id="SVGID_8_">
			<use xlink:href="#SVGID_7_"  overflow="visible"/>
		</clipPath>
		<path clip-path="url(#SVGID_8_)" d="M26.5,29c-0.3,0-0.5-0.2-0.5-0.5V19c0-0.3,0.2-0.5,0.5-0.5S27,18.7,27,19v9.5
			C27,28.8,26.8,29,26.5,29z"/>
	</g>
</g>
</svg>
