<?xml version="1.0" encoding="utf-8"?>
<!-- Generator: Adobe Illustrator 18.0.0, SVG Export Plug-In . SVG Version: 6.00 Build 0)  -->
<!DOCTYPE svg PUBLIC "-//W3C//DTD SVG 1.1//EN" "http://www.w3.org/Graphics/SVG/1.1/DTD/svg11.dtd">
<svg version="1.1" id="Layer_1" xmlns="http://www.w3.org/2000/svg" xmlns:xlink="http://www.w3.org/1999/xlink" x="0px" y="0px"
	 width="35px" height="35px" viewBox="0 0 35 35" enable-background="new 0 0 35 35" xml:space="preserve">
<path d="M10.511,10.5c-0.963,0-1.871-0.513-2.368-1.34c-0.379-0.633-0.489-1.374-0.31-2.087c0.178-0.71,0.623-1.309,1.252-1.684
	c1.253-0.75,3.02-0.299,3.771,0.953c0.379,0.629,0.49,1.368,0.312,2.08s-0.621,1.311-1.25,1.689
	C11.492,10.365,11.005,10.5,10.511,10.5z M10.49,6c-0.313,0-0.621,0.085-0.891,0.247c-0.4,0.238-0.682,0.618-0.795,1.069
	C8.689,7.77,8.759,8.242,9,8.645c0.483,0.805,1.595,1.092,2.404,0.608c0.399-0.24,0.681-0.621,0.794-1.073s0.042-0.922-0.199-1.323
	C11.677,6.32,11.113,6,10.49,6z"/>
<path d="M14.5,20.5c-0.276,0-0.5-0.224-0.5-0.5v-5.5c0-0.827-0.673-1.5-1.5-1.5H12c-0.276,0-0.5-0.224-0.5-0.5S11.724,12,12,12h0.5
	c1.378,0,2.5,1.122,2.5,2.5V20C15,20.276,14.776,20.5,14.5,20.5z"/>
<path d="M6.5,20.5C6.224,20.5,6,20.276,6,20v-5.5C6,13.122,7.122,12,8.5,12H9c0.276,0,0.5,0.224,0.5,0.5S9.276,13,9,13H8.5
	C7.673,13,7,13.673,7,14.5V20C7,20.276,6.776,20.5,6.5,20.5z"/>
<g>
	<defs>
		<rect id="SVGID_1_" x="8" y="20" width="6" height="10"/>
	</defs>
	<clipPath id="SVGID_2_">
		<use xlink:href="#SVGID_1_"  overflow="visible"/>
	</clipPath>
	<path clip-path="url(#SVGID_2_)" d="M12.5,29c-0.276,0-0.5-0.224-0.5-0.5V19c0-0.276,0.224-0.5,0.5-0.5S13,18.724,13,19v9.5
		C13,28.776,12.776,29,12.5,29z"/>
	<path clip-path="url(#SVGID_2_)" d="M8.5,29C8.224,29,8,28.776,8,28.5V19c0-0.276,0.224-0.5,0.5-0.5S9,18.724,9,19v9.5
		C9,28.776,8.776,29,8.5,29z"/>
</g>
<path d="M17.511,10.5c-0.964,0-1.871-0.513-2.368-1.34c-0.379-0.633-0.489-1.374-0.31-2.087c0.178-0.71,0.623-1.309,1.252-1.684
	c1.253-0.75,3.02-0.299,3.771,0.953c0.379,0.629,0.49,1.368,0.312,2.08s-0.622,1.312-1.251,1.689
	C18.491,10.365,18.005,10.5,17.511,10.5z M17.49,6c-0.313,0-0.621,0.085-0.891,0.247c-0.4,0.238-0.682,0.618-0.795,1.069
	C15.689,7.77,15.759,8.242,16,8.645c0.484,0.805,1.596,1.092,2.403,0.608c0.4-0.24,0.682-0.621,0.795-1.073s0.042-0.922-0.199-1.323
	C18.677,6.32,18.113,6,17.49,6z"/>
<path d="M21.5,21c-0.276,0-0.5-0.224-0.5-0.5v-6c0-0.827-0.673-1.5-1.5-1.5H19c-0.276,0-0.5-0.224-0.5-0.5S18.724,12,19,12h0.5
	c1.378,0,2.5,1.122,2.5,2.5v6C22,20.776,21.776,21,21.5,21z"/>
<g>
	<defs>
		<rect id="SVGID_3_" x="14" y="20" width="6" height="10"/>
	</defs>
	<clipPath id="SVGID_4_">
		<use xlink:href="#SVGID_3_"  overflow="visible"/>
	</clipPath>
	<path clip-path="url(#SVGID_4_)" d="M19.5,29c-0.276,0-0.5-0.224-0.5-0.5V19c0-0.276,0.224-0.5,0.5-0.5S20,18.724,20,19v9.5
		C20,28.776,19.776,29,19.5,29z"/>
</g>
<path opacity="0.1" d="M24.511,10.5c-0.964,0-1.871-0.513-2.368-1.34c-0.379-0.633-0.489-1.374-0.31-2.087
	c0.178-0.71,0.623-1.309,1.252-1.684c1.254-0.75,3.019-0.299,3.771,0.953c0.379,0.629,0.49,1.368,0.312,2.08
	s-0.622,1.312-1.251,1.689C25.491,10.365,25.005,10.5,24.511,10.5z M24.49,6c-0.313,0-0.621,0.085-0.891,0.247
	c-0.4,0.238-0.682,0.618-0.795,1.069C22.689,7.77,22.759,8.242,23,8.645c0.484,0.805,1.597,1.092,2.403,0.608
	c0.4-0.24,0.682-0.621,0.795-1.073s0.042-0.922-0.199-1.323C25.677,6.32,25.113,6,24.49,6z"/>
<path opacity="0.1" d="M28.5,21c-0.276,0-0.5-0.224-0.5-0.5v-6c0-0.827-0.673-1.5-1.5-1.5H26c-0.276,0-0.5-0.224-0.5-0.5
	S25.724,12,26,12h0.5c1.378,0,2.5,1.122,2.5,2.5v6C29,20.776,28.776,21,28.5,21z"/>
<g opacity="0.1">
	<defs>
		<rect id="SVGID_5_" x="21" y="20" opacity="0.1" width="6" height="10"/>
	</defs>
	<clipPath id="SVGID_6_">
		<use xlink:href="#SVGID_5_"  overflow="visible"/>
	</clipPath>
	<path clip-path="url(#SVGID_6_)" d="M26.5,29c-0.276,0-0.5-0.224-0.5-0.5V19c0-0.276,0.224-0.5,0.5-0.5S27,18.724,27,19v9.5
		C27,28.776,26.776,29,26.5,29z"/>
</g>
</svg>
