<svg id="Layer_1" data-name="Layer 1" xmlns="http://www.w3.org/2000/svg" width="35" height="35" viewBox="0 0 35 35"><defs><style>.cls-1{fill:none;}</style></defs><title>gegevens</title><rect class="cls-1" width="35" height="35"/><path d="M243.51,88.55l-0.426-1.029,1.446-2.6-2.162-2.18-2.606,1.46-1.027-.425L237.913,80.9h-3.06l-0.822,2.87-0.984.4-2.634-1.437-2.194,2.194,1.435,2.63-0.39.935-2.881.854v3.1l2.881,0.842,0.391,0.942-1.436,2.632,2.194,2.194,2.631-1.435,0.942,0.391,0.842,2.881h3.109l0.843-2.883,0.986-.413,2.6,1.446,2.166-2.166-1.448-2.6,0.426-1.029,2.873-.822v-3.06Zm1.873,3.128-0.209.06-2.4.688-0.795,1.921,1.316,2.366-1.1,1.1L239.828,96.5l-1.874.785-0.7,2.406-0.063.215h-1.609l-0.063-.215-0.7-2.406-1.827-.757-2.394,1.306-1.136-1.136,1.306-2.394L230,92.473l-2.412-.706-0.209-.061V90.1l0.209-.062L230,89.321l0.757-1.817-1.306-2.394,1.136-1.136,2.394,1.306,1.874-.767,0.686-2.4,0.062-.215h1.552l0.062,0.215,0.686,2.4,1.921,0.795,2.366-1.325,1.1,1.107-1.316,2.366,0.795,1.921,2.4,0.688,0.209,0.06v1.552Z" transform="translate(-218.883 -73.402)"/><path d="M236.383,87.117a3.785,3.785,0,1,0,3.791,3.791A3.8,3.8,0,0,0,236.383,87.117Zm0,6.57a2.785,2.785,0,1,1,2.791-2.779A2.788,2.788,0,0,1,236.383,93.687Z" transform="translate(-218.883 -73.402)"/></svg>