<?xml version="1.0" encoding="utf-8"?>
<!-- Generator: Adobe Illustrator 18.0.0, SVG Export Plug-In . SVG Version: 6.00 Build 0)  -->
<!DOCTYPE svg PUBLIC "-//W3C//DTD SVG 1.1//EN" "http://www.w3.org/Graphics/SVG/1.1/DTD/svg11.dtd">
<svg version="1.1" id="Layer_1" xmlns="http://www.w3.org/2000/svg" xmlns:xlink="http://www.w3.org/1999/xlink" x="0px" y="0px"
	 width="35px" height="35px" viewBox="0 0 35 35" enable-background="new 0 0 35 35" xml:space="preserve">
<circle cx="16" cy="10.5" r="0.5"/>
<circle cx="24.5" cy="19" r="0.5"/>
<path d="M18.5,17c-0.128,0-0.256-0.049-0.354-0.146c-0.195-0.195-0.195-0.512,0-0.707l8-8c0.195-0.195,0.512-0.195,0.707,0
	s0.195,0.512,0,0.707l-8,8C18.756,16.951,18.628,17,18.5,17z"/>
<polygon points="18.5,9 26,9 26,16.5 27,15.5 27,8 19.5,8 "/>
<g>
	<defs>
		<polygon id="SVGID_1_" points="16,19 16,10 11,10 11,24 25,24 25,19 		"/>
	</defs>
	<clipPath id="SVGID_2_">
		<use xlink:href="#SVGID_1_"  overflow="visible"/>
	</clipPath>
	<path clip-path="url(#SVGID_2_)" d="M24,11v12H12V11H24 M25,10H11v14h14V10L25,10z"/>
</g>
</svg>
