<svg id="Layer_1" data-name="Layer 1" xmlns="http://www.w3.org/2000/svg" width="35" height="35" viewBox="0 0 35 35"><title>station--35x35</title><path d="M18,10a2,2,0,1,0,2,2,2,2,0,0,0-2-2m0,1a1,1,0,1,1-1,1,1,1,0,0,1,1-1"/><path d="M18,6,6,12V24H9V20.5a1.5,1.5,0,0,1,3,0V24h3V20a3,3,0,0,1,6,0v4h3V20.5a1.5,1.5,0,0,1,3,0V24h3V12Zm0,1.1,11,5.5V23H28V20.5a2.5,2.5,0,0,0-5,0V23H22V20a4,4,0,0,0-8,0v3H13V20.5a2.5,2.5,0,0,0-5,0V23H7V12.6ZM22,25H21a.69.69,0,0,0,0,.3l1,2H14l1-2a.69.69,0,0,0,0-.3H14l-2,4.2a.6.6,0,0,0,.3.7.4.4,0,0,0,.2.1.5.5,0,0,0,.5-.3l.6-1.4h8.9l.6,1.4a.5.5,0,0,0,.5.3.4.4,0,0,0,.2,0,.6.6,0,0,0,.2-.8Z"/></svg>