<svg xmlns="http://www.w3.org/2000/svg" width="35" height="35" viewBox="0 0 35 35"><title>NS_spoordeel_icons</title><path d="M26.7,17.482a1.994,1.994,0,0,0-1.7-.967h0a1.989,1.989,0,0,0-1.113.339,2,2,0,0,0-3-1A2,2,0,0,0,19,14.517a1.974,1.974,0,0,0-1,.27V9.517a2,2,0,0,0-4,0V18.89l-.812-1.407-.534-.926a1.952,1.952,0,0,0-1.2-.953,1.869,1.869,0,0,0-1.462.2,2.158,2.158,0,0,0-.771,2.743c.03.06.668,1.367,2.66,5.349a10.582,10.582,0,0,0,3.06,3.985,2.906,2.906,0,0,0,1.558.633h5a4.021,4.021,0,0,0,2.331-.729,5.747,5.747,0,0,0,1.735-2.033A15.657,15.657,0,0,0,27,18.516,1.979,1.979,0,0,0,26.7,17.482Zm-2.019,7.8h0A3.72,3.72,0,0,1,21.5,27.517h-4.99a2.348,2.348,0,0,1-1.095-.525,9.742,9.742,0,0,1-2.637-3.539c-2.028-4.055-2.651-5.332-2.656-5.344l0,0a1.107,1.107,0,0,1-.09-.622,1.068,1.068,0,0,1,.478-.817.881.881,0,0,1,.686-.1.957.957,0,0,1,.587.472l.006.01.248.43,1.312,2.276c.319.583.679.828,1.067.728S15,20,15,19.33V9.518a1,1,0,0,1,2,0v8.5a.5.5,0,1,0,1,0v-1.5a1,1,0,0,1,2,0v1.5a.5.5,0,1,0,1,0v-.5c0-.013.007-.023.007-.035a.993.993,0,0,1,1.986,0c0,.012.007.023.007.035v1.5a.5.5,0,1,0,1,0v-.5a1,1,0,0,1,2,0A14.689,14.689,0,0,1,24.685,25.281Z"/><path d="M19.966,10.483h2.293l-1.146,1.145a.5.5,0,1,0,.708.707l2-2a.5.5,0,0,0,0-.707v0l-2-2a.5.5,0,0,0-.707.707l1.146,1.146H19.966a.5.5,0,0,0,0,1Z"/><path d="M10.7,12.482a.5.5,0,0,0,.354-.854L9.913,10.483h2.293a.5.5,0,0,0,0-1H9.913l1.146-1.146a.5.5,0,0,0-.707-.707l-2,2v0a.5.5,0,0,0,0,.707l2,2A.5.5,0,0,0,10.7,12.482Z"/></svg>