<?xml version="1.0" encoding="utf-8"?>
<!-- Generator: Adobe Illustrator 18.0.0, SVG Export Plug-In . SVG Version: 6.00 Build 0)  -->
<!DOCTYPE svg PUBLIC "-//W3C//DTD SVG 1.1//EN" "http://www.w3.org/Graphics/SVG/1.1/DTD/svg11.dtd">
<svg version="1.1" id="Layer_1" xmlns="http://www.w3.org/2000/svg" xmlns:xlink="http://www.w3.org/1999/xlink" x="0px" y="0px"
	 width="35px" height="35px" viewBox="0 0 35 35" enable-background="new 0 0 35 35" xml:space="preserve">
<polygon points="25.793,21.5 21.293,26 22.708,26 27.208,21.5 22.708,17 21.293,17 "/>
<path d="M19,21h7c0.276,0,0.5,0.224,0.5,0.5v0c0,0.276-0.224,0.5-0.5,0.5h-7c-0.276,0-0.5-0.224-0.5-0.5v0
	C18.5,21.224,18.724,21,19,21z"/>
<polygon points="9.207,13.5 13.707,9 12.293,9 7.793,13.5 12.293,18 13.707,18 "/>
<path d="M16,14H9c-0.276,0-0.5-0.224-0.5-0.5v0C8.5,13.224,8.724,13,9,13h7c0.276,0,0.5,0.224,0.5,0.5v0
	C16.5,13.776,16.276,14,16,14z"/>
</svg>
