<?xml version="1.0" encoding="utf-8"?>
<!-- Generator: Adobe Illustrator 18.0.0, SVG Export Plug-In . SVG Version: 6.00 Build 0)  -->
<!DOCTYPE svg PUBLIC "-//W3C//DTD SVG 1.1//EN" "http://www.w3.org/Graphics/SVG/1.1/DTD/svg11.dtd">
<svg version="1.1" id="Layer_1" xmlns="http://www.w3.org/2000/svg" xmlns:xlink="http://www.w3.org/1999/xlink" x="0px" y="0px"
	 width="35px" height="35px" viewBox="0 0 35 35" enable-background="new 0 0 35 35" xml:space="preserve">
<rect x="11.5" y="17" width="13" height="1"/>
<rect x="16.5" y="20" width="5" height="1"/>
<rect x="11.5" y="20" width="3" height="1"/>
<g>
	<g>
		<path d="M27.5,11h-19C7.7,11,7,11.7,7,12.5v11C7,24.3,7.7,25,8.5,25H12v-1H8.5C8.2,24,8,23.8,8,23.5v-11C8,12.2,8.2,12,8.5,12h19
			c0.3,0,0.5,0.2,0.5,0.5v11c0,0.3-0.2,0.5-0.5,0.5H17l-1,1h11.5c0.8,0,1.5-0.7,1.5-1.5v-11C29,11.7,28.3,11,27.5,11z"/>
	</g>
</g>
<g>
	<polygon points="16.1,24 12.5,27.6 12.5,24 11.5,24 11.5,30 17.5,24 	"/>
</g>
<rect x="11.5" y="17" width="13" height="1"/>
<rect x="16.5" y="20" width="5" height="1"/>
<rect x="11.5" y="20" width="3" height="1"/>
<g>
	<path d="M27.5,11h-19C7.7,11,7,11.7,7,12.5v11C7,24.3,7.7,25,8.5,25H12v-1H8.5C8.2,24,8,23.8,8,23.5v-11C8,12.2,8.2,12,8.5,12h19
		c0.3,0,0.5,0.2,0.5,0.5v11c0,0.3-0.2,0.5-0.5,0.5H17l-1,1h11.5c0.8,0,1.5-0.7,1.5-1.5v-11C29,11.7,28.3,11,27.5,11z"/>
</g>
</svg>
