<svg xmlns="http://www.w3.org/2000/svg" width="35" height="35" viewBox="0 0 35 35"><title>theatre--35x35</title><path d="M17.5,29a6.422,6.422,0,0,1-4.354-1.709A19.023,19.023,0,0,1,7,13.309V10.5A2.514,2.514,0,0,1,8.906,8.056a36.393,36.393,0,0,1,17.188,0h0A2.514,2.514,0,0,1,28,10.5v2.811a19.023,19.023,0,0,1-6.146,13.983A6.422,6.422,0,0,1,17.5,29Zm0-21A34.451,34.451,0,0,0,9.148,9.025,1.516,1.516,0,0,0,8,10.5v2.811a18.023,18.023,0,0,0,5.821,13.247,5.411,5.411,0,0,0,7.357,0A18.023,18.023,0,0,0,27,13.309V10.5a1.516,1.516,0,0,0-1.148-1.473h0A34.451,34.451,0,0,0,17.5,8Z"/><path d="M21.76,16.148a4.257,4.257,0,0,1-2.994-1.7l-.255-.344.3-.305c1.237-1.252,2.43-1.8,3.554-1.614a3.362,3.362,0,0,1,2.25,1.744l.136.273-.183.245A3.548,3.548,0,0,1,21.76,16.148Zm-1.9-1.97a2.894,2.894,0,0,0,1.9.97h0a2.421,2.421,0,0,0,1.795-1.034,2.181,2.181,0,0,0-1.36-.945A2.976,2.976,0,0,0,19.858,14.178Z"/><path d="M13.24,16.148a3.548,3.548,0,0,1-2.809-1.7l-.183-.245.136-.273a3.362,3.362,0,0,1,2.25-1.744c1.122-.185,2.317.362,3.554,1.614l.3.305-.255.344A4.257,4.257,0,0,1,13.24,16.148Zm-1.8-2.034a2.419,2.419,0,0,0,1.8,1.034,2.913,2.913,0,0,0,1.9-.971,2.985,2.985,0,0,0-2.346-1.008A2.194,2.194,0,0,0,11.441,14.114Z"/><path d="M17.685,23.972c-2.6,0-4.6-2.479-5.353-3.554a.646.646,0,0,1,0-.757.661.661,0,0,1,.725-.243,17.249,17.249,0,0,0,8.909-.019h0a.648.648,0,0,1,.7.246.66.66,0,0,1,.027.75c-1.488,2.336-3.146,3.539-4.931,3.576ZM13.756,20.63c.843,1,2.306,2.384,3.991,2.342,1.251-.026,2.466-.832,3.619-2.4A18.5,18.5,0,0,1,13.756,20.63Z"/></svg>