<?xml version="1.0" encoding="utf-8"?>
<!-- Generator: Adobe Illustrator 18.0.0, SVG Export Plug-In . SVG Version: 6.00 Build 0)  -->
<!DOCTYPE svg PUBLIC "-//W3C//DTD SVG 1.1//EN" "http://www.w3.org/Graphics/SVG/1.1/DTD/svg11.dtd">
<svg version="1.1" id="Layer_1" xmlns="http://www.w3.org/2000/svg" xmlns:xlink="http://www.w3.org/1999/xlink" x="0px" y="0px"
	 width="35px" height="35px" viewBox="0 0 35 35" enable-background="new 0 0 35 35" xml:space="preserve">
<g>
	<path d="M6.5,20C6.2,20,6,19.8,6,19.5V15H5v4.5C5,20.3,5.7,21,6.5,21h12.7l-0.3-1H6.5z M23.5,7h-17C5.7,7,5,7.7,5,8.5V10h1V8.5
		C6,8.2,6.2,8,6.5,8h17C23.8,8,24,8.2,24,8.5V11h1V8.5C25,7.7,24.3,7,23.5,7z M24,19.5c0,0.3-0.2,0.5-0.5,0.5h-1.4l0.4,1h1
		c0.8,0,1.5-0.7,1.5-1.5V13h-1V19.5z"/>
</g>
<circle cx="5.5" cy="10" r="0.5"/>
<circle cx="5.5" cy="9.5" r="0.5"/>
<circle cx="5.5" cy="12.5" r="0.5"/>
<circle cx="8.214" cy="12.5" r="0.5"/>
<circle cx="10.929" cy="12.5" r="0.5"/>
<circle cx="13.643" cy="12.5" r="0.5"/>
<circle cx="16.357" cy="12.5" r="0.5"/>
<circle cx="19.071" cy="12.5" r="0.5"/>
<circle cx="21.786" cy="12.5" r="0.5"/>
<circle cx="5.5" cy="15" r="0.5"/>
<circle cx="24.5" cy="10.5" r="0.5"/>
<g>
	<path d="M30.5,28c-0.276,0-0.5-0.224-0.5-0.5v-8c0-0.571-0.099-0.892-0.354-1.146l-5.5-5.5c-0.195-0.195-0.195-0.512,0-0.707
		s0.512-0.195,0.707,0l5.5,5.5C30.927,18.219,31,18.938,31,19.5v8C31,27.776,30.776,28,30.5,28z"/>
</g>
<g>
	<path d="M22.997,27.5c-0.128,0-0.256-0.049-0.354-0.146l-3.076-3.075c-0.297-0.294-0.667-0.661-0.802-1.144
		c-0.11-0.394-1.432-5.756-1.488-5.984c-0.138-0.534-0.064-1.049,0.214-1.484c0.297-0.465,0.815-0.805,1.385-0.909
		c0.414-0.077,1.812-0.194,2.433,1.473l1.651,4.079c0.104,0.256-0.02,0.547-0.276,0.651c-0.257,0.103-0.548-0.02-0.651-0.276
		l-1.656-4.091c-0.317-0.848-0.893-0.929-1.322-0.852c-0.292,0.054-0.576,0.236-0.722,0.464c-0.126,0.198-0.155,0.434-0.086,0.701
		c0.476,1.932,1.396,5.655,1.481,5.958c0.064,0.228,0.318,0.48,0.543,0.703l3.079,3.079c0.195,0.195,0.195,0.512,0,0.707
		C23.253,27.451,23.125,27.5,22.997,27.5z"/>
</g>
<g>
	<path d="M6.497,20C6.222,20,6,19.776,6,19.5V15H5v4.525C5.014,20.342,5.678,21,6.497,21h12.655l-0.276-1H6.497z M23.497,7h-17
		C5.678,7,5.014,7.658,5,8.475V10h1V8.5C6,8.224,6.222,8,6.497,8h17C23.773,8,24,8.224,24,8.5v2h1V8.499C25,7.671,24.326,7,23.497,7
		z M24,19.5c0,0.276-0.227,0.5-0.503,0.5h-1.378l0.378,1h1.001C24.326,21,25,20.329,25,19.501V12.5h-1V19.5z"/>
</g>
</svg>
