<?xml version="1.0" encoding="utf-8"?>
<!-- Generator: Adobe Illustrator 18.0.0, SVG Export Plug-In . SVG Version: 6.00 Build 0)  -->
<!DOCTYPE svg PUBLIC "-//W3C//DTD SVG 1.1//EN" "http://www.w3.org/Graphics/SVG/1.1/DTD/svg11.dtd">
<svg version="1.1" id="Layer_1" xmlns="http://www.w3.org/2000/svg" xmlns:xlink="http://www.w3.org/1999/xlink" x="0px" y="0px"
	 width="35px" height="35px" viewBox="0 0 35 35" enable-background="new 0 0 35 35" xml:space="preserve">
<path d="M15,18c-0.552,0-1,0.448-1,1s0.448,1,1,1s1-0.448,1-1S15.552,18,15,18z M20,18c-0.552,0-1,0.448-1,1s0.448,1,1,1
	s1-0.448,1-1S20.552,18,20,18z M17.5,6c-2.398,0-4.626,0.711-6.5,1.922v13.156C12.874,22.289,15.102,23,17.5,23
	s4.626-0.711,6.5-1.922V7.922C22.126,6.711,19.898,6,17.5,6z M17.5,7c1.491,0,2.91,0.305,4.205,0.847l-1.066,7.18
	c-2.036,0.628-4.241,0.628-6.277,0l-1.067-7.18C14.59,7.305,16.009,7,17.5,7z M23,20.502C21.38,21.446,19.507,22,17.5,22
	s-3.88-0.554-5.5-1.498V8.498c0.116-0.068,0.232-0.137,0.35-0.201l1.112,7.485l0.289,0.098c1.21,0.411,2.472,0.619,3.749,0.619
	s2.538-0.208,3.749-0.619l0.289-0.098l1.112-7.485c0.119,0.064,0.234,0.133,0.35,0.201V20.502z M21.559,25h-1.054
	c0,0.076,0.012,0.151,0.048,0.224L21.441,27H13.56l0.888-1.776c0.036-0.072,0.048-0.148,0.048-0.224h-1.054l-1.889,3.776
	c-0.124,0.247-0.023,0.547,0.224,0.671C11.848,29.483,11.924,29.5,12,29.5c0.184,0,0.36-0.101,0.448-0.276L13.06,28h8.881
	l0.612,1.224C22.641,29.399,22.817,29.5,23,29.5c0.075,0,0.151-0.017,0.223-0.053c0.248-0.123,0.348-0.424,0.224-0.671L21.559,25z"
	/>
</svg>
