<?xml version="1.0" encoding="utf-8"?>
<!-- Generator: Adobe Illustrator 18.0.0, SVG Export Plug-In . SVG Version: 6.00 Build 0)  -->
<!DOCTYPE svg PUBLIC "-//W3C//DTD SVG 1.1//EN" "http://www.w3.org/Graphics/SVG/1.1/DTD/svg11.dtd">
<svg version="1.1" id="Layer_1" xmlns="http://www.w3.org/2000/svg" xmlns:xlink="http://www.w3.org/1999/xlink" x="0px" y="0px"
	 width="35px" height="35px" viewBox="0 0 35 35" enable-background="new 0 0 35 35" xml:space="preserve">
<g>
	<g>
		<circle cx="15" cy="20.25" r="0.75"/>
	</g>
</g>
<g>
	<g>
		<circle cx="20" cy="20.25" r="0.75"/>
	</g>
</g>
<g>
	<g>
		<path d="M21,10c0.552,0,1,0.449,1,1v11c0,0.551-0.448,1-1,1h-7c-0.552,0-1-0.449-1-1V11c0-0.551,0.448-1,1-1H21 M21,9h-7
			c-1.104,0-2,0.895-2,2v11c0,1.105,0.896,2,2,2h7c1.104,0,2-0.895,2-2V11C23,9.895,22.104,9,21,9L21,9z"/>
	</g>
</g>
<g>
	<g>
		<path d="M22,13v4h-9v-4H22 M23,12H12v6h11V12L23,12z"/>
	</g>
</g>
<g>
	<g>
		<rect x="14" y="13" width="1" height="4"/>
	</g>
</g>
<g>
	<g>
		<rect x="20" y="13" width="1" height="4"/>
	</g>
</g>
<g>
	<g>
		<path d="M13,3.5C13,3.776,13.224,4,13.5,4h1.009c0,0.04-0.005,0.08,0.006,0.121L15.235,7h1.03l-0.75-3h3.97l-0.75,3h1.03
			l0.72-2.879C20.495,4.08,20.491,4.04,20.491,4H21.5C21.776,4,22,3.776,22,3.5C22,3.224,21.776,3,21.5,3h-8
			C13.224,3,13,3.224,13,3.5z"/>
	</g>
</g>
<g>
	<path d="M22.447,29.776L20.559,26h-1.054c0,0.076,0.012,0.151,0.048,0.224l2,4C21.641,30.399,21.817,30.5,22,30.5
		c0.075,0,0.151-0.017,0.223-0.053C22.471,30.324,22.571,30.023,22.447,29.776z M12.553,29.776
		c-0.124,0.247-0.023,0.547,0.224,0.671C12.848,30.483,12.924,30.5,13,30.5c0.184,0,0.36-0.101,0.448-0.276l2-4
		c0.036-0.072,0.048-0.148,0.048-0.224h-1.054L12.553,29.776z"/>
</g>
</svg>
