<?xml version="1.0" encoding="utf-8"?>
<!-- Generator: Adobe Illustrator 18.0.0, SVG Export Plug-In . SVG Version: 6.00 Build 0)  -->
<!DOCTYPE svg PUBLIC "-//W3C//DTD SVG 1.1//EN" "http://www.w3.org/Graphics/SVG/1.1/DTD/svg11.dtd">
<svg version="1.1" id="Layer_1" xmlns="http://www.w3.org/2000/svg" xmlns:xlink="http://www.w3.org/1999/xlink" x="0px" y="0px"
	 width="35px" height="35px" viewBox="0 0 35 35" enable-background="new 0 0 35 35" xml:space="preserve">
<g>
	<path d="M27.797,10.53c-0.185,0.082-0.373,0.157-0.563,0.225c0.286-0.401,0.51-0.846,0.662-1.321l0.401-1.254l-1.133,0.672
		c-0.732,0.435-1.523,0.743-2.35,0.931c-0.887-0.828-2.055-1.315-3.275-1.315c-2.651,0-4.809,2.157-4.809,4.809
		c0,0.146,0.006,0.291,0.019,0.435c-3.078-0.319-5.93-1.854-7.9-4.271L8.847,9.442C8.81,9.396,8.767,9.354,8.714,9.323
		c-0.24-0.137-0.544-0.058-0.684,0.18c-0.426,0.731-0.651,1.567-0.651,2.418c0,0.962,0.285,1.883,0.801,2.66
		c-0.031-0.016-0.062-0.033-0.093-0.05l-0.743-0.358v0.85c0,1.493,0.694,2.857,1.799,3.749l-0.521-0.1l0.257,0.802
		c0.488,1.526,1.691,2.678,3.172,3.13c-1.499,0.851-3.288,1.195-4.992,0.997c-0.272-0.037-0.522,0.164-0.555,0.438
		c-0.023,0.196,0.074,0.375,0.229,0.475L6.73,24.519c0.007,0.005,0.015,0.009,0.022,0.013c0.001,0,0.001,0.001,0.002,0.001
		c2.051,1.308,4.419,2,6.851,2c7.986,0,12.758-6.487,12.758-12.758c0-0.113-0.005-0.224-0.008-0.337
		c0.796-0.612,1.498-1.332,2.06-2.173l0.959-1.434L27.797,10.53z M25.558,12.812c-0.142,0.102-0.205,0.265-0.198,0.427l-0.009,0
		c0.008,0.178,0.012,0.355,0.012,0.535c0,5.78-4.398,11.758-11.758,11.758c-1.583,0-3.133-0.324-4.575-0.935
		c1.699-0.182,3.294-0.822,4.657-1.891l1.107-0.867l-1.406-0.026c-1.36-0.025-2.581-0.769-3.236-1.915
		c0.434,0.01,0.863-0.055,1.279-0.168l2.045-0.555l-2.077-0.417c-1.514-0.304-2.672-1.497-2.976-2.992
		c0.438,0.145,0.897,0.227,1.358,0.242l1.745,0.054l-1.452-0.97c-1.061-0.709-1.695-1.895-1.695-3.17
		c0-0.435,0.082-0.861,0.225-1.267c2.257,2.443,5.383,3.934,8.714,4.102c0.008,0,0.017,0,0.025,0c0.148,0,0.289-0.065,0.384-0.18
		c0.101-0.121,0.139-0.281,0.103-0.434c-0.065-0.28-0.099-0.572-0.099-0.868c0-2.1,1.708-3.809,3.809-3.809
		c1.049,0,2.062,0.438,2.78,1.203l0.006-0.006c0.113,0.121,0.278,0.19,0.455,0.154c0.501-0.099,0.991-0.239,1.465-0.418
		c-0.273,0.329-0.603,0.612-0.977,0.836l0.316,0.925c0.314-0.038,0.625-0.091,0.932-0.16C26.219,12.295,25.898,12.566,25.558,12.812
		z"/>
</g>
</svg>
