<?xml version="1.0" encoding="utf-8"?>
<!-- Generator: Adobe Illustrator 18.0.0, SVG Export Plug-In . SVG Version: 6.00 Build 0)  -->
<!DOCTYPE svg PUBLIC "-//W3C//DTD SVG 1.1//EN" "http://www.w3.org/Graphics/SVG/1.1/DTD/svg11.dtd">
<svg version="1.1" id="Layer_1" xmlns="http://www.w3.org/2000/svg" xmlns:xlink="http://www.w3.org/1999/xlink" x="0px" y="0px"
	 width="35px" height="35px" viewBox="0 0 35 35" enable-background="new 0 0 35 35" xml:space="preserve">
<g>
	<g>
		<g>
			<path d="M17.5,18c-2.2,0-4-2-4-4.5v-1c0-2.5,1.8-4.5,4-4.5s4,2,4,4.5v1C21.5,16,19.7,18,17.5,18z M17.5,9c-1.7,0-3,1.6-3,3.5v1
				c0,1.9,1.3,3.5,3,3.5s3-1.6,3-3.5v-1C20.5,10.6,19.2,9,17.5,9z"/>
		</g>
	</g>
	<g>
		<g>
			<path d="M18,27H9v-3c0-2.4,2-5.2,4.5-5.2c0.3,0,0.5,0.2,0.5,0.5s-0.2,0.5-0.5,0.5c-1.9,0-3.5,2.3-3.5,4.2v2h8
				c0.3,0,0.5,0.2,0.5,0.5S18.3,27,18,27z"/>
		</g>
	</g>
	<g>
		<g>
			<path d="M26,27h-9c-0.3,0-0.5-0.2-0.5-0.5S16.7,26,17,26h8v-2c0-1.9-1.6-4.2-3.5-4.2c-0.3,0-0.5-0.2-0.5-0.5s0.2-0.5,0.5-0.5
				c2.5,0,4.5,2.8,4.5,5.2V27z"/>
		</g>
	</g>
</g>
</svg>
