<?xml version="1.0" encoding="utf-8"?>
<!-- Generator: Adobe Illustrator 18.0.0, SVG Export Plug-In . SVG Version: 6.00 Build 0)  -->
<!DOCTYPE svg PUBLIC "-//W3C//DTD SVG 1.1//EN" "http://www.w3.org/Graphics/SVG/1.1/DTD/svg11.dtd">
<svg version="1.1" id="Layer_1" xmlns="http://www.w3.org/2000/svg" xmlns:xlink="http://www.w3.org/1999/xlink" x="0px" y="0px"
	 width="35px" height="35px" viewBox="0 0 35 35" enable-background="new 0 0 35 35" xml:space="preserve">
<g>
	<polygon points="11,20 7.5,20 7.5,15 11,15 11,16 8.5,16 8.5,19 11,19 	"/>
</g>
<g>
	<path d="M21.7,11.8l-0.9,0.7c1.9,0.9,3.2,2.8,3.2,5s-1.3,4.1-3.2,5l0.9,0.7c2-1.1,3.3-3.2,3.3-5.7S23.7,13,21.7,11.8z M19,14.6v1
		c0.9,0.2,1.5,1,1.5,1.9s-0.6,1.7-1.5,1.9v1c1.4-0.2,2.5-1.5,2.5-2.9S20.4,14.8,19,14.6z"/>
</g>
<g>
	<g>
		<path d="M16,11c-0.2-0.1-0.6-0.2-1.1,0.3L9.8,16h1.5l4.2-3.9v10.7L11.3,19H9.8l5.1,4.7c0.3,0.3,0.6,0.3,0.7,0.3
			c0.1,0,0.2,0,0.3-0.1c0.2-0.1,0.5-0.3,0.5-1V12C16.5,11.3,16.1,11.1,16,11z"/>
	</g>
</g>
</svg>
