<?xml version="1.0" encoding="utf-8"?>
<!-- Generator: Adobe Illustrator 18.0.0, SVG Export Plug-In . SVG Version: 6.00 Build 0)  -->
<!DOCTYPE svg PUBLIC "-//W3C//DTD SVG 1.1//EN" "http://www.w3.org/Graphics/SVG/1.1/DTD/svg11.dtd">
<svg version="1.1" id="Layer_1" xmlns="http://www.w3.org/2000/svg" xmlns:xlink="http://www.w3.org/1999/xlink" x="0px" y="0px"
	 width="35px" height="35px" viewBox="0 0 35 35" enable-background="new 0 0 35 35" xml:space="preserve">
<g>
	<polygon points="11,20 7.5,20 7.5,15 11,15 11,16 8.5,16 8.5,19 11,19 	"/>
</g>
<g>
	<g>
		<path d="M16,11c-0.2-0.1-0.6-0.2-1.1,0.3L9.8,16h1.5l4.2-3.9v10.7L11.3,19H9.8l5.1,4.7c0.3,0.3,0.6,0.3,0.7,0.3
			c0.1,0,0.2,0,0.3-0.1c0.2-0.1,0.5-0.3,0.5-1V12C16.5,11.3,16.1,11.1,16,11z"/>
	</g>
</g>
<g>
	<g>
		<path d="M24.5,20.5c-0.1,0-0.3,0-0.4-0.1l-5-5c-0.2-0.2-0.2-0.5,0-0.7s0.5-0.2,0.7,0l5,5c0.2,0.2,0.2,0.5,0,0.7
			C24.8,20.5,24.6,20.5,24.5,20.5z"/>
	</g>
	<g>
		<path d="M19.5,20.5c-0.1,0-0.3,0-0.4-0.1c-0.2-0.2-0.2-0.5,0-0.7l5-5c0.2-0.2,0.5-0.2,0.7,0s0.2,0.5,0,0.7l-5,5
			C19.8,20.5,19.6,20.5,19.5,20.5z"/>
	</g>
</g>
</svg>
