<svg xmlns="http://www.w3.org/2000/svg" width="35" height="35" viewBox="0 0 35 35"><title>icoon_voucher-s</title><path d="M20.6,5.914l1.919,1.919A3.467,3.467,0,0,0,25.6,12.87a3.368,3.368,0,0,0,1.569-.383L29.086,14.4,14.4,29.086l-1.919-1.919A3.467,3.467,0,0,0,9.4,22.13a3.368,3.368,0,0,0-1.569.383L5.914,20.6,20.6,5.914m0-1.414L4.5,20.6,7.725,23.82A2.359,2.359,0,0,1,9.4,23.13a2.461,2.461,0,0,1,1.743.726,2.418,2.418,0,0,1,.036,3.419L14.4,30.5,30.5,14.4,27.275,11.18a2.359,2.359,0,0,1-1.676.69,2.461,2.461,0,0,1-1.743-.726,2.418,2.418,0,0,1-.036-3.419L20.6,4.5Z"/><circle cx="19.305" cy="12.065" r="0.636" transform="translate(-2.877 17.185) rotate(-45)"/><circle cx="21.169" cy="13.929" r="0.636" transform="translate(-3.649 19.047) rotate(-44.997)"/><circle cx="23.033" cy="15.792" r="0.636" transform="translate(-4.421 20.911) rotate(-44.997)"/><rect x="10.589" y="16.805" width="7.781" height="1" transform="translate(-7.996 15.307) rotate(-45)"/><rect x="12.265" y="18.48" width="7.781" height="1" transform="translate(-8.689 16.983) rotate(-45)"/><rect x="14.509" y="21.531" width="3.89" height="1" transform="translate(-10.759 18.088) rotate(-45)"/></svg>