<?xml version="1.0" encoding="utf-8"?>
<!-- Generator: Adobe Illustrator 18.0.0, SVG Export Plug-In . SVG Version: 6.00 Build 0)  -->
<!DOCTYPE svg PUBLIC "-//W3C//DTD SVG 1.1//EN" "http://www.w3.org/Graphics/SVG/1.1/DTD/svg11.dtd">
<svg version="1.1" id="Layer_1" xmlns="http://www.w3.org/2000/svg" xmlns:xlink="http://www.w3.org/1999/xlink" x="0px" y="0px"
	 width="35px" height="35px" viewBox="0 0 35 35" enable-background="new 0 0 35 35" xml:space="preserve">
<g>
	<g>
		<path d="M21.502,11.75c-0.153,0-0.309-0.013-0.465-0.039c-1.494-0.258-2.502-1.682-2.248-3.176
			c0.254-1.477,1.658-2.506,3.176-2.245c1.493,0.257,2.5,1.682,2.244,3.175C23.985,10.789,22.846,11.75,21.502,11.75z M21.5,7.25
			c-0.854,0-1.579,0.612-1.724,1.454c-0.162,0.95,0.48,1.857,1.431,2.021c0.958,0.159,1.858-0.49,2.019-1.429
			c0.162-0.951-0.478-1.857-1.428-2.021C21.698,7.258,21.598,7.25,21.5,7.25z"/>
	</g>
</g>
<g>
	<g>
		<path d="M13.872,17.461c-0.271,0-0.49-0.219-0.49-0.49c0-0.606,0.119-1.194,0.354-1.748c0.226-0.534,0.549-1.015,0.961-1.427
			c0.413-0.413,0.893-0.736,1.427-0.962c1.11-0.469,2.386-0.468,3.496,0c0.249,0.105,0.366,0.393,0.261,0.642
			c-0.105,0.25-0.395,0.364-0.642,0.261c-0.867-0.366-1.866-0.366-2.733,0c-0.417,0.176-0.792,0.43-1.116,0.752
			c-0.323,0.323-0.576,0.698-0.752,1.116c-0.183,0.433-0.276,0.892-0.276,1.366C14.361,17.242,14.142,17.461,13.872,17.461z"/>
	</g>
</g>
<g>
	<path d="M11.4,29.5c0.17,0,0.335-0.086,0.429-0.243l3.769-6.282l-0.561-1.009l-4.066,6.776c-0.142,0.237-0.065,0.544,0.171,0.686
		C11.223,29.477,11.312,29.5,11.4,29.5z"/>
</g>
<g>
	<path d="M22,18.007c-1.068,0-2.013-0.491-2.656-1.247l-0.543,0.905c0.816,0.827,1.948,1.342,3.199,1.342c0.276,0,0.5-0.224,0.5-0.5
		S22.276,18.007,22,18.007z"/>
</g>
<g>
	<g>
		<path d="M21.715,29.786c-0.176,0-0.346-0.093-0.438-0.257l-5.714-10.286c-0.087-0.156-0.083-0.347,0.008-0.5L19,13.029
			c0.142-0.236,0.449-0.314,0.686-0.171c0.237,0.142,0.313,0.449,0.171,0.686l-3.28,5.467l5.574,10.033
			c0.134,0.241,0.047,0.545-0.194,0.68C21.88,29.766,21.797,29.786,21.715,29.786z"/>
	</g>
</g>
</svg>
