<svg xmlns="http://www.w3.org/2000/svg" width="35" height="35" viewBox="0 0 35 35"><title>whatsapp--35x35</title><path d="M17.713,8a9.5,9.5,0,1,1-5.027,17.562l-.381-.238-.432.126-3.61,1.062,1.125-3.823L9.5,22.3l-.19-.359A9.5,9.5,0,0,1,17.713,8m0-1A10.5,10.5,0,0,0,8.429,22.407L6.787,27.989l5.369-1.579A10.5,10.5,0,1,0,17.713,7Z"/><path d="M20.781,23.024a3.16,3.16,0,0,1-.557-.051c-2.365-.418-4.548-2.685-4.753-2.9s-2.483-2.387-2.9-4.752a2.9,2.9,0,0,1,2.293-3.3,1.221,1.221,0,0,1,1.195.324,8.022,8.022,0,0,1,1.078,2.511,1.252,1.252,0,0,1-.541,1.105l-.47.371A8.689,8.689,0,0,0,17.5,18.047a8.857,8.857,0,0,0,1.713,1.37l.376-.471a1.235,1.235,0,0,1,1.1-.539A8.016,8.016,0,0,1,23.2,19.486a1.216,1.216,0,0,1,.323,1.2A2.965,2.965,0,0,1,20.781,23.024ZM15.19,12.977a.28.28,0,0,0-.07.009c-.191.05-1.853.542-1.566,2.158.372,2.1,2.589,4.187,2.612,4.208l.025.025c.021.022,2.109,2.24,4.207,2.612a1.94,1.94,0,0,0,2.158-1.566A.223.223,0,0,0,22.5,20.2a9.535,9.535,0,0,0-1.877-.795c-.056,0-.122-.008-.251.157l-.39.494a.921.921,0,0,1-1.2.271,9.575,9.575,0,0,1-2-1.573,9.522,9.522,0,0,1-1.573-2,.917.917,0,0,1,.267-1.194l.494-.39c.167-.131.163-.2.16-.254a9.181,9.181,0,0,0-.812-1.9A.192.192,0,0,0,15.19,12.977Z"/></svg>