<?xml version="1.0" encoding="utf-8"?>
<!-- Generator: Adobe Illustrator 18.0.0, SVG Export Plug-In . SVG Version: 6.00 Build 0)  -->
<!DOCTYPE svg PUBLIC "-//W3C//DTD SVG 1.1//EN" "http://www.w3.org/Graphics/SVG/1.1/DTD/svg11.dtd">
<svg version="1.1" id="Layer_1" xmlns="http://www.w3.org/2000/svg" xmlns:xlink="http://www.w3.org/1999/xlink" x="0px" y="0px"
	 width="35px" height="35px" viewBox="0 0 35 35" enable-background="new 0 0 35 35" xml:space="preserve">
<g>
	<g>
		<circle cx="17.5" cy="24" r="1"/>
	</g>
</g>
<path d="M12.5,20.4l0.7,0.7c1.1-1,2.6-1.6,4.2-1.6s3.1,0.6,4.2,1.6l0.7-0.7c-1.3-1.2-3.1-1.9-5-1.9S13.9,19.2,12.5,20.4z M17.5,9.5
	c-4.4,0-8.4,1.7-11.3,4.5l0.7,0.7c2.8-2.6,6.5-4.2,10.6-4.2s7.8,1.6,10.6,4.2l0.7-0.7C25.9,11.2,21.9,9.5,17.5,9.5z M9.4,17.2
	l0.7,0.7c2-1.8,4.6-2.9,7.4-2.9s5.5,1.1,7.4,2.9l0.7-0.7c-2.1-2-5-3.2-8.1-3.2S11.5,15.2,9.4,17.2z"/>
</svg>
