<?xml version="1.0" encoding="utf-8"?>
<!-- Generator: Adobe Illustrator 18.0.0, SVG Export Plug-In . SVG Version: 6.00 Build 0)  -->
<!DOCTYPE svg PUBLIC "-//W3C//DTD SVG 1.1//EN" "http://www.w3.org/Graphics/SVG/1.1/DTD/svg11.dtd">
<svg version="1.1" id="Layer_1" xmlns="http://www.w3.org/2000/svg" xmlns:xlink="http://www.w3.org/1999/xlink" x="0px" y="0px"
	 width="35px" height="35px" viewBox="0 0 35 35" enable-background="new 0 0 35 35" xml:space="preserve">
<g>
	<rect x="7" y="27" width="21" height="1"/>
</g>
<g>
	<path d="M23,27.999L23,27.999c-0.55,0-1-0.45-1-1v-3.5c0-0.55,0.45-1,1-1h0c0.55,0,1,0.45,1,1v3.5
		C24,27.549,23.55,27.999,23,27.999z"/>
</g>
<g>
	<path d="M13,27.999L13,27.999c-0.55,0-1-0.45-1-1v-8c0-0.55,0.45-1,1-1h0c0.55,0,1,0.45,1,1v8C14,27.549,13.55,27.999,13,27.999z"
		/>
</g>
<g>
	<g>
		<path d="M23.479,14.02c-0.275-0.024-0.518,0.179-0.542,0.455l-0.261,2.989l0.996,0.087l0.261-2.989
			C23.958,14.287,23.755,14.044,23.479,14.02z"/>
	</g>
</g>
<g>
	<g>
		<path d="M18.257,21.159c-0.25,0.117-0.359,0.414-0.242,0.664c0.117,0.25,0.414,0.359,0.664,0.242l2.719-1.268l-0.423-0.906
			L18.257,21.159z"/>
	</g>
</g>
<g>
	<g>
		<path d="M27.505,22.654c0.159-0.226,0.104-0.538-0.123-0.696l-2.457-1.721l-0.574,0.819l2.458,1.721
			C27.035,22.935,27.347,22.88,27.505,22.654z"/>
	</g>
</g>
<g>
	<circle cx="23" cy="19.499" r="0.75"/>
</g>
<g>
	<g>
		<path d="M19.797,18.169c0.117-0.25,0.009-0.548-0.242-0.664l-4.531-2.113l-0.423,0.906l4.531,2.113
			C19.383,18.528,19.68,18.419,19.797,18.169z"/>
	</g>
</g>
<g>
	<g>
		<path d="M6.979,18.605c-0.226,0.159-0.281,0.47-0.123,0.696c0.159,0.226,0.47,0.281,0.696,0.123l4.096-2.868l-0.574-0.819
			L6.979,18.605z"/>
	</g>
</g>
<g>
	<g>
		<path d="M12.888,7.982c-0.024-0.275-0.266-0.479-0.542-0.455c-0.275,0.024-0.479,0.266-0.455,0.542l0.436,4.981l0.996-0.087
			L12.888,7.982z"/>
	</g>
</g>
<g>
	<circle cx="13" cy="14.999" r="0.75"/>
</g>
</svg>
