<svg xmlns="http://www.w3.org/2000/svg" width="30" height="30" viewBox="0 0 30 30"><defs><style>.a{fill:#fff;}.b{fill:#006fcf;}</style></defs><title>amex</title><polygon class="a" points="5 5 5 14.969 5 25 15 25 25 25 25 15 25 5 15.004 5 5 5 5 5"/><path class="b" d="M21.433,9.907l.64-1.74H25V5H5V25H25V21.84H22.24l-1.02-1.193L20.16,21.84H12.32V15.487H9.733l3.234-7.32h3.146l.76,1.66V8.167H20.78l.653,1.74ZM19.227,11.06l-.007-.7.267.7,1.3,3.473H22.08l1.307-3.473.253-.693v4.166H25V9.2H22.74l-1.027,2.707-.273.733-.28-.733L20.127,9.2h-2.26v5.333h1.36V11.06ZM16.3,14.533h1.567L15.52,9.2H13.7l-2.36,5.333h1.547l.413-1.026h2.587l.413,1.026Zm-1.973-3.526.266-.667.267.667.553,1.346h-1.64l.554-1.346Zm-.914,4.486v5.314h4.454V19.653H14.773v-.926h3.034V17.58H14.773v-.933h3.094V15.493Zm9.407,5.314h1.767L22.093,18.14l2.494-2.647h-1.74L21.24,17.22l-1.6-1.727H17.867l2.486,2.667-2.486,2.647h1.72l1.62-1.734,1.613,1.734Zm.673-2.674L25,19.667V16.62l-1.507,1.513Z"/></svg>