<svg xmlns="http://www.w3.org/2000/svg" xmlns:xlink="http://www.w3.org/1999/xlink" viewBox="0 0 35 35"><defs><style>.a{fill:#fff;}.a,.c,.d{fill-rule:evenodd;}.b{mask:url(#a);}.c{fill:#ef533d;}.d{fill:#ea553f;}</style><mask id="a" x="7.007" y="6" width="14.818" height="23" maskUnits="userSpaceOnUse"><path class="a" d="M21.824,6H7.008V29H21.824V6Z"/></mask></defs><title>asn</title><g class="b"><path class="c" d="M11.9,19.447a7.822,7.822,0,0,1,.715-2,4.68,4.68,0,0,0,.435-1.169,2.609,2.609,0,0,0,.07-.543,3.068,3.068,0,0,0-5.9-1.179,6.863,6.863,0,1,1,13.507-2.022,7.186,7.186,0,0,1-1.31,4.272c-1.092,1.683-2.332,3.26-2.332,5.367a6.856,6.856,0,0,0,4.744,6.523A7.917,7.917,0,0,1,11.733,21.42a7.984,7.984,0,0,1,.165-1.973"/></g><path class="c" d="M23.918,15.944a.67.67,0,1,0-.669.67.669.669,0,0,0,.669-.67"/><path class="d" d="M22.984,8.809l0,.023.01-.021-.007,0Z"/><path class="c" d="M25.881,23.864a2.777,2.777,0,0,1,1.631-2.672v-.029a4.5,4.5,0,0,0-.874-.085,4.554,4.554,0,0,0-3.709,7.191,7.939,7.939,0,0,0,3.4-3.024,2.764,2.764,0,0,1-.452-1.381m.953-10.782A4.005,4.005,0,0,0,26.557,9.6,5.212,5.212,0,0,1,25.5,12.108l-.038.062c-.24-.126-.5-.253-.779-.38a4.756,4.756,0,0,1-.558-.334,3.109,3.109,0,0,1-1.44-1.883,4.785,4.785,0,0,0,1.764,5.242l.013.008a7.782,7.782,0,0,1,.7.605,7.9,7.9,0,0,1,1.964,3.117,4.427,4.427,0,0,0,.868-2.632,3.443,3.443,0,0,0-1.158-2.831"/></svg>