<svg xmlns="http://www.w3.org/2000/svg" xmlns:xlink="http://www.w3.org/1999/xlink" viewBox="0 0 35 35"><defs><style>.a{fill:none;}.b{clip-path:url(#a);}.c{clip-path:url(#b);}.d{fill:#238647;}.e{fill:#2f9b47;}.f{fill:#62b64f;}.g{fill:#89cc53;}.h{fill:#3db8ad;}.i{fill:#3394d7;}.j{fill:#2872bc;}.k{fill:#1d5c84;}.l{fill:#993233;}.m{fill:#e13030;}.n{fill:#f28825;}.o{fill:#f5c836;}.p{fill:#fff;fill-rule:evenodd;}</style><clipPath id="a"><rect class="a" x="6.004" y="6.004" width="22.992" height="22.992" rx="1.514"/></clipPath><clipPath id="b"><rect class="a" x="6.004" y="6.004" width="23" height="23"/></clipPath></defs><title>bunq</title><g class="b"><rect class="a" x="6.004" y="6.004" width="23" height="23"/><g class="c"><rect class="d" x="6.004" y="6.004" width="3.833" height="23"/><rect class="e" x="7.921" y="6.004" width="3.833" height="23"/><rect class="f" x="9.837" y="6.004" width="3.833" height="23"/><rect class="g" x="11.754" y="6.004" width="3.833" height="23"/><rect class="h" x="13.671" y="6.004" width="3.833" height="23"/><rect class="i" x="15.587" y="6.004" width="3.833" height="23"/><rect class="j" x="17.504" y="6.004" width="3.833" height="23"/><rect class="k" x="19.421" y="6.004" width="3.833" height="23"/><rect class="l" x="21.337" y="6.004" width="3.833" height="23"/><rect class="m" x="23.254" y="6.004" width="3.833" height="23"/><rect class="n" x="25.171" y="6.004" width="3.833" height="23"/><rect class="o" x="27.087" y="6.004" width="1.917" height="23"/><path class="p" d="M16.354,15.683h.766V17.7a1.725,1.725,0,0,1-3.45,0V15.683h.767V17.7a.963.963,0,1,0,1.917,0Z"/><path class="p" d="M20.575,19.325h.766V17.312a1.725,1.725,0,1,0-3.45,0v2.013h.767V17.312a.963.963,0,1,1,1.917,0Z"/><path class="p" d="M9.741,19.325H9.07V17.6h0q0-.048,0-.1v-3.45h.767v1.917a1.916,1.916,0,1,1-.059,3.02Zm1.2-3.067a1.247,1.247,0,1,1-1.2,1.246A1.223,1.223,0,0,1,10.939,16.258Z"/><path class="p" d="M25.267,15.683h.67v1.725h0c0,.032,0,.064,0,.1v3.45h-.766V19.037a1.917,1.917,0,1,1,.058-3.02Zm-1.2,3.067a1.247,1.247,0,1,1,1.2-1.246A1.223,1.223,0,0,1,24.069,18.75Z"/></g></g></svg>