<svg xmlns="http://www.w3.org/2000/svg" xmlns:xlink="http://www.w3.org/1999/xlink" viewBox="0 0 35 35"><defs><style>.a{fill:url(#a);}.b{fill:#fff;}</style><linearGradient id="a" x1="6.497" y1="17.5" x2="28.497" y2="17.5" gradientUnits="userSpaceOnUse"><stop offset="0" stop-color="#015c9d"/><stop offset="1" stop-color="#0181bb"/></linearGradient></defs><title>handelsbanken</title><rect class="a" x="6.497" y="6.5" width="22" height="22"/><polyline class="b" points="13.772 11.214 13.772 15.951 18.767 15.951 18.767 11.214 21.48 11.214 21.48 23.558 18.767 23.558 18.767 18.234 13.772 18.234 13.772 23.558 11.058 23.558 11.058 11.214"/><path class="b" d="M28.5,14.5c-.04-.007-.076-.019-.116-.024a9.484,9.484,0,0,0-1.364-.1,7.79,7.79,0,0,0-1.475.147,4.2,4.2,0,0,0-1.322.5,2.778,2.778,0,0,0-1.4,2.351h2.463a1.407,1.407,0,0,1,.48-1.043,1.848,1.848,0,0,1,1.134-.313,3.986,3.986,0,0,1,.612.045,1.291,1.291,0,0,1,.5.171.933.933,0,0,1,.341.366,1.254,1.254,0,0,1,.132.632.663.663,0,0,1-.222.579,1.683,1.683,0,0,1-.661.3,6.26,6.26,0,0,1-.947.155c-.361.036-.723.081-1.092.137a9.622,9.622,0,0,0-1.092.237,3.009,3.009,0,0,0-.967.441,2.226,2.226,0,0,0-.7.786,2.684,2.684,0,0,0-.264,1.256,2.852,2.852,0,0,0,.229,1.194,2.317,2.317,0,0,0,.654.832,2.614,2.614,0,0,0,.967.485,4.339,4.339,0,0,0,1.19.155,5.646,5.646,0,0,0,1.621-.24,3.264,3.264,0,0,0,1.3-.774Zm-.019,5.6a4.817,4.817,0,0,1-.042.555,1.953,1.953,0,0,1-.236.679,1.545,1.545,0,0,1-.584.579,2.14,2.14,0,0,1-1.121.246,3.276,3.276,0,0,1-.57-.054,1.241,1.241,0,0,1-.48-.179.867.867,0,0,1-.327-.354A1.123,1.123,0,0,1,25,21.017a1.159,1.159,0,0,1,.125-.57,1.052,1.052,0,0,1,.313-.371,1.871,1.871,0,0,1,.466-.236,4.85,4.85,0,0,1,.55-.135c.2-.036.389-.06.584-.085s.383-.053.557-.09a4.161,4.161,0,0,0,.5-.126,1.117,1.117,0,0,0,.389-.216Z"/></svg>