<svg xmlns="http://www.w3.org/2000/svg" width="32" height="30" viewBox="0 0 32 30"><defs><style>.a{fill:#fff;}.b{fill:#cd0067;}</style></defs><title>ideal</title><path class="a" d="M5.655,5.72H19.848c3.628,0,7.02,2.933,7.02,6.55h0v5.614c0,3.617-3.392,6.55-7.02,6.55H5.655V5.72Z"/><rect x="7.556" y="16.252" width="3.685" height="6.101"/><ellipse cx="9.433" cy="13.203" rx="2.087" ry="2.08"/><path d="M18.222,5H5V24.99H18.222a10.471,10.471,0,0,0,6.795-2.131C27,21.18,28,18.538,28,15a12.149,12.149,0,0,0-.783-4.511,8.215,8.215,0,0,0-2.183-3.146,10.326,10.326,0,0,0-6.81-2.333Zm-.25,1.328a9.141,9.141,0,0,1,6.176,2c1.673,1.48,2.518,3.723,2.518,6.67,0,5.836-2.844,8.668-8.694,8.668H6.332V6.328Z"/><path class="b" d="M20.3,13.664h.676l-.341-.916Z"/><path class="b" d="M22.9,15.229V11.6h.892v2.852h1.651c-.337-5.106-4.3-6.507-8.024-6.507H12.933v3.627h.478a2.534,2.534,0,0,1,.689.07,1.265,1.265,0,0,1,.567.344,1.622,1.622,0,0,1,.353.6,2.66,2.66,0,0,1,.119.85,2.384,2.384,0,0,1-.112.769,1.622,1.622,0,0,1-.4.65,1.316,1.316,0,0,1-.531.3,2.232,2.232,0,0,1-.65.079h-.516v7.13H17.42c3.886,0,8.02-1.163,8.049-7.13Zm-4.326,0H15.741V11.571h2.766v.777H16.634v.579h1.747V13.7H16.634v.747h1.94Zm3,0-.3-.787H20.021l-.288.787h-.951l1.426-3.658h.877l1.464,3.658Z"/><path class="b" d="M13.758,14.421A.563.563,0,0,0,14,14.3a.654.654,0,0,0,.156-.292,2.136,2.136,0,0,0,.067-.606,1.937,1.937,0,0,0-.067-.587.691.691,0,0,0-.174-.3.585.585,0,0,0-.281-.14,3.057,3.057,0,0,0-.557-.031h-.21v2.1h.419A1.877,1.877,0,0,0,13.758,14.421Z"/></svg>