<svg xmlns="http://www.w3.org/2000/svg" viewBox="0 0 35 35"><defs><style>.a{fill:#fff;}.a,.b{fill-rule:evenodd;}.b{fill:#ff6201;}</style></defs><title>ing</title><path class="a" d="M24.735,26.226a1.6,1.6,0,0,0,.924-.279,4.243,4.243,0,0,0,3.06-.7,6.407,6.407,0,0,0,1.19-1.252,4.5,4.5,0,0,0,.668-1.244,5.822,5.822,0,0,0,.264-.875,8.333,8.333,0,0,0-.314-4.352c-.085-.251-.181-.493-.286-.725a7.55,7.55,0,0,0-2.568-3.229,5.157,5.157,0,0,1-1.69-1.759c-.209-.188-.409-.437-.68-.482a1.039,1.039,0,0,1,.176.384l-.016.02a1,1,0,0,1-.708-.327l.217-.2a1.1,1.1,0,0,0-.266-.078,6.056,6.056,0,0,0-2.238.47l-.012.041c.45.2.544.7.806,1.031.065-.077.175-.021.266-.028.131.007.253.1.38.069a1.177,1.177,0,0,0-.077-.294.536.536,0,0,1,.258,0c.237.138.617-.025.764.294a4.507,4.507,0,0,0-.777.135c.017.1.119.184.11.286a2.578,2.578,0,0,0-.687-.175l-.013.037a2.371,2.371,0,0,0,1.159.7c.618.143,1.162-.151,1.758-.049a6.852,6.852,0,0,1,3.262,3.663c.026.07.052.14.076.213a7.089,7.089,0,0,1,.086,4.352,5.32,5.32,0,0,1-.94,1.591,3.259,3.259,0,0,1-.536.528,2.4,2.4,0,0,1-2.152.475c-.049-.033-.147-.042-.131-.127.027-.114.053-.23.075-.348a8.625,8.625,0,0,0,.154-2.064l0-.089a7.888,7.888,0,0,0-.618-2.807,9.721,9.721,0,0,0-.882-1.546,3.663,3.663,0,0,0-1.639-1.35,1.231,1.231,0,0,0-1.248.216.845.845,0,0,0-.286.754,2.571,2.571,0,0,1-1.178.38,3.138,3.138,0,0,1-.323.046,1.827,1.827,0,0,1-.306-.011,3.03,3.03,0,0,1-1.44-.663c-.008-.213-.02-.413-.029-.639a.768.768,0,0,1-.433-.609l.02-.02a1.741,1.741,0,0,1,.364.175,2.717,2.717,0,0,0-.273-.912c-.148-.062-.3-.111-.434-.185a.7.7,0,0,1-.287-.474c.144.139.393.09.5.238a8.314,8.314,0,0,0-.511-1.739c-.16-.385-.577-.561-.863-.842-.111-.136-.156-.324-.356-.345-.164-.041-.176-.224-.2-.343a2.772,2.772,0,0,1,.273.1,3.085,3.085,0,0,0-1.088-1.731l-.11.07a6.817,6.817,0,0,1-.765.062,1.053,1.053,0,0,1,.462-.308,1.106,1.106,0,0,0-.553-.2,1.133,1.133,0,0,1-.535.233l-.021-.016c0-.147-.038-.327.184-.365a1.292,1.292,0,0,0-.783,0c-.06.16-.236.3-.223.492a3.446,3.446,0,0,1-.348.4,3.79,3.79,0,0,1,.187-.872c-.184.07-.371.168-.551.254a7.506,7.506,0,0,0-.907-.462c-.029-.013-.09-.025-.078.029.266.192.163.552.192.825l-.169-.139c-.081-.208-.317-.36-.358-.588a3.087,3.087,0,0,0-.714.237L9.93,9.2a.576.576,0,0,1,.45.3,5.3,5.3,0,0,1-.835-.127c-.028-.028-.053-.062-.1-.057a1.551,1.551,0,0,0-.392.253,2.77,2.77,0,0,0-.7.954.622.622,0,0,1,.282.069c-.155.094-.29.254-.442.343a3.833,3.833,0,0,0-.057.688,3.025,3.025,0,0,0-.356.541A8.036,8.036,0,0,0,7.5,14.831a3.075,3.075,0,0,1-.266.189l.008.834h.02c.037-.176.246-.274.373-.392h.041c-.021.188-.045.376-.049.568l-.237.2c-.238.208-.038.523-.058.785.017.069.029.172.078.188a1.158,1.158,0,0,1,.176-.266c.1-.024.192-.106.286-.118a4.3,4.3,0,0,1-.205.6.7.7,0,0,0-.124.1.29.29,0,0,0-.084.151,18.664,18.664,0,0,0,.8,2.839c-.224.38-.351.829-.539,1.221-.027.055-.051.112-.073.168-.188.476-.245,1.008-.479,1.465a1.719,1.719,0,0,0-.3-.16,1.231,1.231,0,0,0-1.276.287,1.1,1.1,0,0,0-.807.147,1.076,1.076,0,0,0-.358.437.9.9,0,0,0-.063.39.943.943,0,0,0-.344.519,1.616,1.616,0,0,0,.324,1.242Z"/><path class="a" d="M22.026,17.027c0,.106-.081.225-.012.315.1-.111.262-.107.393-.156a3.259,3.259,0,0,1,1.051.164c-.085-.136-.143-.286-.237-.409-.189-.049-.475.081-.507-.2-.115-.1-.295-.029-.413-.021a.924.924,0,0,0-.275.3Z"/><polygon class="a" points="9.523 13.494 9.517 13.49 9.518 13.494 9.523 13.494 9.523 13.494"/><path class="a" d="M11.01,17.131l.246-.238a.058.058,0,0,1,.049.021l-.021.454a.642.642,0,0,0,.421.156c.013-.123.107-.209.16-.315.045-.086.017-.213.107-.275l.028.029a1.328,1.328,0,0,0,.091.4c.008.065.019.147.028.205a1.034,1.034,0,0,0,.483-.107,1.8,1.8,0,0,1,.069-.425c.037-.05-.045-.139.057-.135.058.122.16.249.217.38a1.606,1.606,0,0,0,.393-.883c-.069-.095-.176-.095-.258-.156a3.077,3.077,0,0,0-2.259.078,1.048,1.048,0,0,0,.189.806Z"/><path class="a" d="M4.509,24.808a6.44,6.44,0,0,0,.019.922.472.472,0,0,0,.3.229l.021-.208c.049-.291-.106-.6.058-.845a2.069,2.069,0,0,1,.327.147.717.717,0,0,0-.279-.748l-.449.5Z"/><path class="a" d="M5.519,24.366a2.4,2.4,0,0,0-.086,1.573,1.77,1.77,0,0,0,.323-.246,1.706,1.706,0,0,1,.155-1.115.73.73,0,0,1,.414.443.76.76,0,0,0,.127-.639c.008-.18-.2-.139-.295-.213.033-.151.029-.326.188-.412l-.491.049a2.362,2.362,0,0,0-.335.56Z"/><path class="a" d="M6.529,25.779c.021.038,0,.1.041.111.061-.344.34-.567.491-.869.073-.1.069-.246.188-.324.16,0,.275.115.43.127.049.037-.025.069-.029.11a4.048,4.048,0,0,0-.118.8H7.56a4.132,4.132,0,0,0,.524-.739l.028-.232c.037-.279-.266-.458-.462-.573l.176-.225-.245-.086a1.121,1.121,0,0,0-.745.372,3.332,3.332,0,0,0-.307,1.532Z"/><path class="a" d="M7.63,23.351c.094.029.18-.049.274-.007a2.462,2.462,0,0,1,1.052.6l.335.855.168-.528-.111-.287c-.094-.2-.352-.188-.528-.2-.073-.081,0-.176.029-.254.086-.29-.27-.274-.413-.392.008-.176-.205-.115-.324-.131l-.04-.049a.085.085,0,0,0-.119-.009c-.009-.011-.024-.02-.016-.04l-.091.02a.582.582,0,0,0-.216.421Z"/><path class="a" d="M7.867,22.411a.259.259,0,0,0,.086.138c.184-.049.36-.175.573-.1a3.232,3.232,0,0,0,.892.626l.118-.02c.074.025.155.029.205.11.045.111-.069.177-.107.266.185.135.111.377.225.54l.295-.393c-.069-.172,0-.466-.266-.482a.256.256,0,0,1-.147-.238c-.176-.159-.393-.228-.569-.392-.143-.115-.229-.291-.414-.332A1.551,1.551,0,0,0,8.346,22c-.274-.04-.3.286-.479.414Z"/><path class="a" d="M8.259,21.605l.05.077c.2-.012.389-.1.589-.1.135.082.311.078.45.147a1.566,1.566,0,0,0,.393.426c.331.049.515.405.63.667V22.7a.872.872,0,0,0-.07-.54c-.082-.082-.2-.136-.286-.209a.169.169,0,0,1,.012-.127,2.637,2.637,0,0,0-.47-.314c-.217-.316-.635-.23-.966-.316l-.332.414Z"/><path class="a" d="M8.253,18.6c.036.127.081.287.105.422.114-.254.341-.368.541-.577a1.047,1.047,0,0,0-.384-.139V18.3c-.091.09-.23.18-.262.3Z"/><path class="a" d="M9,19.949l.184-.188a1.155,1.155,0,0,0,.364-.646.523.523,0,0,0-.429.02A5.2,5.2,0,0,0,9,19.949Z"/><path class="a" d="M9.131,20.526a1.192,1.192,0,0,0,.786-.085l.229-.737c-.074,0-.148-.037-.217-.012a1.8,1.8,0,0,1-.8.834Z"/><path class="a" d="M9.214,17.916a1.645,1.645,0,0,0,.806.659c-.037-.344-.331-.581-.482-.876l-.009-.1a1.515,1.515,0,0,0-.385-.254,1.927,1.927,0,0,0,.07.569Z"/><path class="a" d="M10.211,20.559a1.437,1.437,0,0,0,.65-.062c.292-.069.451-.388.549-.638h-.364l-.393.385a3.066,3.066,0,0,0-.442.315Z"/><path class="a" d="M10.167,17.544a2.394,2.394,0,0,0,.381.884l.049-.61-.43-.274Z"/><path class="a" d="M11.508,19.135a2.994,2.994,0,0,0-.084-.65c-.124-.082-.3-.074-.422-.155a1.2,1.2,0,0,0,.506.805Z"/><path class="a" d="M11.136,21.214a4.046,4.046,0,0,0,.744-.3c.151-.217.381-.414.413-.667-.188.053-.351-.008-.527.078a1.349,1.349,0,0,1-.376.548c-.033.139-.184.233-.254.344Z"/><path class="a" d="M11.537,21.717l.307.4a.622.622,0,0,0,.511-.058l-.111-.364a1.407,1.407,0,0,1-.707.021Z"/><path class="a" d="M12.048,18.82l.119.541a1.09,1.09,0,0,0,.337-.933,1.291,1.291,0,0,1-.456.392Z"/><path class="a" d="M12.854,19.774a.392.392,0,0,0,.07.213c.319.114.351.5.646.65a.733.733,0,0,0,.581-.1c-.127-.143-.27-.242-.392-.394-.087-.036-.173-.089-.168-.2l-.737-.175Z"/><path class="a" d="M13.107,21.705a.96.96,0,0,0,.524.286c-.032-.045.021,0,.029-.029l-.246-.539c-.122,0-.249.028-.363.02a1.092,1.092,0,0,0,.056.262Z"/><path class="a" d="M13.541,19.184a3.181,3.181,0,0,1-.2-.883c-.123.147-.25.241-.364.393-.053.3.379.376.559.49Z"/><path class="a" d="M14.04,18.907c.148.192.471.126.652.069-.087-.148-.364-.233-.413-.393a3.585,3.585,0,0,0-.176-.814,1.165,1.165,0,0,0-.063,1.138Z"/><path class="a" d="M14.3,19.774a1.682,1.682,0,0,0,1.383.519c.041-.029.111-.024.119-.078-.168-.106-.348-.188-.52-.286l-.2-.287h-.09a3.553,3.553,0,0,1-.7.132Z"/><path class="a" d="M14.306,23.091h.029a2.224,2.224,0,0,1,.826-.344c.078.029.029.115.1.148.177-.074.39-.057.569-.119a1.24,1.24,0,0,1,.569.107c.139.184.4.164.581.286l-.029-.286a1.838,1.838,0,0,0-1.522-.471l-.012-.057a.987.987,0,0,0-.4.086,2.094,2.094,0,0,0-.511.147,4.937,4.937,0,0,0-.2.5Z"/><path class="a" d="M14.635,18.063a.692.692,0,0,0,.667.316A.774.774,0,0,1,15,17.908c.041-.364-.36-.393-.556-.581a2.434,2.434,0,0,0,.2.736Z"/><path class="a" d="M14.593,23.816h.048c.218-.136.533-.033.746-.176.118-.062.126.1.208.147.2.123.225.49.507.405.34.176.254.589.267.892l.315-.2c-.029-.16.06-.353-.042-.492-.077-.175-.29-.192-.392-.335.123-.209-.156-.307-.213-.458l.016-.021.434.058a.641.641,0,0,1,.245.405c.34.057.422.441.541.687.069-.168.1-.348.168-.511,0-.136-.177-.136-.267-.2a.733.733,0,0,0-.3-.533,4.549,4.549,0,0,0-1.121-.3l-.344.106c-.188.045-.389-.012-.532.118-.213.017-.229.251-.282.4Z"/><path class="a" d="M14.81,22.13l.078.037c.167-.078.335-.168.511-.234.274-.077.487.234.716.038.086-.062.159.028.224.077.1.18.328.168.5.217-.085-.233-.191-.552-.49-.59a2.933,2.933,0,0,1-.373-.118c-.314-.347-.519.286-.863.131a.959.959,0,0,0-.3.442Z"/><path class="a" d="M14.888,24.123c.13.109.265.3.469.273.255.119.148.454.287.63l.148-.131-.013-.007.021-.021.008.012a.776.776,0,0,0-.086-.483c-.094-.065-.205,0-.295-.057a.411.411,0,0,0-.188-.278c-.065-.049-.151.017-.225.013l-.126.049Z"/><path class="a" d="M15.4,19.135a2.126,2.126,0,0,0,.605.52.975.975,0,0,0,.582.057,3.712,3.712,0,0,1-.484-.479c-.057-.081-.069-.183-.147-.257a1.156,1.156,0,0,0-.556.159Z"/><path class="a" d="M15.624,17.671c.189.233.479.139.745.147V17.79l-.409-.344a1.1,1.1,0,0,0-.336.225Z"/><path class="a" d="M8.093,13.813l.237.736c0-.417.188-.765.148-1.19l.176-.262-.373.114a1.4,1.4,0,0,0-.188.6Z"/><path class="a" d="M8.253,12.536l.323-.188v-.479a1.77,1.77,0,0,0-.315.332l-.008.335Z"/><path class="a" d="M14.889,13.281a.458.458,0,0,1-.295.148,1.4,1.4,0,0,0,.118-1.11,1.528,1.528,0,0,0,.275-.1l-.009-.007.226-.2c.3-.205.183-.593.294-.884-.147-.229-.192-.507-.4-.7l.013-.007c-.168-.213-.471-.189-.7-.295-.3-.1-.535.106-.752.246-.094.016-.037.139-.139.134a4.353,4.353,0,0,0-.168.483,1.634,1.634,0,0,0-1.166.217A1.7,1.7,0,0,0,11.6,11c-.147-.028-.315.025-.421-.057-.155-.176-.189-.5-.455-.54-.093-.033-.114-.135-.114-.225-.176-.028-.331-.11-.5-.148-.261-.118-.47.07-.667.2a1.98,1.98,0,0,0-.266.1,3.718,3.718,0,0,0-.38.715,1.49,1.49,0,0,0,.225.569,1.157,1.157,0,0,0,.638.581,2.42,2.42,0,0,0,0,1.3l-.007,0-.013.012a.223.223,0,0,1-.113-.012h0a1.777,1.777,0,0,0,.539,1.026c.106.038.082.164.127.246a.2.2,0,0,1,.02.147,3.205,3.205,0,0,0-1.718.43c-.131.065-.073.246-.086.372a3.147,3.147,0,0,1,1.178-.49,1.756,1.756,0,0,1,.569-.009l.02.352a5.226,5.226,0,0,0-1.436.818,1.618,1.618,0,0,0,.021.381l.372-.3a4.409,4.409,0,0,1,1.15-.659,1.444,1.444,0,0,0,.372.352,2.772,2.772,0,0,1,.806-.352c.151-.09.392-.008.49-.188l.07-.372c-.012-.009-.02-.025-.04-.02a.562.562,0,0,1-.3-.528.562.562,0,0,1-.217.057c-.066-.017-.127-.032-.156-.1,0-.082-.045-.205.037-.266a1.579,1.579,0,0,1,.945-.147c.25.032.61.019.7.315-.011.085,0,.179-.089.237s-.192-.005-.275-.041a.677.677,0,0,1-.4.491l.03.237c.028.107.036.282.2.246a3.583,3.583,0,0,1,1.072.511,2.572,2.572,0,0,0,.286-.364,5.358,5.358,0,0,1,1.628,1.08l.021-.344a5.6,5.6,0,0,0-1.551-.953,2.146,2.146,0,0,0,.049-.335,4.013,4.013,0,0,1,1.805.552l-.009-.295a4.01,4.01,0,0,0-1.857-.511.212.212,0,0,1-.029-.127.91.91,0,0,0,.639-.688c.167-.192.409-.4.352-.687l.024-.073a.336.336,0,0,0,.017-.213Z"/><path class="a" d="M15.457,14.332l.336-.106.036-.188c.095-.274-.106-.479-.205-.7l-.167.99Z"/><path class="a" d="M16.3,15.63c.159.175.315.458.6.371a1.781,1.781,0,0,0-.128-.323c-.074-.086-.1-.331-.245-.245-.11-.074-.139-.2-.209-.295a2.888,2.888,0,0,0-.016.492Z"/><path class="a" d="M16.361,16.828c.062.086.078.2.139.274a.657.657,0,0,0,.409.049c.123-.028.2.107.315.028-.143-.089-.228-.253-.364-.371-.16-.127-.331-.017-.5.02Z"/><path class="a" d="M16.578,18.73a1.576,1.576,0,0,0,1.018.275c.041-.021.11-.017.118-.066-.233-.082-.477-.315-.722-.364-.136-.209-.312.053-.484.036.005.05.054.087.07.119Z"/><path class="a" d="M17.428,22.342l.062.132c.061.425.331.818.183,1.284.123.086.16.229.237.344h.021a2.729,2.729,0,0,0-.021-1.08c.038-.324-.29-.512-.482-.68Z"/><path class="a" d="M17.5,18.153a.91.91,0,0,0,.8.1,2.421,2.421,0,0,1-.454-.294l-.343.2Z"/><path class="a" d="M18.508,19.41a.445.445,0,0,0,.217.4.968.968,0,0,0,.127-.3.753.753,0,0,0-.3-.454,1.007,1.007,0,0,0-.049.356Z"/><path class="a" d="M18.521,21.275c-.029.192.183.217.273.323.074.09-.049.151-.049.237a1.113,1.113,0,0,1,.245.7,6.5,6.5,0,0,0,.189-.745c-.016-.179-.3-.143-.257-.343a.891.891,0,0,0-.07-.589c-.017-.029-.054-.087-.086-.07-.074.168-.258.286-.245.491Z"/><path class="a" d="M19.081,20.3l.213.413c.094-.011.154-.1.229-.167.057-.172-.094-.283-.139-.421-.038-.1,0-.23-.07-.315-.053-.033-.115-.086-.176-.071l-.057.561Z"/><path class="a" d="M19.355,19.213a1.194,1.194,0,0,1,.449.429c.144.418.373.8.541,1.2.061.282.111.534.188.813.029.073.012.216.127.2.033-.311.094-.609.1-.933a1.246,1.246,0,0,0-.364-.274v-.028c.017-.07.074-.152.16-.139.036-.042.147-.082.1-.156-.213-.213-.2-.579-.541-.645a.307.307,0,0,1-.158-.286.985.985,0,0,0-.6-.184Z"/><path class="a" d="M19.551,21.43c.209.192.135.471.119.729-.033.155.164.065.225.147a.893.893,0,0,1,.008.667,4.089,4.089,0,0,0,.323-.5c0-.07.086-.1.082-.188.037-.119-.1-.066-.159-.078s-.1-.045-.087-.111a.994.994,0,0,0-.032-.654c-.049-.168.021-.393-.058-.54-.13.18-.519.22-.421.527Z"/><path class="a" d="M19.932,18.526c.364.368.63.738,1.022,1.094a4.158,4.158,0,0,0-.02-.462,1.1,1.1,0,0,0-.254-.274c-.29-.029-.441-.42-.748-.358Z"/><path class="a" d="M20.885,20.476a.6.6,0,0,0,.04.106,5.327,5.327,0,0,1,.422.814c-.033-.3.172-.679-.1-.912-.037-.1-.16-.066-.237-.057l-.127.049Z"/><path class="a" d="M21.867,23.464c.114.052.262-.042.372-.106a.334.334,0,0,1,.266.085c.033.066,0,.127.012.188a2.509,2.509,0,0,1,.7.3l.069-.069a.48.48,0,0,0-.253-.4c-.086-.05-.213-.021-.274-.1a.427.427,0,0,0,.037-.237.593.593,0,0,1-.332-.106c-.069-.02-.131-.078-.188,0-.205.139-.217.343-.413.442Z"/><path class="a" d="M22.154,18.315a.732.732,0,0,0,.294-.13c.273-.25.671-.083.989-.087a2.213,2.213,0,0,0-.224-.315.943.943,0,0,0-.352-.1c-.278-.163-.466.111-.679.245a.451.451,0,0,0-.028.385Z"/><path class="a" d="M22.161,19.158c0-.012,0-.024.013-.029.036.034,0,.111.057.127a2.522,2.522,0,0,0,.3-.2c.274,0,.438-.266.707-.266a4.075,4.075,0,0,1,1.289.393.884.884,0,0,0-.491-.626.335.335,0,0,0-.327.1c-.275.172-.131-.25-.324-.258a2.028,2.028,0,0,1-.785.14c-.163.06-.278.212-.462.2a1.039,1.039,0,0,0,.02.421Z"/><path class="a" d="M22.35,20.071c.085.089.228.073.352.089l.356-.138c0-.066-.107-.083-.083-.156.1-.11.234-.033.356-.078.172-.024.348-.2.52-.069,0,.02.008.049-.008.069-.054.127.037.2.135.253.2.038.388.222.589.139a3.538,3.538,0,0,0-.107-.482c-.167-.029-.286-.168-.441-.225a.332.332,0,0,1-.246.106c-.315-.073-.692-.269-1.01-.069-.115.139-.319.1-.475.159a1.814,1.814,0,0,0,.062.4Z"/><path class="a" d="M22.484,22.5c-.024.07-.094.185.033.217.262.008.6-.126.8.077.069.054.037.164.033.234l.343.287a2.861,2.861,0,0,0,.1-.512.577.577,0,0,0-.207-.344c-.226,0-.357-.263-.6-.23-.127-.029-.237.083-.365.083-.057.058-.089.127-.139.188Z"/><path class="a" d="M22.583,20.574c.053.11.114.29.217.3a1.162,1.162,0,0,1,.863-.057c.09.017.09.119.07.185.138.081.306.146.453.237L24.146,21c-.009-.266-.344-.291-.365-.553a1.629,1.629,0,0,0-.871-.049c-.095.087-.229.074-.344.1-.007.033.012.053.017.082Z"/><path class="a" d="M22.652,21.9c.16-.045.261-.221.434-.237a.8.8,0,0,1,.658.335c.1.066.078.234.205.234a4.034,4.034,0,0,1,.021-.59c-.173-.286-.6-.065-.757-.4l-.3.02c-.217.053-.159.307-.189.479-.024.053-.073.094-.069.159Z"/><path class="a" d="M24.153,23.689c.128.253.406.445.434.736a1.37,1.37,0,0,0,.156-.253c0-.083-.1-.083-.136-.147-.036-.107.021-.2.038-.3a.8.8,0,0,0-.324-.384l-.168.344Z"/><path class="a" d="M24.657,23.043l.3.4a1.057,1.057,0,0,0,.077-.736c-.028-.045-.082-.119-.156-.086-.11.115-.126.29-.216.422Z"/><path class="a" d="M23.458,11.844a.86.86,0,0,0,.335.11.434.434,0,0,1,.3-.049c.151.1.335-.021.51-.012a1.883,1.883,0,0,0-.51-.323c-.23.049-.413.212-.639.274Z"/><path class="a" d="M25.058,12.229c.216.02.372.212.519.372a.73.73,0,0,1,.434.295l-.07-.218a1.384,1.384,0,0,0-.323-.556,1.593,1.593,0,0,0-.56.107Z"/><path class="b" d="M9.79,10.433l.119.013c.32.159.835.241.863.7a2.533,2.533,0,0,0-.891.561c-.2-.2-.594-.09-.658-.442.061-.332.179-.748.567-.835Z"/><path class="b" d="M10.1,12.508c.372-.032.732.02,1.117-.012a.488.488,0,0,1,.237.216c-.013.442-.147.864-.168,1.318a.6.6,0,0,0-.372.392,3.285,3.285,0,0,0-.434.205.431.431,0,0,1,.062-.462c.159-.225.572-.172.539-.528.107-.172,0-.393.009-.573-.041-.135-.082.045-.148.041a.533.533,0,0,1-.38-.028c-.086-.091-.193-.164-.217-.287a.672.672,0,0,1-.306-.266l.061-.016Z"/><path class="b" d="M10.548,15.176c.175.024.36-.054.511.032a.3.3,0,0,1-.188.1l-.274.127c-.1-.025-.045-.188-.049-.257Z"/><path class="b" d="M11.264,11.759c.175-.057.364-.176.552-.118a2.653,2.653,0,0,0-.343.474l-.561-.012a.791.791,0,0,1,.352-.344Z"/><path class="b" d="M12.905,11.624c.232-.041.22.262.433.275.037.049.09.093.07.167a3.5,3.5,0,0,1-.443.057c-.184-.1-.065-.421-.356-.4-.016-.024-.049-.073-.007-.09a.7.7,0,0,1,.3-.008Z"/><path class="b" d="M12.757,12.721a.561.561,0,0,1,.405-.185l1.06.021c.044.041-.041.077-.041.127-.066.061-.16.078-.217.135-.139,0-.127.167-.225.237-.152.151-.372.082-.548.057a.465.465,0,0,1-.16-.176l-.049.049c.061.23.045.483.09.716l.253.168c0,.377.447.274.639.483a1.123,1.123,0,0,1-.233.364,1.383,1.383,0,0,0-.52-.315c-.016-.221-.257-.351-.393-.462-.037-.4-.045-.81-.11-1.2l.049-.02Z"/><path class="b" d="M13.142,15.245h.491l-.062.257-.491-.208c-.012-.041.033-.054.062-.049Z"/><path class="b" d="M14.025,10.61l.365-.115a3.788,3.788,0,0,1,.6.36,1.447,1.447,0,0,1,.057.965c-.111.123-.352,0-.442.2h-.016a1.8,1.8,0,0,0-.876-.9.759.759,0,0,1,.315-.5Z"/><path class="a" d="M22.558,26.2H24.74a1.592,1.592,0,0,0,.925-.278,4.248,4.248,0,0,0,3.06-.7,6.432,6.432,0,0,0,1.19-1.252,4.509,4.509,0,0,0,.668-1.244,5.751,5.751,0,0,0,.263-.876,8.339,8.339,0,0,0-.312-4.353c-.086-.25-.182-.492-.287-.723a7.551,7.551,0,0,0-2.568-3.229,5.166,5.166,0,0,1-1.69-1.759c-.209-.189-.41-.438-.68-.483a1.065,1.065,0,0,1,.177.384l-.017.021a1,1,0,0,1-.708-.328l.217-.2a1.1,1.1,0,0,0-.266-.077,5.983,5.983,0,0,0-2.237.47l-.013.041c.45.2.544.695.806,1.031.065-.078.176-.021.266-.029.13.008.254.1.38.069a1.137,1.137,0,0,0-.078-.294.549.549,0,0,1,.258,0c.237.139.618-.025.765.294a4.507,4.507,0,0,0-.777.135c.016.1.119.185.11.287a2.542,2.542,0,0,0-.687-.176l-.012.036a2.371,2.371,0,0,0,1.158.7c.617.143,1.161-.152,1.758-.049a6.851,6.851,0,0,1,3.261,3.662c.027.07.053.141.077.212a7.092,7.092,0,0,1,.086,4.353,5.338,5.338,0,0,1-.94,1.592,3.341,3.341,0,0,1-.536.528,2.408,2.408,0,0,1-2.151.474c-.049-.032-.148-.041-.132-.126.028-.114.053-.231.075-.348A8.633,8.633,0,0,0,26.3,21.9c0-.03,0-.06,0-.09A7.887,7.887,0,0,0,25.682,19a9.729,9.729,0,0,0-.882-1.547,3.66,3.66,0,0,0-1.638-1.35,1.226,1.226,0,0,0-1.248.217.841.841,0,0,0-.287.753,2.563,2.563,0,0,1-1.178.38c-.106.009-.214.048-.323.047a1.71,1.71,0,0,1-.3-.013,3.014,3.014,0,0,1-1.441-.662c-.008-.212-.021-.414-.029-.638a.769.769,0,0,1-.433-.61l.021-.02a1.689,1.689,0,0,1,.363.176,2.667,2.667,0,0,0-.274-.912c-.147-.062-.295-.111-.434-.185a.7.7,0,0,1-.286-.475c.143.14.393.091.5.238a8.332,8.332,0,0,0-.511-1.739c-.16-.384-.577-.56-.863-.843-.111-.134-.156-.322-.356-.343-.164-.041-.176-.225-.205-.344.1.012.188.082.275.1A3.09,3.09,0,0,0,15.062,9.5l-.11.069a6.59,6.59,0,0,1-.765.062,1.045,1.045,0,0,1,.462-.307A1.1,1.1,0,0,0,14.1,9.12a1.116,1.116,0,0,1-.534.233l-.02-.016c-.005-.147-.039-.327.182-.364a1.278,1.278,0,0,0-.781,0c-.062.16-.236.3-.225.491a3.43,3.43,0,0,1-.347.4,3.781,3.781,0,0,1,.187-.871c-.184.069-.371.167-.551.254a7.587,7.587,0,0,0-.907-.463c-.029-.012-.09-.025-.078.029.266.192.163.552.191.826L11.045,9.5c-.082-.208-.318-.36-.359-.589a3.135,3.135,0,0,0-.714.237l-.036.02a.579.579,0,0,1,.45.3,5.267,5.267,0,0,1-.834-.126c-.029-.029-.053-.062-.1-.058a1.579,1.579,0,0,0-.393.254,2.767,2.767,0,0,0-.7.953.609.609,0,0,1,.282.07c-.155.094-.29.253-.442.343a3.736,3.736,0,0,0-.057.688,3.141,3.141,0,0,0-.356.539A8.025,8.025,0,0,0,7.5,14.8c-.082.077-.189.127-.266.188l.008.835h.02c.038-.176.246-.275.373-.393h.041c-.02.188-.045.376-.05.569l-.237.2c-.236.209-.036.523-.057.785.017.07.028.172.078.189a1.106,1.106,0,0,1,.176-.266c.1-.025.192-.107.286-.119a4.345,4.345,0,0,1-.205.6.79.79,0,0,0-.125.1.309.309,0,0,0-.083.153,18.4,18.4,0,0,0,.8,2.838c-.225.381-.352.829-.54,1.222-.027.055-.051.111-.073.168-.188.475-.246,1.007-.479,1.464a1.652,1.652,0,0,0-.3-.16,1.231,1.231,0,0,0-1.276.287,1.005,1.005,0,0,0-1.165.585.886.886,0,0,0-.063.388.941.941,0,0,0-.343.52A1.607,1.607,0,0,0,4.347,26.2Z"/><path class="b" d="M30.534,17.49c-.086-.25-.182-.492-.287-.723a7.551,7.551,0,0,0-2.568-3.229,5.166,5.166,0,0,1-1.69-1.759c-.209-.189-.41-.438-.68-.483a1.065,1.065,0,0,1,.177.384l-.017.021a1,1,0,0,1-.708-.328l.217-.2a1.1,1.1,0,0,0-.266-.077,5.983,5.983,0,0,0-2.237.47l-.013.041c.45.2.544.695.806,1.031.065-.078.176-.021.266-.029.13.008.254.1.38.069a1.137,1.137,0,0,0-.078-.294.549.549,0,0,1,.258,0c.237.139.618-.025.765.294a4.507,4.507,0,0,0-.777.135c.016.1.119.185.11.287a2.542,2.542,0,0,0-.687-.176l-.012.036a2.371,2.371,0,0,0,1.158.7c.617.143,1.161-.152,1.758-.049a6.851,6.851,0,0,1,3.261,3.662c.027.07.053.141.077.212a7.092,7.092,0,0,1,.086,4.353,5.338,5.338,0,0,1-.94,1.592,3.341,3.341,0,0,1-.536.528,2.408,2.408,0,0,1-2.151.474c-.049-.032-.148-.041-.132-.126.028-.114.053-.231.075-.348A8.633,8.633,0,0,0,26.3,21.9c0-.03,0-.06,0-.09A7.887,7.887,0,0,0,25.682,19a9.729,9.729,0,0,0-.882-1.547,3.66,3.66,0,0,0-1.638-1.35,1.226,1.226,0,0,0-1.248.217.841.841,0,0,0-.287.753,2.563,2.563,0,0,1-1.178.38c-.106.009-.214.048-.323.047a1.71,1.71,0,0,1-.3-.013,3.014,3.014,0,0,1-1.441-.662c-.008-.212-.021-.414-.029-.638a.769.769,0,0,1-.433-.61l.021-.02a1.689,1.689,0,0,1,.363.176,2.667,2.667,0,0,0-.274-.912c-.147-.062-.295-.111-.434-.185a.7.7,0,0,1-.286-.475c.143.14.393.091.5.238a8.332,8.332,0,0,0-.511-1.739c-.16-.384-.577-.56-.863-.843-.111-.134-.156-.322-.356-.343-.164-.041-.176-.225-.205-.344.1.012.188.082.275.1A3.09,3.09,0,0,0,15.062,9.5l-.11.069a6.59,6.59,0,0,1-.765.062,1.045,1.045,0,0,1,.462-.307A1.1,1.1,0,0,0,14.1,9.12a1.116,1.116,0,0,1-.534.233l-.02-.016c-.005-.147-.039-.327.182-.364a1.278,1.278,0,0,0-.781,0c-.062.16-.236.3-.225.491a3.43,3.43,0,0,1-.347.4,3.781,3.781,0,0,1,.187-.871c-.184.069-.371.167-.551.254a7.587,7.587,0,0,0-.907-.463c-.029-.012-.09-.025-.078.029.266.192.163.552.191.826L11.045,9.5c-.082-.208-.318-.36-.359-.589a3.135,3.135,0,0,0-.714.237l-.036.02a.579.579,0,0,1,.45.3,5.267,5.267,0,0,1-.834-.126c-.029-.029-.053-.062-.1-.058a1.579,1.579,0,0,0-.393.254,2.767,2.767,0,0,0-.7.953.609.609,0,0,1,.282.07c-.155.094-.29.253-.442.343a3.736,3.736,0,0,0-.057.688,3.141,3.141,0,0,0-.356.539A8.025,8.025,0,0,0,7.5,14.8c-.082.077-.189.127-.266.188l.008.835h.02c.038-.176.246-.275.373-.393h.041c-.02.188-.045.376-.05.569l-.237.2c-.236.209-.036.523-.057.785.017.07.028.172.078.189a1.106,1.106,0,0,1,.176-.266c.1-.025.192-.107.286-.119a4.345,4.345,0,0,1-.205.6.79.79,0,0,0-.125.1.309.309,0,0,0-.083.153,18.4,18.4,0,0,0,.8,2.838c-.225.381-.352.829-.54,1.222-.027.055-.051.111-.073.168-.188.475-.246,1.007-.479,1.464a1.652,1.652,0,0,0-.3-.16,1.231,1.231,0,0,0-1.276.287,1.005,1.005,0,0,0-1.165.585.886.886,0,0,0-.063.388.941.941,0,0,0-.343.52A1.607,1.607,0,0,0,4.347,26.2h7.229a2.3,2.3,0,0,1-.279-.453c-.155-.234-.049-.565-.065-.835.147-.3.3-.6.465-.888.034-.058.068-.115.1-.172l.332-.127c.176,0,.324-.127.491-.081.225.225.225-.225.442-.246a1.245,1.245,0,0,1,1.3.414c0,.057.091.057.07.11-.066.02-.127-.021-.2-.021-.311-.077-.675-.274-.982-.1-.012.073-.028.148-.042.221a1.969,1.969,0,0,0-.036.229,1.227,1.227,0,0,1,.519.356.836.836,0,0,1,.512-.356,1.19,1.19,0,0,1,.491.147c.258.238.131.643.107.946.233.13.49.2.727.331a1.138,1.138,0,0,1-.392.188l-.393-.078c-.045-.032-.123-.032-.139-.09a2.051,2.051,0,0,0-.372.5h5.6a3.017,3.017,0,0,0-.261-.453A2.323,2.323,0,0,1,19.5,24.9l.524-.8a4.775,4.775,0,0,1,.92-.057.325.325,0,0,0,.045-.025c.129-.089.168-.3.36-.27a1.054,1.054,0,0,1,.863.217.262.262,0,0,1-.026.053c-.107.173-.309-.02-.457.033-.061.065.029.143.041.217.053.073-.053.065-.09.077a.278.278,0,0,1-.245-.077c-.017-.021,0-.045-.037-.049a1.266,1.266,0,0,0-.208.371,1.044,1.044,0,0,1,.266.3c.094.134-.074.237-.107.356a.035.035,0,0,1-.061,0c-.087-.049-.16-.172-.254-.14-.082.364.028.728-.021,1.092a3.009,3.009,0,0,0,.52,0l.07-.769a2.512,2.512,0,0,1,.716-1.3c.376-.257.618.25.895.426.045.008.029.057.049.086,0,.082-.089.114-.147.139-.172.061-.3-.127-.4-.238-.1.111-.147.258-.266.345l.041.011a.893.893,0,0,1,.3.459.512.512,0,0,1-.246.405,4.039,4.039,0,0,1-.273-.589c0,.008,0,.012-.013.021-.225.06-.286.314-.323.519.012.2-.139.282-.1.482H24.74a1.592,1.592,0,0,0,.925-.278,4.248,4.248,0,0,0,3.06-.7,6.432,6.432,0,0,0,1.19-1.252,4.509,4.509,0,0,0,.668-1.244,5.751,5.751,0,0,0,.263-.876,8.339,8.339,0,0,0-.312-4.353Z"/><path class="b" d="M11.76,25.084c.159-.1.417-.127.454-.364a.585.585,0,0,0-.2-.128l-.168.05a2.18,2.18,0,0,1,.1-.315l.54-.176a4.4,4.4,0,0,0-.127.835,2.994,2.994,0,0,0,.323,1.21H12.1c-.065-.384-.467-.662-.343-1.112Z"/><path class="b" d="M13.016,24.592h.033l.392.357.057-.012c-.032.417-.053.826-.057,1.259h-.425a5.16,5.16,0,0,1-.213-1.268,1.922,1.922,0,0,1,.213-.336Z"/><path class="b" d="M13.891,24.986c.078-.1.11-.275.266-.294a.413.413,0,0,1,.295.1c.143.179,0,.409-.049.588a6.618,6.618,0,0,1-.246.818h-.413l.147-1.21Z"/><path class="b" d="M20.1,24.859c.09.115.119.27.254.372a.772.772,0,0,0,.09-.626l-.118-.119c.151-.037.31-.049.462-.077a1.705,1.705,0,0,0-.168.666c0,.369.066.737.1,1.121h-.45a2.464,2.464,0,0,1-.315-1.121.991.991,0,0,1,.147-.216Z"/><path class="a" d="M22.032,17c0,.107-.081.225-.012.315.1-.11.262-.106.393-.155a3.206,3.206,0,0,1,1.051.164c-.086-.136-.143-.287-.237-.41-.189-.049-.475.082-.507-.2-.115-.1-.295-.028-.414-.02a.932.932,0,0,0-.274.3Z"/><polygon class="a" points="9.529 13.465 9.523 13.461 9.524 13.465 9.529 13.465 9.529 13.465"/><path class="a" d="M11.016,17.1l.245-.237a.056.056,0,0,1,.05.02l-.021.454a.642.642,0,0,0,.421.156c.013-.123.107-.209.16-.316.045-.085.017-.212.106-.273l.029.028a1.314,1.314,0,0,0,.09.4l.028.205a1.021,1.021,0,0,0,.484-.107,1.8,1.8,0,0,1,.069-.425c.037-.049-.045-.139.057-.135.057.123.16.249.217.381a1.6,1.6,0,0,0,.392-.884c-.069-.094-.175-.094-.257-.156a3.085,3.085,0,0,0-2.258.078,1.043,1.043,0,0,0,.188.806Z"/><path class="a" d="M4.514,24.78a6.3,6.3,0,0,0,.02.922.466.466,0,0,0,.3.228l.02-.208c.049-.291-.106-.6.057-.844a1.92,1.92,0,0,1,.328.147.717.717,0,0,0-.279-.749l-.45.5Z"/><path class="a" d="M5.525,24.337a2.411,2.411,0,0,0-.086,1.573,1.822,1.822,0,0,0,.323-.245,1.7,1.7,0,0,1,.155-1.115.725.725,0,0,1,.413.441.753.753,0,0,0,.128-.637c.008-.181-.2-.139-.295-.213.033-.151.029-.327.188-.413l-.49.049a2.3,2.3,0,0,0-.336.56Z"/><path class="a" d="M6.535,25.751c.021.036,0,.1.042.11.06-.344.339-.566.49-.87.073-.1.07-.245.188-.322.16,0,.275.114.43.127.049.037-.025.069-.029.11a4.037,4.037,0,0,0-.118.8h.028a4.22,4.22,0,0,0,.524-.739l.028-.233c.038-.278-.265-.458-.462-.572l.176-.226-.245-.086a1.12,1.12,0,0,0-.745.373,3.33,3.33,0,0,0-.307,1.532Z"/><path class="a" d="M7.636,23.323c.094.028.18-.049.274-.008a2.479,2.479,0,0,1,1.051.6l.336.855.167-.528-.11-.286c-.094-.2-.352-.188-.528-.2-.073-.083,0-.177.029-.254.086-.291-.27-.274-.413-.393.008-.176-.205-.115-.324-.131l-.04-.049a.084.084,0,0,0-.119-.008c-.008-.012-.025-.021-.016-.041l-.09.02a.579.579,0,0,0-.217.422Z"/><path class="a" d="M7.873,22.382a.26.26,0,0,0,.086.139c.184-.049.36-.176.572-.1a3.226,3.226,0,0,0,.893.625l.119-.02c.073.024.154.029.2.111.046.11-.069.176-.105.265.184.136.11.377.224.541l.295-.393c-.069-.172,0-.466-.266-.483a.259.259,0,0,1-.148-.237c-.175-.16-.392-.229-.567-.393-.145-.114-.23-.29-.414-.331a1.5,1.5,0,0,0-.413-.139c-.274-.042-.3.286-.479.413Z"/><path class="a" d="M8.266,21.576l.049.078c.205-.013.389-.1.589-.1.135.081.311.077.45.147a1.573,1.573,0,0,0,.392.425c.332.049.516.406.631.667v-.126a.888.888,0,0,0-.069-.541c-.083-.082-.2-.135-.287-.208a.169.169,0,0,1,.012-.127,2.668,2.668,0,0,0-.471-.315c-.216-.315-.633-.229-.965-.315l-.331.413Z"/><path class="a" d="M8.259,18.575c.036.127.08.286.105.421.114-.253.341-.368.541-.577a1.066,1.066,0,0,0-.384-.139v-.008c-.091.09-.23.181-.262.3Z"/><path class="a" d="M9,19.921l.184-.188a1.167,1.167,0,0,0,.364-.647.527.527,0,0,0-.429.021A5.163,5.163,0,0,0,9,19.921Z"/><path class="a" d="M9.137,20.5a1.191,1.191,0,0,0,.786-.086l.229-.736a.537.537,0,0,0-.217-.013,1.792,1.792,0,0,1-.8.835Z"/><path class="a" d="M9.22,17.888a1.653,1.653,0,0,0,.806.658c-.037-.344-.331-.581-.483-.875l-.008-.1a1.506,1.506,0,0,0-.385-.254,1.935,1.935,0,0,0,.07.569Z"/><path class="a" d="M10.217,20.531a1.456,1.456,0,0,0,.651-.062c.29-.07.45-.388.548-.638h-.364l-.392.384a3.006,3.006,0,0,0-.443.316Z"/><path class="a" d="M10.173,17.515a2.379,2.379,0,0,0,.381.884l.049-.609-.43-.275Z"/><path class="a" d="M11.514,19.107a2.921,2.921,0,0,0-.085-.65c-.123-.083-.294-.074-.421-.156a1.2,1.2,0,0,0,.506.806Z"/><path class="a" d="M11.142,21.185a4.113,4.113,0,0,0,.745-.3c.151-.217.38-.413.413-.667-.189.054-.352-.008-.528.078a1.336,1.336,0,0,1-.377.548c-.032.139-.183.233-.253.344Z"/><path class="a" d="M11.543,21.688l.306.4a.624.624,0,0,0,.512-.057l-.11-.364a1.434,1.434,0,0,1-.708.02Z"/><path class="a" d="M12.054,18.792l.119.54a1.082,1.082,0,0,0,.336-.933,1.265,1.265,0,0,1-.455.393Z"/><path class="a" d="M12.861,19.745a.388.388,0,0,0,.068.213c.32.114.352.5.647.65a.729.729,0,0,0,.581-.1c-.127-.143-.27-.241-.393-.393-.085-.036-.172-.09-.168-.2l-.735-.176Z"/><path class="a" d="M13.114,21.676a.954.954,0,0,0,.523.286c-.032-.045.021,0,.029-.028l-.245-.541a3.308,3.308,0,0,1-.364.021,1.083,1.083,0,0,0,.057.262Z"/><path class="a" d="M13.547,19.156a3.224,3.224,0,0,1-.2-.884c-.122.147-.25.242-.364.393-.053.3.38.376.559.491Z"/><path class="a" d="M14.046,18.877c.148.193.471.128.651.07-.086-.147-.363-.234-.412-.392a3.51,3.51,0,0,0-.176-.814,1.159,1.159,0,0,0-.063,1.136Z"/><path class="a" d="M14.3,19.745a1.68,1.68,0,0,0,1.383.519c.04-.028.11-.024.119-.077-.168-.106-.348-.189-.52-.287l-.2-.286H15a3.613,3.613,0,0,1-.7.131Z"/><path class="a" d="M14.312,23.063h.029a2.175,2.175,0,0,1,.826-.344c.078.029.029.115.1.147.176-.073.388-.057.568-.118a1.229,1.229,0,0,1,.569.106c.14.184.4.163.581.287l-.029-.287a1.839,1.839,0,0,0-1.522-.47l-.012-.057a.986.986,0,0,0-.4.085,2.069,2.069,0,0,0-.511.147,4.953,4.953,0,0,0-.2.5Z"/><path class="a" d="M14.641,18.035a.688.688,0,0,0,.667.315A.772.772,0,0,1,15,17.88c.041-.365-.36-.394-.557-.582a2.5,2.5,0,0,0,.2.737Z"/><path class="a" d="M14.6,23.787h.049c.217-.135.532-.033.745-.176.118-.061.127.1.208.147.2.123.225.491.507.405.34.176.254.589.266.892l.316-.2c-.029-.16.061-.352-.041-.491-.078-.176-.291-.192-.394-.335.124-.209-.155-.308-.212-.459l.016-.02.434.057a.652.652,0,0,1,.246.4c.339.058.42.442.539.687.07-.167.1-.348.168-.511,0-.135-.176-.135-.266-.2a.729.729,0,0,0-.3-.531,4.446,4.446,0,0,0-1.12-.3l-.344.106c-.189.046-.389-.012-.532.119-.213.017-.229.249-.282.4Z"/><path class="a" d="M14.815,22.1l.079.038c.168-.079.335-.168.511-.234.273-.077.486.234.716.037.085-.061.159.029.224.078.1.179.328.167.5.216-.086-.233-.193-.552-.491-.589a2.924,2.924,0,0,1-.372-.119c-.315-.347-.52.287-.864.132a.953.953,0,0,0-.3.441Z"/><path class="a" d="M14.894,24.094c.13.11.266.3.47.274.254.118.147.454.286.63l.147-.131-.012-.008.021-.02.008.011a.775.775,0,0,0-.087-.482c-.093-.066-.2,0-.294-.057a.407.407,0,0,0-.188-.278c-.065-.05-.151.016-.225.012l-.126.049Z"/><path class="a" d="M15.405,19.107a2.128,2.128,0,0,0,.605.52.974.974,0,0,0,.582.056,3.77,3.77,0,0,1-.484-.478c-.057-.082-.069-.185-.147-.258a1.146,1.146,0,0,0-.556.16Z"/><path class="a" d="M15.631,17.643c.188.232.478.138.744.147v-.029l-.409-.344a1.077,1.077,0,0,0-.335.226Z"/><path class="a" d="M8.1,13.784l.237.737c0-.418.189-.766.148-1.191l.175-.262-.372.115a1.382,1.382,0,0,0-.188.6Z"/><path class="a" d="M8.259,12.508l.323-.188v-.479a1.766,1.766,0,0,0-.315.331l-.008.336Z"/><path class="a" d="M14.9,13.252a.455.455,0,0,1-.295.147,1.394,1.394,0,0,0,.119-1.108,1.723,1.723,0,0,0,.274-.1l-.009-.009.226-.2c.3-.2.183-.593.294-.884-.147-.228-.192-.507-.4-.7l.012-.008c-.167-.213-.47-.188-.7-.295-.3-.1-.536.107-.753.246-.094.016-.037.139-.139.134a4.11,4.11,0,0,0-.168.484,1.628,1.628,0,0,0-1.166.217,1.673,1.673,0,0,0-.581-.209c-.147-.029-.315.024-.421-.058-.155-.175-.189-.494-.455-.539-.094-.033-.113-.136-.113-.225-.177-.03-.332-.111-.5-.148-.262-.119-.47.07-.667.2a1.97,1.97,0,0,0-.266.1,3.854,3.854,0,0,0-.381.717,1.51,1.51,0,0,0,.226.568,1.155,1.155,0,0,0,.638.582,2.4,2.4,0,0,0,0,1.3l-.007,0-.013.012a.212.212,0,0,1-.113-.012H9.524a1.786,1.786,0,0,0,.539,1.027c.107.037.082.164.126.245a.185.185,0,0,1,.021.148,3.2,3.2,0,0,0-1.718.429c-.131.066-.074.246-.086.373A3.16,3.16,0,0,1,9.584,15.2a1.814,1.814,0,0,1,.569-.008l.02.353a5.142,5.142,0,0,0-1.435.818,1.56,1.56,0,0,0,.02.38l.372-.3a4.416,4.416,0,0,1,1.149-.658,1.482,1.482,0,0,0,.373.352,2.745,2.745,0,0,1,.806-.352c.151-.09.393-.009.491-.188l.069-.373c-.012-.008-.02-.025-.041-.021a.56.56,0,0,1-.3-.527.529.529,0,0,1-.217.057c-.065-.016-.127-.033-.156-.1,0-.082-.045-.205.037-.266a1.6,1.6,0,0,1,.945-.148c.25.034.61.021.7.316-.012.086,0,.18-.09.237s-.193,0-.274-.041a.68.68,0,0,1-.4.491l.028.237c.029.107.037.283.205.246a3.607,3.607,0,0,1,1.072.511,2.464,2.464,0,0,0,.286-.364,5.366,5.366,0,0,1,1.629,1.081l.02-.344A5.542,5.542,0,0,0,13.9,15.63a2.159,2.159,0,0,0,.05-.336,4.013,4.013,0,0,1,1.8.552l-.008-.295a4.01,4.01,0,0,0-1.857-.511.205.205,0,0,1-.029-.127.909.909,0,0,0,.639-.687c.168-.192.409-.4.352-.687.007-.024.015-.049.024-.074a.343.343,0,0,0,.017-.213Z"/><path class="a" d="M15.463,14.3,15.8,14.2l.038-.188c.094-.275-.107-.479-.205-.7l-.168.99Z"/><path class="a" d="M16.31,15.6c.159.177.315.459.6.373a1.657,1.657,0,0,0-.127-.323c-.073-.086-.1-.332-.245-.246-.111-.073-.139-.2-.209-.294a2.868,2.868,0,0,0-.016.49Z"/><path class="a" d="M16.367,16.8c.061.086.078.2.139.275a.666.666,0,0,0,.41.049c.122-.029.2.106.314.028-.143-.09-.229-.253-.363-.372-.16-.127-.332-.016-.5.02Z"/><path class="a" d="M16.584,18.7a1.583,1.583,0,0,0,1.018.274c.041-.02.11-.016.119-.066-.234-.082-.478-.315-.724-.364-.134-.208-.311.054-.483.037,0,.049.053.086.07.119Z"/><path class="a" d="M17.434,22.314l.061.131c.062.426.331.818.184,1.284.123.087.16.23.238.345h.02a2.747,2.747,0,0,0-.02-1.08c.037-.324-.291-.512-.483-.68Z"/><path class="a" d="M17.5,18.125a.915.915,0,0,0,.8.1,2.545,2.545,0,0,1-.454-.294l-.344.2Z"/><path class="a" d="M18.514,19.381a.447.447,0,0,0,.217.4.933.933,0,0,0,.126-.3.744.744,0,0,0-.294-.454,1.013,1.013,0,0,0-.049.356Z"/><path class="a" d="M18.526,21.246c-.029.193.184.218.274.324.074.09-.049.151-.049.237a1.109,1.109,0,0,1,.246.7,6.693,6.693,0,0,0,.188-.744c-.017-.181-.3-.143-.258-.344a.88.88,0,0,0-.07-.589c-.015-.028-.053-.086-.085-.069-.074.167-.258.286-.246.49Z"/><path class="a" d="M19.087,20.273l.213.413c.094-.013.155-.1.229-.168.057-.171-.095-.282-.139-.422-.037-.1,0-.228-.07-.314-.053-.033-.114-.086-.176-.07l-.057.561Z"/><path class="a" d="M19.36,19.184a1.2,1.2,0,0,1,.451.43c.143.418.372.793.54,1.2.061.283.11.535.188.813.029.074.012.217.127.2.032-.311.094-.609.1-.932a1.2,1.2,0,0,0-.364-.274v-.029c.016-.069.074-.152.159-.139.037-.041.148-.082.1-.156-.213-.213-.2-.578-.54-.644a.311.311,0,0,1-.16-.286.967.967,0,0,0-.6-.185Z"/><path class="a" d="M19.557,21.4c.208.192.135.47.119.728-.033.156.163.065.225.147a.894.894,0,0,1,.008.667,3.974,3.974,0,0,0,.323-.5c0-.069.086-.1.082-.188.037-.118-.1-.066-.159-.078s-.1-.044-.086-.11a1.017,1.017,0,0,0-.033-.655c-.049-.168.021-.393-.058-.54-.13.18-.52.221-.421.528Z"/><path class="a" d="M19.937,18.5c.365.369.631.739,1.023,1.095a4.176,4.176,0,0,0-.02-.463,1.084,1.084,0,0,0-.254-.274c-.29-.028-.442-.419-.749-.358Z"/><path class="a" d="M20.89,20.446a.565.565,0,0,0,.042.107,5.327,5.327,0,0,1,.422.814c-.034-.3.171-.679-.1-.912-.037-.1-.159-.066-.237-.058l-.128.049Z"/><path class="a" d="M21.873,23.435c.114.053.261-.041.372-.106a.335.335,0,0,1,.266.086c.033.065,0,.127.013.188a2.486,2.486,0,0,1,.7.3l.069-.07a.479.479,0,0,0-.254-.4c-.085-.049-.212-.02-.273-.1a.42.42,0,0,0,.036-.237.6.6,0,0,1-.33-.106c-.07-.021-.132-.079-.189,0-.205.138-.217.343-.413.441Z"/><path class="a" d="M22.159,18.287a.732.732,0,0,0,.3-.131c.274-.25.671-.082.99-.086a2.265,2.265,0,0,0-.225-.315.943.943,0,0,0-.352-.1c-.279-.164-.466.11-.679.245a.455.455,0,0,0-.029.385Z"/><path class="a" d="M22.167,19.129c0-.012,0-.025.012-.028.038.033,0,.111.058.127a2.442,2.442,0,0,0,.3-.2c.275,0,.438-.266.708-.266a4.067,4.067,0,0,1,1.289.393.887.887,0,0,0-.491-.626.335.335,0,0,0-.327.1c-.274.172-.131-.25-.323-.258a2.017,2.017,0,0,1-.786.138c-.164.062-.278.213-.462.2a1.057,1.057,0,0,0,.02.421Z"/><path class="a" d="M22.356,20.041c.085.091.228.074.351.091l.356-.14c0-.064-.106-.081-.081-.155.1-.111.232-.032.356-.077.171-.025.347-.2.519-.07,0,.021.008.049-.008.07-.053.126.036.2.135.253.2.037.388.221.588.139a3.822,3.822,0,0,0-.105-.482c-.168-.029-.287-.168-.442-.226a.335.335,0,0,1-.246.107c-.315-.074-.692-.27-1.01-.07-.115.14-.319.1-.475.16a1.732,1.732,0,0,0,.062.4Z"/><path class="a" d="M22.49,22.474c-.024.069-.094.184.034.217.261.007.6-.127.8.077.07.053.037.164.033.234l.343.286a2.972,2.972,0,0,0,.1-.512.573.573,0,0,0-.209-.343c-.225,0-.356-.264-.6-.231-.126-.029-.237.084-.364.084a1.983,1.983,0,0,0-.139.188Z"/><path class="a" d="M22.588,20.545c.054.11.115.291.217.3a1.17,1.17,0,0,1,.864-.056c.089.016.089.118.069.183.139.082.307.148.454.238l-.04-.246c-.009-.266-.344-.29-.364-.552a1.613,1.613,0,0,0-.872-.049c-.094.086-.229.074-.343.1-.009.033.011.053.015.082Z"/><path class="a" d="M22.658,21.87c.16-.045.262-.22.434-.237a.8.8,0,0,1,.659.336c.1.065.077.233.2.233a4.035,4.035,0,0,1,.019-.59c-.171-.286-.6-.065-.756-.4l-.3.02c-.217.054-.16.307-.188.479-.025.054-.074.094-.07.159Z"/><path class="a" d="M24.16,23.66c.126.254.405.446.433.736a1.307,1.307,0,0,0,.156-.253c0-.082-.1-.082-.135-.148-.037-.106.02-.2.037-.294a.811.811,0,0,0-.324-.385l-.167.344Z"/><path class="a" d="M24.663,23.014l.294.4a1.054,1.054,0,0,0,.078-.737c-.028-.045-.082-.119-.155-.085-.111.114-.127.29-.217.421Z"/><path class="a" d="M23.464,11.815a.84.84,0,0,0,.336.111.424.424,0,0,1,.3-.049c.151.1.335-.021.511-.013a1.9,1.9,0,0,0-.511-.323c-.23.049-.414.213-.639.274Z"/><path class="a" d="M25.064,12.2c.217.02.373.212.519.372a.736.736,0,0,1,.434.294l-.069-.216a1.4,1.4,0,0,0-.324-.557,1.571,1.571,0,0,0-.56.107Z"/><path class="b" d="M9.8,10.405l.119.013c.318.159.834.241.863.7a2.525,2.525,0,0,0-.892.56c-.2-.2-.593-.089-.659-.441.062-.332.18-.749.569-.835Z"/><path class="b" d="M10.1,12.48c.372-.033.732.02,1.117-.013a.486.486,0,0,1,.237.217c-.013.442-.147.863-.168,1.317a.6.6,0,0,0-.372.393,3.277,3.277,0,0,0-.434.2.435.435,0,0,1,.061-.462c.16-.225.573-.172.541-.528.106-.171,0-.392.007-.572-.04-.135-.081.045-.147.041a.533.533,0,0,1-.38-.029c-.086-.09-.192-.164-.217-.286a.681.681,0,0,1-.307-.266l.062-.016Z"/><path class="b" d="M10.554,15.146c.175.025.36-.053.511.034-.032.057-.119.081-.188.1L10.6,15.4c-.1-.024-.045-.188-.049-.258Z"/><path class="b" d="M11.27,11.73c.175-.057.364-.175.552-.118a2.708,2.708,0,0,0-.344.474l-.56-.012a.8.8,0,0,1,.352-.344Z"/><path class="b" d="M12.91,11.6c.233-.041.221.262.433.273.038.049.091.094.07.168a3.675,3.675,0,0,1-.441.058c-.185-.1-.066-.422-.356-.4-.017-.025-.049-.074-.008-.09a.669.669,0,0,1,.3-.008Z"/><path class="b" d="M12.763,12.692a.558.558,0,0,1,.4-.184l1.059.02c.045.042-.04.078-.04.127-.066.062-.16.078-.217.135-.139,0-.127.168-.225.238-.151.151-.372.081-.549.057a.478.478,0,0,1-.159-.176l-.049.049c.061.229.045.483.09.716l.254.168c0,.376.446.273.638.482a1.112,1.112,0,0,1-.233.364,1.4,1.4,0,0,0-.52-.315c-.017-.22-.258-.352-.392-.462-.038-.4-.045-.81-.111-1.2l.049-.02Z"/><path class="b" d="M13.147,15.216h.492l-.062.258-.491-.209c-.012-.04.033-.053.061-.049Z"/><path class="b" d="M14.031,10.581l.364-.114a3.679,3.679,0,0,1,.6.36,1.441,1.441,0,0,1,.057.965c-.111.122-.352,0-.442.2h-.016a1.8,1.8,0,0,0-.876-.9.758.758,0,0,1,.315-.5Z"/></svg>