<svg xmlns="http://www.w3.org/2000/svg" viewBox="0 0 35 35"><defs><style>.a{fill:#3e4a59;}</style></defs><title>knab</title><path class="a" d="M14.234,15.062a2.032,2.032,0,0,0-1.8,1.007h-.029l.009-.89H10.694c-.156,0-.293.2-.293.372v5.476a.362.362,0,0,0,.3.362h1.711V18.318c0-.89.245-1.594,1.105-1.594.831,0,.959.616.959,1.438v2.865a.347.347,0,0,0,.293.362h1.721V17.722C16.5,16.216,16.033,15.062,14.234,15.062Z"/><path class="a" d="M27.513,15.062a2.474,2.474,0,0,0-1.7.6c.01-.225.01-.548.01-.871V12.7H24.11c-.156,0-.293.2-.293.362v7.959a.347.347,0,0,0,.3.362h1.613l-.01-.509a2.513,2.513,0,0,0,1.78.646,2.97,2.97,0,0,0,2.943-3.237A2.962,2.962,0,0,0,27.513,15.062Zm-.431,4.782a1.458,1.458,0,0,1-1.427-1.614,1.43,1.43,0,1,1,2.836,0A1.439,1.439,0,0,1,27.082,19.844Z"/><path class="a" d="M10.049,15.17H7.976a.58.58,0,0,0-.42.205L5.845,17.223V12.686H4.124c-.157,0-.294.2-.294.362v7.969a.339.339,0,0,0,.294.362H5.845V19.5l.557-.537,1.379,2.18a.579.579,0,0,0,.508.235h1.946L7.781,17.5Z"/><path class="a" d="M22.311,15.786a3.137,3.137,0,0,0-2.318-.724,6.24,6.24,0,0,0-2.395.509.328.328,0,0,0-.147.41l.411,1.027a3.935,3.935,0,0,1,1.9-.557c.811,0,1.271.342,1.271,1v.137l-1.565.059c-1.144.048-2.415.518-2.415,1.9a2.036,2.036,0,0,0,2.259,1.975,2.328,2.328,0,0,0,1.78-.792l.029.42a.261.261,0,0,0,.274.225h1.662V17.888A2.662,2.662,0,0,0,22.311,15.786Zm-1.262,3.891a1.226,1.226,0,0,1-1.026.568c-.558,0-.949-.294-.949-.763s.362-.734.978-.753l1-.059Z"/><path class="a" d="M30.651,21.594a.519.519,0,1,1,.519-.518A.516.516,0,0,1,30.651,21.594Zm0-.958a.44.44,0,1,0,.44.44A.438.438,0,0,0,30.651,20.636Zm.255.743h-.147l-.127-.245h-.059v.245h-.127v-.606h.215c.127,0,.215.068.215.185a.175.175,0,0,1-.127.176Zm-.264-.5h-.069v.166h.069c.058,0,.107-.009.107-.078S30.7,20.88,30.642,20.88Z"/></svg>