<svg xmlns="http://www.w3.org/2000/svg" viewBox="0 0 35 35"><defs><style>.a{fill:#00585b;}</style></defs><title>lanschot</title><path class="a" d="M22.992,2.5H12.009s-1.282,0-1.282,1.113V31.387A1.15,1.15,0,0,0,12.009,32.5h4.785V27.418a.611.611,0,0,0,0-.1c-.028-.138-.02-.32-.113-.389-.162-.118-.327-.223-.49-.337a7.736,7.736,0,0,1-1.684-1.5,5.418,5.418,0,0,1-1.075-2.385,3.077,3.077,0,0,1,.187-1.79,1.914,1.914,0,0,1,.375-.534.523.523,0,0,0,.06-.61,5.885,5.885,0,0,1-.379-.981,2.668,2.668,0,0,1-.084-1.007,1.583,1.583,0,0,1,.391-.888c.184-.2.424-.228.566-.542a5.708,5.708,0,0,1-.3-1.683,2.589,2.589,0,0,1,.065-.75,1.054,1.054,0,0,1,.675-.665c.123-.066.251-.1.374-.161.141-.069.156-.114.155-.38a4.1,4.1,0,0,1,.8-2.954,1.5,1.5,0,0,1,1.088-.4,1.625,1.625,0,0,1,1.141.4,3.975,3.975,0,0,1,.838,2.955c0,.266.015.31.162.379.129.061.263.1.392.162.252.128.572.228.709.665a2.516,2.516,0,0,1,.067.749,5.469,5.469,0,0,1-.316,1.684c.15.315.4.346.593.543a1.558,1.558,0,0,1,.411.888,2.566,2.566,0,0,1-.089,1.006,5.719,5.719,0,0,1-.4.982.506.506,0,0,0,.063.61,1.94,1.94,0,0,1,.394.535,2.967,2.967,0,0,1,.2,1.79A5.316,5.316,0,0,1,20.441,25.1a8,8,0,0,1-1.764,1.5c-.172.114-.344.22-.514.338-.1.069-.089.251-.118.39a.5.5,0,0,0,0,.095q0,2.538,0,5.078h4.947s1.281,0,1.281-1.113V3.613A1.15,1.15,0,0,0,22.992,2.5M14.475,7.417H14.06V5.443l-.429.119-.089-.34.64-.2h.293Zm2.4-2.066L15.8,7.417h-.469L16.4,5.4H15.2V5.035h1.674Zm2.158,1.354a.762.762,0,0,1-.834.752,1.132,1.132,0,0,1-.912-.418l.293-.272a.779.779,0,0,0,.626.313.374.374,0,0,0,.412-.361V6.712c0-.234-.214-.367-.548-.367h-.194l-.068-.262.643-.684h-1.03V5.035H19v.313l-.663.68c.36.048.7.228.7.671Zm2.212-1.354L20.172,7.417H19.7L20.771,5.4h-1.2V5.035h1.674Z"/></svg>