<svg xmlns="http://www.w3.org/2000/svg" xmlns:xlink="http://www.w3.org/1999/xlink" viewBox="0 0 35 35"><defs><style>.a{fill:#fff;}.a,.c,.d,.e,.f{fill-rule:evenodd;}.b{mask:url(#a);}.c{fill:#d40d47;}.d{fill:#fabb2e;}.e{fill:#2aabce;}.f{fill:#555390;}</style><mask id="a" x="5.5" y="15.266" width="14.626" height="14.234" maskUnits="userSpaceOnUse"><polygon class="a" points="5.522 15.266 5.522 29.478 20.126 29.478 20.126 15.266 5.522 15.266"/></mask></defs><title>moneyou</title><g class="b"><path class="c" d="M13.112,29.5A7.613,7.613,0,0,1,9.355,15.266l1.313,2.31a4.956,4.956,0,1,0,7.012,6.24l2.446,1.035A7.6,7.6,0,0,1,13.112,29.5"/></g><path class="d" d="M20.126,24.851l-2.447-1.035a4.957,4.957,0,0,0-7.011-6.24l-1.313-2.31a7.615,7.615,0,0,1,10.771,9.585"/><path class="e" d="M19.315,8.157a7.528,7.528,0,1,0,7.528,7.528A7.536,7.536,0,0,0,19.315,8.157ZM9.13,15.685A10.185,10.185,0,1,1,19.315,25.87,10.2,10.2,0,0,1,9.13,15.685Z"/><path class="f" d="M19.315,25.87A10.2,10.2,0,0,1,9.13,15.685a1.329,1.329,0,0,1,2.657,0,7.536,7.536,0,0,0,7.528,7.528,1.329,1.329,0,0,1,0,2.657"/></svg>