<svg xmlns="http://www.w3.org/2000/svg" xmlns:xlink="http://www.w3.org/1999/xlink" viewBox="0 0 35 35"><defs><style>.a{fill:url(#a);}.b{fill:#f37920;}.c{fill:url(#b);}.d{fill:#fff;}.d,.e,.f,.g,.h,.i,.j{fill-rule:evenodd;}.e{fill:#c8252c;}.f{fill:#ca4d2c;}.g{fill:#c3161c;}.h{fill:#a61c20;}.i{fill:#cb612c;}.j{fill:#b6161c;}.k{fill:#4f264a;opacity:0.45;}.l{fill:#fab156;}.m{fill:url(#c);}</style><linearGradient id="a" x1="7.276" y1="26.216" x2="27.724" y2="26.216" gradientUnits="userSpaceOnUse"><stop offset="0" stop-color="#cb612c"/><stop offset="1" stop-color="#743237"/></linearGradient><linearGradient id="b" x1="5.589" y1="24.437" x2="18.227" y2="22.209" gradientUnits="userSpaceOnUse"><stop offset="0" stop-color="#ffdd7f"/><stop offset="1" stop-color="#f37920"/></linearGradient><linearGradient id="c" x1="14.213" y1="10.511" x2="21.531" y2="17.829" gradientUnits="userSpaceOnUse"><stop offset="0" stop-color="#2a3794"/><stop offset="1" stop-color="#222a7e"/></linearGradient></defs><title>rabobank</title><path class="a" d="M26.04,21.243a5.372,5.372,0,0,1,1.033,1.41,4.086,4.086,0,0,1-1.08,4.948c-1.814,1.779-4.9,2.874-8.487,2.874s-6.674-1.1-8.488-2.874a4.088,4.088,0,0,1-1.08-4.948,5.446,5.446,0,0,1,1.03-1.411,5.628,5.628,0,0,0-1.27,1.65,4.692,4.692,0,0,0,1.109,5.374c1.86,1.825,4.768,2.924,8.729,2.924s6.879-1.132,8.662-2.924a4.753,4.753,0,0,0,1.1-5.424A5.569,5.569,0,0,0,26.04,21.243Z"/><path class="b" d="M23.129,19.375a14.846,14.846,0,0,0-5.623-1.055,14.848,14.848,0,0,0-5.624,1.055,7.4,7.4,0,0,0-3.944,3.278A4.088,4.088,0,0,0,9.018,27.6c1.814,1.779,4.9,2.874,8.488,2.874s6.673-1.1,8.487-2.874a4.086,4.086,0,0,0,1.08-4.948A7.4,7.4,0,0,0,23.129,19.375Z"/><path class="c" d="M17.839,20.153a3.026,3.026,0,0,1-.2-1.832h-.138a14.846,14.846,0,0,0-5.623,1.055,7.392,7.392,0,0,0-3.944,3.278A4.086,4.086,0,0,0,9.018,27.6q.166.164.347.319C16.044,27.53,19.533,23.622,17.839,20.153Z"/><path class="d" d="M13.2,20.268A35.751,35.751,0,0,1,16.826,21.4c.237-.714.49-1.423.778-2.118.289.7.541,1.4.779,2.117a35.19,35.19,0,0,1,3.6-1.118,27.841,27.841,0,0,0-2.454,1.749c1.641.21,3.177.481,4.793.831-1.611-.035-3.128.022-4.735.125,1.134.961,2.105,1.891,3.159,2.937-1.445-.825-2.8-1.518-4.307-2.229-.292,1.259-.567,2.521-.834,3.786-.266-1.264-.51-2.467-.8-3.725-1.506.71-2.875,1.388-4.368,2.179,1.055-1.046,2.054-1.953,3.189-2.914-1.608-.1-3.15-.125-4.8-.148,1.615-.349,3.212-.622,4.851-.831A28.423,28.423,0,0,0,13.2,20.268Zm4.4,2.2q0-1.39,0-2.782c-.282.773-.531,1.558-.765,2.347Q17.225,22.248,17.605,22.47Zm-3.677-1.9c.994.439,1.962.932,2.911,1.461q-.354.034-.707.075C15.418,21.57,14.686,21.053,13.928,20.574Zm3.677,1.9q2.874.006,5.734.29c-1.672-.3-3.3-.533-4.974-.729Q17.983,22.247,17.605,22.47Zm3.675-1.9c-1,.437-1.965.929-2.915,1.457q-.057-.2-.117-.39C19.244,21.245,20.254,20.885,21.28,20.574ZM17.5,22.47c.041,1.343.09,2.768.1,4.069.25-1.2.509-2.4.786-3.6C18.131,22.78,17.768,22.624,17.5,22.47Zm4.322,2.77c-1.117-.807-2.26-1.578-3.434-2.3.24-.019.481-.037.721-.053C20.045,23.639,20.947,24.427,21.826,25.24Zm-4.221-2.77c-1.928.027-3.433.114-5.312.276,1.622.005,2.883.066,4.531.2Q17.213,22.7,17.605,22.47Zm-4.218,2.771c1.118-.806,2.262-1.576,3.437-2.3.035.15.069.3.1.45Q15.126,24.256,13.387,25.241Z"/><path class="e" d="M17.6,19.331c.289.7.541,1.4.779,2.117a35.328,35.328,0,0,1,3.476-1.086l.124-.079a35.19,35.19,0,0,0-3.6,1.118c-.238-.714-.49-1.422-.779-2.117-.288.7-.541,1.4-.778,2.118A35.751,35.751,0,0,0,13.2,20.268l.124.079a36.19,36.19,0,0,1,3.5,1.1C17.063,20.735,17.316,20.026,17.6,19.331Z"/><path class="f" d="M15.62,23.022c-1.116.948-2.146,1.884-3.185,2.914l.166-.094c1.02-1.007,1.924-1.822,3.019-2.749Z"/><path class="g" d="M17.565,22.494l-.039.023q-.352.21-.7.425l.011.046c.256-.158.512-.309.77-.462V22.47Z"/><path class="f" d="M16.839,22.035l-.072.007c-.212.022-.423.044-.635.068-.714-.54-1.446-1.057-2.2-1.536v.056c.758.479,1.49,1,2.2,1.536q.352-.039.707-.075c.23.127.446.248.673.379h.093C17.355,22.325,17.092,22.175,16.839,22.035Z"/><path class="f" d="M13.387,25.306q1.74-.98,3.54-1.849v-.065q-1.8.864-3.54,1.849Z"/><path class="h" d="M18.392,22.938c-.273,1.184-.539,2.412-.786,3.6v.047c.25-1.2.507-2.395.784-3.592.8.494,1.964,1.253,3.436,2.316v-.07C20.709,24.433,19.566,23.662,18.392,22.938Z"/><path class="h" d="M19.638,23.032l-.051-.044v.075c1.094.927,1.968,1.757,2.987,2.765l.172.1C21.675,24.862,20.718,23.949,19.638,23.032Z"/><path class="f" d="M15.627,22.05c-1.622.208-3.2.478-4.8.824.078,0,.173.005.253,0,1.536-.326,3.04-.58,4.6-.779v-.056Z"/><path class="f" d="M16.824,22.942c-1.51-.13-3.013-.205-4.528-.193V22.8c1.494-.012,2.977.061,4.467.188l.061-.042"/><path class="h" d="M19.529,22.032c1.641.21,3.177.481,4.793.831l-.27,0c-1.538-.326-2.963-.571-4.523-.769Z"/><path class="h" d="M17.605,22.47q2.874.006,5.734.29v.051c-1.879-.188-3.758-.284-5.647-.29l-.047-.028-.04-.023h.08"/><path class="h" d="M18.365,22.031l.069.008c.927-.513,1.873-.991,2.844-1.418v-.047c-1,.438-1.963.929-2.913,1.457"/><path class="g" d="M18.365,22.031q-.057-.2-.117-.39v.047c.036.117.07.233.105.35l.012-.007"/><path class="d" d="M17.8,30.105c-.056.042-.133.085-.19.127-.057-.042-.135-.085-.192-.127,0-.52,0-1.041,0-1.562.056-.039.136-.077.193-.115.055.038.131.076.186.115Z"/><path class="d" d="M8.518,26.326c-.031.058-.061.117-.092.176.057.022.167.057.217.078.546-.292,1.086-.583,1.623-.864a1.657,1.657,0,0,1,.056-.19l-.165-.044Q9.334,25.892,8.518,26.326Z"/><path class="d" d="M8.115,23.119l-.149.12c.027.036.058.079.083.114q.765-.11,1.532-.188l.15-.144-.09-.091Q8.879,23.008,8.115,23.119Z"/><path class="d" d="M10.076,20.531l-.155.067c.005.031.01.087.015.118q.564.079,1.126.189c.048-.028.113-.067.159-.091l-.02-.1C10.827,20.645,10.451,20.583,10.076,20.531Z"/><path class="d" d="M21.569,18.938h.143l.057.057c-.2.125-.39.255-.581.389h-.15l-.055-.062Q21.271,19.123,21.569,18.938Z"/><path class="d" d="M17.47,18.4l.108-.033.11.033,0,.46-.113.038-.112-.038C17.468,18.7,17.469,18.548,17.47,18.4Z"/><path class="d" d="M13.356,19.005c.018-.018.06-.052.078-.07l.145,0q.3.184.585.386l-.057.063c-.049,0-.121.013-.171.012Q13.651,19.193,13.356,19.005Z"/><path class="d" d="M12.158,29.151c-.077.018-.176.018-.253.037-.017-.055-.055-.11-.072-.164q.573-.684,1.159-1.357c.077-.017.174-.033.251-.049.017.047.052.127.073.17Q12.73,28.465,12.158,29.151Z"/><path class="d" d="M26.565,26.326l.091.176c-.057.022-.167.057-.216.078-.546-.292-1.087-.583-1.624-.864a1.478,1.478,0,0,0-.056-.19l.166-.044Q25.75,25.892,26.565,26.326Z"/><path class="d" d="M26.967,23.119l.15.12c-.028.036-.058.079-.083.114q-.767-.11-1.533-.188l-.15-.144.09-.091Q26.2,23.008,26.967,23.119Z"/><path class="d" d="M25.007,20.531l.155.067c0,.031-.011.087-.016.118q-.564.079-1.126.189c-.048-.028-.113-.067-.158-.091l.019-.1Q24.444,20.609,25.007,20.531Z"/><path class="d" d="M22.924,29.151l.253.037c.025-.054.05-.108.072-.164q-.572-.684-1.159-1.357c-.076-.017-.174-.033-.25-.049-.018.047-.053.127-.074.17Q22.353,28.465,22.924,29.151Z"/><path class="i" d="M8.512,26.418c-.014.028-.037.07-.052.1L8.426,26.5c.031-.059.061-.118.092-.176q.816-.435,1.639-.844l.165.044c-.011.033-.02.063-.03.093-.044-.013-.1-.022-.148-.034C9.6,25.857,9.056,26.128,8.512,26.418Z"/><path class="i" d="M8.132,23.19c-.027.022-.1.076-.13.1-.015-.019-.018-.024-.036-.049l.149-.12q.764-.111,1.526-.189l.09.091-.03.03L9.648,23C9.139,23.054,8.641,23.116,8.132,23.19Z"/><path class="i" d="M9.931,20.677l-.01-.079.155-.067c.375.052.751.114,1.125.185l.02.1c-.009,0-.769-.149-1.142-.2Z"/><path class="h" d="M21.712,19.019l.008.008L21.769,19l-.057-.057h-.143q-.3.185-.586.386l.043.05c.179-.123.359-.242.543-.357Z"/><path class="j" d="M17.47,18.475l.108-.033.11.033V18.4l-.11-.033-.108.033Z"/><path class="f" d="M13.583,19c.183.114.359.243.537.366l.044-.049q-.288-.2-.585-.386l-.145,0c-.018.018-.061.052-.08.07l.049.031L13.438,19Z"/><path class="h" d="M13.228,27.684c.021.028.046.094.068.128l.02-.024c-.007-.02-.053-.123-.073-.17-.077.016-.174.032-.251.049q-.587.673-1.159,1.357c.006.02.023.044.029.064.245-.292.774-.924,1.16-1.366C13.082,27.709,13.165,27.7,13.228,27.684Z"/><path class="h" d="M26.571,26.418c.014.028.037.07.051.1l.034-.013-.091-.176q-.816-.435-1.639-.844l-.166.044c.012.033.02.063.031.093.044-.013.1-.022.147-.034C25.487,25.857,26.026,26.128,26.571,26.418Z"/><path class="h" d="M26.95,23.19c.028.022.1.076.131.1.015-.019.017-.024.036-.049l-.15-.12q-.762-.111-1.526-.189l-.09.091c.011.01.02.019.03.03.014-.014.043-.039.054-.05C25.944,23.054,26.442,23.116,26.95,23.19Z"/><path class="h" d="M25.151,20.677l.011-.079-.155-.067q-.564.078-1.126.185l-.019.1c.008,0,.769-.149,1.142-.2Z"/><path class="h" d="M21.854,27.684c-.021.028-.045.094-.068.128l-.02-.024c.007-.02.054-.123.074-.17.076.016.174.032.25.049q.588.673,1.159,1.357c-.008.021-.016.042-.026.064-.245-.292-.777-.924-1.162-1.366C22,27.709,21.918,27.7,21.854,27.684Z"/><path class="h" d="M17.758,28.6l.037,1.506,0-1.562c-.055-.039-.131-.077-.186-.115-.057.038-.137.076-.193.115v1.562l.035-1.506c.046-.031.113-.061.158-.092C17.65,28.538,17.714,28.569,17.758,28.6Z"/><path class="f" d="M10.036,22.953c.68-3.037,4.891-3.939,7.533-3.939s6.852.9,7.533,3.939c.847,3.78-4.8,5.188-7.533,5.188S9.189,26.733,10.036,22.953Zm.275-.022c.64-2.934,4.715-3.8,7.258-3.8s6.617.871,7.257,3.805c.792,3.63-4.626,4.972-7.257,4.972S9.52,26.562,10.311,22.931Z"/><path class="d" d="M10.06,23.046c.68-3.037,4.716-3.955,7.533-3.955s6.852.919,7.533,3.956c.847,3.779-4.8,5.187-7.533,5.187S9.213,26.826,10.06,23.046Zm.275-.022c.64-2.934,4.715-3.8,7.258-3.8s6.617.871,7.257,3.805C25.642,26.655,20.224,28,17.593,28S9.544,26.655,10.335,23.024Z"/><path class="k" d="M26.585,23.672l-1.235-.187-.163-.038a1.482,1.482,0,0,1-.776-.532c-.172-.267-.588-.725-.815-1.01-.315-.4-1.034-.759-1.139-.922a5.775,5.775,0,0,1-.326-.562.329.329,0,0,0-.347-.2c-.186.012-.2.076-.361.086a2.291,2.291,0,0,1-.383-.025,1.134,1.134,0,0,0-.231-.031c-.1.163-.25.263-.617.263a.277.277,0,0,1-.064-.007c.038.082.38.13.438.126s.381.087.454.1a.588.588,0,0,1,.358.113,2.635,2.635,0,0,1,1.1,1.4c.065.3.581.793.643,1.07a5.454,5.454,0,0,1-1.609-.508l-.115-.056a2.778,2.778,0,0,0-1.039-.235,7.227,7.227,0,0,1-1.757-.3c-.244-.082-.211-.124-.41-.133l-.108-.006a.47.47,0,0,1-.1.136,3.257,3.257,0,0,0-.558.655.384.384,0,0,1-.235.152c.227-.052.67-.171.67-.171a3.258,3.258,0,0,1,1.056.131,5.1,5.1,0,0,1,.624.2A12.664,12.664,0,0,1,21.646,24a15.931,15.931,0,0,0,2.052.854,13.5,13.5,0,0,1,1.281.623,12.325,12.325,0,0,0,1.964.918,3.8,3.8,0,0,0,.514-2.541h0Z"/><path class="k" d="M25.963,22.265a1.285,1.285,0,0,0-.257.031l-.336.2c-.043.07.109.16.109.16s.426.028.425.139a3.926,3.926,0,0,0,1.32.2h0c-.045-.115-.095-.229-.151-.343s-.113-.217-.176-.324h0A3.467,3.467,0,0,0,25.963,22.265Z"/><path class="k" d="M23.451,26.409s-.08-.1-.512-.1c-.273,0,.119.646.119.646a5.666,5.666,0,0,0,1.321.443c.185.025.8.21.8.21a4.714,4.714,0,0,1,.655.143c.052-.048.1-.1.154-.146a6.186,6.186,0,0,0,.518-.574,6.108,6.108,0,0,1-2.622-.449C23.807,26.336,23.451,26.409,23.451,26.409Z"/><path class="l" d="M21.173,14.626s-.25-.226-.254-.239c-.018-.08.071-.186.092-.319-.025-.009-.051-.022-.076-.033a1.5,1.5,0,0,1,0-.866.554.554,0,0,0,.081-.378,17.631,17.631,0,0,0-.9-1.987,1.281,1.281,0,0,1-.076-.5,4.393,4.393,0,0,1-.6-1.282,6.832,6.832,0,0,0-.43,1.581c0,.737.747,1.094.488,2.319-.05.237-.139.563-.228.9.155.853.155,1.473.384,2.462a2.748,2.748,0,0,1,.728,1.236c.088.319.357,1.067.7,1.179.213.07-.721.241-.986-.09s-.7-.575-.9-.914c-.166-.271-.424-.848-.587-1.121l-.2,1.049a3.388,3.388,0,0,1-.132,2.277c-.1.393-.9-1.444-.9-1.587a2.8,2.8,0,0,0-.119-.9,2.3,2.3,0,0,1-.126-1.133c.038-.584.033-1.685.058-1.975a9.82,9.82,0,0,1-.764-1.88c-.079-.779.052-1.567-.056-2.344a3.054,3.054,0,0,1-.578,1.181,18.781,18.781,0,0,0-1.275,1.43c-.148.2-.018.3-.246.622s-.1.174-.151.477a.212.212,0,0,1-.052.112.384.384,0,0,1-.42.115c-.333-.168-.357-.415-.38-.734-.044-.608.406-.637.66-1,.5-.723.753-1.934,1.289-2.479.033-.108.158-.5.4-1.076a1.573,1.573,0,0,1,.924-1.654c.3-.121.7-.151.715-.57a.51.51,0,0,0-.041-.224c-.122-.1-.207-.1-.266-.171A4.305,4.305,0,0,1,16.735,4.9c.174-.838.575-1.118,1.083-1.093A.984.984,0,0,1,18.87,4.937c-.021.65-.692,1.483.312,1.8.383.121.456.037.786.369a2.759,2.759,0,0,1,.52,1.642l.377.874c.691,1.163.441,1.531.7,2.714a5.13,5.13,0,0,1,.2,1.247C21.775,13.9,21.522,14.614,21.173,14.626Z"/><path class="m" d="M13.972,13.749c.031-.31-.013-.284.184-.571.183-.267.095-.4.257-.631a18.308,18.308,0,0,1,1.223-1.455,5.63,5.63,0,0,0,.8-1.687c.018-.053.047-.079.059-.033a14.538,14.538,0,0,1,.136,1.931,3.756,3.756,0,0,0,.575,2.587,2.755,2.755,0,0,1,.487-1.563,21.58,21.58,0,0,0-.422,3.944,2.33,2.33,0,0,0,.045,1.075,3.485,3.485,0,0,1,.057.7c0,.134.01,2.416.01,2.416l-.212,1.059a2.023,2.023,0,0,1-.762.98c-.093.051-.31.167-.31.271,0,.167,1.078.479,1.324.1a3.257,3.257,0,0,1,.558-.655c.339-.325-.037-.66.007-1.1.078-.768.408-1.434.517-2.159a2.334,2.334,0,0,0-.145-1.318l.143-1.385a8.953,8.953,0,0,1,.46.934,2.627,2.627,0,0,0,.739,1.076,3.054,3.054,0,0,1,.437.525,1.874,1.874,0,0,1,.351,1.109c-.162.292-.231.274-.438.451.006.01-.058.171.139.171.7,0,.615-.366.88-.841.172-.307.664-.774.124-.936a.733.733,0,0,1-.427-.317,4.171,4.171,0,0,1-.583-1.184,1.915,1.915,0,0,0-.641-.859,3.585,3.585,0,0,1-.3-1.089c-.076-.565-.127-.97-.223-1.549a2.646,2.646,0,0,0-.051-2.36,1.88,1.88,0,0,1-.168-.779,4.978,4.978,0,0,1,.377-1.53.623.623,0,0,1,.283-.369,4.81,4.81,0,0,0,.728,1.5,1.607,1.607,0,0,0,.074.5,18.184,18.184,0,0,1,.9,2.024.781.781,0,0,1-.093.567,1.774,1.774,0,0,0,.015.579l.1.053a2.808,2.808,0,0,1-.095.318c.013.1.133.153.133.153.157-.035.38-.6.372-.827a4.6,4.6,0,0,0-.211-1.209,6,6,0,0,0-.755-2.634l-.374-.924c-.046-.474-.234-1.554-.84-1.747-.1-.033-.2-.039-.359-.089-.793-.257-.791-.866-.575-1.531.193-.593.218-1.291-.653-1.364-.539-.045-.7.379-.818.868a3.7,3.7,0,0,0,.148,1.018c.231.172.36.121.345.551a.732.732,0,0,1-.553.683c-.506.178-.765.282-.936.805a2.412,2.412,0,0,0-.1.752v.024c-.144.359-.327.77-.438,1.156-.624.626-.933,2.049-1.565,2.65-.42.4-.547.425-.393,1.041.016.062.217.222.26.245S13.973,13.784,13.972,13.749Z"/></svg>