<svg xmlns="http://www.w3.org/2000/svg" viewBox="0 0 35 35"><defs><style>.a{fill:#ce1b22;}</style></defs><title>regiobank</title><path class="a" d="M16.117,13.3c0-2.543-1.105-3.441-2.515-3.441-1.521,0-2.544,1.313-2.544,3.4,0,2.267,1.064,3.442,2.958,3.442a3.926,3.926,0,0,0,1.714-.318.293.293,0,0,0,.18-.373l-.152-.442a.271.271,0,0,0-.373-.194,4.441,4.441,0,0,1-1.3.235c-1.244,0-1.658-.719-1.714-2h3.442A.307.307,0,0,0,16.117,13.3Zm-3.746-.649c.138-1.437.761-1.783,1.272-1.783.857,0,1.161.9,1.189,1.783Z"/><path class="a" d="M11.164,16.261c-.484-1.341-.954-2.543-1.12-2.889a2.363,2.363,0,0,0-1.59-1.438c.014,0,.069-.014.111-.014a2.2,2.2,0,0,0,2.018-2.281c0-.9-.5-2.308-2.792-2.308H5.4a.319.319,0,0,0-.317.3V16.33a.319.319,0,0,0,.317.3h.664a.306.306,0,0,0,.3-.3V12.445h.65A1.824,1.824,0,0,1,8.7,13.621a19.65,19.65,0,0,1,1.009,2.792.3.3,0,0,0,.332.221h.912C11.205,16.634,11.247,16.482,11.164,16.261ZM7.611,11.353H6.367V8.479h1.4A1.334,1.334,0,0,1,9.27,9.819,1.481,1.481,0,0,1,7.611,11.353Z"/><path class="a" d="M23.613,9.943h-.622a.32.32,0,0,0-.318.3V16.33a.319.319,0,0,0,.318.3h.622a.316.316,0,0,0,.3-.3V10.248A.317.317,0,0,0,23.613,9.943Z"/><path class="a" d="M27.237,9.861c-1.659,0-2.7,1.3-2.7,3.428s1.037,3.414,2.7,3.414,2.681-1.3,2.681-3.414S28.9,9.861,27.237,9.861Zm-.028,5.792c-.857,0-1.382-.691-1.382-2.364,0-1.645.525-2.364,1.382-2.364s1.4.719,1.4,2.364C28.605,14.962,28.08,15.653,27.209,15.653Z"/><path class="a" d="M23.294,6.751a.864.864,0,1,0,.844.856A.853.853,0,0,0,23.294,6.751Z"/><path class="a" d="M20.055,15.459H18.908c-.5,0-.719-.083-.719-.373a.635.635,0,0,1,.249-.429,2.683,2.683,0,0,0,.677.083,2.335,2.335,0,0,0,2.018-3.773l.456-.056a.272.272,0,0,0,.277-.29v-.359a.3.3,0,0,0-.3-.319h-1.59c-.29,0-.567-.068-.857-.068a2.276,2.276,0,0,0-2.488,2.419,2.3,2.3,0,0,0,1,2,1.56,1.56,0,0,0-.608,1.148c0,.8.705,1.077,1.52,1.077h1.341c.746,0,1.037.3,1.037.871,0,.608-.664.982-1.507.982-.649,0-1.368-.125-1.479-.857a.314.314,0,0,0-.3-.291l-.691-.028a.3.3,0,0,0-.3.3c.014,1.492,1.41,1.935,2.737,1.935,1.272,0,2.751-.581,2.751-2.184C22.115,16.109,21.313,15.459,20.055,15.459Zm-.926-4.644c.677,0,1.23.235,1.23,1.451,0,1.244-.594,1.507-1.23,1.507-.664,0-1.217-.222-1.217-1.507C17.912,11.036,18.465,10.815,19.129,10.815Z"/><path class="a" d="M27.428,27.821l-2.267-3.456,1.852-2.53a.2.2,0,0,0-.152-.345h-.884a.441.441,0,0,0-.4.235L23.9,24.282V18.67a.3.3,0,0,0-.3-.3h-.623a.3.3,0,0,0-.3.3v9.206a.307.307,0,0,0,.3.3H23.6a.306.306,0,0,0,.3-.3v-3.3l2,3.345a.443.443,0,0,0,.373.262h.982A.22.22,0,0,0,27.428,27.821Z"/><path class="a" d="M9.021,23.245a1.958,1.958,0,0,0,1.59-2.059,2.257,2.257,0,0,0-2.53-2.309H5.4a.319.319,0,0,0-.317.3v8.7a.319.319,0,0,0,.317.3h2.82a2.479,2.479,0,0,0,2.793-2.612A2.161,2.161,0,0,0,9.021,23.245ZM6.367,19.983H7.833c.981,0,1.465.5,1.465,1.383,0,.856-.526,1.4-1.562,1.4H6.367Zm1.742,7.064H6.367V23.8H7.846A1.612,1.612,0,0,1,9.629,25.43,1.444,1.444,0,0,1,8.109,27.047Z"/><path class="a" d="M20.183,21.407a2.347,2.347,0,0,0-1.894.954l-.139-.622a.287.287,0,0,0-.331-.249H17.4a.308.308,0,0,0-.317.29v6.1a.319.319,0,0,0,.317.3h.636a.308.308,0,0,0,.3-.3v-3.76a1.539,1.539,0,0,1,1.492-1.631c.566,0,.788.291.788.926v4.465a.319.319,0,0,0,.318.3h.636a.307.307,0,0,0,.3-.3V23.135A1.611,1.611,0,0,0,20.183,21.407Z"/><path class="a" d="M16.288,26.342v-2.4c0-1.12-.179-2.53-2.378-2.53a6.816,6.816,0,0,0-1.672.263.268.268,0,0,0-.193.359l.11.511a.27.27,0,0,0,.36.222,4.84,4.84,0,0,1,1.326-.235c.982,0,1.2.373,1.2,1.175v.332l-1.52.1a2,2,0,0,0-2.073,2.142,1.735,1.735,0,0,0,1.782,1.976,2.151,2.151,0,0,0,1.908-.954l.1.609a.293.293,0,0,0,.318.276h.636a.238.238,0,0,0,.248-.3l-.083-.4A5.532,5.532,0,0,1,16.288,26.342Zm-1.244-.373a1.448,1.448,0,0,1-1.451,1.271c-.511,0-.871-.3-.871-.967,0-1.037.608-1.286,1.451-1.313l.871-.028Z"/></svg>