<svg xmlns="http://www.w3.org/2000/svg" xmlns:xlink="http://www.w3.org/1999/xlink" viewBox="0 0 35 35"><defs><style>.a{fill:#fff;}.b{fill:url(#a);}.c{fill:#e53121;}.d{fill:#f08465;}.e{fill:#b82b18;}.f{fill:#f5b0ac;}.g{fill:#d47785;}.h{fill:#d99e9b;}.i{fill:#f9d1cd;}.j{fill:none;}.k{fill:#f9f9fc;}.l{fill:#f3f2f9;}.m{fill:#dcdaee;}.n{fill:#2b2b85;}.o{fill:#484293;}.p{fill:#24236f;}.q{fill:#8f88c0;}.r{fill:url(#b);}.s{fill:#bbb7db;}.t{fill:#b0aad4;}.u{fill:#d1cce6;}.v{fill:#fd0;}.w{fill:#dbbb85;}.x{fill:#ebc536;}.y{fill:#ffe167;}.z{fill:#ea583c;}.aa{fill:#d42f1e;}.ab{fill:#c22c1a;}.ac{fill:#f9f8fb;}.ad{fill:url(#c);}.ae{fill:#a59fce;}.af{fill:url(#d);}.ag{fill:url(#e);}.ah{fill:#ed6f50;}.ai{fill:#a62714;}.aj{fill:url(#f);}.ak{fill:url(#g);}.al{fill:#d1cee8;}.am{fill:url(#h);}.an{fill:url(#i);}.ao{fill:#ffcb00;}.ap{fill:#fff8c7;}.aq{fill:url(#j);}.ar{fill:url(#k);}.as{fill:url(#l);}.at{fill:#1e398e;}.au{fill:#2f2482;}.av{fill:url(#m);}.aw{fill:#5b549f;}.ax{fill:url(#n);}.ay{fill:url(#o);}.az{fill:#dad8ed;}.ba{fill:url(#p);}.bb{fill:#ca2d0a;}.bc{fill:url(#q);}.bd{fill:#7b73b3;}.be{fill:#655ea5;}.bf{fill:url(#r);}.bg{fill:url(#s);}.bh{fill:url(#t);}.bi{fill:#fad9d5;}.bj{fill:url(#u);}</style><linearGradient id="a" x1="4888.922" y1="-5027.878" x2="4940.561" y2="-5027.878" gradientTransform="matrix(0.085, 0.024, 0.024, -0.085, -272.492, -527.581)" gradientUnits="userSpaceOnUse"><stop offset="0" stop-color="#e53121"/><stop offset="1" stop-color="#c22c1a"/></linearGradient><linearGradient id="b" x1="4712.849" y1="-5066.238" x2="4842.438" y2="-5066.238" gradientTransform="matrix(0.085, 0.024, 0.024, -0.085, -272.492, -527.581)" gradientUnits="userSpaceOnUse"><stop offset="0" stop-color="#dcdaee"/><stop offset="1" stop-color="#8f88c0"/></linearGradient><linearGradient id="c" x1="670.771" y1="-1895.038" x2="648.811" y2="-1889.154" gradientTransform="matrix(0.266, 0, 0, -0.266, -153.033, -492.17)" gradientUnits="userSpaceOnUse"><stop offset="0" stop-color="#7b73b3"/><stop offset="1" stop-color="#c6c2e2"/></linearGradient><linearGradient id="d" x1="3263.307" y1="-6232.187" x2="3204.119" y2="-6198.015" gradientTransform="matrix(0.089, 0, 0, -0.089, -264.536, -545.183)" gradientUnits="userSpaceOnUse"><stop offset="0" stop-color="#6c62a8"/><stop offset="1" stop-color="#cbcae6"/></linearGradient><linearGradient id="e" x1="662.417" y1="-1891.414" x2="674.216" y2="-1911.85" gradientTransform="matrix(0.266, 0, 0, -0.266, -153.033, -492.17)" gradientUnits="userSpaceOnUse"><stop offset="0" stop-color="#e53121"/><stop offset="1" stop-color="#a62714"/></linearGradient><linearGradient id="f" x1="3262.011" y1="-6232.773" x2="3296.185" y2="-6291.964" gradientTransform="matrix(0.089, 0, 0, -0.089, -264.536, -545.183)" gradientUnits="userSpaceOnUse"><stop offset="0" stop-color="#e84d2c"/><stop offset="1" stop-color="#811f08"/></linearGradient><linearGradient id="g" x1="668.747" y1="-1902.68" x2="678.837" y2="-1930.4" gradientTransform="matrix(0.266, 0, 0, -0.266, -153.033, -492.17)" gradientUnits="userSpaceOnUse"><stop offset="0" stop-color="#f3f2f9"/><stop offset="1" stop-color="#bbb7db"/></linearGradient><linearGradient id="h" x1="3282.848" y1="-6321.34" x2="3303.043" y2="-6327.131" gradientTransform="matrix(0.089, 0, 0, -0.089, -264.536, -545.183)" gradientUnits="userSpaceOnUse"><stop offset="0" stop-color="#fff"/><stop offset="1" stop-color="#bbb7db"/></linearGradient><linearGradient id="i" x1="4713.966" y1="-5014.016" x2="4799.666" y2="-5014.016" gradientTransform="matrix(0.085, 0.024, 0.024, -0.085, -272.492, -527.581)" gradientUnits="userSpaceOnUse"><stop offset="0" stop-color="#fff098"/><stop offset="1" stop-color="#ffd530"/></linearGradient><linearGradient id="j" x1="612.535" y1="-1880.185" x2="637.19" y2="-1889.159" gradientTransform="matrix(0.266, 0, 0, -0.266, -153.033, -492.17)" gradientUnits="userSpaceOnUse"><stop offset="0" stop-color="#f4a286"/><stop offset="1" stop-color="#e53121"/></linearGradient><linearGradient id="k" x1="610.623" y1="-1885.22" x2="631.059" y2="-1873.422" xlink:href="#j"/><linearGradient id="l" x1="4777.676" y1="-4962.369" x2="4842.487" y2="-4962.369" gradientTransform="matrix(0.085, 0.024, 0.024, -0.085, -272.492, -527.581)" gradientUnits="userSpaceOnUse"><stop offset="0" stop-color="#4464ac"/><stop offset="1" stop-color="#1d3584"/></linearGradient><linearGradient id="m" x1="630.914" y1="-1874.069" x2="653.285" y2="-1874.069" gradientTransform="matrix(0.266, 0, 0, -0.266, -153.032, -492.17)" gradientUnits="userSpaceOnUse"><stop offset="0" stop-color="#4464ac"/><stop offset="0.373" stop-color="#2f4b97"/><stop offset="0.728" stop-color="#223b89"/><stop offset="1" stop-color="#1d3584"/></linearGradient><linearGradient id="n" x1="3073.082" y1="-6418.922" x2="3136.595" y2="-6437.134" gradientTransform="matrix(0.089, 0, 0, -0.089, -264.536, -545.183)" gradientUnits="userSpaceOnUse"><stop offset="0" stop-color="#5b62a2"/><stop offset="0.152" stop-color="#4c579a"/><stop offset="0.482" stop-color="#31438c"/><stop offset="0.776" stop-color="#213783"/><stop offset="1" stop-color="#1b3380"/></linearGradient><linearGradient id="o" x1="612.053" y1="-1925.088" x2="613.941" y2="-1946.671" gradientTransform="matrix(0.266, 0, 0, -0.266, -153.033, -492.17)" gradientUnits="userSpaceOnUse"><stop offset="0" stop-color="#fff"/><stop offset="1" stop-color="#dad8ed"/></linearGradient><linearGradient id="p" x1="3036.012" y1="-6375.965" x2="3082.82" y2="-6389.387" gradientTransform="matrix(0.089, 0, 0, -0.089, -264.536, -545.183)" gradientUnits="userSpaceOnUse"><stop offset="0" stop-color="#fff"/><stop offset="1" stop-color="#d1cee8"/></linearGradient><linearGradient id="q" x1="4881.431" y1="-5080.101" x2="4972.162" y2="-5080.101" gradientTransform="matrix(0.085, 0.024, 0.024, -0.085, -272.492, -527.581)" gradientUnits="userSpaceOnUse"><stop offset="0" stop-color="#d1cee8"/><stop offset="1" stop-color="#7b73b3"/></linearGradient><linearGradient id="r" x1="649.53" y1="-1932.107" x2="662.859" y2="-1955.194" gradientTransform="matrix(0.266, 0, 0, -0.266, -153.033, -492.17)" gradientUnits="userSpaceOnUse"><stop offset="0" stop-color="#e53121"/><stop offset="1" stop-color="#b02916"/></linearGradient><linearGradient id="s" x1="651.304" y1="-1958.593" x2="671.739" y2="-1946.795" gradientTransform="matrix(0.266, 0, 0, -0.266, -153.033, -492.17)" gradientUnits="userSpaceOnUse"><stop offset="0" stop-color="#e53121"/><stop offset="1" stop-color="#9d2511"/></linearGradient><linearGradient id="t" x1="934.048" y1="-1742.685" x2="948.649" y2="-1757.287" gradientTransform="matrix(0.266, 0, 0, -0.266, -231.71, -438.746)" gradientUnits="userSpaceOnUse"><stop offset="0" stop-color="#f5b0ac"/><stop offset="1" stop-color="#ef8495"/></linearGradient><linearGradient id="u" x1="941.246" y1="-1958.038" x2="963.616" y2="-1958.038" gradientTransform="matrix(0.266, 0, 0, -0.266, -235.964, -492.17)" gradientUnits="userSpaceOnUse"><stop offset="0" stop-color="#f5b0ac"/><stop offset="1" stop-color="#ee788f"/></linearGradient></defs><title>sns</title><path class="a" d="M28.943,17.505A11.44,11.44,0,1,1,17.5,6.066,11.439,11.439,0,0,1,28.943,17.505Z"/><circle class="a" cx="17.5" cy="17.5" r="11.491"/><path class="b" d="M17.5,17.5l4.267-2.365,6.785,5.534L17.5,17.5"/><path class="c" d="M21.766,15.135l6.786,5.534-.676-.354-6.125-5Z"/><path class="d" d="M17.5,17.5l4.267-2.365-.016.184L17.9,17.454Z"/><path class="e" d="M28.551,20.669,17.5,17.5l.4-.046,9.977,2.861Z"/><path class="f" d="M17.5,17.5l4.267-2.365-1.1-8.687L17.5,17.5"/><path class="g" d="M20.669,6.448,17.5,17.5l.251-.315,2.86-9.977Z"/><path class="h" d="M21.766,15.135l-1.1-8.687-.058.76L21.6,15.05Z"/><path class="i" d="M17.5,17.5l4.267-2.365L21.6,15.05l-3.851,2.135Z"/><path class="j" d="M17.5,17.5l2.365,4.266-5.534,6.786L17.5,17.5"/><path class="k" d="M19.865,21.766l-5.534,6.786.354-.676L19.68,21.75Z"/><path class="l" d="M17.5,17.5l2.365,4.266-.185-.016L17.546,17.9Z"/><path class="m" d="M14.331,28.552,17.5,17.5l.046.4-2.861,9.977Z"/><path class="n" d="M17.5,17.5l2.365,4.266,8.687-1.1L17.5,17.5"/><path class="o" d="M28.552,20.669,17.5,17.5l.315.25,9.977,2.86Z"/><path class="p" d="M19.865,21.766l8.687-1.1-.76-.059L19.95,21.6Z"/><path class="q" d="M17.5,17.5l2.365,4.266.085-.165L17.815,17.75Z"/><path class="r" d="M17.5,17.5l-4.266,2.365L6.449,14.33,17.5,17.5"/><path class="s" d="M13.234,19.865,6.449,14.33l.675.354,6.126,5Z"/><path class="t" d="M17.5,17.5l-4.266,2.365.016-.184L17.1,17.546Z"/><path class="u" d="M6.449,14.33,17.5,17.5l-.4.046L7.124,14.684Z"/><path class="v" d="M17.5,17.5l-4.266,2.365,1.1,8.687L17.5,17.5"/><path class="w" d="M14.331,28.552,17.5,17.5l-.251.315-2.86,9.976Z"/><path class="x" d="M13.234,19.865l1.1,8.687.058-.761L13.4,19.95Z"/><path class="y" d="M17.5,17.5l-4.266,2.365.165.085,3.85-2.135Z"/><path class="c" d="M17.5,17.5l-2.365-4.267,5.534-6.785L17.5,17.5"/><path class="z" d="M15.135,13.233l5.534-6.785-.353.676-5,6.126Z"/><path class="aa" d="M17.5,17.5l-2.365-4.267.184.017L17.454,17.1Z"/><path class="ab" d="M20.669,6.448,17.5,17.5l-.046-.4,2.862-9.977Z"/><path class="l" d="M17.5,17.5l-2.365-4.267-8.687,1.1L17.5,17.5"/><path class="ac" d="M6.448,14.33,17.5,17.5l-.315-.251-9.977-2.86Z"/><path class="m" d="M15.135,13.233l-8.687,1.1.76.059,7.842-.99Z"/><path class="k" d="M17.5,17.5l-2.365-4.267-.085.166,2.135,3.85Z"/><path class="ad" d="M25.772,9.512a11.437,11.437,0,0,0-5.1-3.064l1.1,8.687,4-5.623Z"/><path class="q" d="M20.669,6.448l1.1,8.687.1-.409L20.837,6.5l-.168-.049Z"/><path class="ae" d="M25.663,9.4l-3.8,5.324-.1.409,4.006-5.623c-.036-.038-.072-.074-.109-.11Z"/><path class="af" d="M25.772,9.512a11.437,11.437,0,0,0-5.1-3.064l.209.383a11.124,11.124,0,0,1,4.605,2.823l.29-.142Z"/><path class="ag" d="M21.766,15.135l4.006-5.623a11.542,11.542,0,0,1,2.885,5.206l-6.89.417Z"/><path class="ah" d="M25.772,9.512l-4.006,5.623.311-.172,3.8-5.337c-.036-.038-.071-.076-.108-.113Z"/><path class="ai" d="M28.618,14.566l-6.541.4-.311.172,6.891-.417C28.645,14.667,28.632,14.616,28.618,14.566Z"/><path class="aj" d="M28.306,14.584A11.267,11.267,0,0,0,25.7,9.88l.073-.368a11.553,11.553,0,0,1,2.886,5.206l-.352-.134Z"/><path class="ak" d="M21.766,15.135l6.892-.417a11.453,11.453,0,0,1-.106,5.951Z"/><path class="al" d="M28.658,14.718l-6.891.417.4.129,6.526-.395c-.012-.05-.023-.1-.036-.151Z"/><path class="l" d="M28.551,20.669q.024-.081.045-.162l-6.428-5.243-.4-.129,6.785,5.534Z"/><path class="am" d="M28.336,20.3a11.13,11.13,0,0,0,.048-5.405l.274-.172a11.453,11.453,0,0,1-.106,5.951Z"/><path class="an" d="M9.512,9.228a11.452,11.452,0,0,0-3.064,5.1l8.687-1.1L9.512,9.228Z"/><path class="ao" d="M6.448,14.33l8.687-1.1-.41-.1L6.5,14.163C6.481,14.219,6.464,14.274,6.448,14.33Z"/><path class="v" d="M9.4,9.336l5.324,3.8.41.1L9.513,9.228,9.4,9.336Z"/><path class="ap" d="M9.512,9.228a11.438,11.438,0,0,0-3.063,5.1l.382-.208a11.13,11.13,0,0,1,2.823-4.6Z"/><path class="aq" d="M15.135,13.233,9.512,9.228a11.542,11.542,0,0,1,5.206-2.885l.417,6.89Z"/><path class="c" d="M9.513,9.228l5.622,4.005-.172-.309-5.337-3.8Zm5.053-2.846.4,6.542.171.309-.416-6.89-.152.039Z"/><path class="ar" d="M14.585,6.694A11.242,11.242,0,0,0,9.88,9.3l-.368-.074a11.542,11.542,0,0,1,5.206-2.885l-.134.352Z"/><path class="as" d="M15.135,13.233l-.417-6.89a11.432,11.432,0,0,1,5.951.106Z"/><path class="at" d="M14.718,6.342l.417,6.891.129-.4-.395-6.526-.151.036Z"/><path class="au" d="M20.669,6.448,20.507,6.4l-5.243,6.429-.129.4,5.534-6.785Z"/><path class="av" d="M20.3,6.664a11.131,11.131,0,0,0-5.405-.048l-.172-.273a11.432,11.432,0,0,1,5.951.106l-.374.215Z"/><path class="n" d="M9.228,25.488a11.458,11.458,0,0,0,5.1,3.064l-1.1-8.687Z"/><path class="p" d="M14.331,28.552l-1.1-8.687-.1.409L14.163,28.5Z"/><path class="aw" d="M9.337,25.6l3.794-5.324.1-.409L9.228,25.488l.109.11Z"/><path class="ax" d="M9.228,25.488a11.449,11.449,0,0,0,5.1,3.064l-.208-.383a11.14,11.14,0,0,1-4.6-2.823Z"/><path class="ay" d="M13.234,19.865,9.228,25.488a11.547,11.547,0,0,1-2.885-5.206l6.891-.417Z"/><path class="t" d="M9.228,25.488l4.006-5.623-.311.172-3.8,5.338.107.113Z"/><path class="az" d="M6.382,20.433l6.541-.4.311-.172-6.891.417c.012.051.026.1.039.151Z"/><path class="ba" d="M6.7,20.416A11.243,11.243,0,0,0,9.3,25.12l-.074.368a11.542,11.542,0,0,1-2.885-5.206l.352.134Z"/><path class="c" d="M13.234,19.865l-6.891.417a11.432,11.432,0,0,1,.106-5.951l6.785,5.534Z"/><path class="bb" d="M6.343,20.281l6.891-.416-.4-.129-6.526.395c.011.05.023.1.036.151Z"/><path class="ah" d="M6.449,14.33c-.016.055-.031.109-.045.163l6.429,5.243.4.129L6.449,14.331Zm.215.374a11.135,11.135,0,0,0-.048,5.406l-.273.172a11.452,11.452,0,0,1,.105-5.951l.217.373Z"/><path class="bc" d="M25.488,25.771a11.438,11.438,0,0,0,3.063-5.1l-8.686,1.1,5.623,4.005Z"/><path class="bd" d="M28.552,20.669l-8.687,1.1.409.1L28.5,20.837c.017-.056.033-.112.049-.168Z"/><path class="al" d="M25.6,25.663l-5.324-3.8-.41-.1,5.623,4.006.111-.108Z"/><path class="be" d="M25.488,25.772a11.441,11.441,0,0,0,3.063-5.1l-.382.208a11.132,11.132,0,0,1-2.824,4.605l.143.291Z"/><path class="bf" d="M19.865,21.766l5.623,4.005a11.558,11.558,0,0,1-5.206,2.886Z"/><path class="c" d="M25.488,25.772l-5.623-4.006.172.31,5.337,3.8.114-.107Zm-5.054,2.846-.4-6.541-.172-.31.417,6.89Z"/><path class="bg" d="M20.416,28.305a11.245,11.245,0,0,0,4.7-2.608l.368.075a11.563,11.563,0,0,1-5.206,2.886l.134-.353Z"/><path class="bh" d="M19.865,21.766l.417,6.891a11.463,11.463,0,0,1-5.951-.105l5.534-6.786Z"/><path class="f" d="M20.282,28.657l-.417-6.89-.129.4.395,6.527Z"/><path class="bi" d="M14.331,28.552l.162.045,5.243-6.43.129-.4-5.534,6.786Z"/><path class="bj" d="M14.705,28.335a11.131,11.131,0,0,0,5.4.049l.172.274a11.448,11.448,0,0,1-5.95-.106l.373-.216Z"/></svg>