<svg xmlns="http://www.w3.org/2000/svg" viewBox="0 0 35 35"><defs><style>.a{fill:#00937b;}</style></defs><title>triodos</title><path class="a" d="M29.062,18.034A12.12,12.12,0,0,0,25.848,9.78a13.045,13.045,0,0,0-3.654-2.772l-.315.5A10.355,10.355,0,0,1,23.958,9.15a12.033,12.033,0,0,1,3.4,8.191c0,.441,0,1.2-.063,1.828a8.6,8.6,0,0,0-2.017-3.529,2.881,2.881,0,0,0-1.071-.882,14.886,14.886,0,0,1-.5,2.835,6.743,6.743,0,0,1,1.008.882A4.38,4.38,0,0,1,26.1,21.437a2.013,2.013,0,0,1-.694,1.512,3.467,3.467,0,0,1-2.2.756,6.643,6.643,0,0,1-3.4-1.134A11.913,11.913,0,0,0,23.013,16.9a11.082,11.082,0,0,0,.378-2.9,9.588,9.588,0,0,0-1.2-4.726A6.139,6.139,0,0,0,16.775,6,10.424,10.424,0,0,0,9.341,9.4a11.2,11.2,0,0,0-3.4,8A12.163,12.163,0,0,0,6,18.917h.567a10.811,10.811,0,0,1,3.4-7.939,13.477,13.477,0,0,1,3.843-2.647,7.749,7.749,0,0,0-2.079,3.529,4.8,4.8,0,0,0-.189,1.323,10.655,10.655,0,0,1,2.709-.945A6.234,6.234,0,0,1,15.83,8.709a2.352,2.352,0,0,1,1.638-.756A2.835,2.835,0,0,1,19.8,9.528a6.255,6.255,0,0,1,.693,3.529,10.587,10.587,0,0,0-6.553,0,10.121,10.121,0,0,0-4.788,2.709A7.545,7.545,0,0,0,6.82,20.744a6.935,6.935,0,0,0,2.269,4.914,12.046,12.046,0,0,0,15.184,1.2l-.126-.378A10.5,10.5,0,0,1,18.981,27.8a12.258,12.258,0,0,1-7.624-2.458,5.853,5.853,0,0,0,1.827.315,8.171,8.171,0,0,0,3.465-.756,12.9,12.9,0,0,1-2.2-1.89,7.659,7.659,0,0,1-2.646.567,3.128,3.128,0,0,1-2.331-.819A2,2,0,0,1,8.9,21.311a4.1,4.1,0,0,1,1.387-2.836,5.444,5.444,0,0,1,1.827-1.323,12.781,12.781,0,0,0,3.276,5.734,10.45,10.45,0,0,0,6.994,3.15,6.275,6.275,0,0,0,4.537-1.7,10.287,10.287,0,0,0,2.142-6.3M20.3,16.144a11.639,11.639,0,0,1-2.9,4.663,10.888,10.888,0,0,1-2.52-4.852,9.275,9.275,0,0,1,2.268-.252,13.1,13.1,0,0,1,3.151.441"/></svg>