<svg xmlns="http://www.w3.org/2000/svg" width="44" height="30" viewBox="0 0 44 30"><defs><style>.a{fill:#fff;}.b{fill:#f7b600;}.c{fill:#1a1f71;}</style></defs><title>visa</title><rect class="a" x="5" y="4" width="34" height="22"/><rect class="b" x="6" y="22.119" width="32.129" height="2.881"/><rect class="c" x="6" y="5" width="32.129" height="2.881"/><path class="c" d="M18.86,11.054l-3.319,7.913H13.37l-1.629-6.326a.872.872,0,0,0-.48-.689,8.214,8.214,0,0,0-2.025-.668l.042-.23h3.486a.955.955,0,0,1,.94.814l.855,4.572,2.13-5.386Zm8.5,5.324c0-2.088-2.881-2.213-2.86-3.132,0-.292.271-.584.877-.668a3.9,3.9,0,0,1,2.025.355l.355-1.67a5.344,5.344,0,0,0-1.921-.355c-2.025,0-3.445,1.086-3.466,2.61-.02,1.148,1.023,1.774,1.8,2.15s1.065.647,1.065.981c0,.522-.648.773-1.232.773a4.21,4.21,0,0,1-2.109-.5l-.376,1.732a5.8,5.8,0,0,0,2.276.418c2.15.021,3.549-1.044,3.57-2.693M32.7,18.967h1.9l-1.649-7.913H31.2a.933.933,0,0,0-.876.585l-3.09,7.328h2.15l.418-1.19h2.63Zm-2.3-2.8,1.086-2.964.626,2.964Zm-8.622-5.115-1.691,7.913H18.046l1.691-7.913Z"/></svg>