<svg id="Layer_1" data-name="Layer 1" xmlns="http://www.w3.org/2000/svg" width="60" height="60" viewBox="0 0 60 60"><title>NS_buienradar-icons</title><path d="M37.579,31.717a9.3,9.3,0,1,0-9.3-9.3A9.306,9.306,0,0,0,37.579,31.717Zm0-17.394a8.1,8.1,0,1,1-8.1,8.1A8.107,8.107,0,0,1,37.579,14.323Z"/><rect x="36.979" width="1.199" height="8.821"/><rect x="24.245" y="5.275" width="1.199" height="8.822" transform="translate(0.427 20.402) rotate(-44.996)"/><rect x="15.158" y="21.821" width="8.821" height="1.199"/><rect x="20.434" y="34.556" width="8.821" height="1.199" transform="translate(-17.582 27.864) rotate(-45)"/><rect x="36.979" y="36.02" width="1.199" height="8.822"/><rect x="49.715" y="30.745" width="1.199" height="8.822" transform="translate(-10.121 45.879) rotate(-45.004)"/><rect x="51.179" y="21.821" width="8.821" height="1.199"/><rect x="45.903" y="9.086" width="8.822" height="1.199" transform="translate(7.888 38.415) rotate(-45)"/></svg>