<svg id="Layer_1" data-name="Layer 1" xmlns="http://www.w3.org/2000/svg" width="60" height="60" viewBox="0 0 60 60"><title>NS_buienradar-icons</title><rect x="43.12" width="1.199" height="5.941"/><rect x="33.472" y="3.698" width="1.199" height="5.867" transform="translate(5.29 26.034) rotate(-45)"/><rect x="52.769" y="22.995" width="1.199" height="5.867" transform="translate(-2.703 45.331) rotate(-45)"/><rect x="54.059" y="15.681" width="5.941" height="1.199"/><rect x="50.435" y="6.032" width="5.867" height="1.199" transform="translate(10.942 39.679) rotate(-45)"/><path d="M20.476,33.021H42.751A6.956,6.956,0,0,0,47.916,21.4a6.626,6.626,0,1,0-9.305-9.343,10.478,10.478,0,0,0-15.472,2.406,9.467,9.467,0,1,0-2.663,18.555ZM43.72,10.843a5.429,5.429,0,0,1,3.316,9.734,6.916,6.916,0,0,0-3.09-1.378c-.041-.007-.083-.012-.124-.019a6.93,6.93,0,0,0-1.071-.091c-.125,0-.25,0-.375.01-.031-.307-.077-.611-.134-.911-.032-.168-.075-.332-.115-.5-.03-.124-.056-.248-.091-.37-.059-.214-.13-.422-.2-.63-.022-.063-.042-.126-.065-.188-.092-.249-.194-.491-.3-.731l-.014-.03a10.438,10.438,0,0,0-1.961-2.87A5.423,5.423,0,0,1,43.72,10.843ZM20.476,15.282a8.225,8.225,0,0,1,2.729.465l.467.163.25-.427a9.28,9.28,0,0,1,13.99-2.447h0l.37.347a9.244,9.244,0,0,1,2.94,6.4l.027.667.66-.1a5.816,5.816,0,0,1,4.681,1.438l.32.289a5.761,5.761,0,0,1-4.159,9.745H20.476a8.27,8.27,0,0,1,0-16.539Z"/></svg>