<svg id="Layer_1" data-name="Layer 1" xmlns="http://www.w3.org/2000/svg" width="60" height="60" viewBox="0 0 60 60"><title>NS_buienradar-icons</title><polygon points="30.348 25.36 30.348 29.201 26.696 28.014 26.325 29.155 29.977 30.342 27.72 33.449 28.691 34.154 30.948 31.047 33.206 34.154 34.176 33.449 31.919 30.342 35.572 29.155 35.201 28.014 31.547 29.201 31.547 25.36 30.348 25.36"/><polygon points="40.105 32.927 40.105 36.768 36.452 35.581 36.081 36.721 39.734 37.908 37.476 41.016 38.447 41.721 40.704 38.614 42.961 41.721 43.932 41.016 41.675 37.909 45.328 36.721 44.956 35.581 41.304 36.768 41.304 32.927 40.105 32.927"/><polygon points="23.872 40.715 27.525 41.902 25.267 45.009 26.238 45.714 28.495 42.608 30.752 45.714 31.723 45.009 29.466 41.903 33.119 40.715 32.747 39.575 29.095 40.762 29.095 36.921 27.896 36.921 27.896 40.762 24.243 39.575 23.872 40.715"/><path d="M59.364,17.284A11.144,11.144,0,0,1,48.9.884.6.6,0,0,0,48.2.023a11.2,11.2,0,0,0-8.147,10.124,10.478,10.478,0,0,0-14.737,2.959,9.467,9.467,0,1,0-2.663,18.555h.82v-1.2h-.82a8.27,8.27,0,1,1,2.729-16.074l.467.163.25-.427a9.278,9.278,0,0,1,14.043-2.4.6.6,0,0,0,.094.125A9.2,9.2,0,0,1,43.4,18.421l.027.665.658-.1h0a5.437,5.437,0,0,1,.817-.056l.1,0a5.829,5.829,0,0,1,4.9,2.924c.016.028.045.044.065.069a5.762,5.762,0,0,1-5.049,8.533H43.847v1.2h1.086a6.954,6.954,0,0,0,6.488-9.467,11.042,11.042,0,0,0,1.105-.059,11.271,11.271,0,0,0,7.328-3.86.6.6,0,0,0,.083-.658A.577.577,0,0,0,59.364,17.284ZM52.4,20.941a10.408,10.408,0,0,1-1.579.044,6.917,6.917,0,0,0-5.261-3.223c-.038,0-.074-.009-.112-.012a7.07,7.07,0,0,0-.887-.013,10.448,10.448,0,0,0-3.328-6.667,10.033,10.033,0,0,1,5.991-9.425A12.349,12.349,0,0,0,57.966,18.483,10.069,10.069,0,0,1,52.4,20.941Z"/></svg>