<svg id="Layer_1" data-name="Layer 1" xmlns="http://www.w3.org/2000/svg" width="60" height="60" viewBox="0 0 60 60"><title>NS_buienradar-icons</title><path d="M26.449,28.115H48.723a6.97,6.97,0,0,0,6.958-6.967,6.884,6.884,0,0,0-1.1-3.719,8.9,8.9,0,0,0,5.272-2.971.6.6,0,0,0,.083-.658.575.575,0,0,0-.574-.332A8.548,8.548,0,0,1,51.332.886a.6.6,0,0,0-.691-.862A8.919,8.919,0,0,0,44.324,6.94,10.49,10.49,0,0,0,29.111,9.561a9.467,9.467,0,1,0-2.662,18.555ZM49.672,1.674a9.753,9.753,0,0,0,8.278,12.968,7.7,7.7,0,0,1-4.023,1.677,1.172,1.172,0,0,1-.219,0l-.009-.009a7.062,7.062,0,0,0-.534-.5l-.014-.012A6.915,6.915,0,0,0,49.2,14.2c-.039,0-.077-.01-.116-.012a6.893,6.893,0,0,0-.738,0c-.031-.312-.078-.62-.136-.926-.028-.147-.067-.29-.1-.434s-.069-.305-.112-.456c-.051-.18-.112-.356-.172-.532-.036-.106-.071-.214-.11-.318-.076-.2-.161-.4-.249-.593-.032-.071-.062-.142-.1-.212-.1-.22-.218-.434-.338-.645-.021-.038-.042-.076-.064-.113q-.206-.354-.439-.69l-.015-.021a10.428,10.428,0,0,0-1.134-1.366A7.74,7.74,0,0,1,49.672,1.674Zm-23.224,8.7a8.224,8.224,0,0,1,2.729.465l.467.163.25-.427A9.289,9.289,0,0,1,44.321,8.514c.011.012.015.028.026.04a9.251,9.251,0,0,1,2.6,4.546c.019.081.03.165.046.246.043.207.087.414.116.625.041.3.069.6.081.9l.027.667.66-.1A5.76,5.76,0,0,1,53,17.319a.557.557,0,0,0,.054.038,5.76,5.76,0,0,1-4.329,9.558H26.449a8.27,8.27,0,0,1,0-16.539Z"/></svg>