<svg id="Layer_1" data-name="Layer 1" xmlns="http://www.w3.org/2000/svg" width="60" height="60" viewBox="0 0 60 60"><title>NS_buienradar-icons</title><polygon points="29.525 37.068 27.267 33.961 30.92 32.773 30.549 31.633 26.896 32.82 26.896 28.979 25.697 28.979 25.697 32.82 22.045 31.633 21.674 32.773 25.327 33.96 23.068 37.068 24.039 37.773 26.297 34.666 28.555 37.773 29.525 37.068"/><polygon points="40.306 39.2 36.653 40.386 36.653 36.546 35.454 36.546 35.454 40.387 31.801 39.2 31.43 40.341 35.083 41.528 32.825 44.635 33.796 45.34 36.054 42.233 38.311 45.34 39.281 44.635 37.024 41.527 40.677 40.341 40.306 39.2"/><polygon points="28.097 43.194 24.444 44.381 24.444 40.54 23.245 40.54 23.245 44.381 19.592 43.194 19.221 44.335 22.874 45.522 20.616 48.629 21.587 49.334 23.845 46.227 26.102 49.334 27.072 48.629 24.815 45.521 28.468 44.335 28.097 43.194"/><rect x="41.432" width="1.199" height="7.07"/><rect x="31.225" y="4.228" width="1.199" height="7.07" transform="translate(3.832 24.777) rotate(-45)"/><rect x="51.638" y="24.641" width="1.199" height="7.07" transform="translate(-4.624 45.19) rotate(-45)"/><rect x="52.931" y="17.37" width="7.069" height="1.199"/><rect x="48.703" y="7.164" width="7.07" height="1.199" transform="translate(9.811 39.211) rotate(-45)"/><path d="M49.6,17.97A7.547,7.547,0,0,0,35.53,14.154a10.478,10.478,0,0,0-14.7,2.985,9.467,9.467,0,1,0-2.662,18.555h.7v-1.2h-.7A8.27,8.27,0,1,1,20.9,18.42l.467.164.25-.428a9.278,9.278,0,0,1,13.364-2.927l-.013.028.371.292a9.322,9.322,0,0,1,3.48,5.891l0,.018a9,9,0,0,1,.1.994l.027.667.66-.1a5.789,5.789,0,0,1,.758-.056c.185,0,.37,0,.554.018l.052,0a5.75,5.75,0,0,1,1.3.274l.014.005a5.785,5.785,0,0,1,.578.232l.079.038q.25.121.489.266l.095.058A5.769,5.769,0,0,1,44,24.2l.047.035a5.764,5.764,0,0,1-3.605,10.258h-.894v1.2h.894A6.951,6.951,0,0,0,45.9,24.433,7.579,7.579,0,0,0,49.6,17.97Zm-4.52,5.57c-.1-.091-.208-.173-.314-.257-.027-.021-.052-.044-.079-.064A6.875,6.875,0,0,0,42.236,22l-.044-.01q-.3-.077-.606-.129c-.063-.01-.126-.017-.19-.026-.158-.022-.318-.04-.478-.051-.085-.006-.171-.009-.257-.012s-.146-.01-.22-.01c-.125,0-.249,0-.374.01a10.444,10.444,0,0,0-3.587-6.89,6.357,6.357,0,1,1,8.6,8.659Z"/></svg>