<svg id="Layer_1" data-name="Layer 1" xmlns="http://www.w3.org/2000/svg" width="60" height="60" viewBox="0 0 60 60"><title>NS_buienradar-icons</title><rect x="41.432" width="1.199" height="7.069"/><rect x="31.225" y="4.227" width="1.199" height="7.07" transform="translate(3.833 24.777) rotate(-45)"/><rect x="51.638" y="24.64" width="1.199" height="7.07" transform="translate(-4.623 45.19) rotate(-45)"/><rect x="52.931" y="17.369" width="7.069" height="1.199"/><rect x="48.703" y="7.163" width="7.07" height="1.199" transform="translate(9.811 39.211) rotate(-45)"/><path d="M49.6,17.969A7.546,7.546,0,0,0,35.53,14.154a10.479,10.479,0,0,0-14.7,2.984,9.467,9.467,0,1,0-2.663,18.555h.7v-1.2h-.7A8.27,8.27,0,1,1,20.9,18.419l.467.163.25-.427a9.277,9.277,0,0,1,13.363-2.926l-.013.028.372.292a9.315,9.315,0,0,1,3.477,5.882l.005.027a9.014,9.014,0,0,1,.1.993l.027.665.658-.1a6.107,6.107,0,0,1,.684-.059c.078,0,.155,0,.232,0,.145,0,.291,0,.433.013.091.008.179.024.269.036.128.017.256.032.382.057.082.017.162.04.242.06.134.033.268.067.4.11.061.02.121.044.181.066.153.056.3.116.451.185l.1.047a5.846,5.846,0,0,1,1.577,1.145l.2.2a5.771,5.771,0,0,1-4.3,9.607h-.895v1.2h.895A6.959,6.959,0,0,0,45.91,24.429,7.576,7.576,0,0,0,49.6,17.969ZM42.031,11.6a6.356,6.356,0,0,1,3.05,11.94c-.019-.017-.039-.031-.058-.048-.135-.119-.273-.234-.418-.343-.035-.026-.072-.05-.107-.076-.138-.1-.277-.2-.422-.286-.052-.032-.107-.06-.16-.091-.134-.077-.266-.156-.406-.224-.12-.059-.244-.109-.367-.161-.149-.063-.3-.121-.455-.174-.132-.045-.263-.091-.4-.128-.089-.024-.18-.042-.271-.063-.13-.03-.26-.06-.392-.083-.1-.016-.192-.027-.289-.04-.131-.017-.263-.032-.4-.041-.1-.007-.2-.01-.3-.013-.069,0-.136-.009-.205-.009-.124,0-.248,0-.375.01a10.441,10.441,0,0,0-3.587-6.889A6.378,6.378,0,0,1,42.031,11.6Z"/><rect x="24.708" y="38.015" width="7.382" height="1.2" transform="translate(-19.038 45.498) rotate(-61.923)"/><rect x="20.143" y="46.574" width="7.382" height="1.2" transform="translate(-29.006 46.009) rotate(-61.933)"/><rect x="21.128" y="33.651" width="7.382" height="1.2" transform="translate(-17.082 40.029) rotate(-61.923)"/><rect x="16.563" y="42.21" width="7.382" height="1.2" transform="translate(-27.051 40.529) rotate(-61.919)"/><rect x="30.471" y="38.015" width="7.382" height="1.2" transform="translate(-15.986 50.591) rotate(-61.933)"/><rect x="25.905" y="46.574" width="7.382" height="1.2" transform="translate(-25.955 51.094) rotate(-61.933)"/></svg>