<svg id="Layer_1" data-name="Layer 1" xmlns="http://www.w3.org/2000/svg" width="60" height="60" viewBox="0 0 60 60"><title>NS_buienradar-icons</title><path d="M26.644,26.544h.732v-1.2h-.732a9.547,9.547,0,1,1,3.15-18.557l.467.164.25-.428A10.705,10.705,0,0,1,50.463,11.48l.027.667.66-.1a6.571,6.571,0,0,1,.976-.073,6.684,6.684,0,0,1,0,13.368h-.979v1.2h.979a7.883,7.883,0,1,0-.507-15.75A11.905,11.905,0,0,0,29.728,5.5a10.744,10.744,0,1,0-3.084,21.039Z"/><polygon points="39.308 21.755 35.313 23.053 35.313 18.853 34.113 18.853 34.113 23.053 30.118 21.755 29.747 22.896 33.742 24.194 31.273 27.592 32.244 28.297 34.713 24.899 37.182 28.297 38.152 27.592 35.683 24.194 39.679 22.896 39.308 21.755"/><polygon points="49.815 29.905 45.82 31.203 45.82 27.003 44.621 27.003 44.621 31.203 40.627 29.905 40.256 31.046 44.251 32.344 41.781 35.742 42.752 36.447 45.221 33.05 47.69 36.447 48.661 35.742 46.192 32.344 50.187 31.046 49.815 29.905"/><polygon points="29.603 40.749 32.071 37.351 34.54 40.749 35.511 40.044 33.042 36.646 37.037 35.348 36.666 34.207 32.671 35.505 32.671 31.305 31.472 31.305 31.472 35.505 27.477 34.207 27.105 35.348 31.101 36.646 28.632 40.044 29.603 40.749"/></svg>