<svg id="Layer_1" data-name="Layer 1" xmlns="http://www.w3.org/2000/svg" width="60" height="60" viewBox="0 0 60 60"><title>NS_buienradar-icons</title><path d="M51.619,10.795A11.906,11.906,0,0,0,29.727,5.5a10.744,10.744,0,1,0-3.084,21.04h.733v-1.2h-.733a9.547,9.547,0,1,1,3.15-18.558l.467.163.25-.427A10.706,10.706,0,0,1,50.463,11.48l.027.666.659-.1a6.683,6.683,0,1,1,.977,13.3h-.98v1.2h.98a7.883,7.883,0,1,0-.507-15.75Z"/><rect x="34.146" y="29.226" width="8.12" height="1.2" transform="translate(-6.088 49.506) rotate(-61.933)"/><rect x="29.125" y="38.64" width="8.12" height="1.2" transform="translate(-17.057 50.047) rotate(-61.919)"/><rect x="29.99" y="24.498" width="8.12" height="1.2" transform="translate(-4.117 43.335) rotate(-61.933)"/><rect x="24.968" y="33.913" width="8.119" height="1.2" transform="translate(-15.084 43.888) rotate(-61.933)"/><rect x="40.485" y="29.226" width="8.121" height="1.2" transform="translate(-2.737 55.09) rotate(-61.922)"/><rect x="35.463" y="38.64" width="8.119" height="1.2" transform="translate(-13.701 55.645) rotate(-61.925)"/></svg>