<svg id="Layer_1" data-name="Layer 1" xmlns="http://www.w3.org/2000/svg" width="60" height="60" viewBox="0 0 60 60"><title>NS_buienradar-icons</title><path d="M59.365,17.284A11.142,11.142,0,0,1,48.9.885.6.6,0,0,0,48.2.023a11.2,11.2,0,0,0-8.147,10.125A10.479,10.479,0,0,0,25.32,13.106a9.467,9.467,0,1,0-2.662,18.555h.82v-1.2h-.82a8.27,8.27,0,1,1,2.729-16.074l.467.164.25-.428a9.279,9.279,0,0,1,14.045-2.4.6.6,0,0,0,.093.123A9.206,9.206,0,0,1,43.4,18.421l.027.667.66-.1a5.813,5.813,0,0,1,5.825,2.87c.018.031.049.048.072.075a5.766,5.766,0,0,1-5.056,8.526H43.846v1.2h1.086a6.944,6.944,0,0,0,6.485-9.467,11.008,11.008,0,0,0,1.11-.06,11.271,11.271,0,0,0,7.327-3.86.6.6,0,0,0,.084-.658A.578.578,0,0,0,59.365,17.284ZM52.4,20.941a10.133,10.133,0,0,1-1.589.044,6.992,6.992,0,0,0-4.349-3.076c-.054-.013-.108-.023-.163-.035-.212-.043-.426-.075-.644-.1-.084-.009-.168-.021-.252-.027a7.036,7.036,0,0,0-.84-.012,10.451,10.451,0,0,0-3.328-6.666,10.033,10.033,0,0,1,5.991-9.426A12.346,12.346,0,0,0,57.965,18.482,10.063,10.063,0,0,1,52.4,20.941Z"/><rect x="29.315" y="34.329" width="7.382" height="1.2" transform="translate(-13.348 47.608) rotate(-61.919)"/><rect x="24.749" y="42.888" width="7.382" height="1.2" transform="translate(-23.315 48.122) rotate(-61.933)"/><rect x="25.734" y="29.965" width="7.381" height="1.2" transform="translate(-11.392 42.144) rotate(-61.926)"/><rect x="21.169" y="38.524" width="7.381" height="1.2" transform="translate(-21.36 42.646) rotate(-61.926)"/><rect x="35.077" y="34.329" width="7.381" height="1.2" transform="translate(-10.294 52.703) rotate(-61.933)"/><rect x="30.512" y="42.888" width="7.381" height="1.2" transform="translate(-20.264 53.207) rotate(-61.933)"/></svg>