<svg id="Layer_1" data-name="Layer 1" xmlns="http://www.w3.org/2000/svg" width="60" height="60" viewBox="0 0 60 60"><title>NS_buienradar-icons</title><polygon points="33.091 27.179 33.091 31.02 29.438 29.833 29.067 30.974 32.72 32.16 30.462 35.268 31.433 35.973 33.691 32.866 35.948 35.973 36.918 35.268 34.661 32.161 38.314 30.974 37.943 29.833 34.29 31.02 34.29 27.179 33.091 27.179"/><path d="M59.364,17.284A11.142,11.142,0,0,1,48.9.885a.6.6,0,0,0-.691-.861,11.2,11.2,0,0,0-8.148,10.124,10.478,10.478,0,0,0-14.737,2.959,9.467,9.467,0,1,0-2.662,18.555h.82v-1.2h-.82a8.27,8.27,0,1,1,2.729-16.074l.467.163.25-.427a9.278,9.278,0,0,1,14.043-2.4.6.6,0,0,0,.094.125A9.2,9.2,0,0,1,43.4,18.421l.027.665.658-.1a5.878,5.878,0,0,1,.819-.056c.06,0,.12,0,.18,0a5.747,5.747,0,0,1,.724.062l.056.008a5.738,5.738,0,0,1,4.049,2.853c.017.029.046.045.067.071a5.762,5.762,0,0,1-5.051,8.531H43.847v1.2h1.086a6.957,6.957,0,0,0,6.49-9.467,11.007,11.007,0,0,0,1.1-.059,11.271,11.271,0,0,0,7.328-3.86.6.6,0,0,0,.083-.658A.584.584,0,0,0,59.364,17.284ZM52.4,20.941a10.385,10.385,0,0,1-1.577.044,6.939,6.939,0,0,0-4.333-3.073c-.058-.013-.116-.025-.175-.037q-.318-.064-.646-.1c-.084-.009-.167-.021-.252-.027a7.19,7.19,0,0,0-.855-.013,10.448,10.448,0,0,0-3.328-6.667,10.031,10.031,0,0,1,5.992-9.424A12.346,12.346,0,0,0,57.966,18.483,10.069,10.069,0,0,1,52.4,20.941Z"/></svg>