<svg id="Layer_1" data-name="Layer 1" xmlns="http://www.w3.org/2000/svg" width="60" height="60" viewBox="0 0 60 60"><title>NS_buienradar-icons</title><polygon points="33.641 33.451 29.987 34.638 29.987 30.797 28.788 30.797 28.788 34.638 25.136 33.451 24.765 34.592 28.417 35.779 26.16 38.886 27.131 39.591 29.388 36.484 31.646 39.591 32.616 38.886 30.358 35.779 34.012 34.592 33.641 33.451"/><rect x="41.431" width="1.199" height="7.069"/><rect x="31.225" y="4.227" width="1.199" height="7.07" transform="translate(3.834 24.779) rotate(-45.006)"/><rect x="51.638" y="24.64" width="1.199" height="7.07" transform="translate(-4.621 45.195) rotate(-45.006)"/><rect x="52.93" y="17.369" width="7.07" height="1.199"/><rect x="48.702" y="7.163" width="7.07" height="1.199" transform="translate(9.811 39.211) rotate(-45)"/><path d="M49.6,17.969a7.547,7.547,0,0,0-14.072-3.815,10.478,10.478,0,0,0-14.7,2.984,9.467,9.467,0,1,0-2.662,18.555h.7v-1.2h-.7A8.27,8.27,0,1,1,20.9,18.419l.467.164.25-.428A9.277,9.277,0,0,1,34.976,15.23l-.013.028.371.292a9.317,9.317,0,0,1,3.477,5.875l.007.036a9.049,9.049,0,0,1,.1.991l.027.665.658-.1a6.073,6.073,0,0,1,.678-.058c.106,0,.21,0,.315.007s.227,0,.339.01c.134.011.265.033.4.053.079.012.159.021.238.036.135.027.267.063.4.1.073.02.148.038.22.061.121.038.239.085.357.131.084.033.168.065.25.1.1.044.194.093.289.143s.207.11.307.17c.069.041.137.085.2.129.13.086.257.177.381.274l.109.086c.151.125.3.257.437.4.021.021.043.04.063.062l.107.11a5.767,5.767,0,0,1-4.247,9.66h-.894v1.2h.894a6.97,6.97,0,0,0,5.476-11.269A7.576,7.576,0,0,0,49.6,17.969Zm-4.512,5.565a6.86,6.86,0,0,0-3.341-1.65l-.042-.009c-.157-.028-.318-.048-.479-.066-.077-.009-.154-.018-.232-.024-.126-.009-.253-.015-.381-.017-.058,0-.115-.008-.172-.008-.124,0-.248,0-.374.01a10.448,10.448,0,0,0-3.587-6.889,6.356,6.356,0,1,1,8.608,8.653Z"/></svg>