<svg id="Layer_1" data-name="Layer 1" xmlns="http://www.w3.org/2000/svg" width="60" height="60" viewBox="0 0 60 60"><title>NS_buienradar-icons</title><path d="M51.619,10.794A11.906,11.906,0,0,0,29.727,5.5a10.744,10.744,0,1,0-3.084,21.039h.733v-1.2h-.733a9.547,9.547,0,1,1,3.15-18.557l.467.164.25-.428A10.706,10.706,0,0,1,50.463,11.48l.027.668.661-.1a6.516,6.516,0,0,1,.974-.073,6.684,6.684,0,0,1,0,13.368h-.979v1.2h.979a7.883,7.883,0,1,0-.506-15.75Z"/><rect x="34.146" y="29.225" width="8.12" height="1.2" transform="translate(-6.088 49.505) rotate(-61.933)"/></svg>