<svg id="Layer_1" data-name="Layer 1" xmlns="http://www.w3.org/2000/svg" width="60" height="60" viewBox="0 0 60 60"><title>NS_buienradar-icons</title><path d="M18.863,35.693v-1.2h-.7A8.27,8.27,0,1,1,20.9,18.419l.467.163.25-.427a9.277,9.277,0,0,1,13.363-2.926l-.013.028.371.292a9.319,9.319,0,0,1,3.479,5.887l0,.022a9.031,9.031,0,0,1,.1.994l.027.667.66-.1a5.88,5.88,0,0,1,3.274.484l.037.018a5.785,5.785,0,0,1,.531.289l.067.041a5.736,5.736,0,0,1,.507.359l.027.02a5.764,5.764,0,0,1-3.6,10.261h-.895v1.2h.895A6.941,6.941,0,0,0,45.9,24.437,7.545,7.545,0,1,0,35.53,14.154a10.478,10.478,0,0,0-14.7,2.984,9.468,9.468,0,1,0-2.663,18.556ZM42.031,11.6a6.357,6.357,0,0,1,3.05,11.941,6.887,6.887,0,0,0-3.516-1.684c-.052-.009-.1-.014-.157-.022-.163-.023-.327-.041-.492-.052-.087-.006-.175-.009-.263-.012-.07,0-.139-.01-.21-.01-.125,0-.249,0-.375.01a10.444,10.444,0,0,0-3.587-6.89A6.379,6.379,0,0,1,42.031,11.6Z"/><rect x="41.432" width="1.199" height="7.07"/><rect x="31.225" y="4.228" width="1.199" height="7.07" transform="translate(3.832 24.777) rotate(-45)"/><rect x="51.638" y="24.641" width="1.199" height="7.07" transform="translate(-4.623 45.19) rotate(-45)"/><rect x="52.931" y="17.37" width="7.069" height="1.199"/><rect x="48.703" y="7.163" width="7.07" height="1.199" transform="translate(9.814 39.215) rotate(-45.006)"/><rect x="24.339" y="38.016" width="7.382" height="1.2" transform="translate(-19.233 45.181) rotate(-61.933)"/></svg>