<svg id="Layer_1" data-name="Layer 1" xmlns="http://www.w3.org/2000/svg" width="60" height="60" viewBox="0 0 60 60"><title>NS_buienradar-icons</title><path d="M52.125,25.346h-.979v1.2h.979a7.883,7.883,0,1,0-.506-15.751A11.906,11.906,0,0,0,29.727,5.5a10.745,10.745,0,1,0-3.084,21.04h.732v-1.2h-.732a9.547,9.547,0,1,1,3.15-18.558l.467.163.25-.427A10.706,10.706,0,0,1,50.463,11.48l.027.666.659-.1a6.683,6.683,0,1,1,.976,13.3Z"/><polygon points="43.821 24.76 39.826 26.058 39.826 21.857 38.627 21.857 38.627 26.057 34.633 24.76 34.262 25.9 38.257 27.198 35.787 30.597 36.758 31.302 39.227 27.904 41.695 31.302 42.666 30.597 40.197 27.198 44.192 25.9 43.821 24.76"/></svg>