<svg id="Layer_1" data-name="Layer 1" xmlns="http://www.w3.org/2000/svg" width="60" height="60" viewBox="0 0 60 60"><title>NS_buienradar-icons</title><rect x="35.291" width="1.199" height="8.604"/><rect x="21.498" y="6.317" width="1.199" height="8.001" transform="translate(-0.823 18.647) rotate(-45)"/><rect x="49.084" y="33.902" width="1.199" height="8.001" transform="translate(-12.249 46.238) rotate(-45.005)"/><rect x="51.396" y="23.51" width="8.604" height="1.199"/><rect x="45.683" y="9.718" width="8.001" height="1.199" transform="translate(7.257 38.153) rotate(-45)"/><path d="M35.891,13.594a10.537,10.537,0,0,0-8.774,4.775,10.5,10.5,0,0,0-12.588,4.1,9.467,9.467,0,1,0-2.662,18.555H34.141a6.941,6.941,0,0,0,6.908-7.781,10.495,10.495,0,0,0-5.158-19.646Zm-1.75,26.229H11.866a8.27,8.27,0,1,1,2.729-16.074l.467.164.25-.428a9.268,9.268,0,0,1,11.282-4.023l.488.217a9.283,9.283,0,0,1,4.546,4.307c.015.031.032.06.047.091a9.149,9.149,0,0,1,.462,1.123c.01.032.018.065.028.1a9.214,9.214,0,0,1,.262,1.024c.019.094.038.188.053.283a9.314,9.314,0,0,1,.131,1.177l.027.665.658-.1a6.024,6.024,0,0,1,.622-.056c.089,0,.177,0,.265,0,.117,0,.234,0,.348.007.094.006.186.018.279.028.108.012.217.025.323.043.089.015.177.034.264.053.109.024.216.05.322.079q.12.034.239.073.168.055.331.121c.07.028.139.056.207.086.116.052.228.108.339.167.058.031.118.06.175.093.117.067.229.141.341.216.049.033.1.063.147.1.113.082.221.17.328.26.042.035.087.068.128.1.078.069.149.145.224.219a5.774,5.774,0,0,1,1.617,3.1l.071.4a5.844,5.844,0,0,1,.033.609A5.77,5.77,0,0,1,34.141,39.822Zm6.653-7.8a6.943,6.943,0,0,0-1.637-2.781c-.027-.028-.053-.057-.081-.085a6.976,6.976,0,0,0-.743-.653c-.042-.032-.087-.061-.131-.092a6.966,6.966,0,0,0-.719-.454c-.056-.031-.11-.065-.167-.094a6.909,6.909,0,0,0-.849-.364c-.086-.031-.173-.057-.26-.084a6.958,6.958,0,0,0-.8-.2c-.053-.01-.1-.025-.158-.034a7.1,7.1,0,0,0-.969-.079c-.045,0-.088-.011-.134-.011-.124,0-.249,0-.375.01a10.521,10.521,0,0,0-.193-1.181c-.022-.1-.049-.2-.073-.3q-.114-.46-.266-.9c-.028-.081-.054-.162-.084-.242A10.407,10.407,0,0,0,32.03,22.3l-.012-.017A10.456,10.456,0,0,0,28.2,18.865a9.309,9.309,0,1,1,12.59,13.156Z"/></svg>