<svg id="Layer_1" data-name="Layer 1" xmlns="http://www.w3.org/2000/svg" width="60" height="60" viewBox="0 0 60 60"><title>NS_buienradar-icons</title><path d="M59.365,17.284A11.142,11.142,0,0,1,48.9.885.6.6,0,0,0,48.2.023a11.2,11.2,0,0,0-8.147,10.125A10.478,10.478,0,0,0,25.32,13.106a9.467,9.467,0,1,0-2.662,18.555h.82v-1.2h-.82a8.27,8.27,0,1,1,2.729-16.074l.467.164.25-.428a9.279,9.279,0,0,1,14.045-2.4.593.593,0,0,0,.094.124A9.205,9.205,0,0,1,43.4,18.421l.027.667.66-.1a5.8,5.8,0,0,1,5.825,2.87c.018.031.049.048.072.075a5.766,5.766,0,0,1-5.056,8.526H43.846v1.2h1.086a6.947,6.947,0,0,0,6.486-9.467,11.057,11.057,0,0,0,1.109-.06,11.267,11.267,0,0,0,7.327-3.86.6.6,0,0,0,.084-.658A.583.583,0,0,0,59.365,17.284ZM52.4,20.941a10.151,10.151,0,0,1-1.586.044,6.969,6.969,0,0,0-4.4-3.091h-.006a6.9,6.9,0,0,0-.846-.129l-.1-.01a7.017,7.017,0,0,0-.9-.016,10.453,10.453,0,0,0-3.328-6.666,10.033,10.033,0,0,1,5.991-9.426A12.346,12.346,0,0,0,57.965,18.482,10.063,10.063,0,0,1,52.4,20.941Z"/><rect x="29.196" y="34.397" width="7.382" height="1.2" transform="translate(-13.468 47.55) rotate(-61.933)"/></svg>