<svg id="Layer_1" data-name="Layer 1" xmlns="http://www.w3.org/2000/svg" width="60" height="60" viewBox="0 0 60 60"><title>NS_buienradar-icons</title><path d="M59.362,20.891A13.633,13.633,0,0,1,46.464.883a.6.6,0,0,0-.7-.858,13.511,13.511,0,0,0-9.784,13.7,10.451,10.451,0,0,0-5.3-1.438h-.048a10.528,10.528,0,0,0-8.783,4.838,9.894,9.894,0,0,0-2.665-.371,9.469,9.469,0,0,0,.038,18.938h.043c.21,0,22.266-.1,22.277-.1a6.96,6.96,0,0,0,6.928-7,6.993,6.993,0,0,0-.307-2.027,13.508,13.508,0,0,0,11.686-4.687.6.6,0,0,0,.08-.658A.611.611,0,0,0,59.362,20.891ZM45.608,32.684a5.717,5.717,0,0,1-4.068,1.707l-22.271.1h-.037A8.27,8.27,0,0,1,19.2,17.95h.039a8.2,8.2,0,0,1,2.691.453l.469.161.247-.429a9.327,9.327,0,0,1,8-4.652h.042a9.244,9.244,0,0,1,5.521,1.823.6.6,0,0,0,.142.161,9.315,9.315,0,0,1,3.5,5.847c0,.018.008.036.01.054a8.99,8.99,0,0,1,.1.988l.03.665.659-.1a5.746,5.746,0,0,1,.807-.064l.053,0h.023a5.67,5.67,0,0,1,4.192,1.855c.05.053.091.112.138.167a5.886,5.886,0,0,1,.8,1.214l.01.011a5.7,5.7,0,0,1-1.07,6.577Zm5.333-7.322a12.409,12.409,0,0,1-3.309-.07A6.907,6.907,0,0,0,45.1,22.656l-.08-.048a6.889,6.889,0,0,0-.759-.387l-.02-.009a6.851,6.851,0,0,0-.816-.286c-.052-.015-.106-.026-.158-.039q-.33-.085-.669-.137c-.076-.012-.151-.024-.227-.033a7.064,7.064,0,0,0-.843-.057H41.52c-.093,0-.182,0-.272.008-.045,0-.09,0-.136,0A10.447,10.447,0,0,0,37.259,14.6c-.007-.043-.015-.085-.021-.128A12.328,12.328,0,0,1,44.784,1.636,14.839,14.839,0,0,0,57.978,22.11,12.319,12.319,0,0,1,50.941,25.361Z"/></svg>