<svg id="Layer_1" data-name="Layer 1" xmlns="http://www.w3.org/2000/svg" width="60" height="60" viewBox="0 0 60 60"><title>NS_buienradar-icons</title><path d="M22.659,31.66H44.933a6.956,6.956,0,0,0,6.49-9.467c.374,0,.744-.02,1.1-.059a11.262,11.262,0,0,0,7.327-3.86.6.6,0,0,0,.083-.658.573.573,0,0,0-.574-.332A11.142,11.142,0,0,1,48.9.884a.6.6,0,0,0-.691-.861,11.2,11.2,0,0,0-8.148,10.123,10.478,10.478,0,0,0-14.737,2.959A9.467,9.467,0,1,0,22.659,31.66ZM47.221,1.647A12.347,12.347,0,0,0,57.966,18.482a10.033,10.033,0,0,1-7.146,2.5,6.911,6.911,0,0,0-5.249-3.223l-.114-.012a7.085,7.085,0,0,0-.9-.014A10.448,10.448,0,0,0,41.23,11.07,10.03,10.03,0,0,1,47.221,1.647ZM22.659,13.922a8.224,8.224,0,0,1,2.729.465l.467.163.25-.427a9.278,9.278,0,0,1,14.043-2.4.6.6,0,0,0,.094.125A9.2,9.2,0,0,1,43.4,18.42l.027.665.658-.1a5.834,5.834,0,0,1,.816-.056c.063,0,.125,0,.187,0A5.707,5.707,0,0,1,45.81,19l.057.008a5.74,5.74,0,0,1,4.049,2.854c.018.031.049.048.072.075a5.764,5.764,0,0,1-5.055,8.526H22.659a8.27,8.27,0,0,1,0-16.539Z"/></svg>