<svg id="Layer_1" data-name="Layer 1" xmlns="http://www.w3.org/2000/svg" width="60" height="60" viewBox="0 0 60 60"><title>NS_buienradar-icons</title><path d="M18.167,35.692H40.441A6.952,6.952,0,0,0,45.9,24.432,7.545,7.545,0,1,0,35.53,14.154a10.479,10.479,0,0,0-14.7,2.984,9.467,9.467,0,1,0-2.662,18.555ZM42.031,11.6a6.357,6.357,0,0,1,3.05,11.941c-.076-.068-.157-.128-.235-.193-.062-.051-.121-.1-.184-.151-.137-.106-.28-.2-.423-.3-.039-.025-.075-.053-.114-.077A6.858,6.858,0,0,0,42.261,22c-.055-.015-.112-.025-.167-.039-.16-.039-.321-.075-.485-.1-.084-.014-.17-.024-.255-.035-.139-.018-.278-.034-.418-.044-.1-.007-.192-.01-.289-.013-.069,0-.136-.009-.205-.009-.125,0-.249,0-.374.01a10.444,10.444,0,0,0-3.587-6.89A6.381,6.381,0,0,1,42.031,11.6ZM18.167,17.954a8.216,8.216,0,0,1,2.729.465l.467.164.25-.428a9.279,9.279,0,0,1,13.364-2.926l-.013.028.371.292a9.321,9.321,0,0,1,3.479,5.891l0,.018a8.973,8.973,0,0,1,.1.994l.027.667.66-.1a5.767,5.767,0,0,1,.764-.057q.255,0,.507.016c.033,0,.068,0,.1.005a5.751,5.751,0,0,1,1.285.271l.043.016a5.754,5.754,0,0,1,.55.222l.095.046c.162.079.321.166.475.259l.1.063A5.741,5.741,0,0,1,44,24.2l.049.037a5.763,5.763,0,0,1-3.606,10.256H18.167a8.27,8.27,0,0,1,0-16.539Z"/><rect x="41.432" width="1.199" height="7.07"/><rect x="31.225" y="4.228" width="1.199" height="7.07" transform="translate(3.831 24.774) rotate(-44.994)"/><rect x="51.638" y="24.641" width="1.199" height="7.07" transform="translate(-4.623 45.19) rotate(-45)"/><rect x="52.931" y="17.37" width="7.069" height="1.199"/><rect x="48.703" y="7.163" width="7.07" height="1.199" transform="translate(9.811 39.211) rotate(-45)"/></svg>