<svg id="Layer_1" data-name="Layer 1" xmlns="http://www.w3.org/2000/svg" width="60" height="60" viewBox="0 0 60 60"><title>NS_buienradar-icons</title><path d="M59.365,17.285A11.144,11.144,0,0,1,48.9.885a.6.6,0,0,0-.061-.659.593.593,0,0,0-.631-.2,11.2,11.2,0,0,0-8.147,10.125,10.477,10.477,0,0,0-14.736,2.958A9.458,9.458,0,0,0,13.2,22.193a9.5,9.5,0,0,0,6.828,9.055l.336-1.152a8.249,8.249,0,1,1,5.023-15.707l.467.163.25-.427a9.278,9.278,0,0,1,14.044-2.4.593.593,0,0,0,.094.124A9.2,9.2,0,0,1,43.4,18.421l.027.667.66-.1a5.8,5.8,0,0,1,5.825,2.87c.018.031.049.048.072.075a5.736,5.736,0,0,1-3.339,8.233l.359,1.145A6.9,6.9,0,0,0,51.414,22.2a10.982,10.982,0,0,0,1.113-.06,11.267,11.267,0,0,0,7.327-3.86.6.6,0,0,0,.084-.658A.607.607,0,0,0,59.365,17.285ZM52.4,20.942a10.286,10.286,0,0,1-1.6.044A7.02,7.02,0,0,0,46.428,17.9l-.092-.02a6.816,6.816,0,0,0-.743-.113c-.056-.006-.112-.014-.169-.018a6.861,6.861,0,0,0-.866-.014q-.048-.475-.139-.94a10.445,10.445,0,0,0-3.189-5.726,10.033,10.033,0,0,1,5.991-9.426A12.348,12.348,0,0,0,57.965,18.483,10.063,10.063,0,0,1,52.4,20.942Z"/><rect x="28.085" y="24.455" width="14.911" height="1.199"/><rect x="28.085" y="35.137" width="14.911" height="1.199"/><rect x="24.199" y="29.796" width="14.911" height="1.199"/></svg>