<svg id="Layer_1" data-name="Layer 1" xmlns="http://www.w3.org/2000/svg" width="60" height="60" viewBox="0 0 60 60"><title>NS_buienradar-icons</title><rect x="17.161" y="25.441" width="36.553" height="1.199"/><path d="M23.447,21.247H60v-1.2H49.561a10.672,10.672,0,0,0,2.013-1.794.6.6,0,0,0,.084-.657.569.569,0,0,0-.574-.333A11.129,11.129,0,0,1,40.628.884a.6.6,0,0,0-.691-.861,11.254,11.254,0,0,0-3.456,20.024H23.447Zm9.541-9.259A10.052,10.052,0,0,1,38.953,1.646,12.333,12.333,0,0,0,49.671,18.461a10.393,10.393,0,0,1-2.528,1.587H38.811A10.132,10.132,0,0,1,32.988,11.988Z"/></svg>