<svg id="Layer_1" data-name="Layer 1" xmlns="http://www.w3.org/2000/svg" width="60" height="60" viewBox="0 0 60 60"><title>NS_buienradar-icons</title><rect x="41.431" width="1.199" height="7.07"/><rect x="31.224" y="4.228" width="1.199" height="7.07" transform="translate(3.832 24.776) rotate(-45)"/><rect x="51.637" y="24.641" width="1.199" height="7.07" transform="translate(-4.625 45.184) rotate(-44.994)"/><rect x="52.93" y="17.37" width="7.07" height="1.199"/><rect x="48.702" y="7.163" width="7.07" height="1.199" transform="translate(9.811 39.211) rotate(-45)"/><path d="M49.6,17.969a7.547,7.547,0,0,0-14.072-3.815,10.478,10.478,0,0,0-14.7,2.984,9.449,9.449,0,1,0-5.293,18.141l.336-1.152A8.248,8.248,0,1,1,20.9,18.419l.467.163.25-.427A9.277,9.277,0,0,1,34.976,15.23l-.013.028.371.292a9.318,9.318,0,0,1,3.478,5.888l0,.022a9.031,9.031,0,0,1,.1.994l.027.667.66-.1a6.3,6.3,0,0,1,1.34-.037h.018a5.78,5.78,0,0,1,1.911.518l.052.025a5.772,5.772,0,0,1,.52.283l.07.042a5.708,5.708,0,0,1,.519.368l.01.007a5.753,5.753,0,0,1,.506.458l.021.021A5.736,5.736,0,0,1,42.157,34.2l.359,1.145A6.914,6.914,0,0,0,45.9,24.435,7.581,7.581,0,0,0,49.6,17.969ZM42.03,11.6A6.356,6.356,0,0,1,45.08,23.54,6.892,6.892,0,0,0,42.227,22l-.045-.01q-.293-.076-.593-.126c-.072-.012-.144-.02-.217-.03-.147-.02-.295-.036-.444-.047-.094-.007-.188-.01-.283-.013-.068,0-.135-.009-.2-.009-.125,0-.249,0-.375.01a10.445,10.445,0,0,0-3.586-6.889A6.378,6.378,0,0,1,42.03,11.6Z"/><rect x="23.441" y="29.062" width="14.91" height="1.199"/><rect x="23.441" y="39.744" width="14.91" height="1.199"/><rect x="19.554" y="34.403" width="14.911" height="1.199"/></svg>