<svg id="Layer_1" data-name="Layer 1" xmlns="http://www.w3.org/2000/svg" width="60" height="60" viewBox="0 0 60 60"><title>NS_buienradar-icons</title><rect x="41.432" width="1.199" height="7.07"/><rect x="31.225" y="4.228" width="1.199" height="7.07" transform="translate(3.831 24.774) rotate(-44.994)"/><rect x="51.638" y="24.641" width="1.199" height="7.07" transform="translate(-4.625 45.185) rotate(-44.994)"/><rect x="52.931" y="17.37" width="7.069" height="1.199"/><rect x="48.703" y="7.163" width="7.07" height="1.199" transform="translate(9.811 39.211) rotate(-45)"/><path d="M49.6,17.969A7.547,7.547,0,0,0,35.53,14.154a10.478,10.478,0,0,0-14.7,2.984,9.449,9.449,0,1,0-5.293,18.141l.336-1.152A8.248,8.248,0,1,1,20.9,18.419l.467.163.25-.427a9.277,9.277,0,0,1,13.363-2.926l-.013.028.371.292a9.319,9.319,0,0,1,3.479,5.887l0,.022a9.031,9.031,0,0,1,.1.994l.027.667.66-.1a5.8,5.8,0,0,1,.759-.056c.187,0,.374,0,.559.018l.043,0a5.778,5.778,0,0,1,1.906.517l.054.026a5.793,5.793,0,0,1,.516.281l.075.046a5.729,5.729,0,0,1,.5.354l.031.023A5.739,5.739,0,0,1,42.158,34.2l.359,1.145A6.913,6.913,0,0,0,45.9,24.435,7.58,7.58,0,0,0,49.6,17.969ZM42.031,11.6a6.357,6.357,0,0,1,3.05,11.941A6.9,6.9,0,0,0,42.233,22c-.028-.008-.057-.013-.084-.02-.182-.046-.366-.086-.552-.117-.081-.014-.163-.023-.244-.034-.138-.018-.276-.034-.416-.044-.1-.007-.2-.011-.3-.014-.065,0-.129-.009-.195-.009-.125,0-.249,0-.375.01a10.444,10.444,0,0,0-3.587-6.89A6.379,6.379,0,0,1,42.031,11.6Z"/><rect x="20.862" y="38.392" width="7.382" height="1.2" transform="translate(-21.406 42.3) rotate(-61.919)"/><rect x="16.296" y="46.951" width="7.382" height="1.2" transform="translate(-31.376 42.815) rotate(-61.933)"/><rect x="17.281" y="34.028" width="7.382" height="1.2" transform="translate(-19.451 36.839) rotate(-61.93)"/><rect x="12.716" y="42.587" width="7.382" height="1.2" transform="translate(-29.42 37.342) rotate(-61.93)"/><path d="M42.916,40.464H36.287l3.074-5.824H31.952L26.209,45.323h6.366l-2.812,5.762a.776.776,0,0,0,1.178.951l12.553-9.914a.93.93,0,0,0-.578-1.658Zm-11.26,9.479L34.5,44.124H28.217l4.452-8.285h4.7L34.3,41.663h7.842Z"/></svg>