<svg id="Layer_1" data-name="Layer 1" xmlns="http://www.w3.org/2000/svg" width="60" height="60" viewBox="0 0 60 60"><title>NS_buienradar-icons-export</title><path d="M59.364,17.284A11.142,11.142,0,0,1,48.9.884.6.6,0,0,0,48.2.023a11.2,11.2,0,0,0-8.147,10.125A10.478,10.478,0,0,0,25.32,13.106,9.457,9.457,0,0,0,13.2,22.192a9.5,9.5,0,0,0,6.828,9.055l.336-1.152a8.248,8.248,0,1,1,5.022-15.707l.467.164.25-.428a9.278,9.278,0,0,1,14.046-2.4.586.586,0,0,0,.091.121A9.21,9.21,0,0,1,43.4,18.421l.027.667.66-.1.022,0a5.813,5.813,0,0,1,.861-.059h.02a5.659,5.659,0,0,1,.795.068l.1.015a5.755,5.755,0,0,1,4.029,2.846c.018.031.049.048.072.075a5.736,5.736,0,0,1-3.339,8.233l.359,1.145a6.914,6.914,0,0,0,4.411-9.119,11.065,11.065,0,0,0,1.108-.06,11.276,11.276,0,0,0,7.328-3.86.6.6,0,0,0,.083-.658A.567.567,0,0,0,59.364,17.284ZM52.4,20.941a10.04,10.04,0,0,1-1.584.044,6.967,6.967,0,0,0-4.331-3.074c-.06-.014-.121-.026-.182-.039-.21-.042-.423-.074-.639-.1-.084-.009-.167-.021-.252-.027a7.072,7.072,0,0,0-.849-.012q-.048-.474-.139-.938a10.445,10.445,0,0,0-3.19-5.728,10.032,10.032,0,0,1,5.991-9.426A12.346,12.346,0,0,0,57.965,18.482,10.063,10.063,0,0,1,52.4,20.941Z"/><rect x="25.441" y="34.369" width="7.382" height="1.2" transform="translate(-15.431 44.222) rotate(-61.933)"/><rect x="20.876" y="42.928" width="7.382" height="1.2" transform="translate(-25.401 44.714) rotate(-61.919)"/><rect x="21.861" y="30.005" width="7.382" height="1.2" transform="translate(-13.476 38.752) rotate(-61.933)"/><rect x="17.295" y="38.564" width="7.382" height="1.2" transform="translate(-23.446 39.255) rotate(-61.933)"/><path d="M36.5,30,30.759,40.684h6.365l-2.813,5.765a.776.776,0,0,0,1.18.948l12.551-9.912a.93.93,0,0,0-.575-1.66h-6.63L43.911,30Zm10.186,7.023L36.206,45.3l2.841-5.818H32.767L37.219,31.2h4.7l-3.074,5.824Z"/></svg>