<svg id="Layer_1" data-name="Layer 1" xmlns="http://www.w3.org/2000/svg" width="60" height="60" viewBox="0 0 60 60"><title>NS_buienradar-icons</title><path d="M51.619,10.794A11.906,11.906,0,0,0,29.728,5.5,10.743,10.743,0,0,0,22.235,25.59l.494-1.094A9.542,9.542,0,0,1,29.794,6.787l.467.163.25-.427a10.706,10.706,0,0,1,19.952,4.956l.027.666.659-.1a6.674,6.674,0,0,1,3.767,12.665l.5,1.088a7.873,7.873,0,0,0-3.8-15.008Z"/><rect x="29.087" y="29.22" width="8.12" height="1.2" transform="translate(-8.766 45.028) rotate(-61.919)"/><rect x="24.065" y="38.636" width="8.119" height="1.2" transform="translate(-19.729 45.592) rotate(-61.933)"/><rect x="24.93" y="24.493" width="8.119" height="1.2" transform="translate(-6.794 38.862) rotate(-61.925)"/><rect x="19.908" y="33.907" width="8.12" height="1.2" transform="translate(-17.759 39.417) rotate(-61.928)"/><path d="M54.384,31.562H46.633l3.526-6.682h-8.3L35.366,36.959h7.3L39.374,43.7a.8.8,0,0,0,1.218.982l14.4-11.371a.978.978,0,0,0-.606-1.746ZM41.217,42.655l3.365-6.9H37.374l5.2-9.681h5.593l-3.526,6.682h9.1Z"/></svg>