<svg id="Layer_1" data-name="Layer 1" xmlns="http://www.w3.org/2000/svg" width="60" height="60" viewBox="0 0 60 60"><title>NS_buienradar-icons</title><path d="M51.619,10.793A11.906,11.906,0,0,0,29.727,5.5a10.745,10.745,0,1,0-3.084,21.04h.732v-1.2h-.732a9.547,9.547,0,1,1,3.15-18.558l.467.163.25-.427a10.706,10.706,0,0,1,19.953,4.956l.027.666.659-.1a6.683,6.683,0,1,1,.976,13.3h-.979v1.2h.979a7.883,7.883,0,1,0-.506-15.751Z"/><polygon points="50.352 31.871 46.699 33.058 46.699 29.218 45.5 29.218 45.5 33.058 41.847 31.871 41.476 33.012 45.129 34.198 42.871 37.307 43.842 38.012 46.099 34.904 48.356 38.012 49.327 37.307 47.07 34.199 50.723 33.012 50.352 31.871"/><rect x="34.793" y="28.876" width="7.381" height="1.2" transform="translate(-5.633 49.566) rotate(-61.933)"/><rect x="30.228" y="37.435" width="7.381" height="1.2" transform="translate(-15.602 50.069) rotate(-61.933)"/><rect x="31.213" y="24.512" width="7.381" height="1.2" transform="translate(-3.679 44.091) rotate(-61.926)"/><rect x="26.648" y="33.071" width="7.381" height="1.2" transform="translate(-13.648 44.594) rotate(-61.926)"/></svg>